<?xml version="1.0" encoding="UTF-8"?>
<svg xmlns="http://www.w3.org/2000/svg" viewBox="0 0 800 484" width="800" height="484">
  <title>The Data Tapestry - GitHub Trends Woven in Time</title>
  <desc>A living data art piece that weaves daily GitHub trending repositories into an evolving tapestry. Each thread represents one day of open source activity.</desc>

  <style>
    .thread {
      animation: breathe 8s ease-in-out infinite alternate;
    }

    @keyframes breathe {
      0% {
        opacity: 0.85;
      }
      100% {
        opacity: 1;
      }
    }

    .date-label {
      font-family: ui-monospace, monospace;
      font-size: 8px;
      fill: #666;
    }

    .title {
      font-family: system-ui, sans-serif;
      font-size: 14px;
      fill: #333;
      font-weight: 600;
    }

    .subtitle {
      font-family: system-ui, sans-serif;
      font-size: 10px;
      fill: #888;
    }

    .empty-state {
      font-family: system-ui, sans-serif;
      font-size: 12px;
      fill: #999;
      text-anchor: middle;
    }
  </style>

  <defs>
    
    <linearGradient id="thread-0" x1="0%" y1="0%" x2="100%" y2="0%">
      <stop offset="0%" stop-color="#3572A5" />
      <stop offset="50%" stop-color="#3178c6" />
      <stop offset="100%" stop-color="#f1e05a" />
    </linearGradient>

    <linearGradient id="thread-1" x1="0%" y1="0%" x2="100%" y2="0%">
      <stop offset="0%" stop-color="#3572A5" />
      <stop offset="50%" stop-color="#3178c6" />
      <stop offset="100%" stop-color="#f1e05a" />
    </linearGradient>

    <linearGradient id="thread-2" x1="0%" y1="0%" x2="100%" y2="0%">
      <stop offset="0%" stop-color="#3178c6" />
      <stop offset="50%" stop-color="#3572A5" />
      <stop offset="100%" stop-color="#f1e05a" />
    </linearGradient>

    <linearGradient id="thread-3" x1="0%" y1="0%" x2="100%" y2="0%">
      <stop offset="0%" stop-color="#3572A5" />
      <stop offset="50%" stop-color="#3178c6" />
      <stop offset="100%" stop-color="#89e051" />
    </linearGradient>

    <linearGradient id="thread-4" x1="0%" y1="0%" x2="100%" y2="0%">
      <stop offset="0%" stop-color="#3178c6" />
      <stop offset="50%" stop-color="#3572A5" />
      <stop offset="100%" stop-color="#89e051" />
    </linearGradient>

    <linearGradient id="thread-5" x1="0%" y1="0%" x2="100%" y2="0%">
      <stop offset="0%" stop-color="#3572A5" />
      <stop offset="50%" stop-color="#3178c6" />
      <stop offset="100%" stop-color="#8b8b8b" />
    </linearGradient>

    <linearGradient id="thread-6" x1="0%" y1="0%" x2="100%" y2="0%">
      <stop offset="0%" stop-color="#3178c6" />
      <stop offset="50%" stop-color="#3572A5" />
      <stop offset="100%" stop-color="#dea584" />
    </linearGradient>

    <linearGradient id="thread-7" x1="0%" y1="0%" x2="100%" y2="0%">
      <stop offset="0%" stop-color="#3572A5" />
      <stop offset="50%" stop-color="#3178c6" />
      <stop offset="100%" stop-color="#8b8b8b" />
    </linearGradient>

    <linearGradient id="thread-8" x1="0%" y1="0%" x2="100%" y2="0%">
      <stop offset="0%" stop-color="#3572A5" />
      <stop offset="50%" stop-color="#3178c6" />
      <stop offset="100%" stop-color="#41b883" />
    </linearGradient>

    <linearGradient id="thread-9" x1="0%" y1="0%" x2="100%" y2="0%">
      <stop offset="0%" stop-color="#3178c6" />
      <stop offset="50%" stop-color="#f1e05a" />
      <stop offset="100%" stop-color="#89e051" />
    </linearGradient>

    <linearGradient id="thread-10" x1="0%" y1="0%" x2="100%" y2="0%">
      <stop offset="0%" stop-color="#3178c6" />
      <stop offset="50%" stop-color="#3572A5" />
      <stop offset="100%" stop-color="#f1e05a" />
    </linearGradient>

    <linearGradient id="thread-11" x1="0%" y1="0%" x2="100%" y2="0%">
      <stop offset="0%" stop-color="#3178c6" />
      <stop offset="50%" stop-color="#3572A5" />
      <stop offset="100%" stop-color="#f1e05a" />
    </linearGradient>

    <linearGradient id="thread-12" x1="0%" y1="0%" x2="100%" y2="0%">
      <stop offset="0%" stop-color="#3178c6" />
      <stop offset="50%" stop-color="#f1e05a" />
      <stop offset="100%" stop-color="#3572A5" />
    </linearGradient>

    <linearGradient id="thread-13" x1="0%" y1="0%" x2="100%" y2="0%">
      <stop offset="0%" stop-color="#3572A5" />
      <stop offset="50%" stop-color="#3178c6" />
      <stop offset="100%" stop-color="#89e051" />
    </linearGradient>

    <linearGradient id="thread-14" x1="0%" y1="0%" x2="100%" y2="0%">
      <stop offset="0%" stop-color="#3178c6" />
      <stop offset="50%" stop-color="#89e051" />
      <stop offset="100%" stop-color="#3572A5" />
    </linearGradient>

    <linearGradient id="thread-15" x1="0%" y1="0%" x2="100%" y2="0%">
      <stop offset="0%" stop-color="#3572A5" />
      <stop offset="50%" stop-color="#3178c6" />
      <stop offset="100%" stop-color="#89e051" />
    </linearGradient>

    <linearGradient id="thread-16" x1="0%" y1="0%" x2="100%" y2="0%">
      <stop offset="0%" stop-color="#3178c6" />
      <stop offset="50%" stop-color="#3572A5" />
      <stop offset="100%" stop-color="#8b8b8b" />
    </linearGradient>

    <linearGradient id="thread-17" x1="0%" y1="0%" x2="100%" y2="0%">
      <stop offset="0%" stop-color="#3178c6" />
      <stop offset="50%" stop-color="#89e051" />
      <stop offset="100%" stop-color="#3572A5" />
    </linearGradient>

    <linearGradient id="thread-18" x1="0%" y1="0%" x2="100%" y2="0%">
      <stop offset="0%" stop-color="#3572A5" />
      <stop offset="50%" stop-color="#3178c6" />
      <stop offset="100%" stop-color="#89e051" />
    </linearGradient>

    <linearGradient id="thread-19" x1="0%" y1="0%" x2="100%" y2="0%">
      <stop offset="0%" stop-color="#3572A5" />
      <stop offset="50%" stop-color="#3178c6" />
      <stop offset="100%" stop-color="#8b8b8b" />
    </linearGradient>

    <linearGradient id="thread-20" x1="0%" y1="0%" x2="100%" y2="0%">
      <stop offset="0%" stop-color="#3572A5" />
      <stop offset="50%" stop-color="#3178c6" />
      <stop offset="100%" stop-color="#8b8b8b" />
    </linearGradient>

    <linearGradient id="thread-21" x1="0%" y1="0%" x2="100%" y2="0%">
      <stop offset="0%" stop-color="#3178c6" />
      <stop offset="50%" stop-color="#3572A5" />
      <stop offset="100%" stop-color="#dea584" />
    </linearGradient>

    <linearGradient id="thread-22" x1="0%" y1="0%" x2="100%" y2="0%">
      <stop offset="0%" stop-color="#3572A5" />
      <stop offset="50%" stop-color="#3178c6" />
      <stop offset="100%" stop-color="#00ADD8" />
    </linearGradient>

    <linearGradient id="thread-23" x1="0%" y1="0%" x2="100%" y2="0%">
      <stop offset="0%" stop-color="#3572A5" />
      <stop offset="50%" stop-color="#00ADD8" />
      <stop offset="100%" stop-color="#3178c6" />
    </linearGradient>

    <linearGradient id="thread-24" x1="0%" y1="0%" x2="100%" y2="0%">
      <stop offset="0%" stop-color="#3572A5" />
      <stop offset="50%" stop-color="#3178c6" />
      <stop offset="100%" stop-color="#00ADD8" />
    </linearGradient>

    <linearGradient id="thread-25" x1="0%" y1="0%" x2="100%" y2="0%">
      <stop offset="0%" stop-color="#3572A5" />
      <stop offset="50%" stop-color="#00ADD8" />
      <stop offset="100%" stop-color="#DA5B0B" />
    </linearGradient>

    <linearGradient id="thread-26" x1="0%" y1="0%" x2="100%" y2="0%">
      <stop offset="0%" stop-color="#3572A5" />
      <stop offset="50%" stop-color="#3178c6" />
      <stop offset="100%" stop-color="#dea584" />
    </linearGradient>

    <linearGradient id="thread-27" x1="0%" y1="0%" x2="100%" y2="0%">
      <stop offset="0%" stop-color="#dea584" />
      <stop offset="50%" stop-color="#3572A5" />
      <stop offset="100%" stop-color="#3178c6" />
    </linearGradient>

    <linearGradient id="thread-28" x1="0%" y1="0%" x2="100%" y2="0%">
      <stop offset="0%" stop-color="#3572A5" />
      <stop offset="50%" stop-color="#3178c6" />
      <stop offset="100%" stop-color="#dea584" />
    </linearGradient>

    <linearGradient id="thread-29" x1="0%" y1="0%" x2="100%" y2="0%">
      <stop offset="0%" stop-color="#3572A5" />
      <stop offset="50%" stop-color="#dea584" />
      <stop offset="100%" stop-color="#3178c6" />
    </linearGradient>

    <linearGradient id="thread-30" x1="0%" y1="0%" x2="100%" y2="0%">
      <stop offset="0%" stop-color="#3572A5" />
      <stop offset="50%" stop-color="#3178c6" />
      <stop offset="100%" stop-color="#89e051" />
    </linearGradient>

    <linearGradient id="thread-31" x1="0%" y1="0%" x2="100%" y2="0%">
      <stop offset="0%" stop-color="#3572A5" />
      <stop offset="50%" stop-color="#f1e05a" />
      <stop offset="100%" stop-color="#89e051" />
    </linearGradient>

    <linearGradient id="thread-32" x1="0%" y1="0%" x2="100%" y2="0%">
      <stop offset="0%" stop-color="#3572A5" />
      <stop offset="50%" stop-color="#89e051" />
      <stop offset="100%" stop-color="#dea584" />
    </linearGradient>

    <linearGradient id="thread-33" x1="0%" y1="0%" x2="100%" y2="0%">
      <stop offset="0%" stop-color="#3572A5" />
      <stop offset="50%" stop-color="#89e051" />
      <stop offset="100%" stop-color="#00ADD8" />
    </linearGradient>

    <linearGradient id="thread-34" x1="0%" y1="0%" x2="100%" y2="0%">
      <stop offset="0%" stop-color="#3572A5" />
      <stop offset="50%" stop-color="#3178c6" />
      <stop offset="100%" stop-color="#3572A5" />
    </linearGradient>

    <linearGradient id="thread-35" x1="0%" y1="0%" x2="100%" y2="0%">
      <stop offset="0%" stop-color="#3572A5" />
      <stop offset="50%" stop-color="#3178c6" />
      <stop offset="100%" stop-color="#3572A5" />
    </linearGradient>

    <linearGradient id="thread-36" x1="0%" y1="0%" x2="100%" y2="0%">
      <stop offset="0%" stop-color="#3572A5" />
      <stop offset="50%" stop-color="#3178c6" />
      <stop offset="100%" stop-color="#3572A5" />
    </linearGradient>

    <!-- Background pattern -->
    <pattern id="loom" patternUnits="userSpaceOnUse" width="20" height="20">
      <rect width="20" height="20" fill="#fafafa"/>
      <circle cx="10" cy="10" r="0.5" fill="#eee"/>
    </pattern>
  </defs>

  <!-- Background -->
  <rect width="100%" height="100%" fill="url(#loom)"/>

  <!-- Threads -->
  <g id="tapestry">
    
    <path
      d="M 20,20 L 35.2,21.039483468669378 L 50.400000000000006,17.992459345037847 L 65.6,22.83765320815039 L 80.80000000000001,16.52721859910693 L 96,23.869283514002262 L 111.2,16.000085399409084 L 126.4,23.855698574786516 L 141.60000000000002,16.553455012280207 L 156.79999999999998,22.80056811010891 L 172,18.037844890515643 L 187.2,20.988916063866384 L 202.4,20.05227461364709 L 217.6,18.91012666718032 L 232.8,22.052583318528924 L 248,17.125746356448662 L 263.20000000000005,23.49842467343913 L 278.40000000000003,16.1177924087786 L 293.59999999999997,23.99923142719728 L 308.8,16.158544906159058 L 324,23.41971991501982 L 339.2,17.236995316549798 L 354.4,21.916434433810316 L 369.6,19.06182024482852 L 384.8,19.89545970105274 L 400,21.14007704987989 L 415.2,17.902724592966834 L 430.40000000000003,22.910363165067384 L 445.6,16.476529574435936 L 460.79999999999995,23.894468599050388 L 476,16.002134802906035 L 491.2,23.82655550390931 L 506.40000000000003,16.60768923556503 L 521.6,22.724969343894728 L 536.8000000000001,18.12961356310589 L 552,20.887283208193725 L 567.1999999999999,20.156788129078492 L 582.4,18.809913954793977 L 597.6,22.141609287200406 L 612.8000000000001,17.054024394699194 L 628,23.547914379528734 L 643.1999999999999,16.093935556654074 L 658.4,23.995816143628968 L 673.6,16.188997650203227 L 688.8,23.364322217365753 L 704,17.31353141223596 L 719.2,21.8240189835951 L 734.4,19.163764884089666 L 749.6,19.790990819731498 L 764.8,21.239891777412073 L 780,17.814422613062952"
      stroke="url(#thread-0)"
      stroke-width="8"
      stroke-linecap="round"
      fill="none"
      opacity="1"
      class="thread"
      style="animation-delay: 0s"
    >
      <title>2026-01-28: 11454 stars, TypeScript, JavaScript, Python, Shell</title>
    </path>

    <path
      d="M 20,33.917702154416816 L 35.2,30.031333350479485 L 50.400000000000006,34.019212832742554 L 65.6,29.93067003621637 L 80.80000000000001,34.119007393511566 L 96,29.831765433775956 L 111.2,34.21700102189155 L 126.4,29.73470360162002 L 141.60000000000002,34.313110433652426 L 156.79999999999998,29.63956703205028 L 172,34.40725394594919 L 187.2,29.546436581098707 L 202.4,34.49935154674362 L 217.6,29.455391399808356 L 232.8,34.589324962806145 L 248,29.366508866963493 L 263.20000000000005,34.67709772623973 L 278.40000000000003,29.27986452332559 L 293.59999999999997,34.7625952394696 L 308.8,29.19553200743198 L 324,34.84574483864318 L 339.2,29.113582993010404 L 354.4,34.92647585538683 L 369.6,29.034087128064414 L 384.8,35.00471967686643 L 400,28.957111975679634 L 415.2,35.08040980410097 L 430.40000000000003,28.882722956602358 L 445.6,35.15348190847976 L 460.79999999999995,28.81098329363885 L 476,35.22387388643489 L 491.2,28.74195395792251 L 506.40000000000003,35.291525912222816 L 521.6,28.675693617095025 L 536.8000000000001,35.35638048876977 L 552,28.61225858544512 L 567.1999999999999,35.41838249653816 L 582.4,28.551702776046927 L 597.6,35.477479240372574 L 612.8000000000001,28.494077654940234 L 628,35.53362049428507 L 643.1999999999999,28.43943219738924 L 658.4,35.586758544141595 L 673.6,28.38781284625892 L 688.8,35.63684822821445 L 704,28.339263472543617 L 719.2,35.683846975564634 L 734.4,28.293825338081373 L 749.6,35.727714842222824 L 764.8,28.251537060485322 L 780,35.76841454513746"
      stroke="url(#thread-1)"
      stroke-width="8"
      stroke-linecap="round"
      fill="none"
      opacity="0.9837837837837838"
      class="thread"
      style="animation-delay: 0.1s"
    >
      <title>2026-01-27: 12558 stars, TypeScript, JavaScript, Python, Shell</title>
    </path>

    <path
      d="M 20,47.36588393923159 L 35.2,46.74852354074405 L 50.400000000000006,41.65465876817191 L 65.6,40.380637677985426 L 80.80000000000001,45.001451041903415 L 96,47.99120689328555 L 111.2,44.48050719068952 L 126.4,40.18720820923905 L 141.60000000000002,42.10378113748843 L 156.79999999999998,47.10871474608944 L 172,47.050502650330415 L 187.2,42.023954553467284 L 202.4,40.21578023207454 L 217.6,44.57094273225033 L 232.8,47.996214110744646 L 248,44.912874709182 L 263.20000000000005,40.342741555240515 L 278.40000000000003,41.729164051061346 L 293.59999999999997,46.81408390648659 L 308.8,47.31572159980305 L 324,42.41706272489472 L 339.2,40.09652462314597 L 354.4,44.13355426261738 L 369.6,47.95306484797784 L 384.8,45.334241607671856 L 400,40.542346787556205 L 415.2,41.38191173124604 L 430.40000000000003,46.4855418768821 L 445.6,47.54098436143625 L 460.79999999999995,42.82924612239238 L 476,40.0243079439615 L 491.2,43.6945563939311 L 506.40000000000003,47.86227907627837 L 521.6,45.73953019358487 L 536.8000000000001,40.78361855823512 L 552,41.06620875099315 L 567.1999999999999,46.127047761396376 L 582.4,47.72357640056657 L 597.6,43.255537719399356 L 612.8000000000001,40.000000443458454 L 628,43.25923928122236 L 643.1999999999999,47.72495081190723 L 658.4,46.12385652646339 L 673.6,41.0636494156414 L 688.8,40.78585949713088 L 704,45.74292160252595 L 719.2,47.861297387162104 L 734.4,43.69080047813623 L 749.6,40.02389503979258 L 764.8,42.832848724478175 L 780,47.54273493262235"
      stroke="url(#thread-2)"
      stroke-width="8"
      stroke-linecap="round"
      fill="none"
      opacity="0.9675675675675676"
      class="thread"
      style="animation-delay: 0.2s"
    >
      <title>2026-01-26: 5507 stars, TypeScript, JavaScript, Python, Rust, Shell</title>
    </path>

    <path
      d="M 20,59.98997994641622 L 35.2,58.27709115922161 L 50.400000000000006,54.33124240167791 L 65.6,52.02180986848198 L 80.80000000000001,53.61346811162287 L 96,57.545406037079786 L 111.2,59.96188868321683 L 126.4,58.49326607093005 L 141.60000000000002,54.57969815670837 L 156.79999999999998,52.05890591114608 L 172,53.402827339496824 L 187.2,57.29358689661668 L 202.4,59.91582993141138 L 217.6,58.698133817469746 L 232.8,54.834595096544106 L 248,52.11387513723322 L 263.20000000000005,53.20396495740561 L 278.40000000000003,57.03590123397584 L 293.59999999999997,59.85201257119932 L 308.8,58.89076530688583 L 324,55.0947772427545 L 339.2,52.18646825681573 L 354.4,53.01778282248608 L 369.6,56.773517674673386 L 384.8,59.77072601951891 L 400,59.07028693964837 L 415.2,55.359064648066614 L 430.40000000000003,52.27635605417015 L 445.6,52.84512528591906 L 460.79999999999995,56.50762614957039 L 476,59.67233891751783 L 491.2,59.235884570497596 L 506.40000000000003,55.626258747522314 L 521.6,52.38313088079754 L 536.8000000000001,52.6867753637277 L 552,56.23943249843919 L 567.1999999999999,59.557297458735455 L 582.4,59.38680720065909 L 597.6,55.8951477940683 L 612.8000000000001,52.50630850414261 L 628,52.54345118573596 L 643.1999999999999,55.97015300138154 L 658.4,59.42612336557873 L 673.6,59.522370383684574 L 688.8,56.164512353927734 L 704,52.6453303036279 L 719.2,52.415802738791314 L 734.4,55.7010088628992 L 749.6,59.27941152326852 L 764.8,59.641959329472314 L 780,56.433130836832184"
      stroke="url(#thread-3)"
      stroke-width="8"
      stroke-linecap="round"
      fill="none"
      opacity="0.9513513513513513"
      class="thread"
      style="animation-delay: 0.30000000000000004s"
    >
      <title>2026-01-25: 4122 stars, Shell, Python, TypeScript</title>
    </path>

    <path
      d="M 20,71.63718970730272 L 35.2,66.7031442112394 L 50.400000000000006,64.10639272264481 L 65.6,68.52700201978283 L 80.80000000000001,71.99780743476404 L 96,68.26345446492742 L 111.2,64.0542834409537 L 126.4,66.95638858859104 L 141.60000000000002,71.7393711006602 L 156.79999999999998,69.7829692177785 L 172,64.61316203237077 L 187.2,65.54737670861718 L 202.4,70.9018991563282 L 217.6,71.02639405036142 L 232.8,65.69648704446635 L 248,64.51814960687376 L 263.20000000000005,69.61507278752941 L 278.40000000000003,71.80118662405127 L 293.59999999999997,67.1365073387286 L 308.8,64.02808144732546 L 324,68.07815499107721 L 339.2,71.98737155297972 L 354.4,68.71023808498599 L 369.6,64.15305849752332 L 384.8,66.52913501975857 L 400,71.55611839987927 L 415.2,70.17398960428874 L 430.40000000000003,64.87372826193327 L 445.6,65.20787612870473 L 460.79999999999995,70.57420602299811 L 476,71.30110232437556 L 491.2,66.07849618479311 L 506.40000000000003,64.31897313550827 L 521.6,69.19368197713433 L 536.8000000000001,71.91704465046676 L 552,67.58080588787308 L 567.1999999999999,64.00007124125885 L 582.4,67.62831819393439 L 597.6,71.92643890245178 L 612.8000000000001,69.14802712607096 L 628,64.30055189218604 L 643.1999999999999,66.12050874155436 L 658.4,71.32783039549604 L 673.6,70.537478207307 L 688.8,65.17388614200773 L 704,64.90373549244408 L 719.2,70.21391269565186 L 734.4,71.53400486284237 L 749.6,66.48483958454553 L 764.8,64.1664138303249 L 780,68.75717417000291"
      stroke="url(#thread-4)"
      stroke-width="8"
      stroke-linecap="round"
      fill="none"
      opacity="0.9351351351351351"
      class="thread"
      style="animation-delay: 0.4s"
    >
      <title>2026-01-24: 5856 stars, Shell, TypeScript, Python, Rust</title>
    </path>

    <path
      d="M 20,82.39388857641583 L 35.2,77.7924238703742 L 50.400000000000006,76.1147088736027 L 65.6,79.58273659835604 L 80.80000000000001,83.60339475468248 L 96,82.85165832628661 L 111.2,78.32313925808593 L 126.4,76.01548181312123 L 141.60000000000002,78.9849850214759 L 156.79999999999998,83.29879056601669 L 172,83.24362426451329 L 187.2,78.89254926338113 L 202.4,76.008200018959 L 217.6,78.41065555440711 L 232.8,82.91806470770396 L 248,83.56074153023988 L 263.20000000000005,79.48751439181497 L 278.40000000000003,76.09303152310189 L 293.59999999999997,77.87300121127285 L 308.8,82.47000266867799 L 324,83.79569244286257 L 339.2,80.09430544838351 L 354.4,76.26801878517111 L 369.6,77.38442870461616 L 384.8,81.96494376264597 L 400,83.94305536211778 L 415.2,80.69892034734393 L 430.40000000000003,76.5291238639003 L 445.6,76.95621215269523 L 460.79999999999995,81.41454254191353 L 476,83.99942979584532 L 491.2,81.28740721916067 L 506.40000000000003,76.87032159517295 L 521.6,76.59823292210496 L 536.8000000000001,80.83149986125146 L 552,83.96351486848646 L 567.1999999999999,81.84618635868073 L 582.4,77.2837386264787 L 597.6,76.31875160902028 L 612.8000000000001,80.22926979767337 L 628,83.83613933960659 L 643.1999999999999,82.36236358538162 L 658.4,77.75983509948047 L 673.6,76.12421742073747 L 688.8,79.62174918913671 L 704,83.62024247974638 L 719.2,82.82402778470663 L 734.4,78.2876247882531 L 749.6,76.01911935615446 L 764.8,79.02295695625531 L 780,83.32080624490308"
      stroke="url(#thread-5)"
      stroke-width="8"
      stroke-linecap="round"
      fill="none"
      opacity="0.918918918918919"
      class="thread"
      style="animation-delay: 0.5s"
    >
      <title>2026-01-23: 4879 stars, Unknown, Rust, Python, Shell, TypeScript, JavaScript</title>
    </path>

    <path
      d="M 20,92.56448003223947 L 35.2,88.03286246985014 L 50.400000000000006,91.5412041858275 L 65.6,95.97935981296833 L 80.80000000000001,92.35278599549481 L 96,88.01124199707847 L 111.2,91.75347419019155 L 126.4,95.99532543025293 L 141.60000000000002,92.1400906683972 L 156.79999999999998,88.00094256584363 L 172,91.96644389329158 L 187.2,95.99995136608385 L 202.4,91.92699773074646 L 217.6,88.00199340837496 L 232.8,92.17950883658358 L 248,95.99322449095769 L 263.20000000000005,91.7141119908555 L 278.40000000000003,88.01439154213206 L 293.59999999999997,92.39206429120925 L 308.8,95.975163897342 L 324,91.50203766896082 L 339.2,88.03810177826988 L 354.4,92.60350697436 L 369.6,95.9458208454863 L 384.8,91.29137668230217 L 400,88.07305682151308 L 415.2,92.8132367615368 L 430.40000000000003,95.90527861793333 L 445.6,91.08272693673852 L 460.79999999999995,88.11915746115591 L 476,93.0206583898456 L 491.2,95.85365228314346 L 506.40000000000003,90.87668062974956 L 521.6,88.1762728526458 L 536.8000000000001,93.22518314749496 L 552,95.79108836890305 L 567.1999999999999,90.67382256963855 L 582.4,88.24424088895117 L 597.6,93.42623054469951 L 612.8000000000001,95.71776444644387 L 628,90.47472851570774 L 643.1999999999999,88.3228686606597 L 658.4,93.623229961248 L 673.6,95.63388862645382 L 688.8,90.27996354411685 L 704,88.41193300350105 L 719.2,93.81562226605865 L 734.4,95.53969896840941 L 749.6,90.09008044406278 L 764.8,88.51118113173989 L 780,94.00286140412553"
      stroke="url(#thread-6)"
      stroke-width="8"
      stroke-linecap="round"
      fill="none"
      opacity="0.9027027027027027"
      class="thread"
      style="animation-delay: 0.6000000000000001s"
    >
      <title>2026-01-22: 6303 stars, Rust, Unknown, Shell, TypeScript, Python</title>
    </path>

    <path
      d="M 20,102.59686708924153 L 35.2,100.0467535298574 L 50.400000000000006,101.53335265786227 L 65.6,105.53867827978152 L 80.80000000000001,107.97283899186912 L 96,106.35028083136558 L 111.2,102.32781957284995 L 126.4,100.01284404710135 L 141.60000000000002,101.76920663376849 L 156.79999999999998,105.80346207442838 L 172,107.99617834163844 L 187.2,106.10834361497659 L 202.4,102.06765110820155 L 217.6,100.00010582280466 L 232.8,102.01690582051768 L 248,106.05866972955363 L 263.20000000000005,107.99829852528535 L 278.40000000000003,105.85521137935055 L 293.59999999999997,101.81774315463049 L 308.8,100.00860649521422 L 324,102.2751349689536 L 339.2,106.30294612705022 L 354.4,107.97918828492168 L 369.6,105.5922282223979 L 384.8,101.57942268954591 L 400,100.0383009269101 L 415.2,102.54252291724865 L 430.40000000000003,106.53499419230961 L 445.6,107.93894909333721 L 460.79999999999995,105.32079054908803 L 476,101.35395516236137 L 491.2,100.08903144447905 L 506.40000000000003,102.81764987158759 L 521.6,106.75358178151227 L 536.8000000000001,107.87779461519304 L 552,105.04233965672785 L 567.1999999999999,101.14253777512984 L 582.4,100.16052867573902 L 597.6,103.09905494508058 L 612.8000000000001,106.95754822414476 L 628,107.79604957249097 L 643.1999999999999,104.75835408186828 L 658.4,100.94629312556273 L 673.6,100.25241298006895 L 688.8,103.38524391487478 L 704,107.14581048600309 L 719.2,107.69414802034383 L 734.4,104.47034174947505 L 749.6,100.7662632461881 L 764.8,100.36419646424918 L 780,103.67469715627543"
      stroke="url(#thread-7)"
      stroke-width="8"
      stroke-linecap="round"
      fill="none"
      opacity="0.8864864864864864"
      class="thread"
      style="animation-delay: 0.7000000000000001s"
    >
      <title>2026-01-21: 4215 stars, Unknown, TypeScript, Python, Shell, JavaScript</title>
    </path>

    <path
      d="M 20,112.9727900187683 L 35.2,113.58867830287484 L 50.400000000000006,119.34212200391245 L 65.6,117.9748496985724 L 80.80000000000001,112.3999680233911 L 96,114.4953046374587 L 111.2,119.79654107811167 L 126.4,117.00887747498027 L 141.60000000000002,112.07170228126179 L 156.79999999999998,115.50414746971079 L 172,119.99305470386005 L 187.2,115.97437050034414 L 202.4,112.01029243874085 L 217.6,116.54667440192614 L 232.8,119.91831337861501 L 248,114.9416045809123 L 263.20000000000005,112.21991017016255 L 278.40000000000003,117.552064818591 L 293.59999999999997,119.57739440685145 L 308.8,113.98073725011206 L 324,112.68631578895078 L 339.2,118.45202085042297 L 354.4,118.99345699019243 L 369.6,113.1570418487958 L 384.8,113.37782557358153 L 400,119.18540696399828 L 415.2,118.20616898372288 L 430.40000000000003,112.52647339693904 L 445.6,114.24746409630517 L 460.79999999999995,119.70240300180573 L 476,117.26901219158796 L 491.2,112.13186747461559 L 506.40000000000003,115.23615534330311 L 521.6,119.96788854970133 L 536.8000000000001,116.24564925769727 L 552,112.00003032868653 L 567.1999999999999,116.27673584809622 L 582.4,119.96382872596547 L 597.6,115.20559895478723 L 612.8000000000001,112.1399178791706 L 628,117.29851721927344 L 643.1999999999999,119.69049932128232 L 658.4,114.21951365675919 L 673.6,112.54202732846912 L 688.8,118.23208812232522 L 704,119.16646806381257 L 719.2,113.35437980357698 L 734.4,113.1790427024588 L 749.6,119.0140295088444 L 764.8,118.42733328205571 L 780,112.66896739924803"
      stroke="url(#thread-8)"
      stroke-width="8"
      stroke-linecap="round"
      fill="none"
      opacity="0.8702702702702703"
      class="thread"
      style="animation-delay: 0.8s"
    >
      <title>2026-01-20: 6510 stars, Python, Vue, TypeScript, Unknown, Shell, JavaScript</title>
    </path>

    <path
      d="M 20,124.08987952933961 L 35.2,125.61316213832251 L 50.400000000000006,129.93311778648834 L 65.6,131.98802708113382 L 80.80000000000001,129.37013978728382 L 96,125.14685102711243 L 111.2,124.26661498843558 L 126.4,127.76080981260495 L 141.60000000000002,131.53526529421785 L 156.79999999999998,131.16742804055903 L 172,127.08829529137886 L 187.2,124.07741272342587 L 202.4,125.66265051051323 L 217.6,129.986575497661 L 232.8,131.98281739254153 L 248,129.31236692404494 L 263.20000000000005,125.10420781897909 L 278.40000000000003,124.28906675245157 L 293.59999999999997,127.82204967467807 L 308.8,131.56353812010417 L 324,131.12960638110613 L 339.2,127.02869502450514 L 354.4,124.06586785929602 L 369.6,125.71268823954576 L 384.8,130.03956629584252 L 400,131.97667160603405 L 415.2,129.2542856098226 L 430.40000000000003,125.06224522076492 L 445.6,124.31239071233651 L 460.79999999999995,127.88333136114635 L 476,131.59097339300317 L 491.2,131.09104915742316 L 506.40000000000003,126.9693230474255 L 521.6,124.05524765038685 L 536.8000000000001,125.76326356484729 L 552,130.09207772638823 L 567.1999999999999,131.9695911660808 L 582.4,129.19590949570645 L 597.6,125.02097309511156 L 612.8000000000001,124.33658138616437 L 628,127.94464046872359 L 643.1999999999999,131.61756466469012 L 658.4,131.05176543177268 L 673.6,126.91019331457949 L 688.8,124.04555459280965 L 704,125.81436459949158 L 719.2,130.14409744732106 L 734.4,131.9615777368266 L 749.6,129.13725230207413 L 764.8,124.98040114237604 L 780,124.36163308830183"
      stroke="url(#thread-9)"
      stroke-width="8"
      stroke-linecap="round"
      fill="none"
      opacity="0.8540540540540541"
      class="thread"
      style="animation-delay: 0.9s"
    >
      <title>2026-01-19: 4551 stars, JavaScript, TypeScript, Shell, Python</title>
    </path>

    <path
      d="M 20,136.16430290134744 L 35.2,138.62177549436913 L 50.400000000000006,142.19093618697812 L 65.6,143.9928683358573 L 80.80000000000001,142.57411750162584 L 96,139.0790606796504 L 111.2,136.3268416745124 L 126.4,136.5374247249621 L 141.60000000000002,139.5409516763932 L 156.79999999999998,142.91475107357186 L 172,143.93748642529886 L 187.2,141.7842103337468 L 202.4,138.1917743759442 L 217.6,136.0578692303705 L 232.8,137.10372169736954 L 248,140.4857379090796 L 263.20000000000005,143.47595361888594 L 278.40000000000003,143.66243433700885 L 293.59999999999997,140.89476306368323 L 308.8,137.40536797411215 L 324,136.00882606934732 L 339.2,137.8316004254399 L 354.4,141.40342509397425 L 369.6,143.84323464504473 L 384.8,143.18305707401558 L 400,139.95539745994256 L 415.2,136.76371464993207 L 430.40000000000003,136.18244828211968 L 445.6,138.68045295976296 L 460.79999999999995,142.24281597342758 L 476,143.99610374787173 L 491.2,142.52609882720324 L 506.40000000000003,139.01852020710487 L 521.6,136.30261188548766 L 536.8000000000001,136.56904958200155 L 552,139.6029222895603 L 567.1999999999999,142.95708139712406 L 582.4,143.92603244514237 L 597.6,141.72821093177708 L 612.8000000000001,138.1363991660372 L 628,136.04778434755303 L 643.1999999999999,137.14706169749087 L 658.4,140.54754436397792 L 673.6,143.50637289433297 L 688.8,143.63692997586398 L 704,140.83390710965665 L 719.2,137.358247379006 L 734.4,136.0134487227405 L 749.6,137.8842376541411 L 764.8,141.4616192428603 L 780,143.86004579792788"
      stroke="url(#thread-10)"
      stroke-width="7.412"
      stroke-linecap="round"
      fill="none"
      opacity="0.8378378378378378"
      class="thread"
      style="animation-delay: 1s"
    >
      <title>2026-01-18: 3706 stars, JavaScript, Shell, Vue, TypeScript, Python, HTML</title>
    </path>

    <path
      d="M 20,149.17783869771844 L 35.2,154.82544325907173 L 50.400000000000006,154.84062416434767 L 65.6,149.1931188026365 L 80.80000000000001,149.14103426739877 L 96,154.78819928265747 L 111.2,154.87718522386274 L 126.4,149.23060168733412 L 141.60000000000002,149.10471813983477 L 156.79999999999998,154.75047909018457 L 172,154.91325486878776 L 187.2,149.26855757694125 L 202.4,149.06889651771183 L 217.6,154.71228912414853 L 232.8,154.94882693853586 L 248,149.30697998870596 L 263.20000000000005,149.03357551925546 L 278.40000000000003,154.67363590728075 L 293.59999999999997,154.98389535750437 L 308.8,149.34586236019584 L 324,148.99876117718597 L 339.2,154.63452604143455 L 354.4,155.0184541361127 L 369.6,149.3851980504186 L 384.8,148.9644594376884 L 400,154.5949662064575 L 415.2,155.05249737182532 L 430.40000000000003,149.42498034095664 L 445.6,148.9306761593968 L 460.79999999999995,154.55496315905054 L 476,155.08601925015995 L 491.2,149.46520243711427 L 506.40000000000003,148.89741711239353 L 521.6,154.51452373161393 L 536.8000000000001,155.1190140456804 L 552,149.5058574690783 L 567.1999999999999,148.8646879772239 L 582.4,154.47365483108032 L 597.6,155.15147612297483 L 612.8000000000001,149.54693849309152 L 628,148.83249434392582 L 643.1999999999999,154.43236343773515 L 658.4,155.18339993761793 L 673.6,149.58843849263835 L 688.8,148.80084171107512 L 704,154.39065660402431 L 719.2,155.21478003711812 L 734.4,149.63035037964366 L 749.6,148.76973548484636 L 764.8,154.3485414533497 L 780,155.2456110618487"
      stroke="url(#thread-11)"
      stroke-width="8"
      stroke-linecap="round"
      fill="none"
      opacity="0.8216216216216217"
      class="thread"
      style="animation-delay: 1.1s"
    >
      <title>2026-01-17: 6237 stars, JavaScript, TypeScript, Shell, Python</title>
    </path>

    <path
      d="M 20,162.88233800720428 L 35.2,167.66268059687835 L 50.400000000000006,166.0704669865633 L 65.6,160.87592800740723 L 80.80000000000001,161.1168409654408 L 96,166.3740507299428 L 111.2,167.5007415212426 L 126.4,162.53662764211407 L 141.60000000000002,160.11857868606035 L 156.79999999999998,164.453664436865 L 172,167.99943699385128 L 187.2,164.58674393050623 L 202.4,160.1531978134332 L 217.6,162.412553923497 L 232.8,167.4338460171651 L 248,166.48072233864073 L 263.20000000000005,161.21148588385358 L 278.40000000000003,160.79387720538716 L 293.59999999999997,165.95447747862391 L 308.8,167.7145580383047 L 324,163.01182284566664 L 339.2,160.02837883471167 L 354.4,163.9550047606321 L 369.6,167.95991616190855 L 384.8,165.07512270862722 L 400,160.3197648691281 L 415.2,161.96750568383428 L 430.40000000000003,167.151504687956 L 445.6,166.8523226700565 L 460.79999999999995,161.5904948427109 L 476,160.5208717743811 L 491.2,165.50444924000473 L 506.40000000000003,167.8704937053083 L 521.6,163.5024159870388 L 536.8000000000001,160.0000654330527 L 552,163.45704620756825 L 567.1999999999999,167.8586912695506 L 582.4,165.54674874910057 L 597.6,160.54367794973183 L 612.8000000000001,161.55412810257704 L 628,166.8200560979581 L 643.1999999999999,167.1794776437524 L 658.4,162.00704910447797 L 673.6,160.30207868763904 L 688.8,165.03097842760323 L 704,167.96611870722097 L 719.2,164.00076256377224 L 734.4,160.0340796651326 L 749.6,162.96754804917967 L 764.8,167.69733961958335 L 780,165.99427309793214"
      stroke="url(#thread-12)"
      stroke-width="8"
      stroke-linecap="round"
      fill="none"
      opacity="0.8054054054054054"
      class="thread"
      style="animation-delay: 1.2000000000000002s"
    >
      <title>2026-01-16: 5731 stars, JavaScript, TypeScript, Shell, Python, C</title>
    </path>

    <path
      d="M 20,176.86047995235126 L 35.2,179.66487399115448 L 50.400000000000006,179.45230762187168 L 65.6,176.39776757576968 L 80.80000000000001,173.0157813389899 L 96,172.09043333071926 L 111.2,174.38347915603225 L 126.4,178.0072608802786 L 141.60000000000002,179.97864565469348 L 156.79999999999998,178.6747700935593 L 172,175.16899741605008 L 187.2,172.34731425999377 L 202.4,172.5325580234924 L 217.6,175.5722342137833 L 232.8,178.9640514173981 L 248,179.9158322663102 L 263.20000000000005,177.64406138038026 L 278.40000000000003,174.01888295437058 L 293.59999999999997,172.02457961571025 L 308.8,173.30288153819887 L 324,176.80147797417186 L 339.2,179.64028983859734 L 354.4,179.48237921174112 L 369.6,176.4577396787554 L 384.8,173.05628432854155 L 400,172.07812474644626 L 415.2,174.32849154588058 L 430.40000000000003,177.9548605871466 L 445.6,179.97196911659591 L 460.79999999999995,178.71931350249403 L 476,175.2280921985487 L 491.2,172.3723130083819 L 506.40000000000003,172.50288152158942 L 521.6,175.51231245058966 L 536.8000000000001,178.92321257925096 L 552,179.92769528747567 L 567.1999999999999,177.6988605048561 L 582.4,174.07150700252544 L 597.6,172.03170795218813 L 612.8000000000001,173.25864604612013 L 628,176.7422937468128 L 643.1999999999999,179.6148779155234 L 658.4,179.51165893860855 L 673.6,176.51760769568554 L 688.8,173.09745669365134 L 704,172.0667079627851 L 719.2,174.2738840223369 L 734.4,177.90201577557508 L 749.6,179.96438938697406 L 764.8,178.7632385629887 L 780,175.28736250622467"
      stroke="url(#thread-13)"
      stroke-width="7.494"
      stroke-linecap="round"
      fill="none"
      opacity="0.7891891891891892"
      class="thread"
      style="animation-delay: 1.3s"
    >
      <title>2026-01-15: 3747 stars, TypeScript, Shell, Python, JavaScript, C</title>
    </path>

    <path
      d="M 20,190.62794639487515 L 35.2,191.9538312213485 L 50.400000000000006,189.6041557404527 L 65.6,185.7632251107255 L 80.80000000000001,184.00164499933766 L 96,185.9570153879747 L 111.2,189.81158499077677 L 126.4,191.98206907936364 L 141.60000000000002,190.45074238496036 L 156.79999999999998,186.64115672363152 L 172,184.09477885518666 L 187.2,185.17877239811403 L 202.4,188.88543534978 L 217.6,191.7689799526352 L 232.8,191.14880567179682 L 248,187.60143887945617 L 263.20000000000005,184.42458244851426 L 278.40000000000003,184.57150543525572 L 293.59999999999997,187.90562530287642 L 308.8,191.32747776992989 L 324,191.6560405819343 L 339.2,188.5858752002488 L 354.4,184.97106855530475 L 369.6,184.17201695113025 L 384.8,186.93153468490257 L 400,190.68431907122394 L 415.2,191.94170694764077 L 430.40000000000003,189.53480548317663 L 445.6,185.7011182512683 L 460.79999999999995,184.0045173121056 L 476,186.0221967137705 L 491.2,189.87848147000844 L 506.40000000000003,191.9884924116204 L 521.6,190.39072131255259 L 536.8000000000001,186.57048803175238 L 552,184.07915756830818 L 567.1999999999999,185.23272037586707 L 582.4,188.95880147680555 L 597.6,191.79356161498643 L 612.8000000000001,191.10175126621374 L 628,187.52649111921247 L 643.1999999999999,184.39141426531995 L 658.4,184.6109506332849 L 673.6,187.981014839857 L 688.8,191.36872802969216 L 704,191.6248045008423 L 719.2,188.5111904618535 L 734.4,184.9223635809636 L 749.6,184.194568855732 L 764.8,187.00437876844632 L 780,190.73973802178844"
      stroke="url(#thread-14)"
      stroke-width="8"
      stroke-linecap="round"
      fill="none"
      opacity="0.772972972972973"
      class="thread"
      style="animation-delay: 1.4000000000000001s"
    >
      <title>2026-01-14: 4003 stars, TypeScript, Shell, Python, C, HTML, Jupyter Notebook</title>
    </path>

    <path
      d="M 20,203.75199990709896 L 35.2,202.43925591605563 L 50.400000000000006,197.69829168047755 L 65.6,196.1922332233635 L 80.80000000000001,200.03775065634332 L 96,203.83021192433904 L 111.2,202.23955206369547 L 126.4,197.5013431193684 L 141.60000000000002,196.27483872639436 L 156.79999999999998,200.2838134023744 L 172,203.89390625325117 L 187.2,202.03135961605724 L 202.4,197.31386524096513 L 217.6,196.37156374328237 L 232.8,200.52880040779365 L 248,203.94284147262064 L 263.20000000000005,201.81546768693588 L 278.40000000000003,197.13656864443573 L 293.59999999999997,196.4820416562851 L 308.8,200.77178309604724 L 324,203.97683210282463 L 339.2,201.59269457354355 L 354.4,196.9701253387398 L 369.6,196.6058537199285 L 384.8,201.01184048756363 L 400,203.99574930885734 L 415.2,201.3638846549098 L 430.40000000000003,196.81516619550635 L 445.6,196.7425306481817 L 460.79999999999995,201.2480626905509 L 476,203.9995213886546 L 491.2,201.1299051914242 L 506.40000000000003,196.67227855783534 L 521.6,196.89155439319643 L 536.8000000000001,201.4795543497686 L 552,203.98813404486688 L 567.1999999999999,200.8916430376506 L 582.4,196.54200401408548 L 597.6,197.05236010886844 L 612.8000000000001,201.70543804020056 L 628,203.96163043905054 L 643.1999999999999,200.65000128087436 L 658.4,196.42483634508682 L 673.6,197.22433829177933 L 688.8,201.92485759276778 L 704,203.92011102807228 L 719.2,200.40589581812173 L 734.4,196.32121965255857 L 749.6,197.4068370914028 L 764.8,202.1369813394737 L 780,203.86373318334654"
      stroke="url(#thread-15)"
      stroke-width="8"
      stroke-linecap="round"
      fill="none"
      opacity="0.7567567567567568"
      class="thread"
      style="animation-delay: 1.5s"
    >
      <title>2026-01-13: 5049 stars, TypeScript, Shell, C, Rust, Python</title>
    </path>

    <path
      d="M 20,215.95743298649353 L 35.2,213.93054758148463 L 50.400000000000006,210.37826977973575 L 65.6,208.10737709963828 L 80.80000000000001,208.91218036847027 L 96,212.1567766958177 L 111.2,215.27749833492646 L 126.4,215.80855521343906 L 141.60000000000002,213.33034092927105 L 156.79999999999998,209.8009782776427 L 172,208.0091387244973 L 187.2,209.37061665727185 L 202.4,212.80966128541266 L 217.6,215.6089645362633 L 232.8,215.55670011972347 L 248,212.69416395844985 L 263.20000000000005,209.2831448514743 L 278.40000000000003,208.01880693814127 L 293.59999999999997,209.90014732082992 L 308.8,213.44065391200795 L 324,215.84285003376945 L 339.2,215.20867746949418 L 354.4,212.03921789002217 L 369.6,208.83877089960535 L 384.8,208.13612032733585 L 400,210.4864546859364 L 415.2,214.0326935310861 L 430.40000000000003,215.97283093281172 L 445.6,214.7738972458133 L 460.79999999999995,211.38321143175892 L 476,208.47987159219102 L 491.2,208.35790692323195 L 506.40000000000003,211.11368592700282 L 521.6,214.56977232596043 L 536.8000000000001,215.9953927550721 L 552,214.2641152195709 L 567.1999999999999,210.74388196269825 L 582.4,208.21615099993355 L 597.6,208.67816996639618 L 612.8000000000001,211.76488170143855 L 628,215.03736853386772 L 643.1999999999999,215.90992546449348 L 658.4,213.69311509199795 L 673.6,210.13851594241706 L 688.8,208.05473971132966 L 704,209.0882500497191 L 719.2,212.422434703502 L 734.4,215.4228390915089 L 749.6,215.71873996169165 L 764.8,213.0763358051444 L 780,209.58348151245303"
      stroke="url(#thread-16)"
      stroke-width="7.33"
      stroke-linecap="round"
      fill="none"
      opacity="0.7405405405405405"
      class="thread"
      style="animation-delay: 1.6s"
    >
      <title>2026-01-12: 3665 stars, TypeScript, Unknown, Python, Shell, C</title>
    </path>

    <path
      d="M 20,227.19394845049396 L 35.2,224.18247534010476 L 50.400000000000006,221.03882118495352 L 65.6,220.04017856547264 L 80.80000000000001,221.90994180284056 L 96,225.2936963332534 L 111.2,227.74032624816425 L 126.4,227.47754769752893 L 141.60000000000002,224.69571157119418 L 156.79999999999998,221.4099175824946 L 172,220.00032122011055 L 187.2,221.48800248184193 L 202.4,224.7953184196845 L 217.6,227.52652352758125 L 232.8,227.7031940666644 L 248,225.197353859872 L 263.20000000000005,221.82417736502617 L 278.40000000000003,220.02711799889832 L 293.59999999999997,221.1079252711911 L 308.8,224.28368662859154 L 324,227.25395175329157 L 339.2,227.8671271906484 L 354.4,225.67904240295695 L 369.6,222.27469694741188 L 384.8,220.1201223370195 L 400,220.77604410793137 L 415.2,223.76732723690802 L 430.40000000000003,226.92715329829142 L 445.6,227.96661514539412 L 460.79999999999995,226.13274992383023 L 476,222.7539684796896 L 491.2,220.27778432933405 L 506.40000000000003,220.49788974827496 L 521.6,223.25484530641353 L 536.8000000000001,226.55157421612415 L 552,227.99999997713775 L 567.1999999999999,226.5509154459514 L 582.4,223.2540049644097 L 597.6,220.49747655934482 L 612.8000000000001,220.27809759827366 L 628,222.7547812815035 L 643.1999999999999,226.13347348310973 L 658.4,227.96672533202135 L 673.6,226.9265702955443 L 688.8,223.76647335890405 L 704,220.7755378847502 L 719.2,220.1203304653827 L 734.4,222.2754686637999 L 749.6,225.6798186933224 L 764.8,227.86734572765715 L 780,227.2534542336347"
      stroke="url(#thread-17)"
      stroke-width="6.996"
      stroke-linecap="round"
      fill="none"
      opacity="0.7243243243243244"
      class="thread"
      style="animation-delay: 1.7000000000000002s"
    >
      <title>2026-01-11: 3498 stars, TypeScript, Unknown, Shell, Python</title>
    </path>

    <path
      d="M 20,237.64847394096702 L 35.2,233.9234260640303 L 50.400000000000006,232.00590016816054 L 65.6,233.56497730364603 L 80.80000000000001,237.24358265424488 L 96,239.83973052818683 L 111.2,239.09364376706364 L 126.4,235.65474216621885 L 141.60000000000002,232.51636495936998 L 156.79999999999998,232.41026452383358 L 172,235.42879435885706 L 187.2,238.9445213965379 L 202.4,239.89723487820066 L 217.6,237.4576599439737 L 232.8,233.7492872347121 L 248,232.00001298366462 L 263.20000000000005,233.73246617355815 L 278.40000000000003,237.43865945674267 L 293.59999999999997,239.8925936480216 L 308.8,238.95827931114255 L 324,235.44897605217207 L 339.2,232.41930314998356 L 354.4,232.5063929846439 L 369.6,235.63443954330214 L 384.8,239.08068260315153 L 400,239.84539266991408 L 415.2,237.26293957705732 L 430.40000000000003,233.5811800705214 L 445.6,232.0048453288079 L 460.79999999999995,233.90603178720994 L 476,237.6298808085542 L 491.2,239.93502504075008 L 506.40000000000003,238.81498698879906 L 521.6,235.2446866223036 L 536.8000000000001,232.3318372182477 L 552,232.61188393183124 L 567.1999999999999,235.84106438996477 L 582.4,239.20858791584885 L 597.6,239.78324522800273 L 612.8000000000001,237.06483466959784 L 628,233.41955508035275 L 643.1999999999999,232.02038425343156 L 658.4,234.08520900765663 L 673.6,237.81673425727894 L 688.8,239.96691099486011 L 704,238.6641508078538 L 719.2,235.0424213500402 L 734.4,232.2542015633352 L 749.6,232.72645466114423 L 764.8,236.0481151667555 L 780,239.32789456231967"
      stroke="url(#thread-18)"
      stroke-width="7.724"
      stroke-linecap="round"
      fill="none"
      opacity="0.7081081081081081"
      class="thread"
      style="animation-delay: 1.8s"
    >
      <title>2026-01-10: 3862 stars, TypeScript, Unknown, Shell, Python</title>
    </path>

    <path
      d="M 20,247.69939551815276 L 35.2,244.51417511183962 L 50.400000000000006,244.43428629793954 L 65.6,247.53089767087243 L 80.80000000000001,251.04540676656876 L 96,251.84692879395445 L 111.2,249.22143142108143 L 126.4,245.5078273011561 L 141.60000000000002,244.01436414176925 L 156.79999999999998,246.07148695371325 L 172,249.84661703256145 L 187.2,251.9766965439592 L 202.4,250.56415363237187 L 217.6,246.86734586587175 L 232.8,244.17955799533144 L 248,244.89519388666005 L 263.20000000000005,248.3767324900896 L 278.40000000000003,251.52266063088888 L 293.59999999999997,251.53044222175572 L 308.8,248.39314506708848 L 324,244.9056163785947 L 339.2,244.1747055716338 L 354.4,246.8515412866034 L 369.6,250.55147633665598 L 384.8,251.97844004428015 L 400,249.86122813941557 L 415.2,246.08594942756758 L 430.40000000000003,244.0157941521374 L 445.6,245.49495092966404 L 460.79999999999995,249.20571952598306 L 476,251.84237824709246 L 491.2,251.0560714023688 L 506.40000000000003,247.54727694598134 L 521.6,244.4417888080016 L 536.8000000000001,244.5061172791464 L 552,247.6829556271079 L 567.1999999999999,251.14223154405994 L 582.4,251.80226447046812 L 597.6,249.075067010474 L 612.8000000000001,245.3901508874096 L 628,244.0302072345014 L 643.1999999999999,246.20673580425307 L 658.4,249.98078580415753 L 673.6,251.99026158338165 L 688.8,250.4450305846051 L 704,246.72165496801398 L 719.2,244.13708733552835 L 734.4,244.99377826323584 L 749.6,248.52854844979544 L 764.8,251.5924636014835 L 780,251.4560485374538"
      stroke="url(#thread-19)"
      stroke-width="7.822"
      stroke-linecap="round"
      fill="none"
      opacity="0.6918918918918919"
      class="thread"
      style="animation-delay: 1.9000000000000001s"
    >
      <title>2026-01-09: 3911 stars, TypeScript, Unknown, Python, Shell</title>
    </path>

    <path
      d="M 20,257.8239155564425 L 35.2,256.00462054905097 L 50.400000000000006,257.5117883293076 L 65.6,261.0905850078867 L 80.80000000000001,263.7613852145312 L 96,263.3005409554226 L 111.2,260.09174076318885 L 126.4,256.80655928136673 L 141.60000000000002,256.18016449190014 L 156.79999999999998,258.7340785638642 L 172,262.3419702620063 L 187.2,263.999990359219 L 202.4,262.32770873058865 L 217.6,258.7174293303205 L 232.8,256.1749893324411 L 248,256.81716691699677 L 263.20000000000005,260.1092995158104 L 278.40000000000003,263.3104318037612 L 293.59999999999997,263.7553732614161 L 308.8,261.0736756698407 L 324,257.4980599396815 L 339.2,256.0055030553095 L 354.4,257.83867420378573 L 369.6,261.47131644664904 L 384.8,263.87897381167545 L 400,263.0570850979846 L 415.2,259.68993630525324 L 430.40000000000003,256.58093954915273 L 445.6,256.31857538404716 L 460.79999999999995,259.1212822943785 L 476,262.6555897409 L 491.2,263.97891308420554 L 506.40000000000003,261.9894831653016 L 521.6,258.3436544494183 L 536.8000000000001,256.0768616687045 L 552,257.0763853493097 L 567.1999999999999,260.5100446258804 L 582.4,263.5190522545011 L 597.6,263.5981763724063 L 612.8000000000001,260.68154002421574 L 628,257.19746882867724 L 643.1999999999999,256.04672185605193 L 658.4,258.18738507274975 L 673.6,261.83719058190275 L 688.8,263.9573926630095 L 704,262.78275889905376 L 719.2,259.2912628599766 L 734.4,256.38984537325126 L 749.6,256.49416117693534 L 764.8,259.51735928644064 L 780,262.9423931647808"
      stroke="url(#thread-20)"
      stroke-width="7.54"
      stroke-linecap="round"
      fill="none"
      opacity="0.6756756756756757"
      class="thread"
      style="animation-delay: 2s"
    >
      <title>2026-01-08: 3770 stars, TypeScript, Unknown, Python, Rust, JavaScript</title>
    </path>

    <path
      d="M 20,268.48121696011333 L 35.2,268.31600001612577 L 50.400000000000006,270.9141632740401 L 65.6,274.32681614220144 L 80.80000000000001,275.9941167603708 L 96,274.66541758809336 L 111.2,271.33738013541983 L 126.4,268.50637596808366 L 141.60000000000002,268.2959503905806 L 156.79999999999998,270.86394430339675 L 172,274.28409723738366 L 187.2,275.9909415088751 L 202.4,274.7041677562492 L 217.6,271.3889890978279 L 232.8,268.53213167654 L 248,268.27653340557765 L 263.20000000000005,270.81391936765243 L 278.40000000000003,274.2409882156217 L 293.59999999999997,275.9870846165629 L 308.8,274.7424560606786 L 324,271.44070241906195 L 339.2,268.5584796864847 L 354.4,268.2577523774797 L 369.6,270.7640970109158 L 384.8,274.1974964398069 L 400,275.98254674217975 L 415.2,274.7802759618541 L 430.40000000000003,271.49251126664205 L 445.6,268.58541549775686 L 460.79999999999995,268.2396105140298 L 476,270.7144857426957 L 491.2,274.15362933820387 L 506.40000000000003,275.97732866078104 L 521.6,274.81762100025037 L 536.8000000000001,271.5444067917727 L 552,268.61293450980077 L 567.1999999999999,268.22211091380376 L 582.4,270.66509403644767 L 597.6,274.10939440318174 L 612.8000000000001,275.9714312635993 L 628,274.85448479744707 L 643.1999999999999,271.59638013085436 L 658.4,268.641032022452 L 673.6,268.20525656568066 L 688.8,270.61593032812664 L 704,274.06479918993455 L 719.2,275.9648555578923 L 734.4,274.8908610572184 L 749.6,271.6484224069966 L 764.8,268.66970323673974 L 780,268.1890503483326"
      stroke="url(#thread-21)"
      stroke-width="7.128"
      stroke-linecap="round"
      fill="none"
      opacity="0.6594594594594595"
      class="thread"
      style="animation-delay: 2.1s"
    >
      <title>2026-01-07: 3564 stars, TypeScript, Python, Unknown, Shell, Rust</title>
    </path>

    <path
      d="M 20,280.0000391737972 L 35.2,282.0655977707225 L 50.400000000000006,286.11403632185215 L 65.6,287.99545904679235 L 80.80000000000001,285.78129320601414 L 96,281.7411934734594 L 111.2,280.01650783323447 L 126.4,282.37514397875816 L 141.60000000000002,286.39935638563264 L 156.79999999999998,287.96408254499585 L 172,285.46538296160674 L 187.2,281.46457670369836 L 202.4,280.06273355365255 L 217.6,282.69682801402803 L 232.8,286.66675303164476 L 248,287.9030939739179 L 263.20000000000005,285.1385261687128 L 278.40000000000003,281.2068997843202 L 293.59999999999997,280.13837102457416 L 308.8,283.02824686654657 L 324,286.9142287818044 L 339.2,287.8129489239181 L 354.4,284.80316447830387 L 369.6,280.9700875861375 L 384.8,280.2428552269806 L 400,283.36692480632826 L 415.2,287.13993496899224 L 430.40000000000003,287.6943207869947 L 445.6,284.46180307373504 L 460.79999999999995,280.7559091185336 L 476,280.3754056540573 L 491.2,283.7103318773232 L 506.40000000000003,287.3421855467709 L 521.6,287.54809572648287 L 536.8000000000001,284.1169919567905 L 552,280.56596431479693 L 567.1999999999999,280.5350321416526 L 582.4,284.05590279642666 L 597.6,287.51946968431054 L 612.8000000000001,287.3753660573316 L 628,283.77130689893016 L 643.1999999999999,280.4016720804684 L 658.4,280.7205422648974 L 673.6,284.40105611638535 L 688.8,287.67046305243684 L 704,287.17742208640794 L 719.2,283.4273302000346 L 734.4,280.2642596939839 L 749.6,280.930550245731 L 764.8,284.74321350945064 L 780,287.79403771649487"
      stroke="url(#thread-22)"
      stroke-width="8"
      stroke-linecap="round"
      fill="none"
      opacity="0.6432432432432432"
      class="thread"
      style="animation-delay: 2.2s"
    >
      <title>2026-01-06: 4224 stars, TypeScript, Python, Rust, JavaScript, Go</title>
    </path>

    <path
      d="M 20,292.49819130124627 L 35.2,295.51966503139647 L 50.400000000000006,298.9398792044551 L 65.6,299.9196116039507 L 80.80000000000001,297.6455570232221 L 96,294.005476275008 L 111.2,292.0211094045633 L 126.4,293.3397387805118 L 141.60000000000002,296.86673066647063 L 156.79999999999998,299.67422346862213 L 172,299.4316333307734 L 187.2,296.3403415916437 L 202.4,292.96652210445785 L 217.6,292.1108834674777 L 232.8,294.4837169386374 L 248,298.11526238993895 L 263.20000000000005,299.9908651817168 L 278.40000000000003,298.5535312644055 L 293.59999999999997,294.99643456923536 L 308.8,292.2724275937543 L 324,292.642790109133 L 339.2,295.8000730994314 L 354.4,299.1233213974687 L 369.6,299.8538070636432 L 384.8,297.3851320692718 L 400,293.7666174611119 L 415.2,292.00210058567876 L 430.40000000000003,293.55635974648686 L 445.6,297.1391578659047 L 460.79999999999995,299.77630692438885 L 476,299.27863050896076 L 491.2,296.05926471689395 L 506.40000000000003,292.79070150842455 L 521.6,292.1862730925494 L 536.8000000000001,294.7477335992109 L 552,298.3487379490819 L 567.1999999999999,299.9999845854647 L 582.4,298.33072422259164 L 597.6,294.7266598800799 L 612.8000000000001,292.17963330616163 L 628,292.8040075403143 L 643.1999999999999,296.08147083148947 L 658.4,299.2913027454891 L 673.6,299.76892567978916 L 688.8,297.11785053237884 L 704,293.53881417972434 L 719.2,292.0028818861184 L 734.4,293.7850770478596 L 749.6,297.4059460865253 L 764.8,299.85969717232484 L 780,299.10939804196"
      stroke="url(#thread-23)"
      stroke-width="7.528"
      stroke-linecap="round"
      fill="none"
      opacity="0.6270270270270271"
      class="thread"
      style="animation-delay: 2.3000000000000003s"
    >
      <title>2026-01-05: 3764 stars, Go, TypeScript, Python, Rust, JavaScript</title>
    </path>

    <path
      d="M 20,305.8537083279983 L 35.2,309.61482976937396 L 50.400000000000006,311.94008816350015 L 65.6,310.7619265042119 L 80.80000000000001,307.12793434078674 L 96,304.26935942479383 L 111.2,304.7279694196198 L 126.4,308.095980695585 L 141.60000000000002,311.37864852752074 L 156.79999999999998,311.6571132773 L 172,308.68377160508317 L 187.2,305.10243867637735 L 202.4,304.0975390724933 L 217.6,306.5626023993239 L 232.8,310.3057608778287 L 248,311.9986990154294 L 263.20000000000005,310.1361019119662 L 278.40000000000003,306.37414064100903 L 293.59999999999997,304.0578496307042 L 308.8,305.24681233154905 L 324,308.88383519963025 L 339.2,311.73497566259607 L 354.4,311.2650765720384 L 369.6,307.8919595168728 L 384.8,304.6149091433299 L 400,304.3477901971469 L 415.2,307.32811763582487 L 430.40000000000003,310.90586473886276 L 445.6,311.8997953443536 L 460.79999999999995,309.4261331837264 L 476,305.68439188695413 L 491.2,304.00162682686766 L 506.40000000000003,305.874107277669 L 521.6,309.636874160083 L 536.8000000000001,311.9441767179992 L 552,310.7444237901891 L 567.1999999999999,307.1044032991591 L 582.4,304.2607232226823 L 597.6,304.7419071348539 L 612.8000000000001,308.12009928795254 L 628,311.3915023956406 L 643.1999999999999,311.6472731085614 L 658.4,308.65998701194576 L 673.6,305.0858582771213 L 688.8,304.102905710638 L 704,306.58514420507476 L 719.2,310.3254342859073 L 734.4,311.9980109623505 L 749.6,310.11566419595727 L 764.8,306.35212592753857 L 780,304.0538328088209"
      stroke="url(#thread-24)"
      stroke-width="7.814"
      stroke-linecap="round"
      fill="none"
      opacity="0.6108108108108108"
      class="thread"
      style="animation-delay: 2.4000000000000004s"
    >
      <title>2026-01-04: 3907 stars, Python, Jupyter Notebook, TypeScript, Go, Rust</title>
    </path>

    <path
      d="M 20,319.7347124105952 L 35.2,323.16118665867043 L 50.400000000000006,323.79925004498085 L 65.6,321.0860813669245 L 80.80000000000001,317.4149050141279 L 96,316.02398215965883 L 111.2,318.14021422189467 L 126.4,321.8969210248425 L 141.60000000000002,323.98039693043944 L 156.79999999999998,322.55285522354245 L 172,318.8734979794912 L 187.2,316.18780254948416 L 202.4,316.86475979582406 L 217.6,320.3072411264782 L 232.8,323.478712046563 L 248,323.58169018119867 L 263.20000000000005,320.52534085969125 L 278.40000000000003,317.00560031284317 L 293.59999999999997,316.127151633159 L 308.8,318.6648544238247 L 324,322.38025876413894 L 339.2,323.9960909790516 L 354.4,322.08706221809433 L 369.6,318.337083337298 L 384.8,316.053925427598 L 400,317.251510158906 L 415.2,320.87347527450294 L 430.40000000000003,323.72496771452205 L 445.6,323.2907508445869 L 460.79999999999995,319.9538374909626 L 476,316.65764303675957 L 491.2,316.309665649914 L 506.40000000000003,319.21684826986524 L 521.6,322.8148312209922 L 536.8000000000001,323.9299155653186 L 552,321.5785107613067 L 567.1999999999999,317.83473751230986 L 582.4,316.00089306257803 L 597.6,317.6945698970074 L 612.8000000000001,321.4218141965506 L 628,323.894908527379 L 643.1999999999999,322.93239262192617 L 658.4,319.3832798714211 L 673.6,316.378161921249 L 688.8,316.56778497463097 L 704,319.7848868484748 L 719.2,323.1917351413023 L 734.4,323.78322645055096 L 749.6,321.0376197436803 L 764.8,317.3767522578474 L 780,316.02979194900945"
      stroke="url(#thread-25)"
      stroke-width="7.78"
      stroke-linecap="round"
      fill="none"
      opacity="0.5945945945945946"
      class="thread"
      style="animation-delay: 2.5s"
    >
      <title>2026-01-03: 3890 stars, Go, Python, Jupyter Notebook, TypeScript, Rust, JavaScript</title>
    </path>

    <path
      d="M 20,333.68066814730656 L 35.2,335.5550173880188 L 50.400000000000006,335.9318808737631 L 65.6,334.6525117856428 L 80.80000000000001,332.25582084495665 L 96,329.7513700737736 L 111.2,328.194113342785 L 126.4,328.24001643695226 L 141.60000000000002,329.8697435212789 L 156.79999999999998,332.396802006027 L 172,334.7567149365589 L 187.2,335.9554123518258 L 202.4,335.4879649904606 L 217.6,333.5512764645809 L 232.8,330.96114123108276 L 248,328.8086061660452 L 263.20000000000005,328.0003871150296 L 278.40000000000003,328.8769315030945 L 293.59999999999997,331.0690111123562 L 308.8,333.65325268458844 L 324,335.5410919402308 L 339.2,335.93731127992015 L 354.4,334.67501058692943 L 369.6,332.2859108347228 L 384.8,329.7763763967025 L 400,328.20350254480786 L 415.2,328.2298334892338 L 430.40000000000003,329.84427780344447 L 445.6,332.36678048380827 L 460.79999999999995,334.73478362457655 L 476,335.9508094122873 L 491.2,335.5026293270723 L 506.40000000000003,333.5790309949871 L 521.6,330.99029486931033 L 536.8000000000001,328.82687847765845 L 552,328.0000812244961 L 567.1999999999999,328.85817626118114 L 582.4,331.0397068201109 L 597.6,333.6257432366838 L 612.8000000000001,335.52696518613914 L 628,335.94251785523835 L 643.1999999999999,334.69735731747005 L 658.4,332.3159845708435 L 673.6,329.80150912963586 L 688.8,328.2131075725935 L 704,328.21986487039936 L 719.2,329.818934635511 L 734.4,332.3367381106135 L 749.6,334.71269684383145 L 764.8,335.9459818745592 L 780,335.5170945439283"
      stroke="url(#thread-26)"
      stroke-width="5.26"
      stroke-linecap="round"
      fill="none"
      opacity="0.5783783783783784"
      class="thread"
      style="animation-delay: 2.6s"
    >
      <title>2026-01-02: 2630 stars, TypeScript, Rust, Python, JavaScript, Jupyter Notebook, Shell</title>
    </path>

    <path
      d="M 20,347.21513770620646 L 35.2,347.8304016478027 L 50.400000000000006,345.3683808055194 L 65.6,341.80702422287237 L 80.80000000000001,340.0074700857319 L 96,341.41545204638135 L 111.2,344.8998194157098 L 126.4,347.6612859378669 L 141.60000000000002,347.481332592869 L 156.79999999999998,344.50453108397033 L 172,341.12239719208594 L 187.2,340.05208439601864 L 202.4,342.15346525853715 L 217.6,345.7383232561671 L 232.8,347.92663953375694 L 248,346.96035501486324 L 263.20000000000005,343.6157675711716 L 278.40000000000003,340.5798664521595 L 293.59999999999997,340.2916471413053 L 308.8,342.9826605257648 L 324,346.49098853463187 L 339.2,347.99809530894817 L 354.4,346.2931948344205 L 369.6,342.74597749098655 L 384.8,340.2062222208428 L 400,340.71432869123424 L 415.2,343.8620921096365 L 430.40000000000003,347.120648570548 L 445.6,347.8721247707011 L 460.79999999999995,345.51279648250585 L 476,341.93811115743375 L 491.2,340.01991508458406 L 506.40000000000003,341.29925699206177 L 521.6,344.74833359779626 L 536.8000000000001,347.5962106935302 L 552,347.5549483557602 L 567.1999999999999,344.65769610138864 L 582.4,341.23206108423784 L 597.6,340.0301449068774 L 612.8000000000001,342.01754823058826 L 628,345.5976223041891 L 643.1999999999999,347.89419160228215 L 658.4,347.0622282646166 L 673.6,343.7701186263989 L 688.8,340.6626920888388 L 704,340.23640653815886 L 719.2,342.83373311950584 L 734.4,346.3680202745164 L 749.6,347.99987697217074 L 764.8,346.41829506060975 L 780,342.893892714744"
      stroke="url(#thread-27)"
      stroke-width="7.396"
      stroke-linecap="round"
      fill="none"
      opacity="0.5621621621621622"
      class="thread"
      style="animation-delay: 2.7s"
    >
      <title>2026-01-01: 3698 stars, Rust, Python, JavaScript, TypeScript, Jupyter Notebook, Go, Shell</title>
    </path>

    <path
      d="M 20,359.9624294227795 L 35.2,358.8054234651652 L 50.400000000000006,355.388931950557 L 65.6,352.4645940980255 L 80.80000000000001,352.38766900610267 L 96,355.2201120752222 L 111.2,358.680676183461 L 126.4,359.98222608414204 L 141.60000000000002,358.0764946479667 L 156.79999999999998,354.49835627411727 L 172,352.1296404179421 L 187.2,352.87810871760627 L 202.4,356.14094547203723 L 217.6,359.29026486898323 L 232.8,359.78960787467724 L 248,357.2368040776428 L 263.20000000000005,353.68787937944495 L 278.40000000000003,352.00113456711483 L 293.59999999999997,353.53507240828003 L 308.8,357.05426073361735 L 324,359.724348404279 L 339.2,359.39484919147304 L 354.4,356.33114146734914 L 369.6,353.0007327007311 L 384.8,352.08593114222595 L 400,354.3235171512424 L 415.2,357.91134095157673 L 430.40000000000003,359.9597724540269 L 445.6,358.8190067532915 L 460.79999999999995,355.40781552741873 L 476,352.4735691476584 L 491.2,352.37950703153626 L 506.40000000000003,355.20138672349344 L 521.6,358.66646883615323 L 536.8000000000001,359.9839793261069 L 552,358.0927964196892 L 567.1999999999999,354.5160771431899 L 582.4,352.13450801221705 L 597.6,352.8662026809954 L 612.8000000000001,356.1218549158092 L 628,359.2793653100993 L 643.1999999999999,359.7956778081425 L 658.4,357.2549547844573 L 673.6,353.70349229652703 L 688.8,352.00163506497 L 704,353.5200573863821 L 719.2,357.03582327721267 L 734.4,359.71733802431356 L 749.6,359.40491204171923 L 764.8,356.35017293719267 L 780,353.013404861332"
      stroke="url(#thread-28)"
      stroke-width="7.406"
      stroke-linecap="round"
      fill="none"
      opacity="0.5459459459459459"
      class="thread"
      style="animation-delay: 2.8000000000000003s"
    >
      <title>2025-12-31: 3703 stars, Go, Python, TypeScript, Rust, Shell</title>
    </path>

    <path
      d="M 20,371.7395802220987 L 35.2,368.4926875666439 L 50.400000000000006,364.7209589246851 L 65.6,364.44223248952625 L 80.80000000000001,367.95342191084154 L 96,371.5142286942094 L 111.2,371.33149939427454 L 126.4,367.59988660405395 L 141.60000000000002,364.2944950605055 L 156.79999999999998,364.9363968364588 L 172,368.8418053405128 L 187.2,371.8504797553713 L 202.4,370.7574262644704 L 217.6,366.72702133281075 L 232.8,364.0526583632892 L 248,365.5832055279599 L 263.20000000000005,369.688245732004 L 278.40000000000003,371.99488026437047 L 293.59999999999997,370.04596408576947 L 308.8,365.9175823553563 L 324,364.0074983714942 L 339.2,366.35043125405974 L 354.4,370.45056910524073 L 369.6,371.9402354509071 L 384.8,369.23256153483 L 400,365.21190005248263 L 415.2,364.1612651863837 L 430.40000000000003,367.1998469135822 L 445.6,371.09079261928525 L 460.79999999999995,371.6892679984653 L 476,368.35774647790294 L 491.2,364.64513511793683 L 506.40000000000003,364.5062973604978 L 521.6,368.0891302834152 L 536.8000000000001,371.57701707131594 L 552,371.25448238632686 L 567.1999999999999,367.46510666570373 L 582.4,364.24552667321734 L 597.6,365.0254036300661 L 612.8000000000001,368.9739727276561 L 628,371.88501627770813 L 643.1999999999999,370.65754185259726 L 658.4,366.5991179692232 L 673.6,364.0329852504238 L 688.8,365.6927194715031 L 704,369.81028687997923 L 719.2,371.9994441461392 L 734.4,369.928189021126 L 749.6,365.8029283648544 L 764.8,364.0181007479353 L 780,366.4749958039722"
      stroke="url(#thread-29)"
      stroke-width="8"
      stroke-linecap="round"
      fill="none"
      opacity="0.5297297297297298"
      class="thread"
      style="animation-delay: 2.9000000000000004s"
    >
      <title>2025-12-30: 4315 stars, Go, Shell, Rust, Python, Swift, TypeScript</title>
    </path>

    <path
      d="M 20,382.6011513606285 L 35.2,379.53748493118616 L 50.400000000000006,376.7703828641616 L 65.6,376.0741092118732 L 80.80000000000001,377.895114188989 L 96,381.06577058417764 L 111.2,383.5530555714015 L 126.4,383.76212362859144 L 141.60000000000002,381.5589204529515 L 156.79999999999998,378.35613849304576 L 172,376.20739946619136 L 187.2,376.4904734440433 L 202.4,379.0238535754324 L 217.6,382.18313816171997 L 232.8,383.942595973367 L 248,383.1740638016586 L 263.20000000000005,380.370323977092 L 278.40000000000003,377.3291326583808 L 293.59999999999997,376.00049974841727 L 308.8,377.23634380812763 L 324,380.2442424272418 L 339.2,383.09553296027536 L 354.4,383.9619697650585 L 369.6,382.2879941238076 L 384.8,379.14695813297135 L 400,376.5528920345102 L 415.2,376.1691093298255 L 430.40000000000003,378.24169124047336 L 445.6,381.4416995883611 L 460.79999999999995,383.7172910944003 L 476,383.60935795948194 L 491.2,381.18710683977594 L 506.40000000000003,378.0036835836404 L 521.6,376.1002971200791 L 536.8000000000001,376.6973976161501 L 552,379.4121246206883 L 567.1999999999999,382.5037969375032 L 582.4,383.9900362804293 L 597.6,382.91786694585255 L 612.8000000000001,379.9747632163472 L 628,377.04784129616684 L 643.1999999999999,376.01384162391145 L 658.4,377.5357641194085 L 673.6,380.63775306473775 L 688.8,383.3308151582155 L 704,383.88816073058433 L 719.2,381.9524201619964 L 734.4,378.76478905068745 L 749.6,376.3691743996719 L 764.8,376.3016427708437 L 780,378.60549540084764"
      stroke="url(#thread-30)"
      stroke-width="6.556"
      stroke-linecap="round"
      fill="none"
      opacity="0.5135135135135135"
      class="thread"
      style="animation-delay: 3s"
    >
      <title>2025-12-29: 3278 stars, Shell, Go, JavaScript, TypeScript, Rust, Python</title>
    </path>

    <path
      d="M 20,392.82586992775117 L 35.2,389.2856900605295 L 50.400000000000006,388.0331409828858 L 65.6,390.1238758440086 L 80.80000000000001,393.7958153133104 L 96,395.95423477394075 L 111.2,394.7800100561941 L 126.4,391.26278223942523 L 141.60000000000002,388.36688436850756 L 156.79999999999998,388.53299023557156 L 172,391.6211051810908 L 187.2,395.0285541279133 L 202.4,395.8835260822706 L 217.6,393.46544741380006 L 232.8,389.8122840648488 L 248,388.00293606628406 L 263.20000000000005,389.56232882562415 L 278.40000000000003,393.1762001661601 L 293.59999999999997,395.7987655118693 L 308.8,395.21971676739304 L 324,391.92707842738 L 339.2,388.6958986674371 L 354.4,388.24942813702717 L 369.6,390.9639539053434 L 384.8,394.5516632814317 L 400,395.9888210928827 L 415.2,394.0641852441827 L 430.40000000000003,390.3998461835105 L 445.6,388.08412287427905 L 460.79999999999995,389.0687157709232 L 476,392.5238062175814 L 491.2,395.53743078236414 L 506.40000000000003,395.5696951656652 L 521.6,392.59340682194176 L 536.8000000000001,389.11699294101294 L 552,388.07038842665787 L 567.1999999999999,390.3356755631189 L 582.4,394.0036616951115 L 597.6,395.98295409357655 L 612.8000000000001,394.60539756132624 L 628,391.0320020080008 L 643.1999999999999,388.2744388614856 L 658.4,388.6567928795457 L 673.6,391.85681463461447 L 688.8,395.1775135628055 L 704,395.8201919175635 L 719.2,393.243197925537 L 734.4,389.61843197105264 L 749.6,388.00086065240174 L 764.8,389.7537792584068 L 780,393.3998212892407"
      stroke="url(#thread-31)"
      stroke-width="7.59"
      stroke-linecap="round"
      fill="none"
      opacity="0.4972972972972973"
      class="thread"
      style="animation-delay: 3.1s"
    >
      <title>2025-12-28: 3795 stars, Shell, Rust, Python, JavaScript, TypeScript</title>
    </path>

    <path
      d="M 20,402.84838673333974 L 35.2,400.0110618067227 L 50.400000000000006,403.4289088257306 L 65.6,407.74230080397217 L 80.80000000000001,406.187280220558 L 96,401.20232083891597 L 111.2,400.6044848854498 L 126.4,405.33125659857416 L 141.60000000000002,407.9704454702638 L 156.79999999999998,404.3834613821707 L 172,400.195160160604 L 187.2,401.9733408116061 L 202.4,406.9295856702587 L 217.6,407.2918606028315 L 232.8,402.4920715740116 L 248,400.0569097039052 L 263.20000000000005,403.80502433599344 L 278.40000000000003,407.8588860728197 L 293.59999999999997,405.8615144401379 L 308.8,400.94504696336645 L 324,400.8191416873725 L 339.2,405.6812343988351 L 354.4,407.906933730391 L 369.6,404.00605473968943 L 384.8,400.0956811326242 L 400,402.30778540379305 L 415.2,407.1735014270844 L 430.40000000000003,407.0627560127043 L 445.6,402.14921232001296 L 460.79999999999995,400.1379435215966 L 476,404.18287969944237 L 491.2,407.94103681229683 L 506.40000000000003,405.5191375516278 L 521.6,400.715033770843 L 536.8000000000001,401.06218268020484 L 552,406.01620980871894 L 567.1999999999999,407.80855871087005 L 582.4,403.6285940681159 L 597.6,400.03104205072543 L 612.8000000000001,402.6573303674641 L 628,407.3890986417102 L 643.1999999999999,406.80632111018036 L 658.4,401.8228684545286 L 673.6,400.25344015957495 L 688.8,404.5591031472911 L 704,407.9880199553998 L 719.2,405.16320473385423 L 734.4,400.5143337697339 L 749.6,401.3314391027944 L 764.8,406.3331936960325 L 780,407.6761982550565"
      stroke="url(#thread-32)"
      stroke-width="8"
      stroke-linecap="round"
      fill="none"
      opacity="0.48108108108108105"
      class="thread"
      style="animation-delay: 3.2s"
    >
      <title>2025-12-27: 5384 stars, Shell, Python, Rust, C, Go</title>
    </path>

    <path
      d="M 20,413.1528586305235 L 35.2,412.06252174334617 L 50.400000000000006,414.3036298165663 L 65.6,417.9800128374052 L 80.80000000000001,419.9811348513931 L 96,418.6138746743368 L 111.2,415.0350519073882 L 126.4,412.27265814668095 L 141.60000000000002,412.66391589171457 L 156.79999999999998,415.8777874686414 L 172,419.1950613490613 L 187.2,419.80903877025537 L 202.4,417.2002420736033 L 217.6,413.5759374435155 L 232.8,412.0025980406875 L 248,413.8114042000681 L 263.20000000000005,417.47195047654253 L 278.40000000000003,419.8871001622559 L 293.59999999999997,419.0134290845214 L 308.8,415.5901380513804 L 324,412.5136254470167 L 339.2,412.3868853055148 L 354.4,415.3171506776154 L 369.6,418.8251652550417 L 384.8,419.9428472546833 L 400,417.7245416602258 L 415.2,414.04712562795294 L 430.40000000000003,412.0220091287763 L 445.6,413.3626147432521 L 460.79999999999995,416.93467492065065 L 476,419.7159197967204 L 491.2,419.3531772084515 L 506.40000000000003,416.15335855670514 L 521.6,412.8237853875832 L 536.8000000000001,412.1815627189486 L 552,414.77006611592617 L 567.1999999999999,418.39919926947334 L 582.4,419.99840367312345 L 597.6,418.2146149786016 L 612.8000000000001,414.5570717059521 L 628,412.1203697637398 L 643.1999999999999,412.9661683856775 L 658.4,416.3788492564631 L 673.6,419.4709911010175 L 688.8,419.6263762050035 L 704,416.7135354179008 L 719.2,413.19698235174894 L 734.4,412.05202308484945 L 749.6,414.2473915456061 L 764.8,417.9256173638793 L 780,419.97460542021463"
      stroke="url(#thread-33)"
      stroke-width="7.606"
      stroke-linecap="round"
      fill="none"
      opacity="0.4648648648648649"
      class="thread"
      style="animation-delay: 3.3000000000000003s"
    >
      <title>2025-12-26: 3803 stars, Python, Shell, Go, TypeScript</title>
    </path>

    <path
      d="M 20,424.1544100324818 L 35.2,424.70692544982506 L 50.400000000000006,427.6614661215197 L 65.6,430.86293923072026 L 80.80000000000001,431.97613519068403 L 96,430.18906970888025 L 111.2,426.8052591051093 L 126.4,424.2929130728833 L 141.60000000000002,424.4845800483608 L 156.79999999999998,427.24045484082785 L 172,430.55035494500703 L 187.2,431.9999822578698 L 202.4,430.53195366772536 L 217.6,427.2170744946201 L 232.8,424.47327466015247 L 248,424.3019289874119 L 263.20000000000005,426.8280199591437 L 278.40000000000003,430.20897334374837 L 293.59999999999997,431.9786635525495 L 308.8,430.8462480889225 L 324,427.63773028215905 L 339.2,424.69345824265116 L 354.4,424.1610346701928 L 369.6,426.4288184821335 L 384.8,429.842649134977 L 400,431.91241979473944 L 415.2,431.12840411914874 L 430.40000000000003,428.0624766357573 L 445.6,424.9509776189525 L 460.79999999999995,424.0634880039299 L 476,426.0473579905644 L 491.2,429.4555186660091 L 506.40000000000003,431.80199897538125 L 521.6,431.3752357955045 L 536.8000000000001,428.4865175348471 L 552,425.2429250107676 L 567.1999999999999,424.0103904361429 L 582.4,425.6879457429871 L 597.6,429.05195321790643 L 612.8000000000001,431.6486479104069 L 628,431.58395601979214 L 643.1999999999999,428.90506492449555 L 658.4,425.56600389610384 L 673.6,424.002341517658 L 688.8,425.3546400403547 L 704,428.63650964718624 L 719.2,431.4540981623254 L 734.4,431.75220802901623 L 749.6,429.313392779694 L 764.8,425.9165662319212 L 780,424.03943213278365"
      stroke="url(#thread-34)"
      stroke-width="7.022"
      stroke-linecap="round"
      fill="none"
      opacity="0.4486486486486486"
      class="thread"
      style="animation-delay: 3.4000000000000004s"
    >
      <title>2025-12-25: 3511 stars, Python, TypeScript</title>
    </path>

    <path
      d="M 20,436.09749597812737 L 35.2,437.66375730968406 L 50.400000000000006,440.407735428654 L 65.6,442.9461711777583 L 80.80000000000001,443.99942079058405 L 96,443.03653354206193 L 111.2,440.54290783779044 L 126.4,437.7755983774458 L 141.60000000000002,436.12962581574214 L 156.79999999999998,436.4347367905503 L 172,438.5371226592386 L 187.2,441.3769555445758 L 202.4,443.5226552103247 L 217.6,443.8925589818091 L 232.8,442.3001957003561 L 248,439.5482871790723 L 263.20000000000005,437.02409034823125 L 278.40000000000003,436.0000710328689 L 293.59999999999997,436.99244475431635 L 308.8,439.50094876333924 L 324,442.26102809954494 L 339.2,443.88130686593604 L 354.4,443.5449908521431 L 369.6,441.4216193859772 L 384.8,438.5815993356905 L 400,436.45660528872094 L 415.2,436.11786206800457 L 430.40000000000003,437.7361325738658 L 445.6,440.4956349745504 L 460.79999999999995,443.00528421041747 L 476,443.9999480039639 L 491.2,442.9782091640957 L 506.40000000000003,440.45513360800254 L 521.6,437.702621918034 L 536.8000000000001,436.1082350861473 L 552,436.475715011815 L 567.1999999999999,438.61981241451923 L 582.4,441.45967233193903 L 597.6,443.56370090076945 L 612.8000000000001,443.8712421467916 L 628,442.22726231012956 L 643.1999999999999,439.4605034815907 L 658.4,436.96570873842506 L 673.6,436.0005221012456 L 688.8,437.0515011140546 L 704,439.58883967762483 L 719.2,442.33344712468335 L 734.4,443.9017470491235 L 749.6,443.50314814963554 L 764.8,441.3385870058468 L 780,438.49923449952803"
      stroke="url(#thread-35)"
      stroke-width="5.776"
      stroke-linecap="round"
      fill="none"
      opacity="0.43243243243243246"
      class="thread"
      style="animation-delay: 3.5s"
    >
      <title>2025-12-24: 2888 stars, Python, TypeScript</title>
    </path>

    <path
      d="M 20,448.9960510129133 L 35.2,451.50637217824794 L 50.400000000000006,454.2655346882004 L 65.6,455.8826248244989 L 80.80000000000001,455.5424557881977 L 96,453.4165092435394 L 111.2,450.57649017441366 L 126.4,448.45407267364817 L 141.60000000000002,448.1191827086574 L 156.79999999999998,449.74064072576766 L 172,452.5010580458181 L 187.2,455.00888839171796 L 202.4,455.99991640151285 L 217.6,454.9745577089166 L 232.8,452.44970302498274 L 248,449.6981498032351 L 263.20000000000005,448.10697586488885 L 278.40000000000003,448.478303466614 L 293.59999999999997,450.6249436866455 L 308.8,453.46475971011085 L 324,455.5661798009641 L 339.2,455.86986293754495 L 354.4,454.22272026076865 L 369.6,451.45508827195226 L 384.8,448.96215021473824 L 400,448.00061414096234 L 415.2,449.05519731928996 L 430.40000000000003,451.5942767646654 L 445.6,454.33788421874385 L 460.79999999999995,455.902947379091 L 476,455.50050662051757 L 491.2,453.33343523152047 L 506.40000000000003,450.49416952658197 L 521.6,448.41400382221025 L 536.8000000000001,448.1415646505695 L 552,449.8141905627102 L 567.1999999999999,452.5886987746023 L 582.4,455.0664396889646 L 597.6,455.9983662432633 L 612.8000000000001,454.9146875411231 L 628,452.36169383096853 L 643.1999999999999,449.6263676523589 L 658.4,448.08760665704625 L 673.6,448.5211113591546 L 688.8,450.7083489122413 L 704,453.54671709308326 L 719.2,455.6053740335417 L 734.4,455.8465359244461 L 749.6,454.1486313175133 L 764.8,451.36758616910925 L 780,448.90534539335"
      stroke="url(#thread-36)"
      stroke-width="5.776"
      stroke-linecap="round"
      fill="none"
      opacity="0.4162162162162162"
      class="thread"
      style="animation-delay: 3.6s"
    >
      <title>2025-12-23: 2888 stars, Python, TypeScript</title>
    </path>
  </g>

  <!-- Date markers -->
  <g id="dates">
    <text x="785" y="24" class="date-label">01-28</text>
<text x="785" y="108" class="date-label">01-21</text>
<text x="785" y="192" class="date-label">01-14</text>
<text x="785" y="276" class="date-label">01-07</text>
<text x="785" y="360" class="date-label">12-31</text>
<text x="785" y="444" class="date-label">12-24</text>
  </g>

</svg>