<?xml version="1.0" encoding="UTF-8"?>
<svg xmlns="http://www.w3.org/2000/svg" viewBox="0 0 800 352" width="800" height="352">
  <title>The Data Tapestry - GitHub Trends Woven in Time</title>
  <desc>A living data art piece that weaves daily GitHub trending repositories into an evolving tapestry. Each thread represents one day of open source activity.</desc>

  <style>
    .thread {
      animation: breathe 8s ease-in-out infinite alternate;
    }

    @keyframes breathe {
      0% {
        opacity: 0.85;
      }
      100% {
        opacity: 1;
      }
    }

    .date-label {
      font-family: ui-monospace, monospace;
      font-size: 8px;
      fill: #666;
    }

    .title {
      font-family: system-ui, sans-serif;
      font-size: 14px;
      fill: #333;
      font-weight: 600;
    }

    .subtitle {
      font-family: system-ui, sans-serif;
      font-size: 10px;
      fill: #888;
    }

    .empty-state {
      font-family: system-ui, sans-serif;
      font-size: 12px;
      fill: #999;
      text-anchor: middle;
    }
  </style>

  <defs>
    
    <linearGradient id="thread-0" x1="0%" y1="0%" x2="100%" y2="0%">
      <stop offset="0%" stop-color="#3178c6" />
      <stop offset="50%" stop-color="#3572A5" />
      <stop offset="100%" stop-color="#f1e05a" />
    </linearGradient>

    <linearGradient id="thread-1" x1="0%" y1="0%" x2="100%" y2="0%">
      <stop offset="0%" stop-color="#3178c6" />
      <stop offset="50%" stop-color="#f1e05a" />
      <stop offset="100%" stop-color="#3572A5" />
    </linearGradient>

    <linearGradient id="thread-2" x1="0%" y1="0%" x2="100%" y2="0%">
      <stop offset="0%" stop-color="#3572A5" />
      <stop offset="50%" stop-color="#3178c6" />
      <stop offset="100%" stop-color="#89e051" />
    </linearGradient>

    <linearGradient id="thread-3" x1="0%" y1="0%" x2="100%" y2="0%">
      <stop offset="0%" stop-color="#3178c6" />
      <stop offset="50%" stop-color="#89e051" />
      <stop offset="100%" stop-color="#3572A5" />
    </linearGradient>

    <linearGradient id="thread-4" x1="0%" y1="0%" x2="100%" y2="0%">
      <stop offset="0%" stop-color="#3572A5" />
      <stop offset="50%" stop-color="#3178c6" />
      <stop offset="100%" stop-color="#89e051" />
    </linearGradient>

    <linearGradient id="thread-5" x1="0%" y1="0%" x2="100%" y2="0%">
      <stop offset="0%" stop-color="#3178c6" />
      <stop offset="50%" stop-color="#3572A5" />
      <stop offset="100%" stop-color="#8b8b8b" />
    </linearGradient>

    <linearGradient id="thread-6" x1="0%" y1="0%" x2="100%" y2="0%">
      <stop offset="0%" stop-color="#3178c6" />
      <stop offset="50%" stop-color="#89e051" />
      <stop offset="100%" stop-color="#3572A5" />
    </linearGradient>

    <linearGradient id="thread-7" x1="0%" y1="0%" x2="100%" y2="0%">
      <stop offset="0%" stop-color="#3572A5" />
      <stop offset="50%" stop-color="#3178c6" />
      <stop offset="100%" stop-color="#89e051" />
    </linearGradient>

    <linearGradient id="thread-8" x1="0%" y1="0%" x2="100%" y2="0%">
      <stop offset="0%" stop-color="#3572A5" />
      <stop offset="50%" stop-color="#3178c6" />
      <stop offset="100%" stop-color="#8b8b8b" />
    </linearGradient>

    <linearGradient id="thread-9" x1="0%" y1="0%" x2="100%" y2="0%">
      <stop offset="0%" stop-color="#3572A5" />
      <stop offset="50%" stop-color="#3178c6" />
      <stop offset="100%" stop-color="#8b8b8b" />
    </linearGradient>

    <linearGradient id="thread-10" x1="0%" y1="0%" x2="100%" y2="0%">
      <stop offset="0%" stop-color="#3178c6" />
      <stop offset="50%" stop-color="#3572A5" />
      <stop offset="100%" stop-color="#dea584" />
    </linearGradient>

    <linearGradient id="thread-11" x1="0%" y1="0%" x2="100%" y2="0%">
      <stop offset="0%" stop-color="#3572A5" />
      <stop offset="50%" stop-color="#3178c6" />
      <stop offset="100%" stop-color="#00ADD8" />
    </linearGradient>

    <linearGradient id="thread-12" x1="0%" y1="0%" x2="100%" y2="0%">
      <stop offset="0%" stop-color="#3572A5" />
      <stop offset="50%" stop-color="#00ADD8" />
      <stop offset="100%" stop-color="#3178c6" />
    </linearGradient>

    <linearGradient id="thread-13" x1="0%" y1="0%" x2="100%" y2="0%">
      <stop offset="0%" stop-color="#3572A5" />
      <stop offset="50%" stop-color="#3178c6" />
      <stop offset="100%" stop-color="#00ADD8" />
    </linearGradient>

    <linearGradient id="thread-14" x1="0%" y1="0%" x2="100%" y2="0%">
      <stop offset="0%" stop-color="#3572A5" />
      <stop offset="50%" stop-color="#00ADD8" />
      <stop offset="100%" stop-color="#DA5B0B" />
    </linearGradient>

    <linearGradient id="thread-15" x1="0%" y1="0%" x2="100%" y2="0%">
      <stop offset="0%" stop-color="#3572A5" />
      <stop offset="50%" stop-color="#3178c6" />
      <stop offset="100%" stop-color="#dea584" />
    </linearGradient>

    <linearGradient id="thread-16" x1="0%" y1="0%" x2="100%" y2="0%">
      <stop offset="0%" stop-color="#dea584" />
      <stop offset="50%" stop-color="#3572A5" />
      <stop offset="100%" stop-color="#3178c6" />
    </linearGradient>

    <linearGradient id="thread-17" x1="0%" y1="0%" x2="100%" y2="0%">
      <stop offset="0%" stop-color="#3572A5" />
      <stop offset="50%" stop-color="#3178c6" />
      <stop offset="100%" stop-color="#dea584" />
    </linearGradient>

    <linearGradient id="thread-18" x1="0%" y1="0%" x2="100%" y2="0%">
      <stop offset="0%" stop-color="#3572A5" />
      <stop offset="50%" stop-color="#dea584" />
      <stop offset="100%" stop-color="#3178c6" />
    </linearGradient>

    <linearGradient id="thread-19" x1="0%" y1="0%" x2="100%" y2="0%">
      <stop offset="0%" stop-color="#3572A5" />
      <stop offset="50%" stop-color="#3178c6" />
      <stop offset="100%" stop-color="#89e051" />
    </linearGradient>

    <linearGradient id="thread-20" x1="0%" y1="0%" x2="100%" y2="0%">
      <stop offset="0%" stop-color="#3572A5" />
      <stop offset="50%" stop-color="#f1e05a" />
      <stop offset="100%" stop-color="#89e051" />
    </linearGradient>

    <linearGradient id="thread-21" x1="0%" y1="0%" x2="100%" y2="0%">
      <stop offset="0%" stop-color="#3572A5" />
      <stop offset="50%" stop-color="#89e051" />
      <stop offset="100%" stop-color="#dea584" />
    </linearGradient>

    <linearGradient id="thread-22" x1="0%" y1="0%" x2="100%" y2="0%">
      <stop offset="0%" stop-color="#3572A5" />
      <stop offset="50%" stop-color="#89e051" />
      <stop offset="100%" stop-color="#00ADD8" />
    </linearGradient>

    <linearGradient id="thread-23" x1="0%" y1="0%" x2="100%" y2="0%">
      <stop offset="0%" stop-color="#3572A5" />
      <stop offset="50%" stop-color="#3178c6" />
      <stop offset="100%" stop-color="#3572A5" />
    </linearGradient>

    <linearGradient id="thread-24" x1="0%" y1="0%" x2="100%" y2="0%">
      <stop offset="0%" stop-color="#3572A5" />
      <stop offset="50%" stop-color="#3178c6" />
      <stop offset="100%" stop-color="#3572A5" />
    </linearGradient>

    <linearGradient id="thread-25" x1="0%" y1="0%" x2="100%" y2="0%">
      <stop offset="0%" stop-color="#3572A5" />
      <stop offset="50%" stop-color="#3178c6" />
      <stop offset="100%" stop-color="#3572A5" />
    </linearGradient>

    <!-- Background pattern -->
    <pattern id="loom" patternUnits="userSpaceOnUse" width="20" height="20">
      <rect width="20" height="20" fill="#fafafa"/>
      <circle cx="10" cy="10" r="0.5" fill="#eee"/>
    </pattern>
  </defs>

  <!-- Background -->
  <rect width="100%" height="100%" fill="url(#loom)"/>

  <!-- Threads -->
  <g id="tapestry">
    
    <path
      d="M 20,20 L 35.2,23.999978650090753 L 50.400000000000006,20.02613786486309 L 65.6,16.000192147815778 L 80.80000000000001,19.94772538635292 L 96,23.999466263664182 L 111.2,20.078409130320516 L 126.4,16.00104610088364 L 141.60000000000002,19.895459701052765 L 156.79999999999998,23.998270780418572 L 172,20.130667003734096 L 187.2,16.002583063260218 L 202.4,19.843211870921493 L 217.6,23.996392404538867 L 232.8,20.182902559616103 L 248,16.004802772436953 L 263.20000000000005,19.790990819731544 L 278.40000000000003,23.993831456846028 L 293.59999999999997,20.23510687629058 L 308.8,16.00770484929419 L 324,19.738805466681452 L 339.2,23.990588374742217 L 354.4,20.287271037417103 L 369.6,16.01128879816592 L 384.8,19.686664724872735 L 400,23.98666371213612 L 415.2,20.339386133513703 L 430.40000000000003,16.015554006924454 L 445.6,19.634577499787458 L 460.79999999999995,23.982058139348307 L 476,20.391443263478614 L 491.2,16.020499747084944 L 506.40000000000003,19.582552687767063 L 521.6,23.976772442996783 L 536.8000000000001,20.443433536110394 L 552,16.026125173929838 L 567.1999999999999,19.530599174493098 L 582.4,23.970807525862586 L 597.6,20.495348071626854 L 612.8000000000001,16.032429326653137 L 628,19.478725833469532 L 643.1999999999999,23.96416440673564 L 658.4,20.54717800318119 L 673.6,16.0394111285245 L 688.8,19.426941524507157 L 704,23.95684422024074 L 719.2,20.59891447837691 L 734.4,16.047069387073144 L 749.6,19.375255092210242 L 764.8,23.948848216643732 L 780,20.65054866077952"
      stroke="url(#thread-0)"
      stroke-width="8"
      stroke-linecap="round"
      fill="none"
      opacity="1"
      class="thread"
      style="animation-delay: 0s"
    >
      <title>2026-01-17: 6237 stars, JavaScript, TypeScript, Shell, Python</title>
    </path>

    <path
      d="M 20,33.917702154416816 L 35.2,35.72994391423881 L 50.400000000000006,31.052600631741708 L 65.6,28.02360083931188 L 80.80000000000001,31.912984033012833 L 96,35.953762939568115 L 111.2,33.11554274494441 L 126.4,28.336432907443534 L 141.60000000000002,29.931421649448737 L 156.79999999999998,35.125449795600616 L 172,34.88162881843981 L 187.2,29.624173398606974 L 202.4,28.500326721974353 L 217.6,33.465426120745114 L 232.8,35.88088733393689 L 248,31.544142891408463 L 263.20000000000005,28.000526587364174 L 278.40000000000003,31.415439267284835 L 293.59999999999997,35.847406539601316 L 308.8,33.58542009432881 L 324,28.565022593417666 L 339.2,29.52100932535361 L 354.4,34.79009597839568 L 369.6,35.2048026342183 L 384.8,30.04359723430905 L 400,28.286261280402094 L 415.2,32.99031557790923 L 430.40000000000003,35.9713581333251 L 445.6,32.042788390997245 L 460.79999999999995,28.03977278337351 L 476,30.927003222371354 L 491.2,35.68109922253046 L 506.40000000000003,34.03059316885376 L 521.6,28.847136658382333 L 536.8000000000001,29.149225038848968 L 552,34.41126642994389 L 567.1999999999999,35.4780386919041 L 582.4,30.493506057448958 L 597.6,28.130063922130365 L 612.8000000000001,32.499773775988274 L 628,35.99994658163061 L 643.1999999999999,32.540767154888854 L 658.4,28.140727886703523 L 673.6,30.455286788501432 L 688.8,35.457432416133415 L 704,34.444125208961175 L 719.2,29.17837915489907 L 734.4,28.82186199341125 L 749.6,33.9948641341441 L 764.8,35.6970793826182 L 780,30.96688931526012"
      stroke="url(#thread-1)"
      stroke-width="8"
      stroke-linecap="round"
      fill="none"
      opacity="0.9769230769230769"
      class="thread"
      style="animation-delay: 0.1s"
    >
      <title>2026-01-16: 5731 stars, JavaScript, TypeScript, Shell, Python, C</title>
    </path>

    <path
      d="M 20,47.36588393923159 L 35.2,47.72796620406662 L 50.400000000000006,45.02114992900705 L 65.6,41.473712963039745 L 80.80000000000001,40.00594039709429 L 96,41.82611708085998 L 111.2,45.43585561987348 L 126.4,47.86358365393058 L 141.60000000000002,47.11077152606933 L 156.79999999999998,43.797141603270454 L 172,40.65050671300421 L 187.2,40.26120772525637 L 202.4,42.94971940553809 L 217.6,46.50283242778149 L 232.8,47.99558911556006 L 248,46.19913744372822 L 263.20000000000005,42.5923341429779 L 278.40000000000003,40.14433525643126 L 293.59999999999997,40.870357606706385 L 308.8,44.172732435899874 L 324,47.332912220581626 L 339.2,47.74940580011959 L 354.4,45.079351552880716 L 369.6,41.52076446404706 L 384.8,40.00310851564089 L 400,41.77573304968289 L 415.2,45.37939607026425 L 430.40000000000003,47.84752664386351 L 445.6,47.1483353445665 L 460.79999999999995,43.85740334453594 L 476,40.683858317399626 L 491.2,40.24019382317012 L 506.40000000000003,42.89163884838134 L 521.6,46.45549770292611 L 536.8000000000001,47.99796663526495 L 552,46.2492700103281 L 567.1999999999999,42.648952133300824 L 582.4,40.16083018254508 L 597.6,40.833150682781095 L 612.8000000000001,44.11245276860062 L 628,47.299182626434515 L 643.1999999999999,47.76999281362712 L 658.4,45.13730774151919 L 673.6,41.56837972183525 L 688.8,40.001185492843305 L 704,41.72585479762905 L 719.2,45.32262285788404 L 734.4,47.83059473941727 L 749.6,47.185183258756425 L 764.8,43.91769751105116 L 780,40.717963983816475"
      stroke="url(#thread-2)"
      stroke-width="7.494"
      stroke-linecap="round"
      fill="none"
      opacity="0.9538461538461539"
      class="thread"
      style="animation-delay: 0.2s"
    >
      <title>2026-01-15: 3747 stars, TypeScript, Shell, Python, JavaScript, C</title>
    </path>

    <path
      d="M 20,59.98997994641622 L 35.2,58.37441332853877 L 50.400000000000006,54.55154475590343 L 65.6,52.075189047412614 L 80.80000000000001,53.247415826046215 L 96,56.978499714677135 L 111.2,59.79995076601849 L 126.4,59.08889184826437 L 141.60000000000002,55.506337503509094 L 156.79999999999998,52.38270165470314 L 172,52.621778444235495 L 187.2,56.00131732350569 L 202.4,59.379631592589355 L 217.6,59.616172973599284 L 232.8,56.491047884230795 L 248,52.909434894581956 L 263.20000000000005,52.20087282513409 L 278.40000000000003,55.02405509803124 L 293.59999999999997,58.75449520340414 L 308.8,59.92430166771386 L 324,57.44599908626819 L 339.2,53.62346693394906 L 354.4,52.010207286627725 L 369.6,54.105938466411104 L 384.8,57.96242699845183 L 400,59.9946042795032 L 415.2,58.313317805675 L 430.40000000000003,54.48152499284092 L 445.6,52.0613368114616 L 460.79999999999995,53.30260843183635 L 476,57.05142901581938 L 491.2,59.822820230613544 L 506.40000000000003,59.04044156621224 L 521.6,55.43160782267039 L 536.8000000000001,52.35116277582643 L 552,52.66274953772752 L 567.1999999999999,56.0767108442594 L 582.4,59.41936022104014 L 597.6,59.583304184906076 L 612.8000000000001,56.41613715947225 L 628,52.86212073654294 L 643.1999999999999,52.22513941814847 L 658.4,55.09734373357418 L 673.6,58.80867530515556 L 688.8,59.90900633321935 L 704,57.375447163325916 L 719.2,53.563244896299956 L 734.4,52.016298740758806 L 749.6,54.17268067515302 L 764.8,58.027775074315876 L 780,59.997809348710454"
      stroke="url(#thread-3)"
      stroke-width="8"
      stroke-linecap="round"
      fill="none"
      opacity="0.9307692307692308"
      class="thread"
      style="animation-delay: 0.30000000000000004s"
    >
      <title>2026-01-14: 4003 stars, TypeScript, Shell, Python, C, HTML, Jupyter Notebook</title>
    </path>

    <path
      d="M 20,71.63718970730272 L 35.2,67.49193829597378 L 50.400000000000006,64.06073554503796 L 65.6,66.16592037204622 L 80.80000000000001,70.8487883643401 L 96,71.5278641023066 L 111.2,67.2487494938285 L 126.4,64.02547005911057 L 141.60000000000002,66.38814161714444 L 156.79999999999998,71.01617840522924 L 172,71.40516680077972 L 187.2,67.00840816355169 L 202.4,64.0052692714484 L 217.6,66.61647230425093 L 232.8,71.17213619670412 L 248,71.26956286345963 L 263.20000000000005,66.7718252731509 L 278.40000000000003,64.00020974928714 L 293.59999999999997,66.85004698941202 L 308.8,71.31607061047893 L 324,71.12156627122694 L 339.2,66.53989754498369 L 354.4,64.01031066978129 L 369.6,67.08798035229884 L 384.8,71.44743609058968 L 400,70.96173797695899 L 415.2,66.31350405690222 L 430.40000000000003,64.03553374731678 L 445.6,67.32937055184534 L 460.79999999999995,71.56573472121991 L 476,70.79068377934475 L 491.2,66.09350291027654 L 506.40000000000003,64.07578337862527 L 521.6,67.57330264450484 L 536.8000000000001,71.67051811395594 L 552,70.60905202672029 L 567.1999999999999,65.88072797752451 L 582.4,64.13090700515018 L 597.6,67.81885205216928 L 612.8000000000001,71.7613891073174 L 628,70.41753115962814 L 643.1999999999999,65.67598574147763 L 658.4,64.20069569129075 L 673.6,68.06508806660636 L 688.8,71.83800327212242 L 704,70.21684710141449 L 719.2,65.48005223856121 L 734.4,64.28488491633269 L 749.6,68.31107737713164 L 764.8,71.90007021698062 L 780,70.0077605067551"
      stroke="url(#thread-4)"
      stroke-width="8"
      stroke-linecap="round"
      fill="none"
      opacity="0.9076923076923077"
      class="thread"
      style="animation-delay: 0.4s"
    >
      <title>2026-01-13: 5049 stars, TypeScript, Shell, C, Rust, Python</title>
    </path>

    <path
      d="M 20,82.39388857641583 L 35.2,78.89641386869324 L 50.400000000000006,76.27092072205112 L 65.6,76.59190205341669 L 80.80000000000001,79.60573941429567 L 96,82.93109569630126 L 111.2,83.9404919200642 L 126.4,81.83636922726207 L 141.60000000000002,78.2812677117993 L 156.79999999999998,76.08419600590835 L 172,76.98113643263633 L 187.2,80.26338534728599 L 202.4,83.33752439196093 L 217.6,83.77457001285379 L 232.8,81.2291973531559 L 248,77.71259336273108 L 263.20000000000005,76.0033484481491 L 278.40000000000003,77.45199611704035 L 293.59999999999997,80.91390975627445 L 308.8,83.65371169678755 L 324,83.50658969115592 L 339.2,80.5887899230717 L 354.4,77.20576687815942 L 369.6,76.03056403910654 L 384.8,77.99174980407703 L 400,81.53972348818118 L 415.2,83.87110840520228 L 430.40000000000003,83.14379671982681 L 445.6,79.9324625429507 L 460.79999999999995,76.77449204613418 L 476,76.16510691216462 L 491.2,78.58580340612178 L 506.40000000000003,82.12390552762557 L 521.6,83.98383645339915 L 536.8000000000001,82.69600044809431 L 552,79.2779612690515 L 567.1999999999999,76.43042985728871 L 582.4,76.40333924042964 L 597.6,79.2180946515678 L 612.8000000000001,82.6506605144699 L 628,83.9888478529111 L 643.1999999999999,82.17530858024016 L 658.4,78.64298278260313 L 673.6,76.18288321006156 L 688.8,76.7388195978267 L 704,79.871527383294 L 719.2,83.10574582542273 L 734.4,83.88600710340653 L 749.6,81.59579980238982 L 764.8,78.04469589948118 L 780,76.03854537500847"
      stroke="url(#thread-5)"
      stroke-width="7.33"
      stroke-linecap="round"
      fill="none"
      opacity="0.8846153846153846"
      class="thread"
      style="animation-delay: 0.5s"
    >
      <title>2026-01-12: 3665 stars, TypeScript, Unknown, Python, Shell, C</title>
    </path>

    <path
      d="M 20,92.56448003223947 L 35.2,89.31009155425674 L 50.400000000000006,88.00421243906501 L 65.6,89.59279223623017 L 80.80000000000001,92.9250993611084 L 96,95.5872852521267 L 111.2,95.65092214351928 L 126.4,93.06991289807925 L 141.60000000000002,89.71388273972401 L 156.79999999999998,88.01386466354022 L 172,89.20131364473347 L 187.2,92.41606826727 L 202.4,95.32943236641576 L 217.6,95.83103031455857 L 232.8,93.55751580529918 L 248,90.15577177056171 L 263.20000000000005,88.08994531245054 L 278.40000000000003,88.8564747955877 L 293.59999999999997,91.90010345013343 L 308.8,95.01609492544117 L 324,95.94729486608213 L 339.2,94.01916291517516 L 354.4,90.62839462382126 L 369.6,88.2311865117248 L 384.8,88.56402238314693 L 400,91.3858033959449 L 415.2,94.65249465670676 L 430.40000000000003,95.99777826453338 L 445.6,94.44716093895359 L 460.79999999999995,91.1238751014201 L 476,88.4352344952359 L 491.2,88.328830088644 L 506.40000000000003,90.88173884789379 L 521.6,94.24469091117221 L 536.8000000000001,95.9816392106748 L 552,94.83437734550324 L 567.1999999999999,91.63395608595319 L 582.4,88.69868883000561 L 597.6,88.15481736092956 L 612.8000000000001,90.39630997579721 L 628,93.79947968496101 L 643.1999999999999,95.89914665972974 L 658.4,95.17435922401413 L 673.6,92.15013714447574 L 688.8,89.01715908397577 L 704,88.04488409936927 L 719.2,89.93760638836818 L 734.4,93.32428036497349 L 749.6,95.75167533927876 L 764.8,95.46144082091298 L 780,92.66381618710696"
      stroke="url(#thread-6)"
      stroke-width="6.996"
      stroke-linecap="round"
      fill="none"
      opacity="0.8615384615384615"
      class="thread"
      style="animation-delay: 0.6000000000000001s"
    >
      <title>2026-01-11: 3498 stars, TypeScript, Unknown, Shell, Python</title>
    </path>

    <path
      d="M 20,102.59686708924153 L 35.2,100.11632995151294 L 50.400000000000006,101.01627393138716 L 65.6,104.51335657369081 L 80.80000000000001,107.56359584817667 L 96,107.51195769097342 L 111.2,104.40338974521087 L 126.4,100.94369737340415 L 141.60000000000002,100.14431681745626 L 156.79999999999998,102.70105664025304 L 172,106.38844181799463 L 187.2,107.99684439283226 L 202.4,106.12625497522976 L 217.6,102.40489947677202 L 232.8,100.07197480073988 L 248,101.15813950402814 L 263.20000000000005,104.71795815462757 L 278.40000000000003,107.65284112463463 L 293.59999999999997,107.40816447879821 L 308.8,104.19690325640896 L 324,100.81425060993507 L 339.2,100.20458473218127 L 354.4,102.89857994976715 L 369.6,106.55128938248356 L 384.8,107.98326804370046 L 400,105.94807203766527 L 415.2,102.21720656001187 L 430.40000000000003,100.03814632977227 L 445.6,101.30762095334387 L 460.79999999999995,104.92063568588945 L 476,107.73229718464194 L 491.2,107.29523775693998 L 506.40000000000003,103.98988908832094 L 521.6,100.6933413079303 L 536.8000000000001,100.2750239465356 L 552,103.09905494508058 L 567.1999999999999,106.70729976924119 L 582.4,107.9590169699556 L 597.6,105.76466847916836 L 612.8000000000001,102.03429133553983 L 628,100.01493519522867 L 643.1999999999999,101.4643176853274 L 658.4,105.12084601376256 L 673.6,107.80175109460984 L 688.8,107.17348015671656 L 704,103.78290201637523 L 719.2,100.58129349115326 L 734.4,100.35544569109493 L 749.6,103.30194437503594 L 764.8,106.85605488741916 L 780,107.92415616183457"
      stroke="url(#thread-7)"
      stroke-width="7.724"
      stroke-linecap="round"
      fill="none"
      opacity="0.8384615384615386"
      class="thread"
      style="animation-delay: 0.7000000000000001s"
    >
      <title>2026-01-10: 3862 stars, TypeScript, Unknown, Shell, Python</title>
    </path>

    <path
      d="M 20,112.9727900187683 L 35.2,112.14550651045366 L 50.400000000000006,114.75198137780876 L 65.6,118.47024808203251 L 80.80000000000001,119.98790527305675 L 96,117.95295479464949 L 111.2,114.17822322655583 L 126.4,112.02641339159779 L 141.60000000000002,113.41445550737065 L 156.79999999999998,117.10581843074402 L 172,119.81206792511945 L 187.2,119.12235366913414 L 202.4,115.65110453904158 L 217.6,112.49066737803088 L 232.8,112.45650356950567 L 248,115.57904779028829 L 263.20000000000005,119.07659541418326 L 278.40000000000003,119.83337170180539 L 293.59999999999997,117.17520586439133 L 308.8,113.47011311143463 L 324,112.01875883713102 L 339.2,114.11407553934824 L 354.4,117.88945965644272 L 369.6,119.98162704521845 L 384.8,118.52677969589918 L 400,114.82096189668893 L 415.2,112.16548494601248 L 430.40000000000003,112.92596867057668 L 445.6,116.4249395279135 L 460.79999999999995,119.54535489745835 L 476,119.50740663066922 L 491.2,116.34490077217498 L 506.40000000000003,112.87514159532832 L 521.6,112.18914862509843 L 536.8000000000001,114.8980356468804 L 552,118.58860270975622 L 567.1999999999999,119.97312456591077 L 582.4,117.81820607983217 L 597.6,114.04354679713543 L 612.8000000000001,112.01178514551827 L 628,113.53290695256769 L 643.1999999999999,117.25182762428042 L 658.4,119.85556322656049 L 673.6,119.02458748271124 L 688.8,115.49917143694624 L 704,112.4199162882808 L 719.2,112.5299627856175 L 734.4,115.73127649642505 L 749.6,119.17198134478217 L 764.8,119.78694072498546 L 780,117.02832080927092"
      stroke="url(#thread-8)"
      stroke-width="7.822"
      stroke-linecap="round"
      fill="none"
      opacity="0.8153846153846154"
      class="thread"
      style="animation-delay: 0.8s"
    >
      <title>2026-01-09: 3911 stars, TypeScript, Unknown, Python, Shell</title>
    </path>

    <path
      d="M 20,124.08987952933961 L 35.2,125.03298645243598 L 50.400000000000006,128.44636191387485 L 65.6,131.4881065165788 L 80.80000000000001,131.62573233176778 L 96,128.7446552108105 L 111.2,125.24359496214278 L 126.4,124.03745535835648 L 141.60000000000002,126.1304410208051 L 156.79999999999998,129.77997930859397 L 172,131.94754698370048 L 187.2,130.82847610420032 L 202.4,127.35447983603918 L 217.6,124.41792909225296 L 232.8,124.4637297680565 L 248,127.45374925412442 L 263.20000000000005,130.89856478677274 L 278.40000000000003,131.93010067498165 L 293.59999999999997,129.68952341160193 L 308.8,126.0422870745217 L 324,124.02499834953983 L 339.2,125.31720631528025 L 354.4,128.84304777408926 L 369.6,131.66698667692165 L 384.8,131.43787520660766 L 400,128.3464664041486 L 415.2,124.9665974905237 L 430.40000000000003,124.11227106707067 L 445.6,126.49478003875903 L 460.79999999999995,130.13050118960697 L 476,131.9924151180685 L 491.2,130.53033429555734 L 506.40000000000003,126.96155422762604 L 521.6,124.25736068049993 L 536.8000000000001,124.66920418986629 L 552,127.85419314178435 L 567.1999999999999,131.16057759417814 L 582.4,131.83553645018435 L 597.6,129.31711419462295 L 612.8000000000001,125.70209237717116 L 628,124.00025660140498 L 643.1999999999999,125.62851693763818 L 658.4,129.23122056651297 L 673.6,131.80883773034137 L 688.8,131.2153025343704 L 704,127.94477899150455 L 719.2,124.72023121442305 L 734.4,124.22634493051217 L 749.6,126.87431871676038 L 764.8,130.4595093419647 L 780,131.99696798016708"
      stroke="url(#thread-9)"
      stroke-width="7.54"
      stroke-linecap="round"
      fill="none"
      opacity="0.7923076923076924"
      class="thread"
      style="animation-delay: 0.9s"
    >
      <title>2026-01-08: 3770 stars, TypeScript, Unknown, Python, Rust, JavaScript</title>
    </path>

    <path
      d="M 20,136.16430290134744 L 35.2,138.4886690143966 L 50.400000000000006,141.94668934634325 L 65.6,143.94449175687691 L 80.80000000000001,142.98351825122398 L 96,139.78459813766284 L 111.2,136.74725165180004 L 126.4,136.14980213296496 L 141.60000000000002,138.4403983811607 L 156.79999999999998,141.90085680504035 L 172,143.93547644371594 L 187.2,143.01808258151766 L 202.4,139.8368152964156 L 217.6,136.7779533807794 L 232.8,136.13595896680795 L 248,138.39239412319452 L 263.20000000000005,141.8546996031074 L 278.40000000000003,143.9257889630049 L 293.59999999999997,143.05213143237606 L 308.8,139.88906032662535 L 324,136.8092054256387 L 339.2,136.12277576724756 L 354.4,138.34466443948108 L 369.6,141.8082256240558 L 384.8,143.91543096933634 L 400,143.08565898835775 L 415.2,139.9413243049979 L 430.40000000000003,136.84100244862267 L 445.6,136.1102547859347 L 460.79999999999995,138.29721748210693 L 476,141.76144280550153 L 491.2,143.90440423182451 L 506.40000000000003,143.11865952305695 L 521.6,139.99359830500285 L 536.8000000000001,136.8733390188953 L 552,136.09839816141533 L 567.1999999999999,138.2500613548698 L 582.4,141.7143591378094 L 597.6,143.89271063380298 L 612.8000000000001,143.15112740008152 L 628,140.04587339839807 L 643.1999999999999,136.90620961346764 L 658.4,136.08720791876527 L 673.6,138.20320411189454 L 688.8,141.66698266272832 L 704,143.8803521725032 L 719.2,143.18305707401558 L 734.4,140.09814065675474 L 749.6,136.9396086181408 L 764.8,136.07668596924438 L 780,138.1566537562574"
      stroke="url(#thread-10)"
      stroke-width="7.128"
      stroke-linecap="round"
      fill="none"
      opacity="0.7692307692307693"
      class="thread"
      style="animation-delay: 1s"
    >
      <title>2026-01-07: 3564 stars, TypeScript, Python, Unknown, Shell, Rust</title>
    </path>

    <path
      d="M 20,149.17783869771844 L 35.2,153.09935381677076 L 50.400000000000006,155.89396440022037 L 65.6,154.6970246045814 L 80.80000000000001,150.73547052992672 L 96,148.07013608310274 L 111.2,149.43315120371963 L 126.4,153.4273424812824 L 141.60000000000002,155.95842089065113 L 156.79999999999998,154.43187709736782 L 172,150.41251134881807 L 187.2,148.0204180342601 L 202.4,149.70763831154295 L 217.6,153.74466876327196 L 232.8,155.99330760489067 L 248,154.14856323961192 L 263.20000000000005,150.1014108571763 L 278.40000000000003,148.00042783682898 L 293.59999999999997,149.999249576688 L 308.8,154.04896220558047 L 324,155.99836393590388 L 339.2,153.84919941246594 L 354.4,149.8044930049211 L 369.6,148.0103148194635 L 384.8,150.3058066355892 L 400,154.3379497075868 L 415.2,155.9735521124227 L 430.40000000000003,153.53602189186233 L 445.6,149.5239757963226 L 460.79999999999995,148.0500051254739 L 476,150.62501947819663 L 491.2,154.60947250548276 L 506.40000000000003,155.91905748110116 L 521.6,153.21137014332245 L 536.8000000000001,149.26195472130092 L 552,148.1192022645429 L 567.1999999999999,150.95450355456626 L 582.4,154.86150229844168 L 597.6,155.83528712195837 L 612.8000000000001,152.87766934592892 L 628,149.02038710191957 L 643.1999999999999,148.21738932753632 L 658.4,151.29179758767216 L 673.6,155.09215640021642 L 688.8,155.72286680745253 L 704,152.5374122760101 L 719.2,148.8010774710054 L 734.4,148.3438328478629 L 749.6,151.63438195937755 L 764.8,155.29971180298253 L 780,155.5826363279018"
      stroke="url(#thread-11)"
      stroke-width="8"
      stroke-linecap="round"
      fill="none"
      opacity="0.7461538461538462"
      class="thread"
      style="animation-delay: 1.1s"
    >
      <title>2026-01-06: 4224 stars, TypeScript, Python, Rust, JavaScript, Go</title>
    </path>

    <path
      d="M 20,162.88233800720428 L 35.2,166.46134060862747 L 50.400000000000006,167.99711065655555 L 65.6,166.21475943968613 L 80.80000000000001,162.59387008247754 L 96,160.14025128175132 L 111.2,160.8907254870046 L 126.4,164.22230158463168 L 141.60000000000002,167.36933847918343 L 156.79999999999998,167.71938659441702 L 172,164.98186050634527 L 187.2,161.4292626063821 L 202.4,160.0107108074404 L 217.6,161.90378744178946 L 232.8,165.5369928998243 L 248,167.8942945205747 L 263.20000000000005,167.01882563022838 L 278.40000000000003,163.63733917393145 L 293.59999999999997,160.55690833062178 L 308.8,160.33469099863277 L 324,163.1551564403978 L 339.2,166.67695182306542 L 354.4,167.97652932582926 L 369.6,165.97507074281825 L 384.8,162.33404678513435 L 400,160.07598048446135 L 415.2,161.0753603034335 L 430.40000000000003,164.50257112406493 L 445.6,167.5125826031925 L 460.79999999999995,167.6066940656679 L 476,164.7067807679621 L 491.2,161.2201475875133 L 506.40000000000003,160.04115314799927 L 521.6,162.14851604316559 L 536.8000000000001,165.7928512206799 L 552,167.94888690610998 L 567.1999999999999,166.82683330623237 L 582.4,163.3581407184989 L 597.6,160.42227474327453 L 612.8000000000001,160.45638565234628 L 628,163.4321569585119 L 643.1999999999999,166.87931177965194 L 658.4,167.93626366048161 L 673.6,165.72560519025114 L 688.8,162.08247017173534 L 704,160.0311340914384 L 719.2,161.274472464732 L 734.4,164.78035287141455 L 749.6,167.63843898887978 L 764.8,167.47614793468225 L 780,164.42820237333865"
      stroke="url(#thread-12)"
      stroke-width="7.528"
      stroke-linecap="round"
      fill="none"
      opacity="0.7230769230769231"
      class="thread"
      style="animation-delay: 1.2000000000000002s"
    >
      <title>2026-01-05: 3764 stars, Go, TypeScript, Python, Rust, JavaScript</title>
    </path>

    <path
      d="M 20,176.86047995235126 L 35.2,179.72634294090435 L 50.400000000000006,179.27884235906814 L 65.6,175.9158836463308 L 80.80000000000001,172.6277189250058 L 96,172.3380955189059 L 111.2,175.30453874390295 L 126.4,178.889367347571 L 141.60000000000002,179.90504848876995 L 156.79999999999998,177.44846590961635 L 172,173.70394653720857 L 187.2,172.00101593425342 L 202.4,173.8538740314108 L 217.6,177.61500941666563 L 232.8,179.94012201714773 L 248,178.76178446246573 L 263.20000000000005,175.1277427033338 L 278.40000000000003,172.26928859048508 L 293.59999999999997,172.72808237241074 L 308.8,176.09617700090254 L 324,179.37875363597465 L 339.2,179.65703372928996 L 354.4,176.6835781325527 L 369.6,173.1023033098788 L 384.8,172.09758217626367 L 400,174.56278564665394 L 415.2,178.3059213301383 L 430.40000000000003,179.99869400285542 L 445.6,178.1359358915541 L 460.79999999999995,174.37396123362845 L 476,172.0578163605558 L 491.2,173.2469547815508 L 506.40000000000003,176.88402670708533 L 521.6,179.73504594424412 L 536.8000000000001,179.26496313533485 L 552,175.89176322667285 L 567.1999999999999,172.61480453558153 L 582.4,172.34787028623663 L 597.6,175.32831120869568 L 612.8000000000001,178.90599967574238 L 628,179.89975166301056 L 643.1999999999999,177.42594972443203 L 658.4,173.68423177676144 L 673.6,172.0016324314387 L 688.8,173.87427361357044 L 704,177.63705332592065 L 719.2,179.94420940434583 L 734.4,178.74428093322746 L 749.6,175.10421192344387 L 764.8,172.26065349433426 L 780,172.74202105443823"
      stroke="url(#thread-13)"
      stroke-width="7.814"
      stroke-linecap="round"
      fill="none"
      opacity="0.7"
      class="thread"
      style="animation-delay: 1.3s"
    >
      <title>2026-01-04: 3907 stars, Python, Jupyter Notebook, TypeScript, Go, Rust</title>
    </path>

    <path
      d="M 20,190.62794639487515 L 35.2,191.96944450686868 L 50.400000000000006,189.8095858901265 L 65.6,186.05353271224212 L 80.80000000000001,184.0144140634743 L 96,185.49089013146377 L 111.2,189.18059495378762 L 126.4,191.82892381577173 L 141.60000000000002,191.0998460549978 L 156.79999999999998,187.6364645839868 L 172,184.4937494361323 L 187.2,184.4438181735767 L 202.4,187.5307140275128 L 217.6,191.0315563655542 L 232.8,191.85833177541272 L 248,189.28176047009242 L 263.20000000000005,185.5745774031466 L 278.40000000000003,184.0068044513505 L 293.59999999999997,185.96133848211272 L 308.8,189.7141294757617 L 324,191.954925840566 L 339.2,190.70717206200524 L 354.4,187.071483372465 L 369.6,184.25481808429416 L 384.8,184.74169259324228 L 400,188.10264596718002 L 415.2,191.37305766778252 L 430.40000000000003,191.66817190772835 L 445.6,188.72767512727583 L 460.79999999999995,185.14531266541323 L 476,184.08100498176864 L 491.2,186.4735536802254 L 506.40000000000003,190.21254596381058 L 521.6,191.99990176913792 L 536.8000000000001,190.259035187323 L 552,186.52552504042052 L 567.1999999999999,184.09261572372046 L 582.4,185.10632121769072 L 597.6,188.67247495919443 L 612.8000000000001,191.64545383222287 L 628,191.40286078261528 L 643.1999999999999,188.15868162252195 L 658.4,184.7745330118462 L 673.6,184.23549547974704 L 688.8,187.01704177481457 L 704,190.6656331664601 L 719.2,191.96293016223342 L 734.4,189.7646165845284 L 749.6,186.00977484748375 L 764.8,184.0104654569434 L 780,185.53023375918434"
      stroke="url(#thread-14)"
      stroke-width="7.78"
      stroke-linecap="round"
      fill="none"
      opacity="0.676923076923077"
      class="thread"
      style="animation-delay: 1.4000000000000001s"
    >
      <title>2026-01-03: 3890 stars, Go, Python, Jupyter Notebook, TypeScript, Rust, JavaScript</title>
    </path>

    <path
      d="M 20,203.75199990709896 L 35.2,203.812966399857 L 50.400000000000006,202.2677908559541 L 65.6,199.7673500822711 L 80.80000000000001,197.3649088117319 L 96,196.07245128719978 L 111.2,196.43440149332548 L 126.4,198.29829455623596 L 141.60000000000002,200.8789997702702 L 156.79999999999998,203.0894424817817 L 172,203.99851431312442 L 187.2,203.2232854585916 L 202.4,201.09030682913388 L 217.6,198.49805648115378 L 232.8,196.53847224384276 L 248,196.03699297185253 L 263.20000000000005,197.20485759435064 L 278.40000000000003,199.55012459740357 L 293.59999999999997,202.08489334780913 L 308.8,203.74143908318982 L 324,203.82197234981578 L 339.2,202.2925699888356 L 354.4,199.79746464363967 L 369.6,197.3876735959347 L 384.8,196.07827704717053 L 400,196.42083423471877 L 415.2,198.27104923745563 L 430.40000000000003,200.8495529812482 L 445.6,203.0701981413395 L 460.79999999999995,203.99757874607863 L 476,203.2410527553702 L 491.2,201.11929284242444 L 506.40000000000003,198.52605138544538 L 521.6,196.55368370007972 L 536.8000000000001,196.03301343358967 L 552,197.18336336896132 L 567.1999999999999,199.52016973239907 L 582.4,202.05909577968322 L 597.6,203.73066556351213 L 612.8000000000001,203.83076102579838 L 628,202.3172187922035 L 643.1999999999999,199.8275907188703 L 658.4,197.4105868873723 L 673.6,196.08432575180478 L 688.8,196.4074704468612 L 704,198.24390220719556 L 719.2,200.82005789628434 L 734.4,203.05077926427143 L 749.6,203.99641592206973 L 764.8,203.2586358026685 L 780,201.14821522542567"
      stroke="url(#thread-15)"
      stroke-width="5.26"
      stroke-linecap="round"
      fill="none"
      opacity="0.653846153846154"
      class="thread"
      style="animation-delay: 1.5s"
    >
      <title>2026-01-02: 2630 stars, TypeScript, Rust, Python, JavaScript, Jupyter Notebook, Shell</title>
    </path>

    <path
      d="M 20,215.95743298649353 L 35.2,213.90142597861373 L 50.400000000000006,210.3178430740867 L 65.6,208.08567873820508 L 80.80000000000001,208.99821889174626 L 96,212.32234304569252 L 111.2,215.3875018375421 L 126.4,215.73119462699162 L 141.60000000000002,213.0773040016781 L 156.79999999999998,209.55792418833693 L 172,208.00046989281242 L 187.2,209.6561755406 L 202.4,213.19487310625442 L 217.6,215.77362830381466 L 232.8,215.32070953423167 L 248,212.19998465422765 L 263.20000000000005,208.91859523038468 L 278.40000000000003,208.11275821132688 L 293.59999999999997,210.42987045645563 L 308.8,214.008400223123 L 324,215.97341265797166 L 339.2,214.7462474997826 L 354.4,211.31279004618997 L 369.6,208.4314263228732 L 384.8,208.4169988862706 L 400,211.2810985133319 L 415.2,214.72275235257385 L 430.40000000000003,215.97698953026176 L 445.6,214.03617551164936 L 460.79999999999995,210.45952992876715 L 476,208.12047391118446 L 491.2,208.89816848518117 L 506.40000000000003,212.1678259916253 L 521.6,215.30265472086685 L 536.8000000000001,215.78418229440283 L 552,213.22555698980074 L 567.1999999999999,209.68233836489907 L 582.4,208.0010928539576 L 597.6,209.5325068090861 L 612.8000000000001,213.0462662070434 L 628,215.7194716958124 L 643.1999999999999,215.4045117894041 L 658.4,212.3544203512721 L 673.6,209.01959314536688 L 688.8,208.07917819875934 L 704,210.28869017330962 L 719.2,213.87304170109547 L 734.4,215.95262081691783 L 749.6,214.85672617966154 L 764.8,211.4657824032567 L 780,208.50402068996053"
      stroke="url(#thread-16)"
      stroke-width="7.396"
      stroke-linecap="round"
      fill="none"
      opacity="0.6307692307692307"
      class="thread"
      style="animation-delay: 1.6s"
    >
      <title>2026-01-01: 3698 stars, Rust, Python, JavaScript, TypeScript, Jupyter Notebook, Go, Shell</title>
    </path>

    <path
      d="M 20,227.19394845049396 L 35.2,223.97645034832678 L 50.400000000000006,220.77791911461583 L 65.6,220.17444895257202 L 80.80000000000001,222.65207419253642 L 96,226.21531767576448 L 111.2,227.9943462785312 L 126.4,226.55633195068916 L 141.60000000000002,223.05945014947474 L 156.79999999999998,220.3200863590999 L 172,220.5445217333938 L 187.2,223.55199622204944 L 202.4,226.92029255394095 L 217.6,227.9365878671777 L 232.8,225.78235882280143 L 248,222.19261957203162 L 263.20000000000005,220.05854290614275 L 278.40000000000003,221.09891226869235 L 293.59999999999997,224.47581510287446 L 308.8,227.4694968775289 L 324,227.66884896108613 L 339.2,224.91331336322938 L 354.4,221.42219599711194 L 369.6,220.00723967605927 L 384.8,221.80804895920255 L 400,225.37425365584286 L 415.2,227.83363568361375 L 430.40000000000003,227.2054109506022 L 445.6,223.99555109653085 L 460.79999999999995,220.78927438534606 L 476,220.1689132209088 L 491.2,222.6341059318246 L 506.40000000000003,226.19938850715747 L 521.6,227.9932855402196 L 536.8000000000001,226.57099396036315 L 552,223.07802613761837 L 567.1999999999999,220.32761524142816 L 582.4,220.53493975479367 L 597.6,223.53302069954034 L 612.8000000000001,226.90720635642953 L 628,227.93993060646952 L 643.1999999999999,225.79943825965185 L 658.4,222.20967994323263 L 673.6,220.06184380394333 L 688.8,221.0857951529476 L 704,224.45684448690753 L 719.2,227.45995167852172 L 734.4,227.67641687380674 L 749.6,224.93189919752163 L 764.8,221.43683073861152 L 780,220.00613651701354"
      stroke="url(#thread-17)"
      stroke-width="7.406"
      stroke-linecap="round"
      fill="none"
      opacity="0.6076923076923078"
      class="thread"
      style="animation-delay: 1.7000000000000002s"
    >
      <title>2025-12-31: 3703 stars, Go, Python, TypeScript, Rust, Shell</title>
    </path>

    <path
      d="M 20,237.64847394096702 L 35.2,233.54848125178603 L 50.400000000000006,232.05997167636886 L 65.6,234.76858172013067 L 80.80000000000001,238.7889614765254 L 96,239.83839687192346 L 111.2,236.79897566679387 L 126.4,232.90844473074318 L 141.60000000000002,232.31119653495858 L 156.79999999999998,235.6434503941623 L 172,239.35551912345122 L 187.2,239.49311731883597 L 202.4,235.9096683473647 L 217.6,232.42244527082784 L 232.8,232.7462164078191 L 248,236.5360841891916 L 263.20000000000005,239.7548876829059 L 278.40000000000003,238.97379283395708 L 293.59999999999997,235.0248618118733 L 308.8,232.11469784540938 L 324,233.34335638478012 L 339.2,237.40200753403388 L 354.4,239.96716857509793 L 369.6,238.3062988134726 L 384.8,234.18864163748827 L 400,232.00053600179726 L 415.2,234.07286390471253 L 430.40000000000003,238.19807570844827 L 445.6,239.98178488261237 L 460.79999999999995,237.52389321600876 L 476,233.4426725809094 L 491.2,232.08564786566006 L 506.40000000000003,234.89839117996445 L 521.6,238.8846245332873 L 536.8000000000001,239.79800834641517 L 552,236.6655594814029 L 567.1999999999999,232.82412262755497 L 582.4,232.3657927295756 L 597.6,235.77880622864154 L 612.8000000000001,239.42744664232652 L 628,239.42499565143498 L 643.1999999999999,235.77406417678077 L 658.4,232.36381109284298 L 673.6,232.82701234671686 L 688.8,236.6702422798602 L 704,239.7994958678254 L 719.2,238.88133219378915 L 734.4,234.89382614792464 L 749.6,232.08467304661195 L 764.8,233.44632640194433 L 780,237.5282834401449"
      stroke="url(#thread-18)"
      stroke-width="8"
      stroke-linecap="round"
      fill="none"
      opacity="0.5846153846153846"
      class="thread"
      style="animation-delay: 1.8s"
    >
      <title>2025-12-30: 4315 stars, Go, Shell, Rust, Python, Swift, TypeScript</title>
    </path>

    <path
      d="M 20,247.69939551815276 L 35.2,244.8689978985853 L 50.400000000000006,244.04619679758315 L 65.6,245.75857174794106 L 80.80000000000001,248.9081490410934 L 96,251.47542175756922 L 111.2,251.81425629513436 L 126.4,249.7073921678638 L 141.60000000000002,246.50574928893406 L 156.79999999999998,244.2622189976785 L 172,244.41535146306234 L 187.2,246.86695824750993 L 202.4,250.04507066945308 L 217.6,251.9118851033307 L 232.8,251.27040134381974 L 248,248.53193836184283 L 263.20000000000005,245.45239684694366 L 278.40000000000003,244.00637682295982 L 293.59999999999997,245.1210653922615 L 308.8,248.08172496652085 L 324,250.98998254520407 L 339.2,251.9810652533848 L 354.4,250.4194915007904 L 369.6,247.30654136569837 L 384.8,244.63823645756545 L 400,244.1254921544484 L 415.2,246.0970797712521 L 430.40000000000003,249.28881860565343 L 445.6,251.65416778525284 L 460.79999999999995,251.67646694881668 L 476,249.34141788711744 L 491.2,246.14625254542548 L 506.40000000000003,244.13970887039468 L 521.6,244.60838136623218 L 536.8000000000001,247.2517575323026 L 552,250.37490628380607 L 567.1999999999999,251.97526666505144 L 582.4,251.0266886366036 L 597.6,248.13739981563313 L 612.8000000000001,245.16001032191252 L 628,244.00362036949335 L 643.1999999999999,245.40970644653623 L 658.4,248.47668707157268 L 673.6,251.23801625520576 L 688.8,251.9231315142069 L 704,250.09273738845323 L 719.2,246.92048140529874 L 734.4,244.44041204554816 L 749.6,244.24274817561047 L 764.8,246.45423174080526 L 780,249.65686091215153"
      stroke="url(#thread-19)"
      stroke-width="6.556"
      stroke-linecap="round"
      fill="none"
      opacity="0.5615384615384615"
      class="thread"
      style="animation-delay: 1.9000000000000001s"
    >
      <title>2025-12-29: 3278 stars, Shell, Go, JavaScript, TypeScript, Rust, Python</title>
    </path>

    <path
      d="M 20,257.8239155564425 L 35.2,256.0034917581434 L 50.400000000000006,257.55134037852656 L 65.6,261.16292868531116 L 80.80000000000001,263.79439625204486 L 96,263.22793215747 L 111.2,259.94095450520683 L 126.4,256.70374062159465 L 141.60000000000002,256.2446267385839 L 156.79999999999998,258.9505557912555 L 172,262.54096043345265 L 187.2,263.9898339121896 L 202.4,262.07606012279325 L 217.6,258.41257492835246 L 232.8,256.0869776505574 L 248,257.05929056228115 L 263.20000000000005,260.5100446258804 L 278.40000000000003,263.530931129679 L 293.59999999999997,263.57593538411703 L 308.8,260.6071276315727 L 324,257.1266303910327 L 339.2,256.0678200373608 L 354.4,258.32306598281957 L 369.6,261.991638326273 L 384.8,263.98165027740265 L 400,262.61591215907083 L 415.2,259.0454732765037 L 430.40000000000003,256.2795131641728 L 445.6,256.6491935747213 L 460.79999999999995,259.8429464454248 L 476,263.1690646520961 L 491.2,263.82428305956734 L 506.40000000000003,261.25638109013914 L 521.6,257.6295963367476 L 536.8000000000001,256.00059684911776 L 552,257.74230962055975 L 567.1999999999999,261.38681247143865 L 582.4,263.86250447175837 L 597.6,263.082862942923 L 612.8000000000001,259.7049727447939 L 628,256.5757326447836 L 643.1999999999999,256.33247815740685 L 658.4,259.18022509420894 L 673.6,262.71888145433826 L 688.8,263.9660541346892 L 704,261.8706212342573 L 719.2,258.198621609113 L 734.4,256.0448305756807 L 749.6,257.22447144753613 L 764.8,260.7433383899441 L 780,263.63571689667873"
      stroke="url(#thread-20)"
      stroke-width="7.59"
      stroke-linecap="round"
      fill="none"
      opacity="0.5384615384615384"
      class="thread"
      style="animation-delay: 2s"
    >
      <title>2025-12-28: 3795 stars, Shell, Rust, Python, JavaScript, TypeScript</title>
    </path>

    <path
      d="M 20,268.48121696011333 L 35.2,269.38289917316587 L 50.400000000000006,274.3885345882195 L 65.6,275.648638279426 L 80.80000000000001,271.1872043835967 L 96,268.00033933062923 L 111.2,271.0854604551444 L 126.4,275.6046980855976 L 141.60000000000002,274.4713020463993 L 156.79999999999998,269.46258418450265 L 172,268.4328631018075 L 187.2,272.99687487999813 L 202.4,275.9976576783134 L 217.6,272.7295952486575 L 232.8,268.3174329332839 L 248,269.6800129396707 L 263.20000000000005,274.6806332642661 L 278.40000000000003,275.4776732928805 L 293.59999999999997,270.8212709858034 L 308.8,268.01326850440495 L 324,271.4569775807373 L 339.2,275.75221617150083 L 354.4,274.1634936195601 L 369.6,269.18213274185666 L 384.8,268.6195528443498 L 400,273.357952101478 L 415.2,275.9669065096027 L 430.40000000000003,272.35523750681483 L 445.6,268.1865100641627 L 460.79999999999995,269.99782896611794 L 476,274.9488114764462 L 491.2,275.2756755054478 L 506.40000000000003,270.46585590290545 L 521.6,268.0617730282134 L 536.8000000000001,271.8333403330454 L 552,275.8662515902501 L 567.1999999999999,273.836379392244 L 582.4,268.9268263620686 L 597.6,268.8364077964032 L 612.8000000000001,273.70691172201316 L 628,275.9007568978863 L 643.1999999999999,271.9777098252199 L 658.4,268.08961663481284 L 673.6,270.3335112410031 L 688.8,275.1906761531974 L 704,275.0444474317948 L 719.2,270.1241306592442 L 734.4,268.1454200749593 L 749.6,272.2111902625046 L 764.8,275.9457867538933 L 780,273.49287834787134"
      stroke="url(#thread-21)"
      stroke-width="8"
      stroke-linecap="round"
      fill="none"
      opacity="0.5153846153846153"
      class="thread"
      style="animation-delay: 2.1s"
    >
      <title>2025-12-27: 5384 stars, Shell, Python, Rust, C, Go</title>
    </path>

    <path
      d="M 20,280.0000391737972 L 35.2,281.70665365455375 L 50.400000000000006,285.3536362153301 L 65.6,287.8553262173088 L 80.80000000000001,287.0950789436626 L 96,283.71612891744303 L 111.2,280.5773582206684 L 126.4,280.3344365835632 L 141.60000000000002,283.19289658585376 L 156.79999999999998,286.73423543249936 L 172,287.96217614500995 L 187.2,285.8377753612355 L 202.4,282.15845869819634 L 217.6,280.0372442237573 L 232.8,281.26886166343496 L 248,284.8112568279477 L 263.20000000000005,287.66725900311826 L 278.40000000000003,287.42044492685557 L 293.59999999999997,284.27964051689787 L 308.8,280.9022361995838 L 324,280.1458062543716 L 339.2,282.6503554164272 L 354.4,286.29681987380496 L 369.6,287.9999773476843 L 384.8,286.31881025948434 L 400,282.675730431824 L 415.2,280.15309645593504 L 430.40000000000003,280.8852734503298 L 445.6,284.2527767603379 L 460.79999999999995,287.40640920949477 L 476,287.67792674796084 L 491.2,284.8376022061565 L 506.40000000000003,281.288594221135 L 521.6,280.0336685214768 L 536.8000000000001,282.1346000873318 L 552,285.81382027679575 L 567.1999999999999,287.95839264693865 L 582.4,286.7538246852883 L 597.6,283.2192843983004 L 612.8000000000001,280.3452965987809 L 628,280.5635019325605 L 643.1999999999999,283.68927993644695 L 658.4,287.0779538148869 L 673.6,287.8624142712938 L 688.8,285.378940349314 L 704,281.7287643967521 L 719.2,280.0002489362905 L 734.4,281.65586658222054 L 749.6,285.29482253559746 L 764.8,287.83824735720606 L 780,287.1341850864567"
      stroke="url(#thread-22)"
      stroke-width="7.606"
      stroke-linecap="round"
      fill="none"
      opacity="0.49230769230769234"
      class="thread"
      style="animation-delay: 2.2s"
    >
      <title>2025-12-26: 3803 stars, Python, Shell, Go, TypeScript</title>
    </path>

    <path
      d="M 20,292.49819130124627 L 35.2,295.2683030033032 L 50.400000000000006,298.572127088065 L 65.6,299.9997974056413 L 80.80000000000001,298.50994665460735 L 96,295.1892976147459 L 111.2,292.45998884777316 L 126.4,292.3128251427404 L 141.60000000000002,294.85515023894857 L 156.79999999999998,298.2325484549978 L 172,299.98148740334443 L 187.2,298.82626091389153 L 202.4,295.60951107077113 L 217.6,292.67759057337645 L 232.8,292.16909269410047 L 248,294.45492453789774 L 263.20000000000005,297.86776101620933 L 278.40000000000003,299.9182204630658 L 293.59999999999997,299.1106624672559 L 308.8,296.0341337298894 L 324,292.9327072624623 L 339.2,292.0686169092944 L 354.4,294.0721450459366 L 369.6,297.4818837665879 L 384.8,299.8107109630319 L 400,299.35993999649173 L 415.2,296.4583709682284 L 430.40000000000003,293.2224582666682 L 445.6,292.01253230996423 L 460.79999999999995,293.71113391509977 L 476,297.07927383647746 L 491.2,299.66017284603254 L 506.40000000000003,299.5712787860701 L 521.6,296.87743251389185 L 536.8000000000001,293.54357186449727 L 552,292.0014721749824 L 567.1999999999999,293.37596750011994 L 582.4,296.6644772931704 L 597.6,299.46830591219356 L 612.8000000000001,299.7422925054834 L 628,297.2865865362822 L 643.1999999999999,293.89242220394004 L 658.4,292.035561389788 L 673.6,293.07043033029606 L 688.8,296.24217780901915 L 704,299.2372766256958 L 719.2,299.8710501544801 L 734.4,297.68121307553366 L 749.6,294.2650702437572 L 764.8,292.11441503624343 L 780,292.79797237650683"
      stroke="url(#thread-23)"
      stroke-width="7.022"
      stroke-linecap="round"
      fill="none"
      opacity="0.4692307692307693"
      class="thread"
      style="animation-delay: 2.3000000000000003s"
    >
      <title>2025-12-25: 3511 stars, Python, TypeScript</title>
    </path>

    <path
      d="M 20,305.8537083279983 L 35.2,308.63515198219363 L 50.400000000000006,311.0964109419268 L 65.6,311.99674681684803 L 80.80000000000001,310.8822937998643 L 96,308.31485569343414 L 111.2,305.58869656144134 L 126.4,304.0780928813327 L 141.60000000000002,304.5445508615884 L 156.79999999999998,306.7529256706175 L 172,309.5899596420504 L 187.2,311.62548349233265 L 202.4,311.83337496987 L 217.6,310.108834481679 L 232.8,307.3212153239455 L 248,304.8757764162956 L 263.20000000000005,304.0052811467416 L 278.40000000000003,305.14855245802283 L 293.59999999999997,307.72925903770965 L 308.8,310.4464480888672 L 324,311.93036501648334 L 339.2,311.432956596454 L 354.4,309.2049700002514 L 369.6,306.3695493375848 L 384.8,304.3560506114255 L 400,304.1794930494687 L 415.2,305.9288805918972 L 430.40000000000003,308.7223343633057 L 445.6,311.15165417323965 L 460.79999999999995,311.9922023870842 L 476,310.8202525888388 L 491.2,308.22659312301937 L 506.40000000000003,305.5187064298667 L 521.6,304.06165771864113 L 536.8000000000001,304.5899557518108 L 552,306.8372816811668 L 567.1999999999999,309.6707422996966 L 582.4,311.66196967681253 L 597.6,311.8071717324764 L 612.8000000000001,310.03315106334003 L 628,307.23420428161774 L 643.1999999999999,304.8213006438747 L 658.4,304.0108022739432 L 673.6,305.2112872448104 L 688.8,307.8175824256675 L 704,310.51583562120396 L 719.2,311.9458379377773 L 734.4,311.3867148955018 L 749.6,309.1203244519635 L 764.8,306.28917037325306 L 780,304.3204578466022"
      stroke="url(#thread-24)"
      stroke-width="5.776"
      stroke-linecap="round"
      fill="none"
      opacity="0.4461538461538461"
      class="thread"
      style="animation-delay: 2.4000000000000004s"
    >
      <title>2025-12-24: 2888 stars, Python, TypeScript</title>
    </path>

    <path
      d="M 20,319.7347124105952 L 35.2,322.4507700003438 L 50.400000000000006,323.93137675980927 L 65.6,323.4301481445227 L 80.80000000000001,321.1997571139339 L 96,318.36455987046514 L 111.2,316.35379978985895 L 126.4,316.18111552883823 L 141.60000000000002,317.9335584686525 L 156.79999999999998,320.7277094860411 L 172,323.15501690382285 L 187.2,323.99185754877874 L 202.4,322.8163740171212 L 217.6,320.2211360338618 L 232.8,317.514421781266 L 248,316.0607054328545 L 263.20000000000005,316.59281588297046 L 278.40000000000003,318.8425124165301 L 293.59999999999997,321.67570678784676 L 308.8,323.6641652834729 L 324,323.8054916364964 L 339.2,322.0284422132188 L 354.4,319.22884044265805 L 369.6,316.81798576597606 L 384.8,316.0112074109588 L 400,317.2152081642491 L 415.2,319.8230425637655 L 430.40000000000003,322.52008248297165 L 445.6,323.94673064957243 L 460.79999999999995,323.3838034348709 L 476,321.1150765072058 L 491.2,318.2842314711652 L 506.40000000000003,316.31831772334226 L 521.6,316.2083665607058 L 536.8000000000001,318.009805157226 L 552,320.8145153257768 L 567.1999999999999,323.2086224449316 L 582.4,323.98523985142475 L 597.6,322.75286911026245 L 612.8000000000001,320.1327571989955 L 628,317.44572142636974 L 643.1999999999999,316.04631590224693 L 658.4,316.63999104279725 L 673.6,318.9274709285308 L 688.8,321.7556204534649 L 704,323.6987490475932 L 719.2,323.7773115742337 L 734.4,321.9517040971731 L 749.6,319.1422285105056 L 764.8,316.76516171729503 L 780,316.0188002296166"
      stroke="url(#thread-25)"
      stroke-width="5.776"
      stroke-linecap="round"
      fill="none"
      opacity="0.4230769230769231"
      class="thread"
      style="animation-delay: 2.5s"
    >
      <title>2025-12-23: 2888 stars, Python, TypeScript</title>
    </path>
  </g>

  <!-- Date markers -->
  <g id="dates">
    <text x="785" y="24" class="date-label">01-17</text>
<text x="785" y="108" class="date-label">01-10</text>
<text x="785" y="192" class="date-label">01-03</text>
<text x="785" y="276" class="date-label">12-27</text>
  </g>

</svg>