<?xml version="1.0" encoding="UTF-8"?>
<svg xmlns="http://www.w3.org/2000/svg" viewBox="0 0 800 280" width="800" height="280">
  <title>The Data Tapestry - GitHub Trends Woven in Time</title>
  <desc>A living data art piece that weaves daily GitHub trending repositories into an evolving tapestry. Each thread represents one day of open source activity.</desc>

  <style>
    .thread {
      animation: breathe 8s ease-in-out infinite alternate;
    }

    @keyframes breathe {
      0% {
        opacity: 0.85;
      }
      100% {
        opacity: 1;
      }
    }

    .date-label {
      font-family: ui-monospace, monospace;
      font-size: 8px;
      fill: #666;
    }

    .title {
      font-family: system-ui, sans-serif;
      font-size: 14px;
      fill: #333;
      font-weight: 600;
    }

    .subtitle {
      font-family: system-ui, sans-serif;
      font-size: 10px;
      fill: #888;
    }

    .empty-state {
      font-family: system-ui, sans-serif;
      font-size: 12px;
      fill: #999;
      text-anchor: middle;
    }
  </style>

  <defs>
    
    <linearGradient id="thread-0" x1="0%" y1="0%" x2="100%" y2="0%">
      <stop offset="0%" stop-color="#3178c6" />
      <stop offset="50%" stop-color="#89e051" />
      <stop offset="100%" stop-color="#3572A5" />
    </linearGradient>

    <linearGradient id="thread-1" x1="0%" y1="0%" x2="100%" y2="0%">
      <stop offset="0%" stop-color="#3572A5" />
      <stop offset="50%" stop-color="#3178c6" />
      <stop offset="100%" stop-color="#89e051" />
    </linearGradient>

    <linearGradient id="thread-2" x1="0%" y1="0%" x2="100%" y2="0%">
      <stop offset="0%" stop-color="#3572A5" />
      <stop offset="50%" stop-color="#3178c6" />
      <stop offset="100%" stop-color="#8b8b8b" />
    </linearGradient>

    <linearGradient id="thread-3" x1="0%" y1="0%" x2="100%" y2="0%">
      <stop offset="0%" stop-color="#3572A5" />
      <stop offset="50%" stop-color="#3178c6" />
      <stop offset="100%" stop-color="#8b8b8b" />
    </linearGradient>

    <linearGradient id="thread-4" x1="0%" y1="0%" x2="100%" y2="0%">
      <stop offset="0%" stop-color="#3178c6" />
      <stop offset="50%" stop-color="#3572A5" />
      <stop offset="100%" stop-color="#dea584" />
    </linearGradient>

    <linearGradient id="thread-5" x1="0%" y1="0%" x2="100%" y2="0%">
      <stop offset="0%" stop-color="#3572A5" />
      <stop offset="50%" stop-color="#3178c6" />
      <stop offset="100%" stop-color="#00ADD8" />
    </linearGradient>

    <linearGradient id="thread-6" x1="0%" y1="0%" x2="100%" y2="0%">
      <stop offset="0%" stop-color="#3572A5" />
      <stop offset="50%" stop-color="#00ADD8" />
      <stop offset="100%" stop-color="#3178c6" />
    </linearGradient>

    <linearGradient id="thread-7" x1="0%" y1="0%" x2="100%" y2="0%">
      <stop offset="0%" stop-color="#3572A5" />
      <stop offset="50%" stop-color="#3178c6" />
      <stop offset="100%" stop-color="#00ADD8" />
    </linearGradient>

    <linearGradient id="thread-8" x1="0%" y1="0%" x2="100%" y2="0%">
      <stop offset="0%" stop-color="#3572A5" />
      <stop offset="50%" stop-color="#00ADD8" />
      <stop offset="100%" stop-color="#DA5B0B" />
    </linearGradient>

    <linearGradient id="thread-9" x1="0%" y1="0%" x2="100%" y2="0%">
      <stop offset="0%" stop-color="#3572A5" />
      <stop offset="50%" stop-color="#3178c6" />
      <stop offset="100%" stop-color="#dea584" />
    </linearGradient>

    <linearGradient id="thread-10" x1="0%" y1="0%" x2="100%" y2="0%">
      <stop offset="0%" stop-color="#dea584" />
      <stop offset="50%" stop-color="#3572A5" />
      <stop offset="100%" stop-color="#3178c6" />
    </linearGradient>

    <linearGradient id="thread-11" x1="0%" y1="0%" x2="100%" y2="0%">
      <stop offset="0%" stop-color="#3572A5" />
      <stop offset="50%" stop-color="#3178c6" />
      <stop offset="100%" stop-color="#dea584" />
    </linearGradient>

    <linearGradient id="thread-12" x1="0%" y1="0%" x2="100%" y2="0%">
      <stop offset="0%" stop-color="#3572A5" />
      <stop offset="50%" stop-color="#dea584" />
      <stop offset="100%" stop-color="#3178c6" />
    </linearGradient>

    <linearGradient id="thread-13" x1="0%" y1="0%" x2="100%" y2="0%">
      <stop offset="0%" stop-color="#3572A5" />
      <stop offset="50%" stop-color="#3178c6" />
      <stop offset="100%" stop-color="#89e051" />
    </linearGradient>

    <linearGradient id="thread-14" x1="0%" y1="0%" x2="100%" y2="0%">
      <stop offset="0%" stop-color="#3572A5" />
      <stop offset="50%" stop-color="#f1e05a" />
      <stop offset="100%" stop-color="#89e051" />
    </linearGradient>

    <linearGradient id="thread-15" x1="0%" y1="0%" x2="100%" y2="0%">
      <stop offset="0%" stop-color="#3572A5" />
      <stop offset="50%" stop-color="#89e051" />
      <stop offset="100%" stop-color="#dea584" />
    </linearGradient>

    <linearGradient id="thread-16" x1="0%" y1="0%" x2="100%" y2="0%">
      <stop offset="0%" stop-color="#3572A5" />
      <stop offset="50%" stop-color="#89e051" />
      <stop offset="100%" stop-color="#00ADD8" />
    </linearGradient>

    <linearGradient id="thread-17" x1="0%" y1="0%" x2="100%" y2="0%">
      <stop offset="0%" stop-color="#3572A5" />
      <stop offset="50%" stop-color="#3178c6" />
      <stop offset="100%" stop-color="#3572A5" />
    </linearGradient>

    <linearGradient id="thread-18" x1="0%" y1="0%" x2="100%" y2="0%">
      <stop offset="0%" stop-color="#3572A5" />
      <stop offset="50%" stop-color="#3178c6" />
      <stop offset="100%" stop-color="#3572A5" />
    </linearGradient>

    <linearGradient id="thread-19" x1="0%" y1="0%" x2="100%" y2="0%">
      <stop offset="0%" stop-color="#3572A5" />
      <stop offset="50%" stop-color="#3178c6" />
      <stop offset="100%" stop-color="#3572A5" />
    </linearGradient>

    <!-- Background pattern -->
    <pattern id="loom" patternUnits="userSpaceOnUse" width="20" height="20">
      <rect width="20" height="20" fill="#fafafa"/>
      <circle cx="10" cy="10" r="0.5" fill="#eee"/>
    </pattern>
  </defs>

  <!-- Background -->
  <rect width="100%" height="100%" fill="url(#loom)"/>

  <!-- Threads -->
  <g id="tapestry">
    
    <path
      d="M 20,20 L 35.2,23.08077096482351 L 50.400000000000006,23.929900522270202 L 65.6,21.932298260796244 L 80.80000000000001,18.534982466757832 L 96,16.19889252399057 L 111.2,16.616239605334634 L 126.4,19.484706843158605 L 141.60000000000002,22.72644088947804 L 156.79999999999998,23.99320228992504 L 172,22.367377490365715 L 187.2,19.02667752004063 L 202.4,16.391030529573275 L 217.6,16.369640100247093 L 232.8,18.978000979432444 L 248,22.326675033027282 L 263.20000000000005,23.989957863288865 L 278.40000000000003,22.7630046834502 L 293.59999999999997,19.534592865248666 L 308.8,16.643311539725342 L 324,16.183540068438127 L 339.2,18.488326595819228 L 354.4,21.888135441223685 L 369.6,23.920221310307554 L 384.8,23.112586764581376 L 400,20.05026415953341 L 415.2,16.95153132438313 L 430.40000000000003,16.061040842616467 L 445.6,18.023844051926513 L 460.79999999999995,21.41813031905204 L 476,23.785154781522685 L 491.2,23.41029799406396 L 506.40000000000003,20.56509780816852 L 521.6,17.31055344111647 L 536.8000000000001,16.004183856371032 L 552,17.59229388864509 L 567.1999999999999,20.924492240448497 L 582.4,23.587009142984666 L 597.6,23.651177053166453 L 612.8000000000001,21.07051417568303 L 628,17.714394833270536 L 643.1999999999999,16.013916623946987 L 658.4,17.200867833046896 L 673.6,20.415447619479508 L 688.8,23.329086465864094 L 704,23.831209723849316 L 719.2,21.558090564364953 L 734.4,18.156325536823008 L 749.6,16.090076950044644 L 764.8,16.856088949193143 L 780,19.89947961822665"
      stroke="url(#thread-0)"
      stroke-width="6.996"
      stroke-linecap="round"
      fill="none"
      opacity="1"
      class="thread"
      style="animation-delay: 0s"
    >
      <title>2026-01-11: 3498 stars, TypeScript, Unknown, Shell, Python</title>
    </path>

    <path
      d="M 20,33.917702154416816 L 35.2,35.979948772662546 L 50.400000000000006,34.57790993229847 L 65.6,30.931968870526426 L 80.80000000000001,28.215679149141533 L 96,28.793393557757653 L 111.2,32.16224943674832 L 126.4,35.389877778275284 L 141.60000000000002,35.66683892166961 L 156.79999999999998,32.75205628115931 L 172,29.182657768009676 L 187.2,28.06557165477115 L 202.4,30.373148441201113 L 217.6,34.0967932527211 L 232.8,35.995316488554714 L 248,34.41617767282763 L 263.20000000000005,30.73391400411537 L 278.40000000000003,28.153695501164975 L 293.59999999999997,28.921433845354002 L 308.8,32.36886295244035 L 324,35.4952209514923 L 339.2,35.57921740055306 L 354.4,32.547738876893476 L 369.6,29.03948943613792 L 384.8,28.10817107723318 L 400,30.564435603099742 L 415.2,34.27026517343107 L 430.40000000000003,35.99997719131358 L 445.6,34.24797032029483 L 460.79999999999995,30.539252110307288 L 476,28.10201953041542 L 491.2,29.057724355015097 L 506.40000000000003,32.574487955585916 L 521.6,35.591197313159206 L 536.8000000000001,35.48200396654938 L 552,32.34195359208168 L 567.1999999999999,28.90425495020285 L 582.4,28.161200177421122 L 597.6,30.75956992126127 L 612.8000000000001,34.43765303068882 L 628,35.99391839076326 L 643.1999999999999,34.073738652088544 L 658.4,30.348504861780544 L 673.6,28.060789722867394 L 688.8,29.201899843015923 L 704,32.77857339356734 L 719.2,35.6775496570777 L 734.4,35.37545914107602 L 749.6,32.13525190887895 L 764.8,28.77731672390092 L 780,28.22451684312088"
      stroke="url(#thread-1)"
      stroke-width="7.724"
      stroke-linecap="round"
      fill="none"
      opacity="0.97"
      class="thread"
      style="animation-delay: 0.1s"
    >
      <title>2026-01-10: 3862 stars, TypeScript, Unknown, Shell, Python</title>
    </path>

    <path
      d="M 20,47.36588393923159 L 35.2,47.665054493789434 L 50.400000000000006,44.69922755919166 L 65.6,41.110496864505805 L 80.80000000000001,40.09586718203749 L 96,42.55921685010212 L 111.2,46.30608177689091 L 126.4,47.99858401300345 L 141.60000000000002,46.12896547171505 L 156.79999999999998,42.362767512186764 L 172,40.055090830018045 L 187.2,41.26171893015581 L 202.4,44.907732538147165 L 217.6,47.74509665323261 L 232.8,47.246158077547726 L 248,43.855394021353504 L 263.20000000000005,40.59345155785258 L 278.40000000000003,40.36621761755249 L 293.59999999999997,43.37612254515558 L 308.8,46.94180592763827 L 324,47.88679458822855 L 339.2,45.36924958310276 L 354.4,41.63191467896361 L 369.6,40.00417804693525 L 384.8,41.93610162350046 L 400,45.70663988603069 L 415.2,47.95682559930817 L 430.40000000000003,46.68209083223272 L 445.6,43.018027380477086 L 460.79999999999995,40.228749867810436 L 476,40.7990737562803 L 491.2,44.22092854734022 L 506.40000000000003,47.445970124962 L 521.6,47.601184548643346 L 536.8000000000001,44.548299739630956 L 552,41.00696454707497 L 567.1999999999999,40.13196167108161 L 582.4,42.70278353064862 L 597.6,46.42922491033477 L 612.8000000000001,47.991602086807234 L 628,45.998078303766505 L 643.1999999999999,42.224575353706975 L 658.4,40.03270155054128 L 673.6,41.37507791968911 L 688.8,45.05585444522396 L 704,47.79602773596062 L 719.2,47.15452660748232 L 734.4,43.70282948591383 L 749.6,40.51586539464175 L 764.8,40.43272711486891 L 780,43.527478013230365"
      stroke="url(#thread-2)"
      stroke-width="7.822"
      stroke-linecap="round"
      fill="none"
      opacity="0.9400000000000001"
      class="thread"
      style="animation-delay: 0.2s"
    >
      <title>2026-01-09: 3911 stars, TypeScript, Unknown, Python, Shell</title>
    </path>

    <path
      d="M 20,59.98997994641622 L 35.2,58.558739784192404 L 50.400000000000006,54.99715060759172 L 65.6,52.27051120895751 L 80.80000000000001,52.648960033522435 L 96,55.81740912846505 L 111.2,59.137879263457066 L 126.4,59.84582192010323 L 141.60000000000002,57.35182001498664 L 156.79999999999998,53.73232326497293 L 172,52.00084300152627 L 187.2,53.59897062656829 L 202.4,57.19614113622882 L 217.6,59.797431523040146 L 232.8,59.23706610090583 L 248,55.981592477405876 L 263.20000000000005,52.741444541909736 L 278.40000000000003,52.21429636173104 L 293.59999999999997,54.839039618240434 L 308.8,58.43037229517137 L 324,59.998231832874396 L 339.2,58.237253754093295 L 354.4,54.613588676271405 L 369.6,52.144218386560745 L 384.8,52.885084874575156 L 400,56.219359417723574 L 415.2,59.371000258832915 L 430.40000000000003,59.716022340490916 L 445.6,56.96716806185078 L 460.79999999999995,53.41307147602899 L 476,52.01279321333318 L 491.2,53.93217336239469 L 506.40000000000003,57.57317931590083 L 521.6,59.904391664847374 L 536.8000000000001,58.98489560399985 L 552,55.58024280807392 L 567.1999999999999,52.52507037964048 L 582.4,52.36304595222523 L 597.6,55.22906740852077 L 612.8000000000001,58.73694994680485 L 628,59.96610971007456 L 643.1999999999999,57.8931760115683 L 658.4,54.24402667941198 L 673.6,52.05686111594413 L 688.8,53.15266402277381 L 704,56.61909462303193 L 719.2,59.57008100808301 L 734.4,59.54869849349012 L 749.6,56.57274967847391 L 764.8,53.11994240346129 L 780,52.065006103855936"
      stroke="url(#thread-3)"
      stroke-width="7.54"
      stroke-linecap="round"
      fill="none"
      opacity="0.91"
      class="thread"
      style="animation-delay: 0.30000000000000004s"
    >
      <title>2026-01-08: 3770 stars, TypeScript, Unknown, Python, Rust, JavaScript</title>
    </path>

    <path
      d="M 20,71.63718970730272 L 35.2,68.97356902589611 L 50.400000000000006,65.57967109608491 L 65.6,64.00126963870751 L 80.80000000000001,65.42232864862335 L 96,68.77690720538592 L 111.2,71.54872517597157 L 126.4,71.65863301186774 L 141.60000000000002,69.0241884929119 L 156.79999999999998,65.62149690101441 L 172,64.00292811114446 L 187.2,65.38257576307431 L 202.4,68.7255617287824 L 217.6,71.52430151497056 L 232.8,71.67945143290888 L 248,69.07463303161089 L 263.20000000000005,65.66372894712556 L 278.40000000000003,64.0052692714484 L 293.59999999999997,65.34326992571934 L 308.8,68.67409232841598 L 324,71.49927591386168 L 339.2,71.6996414147024 L 354.4,69.12489402621746 L 369.6,65.70636002131184 L 384.8,64.00829271975623 L 400,65.30441784987731 L 415.2,68.62250779510559 L 430.40000000000003,71.47365264694238 L 445.6,71.71919950886007 L 460.79999999999995,69.17496289230476 L 476,65.74938284231385 L 491.2,64.01199793967204 L 506.40000000000003,65.26602617136604 L 521.6,68.5708169393345 L 536.8000000000001,71.44743609058968 L 552,71.7381223749182 L 567.1999999999999,69.22483107826093 L 582.4,65.79279006196306 L 597.6,64.0163842983554 L 612.8000000000001,65.2281014473688 L 628,68.5190285897455 L 643.1999999999999,71.42063072251254 L 658.4,71.75640678090815 L 673.6,69.2744900667497 L 688.8,65.83657426643681 L 704,64.02145104662947 L 719.2,65.19065015531456 L 734.4,68.46715159163311 L 749.6,71.39324112098737 L 764.8,71.77404960390827 L 780,69.32393137616502"
      stroke="url(#thread-4)"
      stroke-width="7.128"
      stroke-linecap="round"
      fill="none"
      opacity="0.88"
      class="thread"
      style="animation-delay: 0.4s"
    >
      <title>2026-01-07: 3564 stars, TypeScript, Python, Unknown, Shell, Rust</title>
    </path>

    <path
      d="M 20,82.39388857641583 L 35.2,78.36890582808121 L 50.400000000000006,76.0158938250064 L 65.6,77.74683300346395 L 80.80000000000001,81.78740541294549 L 96,83.99577854674186 L 111.2,82.10823560793654 L 126.4,78.05962292756116 L 141.60000000000002,76.00001477907873 L 156.79999999999998,78.04063480012282 L 172,82.0897233387271 L 187.2,83.99671833779763 L 202.4,81.80683392126704 L 217.6,77.76483482619048 L 232.8,76.01401599879692 L 248,78.34907323902812 L 263.20000000000005,82.3764308347099 L 278.40000000000003,83.9678022671316 L 293.59999999999997,81.49193501534208 L 308.8,77.48674361879993 L 324,76.0577928937334 L 339.2,78.66984425604437 L 354.4,82.64538616894498 L 369.6,83.90924634051008 L 384.8,81.16589121459312 L 400,77.22742667285256 L 415.2,76.13101844636748 L 430.40000000000003,79.00055166151824 L 445.6,82.8945802198007 L 460.79999999999995,83.82148797620988 L 476,80.83113809686364 L 491.2,76.98882111031342 L 506.40000000000003,76.23314565493689 L 521.6,79.33872504004046 L 536.8000000000001,83.12215148428996 L 552,83.70518273746265 L 567.1999999999999,80.49017629941387 L 582.4,76.77270933716643 L 597.6,76.36341161959245 L 612.8000000000001,79.68183820468118 L 628,83.32639998367266 L 643.1999999999999,83.5611994353359 L 658.4,80.14555283892518 L 673.6,76.58070572867405 L 688.8,76.52084324133169 L 704,80.02732806784388 L 719.2,83.50579996245669 L 734.4,83.39061363863259 L 749.6,79.79984208504602 L 764.8,76.41424456984227 L 780,76.70426449113977"
      stroke="url(#thread-5)"
      stroke-width="8"
      stroke-linecap="round"
      fill="none"
      opacity="0.85"
      class="thread"
      style="animation-delay: 0.5s"
    >
      <title>2026-01-06: 4224 stars, TypeScript, Python, Rust, JavaScript, Go</title>
    </path>

    <path
      d="M 20,92.56448003223947 L 35.2,89.118331076593 L 50.400000000000006,88.06434179688168 L 65.6,90.27746025994048 L 80.80000000000001,93.92051054927391 L 96,95.96928751460959 L 111.2,94.72304003854768 L 126.4,91.21631547462196 L 141.60000000000002,88.36015090564781 L 156.79999999999998,88.52553407912006 L 172,91.57517546970672 L 187.2,94.9774764258878 L 202.4,95.90808502900174 L 217.6,93.59447520696405 L 232.8,89.95724376295732 L 248,88.01576544948063 L 263.20000000000005,89.38171955955647 L 278.40000000000003,92.9211866776824 L 293.59999999999997,95.6959491462002 L 308.8,95.40259353910163 L 324,92.28464313149661 L 339.2,88.93040193570728 L 354.4,88.12432602396038 L 369.6,90.53556315162811 L 384.8,94.16247316530072 L 400,95.99424944091429 L 415.2,94.51027963252422 L 430.40000000000003,90.94245152123582 L 445.6,88.25252607451003 L 460.79999999999995,88.67349096579596 L 476,91.85589063143088 L 491.2,95.15791979982211 L 506.40000000000003,95.83846516637526 L 521.6,93.33258564077647 L 536.8000000000001,89.72048686538727 L 552,88.00068021179327 L 567.1999999999999,89.6008286893413 L 582.4,93.19260112424276 L 597.6,95.79435964890102 L 612.8000000000001,95.24630659237145 L 628,92.0033972104275 L 643.1999999999999,88.7576677023652 L 658.4,88.2034953386309 L 673.6,90.80091519517485 L 688.8,94.39373125939207 L 704,95.99943931573547 L 719.2,94.2850930175555 L 734.4,90.6738225696386 L 749.6,88.16345172412812 L 764.8,88.83791450255409 L 780,92.13731915317344"
      stroke="url(#thread-6)"
      stroke-width="7.528"
      stroke-linecap="round"
      fill="none"
      opacity="0.8200000000000001"
      class="thread"
      style="animation-delay: 0.6000000000000001s"
    >
      <title>2026-01-05: 3764 stars, Go, TypeScript, Python, Rust, JavaScript</title>
    </path>

    <path
      d="M 20,102.59686708924153 L 35.2,100.10574771436768 L 50.400000000000006,101.0772923674021 L 65.6,104.64762976450916 L 80.80000000000001,107.64211225431033 L 96,107.39812682688553 L 111.2,104.13261873922147 L 126.4,100.74918964797402 L 141.60000000000002,100.25629338353964 L 156.79999999999998,103.09220000115957 L 172,106.7352978765512 L 187.2,107.94624270482464 L 202.4,105.64829502764684 L 217.6,101.88472789877858 L 232.8,100.00200363187915 L 248,101.67418983102111 L 263.20000000000005,105.41442365963469 L 278.40000000000003,107.89699014488968 L 293.59999999999997,106.9144581716786 L 308.8,103.34046865239432 L 324,100.35291660688588 L 339.2,100.60825268105849 L 354.4,103.87943892918715 L 369.6,107.25782482758244 L 384.8,107.73944081681802 L 400,104.89604695790887 L 415.2,101.25591232801399 L 430.40000000000003,100.0557463941045 L 445.6,102.36270431256355 L 460.79999999999995,106.12550136626622 L 476,107.99835997160645 L 491.2,106.31598480449942 L 506.40000000000003,102.57429845683284 L 521.6,100.10030744217589 L 536.8000000000001,101.09381779862913 L 552,104.67142693172342 L 567.1999999999999,107.65202135870194 L 582.4,107.38533696027262 L 597.6,104.10850230580236 L 612.8000000000001,100.73519032945104 L 628,100.26485899610684 L 643.1999999999999,103.11571423330498 L 658.4,106.75285250769187 L 673.6,107.94222863074347 L 688.8,105.62628145467839 L 704,101.86428870186792 L 719.2,100.00131279327263 L 734.4,101.69386162576215 L 749.6,105.43696645877425 L 764.8,107.90235949985495 L 780,106.89787979695143"
      stroke="url(#thread-7)"
      stroke-width="7.814"
      stroke-linecap="round"
      fill="none"
      opacity="0.79"
      class="thread"
      style="animation-delay: 0.7000000000000001s"
    >
      <title>2026-01-04: 3907 stars, Python, Jupyter Notebook, TypeScript, Go, Rust</title>
    </path>

    <path
      d="M 20,112.9727900187683 L 35.2,112.1399178791706 L 50.400000000000006,114.71193639463844 L 65.6,118.42012652401053 L 80.80000000000001,119.99357808364742 L 96,118.04438523530371 L 111.2,114.29188666310563 L 126.4,112.04607602047284 L 141.60000000000002,113.28793180236651 L 156.79999999999998,116.92204126513228 L 172,119.7428390964452 L 187.2,119.26216367822997 L 202.4,115.90400786565648 L 217.6,112.63052453179073 L 232.8,112.32917888180235 L 248,115.2657810605205 L 263.20000000000005,118.85002106857807 L 278.40000000000003,119.92032230554642 L 293.59999999999997,117.53259639045721 L 308.8,113.79300205275173 L 324,112.00015041406422 L 339.2,113.73547513290306 L 354.4,117.46828573851501 L 369.6,119.90595488507385 L 384.8,118.89827005443857 L 400,115.33408711953658 L 415.2,112.35729079269217 L 430.40000000000003,112.59364541726293 L 445.6,115.83466795395289 L 460.79999999999995,119.22152612857683 L 476,119.76674936723629 L 491.2,116.9894086502561 L 506.40000000000003,113.3393330634348 L 521.6,112.03617127403453 L 536.8000000000001,114.22941266074604 L 552,117.9844488737572 L 567.1999999999999,119.98904786439667 L 582.4,118.47499845043305 L 597.6,114.77780918830203 L 612.8000000000001,112.15868664682493 L 628,112.92789925729376 L 643.1999999999999,116.4069420689949 L 658.4,119.5270305360729 L 673.6,119.53600557693575 L 688.8,116.42595051214343 L 704,112.94017418730549 L 719.2,112.15340062708576 L 734.4,114.75962489661231 L 749.6,118.45995583695581 L 764.8,119.99041567638993 L 780,118.00102059536763"
      stroke="url(#thread-8)"
      stroke-width="7.78"
      stroke-linecap="round"
      fill="none"
      opacity="0.76"
      class="thread"
      style="animation-delay: 0.8s"
    >
      <title>2026-01-03: 3890 stars, Go, Python, Jupyter Notebook, TypeScript, Rust, JavaScript</title>
    </path>

    <path
      d="M 20,124.08987952933961 L 35.2,124.3957829814388 L 50.400000000000006,126.21989662888014 L 65.6,128.7938461138638 L 80.80000000000001,131.0334025094763 L 96,131.9951938335777 L 111.2,131.27408316280224 L 126.4,129.17382511755795 L 141.60000000000002,126.57911480935407 L 156.79999999999998,124.58292628042706 L 172,124.02611727070625 L 187.2,125.14323334475199 L 202.4,127.46370988221467 L 217.6,130.01008877802312 L 232.8,131.70975470937313 L 248,131.84675463227137 L 263.20000000000005,130.36337984642765 L 278.40000000000003,127.88447472491477 L 293.59999999999997,125.45423250287516 L 308.8,124.09634806317813 L 324,124.3828052763364 L 339.2,126.1929393046594 L 354.4,128.76426444804002 L 369.6,131.01365723524552 L 384.8,131.9936022849108 L 400,131.2913157503321 L 415.2,129.20262293041847 L 430.40000000000003,126.60734729800747 L 445.6,124.59870102777064 L 460.79999999999995,124.02278945426605 L 476,125.12220474605827 L 491.2,127.43383841208862 L 506.40000000000003,129.98395724439823 L 521.6,131.69837054064922 L 536.8000000000001,131.85491320035118 L 552,130.38764450441272 L 567.1999999999999,127.91462443146666 L 582.4,125.4775672480783 L 597.6,124.10303851436727 L 612.8000000000001,124.37003320387817 L 628,126.16608470940335 L 643.1999999999999,128.73463933481256 L 658.4,130.99374063866318 L 673.6,131.99178370533724 L 688.8,131.30836123099817 L 704,129.23135237578649 L 719.2,126.63565895708973 L 734.4,124.61466913437599 L 749.6,124.01968773688422 L 764.8,125.10133974614557 L 780,127.40399912748566"
      stroke="url(#thread-9)"
      stroke-width="5.26"
      stroke-linecap="round"
      fill="none"
      opacity="0.73"
      class="thread"
      style="animation-delay: 0.9s"
    >
      <title>2026-01-02: 2630 stars, TypeScript, Rust, Python, JavaScript, Jupyter Notebook, Shell</title>
    </path>

    <path
      d="M 20,136.16430290134744 L 35.2,138.6142282833661 L 50.400000000000006,142.17746099177816 L 65.6,143.99135559061259 L 80.80000000000001,142.59865752491785 L 96,139.11823864160831 L 111.2,136.34621304461334 L 126.4,136.50958274951805 L 141.60000000000002,139.4770990901836 L 156.79999999999998,142.86470584465155 L 172,143.95085272190428 L 187.2,141.8629463059627 L 202.4,138.27837796063517 L 217.6,136.07693383894306 L 232.8,137.0272197219878 L 248,140.36579079193766 L 263.20000000000005,143.41049125989494 L 278.40000000000003,143.71525638304337 L 293.59999999999997,141.03524262737392 L 308.8,137.52353113403547 L 324,136.00137600049953 L 339.2,137.69165285752968 L 354.4,141.23641971080096 L 369.6,143.78786630359272 L 384.8,143.29620034287396 L 400,140.15641857279527 L 415.2,136.8909725674124 L 430.40000000000003,136.12327058228237 L 445.6,138.4700723869061 L 460.79999999999995,142.04599411082384 L 476,143.97819616143866 L 491.2,142.71437762713495 L 506.40000000000003,139.26987055473055 L 521.6,136.41193806086386 L 536.8000000000001,136.4365984186515 L 552,139.32403988228643 L 567.1999999999999,142.75453713380267 L 582.4,143.97208232757725 L 597.6,141.99851869494924 L 612.8000000000001,138.4193763957096 L 628,136.11008238230542 L 643.1999999999999,136.92588735227892 L 658.4,140.21138635034222 L 673.6,143.3270608602083 L 688.8,143.769826703686 L 704,141.18397272611426 L 719.2,137.6469335753924 L 734.4,136.00031119285896 L 749.6,137.5669762506985 L 764.8,141.0882945410099 L 780,143.73529401586492"
      stroke="url(#thread-10)"
      stroke-width="7.396"
      stroke-linecap="round"
      fill="none"
      opacity="0.7"
      class="thread"
      style="animation-delay: 1s"
    >
      <title>2026-01-01: 3698 stars, Rust, Python, JavaScript, TypeScript, Jupyter Notebook, Go, Shell</title>
    </path>

    <path
      d="M 20,149.17783869771844 L 35.2,152.5877842277095 L 50.400000000000006,155.52432886488376 L 65.6,155.62238217724382 L 80.80000000000001,152.8029721144579 L 96,149.33684902677055 L 111.2,148.01562535794932 L 126.4,149.90341347260804 L 141.60000000000002,153.4797905067122 L 156.79999999999998,155.86434558637353 L 172,155.13656017695652 L 187.2,151.88259199817344 L 202.4,148.72318411935814 L 217.6,148.20292082857836 L 232.8,150.74082171626225 L 248,154.29286367074522 L 263.20000000000005,155.99823526956416 L 278.40000000000003,154.48343174786456 L 293.59999999999997,150.9684745111358 L 308.8,148.2843069832336 L 324,148.5927552974151 L 339.2,151.64539545650987 L 354.4,154.9836337986986 L 369.6,155.9188561401919 L 384.8,153.69783524117352 L 400,150.1093793530274 L 415.2,148.0436276479154 L 430.40000000000003,149.16433470691683 L 445.6,152.56888406414797 L 460.79999999999995,155.51525470343972 L 476,155.6304423394521 L 491.2,152.8216749528639 L 506.40000000000003,149.3511312920011 L 521.6,148.01398412632452 L 536.8000000000001,149.8871705906149 L 552,153.46202797702273 L 567.1999999999999,155.85936933455918 L 582.4,155.1483780717908 L 597.6,151.90168591769594 L 612.8000000000001,148.73417583781318 L 628,148.19695762572456 L 643.1999999999999,150.7227063503601 L 658.4,154.27718624133723 L 673.6,155.9976223643145 L 688.8,154.49837700011471 L 704,150.98694102805155 L 719.2,148.29142184855922 L 734.4,148.58278820496236 L 749.6,151.62637389365162 L 764.8,154.97087771519762 L 780,155.92263927432415"
      stroke="url(#thread-11)"
      stroke-width="7.406"
      stroke-linecap="round"
      fill="none"
      opacity="0.6699999999999999"
      class="thread"
      style="animation-delay: 1.1s"
    >
      <title>2025-12-31: 3703 stars, Go, Python, TypeScript, Rust, Shell</title>
    </path>

    <path
      d="M 20,162.88233800720428 L 35.2,166.8730238750574 L 50.400000000000006,167.80321781698956 L 65.6,164.68202968637183 L 80.80000000000001,160.83430866248406 L 96,160.3588439092588 L 111.2,163.76212479176507 L 126.4,167.41880250835274 L 141.60000000000002,167.43359699383677 L 156.79999999999998,163.7907484058556 L 172,160.37080531473606 L 187.2,160.8168659586616 L 202.4,164.6537637331855 L 217.6,167.7942389529772 L 232.8,166.89289684524334 L 248,162.9098931076657 L 263.20000000000005,160.08812696763962 L 278.40000000000003,161.43348799098516 L 293.59999999999997,165.5128288289649 L 308.8,167.9806270492367 L 324,166.2080578120511 L 339.2,162.08335249816338 L 354.4,160.0003580990833 L 369.6,162.1779867496763 L 384.8,166.2965170718314 L 400,167.96867999095224 L 415.2,165.4132020699388 L 430.40000000000003,161.35230904872677 L 445.6,160.111871802023 L 460.79999999999995,163.0132675070612 L 476,166.9657811140078 L 491.2,167.75899304153887 L 506.40000000000003,164.547933388489 L 521.6,160.75318707485417 L 536.8000000000001,160.41711189467316 L 552,163.89771231298917 L 567.1999999999999,167.48727480535393 L 582.4,167.36201387494427 L 597.6,163.65536386927133 L 612.8000000000001,160.31583789087597 L 628,160.90086975783882 L 643.1999999999999,164.7872536135046 L 658.4,167.83501466874733 L 673.6,166.79752201921352 L 688.8,162.77996588092154 L 704,160.06205246512977 L 719.2,161.53904210594067 L 734.4,165.63756992128188 L 749.6,167.99167452951903 L 764.8,166.09364333945783 L 780,161.96535621877342"
      stroke="url(#thread-12)"
      stroke-width="8"
      stroke-linecap="round"
      fill="none"
      opacity="0.64"
      class="thread"
      style="animation-delay: 1.2000000000000002s"
    >
      <title>2025-12-30: 4315 stars, Go, Shell, Rust, Python, Swift, TypeScript</title>
    </path>

    <path
      d="M 20,176.86047995235126 L 35.2,179.45096461406297 L 50.400000000000006,179.82869300143219 L 65.6,177.7514659172424 L 80.80000000000001,174.5512000218513 L 96,172.2799037336395 L 111.2,172.39393076082845 L 126.4,174.82016704747312 L 141.60000000000002,178.00291145875667 L 156.79999999999998,179.9013903405544 L 172,179.29830026405523 L 187.2,176.58034219551334 L 202.4,173.49026908726495 L 217.6,172.00943381397872 L 232.8,173.08734699331762 L 248,176.0328513931678 L 263.20000000000005,178.95729150100615 L 278.40000000000003,179.98551821469823 L 293.59999999999997,178.4582332317065 L 308.8,175.35473069345804 L 324,172.66497441643543 L 339.2,172.11363438252727 L 354.4,174.05422946421194 L 369.6,177.24245135260173 L 384.8,179.63401423880086 L 400,179.69544954989004 L 415.2,177.3873650042085 L 430.40000000000003,174.18970291682876 L 445.6,172.15280214612184 L 460.79999999999995,172.58272214637128 L 476,175.20379849200154 L 491.2,178.3353987286288 L 506.40000000000003,179.9695428137771 L 521.6,179.05841861896027 L 536.8000000000001,176.18623838749443 L 552,173.194642222648 L 567.1999999999999,172.00183964679255 L 582.4,173.372654898641 L 597.6,176.42812212698436 L 612.8000000000001,179.20907772492473 L 628,179.93237476509745 L 643.1999999999999,178.1342356540339 L 658.4,174.96762602456968 L 673.6,172.4629739191822 L 688.8,172.2262606448533 L 704,174.40926659969466 L 719.2,177.61224978003057 L 734.4,179.7814594461345 L 749.6,179.52599976572944 L 764.8,177.0096713203554 L 780,173.8459422786276"
      stroke="url(#thread-13)"
      stroke-width="6.556"
      stroke-linecap="round"
      fill="none"
      opacity="0.61"
      class="thread"
      style="animation-delay: 1.3s"
    >
      <title>2025-12-29: 3278 stars, Shell, Go, JavaScript, TypeScript, Rust, Python</title>
    </path>

    <path
      d="M 20,190.62794639487515 L 35.2,191.98009409853472 L 50.400000000000006,189.9778032862295 L 65.6,186.3086123062191 L 80.80000000000001,184.06492933807613 L 96,185.13773896146765 L 111.2,188.62287312611386 L 126.4,191.5830474397945 L 141.60000000000002,191.5234156787895 L 156.79999999999998,188.49423571915347 L 172,185.04851200671916 L 187.2,184.09031365397766 L 202.4,186.42721389432404 L 217.6,190.08966427485325 L 232.8,191.99093761899434 L 248,190.5286334866893 L 263.20000000000005,186.935187388763 L 278.40000000000003,184.23916942871247 L 293.59999999999997,184.7127938459588 L 308.8,187.956888171716 L 324,191.23731731110055 L 339.2,191.78932304945215 L 354.4,189.14767284102726 L 369.6,185.53875957641336 L 384.8,184.00418914629876 L 400,185.83730337346407 L 415.2,189.49314658210497 L 430.40000000000003,191.89056014536686 L 445.6,191.00899475054314 L 460.79999999999995,187.59143708124685 L 476,184.51821780117737 L 491.2,184.37945786372268 L 506.40000000000003,187.29210467443338 L 521.6,190.80136837071626 L 536.8000000000001,191.94962809887798 L 552,189.7691261720098 L 567.1999999999999,186.09759794674943 L 582.4,184.0294214418977 L 597.6,185.30766371917122 L 612.8000000000001,188.85501730254833 L 628,191.6817590359342 L 643.1999999999999,191.40550018418668 L 658.4,188.25907276326726 L 673.6,184.8942978274333 L 688.8,184.14702055091564 L 704,186.64704907804406 L 719.2,190.28734981242758 L 734.4,191.99986338391042 L 749.6,190.34127681016656 L 764.8,186.70945319374846 L 780,184.1653073573957"
      stroke="url(#thread-14)"
      stroke-width="7.59"
      stroke-linecap="round"
      fill="none"
      opacity="0.5800000000000001"
      class="thread"
      style="animation-delay: 1.4000000000000001s"
    >
      <title>2025-12-28: 3795 stars, Shell, Rust, Python, JavaScript, TypeScript</title>
    </path>

    <path
      d="M 20,203.75199990709896 L 35.2,202.16401846548374 L 50.400000000000006,197.18257567169175 L 65.6,196.6192192867232 L 80.80000000000001,201.35736511796833 L 96,203.96698656641033 L 111.2,200.35585906449222 L 126.4,196.18669843973467 L 141.60000000000002,197.99728876227928 L 156.79999999999998,202.94838980281176 L 172,203.27603360091393 L 187.2,198.46643222738174 L 202.4,196.06166383024498 L 217.6,199.8327168491958 L 232.8,203.8660915239822 L 248,201.83693374820604 L 263.20000000000005,196.9272258382826 L 278.40000000000003,196.83602596240428 L 293.59999999999997,201.70634734298696 L 308.8,203.9008949932742 L 324,199.97833384356016 L 339.2,196.08974803449203 L 354.4,198.3329439702984 L 369.6,203.1902997660767 L 384.8,203.04485215203297 L 400,198.12468183306706 L 415.2,196.1452533903953 L 430.40000000000003,200.21056710254794 L 445.6,203.94568431410067 L 460.79999999999995,201.49345726711093 L 476,196.6992957135986 L 491.2,197.0810661632189 L 506.40000000000003,202.0401030838365 L 521.6,203.79999402678413 L 536.8000000000001,199.60100195922473 L 552,196.02769051896186 L 567.1999999999999,198.6834750489013 L 582.4,203.40374128821063 L 597.6,202.78650015474014 L 612.8000000000001,197.79966572353803 L 628,196.26324054167404 L 643.1999999999999,200.5865383734838 L 658.4,203.9900680361523 L 673.6,201.13665401317076 L 688.8,196.50081921790184 L 704,197.35215328820703 L 719.2,202.35565409196442 L 734.4,203.66518405042615 L 749.6,199.22723050903915 L 764.8,196.0010796595163 L 780,199.0457540558545"
      stroke="url(#thread-15)"
      stroke-width="8"
      stroke-linecap="round"
      fill="none"
      opacity="0.55"
      class="thread"
      style="animation-delay: 1.5s"
    >
      <title>2025-12-27: 5384 stars, Shell, Python, Rust, C, Go</title>
    </path>

    <path
      d="M 20,215.95743298649353 L 35.2,213.80790592979253 L 50.400000000000006,210.12873509956668 L 65.6,208.03281517658903 L 80.80000000000001,209.29347452222927 L 96,212.84408699913308 L 111.2,215.68052934071056 L 126.4,215.4029275849054 L 141.60000000000002,212.24615667199487 L 156.79999999999998,208.88111606184862 L 172,208.15491927522334 L 187.2,210.68199119712543 L 202.4,214.32421182535396 L 217.6,215.99994952522928 L 232.8,214.29138620321302 L 248,210.64411324994518 L 263.20000000000005,208.14403700124495 L 278.40000000000003,208.90643679999306 L 293.59999999999997,212.28625690193098 L 308.8,215.42387906621545 L 324,215.66460531980414 L 339.2,212.80476056607955 L 354.4,209.26401921878983 L 369.6,208.03815272062576 L 384.8,210.1643494701588 L 400,213.84366430900607 L 415.2,215.9630807127258 L 430.40000000000003,214.7293902781416 L 445.6,211.1864011263627 L 460.79999999999995,208.331786535836 L 476,208.58079575280595 L 491.2,211.72274558186317 L 506.40000000000003,215.09927647368286 L 521.6,215.85355314183 L 536.8000000000001,213.34739270857116 L 552,209.70122225974964 L 567.1999999999999,208.0000153176826 L 582.4,209.68313914342482 L 597.6,213.32652634625015 L 612.8000000000001,215.84755826912402 L 628,215.1132252680524 L 643.1999999999999,211.74483616462422 L 658.4,208.59233759265533 L 673.6,208.32301424444805 L 688.8,211.16473681607198 L 704,214.7131638171109 L 719.2,215.9660210813589 L 734.4,213.8632837027677 L 749.6,210.18404819599346 L 764.8,208.04126396372695 L 780,209.24791060013874"
      stroke="url(#thread-16)"
      stroke-width="7.606"
      stroke-linecap="round"
      fill="none"
      opacity="0.52"
      class="thread"
      style="animation-delay: 1.6s"
    >
      <title>2025-12-26: 3803 stars, Python, Shell, Go, TypeScript</title>
    </path>

    <path
      d="M 20,227.19394845049396 L 35.2,224.16941896984932 L 50.400000000000006,221.0213123767088 L 65.6,220.0459118025041 L 80.80000000000001,221.95469121378238 L 96,225.35535405575328 L 111.2,227.76739832231596 L 126.4,227.43143741149106 L 141.60000000000002,224.59252699389296 L 156.79999999999998,221.3214171889047 L 172,220.0041117877009 L 187.2,221.60147602220206 L 202.4,224.94836492735845 L 217.6,227.6035001320907 L 232.8,227.6301803202547 L 248,225.00894450340815 L 263.20000000000005,221.6517672007253 L 278.40000000000003,220.00743131751605 L 293.59999999999997,221.2753437478318 L 308.8,224.53066734282547 L 324,227.39891304459059 L 339.2,227.78793307258002 L 354.4,225.4139695229135 L 369.6,222.0086322672551 L 384.8,220.05583290950116 L 400,220.97997691103333 L 415.2,224.10697773159404 L 430.40000000000003,227.15594715352503 L 445.6,227.90291440433515 L 460.79999999999995,225.8030287151513 L 476,222.38798284901847 L 491.2,220.14877003740898 L 506.40000000000003,220.71871064443891 L 521.6,223.68208018203268 L 536.8000000000001,226.87734590660338 L 552,227.97382600459332 L 567.1999999999999,226.17172902089396 L 582.4,222.78553551149705 L 597.6,220.28519330229074 L 612.8000000000001,220.49449503432388 L 628,223.2607724219373 L 643.1999999999999,226.56625512791354 L 658.4,227.9998671755017 L 673.6,226.5159072631426 L 688.8,223.1968012915017 L 704,220.46356228177729 L 719.2,220.3098618097275 L 734.4,222.84781164502047 L 749.6,226.226187496871 L 764.8,227.98074387335572 L 780,226.83167715561166"
      stroke="url(#thread-17)"
      stroke-width="7.022"
      stroke-linecap="round"
      fill="none"
      opacity="0.49000000000000005"
      class="thread"
      style="animation-delay: 1.7000000000000002s"
    >
      <title>2025-12-25: 3511 stars, Python, TypeScript</title>
    </path>

    <path
      d="M 20,237.64847394096702 L 35.2,234.81388599730354 L 50.400000000000006,232.57722667576138 L 65.6,232.0660120694346 L 80.80000000000001,233.53794914786778 L 96,236.25102381531968 L 111.2,238.83755556727397 L 126.4,239.99365509544901 L 141.60000000000002,239.1365242907716 L 156.79999999999998,236.69824897286222 L 172,233.90798131248658 L 187.2,232.1723153585517 L 202.4,232.36621283475347 L 217.6,234.39192862509583 L 232.8,237.22828479172858 L 248,239.44545373738492 L 263.20000000000005,239.92574460800472 L 278.40000000000003,238.42703931221206 L 293.59999999999997,235.70484599715132 L 308.8,233.13144194335527 L 324,232.00409869179688 L 339.2,232.8911181051383 L 354.4,235.34534730059735 L 369.6,238.12959164268813 L 384.8,239.84029348068668 L 400,239.61507568176307 L 415.2,237.56747216245603 L 430.40000000000003,234.72969462262463 L 445.6,232.5322871840151 L 460.79999999999995,232.08297878248004 L 476,233.60826902330757 L 491.2,236.33924809685055 L 506.40000000000003,238.8992097583691 L 521.6,239.99765887377367 L 536.8000000000001,239.08085932280005 L 552,236.61097637036283 L 567.1999999999999,233.8330958237237 L 582.4,232.14756729842847 L 597.6,232.4040778788424 L 612.8000000000001,234.47331873161747 L 628,237.31217062106117 L 643.1999999999999,239.48954783804038 L 658.4,239.90781882586916 L 673.6,238.3561301633273 L 688.8,235.61669929481354 L 704,233.07049307586072 L 719.2,232.00107242276695 L 734.4,232.94753999861416 L 749.6,235.43277467320553 L 764.8,238.2039517254364 L 780,239.86410081963268"
      stroke="url(#thread-18)"
      stroke-width="5.776"
      stroke-linecap="round"
      fill="none"
      opacity="0.46"
      class="thread"
      style="animation-delay: 1.8s"
    >
      <title>2025-12-24: 2888 stars, Python, TypeScript</title>
    </path>

    <path
      d="M 20,247.69939551815276 L 35.2,245.12763544475698 L 50.400000000000006,244.00385505699188 L 65.6,244.89456015218872 L 80.80000000000001,247.35073986876358 L 96,250.13421629947047 L 111.2,251.8418189032516 L 126.4,251.6127328935954 L 141.60000000000002,249.5624421799655 L 156.79999999999998,246.72451309625723 L 172,244.52956615857784 L 187.2,244.08408994651788 L 202.4,245.61265223101614 L 217.6,248.34469374161557 L 232.8,250.9029726513946 L 248,251.99784211355038 L 263.20000000000005,251.07737053683513 L 278.40000000000003,248.6055742808197 L 293.59999999999997,245.82850366289682 L 308.8,244.1461000077059 L 324,244.4064751300584 L 339.2,246.47837205314687 L 354.4,249.31733259708025 L 369.6,251.4922162792136 L 384.8,251.90664855175834 L 400,250.3517111175508 L 415.2,247.6112591502142 L 430.40000000000003,245.06677424856122 L 445.6,244.0009496004264 L 460.79999999999995,244.9510750968601 L 476,247.43818562351976 L 491.2,250.2085108287458 L 506.40000000000003,251.86550979908216 L 521.6,251.57387740455204 L 536.8000000000001,249.48062763827156 L 552,246.64098280236556 L 567.1999999999999,244.4864283359969 L 582.4,244.10309068268822 L 597.6,245.68421311781526 L 612.8000000000001,248.43274041996477 L 628,250.96312015581165 L 643.1999999999999,251.99976965332004 L 658.4,251.02010642525957 L 673.6,248.51798576948988 L 688.8,245.75474475199653 L 704,244.12335309611382 L 719.2,244.4462070999417 L 734.4,246.5605537319703 L 749.6,249.40053560791645 L 764.8,251.53449738430257 L 780,251.88669354112517"
      stroke="url(#thread-19)"
      stroke-width="5.776"
      stroke-linecap="round"
      fill="none"
      opacity="0.43000000000000005"
      class="thread"
      style="animation-delay: 1.9000000000000001s"
    >
      <title>2025-12-23: 2888 stars, Python, TypeScript</title>
    </path>
  </g>

  <!-- Date markers -->
  <g id="dates">
    <text x="785" y="24" class="date-label">01-11</text>
<text x="785" y="108" class="date-label">01-04</text>
<text x="785" y="192" class="date-label">12-28</text>
  </g>

</svg>