<?xml version="1.0" encoding="UTF-8"?>
<svg xmlns="http://www.w3.org/2000/svg" viewBox="0 0 800 200" width="800" height="200">
  <title>The Data Tapestry - GitHub Trends Woven in Time</title>
  <desc>A living data art piece that weaves daily GitHub trending repositories into an evolving tapestry. Each thread represents one day of open source activity.</desc>

  <style>
    .thread {
      animation: breathe 8s ease-in-out infinite alternate;
    }

    @keyframes breathe {
      0% {
        opacity: 0.85;
      }
      100% {
        opacity: 1;
      }
    }

    .date-label {
      font-family: ui-monospace, monospace;
      font-size: 8px;
      fill: #666;
    }

    .title {
      font-family: system-ui, sans-serif;
      font-size: 14px;
      fill: #333;
      font-weight: 600;
    }

    .subtitle {
      font-family: system-ui, sans-serif;
      font-size: 10px;
      fill: #888;
    }

    .empty-state {
      font-family: system-ui, sans-serif;
      font-size: 12px;
      fill: #999;
      text-anchor: middle;
    }
  </style>

  <defs>
    
    <linearGradient id="thread-0" x1="0%" y1="0%" x2="100%" y2="0%">
      <stop offset="0%" stop-color="#dea584" />
      <stop offset="50%" stop-color="#3572A5" />
      <stop offset="100%" stop-color="#3178c6" />
    </linearGradient>

    <linearGradient id="thread-1" x1="0%" y1="0%" x2="100%" y2="0%">
      <stop offset="0%" stop-color="#3572A5" />
      <stop offset="50%" stop-color="#3178c6" />
      <stop offset="100%" stop-color="#dea584" />
    </linearGradient>

    <linearGradient id="thread-2" x1="0%" y1="0%" x2="100%" y2="0%">
      <stop offset="0%" stop-color="#3572A5" />
      <stop offset="50%" stop-color="#dea584" />
      <stop offset="100%" stop-color="#3178c6" />
    </linearGradient>

    <linearGradient id="thread-3" x1="0%" y1="0%" x2="100%" y2="0%">
      <stop offset="0%" stop-color="#3572A5" />
      <stop offset="50%" stop-color="#3178c6" />
      <stop offset="100%" stop-color="#89e051" />
    </linearGradient>

    <linearGradient id="thread-4" x1="0%" y1="0%" x2="100%" y2="0%">
      <stop offset="0%" stop-color="#3572A5" />
      <stop offset="50%" stop-color="#f1e05a" />
      <stop offset="100%" stop-color="#89e051" />
    </linearGradient>

    <linearGradient id="thread-5" x1="0%" y1="0%" x2="100%" y2="0%">
      <stop offset="0%" stop-color="#3572A5" />
      <stop offset="50%" stop-color="#89e051" />
      <stop offset="100%" stop-color="#dea584" />
    </linearGradient>

    <linearGradient id="thread-6" x1="0%" y1="0%" x2="100%" y2="0%">
      <stop offset="0%" stop-color="#3572A5" />
      <stop offset="50%" stop-color="#89e051" />
      <stop offset="100%" stop-color="#00ADD8" />
    </linearGradient>

    <linearGradient id="thread-7" x1="0%" y1="0%" x2="100%" y2="0%">
      <stop offset="0%" stop-color="#3572A5" />
      <stop offset="50%" stop-color="#3178c6" />
      <stop offset="100%" stop-color="#3572A5" />
    </linearGradient>

    <linearGradient id="thread-8" x1="0%" y1="0%" x2="100%" y2="0%">
      <stop offset="0%" stop-color="#3572A5" />
      <stop offset="50%" stop-color="#3178c6" />
      <stop offset="100%" stop-color="#3572A5" />
    </linearGradient>

    <linearGradient id="thread-9" x1="0%" y1="0%" x2="100%" y2="0%">
      <stop offset="0%" stop-color="#3572A5" />
      <stop offset="50%" stop-color="#3178c6" />
      <stop offset="100%" stop-color="#3572A5" />
    </linearGradient>

    <!-- Background pattern -->
    <pattern id="loom" patternUnits="userSpaceOnUse" width="20" height="20">
      <rect width="20" height="20" fill="#fafafa"/>
      <circle cx="10" cy="10" r="0.5" fill="#eee"/>
    </pattern>
  </defs>

  <!-- Background -->
  <rect width="100%" height="100%" fill="url(#loom)"/>

  <!-- Threads -->
  <g id="tapestry">
    
    <path
      d="M 20,20 L 35.2,23.205065375185825 L 50.400000000000006,23.835231348880345 L 65.6,21.38423243237661 L 80.80000000000001,17.82116282638039 L 96,16.008536932932422 L 111.2,17.40259004891685 L 126.4,20.883361701206887 L 141.60000000000002,23.654454376790845 L 156.79999999999998,23.489615554556156 L 172,20.52127416653046 L 187.2,17.134149264819232 L 202.4,16.04940402747055 L 217.6,18.138505814883498 L 232.8,21.723102920502903 L 248,23.92338608573861 L 263.20000000000005,22.971682223751223 L 278.40000000000003,19.632575334480578 L 293.59999999999997,16.588651675687498 L 308.8,16.285351913853553 L 324,18.966342334623057 L 339.2,22.477757159378903 L 354.4,23.998580629549483 L 369.6,22.30700695189441 L 384.8,18.762019966148927 L 400,16.21160678002102 L 415.2,16.70472946378845 L 430.40000000000003,19.845220964783547 L 445.6,23.110059522231165 L 460.79999999999995,23.87632489474615 L 476,21.528411464936717 L 491.2,17.95259616555315 L 506.40000000000003,16.021633089385947 L 521.6,17.28682777535457 L 536.8000000000001,20.731742597913964 L 552,23.58878686032755 L 567.1999999999999,23.56265588073802 L 582.4,20.67434287951034 L 597.6,17.244273354283408 L 612.8000000000001,16.028111522068137 L 628,18.002902780481794 L 643.1999999999999,21.582130714374856 L 658.4,23.890299573758853 L 673.6,23.073062592236163 L 688.8,19.786975180779436 L 704,16.672028577794368 L 719.2,16.23072217246693 L 734.4,18.817594629671007 L 749.6,22.354393070897704 L 764.8,23.999708937052656 L 780,22.431721190778422"
      stroke="url(#thread-0)"
      stroke-width="7.396"
      stroke-linecap="round"
      fill="none"
      opacity="1"
      class="thread"
      style="animation-delay: 0s"
    >
      <title>2026-01-01: 3698 stars, Rust, Python, JavaScript, TypeScript, Jupyter Notebook, Go, Shell</title>
    </path>

    <path
      d="M 20,33.917702154416816 L 35.2,35.960790875473144 L 50.400000000000006,34.81386215761928 L 65.6,31.400651367394538 L 80.80000000000001,28.47015543137678 L 96,28.38259316304613 L 111.2,31.208487135228893 L 126.4,34.67186486283461 L 141.60000000000002,35.98332501265717 L 156.79999999999998,34.086618749577255 L 172,30.509351606414707 L 187.2,28.1326513500996 L 202.4,28.87071024754929 L 217.6,32.12909632095176 L 232.8,35.28350833258656 L 248,35.793385661357846 L 263.20000000000005,33.24807356137702 L 278.40000000000003,29.697564128083346 L 293.59999999999997,28.0014344927408 L 308.8,29.525745951061857 L 324,33.04281941388132 L 339.2,35.72000705073726 L 354.4,35.40110432639655 L 369.6,32.34295521064875 L 384.8,29.00859027408867 L 400,28.08350406306664 L 415.2,30.312760186956677 L 430.40000000000003,33.90091775160728 L 445.6,35.95807785433387 L 460.79999999999995,34.82740558295641 L 476,31.419543376519425 L 491.2,28.479180416987976 L 506.40000000000003,28.37448240978078 L 521.6,31.189773036533815 L 536.8000000000001,34.657619737109776 L 552,35.98502187145768 L 567.1999999999999,34.10289094433845 L 582.4,30.52709352598729 L 597.6,28.137573668281906 L 612.8000000000001,28.85884853366696 L 628,32.11000398878743 L 643.1999999999999,35.272562329439026 L 658.4,35.7994018884006 L 673.6,33.26620655471502 L 688.8,29.71320959105299 L 704,28.00199158341882 L 719.2,29.510765989112997 L 734.4,33.024367247300184 L 749.6,35.71294403803285 L 764.8,35.41111901170227 L 780,32.36198177535038"
      stroke="url(#thread-1)"
      stroke-width="7.406"
      stroke-linecap="round"
      fill="none"
      opacity="0.9400000000000001"
      class="thread"
      style="animation-delay: 0.1s"
    >
      <title>2025-12-31: 3703 stars, Go, Python, TypeScript, Rust, Shell</title>
    </path>

    <path
      d="M 20,47.36588393923159 L 35.2,47.48376557540428 L 50.400000000000006,43.890561999967595 L 65.6,40.413937377597016 L 80.80000000000001,40.75737001162219 L 96,44.55501790098742 L 111.2,47.76143234483189 L 126.4,46.960976737509114 L 141.60000000000002,43.00633731825913 L 156.79999999999998,40.110198192361615 L 172,41.357674832787026 L 187.2,45.41989134019369 L 202.4,47.969566994712025 L 217.6,46.29065692733976 L 232.8,42.171621982467755 L 248,40.00026878461117 L 263.20000000000005,42.08963377876995 L 278.40000000000003,46.21401854647999 L 293.59999999999997,47.979917558409156 L 308.8,45.50620489878584 L 324,41.42800577055476 L 339.2,40.0896263984596 L 354.4,42.91677691936255 L 369.6,46.89783204963667 L 384.8,47.79196831801625 L 400,44.64670605532552 L 415.2,40.812539437209466 L 430.40000000000003,40.373818781552416 L 445.6,43.79789176201277 L 460.79999999999995,47.43726077112503 L 476,47.41508386388018 L 491.2,43.75498501575362 L 506.40000000000003,40.35588865616389 L 521.6,40.838686019000896 L 536.8000000000001,44.68907666852977 L 552,47.80542761909035 L 567.1999999999999,46.868042502918826 L 582.4,42.87547187311982 L 597.6,40.08080609982643 L 612.8000000000001,41.4610660526063 L 628,45.54592825874886 L 643.1999999999999,47.98398864224404 L 658.4,46.178100627536274 L 673.6,42.05198846074589 L 688.8,40.00099778502525 L 704,42.20994873280599 L 719.2,46.32575381354183 L 734.4,47.96404701913446 L 749.6,45.379634663051355 L 764.8,41.325564924846766 L 780,40.12044016930188"
      stroke="url(#thread-2)"
      stroke-width="8"
      stroke-linecap="round"
      fill="none"
      opacity="0.88"
      class="thread"
      style="animation-delay: 0.2s"
    >
      <title>2025-12-30: 4315 stars, Go, Shell, Rust, Python, Swift, TypeScript</title>
    </path>

    <path
      d="M 20,59.98997994641622 L 35.2,58.91841239469107 L 50.400000000000006,55.97556070659553 L 65.6,53.04837947759449 L 80.80000000000001,52.013775414935765 L 96,53.53513597318182 L 111.2,56.63696574821352 L 126.4,59.330373498238906 L 141.60000000000002,59.888347919246186 L 156.79999999999998,57.953116174048 L 172,54.765547603652315 L 187.2,52.36950910988048 L 202.4,52.30133902232718 L 217.6,54.60474795695796 L 232.8,57.80279159747627 L 248,59.84488643388586 L 263.20000000000005,59.421642580340375 L 278.40000000000003,56.80444372147488 L 293.59999999999997,53.67143606967214 L 308.8,52.03150210110672 L 324,52.93616641375998 L 339.2,55.80535883657318 L 354.4,58.799355047249904 L 369.6,59.998406615587385 L 384.8,58.6336824529425 L 400,55.580242808073905 L 415.2,52.795951202669364 L 430.40000000000003,52.066093609917836 L 445.6,53.858654245350316 L 460.79999999999995,57.024244391090974 L 476,59.53308969696546 L 491.2,59.77652017855668 L 506.40000000000003,57.59844836880915 L 521.6,54.39545250076165 L 536.8000000000001,52.221291449493144 L 552,52.47003587223978 L 567.1999999999999,54.98219100632061 L 582.4,58.146964607617406 L 597.6,59.935105893724064 L 612.8000000000001,59.200059830688815 L 628,56.413137477826474 L 643.1999999999999,53.36131164189124 L 658.4,52.00141107132853 L 673.6,53.20540313077957 L 688.8,56.201288891900624 L 704,59.068108345968405 L 719.2,59.96765871670842 L 734.4,58.3231488893029 L 749.6,55.189037499456376 L 764.8,52.57491473946186 L 780,52.156954429099336"
      stroke="url(#thread-3)"
      stroke-width="6.556"
      stroke-linecap="round"
      fill="none"
      opacity="0.8200000000000001"
      class="thread"
      style="animation-delay: 0.30000000000000004s"
    >
      <title>2025-12-29: 3278 stars, Shell, Go, JavaScript, TypeScript, Rust, Python</title>
    </path>

    <path
      d="M 20,71.63718970730272 L 35.2,68.74681225691323 L 50.400000000000006,65.2270185824936 L 65.6,64.04430424355063 L 80.80000000000001,66.19546540462593 L 96,69.86749521861631 L 111.2,71.96559292582235 L 126.4,70.72147376084105 L 141.60000000000002,67.18368611025444 L 156.79999999999998,64.33389092544589 L 172,64.57390647851403 L 187.2,67.70144674412629 L 202.4,71.08060883469443 L 217.6,71.86342202699788 L 232.8,69.39012837108396 L 248,65.7452292117182 L 263.20000000000005,64.00065948920401 L 278.40000000000003,65.62674923245757 L 293.59999999999997,69.25302379184853 L 308.8,71.82324511110522 L 324,71.17122084039283 L 339.2,67.84647952674415 L 354.4,64.65112585462589 L 369.6,64.27821610977489 L 384.8,67.0420400502065 L 400,70.61323629711751 L 415.2,71.98198700647316 L 430.40000000000003,69.99470384981986 L 445.6,66.3262766658828 L 460.79999999999995,64.06846990398518 L 476,65.12417173114379 L 491.2,68.60363261312051 L 506.40000000000003,71.57434962200907 L 521.6,71.53259111027975 L 536.8000000000001,68.51355131119601 L 552,65.06168850452703 L 567.1999999999999,64.08624585484509 L 582.4,66.4093301549048 L 597.6,70.07303707907167 L 612.8000000000001,71.98958043099506 L 628,70.54369014970457 L 643.1999999999999,66.9539680896653 L 658.4,64.24584572101189 L 673.6,64.70173892499227 L 688.8,67.93741916711996 L 704,71.2258427743483 L 719.2,71.79551376396782 L 734.4,69.16631124895956 L 749.6,65.55413715633124 L 764.8,64.00334561508285 L 780,65.82094966244661"
      stroke="url(#thread-4)"
      stroke-width="7.59"
      stroke-linecap="round"
      fill="none"
      opacity="0.76"
      class="thread"
      style="animation-delay: 0.4s"
    >
      <title>2025-12-28: 3795 stars, Shell, Rust, Python, JavaScript, TypeScript</title>
    </path>

    <path
      d="M 20,82.39388857641583 L 35.2,77.38795368220043 L 50.400000000000006,76.47804586489218 L 65.6,81.09101848148812 L 80.80000000000001,83.99313275260644 L 96,80.63349746557019 L 111.2,76.28045606837219 L 126.4,77.76014150831838 L 141.60000000000002,82.752215288337 L 156.79999999999998,83.42845888353605 L 172,78.72843471375282 L 187.2,76.022389673295 L 202.4,79.55375301589149 L 217.6,83.78488945111691 L 232.8,82.08082880762625 L 248,77.11375897461036 L 263.20000000000005,76.6726890482253 L 278.40000000000003,81.44927382378287 L 293.59999999999997,83.9532094569362 L 308.8,80.25800043252586 L 324,76.15821330003284 L 339.2,78.08284550479857 L 354.4,83.01382436944075 L 369.6,83.21873611262723 L 384.8,78.37625257001861 L 400,76.08001539139674 L 415.2,79.93082200311025 L 430.40000000000003,83.89010867754534 L 445.6,81.74920089265696 L 460.79999999999995,76.86531945892885 L 476,76.8970232834659 L 491.2,81.79459666143534 L 506.40000000000003,83.878009943056 L 521.6,79.88020114870143 L 536.8000000000001,76.0702524758759 L 552,78.42265710993237 L 567.1999999999999,83.24853977661678 L 582.4,82.98029115062124 L 597.6,78.03855983527775 L 612.8000000000001,76.17262084784504 L 628,80.30850829587283 L 643.1999999999999,83.96061476163605 L 658.4,81.40196409253895 L 673.6,76.6448520696904 L 688.8,77.14904673804719 L 704,82.12390552762557 L 719.2,83.76820524914125 L 734.4,79.50347088246029 L 749.6,76.0173585088337 L 764.8,78.77654403603962 L 780,83.45426704155751"
      stroke="url(#thread-5)"
      stroke-width="8"
      stroke-linecap="round"
      fill="none"
      opacity="0.7"
      class="thread"
      style="animation-delay: 0.5s"
    >
      <title>2025-12-27: 5384 stars, Shell, Python, Rust, C, Go</title>
    </path>

    <path
      d="M 20,92.56448003223947 L 35.2,89.09127822665151 L 50.400000000000006,88.07910499351219 L 65.6,90.38434586609853 L 80.80000000000001,94.0565689723101 L 96,95.98875800292153 L 111.2,94.5461150012233 L 126.4,90.94923991580907 L 141.60000000000002,88.2413981555057 L 156.79999999999998,88.71365653971017 L 172,91.96644389329158 L 187.2,95.2476225966907 L 202.4,95.78103350867788 L 217.6,93.11536516066079 L 232.8,89.50600204119775 L 248,88.00677550904231 L 263.20000000000005,89.88616004188926 L 278.40000000000003,93.55403482573239 L 293.59999999999997,95.90706260572995 L 308.8,94.95437967968847 L 324,91.50203766896084 L 339.2,88.47101458117706 L 354.4,88.42581641039104 L 369.6,91.40468469305569 L 384.8,94.88724088201306 L 400,95.92694317848692 L 415.2,93.64411409599252 L 430.40000000000003,89.97022320632321 L 445.6,88.01369790682556 L 460.79999999999995,89.42992672895035 L 476,93.0206583898456 L 491.2,95.74782534574405 L 506.40000000000003,95.30401000112316 L 521.6,92.06471827545965 L 536.8000000000001,88.77066932738828 L 552,88.20891163109694 L 567.1999999999999,90.85474047059432 L 582.4,94.46955728637785 L 597.6,95.99491642395999 L 612.8000000000001,94.14023297582868 L 628,90.47472851570775 L 643.1999999999999,88.09973480088343 L 658.4,89.02470060198866 L 673.6,92.46702536715384 L 688.8,95.51420653929645 L 704,95.58806699649894 L 719.2,92.62611444499333 L 734.4,89.13441526977489 L 749.6,88.06724702167153 L 764.8,90.32752574244995 L 780,94.00286140412553"
      stroke="url(#thread-6)"
      stroke-width="7.606"
      stroke-linecap="round"
      fill="none"
      opacity="0.64"
      class="thread"
      style="animation-delay: 0.6000000000000001s"
    >
      <title>2025-12-26: 3803 stars, Python, Shell, Go, TypeScript</title>
    </path>

    <path
      d="M 20,102.59686708924153 L 35.2,100.21580267590915 L 50.400000000000006,100.59499692098835 L 65.6,103.45785901576619 L 80.80000000000001,106.7161680752899 L 96,107.9932573924416 L 111.2,106.35759603917177 L 126.4,103.00226355809568 L 141.60000000000002,100.37469720989185 L 156.79999999999998,100.39148911226204 L 172,103.04039096261019 L 187.2,106.38924816076295 L 202.4,107.99534662885283 L 217.6,106.68717050152476 L 232.8,103.41892596120928 L 248,100.5745268257144 L 263.20000000000005,100.22872677972393 L 278.40000000000003,102.63375832838445 L 293.59999999999997,106.03535006685101 L 308.8,107.95232243593153 L 324,106.98640279640483 L 339.2,103.84214955788659 L 354.4,100.81303514862648 L 369.6,100.1085477531468 L 384.8,102.24255260271735 L 400,105.6584698314786 L 415.2,107.86467062105997 L 430.40000000000003,107.25191414438606 L 445.6,104.26715552175924 L 460.79999999999995,101.08752906351936 L 476,100.03230903319324 L 491.2,101.87119108240418 L 506.40000000000003,105.26286299526457 L 521.6,107.73338090411062 L 536.8000000000001,107.48070652588542 L 552,104.68914490087188 L 567.1999999999999,101.3949091242167 L 582.4,100.00087146885201 L 597.6,101.52386699353008 L 612.8000000000001,104.85299655011393 L 628,107.559935742031 L 643.1999999999999,107.6701965332807 L 658.4,105.10335280501539 L 673.6,101.73170455085022 L 688.8,100.0145900371674 L 704,101.20450214368637 L 719.2,104.43349850020931 L 734.4,107.34629358969109 L 749.6,107.81824454143991 L 764.8,105.50510220845248 L 780,102.09411242014679"
      stroke="url(#thread-7)"
      stroke-width="7.022"
      stroke-linecap="round"
      fill="none"
      opacity="0.5800000000000001"
      class="thread"
      style="animation-delay: 0.7000000000000001s"
    >
      <title>2025-12-25: 3511 stars, Python, TypeScript</title>
    </path>

    <path
      d="M 20,112.9727900187683 L 35.2,112.00036150835612 L 50.400000000000006,113.04417960396603 L 65.6,115.57804807637008 L 80.80000000000001,118.32462555627586 L 96,119.89934252981199 L 111.2,119.50837281494454 L 126.4,117.34880706431768 L 141.60000000000002,114.50929794598628 L 156.79999999999998,112.42126248290514 L 172,112.13729440935467 L 187.2,113.80054407897583 L 202.4,116.57255533920701 L 217.6,119.05593732410549 L 232.8,119.99879926680099 L 248,118.92583766276958 L 263.20000000000005,116.37794019399553 L 278.40000000000003,113.6395203480079 L 293.59999999999997,112.09103531659329 L 308.8,112.51308757059708 L 324,114.69291752525257 L 339.2,117.5316571811239 L 354.4,119.59827740683114 L 369.6,119.85098004368467 L 384.8,118.16237587014527 L 400,115.38370242703732 L 415.2,112.91570903473442 L 430.40000000000003,112.00252895960841 L 445.6,113.10450286269818 L 460.79999999999995,115.66611775284925 L 476,118.39604509149663 L 491.2,119.9181088210456 L 506.40000000000003,119.46502563945175 L 521.6,117.26519804585163 L 536.8000000000001,114.42757499368105 L 552,112.38262272634228 L 567.1999999999999,112.16121642845836 L 582.4,113.87496861140829 L 597.6,116.65996444147528 L 612.8000000000001,119.11226743742745 L 628,119.99565397484064 L 643.1999999999999,118.8648025298856 L 658.4,116.2897834708142 L 673.6,113.56868247440495 L 688.8,112.07322617548138 L 704,112.55728487843689 L 719.2,114.77684110044432 L 734.4,117.6130005442197 L 749.6,119.63603478190728 L 764.8,119.82611766568746 L 780,118.08742704311186"
      stroke="url(#thread-8)"
      stroke-width="5.776"
      stroke-linecap="round"
      fill="none"
      opacity="0.52"
      class="thread"
      style="animation-delay: 0.8s"
    >
      <title>2025-12-24: 2888 stars, Python, TypeScript</title>
    </path>

    <path
      d="M 20,124.08987952933961 L 35.2,124.51576894125506 L 50.400000000000006,126.6980843555375 L 65.6,129.53670483462986 L 80.80000000000001,131.6006613250259 L 96,131.84949847621522 L 111.2,130.1577756858569 L 126.4,127.3783026120029 L 141.60000000000002,124.91223167465218 L 156.79999999999998,124.00272701677193 L 172,125.10827649506308 L 187.2,127.67156464512779 L 202.4,130.40041942601232 L 217.6,131.91920546422466 L 232.8,131.46229176555946 L 248,129.26001182043174 L 263.20000000000005,126.42255083036689 L 278.40000000000003,124.38029334209098 L 293.59999999999997,124.1627560826688 L 308.8,125.87960115329014 L 324,128.66535457325952 L 339.2,131.11569795481202 L 354.4,131.99539552927368 L 369.6,130.86098540564115 L 384.8,128.2843319077501 L 400,125.56434464477437 L 415.2,124.07218881048227 L 430.40000000000003,124.56007092124601 L 445.6,126.78204608679071 L 460.79999999999995,129.61800060295175 L 476,131.63830934736146 L 491.2,131.82452011301586 L 506.40000000000003,130.08276271013662 L 521.6,127.29106960575942 L 536.8000000000001,124.85675342539164 L 552,124.006970510014 L 567.1999999999999,125.17010255526354 L 582.4,127.75980630949654 L 597.6,130.47059343520854 L 612.8000000000001,131.93593659417039 L 628,131.41714573299672 L 643.1999999999999,129.17574706593464 L 658.4,126.34164582433144 L 673.6,124.34353288148571 L 688.8,124.18867138077361 L 704,125.95512812144877 L 719.2,128.7524195221795 L 734.4,131.1704108158959 L 749.6,131.99017515470106 L 764.8,130.79846342387947 L 780,128.19602610066696"
      stroke="url(#thread-9)"
      stroke-width="5.776"
      stroke-linecap="round"
      fill="none"
      opacity="0.46"
      class="thread"
      style="animation-delay: 0.9s"
    >
      <title>2025-12-23: 2888 stars, Python, TypeScript</title>
    </path>
  </g>

  <!-- Date markers -->
  <g id="dates">
    <text x="785" y="24" class="date-label">01-01</text>
<text x="785" y="108" class="date-label">12-25</text>
  </g>

</svg>