<?xml version="1.0" encoding="UTF-8"?>
<svg xmlns="http://www.w3.org/2000/svg" viewBox="0 0 800 200" width="800" height="200">
  <title>The Data Tapestry - GitHub Trends Woven in Time</title>
  <desc>A living data art piece that weaves daily GitHub trending repositories into an evolving tapestry. Each thread represents one day of open source activity.</desc>

  <style>
    .thread {
      animation: breathe 8s ease-in-out infinite alternate;
    }

    @keyframes breathe {
      0% {
        opacity: 0.85;
      }
      100% {
        opacity: 1;
      }
    }

    .date-label {
      font-family: ui-monospace, monospace;
      font-size: 8px;
      fill: #666;
    }

    .title {
      font-family: system-ui, sans-serif;
      font-size: 14px;
      fill: #333;
      font-weight: 600;
    }

    .subtitle {
      font-family: system-ui, sans-serif;
      font-size: 10px;
      fill: #888;
    }

    .empty-state {
      font-family: system-ui, sans-serif;
      font-size: 12px;
      fill: #999;
      text-anchor: middle;
    }
  </style>

  <defs>
    
    <linearGradient id="thread-0" x1="0%" y1="0%" x2="100%" y2="0%">
      <stop offset="0%" stop-color="#3572A5" />
      <stop offset="50%" stop-color="#dea584" />
      <stop offset="100%" stop-color="#3178c6" />
    </linearGradient>

    <linearGradient id="thread-1" x1="0%" y1="0%" x2="100%" y2="0%">
      <stop offset="0%" stop-color="#3572A5" />
      <stop offset="50%" stop-color="#3178c6" />
      <stop offset="100%" stop-color="#89e051" />
    </linearGradient>

    <linearGradient id="thread-2" x1="0%" y1="0%" x2="100%" y2="0%">
      <stop offset="0%" stop-color="#3572A5" />
      <stop offset="50%" stop-color="#f1e05a" />
      <stop offset="100%" stop-color="#89e051" />
    </linearGradient>

    <linearGradient id="thread-3" x1="0%" y1="0%" x2="100%" y2="0%">
      <stop offset="0%" stop-color="#3572A5" />
      <stop offset="50%" stop-color="#89e051" />
      <stop offset="100%" stop-color="#dea584" />
    </linearGradient>

    <linearGradient id="thread-4" x1="0%" y1="0%" x2="100%" y2="0%">
      <stop offset="0%" stop-color="#3572A5" />
      <stop offset="50%" stop-color="#89e051" />
      <stop offset="100%" stop-color="#00ADD8" />
    </linearGradient>

    <linearGradient id="thread-5" x1="0%" y1="0%" x2="100%" y2="0%">
      <stop offset="0%" stop-color="#3572A5" />
      <stop offset="50%" stop-color="#3178c6" />
      <stop offset="100%" stop-color="#3572A5" />
    </linearGradient>

    <linearGradient id="thread-6" x1="0%" y1="0%" x2="100%" y2="0%">
      <stop offset="0%" stop-color="#3572A5" />
      <stop offset="50%" stop-color="#3178c6" />
      <stop offset="100%" stop-color="#3572A5" />
    </linearGradient>

    <linearGradient id="thread-7" x1="0%" y1="0%" x2="100%" y2="0%">
      <stop offset="0%" stop-color="#3572A5" />
      <stop offset="50%" stop-color="#3178c6" />
      <stop offset="100%" stop-color="#3572A5" />
    </linearGradient>

    <!-- Background pattern -->
    <pattern id="loom" patternUnits="userSpaceOnUse" width="20" height="20">
      <rect width="20" height="20" fill="#fafafa"/>
      <circle cx="10" cy="10" r="0.5" fill="#eee"/>
    </pattern>
  </defs>

  <!-- Background -->
  <rect width="100%" height="100%" fill="url(#loom)"/>

  <!-- Threads -->
  <g id="tapestry">
    
    <path
      d="M 20,20 L 35.2,23.536237858377547 L 50.400000000000006,23.305494346478703 L 65.6,19.553569250812707 L 80.80000000000001,16.277205014641225 L 96,16.966552338845112 L 111.2,20.8872832081937 L 126.4,23.86283463846512 L 141.60000000000002,22.72349710981547 L 156.79999999999998,18.682951210701866 L 172,16.045393021048344 L 187.2,17.620484379610083 L 202.4,21.730357438745283 L 217.6,23.996965283061684 L 232.8,22.005801347896337 L 248,17.877955262773064 L 263.20000000000005,16.01061972930552 L 278.40000000000003,18.39297603233374 L 293.59999999999997,22.48721643089729 L 308.8,23.93194671892373 L 324,21.18816632630814 L 339.2,17.178690413412692 L 354.4,16.174617722271307 L 369.6,19.24553782050099 L 384.8,23.120149607064903 L 400,23.671018502735926 L 415.2,20.311330794589892 L 430.40000000000003,16.61999760608255 L 445.6,16.529215782979794 L 460.79999999999995,20.135690764814647 L 476,23.597621006265484 L 491.2,23.227181409864144 L 506.40000000000003,19.418983173822486 L 521.6,16.229713767707445 L 536.8000000000001,17.056746026371222 L 552,21.01908290273353 L 567.1999999999999,23.89584056663708 L 582.4,22.622549669377882 L 597.6,18.555584776528484 L 612.8000000000001,16.02728483091122 L 628,17.730924203492975 L 643.1999999999999,21.8516991295945 L 658.4,23.999949467731863 L 673.6,21.887249120299067 L 688.8,17.764154517175896 L 704,16.022796838412006 L 719.2,18.518159316922908 L 734.4,22.59205425575595 L 749.6,23.904760472782208 L 764.8,21.057916188556 L 780,17.084125490314353"
      stroke="url(#thread-0)"
      stroke-width="8"
      stroke-linecap="round"
      fill="none"
      opacity="1"
      class="thread"
      style="animation-delay: 0s"
    >
      <title>2025-12-30: 4315 stars, Go, Shell, Rust, Python, Swift, TypeScript</title>
    </path>

    <path
      d="M 20,33.917702154416816 L 35.2,35.87865480499164 L 50.400000000000006,35.35261650793997 L 65.6,32.67688267846315 L 80.80000000000001,29.567132114169766 L 96,28.017334861793778 L 111.2,29.021219915303696 L 126.4,31.93509682889764 L 141.60000000000002,34.89058961374573 L 156.79999999999998,35.99263821133666 L 172,34.53460977501291 L 187.2,31.451391193355683 L 202.4,28.719940223025123 L 217.6,28.091661456241013 L 232.8,29.96940683114623 L 248,33.149167230113996 L 263.20000000000005,35.59208234578291 L 278.40000000000003,35.73175658897353 L 293.59999999999997,33.47863092545972 L 308.8,30.277408070680956 L 324,28.180710044757152 L 339.2,28.532938263268832 L 354.4,31.108244220747086 L 369.6,34.25534340603241 L 384.8,35.95631786081241 L 400,35.12050386689861 L 415.2,32.28382481558843 L 430.40000000000003,29.26515747643892 L 445.6,28.000069391242924 L 460.79999999999995,29.299734220462156 L 476,32.33080771777263 L 491.2,35.14976752080778 L 506.40000000000003,35.949098430522575 L 521.6,34.21626998556727 L 536.8000000000001,31.062370661989668 L 552,28.509678662368742 L 567.1999999999999,28.19497844273949 L 582.4,30.32005558000523 L 597.6,33.52231199078242 L 612.8000000000001,35.7484629395147 L 628,35.5711018804011 L 643.1999999999999,33.103952609616876 L 658.4,29.928949640897876 L 673.6,28.081902820412772 L 688.8,28.747137372586554 L 704,31.498105333631518 L 719.2,34.57088782952863 L 734.4,35.99521871504465 L 749.6,34.85781794934057 L 764.8,31.88798616636018 L 780,28.98997758092564"
      stroke="url(#thread-1)"
      stroke-width="6.556"
      stroke-linecap="round"
      fill="none"
      opacity="0.925"
      class="thread"
      style="animation-delay: 0.1s"
    >
      <title>2025-12-29: 3278 stars, Shell, Go, JavaScript, TypeScript, Rust, Python</title>
    </path>

    <path
      d="M 20,47.36588393923159 L 35.2,47.71020393742603 L 50.400000000000006,44.92754987880911 L 65.6,41.36315323774892 L 80.80000000000001,40.0211011244848 L 96,42.03248018865713 L 111.2,45.702092468602444 L 126.4,47.937174711553 L 141.60000000000002,46.853991061901134 L 156.79999999999998,43.36545283890264 L 172,40.411713388165516 L 187.2,40.48219560633057 L 202.4,43.51749681058421 L 217.6,46.959453546737976 L 232.8,47.9071715243053 L 248,45.56191041013816 L 263.20000000000005,41.9002652335483 L 278.40000000000003,40.00828454214963 L 293.59999999999997,41.480536892757385 L 308.8,45.076202378144615 L 324,47.764840386580936 L 339.2,47.280456530067816 L 354.4,44.0312913739219 L 369.6,40.75575372825626 L 384.8,40.21447923813231 L 400,42.86365611227842 L 415.2,46.47054795747454 L 430.40000000000003,47.995252543042355 L 445.6,46.15274301768715 L 460.79999999999995,42.49589345043131 L 476,40.10671063101581 L 491.2,40.99880696978022 L 506.40000000000003,44.420320263314785 L 521.6,47.48758603269592 L 536.8000000000001,47.6155009660948 L 552,44.6962578688227 L 567.1999999999999,41.1902059789941 L 582.4,40.052259227548944 L 597.6,42.241483485208725 L 612.8000000000001,45.91279218161274 L 628,47.971992317719064 L 643.1999999999999,46.683582149692576 L 658.4,43.13343869073749 L 673.6,40.313636414747215 L 688.8,40.60071545565203 L 704,43.752724500719964 L 719.2,47.1131382815314 L 734.4,47.849787221974374 L 749.6,45.341820779978484 L 764.8,41.70296265691939 L 780,40.0000563846157"
      stroke="url(#thread-2)"
      stroke-width="7.59"
      stroke-linecap="round"
      fill="none"
      opacity="0.85"
      class="thread"
      style="animation-delay: 0.2s"
    >
      <title>2025-12-28: 3795 stars, Shell, Rust, Python, JavaScript, TypeScript</title>
    </path>

    <path
      d="M 20,59.98997994641622 L 35.2,57.137850563298876 L 50.400000000000006,52.50142406225276 L 65.6,53.35121795246699 L 80.80000000000001,58.35464530376799 L 96,59.665683720377054 L 111.2,55.228455089910625 L 126.4,52.00110884982931 L 141.60000000000002,55.04454208141599 L 156.79999999999998,59.58625713086198 L 172,58.50425631713116 L 187.2,53.495257114211704 L 202.4,52.41401930318142 L 217.6,56.956063870929505 L 232.8,59.998876409025506 L 248,56.7709325914792 L 263.20000000000005,52.33406657846848 L 278.40000000000003,53.645859176297975 L 293.59999999999997,58.649249618708986 L 308.8,59.498273387844726 L 324,54.86155120316954 L 339.2,52.010064244115554 L 354.4,55.4153135381117 L 369.6,59.7374269639097 L 384.8,58.19877064078792 L 400,53.2121570516699 L 415.2,52.59724243462231 L 430.40000000000003,57.318292585488614 L 445.6,59.97208914722402 L 460.79999999999995,56.39713525072692 L 476,52.199421823096344 L 491.2,53.96150742905024 L 506.40000000000003,58.92021351978874 L 521.6,59.29964643076164 L 536.8000000000001,54.5048061933145 L 552,52.05462358145149 L 567.1999999999999,55.79130240801018 L 582.4,59.85524610037561 L 597.6,57.87366437166736 L 612.8000000000001,52.95393413192853 L 628,52.81082986112508 L 643.1999999999999,57.66875759832206 L 658.4,59.90985719547297 L 673.6,56.01979409831577 L 688.8,52.09869129021934 L 704,54.29534604321281 L 719.2,59.16511907752346 L 734.4,59.07157528440017 L 749.6,54.161403452207296 L 764.8,52.13438923936747 L 780,56.169153577863945"
      stroke="url(#thread-3)"
      stroke-width="8"
      stroke-linecap="round"
      fill="none"
      opacity="0.775"
      class="thread"
      style="animation-delay: 0.30000000000000004s"
    >
      <title>2025-12-27: 5384 stars, Shell, Python, Rust, C, Go</title>
    </path>

    <path
      d="M 20,71.63718970730272 L 35.2,68.73890969128844 L 50.400000000000006,65.21544858047778 L 65.6,64.04795725257546 L 80.80000000000001,66.22423369581806 L 96,69.90296102749758 L 111.2,71.97161980472184 L 126.4,70.67994693803254 L 141.60000000000002,67.12080866864447 L 156.79999999999998,64.30554181622739 L 172,64.61610405935637 L 187.2,67.78973305311855 L 202.4,71.14126595259567 L 217.6,71.83501792100132 L 232.8,69.28401517759009 L 248,65.64662525598233 L 263.20000000000005,64.00039259794436 L 278.40000000000003,65.73817149619376 L 293.59999999999997,69.38965167204519 L 308.8,71.86536711783887 L 324,71.07064982332481 L 339.2,67.67789891128564 L 354.4,64.55767319908028 L 369.6,64.34995176638073 L 384.8,67.23048479516295 L 400,70.76209381319578 L 415.2,71.95673411309883 L 430.40000000000003,69.80363734335819 L 445.6,66.1245083910242 L 460.79999999999995,64.03220650457476 L 476,65.29699887557165 L 491.2,68.84876247204986 L 506.40000000000003,71.68240008134154 L 521.6,71.40041078592034 L 536.8000000000001,68.24138176160865 L 552,64.87812302456544 L 567.1999999999999,64.15624047778236 L 582.4,66.68650878862817 L 597.6,70.32810353518354 L 612.8000000000001,71.9999226324476 L 628,70.28746346142431 L 643.1999999999999,66.63961363579166 L 658.4,64.1427675749612 L 673.6,64.90947160529943 L 688.8,68.29102823275151 L 704,71.4263499666661 L 719.2,71.66268519577432 L 734.4,68.80007400749854 L 749.6,65.26053145694236 L 764.8,64.03881470174505 L 780,66.16860110133261"
      stroke="url(#thread-4)"
      stroke-width="7.606"
      stroke-linecap="round"
      fill="none"
      opacity="0.7"
      class="thread"
      style="animation-delay: 0.4s"
    >
      <title>2025-12-26: 3803 stars, Python, Shell, Go, TypeScript</title>
    </path>

    <path
      d="M 20,82.39388857641583 L 35.2,79.04601201850794 L 50.400000000000006,76.39399071348824 L 65.6,76.3722546454568 L 80.80000000000001,78.99665847653755 L 96,82.3529168834487 L 111.2,83.99291721927145 L 126.4,82.72041501283772 L 141.60000000000002,79.46359527469014 L 156.79999999999998,76.59803837530193 L 172,76.21393083648923 L 187.2,78.59144730797745 L 202.4,81.99638635577601 L 217.6,83.9451268356552 L 232.8,83.01622390161293 L 248,79.88723534118616 L 263.20000000000005,76.84049926370263 L 278.40000000000003,76.0983574017752 L 293.59999999999997,78.20214080257567 L 308.8,81.61731364512192 L 324,83.85279007916034 L 339.2,83.27797511868232 L 354.4,80.31214868906153 L 369.6,77.1186356332152 L 384.8,76.02683933796808 L 400,77.83313481209471 L 415.2,81.21997904842502 L 430.40000000000003,83.71694956964589 L 445.6,83.50271310195552 L 460.79999999999995,80.73353741213377 L 476,77.42930690891177 L 491.2,76.00018419079976 L 506.40000000000003,77.48859596517066 L 521.6,80.80886906658611 L 536.8000000000001,83.53913914930273 L 552,83.68790022402035 L 567.1999999999999,81.14664340249736 L 582.4,77.76900514819214 L 597.6,76.01869293668352 L 612.8000000000001,77.1724146198542 L 628,80.38862574517378 L 643.1999999999999,83.32136656328484 L 658.4,83.83144544574535 L 673.6,81.54680207666705 L 688.8,78.13389465069393 L 704,76.08215658424088 L 719.2,76.88816093565926 L 734.4,79.96399425879845 L 749.6,83.06609078926871 L 764.8,83.93172792723402 L 780,81.92949504569035"
      stroke="url(#thread-5)"
      stroke-width="7.022"
      stroke-linecap="round"
      fill="none"
      opacity="0.625"
      class="thread"
      style="animation-delay: 0.5s"
    >
      <title>2025-12-25: 3511 stars, Python, TypeScript</title>
    </path>

    <path
      d="M 20,92.56448003223947 L 35.2,89.79373454651056 L 50.400000000000006,88.13518338581265 L 65.6,88.42491415047701 L 80.80000000000001,90.51687147271598 L 96,93.35648458076619 L 111.2,95.51228402970568 L 126.4,95.89751577131995 L 141.60000000000002,94.31798170665968 L 156.79999999999998,91.5699363481317 L 172,89.03868917780612 L 187.2,88.00026014769472 L 202.4,88.97812882024573 L 217.6,91.47934454597286 L 232.8,94.2430264406506 L 248,95.8759825315768 L 263.20000000000005,95.55502787766453 L 278.40000000000003,93.44195803443448 L 293.59999999999997,90.60198674772928 L 308.8,88.46676402291378 L 324,88.11267103318771 L 339.2,89.71820860812429 L 354.4,92.47401367826866 L 369.6,94.99086503496767 L 384.8,95.99999975967049 L 400,94.99270576053382 L 415.2,92.47676720636915 L 430.40000000000003,89.72048686538729 L 445.6,88.11332553369785 L 460.79999999999995,88.46546482824414 L 476,90.59938879128164 L 491.2,93.43937096478862 L 506.40000000000003,95.5537558552849 L 521.6,95.87666679211786 L 536.8000000000001,94.2453220434392 L 552,91.48209426108914 L 567.1999999999999,88.97994649647067 L 582.4,88.00022948133561 L 597.6,89.03682562799573 L 612.8000000000001,91.56717934376798 L 628,94.3157210735238 L 643.1999999999999,95.8968911108777 L 658.4,95.5136102377906 L 673.6,93.35909310631907 L 688.8,90.51944733919483 L 704,88.4261588450147 L 719.2,88.13446944891692 L 734.4,89.7914218789189 L 749.6,92.56173446636207 L 764.8,95.04887265850567 L 780,95.99905215732021"
      stroke="url(#thread-6)"
      stroke-width="5.776"
      stroke-linecap="round"
      fill="none"
      opacity="0.55"
      class="thread"
      style="animation-delay: 0.6000000000000001s"
    >
      <title>2025-12-24: 2888 stars, Python, TypeScript</title>
    </path>

    <path
      d="M 20,102.59686708924153 L 35.2,100.46420507048056 L 50.400000000000006,100.11396277318387 L 65.6,101.72269986510271 L 80.80000000000001,104.47944037719893 L 96,106.99449153778579 L 111.2,107.99999792015423 L 126.4,106.9890765059966 L 141.60000000000002,104.47134007019461 L 156.79999999999998,101.71599770605746 L 172,100.11203736880334 L 187.2,100.46802703099753 L 202.4,102.60450973679828 L 217.6,105.44446914750516 L 232.8,107.55626124452967 L 248,107.87531640310559 L 263.20000000000005,106.24079661700898 L 278.40000000000003,103.4766750973384 L 293.59999999999997,100.9763654349251 L 308.8,100.00029176094425 L 324,101.04049985315878 L 339.2,103.57261331108496 L 354.4,106.32017548088456 L 369.6,107.89812045940984 L 384.8,107.51099480403393 L 400,105.35395134929084 L 415.2,102.51437125569151 L 430.40000000000003,100.42370732533514 L 445.6,100.13587832181014 L 460.79999999999995,101.7959809213997 L 476,104.56714543223947 L 491.2,107.05240784086106 L 506.40000000000003,107.99892944523516 L 521.6,106.92956187899493 L 536.8000000000001,104.3833810437566 L 552,101.64393505970487 L 567.1999999999999,100.09219840222408 L 582.4,100.51041271030793 L 597.6,102.68775313540431 L 612.8000000000001,105.52660666788074 L 628,107.59588677033948 L 643.1999999999999,107.8524544210394 L 658.4,106.16697201708978 L 673.6,103.38910339275296 L 688.8,100.91919215345618 L 704,100.00233836607106 L 719.2,101.10073463647831 L 734.4,103.66067148395788 L 749.6,106.39166628335633 L 764.8,107.91700486241655 L 780,107.46775304383976"
      stroke="url(#thread-7)"
      stroke-width="5.776"
      stroke-linecap="round"
      fill="none"
      opacity="0.47500000000000003"
      class="thread"
      style="animation-delay: 0.7000000000000001s"
    >
      <title>2025-12-23: 2888 stars, Python, TypeScript</title>
    </path>
  </g>

  <!-- Date markers -->
  <g id="dates">
    <text x="785" y="24" class="date-label">12-30</text>
<text x="785" y="108" class="date-label">12-23</text>
  </g>

</svg>