<?xml version="1.0" encoding="UTF-8"?>
<svg xmlns="http://www.w3.org/2000/svg" viewBox="0 0 800 496" width="800" height="496">
  <title>The Data Tapestry - GitHub Trends Woven in Time</title>
  <desc>A living data art piece that weaves daily GitHub trending repositories into an evolving tapestry. Each thread represents one day of open source activity.</desc>

  <style>
    .thread {
      animation: breathe 8s ease-in-out infinite alternate;
    }

    @keyframes breathe {
      0% {
        opacity: 0.85;
      }
      100% {
        opacity: 1;
      }
    }

    .date-label {
      font-family: ui-monospace, monospace;
      font-size: 8px;
      fill: #666;
    }

    .title {
      font-family: system-ui, sans-serif;
      font-size: 14px;
      fill: #333;
      font-weight: 600;
    }

    .subtitle {
      font-family: system-ui, sans-serif;
      font-size: 10px;
      fill: #888;
    }

    .empty-state {
      font-family: system-ui, sans-serif;
      font-size: 12px;
      fill: #999;
      text-anchor: middle;
    }
  </style>

  <defs>
    
    <linearGradient id="thread-0" x1="0%" y1="0%" x2="100%" y2="0%">
      <stop offset="0%" stop-color="#3572A5" />
      <stop offset="50%" stop-color="#3178c6" />
      <stop offset="100%" stop-color="#f1e05a" />
    </linearGradient>

    <linearGradient id="thread-1" x1="0%" y1="0%" x2="100%" y2="0%">
      <stop offset="0%" stop-color="#3572A5" />
      <stop offset="50%" stop-color="#3178c6" />
      <stop offset="100%" stop-color="#f1e05a" />
    </linearGradient>

    <linearGradient id="thread-2" x1="0%" y1="0%" x2="100%" y2="0%">
      <stop offset="0%" stop-color="#3572A5" />
      <stop offset="50%" stop-color="#3178c6" />
      <stop offset="100%" stop-color="#f1e05a" />
    </linearGradient>

    <linearGradient id="thread-3" x1="0%" y1="0%" x2="100%" y2="0%">
      <stop offset="0%" stop-color="#3178c6" />
      <stop offset="50%" stop-color="#3572A5" />
      <stop offset="100%" stop-color="#f1e05a" />
    </linearGradient>

    <linearGradient id="thread-4" x1="0%" y1="0%" x2="100%" y2="0%">
      <stop offset="0%" stop-color="#3572A5" />
      <stop offset="50%" stop-color="#3178c6" />
      <stop offset="100%" stop-color="#89e051" />
    </linearGradient>

    <linearGradient id="thread-5" x1="0%" y1="0%" x2="100%" y2="0%">
      <stop offset="0%" stop-color="#3178c6" />
      <stop offset="50%" stop-color="#3572A5" />
      <stop offset="100%" stop-color="#89e051" />
    </linearGradient>

    <linearGradient id="thread-6" x1="0%" y1="0%" x2="100%" y2="0%">
      <stop offset="0%" stop-color="#3572A5" />
      <stop offset="50%" stop-color="#3178c6" />
      <stop offset="100%" stop-color="#8b8b8b" />
    </linearGradient>

    <linearGradient id="thread-7" x1="0%" y1="0%" x2="100%" y2="0%">
      <stop offset="0%" stop-color="#3178c6" />
      <stop offset="50%" stop-color="#3572A5" />
      <stop offset="100%" stop-color="#dea584" />
    </linearGradient>

    <linearGradient id="thread-8" x1="0%" y1="0%" x2="100%" y2="0%">
      <stop offset="0%" stop-color="#3572A5" />
      <stop offset="50%" stop-color="#3178c6" />
      <stop offset="100%" stop-color="#8b8b8b" />
    </linearGradient>

    <linearGradient id="thread-9" x1="0%" y1="0%" x2="100%" y2="0%">
      <stop offset="0%" stop-color="#3572A5" />
      <stop offset="50%" stop-color="#3178c6" />
      <stop offset="100%" stop-color="#41b883" />
    </linearGradient>

    <linearGradient id="thread-10" x1="0%" y1="0%" x2="100%" y2="0%">
      <stop offset="0%" stop-color="#3178c6" />
      <stop offset="50%" stop-color="#f1e05a" />
      <stop offset="100%" stop-color="#89e051" />
    </linearGradient>

    <linearGradient id="thread-11" x1="0%" y1="0%" x2="100%" y2="0%">
      <stop offset="0%" stop-color="#3178c6" />
      <stop offset="50%" stop-color="#3572A5" />
      <stop offset="100%" stop-color="#f1e05a" />
    </linearGradient>

    <linearGradient id="thread-12" x1="0%" y1="0%" x2="100%" y2="0%">
      <stop offset="0%" stop-color="#3178c6" />
      <stop offset="50%" stop-color="#3572A5" />
      <stop offset="100%" stop-color="#f1e05a" />
    </linearGradient>

    <linearGradient id="thread-13" x1="0%" y1="0%" x2="100%" y2="0%">
      <stop offset="0%" stop-color="#3178c6" />
      <stop offset="50%" stop-color="#f1e05a" />
      <stop offset="100%" stop-color="#3572A5" />
    </linearGradient>

    <linearGradient id="thread-14" x1="0%" y1="0%" x2="100%" y2="0%">
      <stop offset="0%" stop-color="#3572A5" />
      <stop offset="50%" stop-color="#3178c6" />
      <stop offset="100%" stop-color="#89e051" />
    </linearGradient>

    <linearGradient id="thread-15" x1="0%" y1="0%" x2="100%" y2="0%">
      <stop offset="0%" stop-color="#3178c6" />
      <stop offset="50%" stop-color="#89e051" />
      <stop offset="100%" stop-color="#3572A5" />
    </linearGradient>

    <linearGradient id="thread-16" x1="0%" y1="0%" x2="100%" y2="0%">
      <stop offset="0%" stop-color="#3572A5" />
      <stop offset="50%" stop-color="#3178c6" />
      <stop offset="100%" stop-color="#89e051" />
    </linearGradient>

    <linearGradient id="thread-17" x1="0%" y1="0%" x2="100%" y2="0%">
      <stop offset="0%" stop-color="#3178c6" />
      <stop offset="50%" stop-color="#3572A5" />
      <stop offset="100%" stop-color="#8b8b8b" />
    </linearGradient>

    <linearGradient id="thread-18" x1="0%" y1="0%" x2="100%" y2="0%">
      <stop offset="0%" stop-color="#3178c6" />
      <stop offset="50%" stop-color="#89e051" />
      <stop offset="100%" stop-color="#3572A5" />
    </linearGradient>

    <linearGradient id="thread-19" x1="0%" y1="0%" x2="100%" y2="0%">
      <stop offset="0%" stop-color="#3572A5" />
      <stop offset="50%" stop-color="#3178c6" />
      <stop offset="100%" stop-color="#89e051" />
    </linearGradient>

    <linearGradient id="thread-20" x1="0%" y1="0%" x2="100%" y2="0%">
      <stop offset="0%" stop-color="#3572A5" />
      <stop offset="50%" stop-color="#3178c6" />
      <stop offset="100%" stop-color="#8b8b8b" />
    </linearGradient>

    <linearGradient id="thread-21" x1="0%" y1="0%" x2="100%" y2="0%">
      <stop offset="0%" stop-color="#3572A5" />
      <stop offset="50%" stop-color="#3178c6" />
      <stop offset="100%" stop-color="#8b8b8b" />
    </linearGradient>

    <linearGradient id="thread-22" x1="0%" y1="0%" x2="100%" y2="0%">
      <stop offset="0%" stop-color="#3178c6" />
      <stop offset="50%" stop-color="#3572A5" />
      <stop offset="100%" stop-color="#dea584" />
    </linearGradient>

    <linearGradient id="thread-23" x1="0%" y1="0%" x2="100%" y2="0%">
      <stop offset="0%" stop-color="#3572A5" />
      <stop offset="50%" stop-color="#3178c6" />
      <stop offset="100%" stop-color="#00ADD8" />
    </linearGradient>

    <linearGradient id="thread-24" x1="0%" y1="0%" x2="100%" y2="0%">
      <stop offset="0%" stop-color="#3572A5" />
      <stop offset="50%" stop-color="#00ADD8" />
      <stop offset="100%" stop-color="#3178c6" />
    </linearGradient>

    <linearGradient id="thread-25" x1="0%" y1="0%" x2="100%" y2="0%">
      <stop offset="0%" stop-color="#3572A5" />
      <stop offset="50%" stop-color="#3178c6" />
      <stop offset="100%" stop-color="#00ADD8" />
    </linearGradient>

    <linearGradient id="thread-26" x1="0%" y1="0%" x2="100%" y2="0%">
      <stop offset="0%" stop-color="#3572A5" />
      <stop offset="50%" stop-color="#00ADD8" />
      <stop offset="100%" stop-color="#DA5B0B" />
    </linearGradient>

    <linearGradient id="thread-27" x1="0%" y1="0%" x2="100%" y2="0%">
      <stop offset="0%" stop-color="#3572A5" />
      <stop offset="50%" stop-color="#3178c6" />
      <stop offset="100%" stop-color="#dea584" />
    </linearGradient>

    <linearGradient id="thread-28" x1="0%" y1="0%" x2="100%" y2="0%">
      <stop offset="0%" stop-color="#dea584" />
      <stop offset="50%" stop-color="#3572A5" />
      <stop offset="100%" stop-color="#3178c6" />
    </linearGradient>

    <linearGradient id="thread-29" x1="0%" y1="0%" x2="100%" y2="0%">
      <stop offset="0%" stop-color="#3572A5" />
      <stop offset="50%" stop-color="#3178c6" />
      <stop offset="100%" stop-color="#dea584" />
    </linearGradient>

    <linearGradient id="thread-30" x1="0%" y1="0%" x2="100%" y2="0%">
      <stop offset="0%" stop-color="#3572A5" />
      <stop offset="50%" stop-color="#dea584" />
      <stop offset="100%" stop-color="#3178c6" />
    </linearGradient>

    <linearGradient id="thread-31" x1="0%" y1="0%" x2="100%" y2="0%">
      <stop offset="0%" stop-color="#3572A5" />
      <stop offset="50%" stop-color="#3178c6" />
      <stop offset="100%" stop-color="#89e051" />
    </linearGradient>

    <linearGradient id="thread-32" x1="0%" y1="0%" x2="100%" y2="0%">
      <stop offset="0%" stop-color="#3572A5" />
      <stop offset="50%" stop-color="#f1e05a" />
      <stop offset="100%" stop-color="#89e051" />
    </linearGradient>

    <linearGradient id="thread-33" x1="0%" y1="0%" x2="100%" y2="0%">
      <stop offset="0%" stop-color="#3572A5" />
      <stop offset="50%" stop-color="#89e051" />
      <stop offset="100%" stop-color="#dea584" />
    </linearGradient>

    <linearGradient id="thread-34" x1="0%" y1="0%" x2="100%" y2="0%">
      <stop offset="0%" stop-color="#3572A5" />
      <stop offset="50%" stop-color="#89e051" />
      <stop offset="100%" stop-color="#00ADD8" />
    </linearGradient>

    <linearGradient id="thread-35" x1="0%" y1="0%" x2="100%" y2="0%">
      <stop offset="0%" stop-color="#3572A5" />
      <stop offset="50%" stop-color="#3178c6" />
      <stop offset="100%" stop-color="#3572A5" />
    </linearGradient>

    <linearGradient id="thread-36" x1="0%" y1="0%" x2="100%" y2="0%">
      <stop offset="0%" stop-color="#3572A5" />
      <stop offset="50%" stop-color="#3178c6" />
      <stop offset="100%" stop-color="#3572A5" />
    </linearGradient>

    <linearGradient id="thread-37" x1="0%" y1="0%" x2="100%" y2="0%">
      <stop offset="0%" stop-color="#3572A5" />
      <stop offset="50%" stop-color="#3178c6" />
      <stop offset="100%" stop-color="#3572A5" />
    </linearGradient>

    <!-- Background pattern -->
    <pattern id="loom" patternUnits="userSpaceOnUse" width="20" height="20">
      <rect width="20" height="20" fill="#fafafa"/>
      <circle cx="10" cy="10" r="0.5" fill="#eee"/>
    </pattern>
  </defs>

  <!-- Background -->
  <rect width="100%" height="100%" fill="url(#loom)"/>

  <!-- Threads -->
  <g id="tapestry">
    
    <path
      d="M 20,20 L 35.2,23.02557034042381 L 50.400000000000006,16.04184042603123 L 65.6,22.152635898471985 L 80.80000000000001,21.142004128178588 L 96,16.353353364752756 L 111.2,23.628669717785613 L 126.4,18.899490837107102 L 141.60000000000002,17.811055817973926 L 156.79999999999998,23.964164406735645 L 172,17.00288220565536 L 187.2,19.956772526542085 L 202.4,23.053669524654754 L 217.6,16.048307539434568 L 232.8,22.1160762046666 L 248,21.18336571673066 L 263.20000000000005,16.33580234576642 L 278.40000000000003,23.610269001405513 L 293.59999999999997,18.94111433285419 L 308.8,17.775003185181436 L 324,23.969706257550747 L 339.2,17.031684790558295 L 354.4,19.913550101699204 L 369.6,23.081412065282755 L 384.8,16.055236178168474 L 400,22.079269370482823 L 415.2,21.224589097854086 L 430.40000000000003,16.318679275070718 L 445.6,23.591446635159954 L 460.79999999999995,18.982861497779105 L 476,17.739210413802926 L 491.2,23.974784479171255 L 506.40000000000003,17.060834050378823 L 521.6,19.870337773496804 L 536.8000000000001,23.108794722206163 L 552,16.06262553302464 L 567.1999999999999,22.042219694657646 L 582.4,21.26566945699551 L 597.6,16.30198615250012 L 612.8000000000001,23.572204817347217 L 628,19.024727456154682 L 643.1999999999999,17.703681684141074 L 658.4,23.97939847850248 L 673.6,17.090326580722103 L 688.8,19.82714058878095 L 704,23.1358142973549 L 719.2,16.070474740986928 L 734.4,22.004931504289836 L 749.6,21.306601996305243 L 764.8,16.28572492767472 L 780,23.55254579525416"
      stroke="url(#thread-0)"
      stroke-width="8"
      stroke-linecap="round"
      fill="none"
      opacity="1"
      class="thread"
      style="animation-delay: 0s"
    >
      <title>2026-01-29: 9087 stars, TypeScript, JavaScript, Python, Shell, Unknown</title>
    </path>

    <path
      d="M 20,33.917702154416816 L 35.2,31.060416180158615 L 50.400000000000006,31.89690363194627 L 65.6,33.13869246994022 L 80.80000000000001,29.903954682971932 L 96,34.90937208847295 L 111.2,28.477213537530762 L 126.4,35.89413874677891 L 141.60000000000002,28.002087879134145 L 156.79999999999998,35.82697597943993 L 172,28.6069241005139 L 187.2,34.72602656355402 L 202.4,30.128336903831975 L 217.6,32.88869158368066 L 232.8,32.155344811428556 L 248,30.81129303956734 L 263.20000000000005,34.140389196693555 L 278.40000000000003,29.055001654561377 L 293.59999999999997,35.54724710100768 L 308.8,28.094247002961477 L 324,35.9958819300217 L 339.2,28.18855915150688 L 354.4,35.365103297697296 L 369.6,29.31246142083352 L 384.8,33.82530436348695 L 400,31.16235243833193 L 415.2,31.79243327762351 L 430.40000000000003,33.23851842334844 L 445.6,29.815632495683705 L 460.79999999999995,34.98012160553695 L 476,28.428898119598912 L 491.2,35.91670015642341 L 506.40000000000003,28.00683074544807 L 521.6,35.795254734903175 L 536.8000000000001,28.663444053622257 L 552,34.64859157126594 L 567.1999999999999,30.221366125694168 L 582.4,32.786460471969164 L 597.6,32.25975318155199 L 612.8000000000001,30.71188164896057 L 628,34.227972728533615 L 643.1999999999999,28.985264130179385 L 658.4,35.594346726324865 L 673.6,28.073021644808335 L 688.8,35.989774557773345 L 704,28.221579596790402 L 719.2,35.307438721329184 L 734.4,29.390807808115735 L 749.6,33.731659599803905 L 764.8,31.264860942815076 L 780,31.688104724335435"
      stroke="url(#thread-1)"
      stroke-width="8"
      stroke-linecap="round"
      fill="none"
      opacity="0.9842105263157895"
      class="thread"
      style="animation-delay: 0.1s"
    >
      <title>2026-01-28: 11454 stars, TypeScript, JavaScript, Python, Shell</title>
    </path>

    <path
      d="M 20,47.36588393923159 L 35.2,40.60297085112074 L 50.400000000000006,47.42745254122197 L 65.6,40.542852348250946 L 80.80000000000001,47.48610817069877 L 96,40.48567205560107 L 111.2,47.54180097657452 L 126.4,40.431478570378175 L 141.60000000000002,47.59448362584877 L 156.79999999999998,40.38031795131858 L 172,47.6441113438361 L 187.2,40.332233679542846 L 202.4,47.69064195221991 L 217.6,40.28726662160133 L 232.8,47.73403590489954 L 248,40.24545499474209 L 263.20000000000005,47.77425632160022 L 278.40000000000003,40.20683433443007 L 293.59999999999997,47.811269019217484 L 308.8,40.17143746414591 L 324,47.84504254086912 L 339.2,40.13929446748924 L 354.4,47.875548182630254 L 369.6,40.11043266261101 L 384.8,47.90276001792866 L 400,40.0848765789958 L 415.2,47.92665491957951 L 430.40000000000003,40.06264793661441 L 445.6,47.947212579441185 L 460.79999999999995,40.0437656274642 L 476,47.9644155256749 L 491.2,40.0282456995128 L 506.40000000000003,47.97824913759406 L 521.6,40.016101343059134 L 536.8000000000001,47.9887016580902 L 552,40.00734287952302 L 567.1999999999999,47.99576420362529 L 582.4,40.00197775267303 L 597.6,47.99943077178188 L 612.8000000000001,40.00001052230011 L 628,47.99969824636444 L 643.1999999999999,40.00144286034221 L 658.4,47.99656640004784 L 673.6,40.006273549463344 L 688.8,47.990037894570534 L 704,40.01449848408817 L 719.2,47.980118278472375 L 734.4,40.026110673891296 L 749.6,47.96681598237893 L 764.8,40.04110024973836 L 780,47.95014231183636"
      stroke="url(#thread-2)"
      stroke-width="8"
      stroke-linecap="round"
      fill="none"
      opacity="0.968421052631579"
      class="thread"
      style="animation-delay: 0.2s"
    >
      <title>2026-01-27: 12558 stars, TypeScript, JavaScript, Python, Shell</title>
    </path>

    <path
      d="M 20,59.98997994641622 L 35.2,57.018781181747 L 50.400000000000006,52.38829940613768 L 65.6,53.640173472360395 L 80.80000000000001,58.7354833383725 L 96,59.37552733238661 L 111.2,54.51786950785264 L 126.4,52.07414903284769 L 141.60000000000002,56.02443929340447 L 156.79999999999998,59.93492541832156 L 172,57.4366213016078 L 187.2,52.59850039045265 L 202.4,53.30038219525159 L 217.6,58.3991158851326 L 232.8,59.59042342620041 L 248,54.934029125190854 L 263.20000000000005,52.013775414935765 L 278.40000000000003,55.58586260211138 L 293.59999999999997,59.832452970954684 L 308.8,57.837149379774694 L 324,52.8496912327047 L 339.2,52.99312273146137 L 354.4,58.03383782463285 L 369.6,59.76205303079845 L 384.8,55.36303425178649 L 400,52.001437898215336 L 415.2,55.15227648411077 L 430.40000000000003,59.68379745116028 L 445.6,58.21553884241011 L 460.79999999999995,53.13884495123253 L 476,52.72209771900718 L 491.2,57.644050949472444 L 506.40000000000003,59.888347919246186 L 521.6,55.799715150402385 L 536.8000000000001,52.03728515624681 L 552,54.72890587999373 L 567.1999999999999,59.490750236077055 L 582.4,58.56722989762855 L 597.6,53.462477091764505 L 612.8000000000001,52.49057315172497 L 628,57.234452396347656 L 643.1999999999999,59.96778617176416 L 658.4,56.23880958671478 L 673.6,52.120885210731565 L 688.8,54.32085262804024 L 704,59.25563764610184 L 719.2,58.88798448338505 L 734.4,53.816687716923894 L 749.6,52.30133902232717 L 764.8,56.80997804308626 L 780,59.999410515661104"
      stroke="url(#thread-3)"
      stroke-width="8"
      stroke-linecap="round"
      fill="none"
      opacity="0.9526315789473684"
      class="thread"
      style="animation-delay: 0.30000000000000004s"
    >
      <title>2026-01-26: 5507 stars, TypeScript, JavaScript, Python, Rust, Shell</title>
    </path>

    <path
      d="M 20,71.63718970730272 L 35.2,68.42169915307421 L 50.400000000000006,64.79268219058952 L 65.6,64.30882358138282 L 80.80000000000001,67.44460450785735 L 96,71.12501707836795 L 111.2,71.74097699646991 L 126.4,68.68846196165448 L 141.60000000000002,64.96082770938622 L 156.79999999999998,64.2134650375735 L 172,67.17925234800215 L 187.2,70.94988080203072 L 202.4,71.8277986495645 L 217.6,68.95210253903625 L 232.8,65.14275612262283 L 248,64.13527873893149 L 263.20000000000005,66.91762234575027 L 278.40000000000003,70.76136657544363 L 293.59999999999997,71.89726092330206 L 308.8,69.21142525367888 L 324,65.33764237009363 L 339.2,64.07461926670385 L 354.4,66.66090101452 L 369.6,70.5603293260135 L 384.8,71.94904880060065 L 400,69.46525405590171 L 415.2,65.54460262675688 L 430.40000000000003,64.03176171654906 L 445.6,66.41025260650585 L 460.79999999999995,70.34768077407813 L 476,71.98292741920903 L 491.2,69.7124378113654 L 506.40000000000003,65.76269831095345 L 521.6,64.00690045095573 L 536.8000000000001,66.16681383269979 L 552,70.12438529818007 L 567.1999999999999,71.99874313682614 L 582.4,69.95185552156019 L 597.6,65.99094034095137 L 612.8000000000001,64.00014821779286 L 628,65.93168870781403 L 643.1999999999999,69.89145556153115 L 658.4,71.99642422788148 L 673.6,70.18242140762555 L 688.8,66.22829362051206 L 704,64.01153563898907 L 719.2,65.70594354348438 L 734.4,69.64994791950227 L 749.6,71.97598120881642 L 764.8,70.40308983444595 L 780,66.47368173313649"
      stroke="url(#thread-4)"
      stroke-width="8"
      stroke-linecap="round"
      fill="none"
      opacity="0.9368421052631579"
      class="thread"
      style="animation-delay: 0.4s"
    >
      <title>2026-01-25: 4122 stars, Shell, Python, TypeScript</title>
    </path>

    <path
      d="M 20,82.39388857641583 L 35.2,77.04778683706328 L 50.400000000000006,77.0223924533812 L 65.6,82.36347315167954 L 80.80000000000001,83.44491936932893 L 96,78.31766492193323 L 111.2,76.22244513143475 L 126.4,80.93542748160762 L 141.60000000000002,83.96250992977782 L 156.79999999999998,79.848049892136 L 172,76.00744611486077 L 187.2,79.36253236812495 L 202.4,83.86651219062769 L 217.6,81.40196409253893 L 232.8,76.41068765612874 L 248,77.88834809378801 L 263.20000000000005,83.17179124763203 L 278.40000000000003,82.73878640449625 L 293.59999999999997,77.36972845010152 L 308.8,76.74114972622212 L 324,81.98592352322582 L 339.2,83.65151203968036 L 354.4,78.73606256986703 L 369.6,76.09857909046546 L 384.8,80.49253873025842 L 400,83.9988068991443 L 415.2,80.29811537104878 L 430.40000000000003,76.06013721762035 L 445.6,78.92288510583279 L 460.79999999999995,83.72689293158874 L 476,81.81400548573944 L 491.2,76.63177676996663 L 506.40000000000003,77.52002099313005 L 521.6,82.87787557824825 L 536.8000000000001,83.04899976390644 L 552,77.72498028076643 L 567.1999999999999,76.50117764727293 L 582.4,81.58322381292938 L 597.6,83.81186132473839 L 612.8000000000001,79.17046694184646 L 628,76.0241213243014 L 643.1999999999999,80.04341238253056 L 658.4,83.984462280549 L 673.6,80.7444054649114 L 688.8,76.16272342976715 L 704,78.4968786144089 L 719.2,83.5400756504949 L 734.4,82.20307399710647 L 749.6,76.89552165020704 L 764.8,77.18310077912278 L 780,82.54751399064067"
      stroke="url(#thread-5)"
      stroke-width="8"
      stroke-linecap="round"
      fill="none"
      opacity="0.9210526315789473"
      class="thread"
      style="animation-delay: 0.5s"
    >
      <title>2026-01-24: 5856 stars, Shell, TypeScript, Python, Rust</title>
    </path>

    <path
      d="M 20,92.56448003223947 L 35.2,88.46347053003394 L 50.400000000000006,89.04629814260606 L 65.6,93.54105650625493 L 80.80000000000001,95.99481458381382 L 96,93.15777529258908 L 111.2,88.7873595847235 L 126.4,88.67181706292844 L 141.60000000000002,92.9641741211629 L 156.79999999999998,95.97956330109653 L 172,93.72435415898032 L 187.2,89.18538234008065 L 202.4,88.37413590036901 L 217.6,92.36504281105896 L 232.8,95.87248108916965 L 248,94.25114246728143 L 263.20000000000005,89.64835417038002 L 278.40000000000003,88.1601238352116 L 293.59999999999997,91.75748790821267 L 308.8,95.67603893750587 L 324,94.72598424554575 L 339.2,90.16559170909176 L 354.4,88.03471933062879 L 369.6,91.15552912460068 L 384.8,95.39476987245969 L 400,95.13792222071936 L 415.2,90.72515937429188 L 430.40000000000003,88.00081617453438 L 445.6,90.57305703822432 L 460.79999999999995,95.03516435482967 L 476,95.47745066461682 L 491.2,91.31414478973123 L 506.40000000000003,88.05919670360495 L 521.6,90.0235125592748 L 536.8000000000001,94.6055205083883 L 552,95.73673474458512 L 567.1999999999999,91.9189567460488 L 582.4,88.20851375036844 L 597.6,89.51957677266671 L 612.8000000000001,94.11575263545028 L 628,95.9097913172009 L 643.1999999999999,92.52563882648643 L 658.4,88.4453217299419 L 673.6,89.0728783140178 L 688.8,93.5771624381036 L 704,95.99262699307273 L 719.2,93.12019145999407 L 734.4,88.76415614907233 L 749.6,88.69372503155928 L 764.8,93.00217822431655 L 780,95.98333028681606"
      stroke="url(#thread-6)"
      stroke-width="8"
      stroke-linecap="round"
      fill="none"
      opacity="0.9052631578947368"
      class="thread"
      style="animation-delay: 0.6000000000000001s"
    >
      <title>2026-01-23: 4879 stars, Unknown, Rust, Python, Shell, TypeScript, JavaScript</title>
    </path>

    <path
      d="M 20,102.59686708924153 L 35.2,100.27319523308134 L 50.400000000000006,105.50241468374635 L 65.6,107.68678056310488 L 80.80000000000001,102.39936978476904 L 96,100.35586009440333 L 111.2,105.69770980310072 L 126.4,107.5989130558387 L 141.60000000000002,102.20641544859356 L 156.79999999999998,100.448867889342 L 172,105.88818641925577 L 187.2,107.50083097948543 L 202.4,102.01855173089918 L 217.6,100.55195463970942 L 232.8,106.0733039143847 L 248,107.39281271424753 L 263.20000000000005,101.83631183348696 L 278.40000000000003,100.66482776085091 L 293.59999999999997,106.25253688111756 L 308.8,107.27516484158885 L 324,101.66021299642183 L 339.2,100.78716689206976 L 354.4,106.42537661377209 L 369.6,107.14822127408368 L 384.8,101.49075502998245 L 400,100.9186248058869 L 415.2,106.59133255218123 L 430.40000000000003,107.01234230769374 L 445.6,101.3284188960811 L 460.79999999999995,101.05882839355478 L 476,106.74993367401902 L 491.2,106.86791359916263 L 506.40000000000003,101.17366534317974 L 521.6,101.20737972402858 L 536.8000000000001,106.90072983167391 L 552,106.71534507143059 L 567.1999999999999,101.02693359857645 L 582.4,101.36385717338894 L 597.6,107.04329302987436 L 612.8000000000001,106.55506975017582 L 628,100.8886401217742 L 643.1999999999999,101.52781662151055 L 658.4,107.17721864044111 L 673.6,106.38754253478514 L 688.8,100.75917742247003 L 704,101.69879271258074 L 719.2,107.30212655071786 L 734.4,106.21323890724123 L 749.6,100.63891294651926 L 764.8,101.87630017588927 L 780,107.41766224242096"
      stroke="url(#thread-7)"
      stroke-width="8"
      stroke-linecap="round"
      fill="none"
      opacity="0.8894736842105263"
      class="thread"
      style="animation-delay: 0.7000000000000001s"
    >
      <title>2026-01-22: 6303 stars, Rust, Unknown, Shell, TypeScript, Python</title>
    </path>

    <path
      d="M 20,112.9727900187683 L 35.2,112.23835152455713 L 50.400000000000006,115.34498245037886 L 65.6,119.12046053080836 L 80.80000000000001,119.70959475174247 L 96,116.510812304053 L 111.2,112.79043260098908 L 126.4,112.34738496878643 L 141.60000000000002,115.63407125274804 L 156.79999999999998,119.29441226020558 L 172,119.59078497762579 L 187.2,116.22055927110686 L 202.4,112.62511755169254 L 217.6,112.47581330446009 L 232.8,115.9251030872377 L 248,119.45087110639072 L 263.20000000000005,119.45290862128074 L 278.40000000000003,115.92913509828321 L 293.59999999999997,112.47772267141546 L 308.8,112.62295459449813 L 324,116.21653261419702 L 339.2,119.5890062940668 L 354.4,119.29669778749836 L 369.6,115.63808720849632 L 384.8,112.34903060702267 L 400,112.7880275385656 L 415.2,116.50681238228205 L 430.40000000000003,119.7080843440835 L 445.6,119.1229819346633 L 460.79999999999995,115.3489610266484 L 476,112.23972469595795 L 491.2,112.97015562167171 L 506.40000000000003,116.79440104521282 L 521.6,119.80747296811208 L 536.8000000000001,118.93268347044217 L 552,115.06329177363267 L 567.1999999999999,112.15038533781481 L 582.4,113.16837176834564 L 597.6,117.0777715461135 L 612.8000000000001,119.88664442601095 L 628,118.7268128539236 L 643.1999999999999,114.7825963145181 L 658.4,112.08148691249315 L 673.6,113.38162347767656 L 688.8,117.3554192259777 L 704,119.94517832805431 L 719.2,118.50646323021732 L 734.4,114.50836510420116 L 749.6,112.03339526130621 L 764.8,113.60877841195102 L 780,117.62586981320423"
      stroke="url(#thread-8)"
      stroke-width="8"
      stroke-linecap="round"
      fill="none"
      opacity="0.8736842105263158"
      class="thread"
      style="animation-delay: 0.8s"
    >
      <title>2026-01-21: 4215 stars, Unknown, TypeScript, Python, Shell, JavaScript</title>
    </path>

    <path
      d="M 20,124.08987952933961 L 35.2,127.41394187476742 L 50.400000000000006,131.98665805991922 L 65.6,128.065411479502 L 80.80000000000001,124.00479937964968 L 96,128.45635080127118 L 111.2,131.93560245306654 L 126.4,127.02967027570078 L 141.60000000000002,124.19111995668518 L 156.79999999999998,129.46775904698916 L 172,131.6171947236636 L 187.2,126.05984520912602 L 202.4,124.63618418892042 L 217.6,130.3794599413462 L 232.8,131.05306484661452 L 248,125.22181813475244 L 263.20000000000005,125.30975811126916 L 278.40000000000003,131.1295201025681 L 293.59999999999997,130.2815351173802 L 308.8,124.57251764731492 L 324,126.16608470940335 L 339.2,131.66698667692165 L 354.4,129.35501685371472 L 369.6,124.15605182570596 L 384.8,127.14699227102798 L 400,131.95534865213702 L 415.2,128.33645000631847 L 430.40000000000003,124.00071189667028 L 445.6,128.18584608855934 L 460.79999999999995,131.97501711214454 L 476,127.29502754167079 L 491.2,124.11705036398331 L 506.40000000000003,129.21207506736863 L 521.6,131.72465594523248 L 536.8000000000001,126.30149504693777 L 552,124.49716415904466 L 567.1999999999999,130.15596573944708 L 582.4,131.22127260837252 L 597.6,125.42334486273512 L 612.8000000000001,125.11523150967787 L 628,130.95339801704577 L 643.1999999999999,130.4990627819391 L 658.4,124.72023121442307 L 673.6,125.92926605673169 L 688.8,131.55020097854634 L 704,129.60708739937908 L 719.2,124.23991779981218 L 734.4,126.88396905837959 L 749.6,131.90583279067062 L 764.8,128.60593985513066 L 780,124.01503312048942"
      stroke="url(#thread-9)"
      stroke-width="8"
      stroke-linecap="round"
      fill="none"
      opacity="0.8578947368421053"
      class="thread"
      style="animation-delay: 0.9s"
    >
      <title>2026-01-20: 6510 stars, Python, Vue, TypeScript, Unknown, Shell, JavaScript</title>
    </path>

    <path
      d="M 20,136.16430290134744 L 35.2,139.44422692174845 L 50.400000000000006,143.37535377783658 L 65.6,143.3515572351709 L 80.80000000000001,139.40071985350437 L 96,136.1520628149316 L 111.2,137.41205814639753 L 126.4,141.7043613380448 L 141.60000000000002,143.99965355560536 L 156.79999999999998,141.60852637089772 L 172,137.33267865006502 L 187.2,136.1821482480038 L 202.4,139.50501892350928 L 217.6,143.40786206122235 L 232.8,143.31769163865246 L 248,139.34016091100472 L 263.20000000000005,136.13576782291796 L 278.40000000000003,137.45912005021398 L 293.59999999999997,141.7596374069306 L 308.8,143.99837646956485 L 324,141.55219249973283 L 339.2,137.28729474740118 L 354.4,136.20089092002394 L 369.6,139.5659272627037 L 384.8,143.43956938080373 L 400,143.28304627145408 L 415.2,139.2797570531938 L 430.40000000000003,136.12038105724972 L 445.6,137.50677914747152 L 460.79999999999995,141.81449990101598 L 476,143.99615962869544 L 491.2,141.4954938103953 L 506.40000000000003,137.24254842298438 L 521.6,136.22052651224072 L 536.8000000000001,139.6269376237948 L 552,143.47046828427932 L 567.1999999999999,143.2476292764186 L 582.4,139.21952247703817 L 597.6,136.10590613434158 L 612.8000000000001,137.55502423665692 L 628,141.86893592574387 L 643.1999999999999,143.99300355403028 L 658.4,141.43844362901078 L 673.6,137.19845019372693 L 688.8,136.24105040962036 L 704,139.68803566726697 L 719.2,143.50055150935302 L 734.4,143.21144897774766 L 749.6,139.15947133971747 L 764.8,136.092346456294 L 780,137.60384397852891"
      stroke="url(#thread-10)"
      stroke-width="8"
      stroke-linecap="round"
      fill="none"
      opacity="0.8421052631578948"
      class="thread"
      style="animation-delay: 1s"
    >
      <title>2026-01-19: 4551 stars, JavaScript, TypeScript, Shell, Python</title>
    </path>

    <path
      d="M 20,149.17783869771844 L 35.2,152.59076724990518 L 50.400000000000006,155.52717770314484 L 65.6,155.61853536440785 L 80.80000000000001,152.7911503345397 L 96,149.32561643393316 L 111.2,148.0172640171716 L 126.4,149.92142173777825 L 141.60000000000002,153.50217910432934 L 156.79999999999998,155.8712654935405 L 172,155.11775482985576 L 187.2,151.8494354919522 L 202.4,148.7025628204902 L 217.6,148.21543219876037 L 232.8,150.78096750303183 L 248,154.32978522199912 L 263.20000000000005,155.99937753515692 L 278.40000000000003,154.44303648736673 L 293.59999999999997,150.91612055952825 L 308.8,148.26347139333632 L 324,148.6247393130941 L 339.2,151.7085224132945 L 354.4,155.02741391790443 L 369.6,155.90436652844517 L 384.8,153.63202249800605 L 400,150.04327465826043 L 415.2,148.03283881898025 L 430.40000000000003,149.22235034391096 L 445.6,152.65233869600667 L 460.79999999999995,155.5561448751051 L 476,155.5915330846268 L 491.2,152.7299588811735 L 506.40000000000003,149.27959337552434 L 521.6,148.02353196047304 L 536.8000000000001,149.97492490417866 L 552,153.55976136568378 L 567.1999999999999,155.88648048756653 L 582.4,155.07833000754198 L 597.6,151.787171264346 L 612.8000000000001,148.66768206534263 L 628,148.23607004227455 L 643.1999999999999,150.84047727774382 L 658.4,154.38016581627136 L 673.6,155.99999151519415 L 688.8,154.39338861143003 L 704,150.85625724431034 L 719.2,148.2416789193798 L 734.4,148.65859568300962 L 749.6,151.77071877908486 L 764.8,155.06778213976057 L 780,155.8903452408888"
      stroke="url(#thread-11)"
      stroke-width="7.412"
      stroke-linecap="round"
      fill="none"
      opacity="0.8263157894736842"
      class="thread"
      style="animation-delay: 1.1s"
    >
      <title>2026-01-18: 3706 stars, JavaScript, Shell, Vue, TypeScript, Python, HTML</title>
    </path>

    <path
      d="M 20,162.88233800720428 L 35.2,167.83700896529592 L 50.400000000000006,165.14273493207529 L 65.6,160.17045823736734 L 80.80000000000001,162.83224092308907 L 96,167.8219110396676 L 111.2,165.19273335877898 L 126.4,160.18588287776961 L 141.60000000000002,162.78234328871497 L 156.79999999999998,167.80616034311896 L 172,165.24252807020926 L 187.2,160.20195895791454 L 202.4,162.73265362644796 L 217.6,167.7897595658216 L 232.8,165.29211056157908 L 248,160.218683732056 L 263.20000000000005,162.68318042313308 L 278.40000000000003,167.772711508979 L 293.59999999999997,165.3414723643479 L 308.8,160.23605434365277 L 324,162.63393212864472 L 339.2,167.75501908434802 L 354.4,165.39060504766815 L 369.6,160.25406782585662 L 384.8,162.58491715444362 L 400,167.73668531374167 L 415.2,165.43950021982516 L 430.40000000000003,160.27272110201892 L 445.6,162.53614387214012 L 460.79999999999995,167.71771332851281 L 476,165.4881495296705 L 491.2,160.29201098621613 L 506.40000000000003,162.4876206120642 L 521.6,167.69810636901957 L 536.8000000000001,165.53654466804812 L 552,160.31193418379405 L 567.1999999999999,162.43935566184285 L 582.4,167.67786778407168 L 597.6,165.584677369214 L 612.8000000000001,160.33248729193036 L 628,162.3913572649846 L 643.1999999999999,167.6570010303586 L 658.4,165.6325394122473 L 673.6,160.35366680021596 L 688.8,162.34363361947135 L 704,167.6355096718592 L 719.2,165.68012262245492 L 734.4,160.37546909125447 L 749.6,162.29619287635833 L 764.8,167.61339737923294 L 780,165.72741887276757"
      stroke="url(#thread-12)"
      stroke-width="8"
      stroke-linecap="round"
      fill="none"
      opacity="0.8105263157894738"
      class="thread"
      style="animation-delay: 1.2000000000000002s"
    >
      <title>2026-01-17: 6237 stars, JavaScript, TypeScript, Shell, Python</title>
    </path>

    <path
      d="M 20,176.86047995235126 L 35.2,179.98508772903185 L 50.400000000000006,176.17619561582677 L 65.6,172.0607475706071 L 80.80000000000001,174.79905235156747 L 96,179.62683946123641 L 111.2,178.14442897552522 L 126.4,172.93100951920752 L 141.60000000000002,173.05720780972533 L 156.79999999999998,178.30345632613432 L 172,179.54201034004646 L 187.2,174.61795766307597 L 202.4,172.09846695373074 L 217.6,176.3671025758641 L 232.8,179.9970306356049 L 248,176.6726798045849 L 263.20000000000005,172.1779594188272 L 278.40000000000003,174.33305950142295 L 293.59999999999997,179.38840483561768 L 308.8,178.54839575051312 L 324,173.27453153924793 L 339.2,172.74260440877623 L 354.4,177.87809378422696 L 369.6,179.7459604794372 L 384.8,175.0963755304891 L 400,172.01897181966243 L 415.2,175.86800494708027 L 430.40000000000003,179.94669115797157 L 445.6,177.15868218675791 L 460.79999999999995,172.35472692764407 L 476,173.8930411903917 L 491.2,179.09717153241596 L 506.40000000000003,178.91265300668238 L 521.6,173.66052225399952 L 536.8000000000001,172.47875827796602 L 552,177.42346647822126 L 567.1999999999999,179.89154045080272 L 582.4,175.5888738219768 L 597.6,172.0015097169288 L 612.8000000000001,175.37096408677002 L 628,179.8348536940944 L 643.1999999999999,177.62662979384723 L 658.4,172.5882956768635 L 673.6,173.48585385566525 L 688.8,178.75767759652933 L 704,179.23152482797252 L 719.2,174.0829670931005 L 734.4,172.26978071079944 L 749.6,176.94665848505448 L 764.8,179.9764818032514 L 780,176.08777834872043"
      stroke="url(#thread-13)"
      stroke-width="8"
      stroke-linecap="round"
      fill="none"
      opacity="0.7947368421052632"
      class="thread"
      style="animation-delay: 1.3s"
    >
      <title>2026-01-16: 5731 stars, JavaScript, TypeScript, Shell, Python, C</title>
    </path>

    <path
      d="M 20,190.62794639487515 L 35.2,191.98461249551517 L 50.400000000000006,190.0611062984039 L 65.6,186.44087707230184 L 80.80000000000001,184.10413321447098 L 96,184.97450531082762 L 111.2,188.335494469091 L 126.4,191.4203012721568 L 141.60000000000002,191.6894823410967 L 156.79999999999998,188.9214451656203 L 172,185.39486524362425 L 187.2,184.01285794177403 L 202.4,185.9131052986421 L 217.6,189.53130495210684 L 232.8,191.88891926911447 L 248,191.0451368959551 L 263.20000000000005,187.6945678025777 L 278.40000000000003,184.59543350592233 L 293.59999999999997,184.29897191892073 L 308.8,187.04923314333925 L 324,190.58217501947706 L 339.2,191.9894449572853 L 354.4,190.11256446716118 L 369.6,186.49660007610686 L 384.8,184.1182493271184 L 400,184.93539400919 L 415.2,188.2753525623449 L 430.40000000000003,191.38863817098257 L 445.6,191.71236342260428 L 460.79999999999995,188.980034497887 L 476,185.44093151059081 L 491.2,184.0084789382236 L 506.40000000000003,185.86188586347782 L 521.6,189.4754094294203 L 536.8000000000001,191.87436140435545 L 552,191.08390086694533 L 567.1999999999999,187.7547427261545 L 582.4,184.62748279162474 L 597.6,184.27651227872713 L 612.8000000000001,186.99075357452688 L 628,190.53581647974724 L 643.1999999999999,191.99337025367564 L 658.4,190.16354225697663 L 673.6,186.55266494008984 L 688.8,184.13324811639404 L 704,184.89697957252665 L 719.2,188.21514804280068 L 734.4,191.35620452271064 L 749.6,191.73440034468365 L 764.8,189.03840097876036 L 780,185.48757968766338"
      stroke="url(#thread-14)"
      stroke-width="7.494"
      stroke-linecap="round"
      fill="none"
      opacity="0.7789473684210526"
      class="thread"
      style="animation-delay: 1.4000000000000001s"
    >
      <title>2026-01-15: 3747 stars, TypeScript, Shell, Python, JavaScript, C</title>
    </path>

    <path
      d="M 20,203.75199990709896 L 35.2,203.17928831013 L 50.400000000000006,199.6510469335133 L 65.6,196.44719928250328 L 80.80000000000001,196.5461059895232 L 96,199.8558214084129 L 111.2,203.29956811967256 L 126.4,203.67597054303093 L 141.60000000000002,200.63511748363896 L 156.79999999999998,197.00384655289858 L 172,196.15785958306466 L 187.2,198.88360292270252 L 202.4,202.64717123636092 L 217.6,203.94987640779874 L 232.8,201.58069774536685 L 248,197.74207095387783 L 263.20000000000005,196.0024600065583 L 278.40000000000003,197.97904191230742 L 293.59999999999997,201.83434673619013 L 308.8,203.9844062736559 L 324,202.43048232573474 L 339.2,198.6171335657484 L 354.4,196.0893250050209 L 369.6,197.19695786348072 L 384.8,200.91035455961887 L 400,203.77746751281404 L 415.2,203.1329713772074 L 430.40000000000003,199.5760026059429 L 445.6,196.4131902629067 L 460.79999999999995,196.5847477403528 L 476,199.93119178792688 L 491.2,203.34160132086393 L 506.40000000000003,203.64559166430644 L 521.6,200.56056733614378 L 536.8000000000001,196.95442843960683 L 552,196.17951356704722 L 567.1999999999999,198.95619902886259 L 582.4,202.70322267749552 L 597.6,203.93727664706515 L 612.8000000000001,201.5111597714695 L 628,197.68023865331645 L 643.1999999999999,196.00581391831736 L 658.4,198.0444641731687 L 673.6,201.90101950852272 L 688.8,203.99034921944113 L 704,202.3701707641215 L 719.2,198.546634326485 L 734.4,196.07417558605044 L 749.6,197.2512414666219 L 764.8,200.98360806546248 L 780,203.80159300230866"
      stroke="url(#thread-15)"
      stroke-width="8"
      stroke-linecap="round"
      fill="none"
      opacity="0.763157894736842"
      class="thread"
      style="animation-delay: 1.5s"
    >
      <title>2026-01-14: 4003 stars, TypeScript, Shell, Python, C, HTML, Jupyter Notebook</title>
    </path>

    <path
      d="M 20,215.95743298649353 L 35.2,212.62078400772958 L 50.400000000000006,208.41166228480876 L 65.6,209.245722754652 L 80.80000000000001,213.95074606583253 L 96,215.914118896301 L 111.2,212.37644464454561 L 126.4,208.30970120292648 L 141.60000000000002,209.42943981972417 L 156.79999999999998,214.1619385375885 L 172,215.8559690843945 L 187.2,212.13067843968028 L 202.4,208.22172749532822 L 217.6,209.62290010325597 L 232.8,214.36493659334536 L 248,215.78320395655373 L 263.20000000000005,211.88441692309434 L 278.40000000000003,208.14807460958642 L 293.59999999999997,209.82537033091276 L 308.8,214.5589708076606 L 324,215.696099315128 L 339.2,211.63859350213332 L 354.4,208.0890217129275 L 369.6,210.03608307788397 L 384.8,214.74330573082437 L 400,215.59498531366003 L 415.2,211.39413992362466 L 430.40000000000003,208.0447926341018 L 445.6,210.25423967766028 L 460.79999999999995,214.91724267644145 L 476,215.48024520550183 L 491.2,211.15198274226924 L 506.40000000000003,208.01555501500337 L 521.6,210.47901324922714 L 536.8000000000001,215.08012236966883 L 552,215.35231389116592 L 567.1999999999999,210.913039808712 L 582.4,208.0014196752552 L 597.6,210.70955183119932 L 612.8000000000001,215.23132744607128 L 628,215.21167626991777 L 643.1999999999999,210.67821679060435 L 658.4,208.00244019216862 L 673.6,210.9449816110186 L 688.8,215.3702847916238 L 704,215.05886540185776 L 719.2,210.4484037398431 L 734.4,208.0186126976688 L 749.6,211.1844102369733 L 764.8,215.49646771499084 L 780,214.89446048745808"
      stroke="url(#thread-16)"
      stroke-width="8"
      stroke-linecap="round"
      fill="none"
      opacity="0.7473684210526317"
      class="thread"
      style="animation-delay: 1.6s"
    >
      <title>2026-01-13: 5049 stars, TypeScript, Shell, C, Rust, Python</title>
    </path>

    <path
      d="M 20,227.19394845049396 L 35.2,224.01465194618186 L 50.400000000000006,220.82377843257063 L 65.6,220.1425474037059 L 80.80000000000001,222.509223050442 L 96,226.05381311166886 L 111.2,227.97561441860074 L 126.4,226.75614530844203 L 141.60000000000002,223.35895049075373 L 156.79999999999998,220.46827105591146 L 172,220.3681327765047 L 187.2,223.13765836957734 L 202.4,226.58854990206265 L 217.6,227.9941386525508 L 232.8,226.24382034819126 L 248,222.7205820020738 L 263.20000000000005,220.20825605459717 L 278.40000000000003,220.69191810564195 L 293.59999999999997,223.78941004507854 L 308.8,227.05329638947455 L 324,227.90466768261422 L 339.2,225.67082602789392 L 354.4,222.11680695632654 L 369.6,220.05076382379514 L 384.8,221.105148746956 L 400,224.44685574051658 L 415.2,227.435486562549 L 430.40000000000003,227.70962066257638 L 445.6,225.05265520942308 L 460.79999999999995,221.56395047760984 L 476,220.00005270480378 L 491.2,221.59665159624512 L 506.40000000000003,225.09221916215225 L 521.6,227.72478660234395 L 536.8000000000001,227.41427135595143 L 552,224.40602225584556 L 567.1999999999999,221.07696093235083 L 582.4,220.0574938462264 L 597.6,222.15313719236707 L 612.8000000000001,225.70805070185625 L 628,227.91337429248196 L 643.1999999999999,227.0266055417424 L 658.4,223.74841110143004 L 673.6,220.66900574907564 L 688.8,220.22153413027743 L 704,222.75955904328916 L 719.2,226.27769924696705 L 734.4,227.99615051953236 L 749.6,226.5571050915835 L 764.8,223.09760251366532 L 780,220.35111539192854"
      stroke="url(#thread-17)"
      stroke-width="7.33"
      stroke-linecap="round"
      fill="none"
      opacity="0.7315789473684211"
      class="thread"
      style="animation-delay: 1.7000000000000002s"
    >
      <title>2026-01-12: 3665 stars, TypeScript, Unknown, Python, Shell, C</title>
    </path>

    <path
      d="M 20,237.64847394096702 L 35.2,234.24443150527122 L 50.400000000000006,232.11208352237853 L 65.6,232.79605505786319 L 80.80000000000001,235.80089246798377 L 96,238.94995890974658 L 111.2,239.9621412636565 L 126.4,238.10423732851353 L 141.60000000000002,234.72207105550874 L 156.79999999999998,232.26560785513576 L 172,232.51425458893772 L 187.2,235.2878971383069 L 202.4,238.57737103333952 L 217.6,239.99985514372142 L 232.8,238.52493387598258 L 248,235.22100712459397 L 263.20000000000005,232.4813653449404 L 278.40000000000003,232.29054361173647 L 293.59999999999997,234.7867689097556 L 308.8,238.16183160549784 L 324,239.97091196055632 L 339.2,238.90355273039137 L 354.4,235.73292500814148 L 369.6,232.75576042142217 L 384.8,232.1286502404577 L 400,234.30585901876637 L 415.2,237.71026553647974 L 430.40000000000003,239.875794048526 L 445.6,239.23378425801272 L 460.79999999999995,236.24929366152435 L 476,233.0842203264921 L 491.2,232.03127240697597 L 506.40000000000003,233.85318176582257 L 521.6,237.23019811581042 L 536.8000000000001,239.71608653520352 L 552,239.51012519359674 L 567.1999999999999,236.761507868618 L 582.4,233.4612713187585 L 597.6,232.00003290016 L 612.8000000000001,233.43628095818417 L 628,236.72962960431533 L 643.1999999999999,239.49445092542626 L 658.4,239.72797035156685 L 673.6,237.26103164660245 L 688.8,233.88062989271202 L 704,232.0354523223082 L 719.2,233.0621041933259 L 734.4,236.21690191081942 L 749.6,239.2145807476657 L 764.8,239.88368937083555 L 780,237.73954049700018"
      stroke="url(#thread-18)"
      stroke-width="6.996"
      stroke-linecap="round"
      fill="none"
      opacity="0.7157894736842105"
      class="thread"
      style="animation-delay: 1.8s"
    >
      <title>2026-01-11: 3498 stars, TypeScript, Unknown, Shell, Python</title>
    </path>

    <path
      d="M 20,247.69939551815276 L 35.2,244.53859962767055 L 50.400000000000006,244.39072668198932 L 65.6,247.38449042209086 L 80.80000000000001,250.91401504811938 L 96,251.90707990192408 L 111.2,249.49928688970974 L 126.4,245.78646256503677 L 141.60000000000002,244.00037800161496 L 156.79999999999998,245.69570315484933 L 172,249.39676820800594 L 187.2,251.88203776518026 L 202.4,250.98824700075872 L 217.6,247.49338239775676 L 232.8,244.4394953280794 L 248,244.4847950230586 L 263.20000000000005,247.58985105693765 L 278.40000000000003,251.0519149571176 L 293.59999999999997,251.8574862211415 L 308.8,249.3053676790858 L 324,245.6170118317014 L 339.2,244.0028915413625 L 354.4,245.86799309549988 L 369.6,249.58886740923847 L 384.8,251.9267364191672 L 400,250.8466378486705 L 415.2,247.2887269573684 L 430.40000000000003,244.3499327933003 L 445.6,244.58828373069014 L 460.79999999999995,247.79631084629008 L 476,251.18163606635832 L 491.2,251.79755489733375 L 506.40000000000003,249.10795022522532 L 521.6,245.4539472471699 L 536.8000000000001,244.01611689652802 L 552,246.04599658249705 L 567.1999999999999,249.77670861882845 L 582.4,251.96091184713904 L 597.6,250.69740001712256 L 612.8000000000001,247.08597765128275 L 628,244.27015204117384 L 643.1999999999999,244.70091546641646 L 658.4,248.00331650039445 L 673.6,251.30283073739432 L 688.8,251.7274465399226 L 704,248.90756358540764 L 719.2,245.29770580677248 L 734.4,244.0400186245998 L 749.6,246.22923658587877 L 764.8,249.9597884427884 L 780,251.9844724626702"
      stroke="url(#thread-19)"
      stroke-width="7.724"
      stroke-linecap="round"
      fill="none"
      opacity="0.7"
      class="thread"
      style="animation-delay: 1.9000000000000001s"
    >
      <title>2026-01-10: 3862 stars, TypeScript, Unknown, Shell, Python</title>
    </path>

    <path
      d="M 20,257.8239155564425 L 35.2,256.0003191699209 L 50.400000000000006,257.739820655412 L 65.6,261.49279285399246 L 80.80000000000001,263.9159171803587 L 96,262.8505641093826 L 111.2,259.24579868435217 L 126.4,256.3129101457584 L 141.60000000000002,256.6646491991389 L 156.79999999999998,259.98767067375434 L 172,263.32167567379986 L 187.2,263.69658067870927 L 202.4,260.7784032328942 L 217.6,257.1667887303432 L 232.8,256.07912788178345 L 248,258.4843585149111 L 263.20000000000005,262.23979162160657 L 278.40000000000003,263.9999163275213 L 293.59999999999997,262.19673336957464 L 308.8,258.4366002630942 L 324,256.0692148563257 L 339.2,257.2035519058684 L 354.4,260.8290922980532 L 369.6,263.71603950533205 L 384.8,263.2925694527661 L 400,259.93592855257197 L 415.2,256.6363654162511 L 430.40000000000003,256.33328118330996 L 445.6,259.2966770941755 L 460.79999999999995,262.88662508645587 L 476,263.90503596369945 L 491.2,261.4446629270486 L 506.40000000000003,257.69731834946083 L 521.6,256.0013074751168 L 536.8000000000001,257.867514045499 L 552,261.6334362405475 L 567.1999999999999,263.9442190282228 L 582.4,262.74131184330713 L 597.6,259.09631919948305 L 612.8000000000001,256.25636657612404 L 628,256.75141313217324 L 643.1999999999999,260.1404488457456 L 658.4,263.40436632997347 L 673.6,263.63551921592193 L 688.8,260.6279859835941 L 704,257.06101423182974 L 719.2,256.11222487544325 L 734.4,258.62684269119814 L 749.6,262.36473158601916 L 764.8,263.99600986864795 L 780,262.067460538922"
      stroke="url(#thread-20)"
      stroke-width="7.822"
      stroke-linecap="round"
      fill="none"
      opacity="0.6842105263157895"
      class="thread"
      style="animation-delay: 2s"
    >
      <title>2026-01-09: 3911 stars, TypeScript, Unknown, Python, Shell</title>
    </path>

    <path
      d="M 20,268.48121696011333 L 35.2,268.4015763297229 L 50.400000000000006,271.3179020600559 L 65.6,274.8021271457847 L 80.80000000000001,275.9533643911477 L 96,273.813119639715 L 111.2,270.1633123836163 L 126.4,268.04268979782046 L 141.60000000000002,269.21683440206056 L 156.79999999999998,272.7081798897384 L 172,275.60991077907914 L 187.2,275.50611140007845 L 202.4,272.48320277378474 L 217.6,269.05799041999364 L 232.8,268.0822288652927 L 248,270.36831516512535 L 263.20000000000005,274.01290544462165 L 278.40000000000003,275.9815960658269 L 293.59999999999997,274.6352996348579 L 308.8,271.09491218518093 L 324,268.30808042965316 L 339.2,268.59505761180503 L 354.4,271.7169130045173 L 369.6,275.0744602426979 L 384.8,275.8722812483653 L 400,273.4461282525308 L 415.2,269.8159615009896 L 430.40000000000003,268.00417592774255 L 445.6,269.5192233238136 L 460.79999999999995,273.09970940952877 L 476,275.76460225236565 L 491.2,275.29517219633084 L 506.40000000000003,272.0822561148614 L 521.6,268.8008554480097 L 536.8000000000001,268.1829903564775 L 552,270.7430813752855 L 567.1999999999999,274.3496544826025 L 582.4,275.99995828029193 L 597.6,274.3199870603293 L 612.8000000000001,270.7084469571715 L 628,268.1722247776272 L 643.1999999999999,268.82292188648245 L 658.4,272.11878255184473 L 673.6,275.315747544497 L 688.8,275.75209594104973 L 704,273.0645339113667 L 719.2,269.49066496495027 L 734.4,268.00601175343775 L 749.6,269.8466630441891 L 764.8,273.4801341010508 L 780,275.88127889996343"
      stroke="url(#thread-21)"
      stroke-width="7.54"
      stroke-linecap="round"
      fill="none"
      opacity="0.6684210526315789"
      class="thread"
      style="animation-delay: 2.1s"
    >
      <title>2026-01-08: 3770 stars, TypeScript, Unknown, Python, Rust, JavaScript</title>
    </path>

    <path
      d="M 20,280.0000391737972 L 35.2,281.5140508641753 L 50.400000000000006,284.8927809733762 L 65.6,287.60183321144206 L 80.80000000000001,287.609138807103 L 96,284.909217809626 L 111.2,281.52728961743264 L 126.4,280.00014941278914 L 141.60000000000002,281.47330996049266 L 156.79999999999998,284.8417488095208 L 172,287.5787891771738 L 187.2,287.63136830642514 L 202.4,284.96004642381047 L 217.6,281.56859063998047 L 232.8,280.00094281424145 L 248,281.4330006078758 L 263.20000000000005,284.79057287749833 L 278.40000000000003,287.55513389646876 L 293.59999999999997,287.6529775789531 L 308.8,285.0107110649507 L 324,281.61030693994036 L 339.2,280.00241924264355 L 354.4,281.393129691041 L 369.6,284.73926191800405 L 384.8,287.53087140957774 L 400,287.67396293388816 L 415.2,285.0612030796784 L 430.40000000000003,281.65243139229364 L 445.6,280.00457844582587 L 460.79999999999995,281.35370401982107 L 476,284.6878246947958 L 491.2,287.50600586046056 L 506.40000000000003,287.6943207869947 L 521.6,285.1115138441091 L 536.8000000000001,281.6949568023104 L 552,280.00742005500297 L 567.1999999999999,281.31473032800216 L 582.4,284.6362699931966 L 597.6,287.48054149607833 L 612.8000000000001,287.71404766121265 L 628,285.16163476531545 L 643.1999999999999,281.7378759067785 L 658.4,280.01094358483664 L 673.6,281.2762152721737 L 688.8,284.58460661859465 L 704,287.4544826656679 L 719.2,287.73314018725114 L 734.4,285.2115572827947 L 749.6,281.7811813752438 L 764.8,280.01514843351845 L 780,281.2381654305916"
      stroke="url(#thread-22)"
      stroke-width="7.128"
      stroke-linecap="round"
      fill="none"
      opacity="0.6526315789473685"
      class="thread"
      style="animation-delay: 2.2s"
    >
      <title>2026-01-07: 3564 stars, TypeScript, Python, Unknown, Shell, Rust</title>
    </path>

    <path
      d="M 20,292.49819130124627 L 35.2,295.980945572632 L 50.400000000000006,299.48323179114584 L 65.6,299.4149935396325 L 80.80000000000001,295.8461791768086 L 96,292.43504051463736 L 111.2,292.6782021805404 L 126.4,296.3264086755048 L 141.60000000000002,299.6400264227202 L 156.79999999999998,299.2223956647672 L 172,295.5016133329202 L 187.2,292.291707651564 L 202.4,292.8830272018338 L 217.6,296.66943347488535 L 232.8,299.76962971471164 L 248,299.00572619134306 L 263.20000000000005,295.1607704842891 L 278.40000000000003,292.17607608095653 L 293.59999999999997,293.1111363029616 L 308.8,297.0074575432739 L 324,299.8710735183447 L 339.2,298.766603660696 L 354.4,294.8261967590378 L 369.6,292.08900958151804 L 384.8,293.36082548749334 L 400,297.33795580910135 L 415.2,299.94360003886936 L 430.40000000000003,298.5068143406103 L 445.6,294.5003914543478 L 460.79999999999995,292.0311585481847 L 476,293.630229553747 L 491.2,297.6584594192513 L 506.40000000000003,299.98666749635896 L 521.6,298.22829888173027 L 536.8000000000001,294.1857883664746 L 552,292.0029551336141 L 567.1999999999999,293.9173360280203 L 582.4,297.96657418162476 L 597.6,299.9999541728572 L 612.8000000000001,297.93313782071743 L 628,293.88473761006105 L 643.1999999999999,292.0046100199645 L 658.4,294.2200001979592 L 673.6,298.25999844998034 L 688.8,299.9833608156415 L 704,297.6235360384462 L 719.2,293.59948806255983 L 734.4,292.0361108450794 L 749.6,294.5359611337603 L 764.8,298.53654031744827 L 780,299.93701137865025"
      stroke="url(#thread-23)"
      stroke-width="8"
      stroke-linecap="round"
      fill="none"
      opacity="0.6368421052631579"
      class="thread"
      style="animation-delay: 2.3000000000000003s"
    >
      <title>2026-01-06: 4224 stars, TypeScript, Python, Rust, JavaScript, Go</title>
    </path>

    <path
      d="M 20,305.8537083279983 L 35.2,309.4822916203683 L 50.400000000000006,311.88038024576963 L 65.6,311.05724901630623 L 80.80000000000001,307.6962038173735 L 96,304.5873489279795 L 111.2,304.31143789837927 L 126.4,307.09751273745667 L 141.60000000000002,310.6327692816096 L 156.79999999999998,311.98248519673666 L 172,310.02622087927733 L 187.2,306.3879299269836 L 202.4,304.0878666219146 L 217.6,305.03538239781494 L 232.8,308.44391603212 L 248,311.48394167339615 L 263.20000000000005,311.63184299160645 L 278.40000000000003,308.764842673033 L 293.59999999999997,305.2629235454311 L 308.8,304.03313355500643 L 324,306.0963582035829 L 339.2,309.7398529192113 L 354.4,311.9390436200417 L 369.6,310.86831624212465 L 384.8,307.4165136489021 L 400,304.44908055045994 L 415.2,304.42937203296674 L 430.40000000000003,307.3737487270407 L 445.6,310.83799535829155 L 460.79999999999995,311.9463370479818 L 476,309.77870616596186 L 491.2,306.134518025407 L 506.40000000000003,304.03892234096577 L 521.6,305.23153585093354 L 536.8000000000001,308.7223343633057 L 552,311.61350148762824 L 567.1999999999999,311.5049928069259 L 582.4,308.4868846267579 L 597.6,305.06459893629284 L 612.8000000000001,304.0790775806409 L 628,306.34843135234104 L 643.1999999999999,309.98880172101286 L 658.4,311.9782082187857 L 673.6,310.6651849314597 L 688.8,307.1397118133564 L 704,304.32838968361136 L 719.2,304.5649812379366 L 734.4,307.6530847414463 L 749.6,311.0291729907879 L 764.8,311.89065402028706 L 780,309.52238662700694"
      stroke="url(#thread-24)"
      stroke-width="7.528"
      stroke-linecap="round"
      fill="none"
      opacity="0.6210526315789474"
      class="thread"
      style="animation-delay: 2.4000000000000004s"
    >
      <title>2026-01-05: 3764 stars, Go, TypeScript, Python, Rust, JavaScript</title>
    </path>

    <path
      d="M 20,319.7347124105952 L 35.2,323.17162939506545 L 50.400000000000006,323.7884191225862 L 65.6,321.0366488143801 L 80.80000000000001,317.3631183592078 L 96,316.0342318905358 L 111.2,318.2315993901368 L 126.4,322.00138098352835 L 141.60000000000002,323.99158862292325 L 156.79999999999998,322.4325833903637 L 172,318.7105906616482 L 187.2,316.13510591589835 L 202.4,316.99618067762304 L 217.6,320.52817050879645 L 232.8,323.5905253786811 L 248,323.46028198883795 L 263.20000000000005,320.2532492462931 L 278.40000000000003,316.8210341090509 L 293.59999999999997,316.2154696428886 L 308.8,318.9750074271493 L 324,322.645940943006 L 339.2,323.9641751853412 L 354.4,321.75757184454113 L 369.6,317.98818305581034 L 384.8,316.0076475956334 L 400,317.57700414125617 L 415.2,321.3008232086825 L 430.40000000000003,323.8679853877014 L 445.6,322.99583935551806 L 460.79999999999995,319.45987382504046 L 476,316.40417391152465 L 491.2,316.5457855058214 L 506.40000000000003,319.75879140032833 L 521.6,323.1862734715295 L 536.8000000000001,323.7806071682277 L 552,321.01332700817284 L 567.1999999999999,317.3450238217841 L 582.4,316.0374537962077 L 597.6,318.253272907339 L 612.8000000000001,322.02223460572515 L 628,323.993079872089 L 643.1999999999999,322.41338628798854 L 658.4,318.6877747530412 L 673.6,316.1289584911996 L 688.8,317.0121678609579 L 704,320.5520769282319 L 719.2,323.60109409128086 L 734.4,323.4481155806041 L 749.6,320.22916575906015 L 764.8,316.8064479296618 L 780,316.22335040838027"
      stroke="url(#thread-25)"
      stroke-width="7.814"
      stroke-linecap="round"
      fill="none"
      opacity="0.6052631578947368"
      class="thread"
      style="animation-delay: 2.5s"
    >
      <title>2026-01-04: 3907 stars, Python, Jupyter Notebook, TypeScript, Go, Rust</title>
    </path>

    <path
      d="M 20,333.68066814730656 L 35.2,335.949225175109 L 50.400000000000006,334.7342604869048 L 65.6,331.10746680414627 L 80.80000000000001,328.2679563559851 L 96,328.7203967342672 L 111.2,332.0657005704429 L 126.4,335.3530514275547 L 141.60000000000002,335.68275187354465 L 156.79999999999998,332.7639806428587 L 172,329.1713194611057 L 187.2,328.07377305452167 L 202.4,330.43946214859926 L 217.6,334.18166619256317 L 232.8,335.99947210223695 L 248,334.2894346241706 L 263.20000000000005,330.55993892909953 L 278.40000000000003,328.10068835564755 L 293.59999999999997,329.080931907826 L 308.8,332.63601904038086 L 324,335.6300882413868 L 339.2,335.42213915799795 L 354.4,332.1955989476158 L 369.6,328.79652535373805 L 384.8,328.223163893791 L 400,330.9812636725448 L 415.2,334.6379675982442 L 430.40000000000003,335.96778029664057 L 445.6,333.79770422829694 L 460.79999999999995,330.0419141425052 L 476,328.0133070619723 L 491.2,329.5012711590468 L 506.40000000000003,333.19330714210395 L 521.6,335.83275403260063 L 536.8000000000001,335.09141575317904 L 552,331.6232099410377 L 567.1999999999999,328.48736207116906 L 582.4,328.4499322359756 L 597.6,331.5439364418742 L 612.8000000000001,335.0402239408663 L 628,335.8547990406056 L 643.1999999999999,333.2691435702001 L 658.4,329.564005418638 L 673.6,328.00760268933874 L 688.8,329.9728028350215 L 704,333.72614749860577 L 719.2,335.9568967087014 L 734.4,334.69735731747005 L 749.6,331.05854037821257 L 764.8,328.2501635612126 L 780,328.74943219029143"
      stroke="url(#thread-26)"
      stroke-width="7.78"
      stroke-linecap="round"
      fill="none"
      opacity="0.5894736842105264"
      class="thread"
      style="animation-delay: 2.6s"
    >
      <title>2026-01-03: 3890 stars, Go, Python, Jupyter Notebook, TypeScript, Rust, JavaScript</title>
    </path>

    <path
      d="M 20,347.21513770620646 L 35.2,347.9988648731444 L 50.400000000000006,347.0981436872395 L 65.6,344.89238639824237 L 80.80000000000001,342.31072773565444 L 96,340.440643975807 L 111.2,340.0698735416981 L 126.4,341.35459666617623 L 141.60000000000002,343.7536473385018 L 156.79999999999998,346.25646954301044 L 172,347.80879541279916 L 187.2,347.7567361975875 L 202.4,346.12222088524965 L 217.6,343.5937590185946 L 232.8,341.2364187011025 L 248,340.0431862278483 L 263.20000000000005,340.51668885378893 L 278.40000000000003,342.45747229786343 L 293.59999999999997,345.04801719412603 L 308.8,347.1971041035854 L 324,347.9994696528612 L 339.2,347.1171320969507 L 354.4,344.92175991924927 L 369.6,342.33811331194073 L 384.8,340.4545059365435 L 400,340.06437279062357 L 415.2,341.3320502936103 L 430.40000000000003,343.7235525896218 L 445.6,346.2315032778224 L 460.79999999999995,347.79947421178457 L 476,347.76698644540636 L 491.2,346.14772485334584 L 506.40000000000003,343.62377362901645 L 521.6,341.2583008506969 L 536.8000000000001,340.0477184631603 L 552,340.50196205396844 L 567.1999999999999,342.42968985674526 L 582.4,345.0188819545578 L 597.6,347.17888874990564 L 612.8000000000001,347.9998470681194 L 628,347.13594330190386 L 643.1999999999999,344.9510810394473 L 658.4,342.3655933642451 L 673.6,340.46856945383826 L 688.8,340.0590957746508 L 704,341.30965559038884 L 719.2,343.69347355640446 L 734.4,346.20641015468107 L 749.6,347.7899370157826 L 764.8,347.77702254512354 L 780,346.17310672617924"
      stroke="url(#thread-27)"
      stroke-width="5.26"
      stroke-linecap="round"
      fill="none"
      opacity="0.5736842105263158"
      class="thread"
      style="animation-delay: 2.7s"
    >
      <title>2026-01-02: 2630 stars, TypeScript, Rust, Python, JavaScript, Jupyter Notebook, Shell</title>
    </path>

    <path
      d="M 20,359.9624294227795 L 35.2,358.80900422953636 L 50.400000000000006,355.3988689655976 L 65.6,352.471672974188 L 80.80000000000001,352.3790797392049 L 96,355.19547721765724 L 111.2,358.6582157182862 L 126.4,359.9853852801215 L 141.60000000000002,358.1107586315122 L 156.79999999999998,354.540381506469 L 172,352.1426390535596 L 187.2,352.84384006346477 L 202.4,356.08065061023444 L 217.6,359.252667717959 L 232.8,359.81154244641556 L 248,357.3082835784661 L 263.20000000000005,353.7539701425648 L 278.40000000000003,352.0040819706275 L 293.59999999999997,353.4644518551715 L 308.8,356.96184146827335 L 324,359.6865026870775 L 339.2,359.4494852967514 L 354.4,356.4412053621962 L 369.6,353.0784679392386 L 384.8,352.06284368686835 L 400,354.2102692470695 L 415.2,357.7955365062981 L 430.40000000000003,359.9382978150343 L 445.6,358.9170922464214 L 460.79999999999995,355.5523403846319 L 476,352.54723125731124 L 491.2,352.31602254333916 L 506.40000000000003,355.04446370787025 L 521.6,358.54056778678586 L 536.8000000000001,359.99561943529244 L 552,358.24065291313224 L 567.1999999999999,354.68558087997616 L 582.4,352.1864926129116 L 597.6,352.75111654486176 L 612.8000000000001,355.9258426385082 L 628,359.16014559670157 L 643.1999999999999,359.85563700098066 L 658.4,357.4535699332685 L 673.6,353.88372751214973 L 688.8,352.01406531342104 L 704,353.34664070969325 L 719.2,356.8108834664654 L 734.4,359.6236751269054 L 749.6,359.5252628575577 L 764.8,356.59470953664135 L 780,353.1863758740775"
      stroke="url(#thread-28)"
      stroke-width="7.396"
      stroke-linecap="round"
      fill="none"
      opacity="0.5578947368421053"
      class="thread"
      style="animation-delay: 2.8000000000000003s"
    >
      <title>2026-01-01: 3698 stars, Rust, Python, JavaScript, TypeScript, Jupyter Notebook, Go, Shell</title>
    </path>

    <path
      d="M 20,371.7395802220987 L 35.2,369.0950309468365 L 50.400000000000006,365.56854472353047 L 65.6,364.0003504115441 L 80.80000000000001,365.65347031125043 L 96,369.1964831296627 L 111.2,371.77584950245694 L 126.4,371.3141500532393 L 141.60000000000002,368.18323710667045 L 156.79999999999998,364.90474515779835 L 172,364.11916869851643 L 187.2,366.45921030856067 L 202.4,370.0402025620285 L 217.6,371.9780174914719 L 232.8,370.71194068084225 L 248,367.2616692643453 L 263.20000000000005,364.4060487639083 L 278.40000000000003,364.44499338396776 L 293.59999999999997,367.34713716225826 L 308.8,370.7750960878491 L 324,371.96799509909073 L 339.2,369.9650743961452 L 354.4,366.3794845269791 L 369.6,364.0990563746237 L 384.8,364.96044473932164 L 400,368.2698882003233 L 415.2,371.3619639454683 L 430.40000000000003,371.7463169271008 L 445.6,369.1133895965764 L 460.79999999999995,365.58373927787966 L 476,364.0001431899802 L 491.2,365.6380282098362 L 506.40000000000003,369.178243203106 L 521.6,371.76950217134043 L 536.8000000000001,371.32480745238365 L 552,368.202315776309 L 567.1999999999999,364.9168791544184 L 582.4,364.11458531206114 L 597.6,366.44160099439375 L 612.8000000000001,370.02374984607616 L 628,371.97597237648984 L 643.1999999999999,370.7259503006132 L 658.4,367.2804502835994 L 673.6,364.41447496648703 L 688.8,364.43627831382867 L 704,367.32829992911934 L 719.2,370.76130818248157 L 734.4,371.97036128818166 L 749.6,369.9816889531109 L 764.8,366.3969661024562 L 780,364.10332532331273"
      stroke="url(#thread-29)"
      stroke-width="7.406"
      stroke-linecap="round"
      fill="none"
      opacity="0.5421052631578948"
      class="thread"
      style="animation-delay: 2.9000000000000004s"
    >
      <title>2025-12-31: 3703 stars, Go, Python, TypeScript, Rust, Shell</title>
    </path>

    <path
      d="M 20,382.6011513606285 L 35.2,378.52927449110484 L 50.400000000000006,376.02408963005945 L 65.6,377.75424777852714 L 80.80000000000001,381.87669601588226 L 96,383.99999170393914 L 111.2,381.86229171425845 L 126.4,377.74078337384356 L 141.60000000000002,376.02590809460366 L 156.79999999999998,378.5444387034685 L 172,382.613507626474 L 187.2,383.89853460029923 L 202.4,381.0306431905621 L 217.6,377.06485795870776 L 232.8,376.2257360994739 L 248,379.40715312059456 L 263.20000000000005,383.2201009491964 L 278.40000000000003,383.6028326068766 L 293.59999999999997,380.1476427632708 L 308.8,376.53517629943445 L 324,376.61361719365425 L 339.2,380.29940619481994 L 354.4,383.6662524089896 L 369.6,383.1276191060853 L 384.8,379.2572860200253 L 400,376.17812983949506 L 415.2,377.17022516149893 L 430.40000000000003,381.1767413244134 L 445.6,383.92973246321276 L 460.79999999999995,382.4965716597656 L 476,378.40393507766936 L 491.2,376.0115084556943 L 506.40000000000003,377.86782695342623 L 521.6,381.99544519577825 L 536.8000000000001,383.99741319090595 L 552,381.7411322722153 L 567.1999999999999,377.6301082351894 L 582.4,376.0436140757179 L 597.6,378.671664487983 L 612.8000000000001,382.7147258038246 L 628,383.86592239281 L 643.1999999999999,380.89894078907304 L 658.4,376.9743614950683 L 673.6,376.27284703372675 L 688.8,379.5416864768489 L 704,383.2987449178436 L 719.2,383.54181161154327 L 734.4,380.0119594881153 L 749.6,376.46936750647285 L 764.8,376.6877857738727 L 780,380.43454398442066"
      stroke="url(#thread-30)"
      stroke-width="8"
      stroke-linecap="round"
      fill="none"
      opacity="0.5263157894736842"
      class="thread"
      style="animation-delay: 3s"
    >
      <title>2025-12-30: 4315 stars, Go, Shell, Rust, Python, Swift, TypeScript</title>
    </path>

    <path
      d="M 20,392.82586992775117 L 35.2,389.68926567606076 L 50.400000000000006,388.0343027755447 L 65.6,388.9221423656125 L 80.80000000000001,391.78350227642494 L 96,394.7836803873051 L 111.2,395.99896443764555 L 126.4,394.65011508186143 L 141.60000000000002,391.602013652839 L 156.79999999999998,388.80910081172453 L 172,388.06219046245775 L 187.2,389.8402010369972 L 202.4,393.00307330708335 L 217.6,395.52277562265033 L 232.8,395.7836764917015 L 248,393.6184864460627 L 263.20000000000005,390.41552393997347 L 278.40000000000003,388.2285264568467 L 293.59999999999997,388.4597953657082 L 308.8,390.9610411920562 L 324,394.1284667328216 L 339.2,395.93112078372945 L 354.4,395.21314273544164 L 369.6,392.4348996472768 L 384.8,389.37779918708924 L 400,388.002052188977 L 415.2,389.18978673665777 L 430.40000000000003,392.1794282078002 L 445.6,395.054020428369 L 460.79999999999995,395.9703767292459 L 476,394.34093004409954 L 491.2,391.2104805315786 L 506.40000000000003,388.58627039060775 L 521.6,388.15094146311253 L 536.8000000000001,390.18362637531357 L 552,393.38096887866936 L 567.1999999999999,395.6928350318781 L 582.4,395.6368577555711 L 597.6,393.24892964304377 L 612.8000000000001,390.0601886526921 L 628,388.1152534412536 L 643.1999999999999,388.66121520600177 L 658.4,391.34800361715844 L 673.6,394.4528516865052 L 688.8,395.9849328438911 L 704,394.96187764397536 L 719.2,392.03966841801326 L 734.4,389.09202382812583 L 749.6,388.00897167530115 L 764.8,389.4849642981222 L 780,392.5735961832663"
      stroke="url(#thread-31)"
      stroke-width="6.556"
      stroke-linecap="round"
      fill="none"
      opacity="0.5105263157894737"
      class="thread"
      style="animation-delay: 3.1s"
    >
      <title>2025-12-29: 3278 stars, Shell, Go, JavaScript, TypeScript, Rust, Python</title>
    </path>

    <path
      d="M 20,402.84838673333974 L 35.2,400.20936141640163 L 50.400000000000006,400.7651007834457 L 65.6,404.0472255721985 L 80.80000000000001,407.2895484682324 L 96,407.759427344404 L 111.2,405.06084648825856 L 126.4,401.4681801578399 L 141.60000000000002,400.0093412656098 L 156.79999999999998,401.91384480481565 L 172,405.57656791465496 L 187.2,407.9105535612519 L 202.4,406.9487097224515 L 217.6,403.50168206123027 L 232.8,400.4746386630999 L 248,400.4187832716914 L 263.20000000000005,403.3811910243323 L 278.40000000000003,406.8651333464118 L 293.59999999999997,407.9343303351795 L 308.8,405.687658682622 L 324,402.01862184305196 L 339.2,400.01949808588995 L 354.4,401.37515655321806 L 369.6,404.9430431081948 L 384.8,407.71612932779544 L 400,407.35724754893783 L 415.2,404.16886470629095 L 430.40000000000003,400.83816204387443 L 445.6,400.1722684936776 L 460.79999999999995,402.73240168448336 L 476,406.3608715796667 L 491.2,407.9995898855606 L 506.40000000000003,406.26743855168223 L 521.6,402.6242813415492 L 536.8000000000001,400.14058507399477 L 552,400.90961845462823 L 567.1999999999999,404.28323721143107 L 582.4,407.41814256406377 L 597.6,407.672224301452 L 612.8000000000001,404.8313413643649 L 628,401.2898007484639 L 643.1999999999999,400.0324264186411 L 658.4,402.11893826506076 L 673.6,405.7908161300655 L 688.8,407.9533873171416 L 704,406.7840285656696 L 719.2,403.2682799000329 L 734.4,400.36922773087826 L 749.6,400.53020430494416 L 764.8,403.61553795044443 L 780,407.0248976805116"
      stroke="url(#thread-32)"
      stroke-width="7.59"
      stroke-linecap="round"
      fill="none"
      opacity="0.4947368421052632"
      class="thread"
      style="animation-delay: 3.2s"
    >
      <title>2025-12-28: 3795 stars, Shell, Rust, Python, JavaScript, TypeScript</title>
    </path>

    <path
      d="M 20,413.1528586305235 L 35.2,412.6418983576448 L 50.400000000000006,417.3968765791802 L 65.6,419.9613713271149 L 80.80000000000001,416.313922547488 L 96,412.17420253752334 L 111.2,414.03382866865934 L 126.4,418.97666620999513 L 141.60000000000002,419.25170543857905 L 156.79999999999998,414.4276492063419 L 172,412.06924275272183 L 187.2,415.87477298272216 L 202.4,419.8766754018506 L 217.6,417.7994484785344 L 232.8,412.90045318099374 L 248,412.8619489131398 L 263.20000000000005,417.7443153560799 L 278.40000000000003,419.8913693045665 L 293.59999999999997,415.9362519672173 L 308.8,412.08109980529326 L 324,414.3712909322041 L 339.2,419.215508914089 L 354.4,419.01739227564445 L 369.6,414.0876135765126 L 384.8,412.1567045829964 L 400,416.25258079054106 L 415.2,419.95237759087433 L 430.40000000000003,417.4543342074163 L 445.6,412.67570634432786 L 460.79999999999995,413.1100016719332 L 476,418.07618884361204 L 491.2,419.7866428905538 L 506.40000000000003,415.5591502385441 L 521.6,412.02296713470986 L 536.8000000000001,414.72328687960805 L 552,419.4256582247908 L 567.1999999999999,418.7561536007935 L 582.4,413.76464300774603 L 597.6,412.27846182039576 L 612.8000000000001,416.6281347094174 L 628,419.9928109847931 L 643.1999999999999,417.096242275638 L 658.4,412.4806236349158 L 673.6,413.3838431506914 L 688.8,418.38953558939414 L 704,419.64812660470517 L 719.2,415.1859824052418 L 734.4,412.00032326903613 L 749.6,415.0866754969722 L 764.8,419.60523888782365 L 780,418.47032056105985"
      stroke="url(#thread-33)"
      stroke-width="8"
      stroke-linecap="round"
      fill="none"
      opacity="0.4789473684210526"
      class="thread"
      style="animation-delay: 3.3000000000000003s"
    >
      <title>2025-12-27: 5384 stars, Shell, Python, Rust, C, Go</title>
    </path>

    <path
      d="M 20,424.1544100324818 L 35.2,424.8822742288705 L 50.400000000000006,428.2480023399561 L 65.6,431.4038991601089 L 80.80000000000001,431.6798047870448 L 96,428.84227935126165 L 111.2,425.29211320558613 L 126.4,424.0330519820349 L 141.60000000000002,426.1303696693452 L 156.79999999999998,429.8095552774093 L 172,431.957701622133 L 187.2,430.7572923014302 L 202.4,427.22397675415465 L 217.6,424.3472435580715 L 232.8,424.56105620042143 L 248,427.68451081243455 L 263.20000000000005,431.07489638773586 L 278.40000000000003,431.8636553871046 L 293.59999999999997,429.38342991745924 L 308.8,425.7327038567835 L 324,424.0003051664959 L 339.2,425.6519920070142 L 354.4,429.2902953785539 L 369.6,431.8368979822116 L 384.8,431.1371551807112 L 400,427.7831095144003 L 415.2,424.61257183673376 L 430.40000000000003,424.30808947357 L 445.6,427.12728066891526 L 460.79999999999995,430.6848674128507 L 476,431.9708256095651 L 491.2,429.89712411971533 L 506.40000000000003,426.21829260097104 L 521.6,424.0469386474343 L 536.8000000000001,425.2202142925226 L 552,428.7454275186023 L 567.1999999999999,431.63994500788834 L 582.4,431.4547562328511 L 597.6,428.3465468108085 L 612.8000000000001,424.94512900737135 L 628,424.12839457478435 L 643.1999999999999,426.58737102661587 L 658.4,430.2415529799227 L 673.6,431.9991884911487 L 688.8,430.3731668807124 L 704,426.73924215828526 L 719.2,424.1720269093554 L 734.4,424.84360584038444 L 749.6,428.1857654656204 L 764.8,431.3707515437489 L 780,431.703792160541"
      stroke="url(#thread-34)"
      stroke-width="7.606"
      stroke-linecap="round"
      fill="none"
      opacity="0.4631578947368421"
      class="thread"
      style="animation-delay: 3.4000000000000004s"
    >
      <title>2025-12-26: 3803 stars, Python, Shell, Go, TypeScript</title>
    </path>

    <path
      d="M 20,436.09749597812737 L 35.2,438.1986425910492 L 50.400000000000006,441.6137303014123 L 65.6,443.85173535584266 L 80.80000000000001,443.2802183490975 L 96,440.3160536223362 L 111.2,437.1213539438107 L 126.4,436.0263882433508 L 141.60000000000002,437.8298433484424 L 156.79999999999998,441.2162480659754 L 172,443.71550051121204 L 187.2,443.504602935699 L 202.4,440.73738766079595 L 217.6,437.43230913485144 L 232.8,436.0001485187449 L 248,437.48554841493205 L 263.20000000000005,440.8050325737595 L 278.40000000000003,443.53731211778614 L 293.59999999999997,443.6894153220472 L 308.8,441.15039549149037 L 324,437.77225738986215 L 339.2,436.0190730899818 L 354.4,437.1696453944221 L 369.6,440.3847270617029 L 384.8,443.3191821885995 L 400,443.8325687003365 L 415.2,441.5504136393035 L 430.40000000000003,438.13736018542966 L 445.6,436.08294827039396 L 460.79999999999995,436.8857013037238 L 476,439.96007740664123 L 491.2,443.0635737362665 L 506.40000000000003,443.93244665516795 L 521.6,441.93292530203524 L 536.8000000000001,438.52349496581655 L 552,436.19105281381536 L 567.1999999999999,436.63692229560945 L 582.4,439.53587853727146 L 597.6,442.7733729618912 L 612.8000000000001,443.9879214152926 L 628,442.293611351843 L 643.1999999999999,438.92630169277203 L 658.4,436.342166058528 L 673.6,436.4261174565599 L 688.8,439.11692029224685 L 704,442.45185666554704 L 719.2,443.99836658783323 L 734.4,442.6283991046444 L 749.6,439.3412320768734 L 764.8,436.5345817103552 L 780,436.255667087984"
      stroke="url(#thread-35)"
      stroke-width="7.022"
      stroke-linecap="round"
      fill="none"
      opacity="0.44736842105263164"
      class="thread"
      style="animation-delay: 3.5s"
    >
      <title>2025-12-25: 3511 stars, Python, TypeScript</title>
    </path>

    <path
      d="M 20,448.9960510129133 L 35.2,451.50637217824794 L 50.400000000000006,454.2655346882004 L 65.6,455.8826248244989 L 80.80000000000001,455.5424557881977 L 96,453.4165092435394 L 111.2,450.57649017441366 L 126.4,448.45407267364817 L 141.60000000000002,448.1191827086574 L 156.79999999999998,449.74064072576766 L 172,452.5010580458181 L 187.2,455.00888839171796 L 202.4,455.99991640151285 L 217.6,454.9745577089166 L 232.8,452.44970302498274 L 248,449.6981498032351 L 263.20000000000005,448.10697586488885 L 278.40000000000003,448.478303466614 L 293.59999999999997,450.6249436866455 L 308.8,453.46475971011085 L 324,455.5661798009641 L 339.2,455.86986293754495 L 354.4,454.22272026076865 L 369.6,451.45508827195226 L 384.8,448.96215021473824 L 400,448.00061414096234 L 415.2,449.05519731928996 L 430.40000000000003,451.5942767646654 L 445.6,454.33788421874385 L 460.79999999999995,455.902947379091 L 476,455.50050662051757 L 491.2,453.33343523152047 L 506.40000000000003,450.49416952658197 L 521.6,448.41400382221025 L 536.8000000000001,448.1415646505695 L 552,449.8141905627102 L 567.1999999999999,452.5886987746023 L 582.4,455.0664396889646 L 597.6,455.9983662432633 L 612.8000000000001,454.9146875411231 L 628,452.36169383096853 L 643.1999999999999,449.6263676523589 L 658.4,448.08760665704625 L 673.6,448.5211113591546 L 688.8,450.7083489122413 L 704,453.54671709308326 L 719.2,455.6053740335417 L 734.4,455.8465359244461 L 749.6,454.1486313175133 L 764.8,451.36758616910925 L 780,448.90534539335"
      stroke="url(#thread-36)"
      stroke-width="5.776"
      stroke-linecap="round"
      fill="none"
      opacity="0.4315789473684211"
      class="thread"
      style="animation-delay: 3.6s"
    >
      <title>2025-12-24: 2888 stars, Python, TypeScript</title>
    </path>

    <path
      d="M 20,462.63007752612157 L 35.2,465.46984435344893 L 50.400000000000006,467.5686520427908 L 65.6,467.86847650292754 L 80.80000000000001,466.2181740613957 L 96,463.44967407971143 L 111.2,460.9585973629812 L 126.4,460.00071364788033 L 141.60000000000002,461.05889902272804 L 156.79999999999998,463.59971460922657 L 172,466.3423169477711 L 187.2,467.9041404219163 L 202.4,467.49785855564926 L 217.6,465.3282809675546 L 232.8,462.48910736515234 L 248,460.41158563539807 L 263.20000000000005,460.14300946378495 L 278.40000000000003,461.8187700351925 L 293.59999999999997,464.5941043612493 L 308.8,467.0699463945666 L 324,467.9982063122386 L 339.2,466.9109415958545 L 354.4,464.3562502294789 L 369.6,461.62197055341426 L 384.8,460.0864726699332 L 400,460.52381213495426 L 415.2,462.7135229703971 L 430.40000000000003,465.5517561535674 L 445.6,467.6077378696262 L 460.79999999999995,467.84503290931457 L 476,466.1440191319322 L 491.2,463.36218984908953 L 506.40000000000003,460.9018852627279 L 521.6,460.0033626566983 L 536.8000000000001,461.1195737561695 L 552,463.6878284966231 L 567.1999999999999,466.4134511430751 L 582.4,467.92243566430864 L 597.6,467.4540920815085 L 612.8000000000001,465.2445157721059 L 628,462.40757008747306 L 643.1999999999999,460.3733798051518 L 658.4,460.1673949155105 L 673.6,461.89345388682545 L 688.8,464.68143794461787 L 704,467.12590422051045 L 719.2,467.9945796371737 L 734.4,466.84955865283393 L 749.6,464.268054602727 L 764.8,461.5514222943771 L 780,460.06913566473247"
      stroke="url(#thread-37)"
      stroke-width="5.776"
      stroke-linecap="round"
      fill="none"
      opacity="0.41578947368421054"
      class="thread"
      style="animation-delay: 3.7s"
    >
      <title>2025-12-23: 2888 stars, Python, TypeScript</title>
    </path>
  </g>

  <!-- Date markers -->
  <g id="dates">
    <text x="785" y="24" class="date-label">01-29</text>
<text x="785" y="108" class="date-label">01-22</text>
<text x="785" y="192" class="date-label">01-15</text>
<text x="785" y="276" class="date-label">01-08</text>
<text x="785" y="360" class="date-label">01-01</text>
<text x="785" y="444" class="date-label">12-25</text>
  </g>

</svg>