<?xml version="1.0" encoding="UTF-8"?>
<svg xmlns="http://www.w3.org/2000/svg" viewBox="0 0 800 604" width="800" height="604">
  <title>The Data Tapestry - GitHub Trends Woven in Time</title>
  <desc>A living data art piece that weaves daily GitHub trending repositories into an evolving tapestry. Each thread represents one day of open source activity.</desc>

  <style>
    .thread {
      animation: breathe 8s ease-in-out infinite alternate;
    }

    @keyframes breathe {
      0% {
        opacity: 0.85;
      }
      100% {
        opacity: 1;
      }
    }

    .date-label {
      font-family: ui-monospace, monospace;
      font-size: 8px;
      fill: #666;
    }

    .title {
      font-family: system-ui, sans-serif;
      font-size: 14px;
      fill: #333;
      font-weight: 600;
    }

    .subtitle {
      font-family: system-ui, sans-serif;
      font-size: 10px;
      fill: #888;
    }

    .empty-state {
      font-family: system-ui, sans-serif;
      font-size: 12px;
      fill: #999;
      text-anchor: middle;
    }
  </style>

  <defs>
    
    <linearGradient id="thread-0" x1="0%" y1="0%" x2="100%" y2="0%">
      <stop offset="0%" stop-color="#3572A5" />
      <stop offset="50%" stop-color="#3178c6" />
      <stop offset="100%" stop-color="#f1e05a" />
    </linearGradient>

    <linearGradient id="thread-1" x1="0%" y1="0%" x2="100%" y2="0%">
      <stop offset="0%" stop-color="#3572A5" />
      <stop offset="50%" stop-color="#3178c6" />
      <stop offset="100%" stop-color="#f1e05a" />
    </linearGradient>

    <linearGradient id="thread-2" x1="0%" y1="0%" x2="100%" y2="0%">
      <stop offset="0%" stop-color="#3572A5" />
      <stop offset="50%" stop-color="#3178c6" />
      <stop offset="100%" stop-color="#89e051" />
    </linearGradient>

    <linearGradient id="thread-3" x1="0%" y1="0%" x2="100%" y2="0%">
      <stop offset="0%" stop-color="#3178c6" />
      <stop offset="50%" stop-color="#3572A5" />
      <stop offset="100%" stop-color="#8b8b8b" />
    </linearGradient>

    <linearGradient id="thread-4" x1="0%" y1="0%" x2="100%" y2="0%">
      <stop offset="0%" stop-color="#3178c6" />
      <stop offset="50%" stop-color="#f1e05a" />
      <stop offset="100%" stop-color="#3572A5" />
    </linearGradient>

    <linearGradient id="thread-5" x1="0%" y1="0%" x2="100%" y2="0%">
      <stop offset="0%" stop-color="#3572A5" />
      <stop offset="50%" stop-color="#3178c6" />
      <stop offset="100%" stop-color="#f1e05a" />
    </linearGradient>

    <linearGradient id="thread-6" x1="0%" y1="0%" x2="100%" y2="0%">
      <stop offset="0%" stop-color="#3572A5" />
      <stop offset="50%" stop-color="#8b8b8b" />
      <stop offset="100%" stop-color="#3178c6" />
    </linearGradient>

    <linearGradient id="thread-7" x1="0%" y1="0%" x2="100%" y2="0%">
      <stop offset="0%" stop-color="#3572A5" />
      <stop offset="50%" stop-color="#f1e05a" />
      <stop offset="100%" stop-color="#8b8b8b" />
    </linearGradient>

    <linearGradient id="thread-8" x1="0%" y1="0%" x2="100%" y2="0%">
      <stop offset="0%" stop-color="#3572A5" />
      <stop offset="50%" stop-color="#3178c6" />
      <stop offset="100%" stop-color="#dea584" />
    </linearGradient>

    <linearGradient id="thread-9" x1="0%" y1="0%" x2="100%" y2="0%">
      <stop offset="0%" stop-color="#3572A5" />
      <stop offset="50%" stop-color="#3178c6" />
      <stop offset="100%" stop-color="#f1e05a" />
    </linearGradient>

    <linearGradient id="thread-10" x1="0%" y1="0%" x2="100%" y2="0%">
      <stop offset="0%" stop-color="#3572A5" />
      <stop offset="50%" stop-color="#3178c6" />
      <stop offset="100%" stop-color="#f1e05a" />
    </linearGradient>

    <linearGradient id="thread-11" x1="0%" y1="0%" x2="100%" y2="0%">
      <stop offset="0%" stop-color="#3572A5" />
      <stop offset="50%" stop-color="#3178c6" />
      <stop offset="100%" stop-color="#f1e05a" />
    </linearGradient>

    <linearGradient id="thread-12" x1="0%" y1="0%" x2="100%" y2="0%">
      <stop offset="0%" stop-color="#3178c6" />
      <stop offset="50%" stop-color="#3572A5" />
      <stop offset="100%" stop-color="#f1e05a" />
    </linearGradient>

    <linearGradient id="thread-13" x1="0%" y1="0%" x2="100%" y2="0%">
      <stop offset="0%" stop-color="#3572A5" />
      <stop offset="50%" stop-color="#3178c6" />
      <stop offset="100%" stop-color="#89e051" />
    </linearGradient>

    <linearGradient id="thread-14" x1="0%" y1="0%" x2="100%" y2="0%">
      <stop offset="0%" stop-color="#3178c6" />
      <stop offset="50%" stop-color="#3572A5" />
      <stop offset="100%" stop-color="#89e051" />
    </linearGradient>

    <linearGradient id="thread-15" x1="0%" y1="0%" x2="100%" y2="0%">
      <stop offset="0%" stop-color="#3572A5" />
      <stop offset="50%" stop-color="#3178c6" />
      <stop offset="100%" stop-color="#8b8b8b" />
    </linearGradient>

    <linearGradient id="thread-16" x1="0%" y1="0%" x2="100%" y2="0%">
      <stop offset="0%" stop-color="#3178c6" />
      <stop offset="50%" stop-color="#3572A5" />
      <stop offset="100%" stop-color="#dea584" />
    </linearGradient>

    <linearGradient id="thread-17" x1="0%" y1="0%" x2="100%" y2="0%">
      <stop offset="0%" stop-color="#3572A5" />
      <stop offset="50%" stop-color="#3178c6" />
      <stop offset="100%" stop-color="#8b8b8b" />
    </linearGradient>

    <linearGradient id="thread-18" x1="0%" y1="0%" x2="100%" y2="0%">
      <stop offset="0%" stop-color="#3572A5" />
      <stop offset="50%" stop-color="#3178c6" />
      <stop offset="100%" stop-color="#41b883" />
    </linearGradient>

    <linearGradient id="thread-19" x1="0%" y1="0%" x2="100%" y2="0%">
      <stop offset="0%" stop-color="#3178c6" />
      <stop offset="50%" stop-color="#f1e05a" />
      <stop offset="100%" stop-color="#89e051" />
    </linearGradient>

    <linearGradient id="thread-20" x1="0%" y1="0%" x2="100%" y2="0%">
      <stop offset="0%" stop-color="#3178c6" />
      <stop offset="50%" stop-color="#3572A5" />
      <stop offset="100%" stop-color="#f1e05a" />
    </linearGradient>

    <linearGradient id="thread-21" x1="0%" y1="0%" x2="100%" y2="0%">
      <stop offset="0%" stop-color="#3178c6" />
      <stop offset="50%" stop-color="#3572A5" />
      <stop offset="100%" stop-color="#f1e05a" />
    </linearGradient>

    <linearGradient id="thread-22" x1="0%" y1="0%" x2="100%" y2="0%">
      <stop offset="0%" stop-color="#3178c6" />
      <stop offset="50%" stop-color="#f1e05a" />
      <stop offset="100%" stop-color="#3572A5" />
    </linearGradient>

    <linearGradient id="thread-23" x1="0%" y1="0%" x2="100%" y2="0%">
      <stop offset="0%" stop-color="#3572A5" />
      <stop offset="50%" stop-color="#3178c6" />
      <stop offset="100%" stop-color="#89e051" />
    </linearGradient>

    <linearGradient id="thread-24" x1="0%" y1="0%" x2="100%" y2="0%">
      <stop offset="0%" stop-color="#3178c6" />
      <stop offset="50%" stop-color="#89e051" />
      <stop offset="100%" stop-color="#3572A5" />
    </linearGradient>

    <linearGradient id="thread-25" x1="0%" y1="0%" x2="100%" y2="0%">
      <stop offset="0%" stop-color="#3572A5" />
      <stop offset="50%" stop-color="#3178c6" />
      <stop offset="100%" stop-color="#89e051" />
    </linearGradient>

    <linearGradient id="thread-26" x1="0%" y1="0%" x2="100%" y2="0%">
      <stop offset="0%" stop-color="#3178c6" />
      <stop offset="50%" stop-color="#3572A5" />
      <stop offset="100%" stop-color="#8b8b8b" />
    </linearGradient>

    <linearGradient id="thread-27" x1="0%" y1="0%" x2="100%" y2="0%">
      <stop offset="0%" stop-color="#3178c6" />
      <stop offset="50%" stop-color="#89e051" />
      <stop offset="100%" stop-color="#3572A5" />
    </linearGradient>

    <linearGradient id="thread-28" x1="0%" y1="0%" x2="100%" y2="0%">
      <stop offset="0%" stop-color="#3572A5" />
      <stop offset="50%" stop-color="#3178c6" />
      <stop offset="100%" stop-color="#89e051" />
    </linearGradient>

    <linearGradient id="thread-29" x1="0%" y1="0%" x2="100%" y2="0%">
      <stop offset="0%" stop-color="#3572A5" />
      <stop offset="50%" stop-color="#3178c6" />
      <stop offset="100%" stop-color="#8b8b8b" />
    </linearGradient>

    <linearGradient id="thread-30" x1="0%" y1="0%" x2="100%" y2="0%">
      <stop offset="0%" stop-color="#3572A5" />
      <stop offset="50%" stop-color="#3178c6" />
      <stop offset="100%" stop-color="#8b8b8b" />
    </linearGradient>

    <linearGradient id="thread-31" x1="0%" y1="0%" x2="100%" y2="0%">
      <stop offset="0%" stop-color="#3178c6" />
      <stop offset="50%" stop-color="#3572A5" />
      <stop offset="100%" stop-color="#dea584" />
    </linearGradient>

    <linearGradient id="thread-32" x1="0%" y1="0%" x2="100%" y2="0%">
      <stop offset="0%" stop-color="#3572A5" />
      <stop offset="50%" stop-color="#3178c6" />
      <stop offset="100%" stop-color="#00ADD8" />
    </linearGradient>

    <linearGradient id="thread-33" x1="0%" y1="0%" x2="100%" y2="0%">
      <stop offset="0%" stop-color="#3572A5" />
      <stop offset="50%" stop-color="#00ADD8" />
      <stop offset="100%" stop-color="#3178c6" />
    </linearGradient>

    <linearGradient id="thread-34" x1="0%" y1="0%" x2="100%" y2="0%">
      <stop offset="0%" stop-color="#3572A5" />
      <stop offset="50%" stop-color="#3178c6" />
      <stop offset="100%" stop-color="#00ADD8" />
    </linearGradient>

    <linearGradient id="thread-35" x1="0%" y1="0%" x2="100%" y2="0%">
      <stop offset="0%" stop-color="#3572A5" />
      <stop offset="50%" stop-color="#00ADD8" />
      <stop offset="100%" stop-color="#DA5B0B" />
    </linearGradient>

    <linearGradient id="thread-36" x1="0%" y1="0%" x2="100%" y2="0%">
      <stop offset="0%" stop-color="#3572A5" />
      <stop offset="50%" stop-color="#3178c6" />
      <stop offset="100%" stop-color="#dea584" />
    </linearGradient>

    <linearGradient id="thread-37" x1="0%" y1="0%" x2="100%" y2="0%">
      <stop offset="0%" stop-color="#dea584" />
      <stop offset="50%" stop-color="#3572A5" />
      <stop offset="100%" stop-color="#3178c6" />
    </linearGradient>

    <linearGradient id="thread-38" x1="0%" y1="0%" x2="100%" y2="0%">
      <stop offset="0%" stop-color="#3572A5" />
      <stop offset="50%" stop-color="#3178c6" />
      <stop offset="100%" stop-color="#dea584" />
    </linearGradient>

    <linearGradient id="thread-39" x1="0%" y1="0%" x2="100%" y2="0%">
      <stop offset="0%" stop-color="#3572A5" />
      <stop offset="50%" stop-color="#dea584" />
      <stop offset="100%" stop-color="#3178c6" />
    </linearGradient>

    <linearGradient id="thread-40" x1="0%" y1="0%" x2="100%" y2="0%">
      <stop offset="0%" stop-color="#3572A5" />
      <stop offset="50%" stop-color="#3178c6" />
      <stop offset="100%" stop-color="#89e051" />
    </linearGradient>

    <linearGradient id="thread-41" x1="0%" y1="0%" x2="100%" y2="0%">
      <stop offset="0%" stop-color="#3572A5" />
      <stop offset="50%" stop-color="#f1e05a" />
      <stop offset="100%" stop-color="#89e051" />
    </linearGradient>

    <linearGradient id="thread-42" x1="0%" y1="0%" x2="100%" y2="0%">
      <stop offset="0%" stop-color="#3572A5" />
      <stop offset="50%" stop-color="#89e051" />
      <stop offset="100%" stop-color="#dea584" />
    </linearGradient>

    <linearGradient id="thread-43" x1="0%" y1="0%" x2="100%" y2="0%">
      <stop offset="0%" stop-color="#3572A5" />
      <stop offset="50%" stop-color="#89e051" />
      <stop offset="100%" stop-color="#00ADD8" />
    </linearGradient>

    <linearGradient id="thread-44" x1="0%" y1="0%" x2="100%" y2="0%">
      <stop offset="0%" stop-color="#3572A5" />
      <stop offset="50%" stop-color="#3178c6" />
      <stop offset="100%" stop-color="#3572A5" />
    </linearGradient>

    <linearGradient id="thread-45" x1="0%" y1="0%" x2="100%" y2="0%">
      <stop offset="0%" stop-color="#3572A5" />
      <stop offset="50%" stop-color="#3178c6" />
      <stop offset="100%" stop-color="#3572A5" />
    </linearGradient>

    <linearGradient id="thread-46" x1="0%" y1="0%" x2="100%" y2="0%">
      <stop offset="0%" stop-color="#3572A5" />
      <stop offset="50%" stop-color="#3178c6" />
      <stop offset="100%" stop-color="#3572A5" />
    </linearGradient>

    <!-- Background pattern -->
    <pattern id="loom" patternUnits="userSpaceOnUse" width="20" height="20">
      <rect width="20" height="20" fill="#fafafa"/>
      <circle cx="10" cy="10" r="0.5" fill="#eee"/>
    </pattern>
  </defs>

  <!-- Background -->
  <rect width="100%" height="100%" fill="url(#loom)"/>

  <!-- Threads -->
  <g id="tapestry">
    
    <path
      d="M 20,20 L 35.2,23.706009452821974 L 50.400000000000006,22.789060782651244 L 65.6,18.39297603233373 L 80.80000000000001,16.001528506972488 L 96,18.597862719234964 L 111.2,22.94325397362879 L 126.4,23.61716515258542 L 141.60000000000002,19.778944552812295 L 156.79999999999998,16.21647340490039 L 172,17.373656976988173 L 187.2,21.80699889852444 L 202.4,23.98625044535553 L 217.6,21.19296505960883 L 232.8,16.91154868472888 L 248,16.482734759237772 L 263.20000000000005,20.441435253905563 L 278.40000000000003,23.84947965370988 L 293.59999999999997,22.455598030130112 L 308.8,17.99854913601069 L 324,16.038154297213396 L 339.2,19.019853375579373 L 354.4,23.22420902208738 L 369.6,23.406615054426048 L 384.8,19.33953415526858 L 400,16.096332952245014 L 415.2,17.72265232589894 L 430.40000000000003,22.18978553526701 L 445.6,23.92533185670469 L 460.79999999999995,20.764332439820805 L 476,16.64988783983144 L 491.2,16.714447211889404 L 506.40000000000003,20.877477768026893 L 521.6,23.945923157265657 L 536.8000000000001,22.092136764635654 L 552,17.62857271935578 L 567.1999999999999,16.123179490880677 L 582.4,19.453817873272307 L 597.6,23.465775915403732 L 612.8000000000001,23.154448460141772 L 628,18.908192257930704 L 643.1999999999999,16.023881170593064 L 658.4,18.099468614111636 L 673.6,22.545820924866316 L 688.8,23.816459931561884 L 704,20.326362446272647 L 719.2,16.429153230362473 L 734.4,16.986297218297462 L 749.6,21.302800682325703 L 764.8,23.994161773224814 L 780,21.703117166260316"
      stroke="url(#thread-0)"
      stroke-width="8"
      stroke-linecap="round"
      fill="none"
      opacity="1"
      class="thread"
      style="animation-delay: 0s"
    >
      <title>2026-02-07: 4715 stars, TypeScript, Python, JavaScript, Shell, Unknown</title>
    </path>

    <path
      d="M 20,33.917702154416816 L 35.2,35.98387067739575 L 50.400000000000006,33.259529315469074 L 65.6,29.020633861634153 L 80.80000000000001,28.36435543841145 L 96,32.07985326513431 L 111.2,35.69932943680235 L 126.4,34.87044980839994 L 141.60000000000002,30.58992244974181 L 156.79999999999998,28.00497986026878 L 172,30.22395411939436 L 187.2,34.57858137432677 L 202.4,35.83252575999977 L 217.6,32.47794892996001 L 232.8,28.548649861458877 L 248,28.769517375613916 L 263.20000000000005,32.87496353157713 L 278.40000000000003,35.928286818508816 L 293.59999999999997,34.257938490900926 L 308.8,29.872472747071942 L 324,28.045308002667067 L 339.2,30.97356647329607 L 354.4,35.136086885150554 L 369.6,35.52753729001941 L 384.8,31.67720787178974 L 400,28.215028322413694 L 415.2,29.304187333911273 L 430.40000000000003,33.63499705912978 L 445.6,35.99976164689094 L 460.79999999999995,33.55490783629013 L 476,29.240314276824186 L 491.2,28.24417726543796 L 506.40000000000003,31.764327903136337 L 521.6,35.567868640826575 L 536.8000000000001,35.08113206381808 L 552,30.88940734746849 L 567.1999999999999,28.033143922631893 L 582.4,29.94693073021205 L 597.6,34.32948458063817 L 612.8000000000001,35.91088854093352 L 628,32.789541902318035 L 643.1999999999999,28.718789875354425 L 658.4,28.59361510463903 L 673.6,32.56453727944176 L 688.8,35.856616781738026 L 704,34.511206186768845 L 719.2,30.146129785625387 L 734.4,28.010288293557632 L 749.6,30.671980385117585 L 764.8,34.93058452719659 L 780,35.66523036768132"
      stroke="url(#thread-1)"
      stroke-width="8"
      stroke-linecap="round"
      fill="none"
      opacity="0.9872340425531915"
      class="thread"
      style="animation-delay: 0.1s"
    >
      <title>2026-02-06: 4618 stars, TypeScript, Python, JavaScript, Unknown, Shell</title>
    </path>

    <path
      d="M 20,47.36588393923159 L 35.2,47.50722330926098 L 50.400000000000006,43.987058091103975 L 65.6,40.48040409097451 L 80.80000000000001,40.648171544258105 L 96,44.315212977931246 L 111.2,47.653175347290585 L 126.4,47.17726072163975 L 141.60000000000002,43.384319010935776 L 156.79999999999998,40.23414183717052 L 172,41.01548134363763 L 187.2,44.91262722745839 L 202.4,47.85699979575655 L 217.6,46.77470476877906 L 232.8,42.79564687673953 L 248,40.073921095538424 L 263.20000000000005,41.45098077926882 L 278.40000000000003,45.48918996763375 L 293.59999999999997,47.972700347749395 L 308.8,46.30875296195532 L 324,42.234491542017345 L 339.2,40.00340255490274 L 354.4,41.94471965431165 L 369.6,46.03172801776868 L 384.8,47.99763350210097 L 400,45.79005126719401 L 415.2,41.713674162393 L 430.40000000000003,40.02419740761593 L 445.6,42.48541712982057 L 460.79999999999995,46.52784558592786 L 476,47.9312295914975 L 491.2,45.230450868542356 L 506.40000000000003,41.24509426062354 L 521.6,40.13583053738433 L 536.8000000000001,43.060719466910875 L 552,46.96620748530029 L 567.1999999999999,47.7750057981151 L 582.4,44.64273739478139 L 597.6,40.83945784887892 L 612.8000000000001,40.33575137462233 L 628,43.65748228231081 L 643.1999999999999,47.33679811809397 L 658.4,47.532531489369845 L 673.6,44.04033879614712 L 688.8,40.50603282009333 L 704,40.61939217131427 L 719.2,44.26207086838545 L 734.4,47.6311503097464 L 749.6,47.20934666578355 L 764.8,43.43701854542991 L 780,40.25243719715352"
      stroke="url(#thread-2)"
      stroke-width="8"
      stroke-linecap="round"
      fill="none"
      opacity="0.974468085106383"
      class="thread"
      style="animation-delay: 0.2s"
    >
      <title>2026-02-05: 4267 stars, TypeScript, Python, Shell, JavaScript, Unknown</title>
    </path>

    <path
      d="M 20,59.98997994641622 L 35.2,57.0595542136314 L 50.400000000000006,52.42539625190287 L 65.6,53.539096713070236 L 80.80000000000001,58.60985778361038 L 96,59.484043764654004 L 111.2,54.75598913117783 L 126.4,52.028267640736026 L 141.60000000000002,55.68697578094522 L 156.79999999999998,59.84901772284424 L 172,57.82195158530847 L 187.2,52.86524051263869 L 202.4,52.94913113820585 L 217.6,57.938729786305366 L 232.8,59.810907562828135 L 248,55.555257284132246 L 263.20000000000005,52.01474030287747 L 278.40000000000003,54.882404516455054 L 293.59999999999997,59.54712962577634 L 308.8,58.508173898452334 L 324,53.43614779906785 L 339.2,52.48672115592598 L 354.4,57.186544281137486 L 369.6,59.97843885787544 L 384.8,56.373119950072976 L 400,52.1678350603294 L 415.2,54.124559466899434 L 430.40000000000003,59.09693747439262 L 445.6,59.089530475828695 L 460.79999999999995,54.11424870856107 L 476,52.17119994047663 L 491.2,56.38474983970768 L 506.40000000000003,59.97963323414114 L 521.6,57.17538262188326 L 536.8000000000001,52.4811510832322 L 552,53.445125827140046 L 567.1999999999999,58.51726362037317 L 582.4,59.54171503418211 L 597.6,54.871192116484416 L 612.8000000000001,52.01575930620077 L 628,55.56686916316783 L 643.1999999999999,59.814440755236845 L 658.4,57.92850302188857 L 673.6,52.94158875545094 L 688.8,52.87251044272396 L 704,57.83234399299086 L 719.2,59.84582192010323 L 734.4,55.67533052524803 L 749.6,52.02689816311881 L 764.8,54.767097511650505 L 780,59.48976805186082"
      stroke="url(#thread-3)"
      stroke-width="8"
      stroke-linecap="round"
      fill="none"
      opacity="0.9617021276595745"
      class="thread"
      style="animation-delay: 0.30000000000000004s"
    >
      <title>2026-02-04: 5465 stars, TypeScript, Unknown, JavaScript, Python, Shell</title>
    </path>

    <path
      d="M 20,71.63718970730272 L 35.2,65.09119098493184 L 50.400000000000006,66.54785103630596 L 65.6,71.99963506621962 L 80.80000000000001,66.44770091159285 L 96,65.16642181027723 L 111.2,71.68082789957083 L 126.4,68.06861187907435 L 141.60000000000002,64.26763219165674 L 156.79999999999998,70.73507020837695 L 172,69.67783627637401 L 187.2,64.00457182174925 L 202.4,69.32345164332655 L 217.6,71.00127705045777 L 232.8,64.4220474237704 L 248,67.68641131865235 L 263.20000000000005,71.81351429304553 L 278.40000000000003,65.44895093322674 L 293.59999999999997,66.10278413733245 L 308.8,71.97620071401955 L 324,66.91037124004282 L 339.2,64.84230721262013 L 354.4,71.46162615149532 L 369.6,68.55738656549427 L 384.8,64.11967590400708 L 400,70.35743740687037 L 415.2,70.10946297797678 L 430.40000000000003,64.05797504195779 L 445.6,68.85170948161931 L 460.79999999999995,71.30223736476417 L 476,64.66771405230854 L 491.2,67.20091101223231 L 506.40000000000003,71.93254604967706 L 521.6,65.84503689973104 L 536.8000000000001,65.68622030819282 L 552,71.89302939205488 L 567.1999999999999,67.389411748212 L 582.4,64.5656326241911 L 597.6,71.19041821167522 L 612.8000000000001,69.03778728218656 L 628,64.03001617125263 L 643.1999999999999,69.94438733716612 L 658.4,70.50939788754037 L 673.6,64.17060178800585 L 688.8,68.36717155148602 L 704,71.55358608554134 L 719.2,64.9634437131786 L 734.4,66.72741592338922 L 749.6,71.99249668808456 L 764.8,66.2734982352933 L 780,65.3044178498773"
      stroke="url(#thread-4)"
      stroke-width="8"
      stroke-linecap="round"
      fill="none"
      opacity="0.948936170212766"
      class="thread"
      style="animation-delay: 0.4s"
    >
      <title>2026-02-03: 7782 stars, TypeScript, Unknown, JavaScript, Shell, Python</title>
    </path>

    <path
      d="M 20,82.39388857641583 L 35.2,76.20482555454389 L 50.400000000000006,79.99515837285404 L 65.6,83.79822223014396 L 80.80000000000001,77.61387610975356 L 96,77.70383309893276 L 111.2,83.83155165881105 L 126.4,79.88422064325763 L 141.60000000000002,76.24133097754442 L 156.79999999999998,82.48184629001963 L 172,82.19635683023816 L 187.2,76.13555597693787 L 202.4,80.23629503770812 L 217.6,83.7156972534268 L 232.8,77.42468858365402 L 248,77.90545085743474 L 263.20000000000005,83.89382162215021 L 278.40000000000003,79.64340419492345 L 293.59999999999997,76.33065399352552 L 308.8,82.66643426140337 L 324,81.9908364335453 L 339.2,76.08034226325647 L 354.4,80.47657224363971 L 369.6,83.61965743869735 L 384.8,77.2448680522931 L 400,78.11468696868181 L 415.2,83.94192886853938 L 430.40000000000003,79.40388476682875 L 445.6,76.43332325746664 L 460.79999999999995,82.84132380348692 L 476,81.77807491087438 L 491.2,76.03938523836395 L 506.40000000000003,80.71511604767265 L 521.6,83.5104521046568 L 536.8000000000001,77.07506856393869 L 552,78.33078039323587 L 567.1999999999999,83.97569842095596 L 582.4,79.16653354573893 L 597.6,76.54896533784834 L 612.8000000000001,83.00587880313451 L 628,81.55884612438857 L 643.1999999999999,76.01283387229718 L 658.4,80.95105881160859 L 673.6,83.38847845600169 L 688.8,76.91590771804071 L 704,78.55294515004708 L 719.2,83.9950074518391 L 734.4,78.93221383215635 L 749.6,76.67715961806036 L 764.8,83.15950073629736 L 780,81.33394745916387"
      stroke="url(#thread-5)"
      stroke-width="8"
      stroke-linecap="round"
      fill="none"
      opacity="0.9361702127659575"
      class="thread"
      style="animation-delay: 0.5s"
    >
      <title>2026-02-02: 7524 stars, TypeScript, JavaScript, Lua, Unknown, Python, Shell</title>
    </path>

    <path
      d="M 20,92.56448003223947 L 35.2,88.01249850566474 L 50.400000000000006,93.18108067262872 L 65.6,95.47047397363119 L 80.80000000000001,89.2996915592452 L 96,89.71160766618804 L 111.2,95.70207050677494 L 126.4,92.66778132903661 L 141.60000000000002,88.00560286988286 L 156.79999999999998,93.08079799560463 L 172,95.52126915418839 L 187.2,89.37773823929143 L 202.4,89.62664692656392 L 217.6,95.66121607073292 L 232.8,92.77062642513702 L 248,88.00143604168302 L 263.20000000000005,92.97977696191019 L 278.40000000000003,95.5696587487076 L 293.59999999999997,89.4575763405563 L 308.8,89.5433075639964 L 324,95.61786044268423 L 339.2,92.87294506100748 L 354.4,88.00000086767061 L 369.6,92.87808658495435 L 384.8,95.61560969941115 L 400,89.53915132093779 L 415.2,89.46164651250506 L 430.40000000000003,95.57203324140806 L 445.6,92.97466733677054 L 460.79999999999995,88.0012983282974 L 476,92.77579633541382 L 491.2,95.65909061450228 L 506.40000000000003,89.62240745176948 L 521.6,89.38171955955649 L 536.8000000000001,95.5237657741606 L 552,93.0757237599577 L 567.1999999999999,88.00532753719172 L 582.4,92.67297609377356 L 597.6,95.7000717896109 L 612.8000000000001,89.70728785589233 L 628,89.30358130795256 L 643.1999999999999,95.47309101528717 L 658.4,93.17604529298328 L 673.6,88.01208574176404 L 688.8,92.56969610258723 L 704,95.73852522808625 L 719.2,89.79373454651058 L 734.4,89.22728513852812 L 749.6,95.42004358369577 L 764.8,93.27556340030831 L 780,88.02156832508737"
      stroke="url(#thread-6)"
      stroke-width="8"
      stroke-linecap="round"
      fill="none"
      opacity="0.9234042553191489"
      class="thread"
      style="animation-delay: 0.6000000000000001s"
    >
      <title>2026-02-01: 7128 stars, TypeScript, Python, JavaScript, Roff, Go, Unknown, Shell</title>
    </path>

    <path
      d="M 20,102.59686708924153 L 35.2,100.89124166540616 L 50.400000000000006,107.37194542969212 L 65.6,104.97326639195423 L 80.80000000000001,100.0116737357432 L 96,105.55258664437916 L 111.2,107.00505523023406 L 126.4,100.54427720909729 L 141.60000000000002,103.18349388179668 L 156.79999999999998,107.97282553556317 L 172,102.30046987218296 L 187.2,101.10350650180256 L 202.4,107.5339128769689 L 217.6,104.6584257025847 L 232.8,100.04909852935008 L 248,105.84372578018893 L 263.20000000000005,106.78324866305692 L 278.40000000000003,100.39361073125536 L 293.59999999999997,103.50071926762496 L 308.8,107.92258951674195 L 324,102.01505953664534 L 339.2,101.33449617888873 L 354.4,107.67303478508809 L 369.6,104.3393285160421 L 384.8,100.11206455088131 L 400,106.12294585885903 L 415.2,106.54344934435169 L 430.40000000000003,100.26625832767758 L 445.6,103.82117233277623 L 460.79999999999995,107.84699529710375 L 476,101.74248116291882 L 491.2,101.58271742733504 L 506.40000000000003,107.78841177845376 L 521.6,104.01803768659698 L 536.8000000000001,100.20016474652422 L 552,106.3884418179946 L 567.1999999999999,106.28720749477071 L 582.4,100.1630432881348 L 597.6,104.14278145768789 L 612.8000000000001,107.74653156744682 L 628,101.48449687704539 L 643.1999999999999,101.84656558159121 L 658.4,107.87929798422988 L 673.6,103.69663024967187 L 688.8,100.31282957861906 L 704,106.63849731694395 L 719.2,106.0161796303098 L 734.4,100.08463286258754 L 749.6,104.46346754926621 L 764.8,107.62184779145338 L 780,101.24277445927602"
      stroke="url(#thread-7)"
      stroke-width="8"
      stroke-linecap="round"
      fill="none"
      opacity="0.9106382978723404"
      class="thread"
      style="animation-delay: 0.7000000000000001s"
    >
      <title>2026-01-31: 7532 stars, TypeScript, Python, Roff, JavaScript, Unknown, Shell</title>
    </path>

    <path
      d="M 20,112.9727900187683 L 35.2,115.00182725561308 L 50.400000000000006,119.91380663677083 L 65.6,113.52185274456657 L 80.80000000000001,114.28733247562819 L 96,119.99937222144985 L 111.2,114.16034649002887 L 126.4,113.63464419350746 L 141.60000000000002,119.94060903995245 L 156.79999999999998,114.86522938523376 L 172,113.06731652955783 L 187.2,119.7396377294718 L 202.4,115.61106371822784 L 217.6,112.605823122446 L 232.8,119.40371091358791 L 248,116.3709339274948 L 263.20000000000005,112.26681827948794 L 278.40000000000003,118.94495147063706 L 293.59999999999997,117.11741792684579 L 308.8,112.06253595841571 L 324,118.37991504503205 L 339.2,117.82357670969905 L 354.4,112.00034827008058 L 369.6,117.7289925895617 L 384.8,118.46392652005224 L 400,112.08249943478307 L 415.2,117.01567449963619 L 430.40000000000003,119.01535850658266 L 445.6,112.30602479317545 L 460.79999999999995,116.26570289529582 L 476,119.4579726715309 L 491.2,112.66285779445933 L 506.40000000000003,115.50614264330676 L 521.6,119.77579601894101 L 536.8000000000001,113.14012110090401 L 552,114.76440464416432 L 567.1999999999999,119.95735898582822 L 582.4,113.72059130334776 L 597.6,114.06725663148147 L 612.8000000000001,119.99610935410847 L 628,114.38332047709584 L 643.1999999999999,113.43985718189 L 658.4,119.89064870609691 L 673.6,115.1043921475968 L 688.8,112.90484779596694 L 704,119.644782890403 L 719.2,115.85778438471607 L 734.4,112.48153581503668 L 749.6,119.26738467701638 L 764.8,116.61630887838683 L 780,112.18519766063055"
      stroke="url(#thread-8)"
      stroke-width="8"
      stroke-linecap="round"
      fill="none"
      opacity="0.8978723404255319"
      class="thread"
      style="animation-delay: 0.8s"
    >
      <title>2026-01-30: 8081 stars, TypeScript, Rust, Roff, Python, JavaScript, Shell, Unknown</title>
    </path>

    <path
      d="M 20,124.08987952933961 L 35.2,129.9199023623251 L 50.400000000000006,129.39843537942636 L 65.6,124.25061434597997 L 80.80000000000001,131.50664533368035 L 96,127.16186652925377 L 111.2,125.5898309164911 L 126.4,131.99120306073897 L 141.60000000000002,125.18873417074316 L 156.79999999999998,127.68659566975941 L 172,131.22127260837252 L 187.2,124.09922003419577 L 202.4,129.88186757029237 L 217.6,129.43885335290295 L 232.8,124.23577289628751 L 248,131.48564347669821 L 263.20000000000005,127.20418336108304 L 278.40000000000003,125.55547237718461 L 293.59999999999997,131.99383530164704 L 308.8,125.21964911813839 L 324,127.64351938649135 L 339.2,131.24671159886145 L 354.4,124.10901611821987 L 369.6,129.8436129915326 L 384.8,129.47910328008646 L 400,124.22137107750653 L 415.2,131.46423452509174 L 430.40000000000003,127.24659313778115 L 445.6,125.52139933869336 L 460.79999999999995,131.99600109528572 L 476,125.2508887877565 L 491.2,127.6004847372408 L 506.40000000000003,131.27177140001345 L 521.6,124.1192666373095 L 536.8000000000001,129.8051430938674 L 552,129.51918046011488 L 567.1999999999999,124.20741057165158 L 582.4,131.44242097925118 L 597.6,127.28909090623328 L 612.8000000000001,125.48761578046931 L 628,131.997700188708 L 643.1999999999999,125.2824495310598 L 658.4,127.55749674810241 L 673.6,131.29644908504892 L 688.8,124.12997039428794 L 704,129.76646237026574 L 719.2,129.5590802123017 L 734.4,124.19389300919545 L 749.6,131.42020538682013 L 764.8,127.33167170304803 L 780,125.45412564815558"
      stroke="url(#thread-9)"
      stroke-width="8"
      stroke-linecap="round"
      fill="none"
      opacity="0.8851063829787235"
      class="thread"
      style="animation-delay: 0.9s"
    >
      <title>2026-01-29: 9087 stars, TypeScript, JavaScript, Python, Shell, Unknown</title>
    </path>

    <path
      d="M 20,136.16430290134744 L 35.2,143.99877765366318 L 50.400000000000006,136.1129107804063 L 65.6,143.50830627119086 L 80.80000000000001,137.11154378596592 L 96,142.07013095703584 L 111.2,138.8904397158352 L 126.4,140.07274812351707 L 141.60000000000002,140.9690627967736 L 156.79999999999998,138.0557137324231 L 172,142.78591151950067 L 187.2,136.56389224968615 L 202.4,143.85019786703504 L 217.6,136.00027160602605 L 232.8,143.87442460338073 L 248,136.51710347466766 L 263.20000000000005,142.8520473246255 L 278.40000000000003,137.9747753029805 L 293.59999999999997,141.05924230839244 L 308.8,139.97952405660834 L 324,138.9803026098737 L 339.2,141.98980400693253 L 354.4,137.17681526672217 L 369.6,143.4625752750379 L 384.8,136.13595896680795 L 400,143.9999959926946 L 415.2,136.13890175291147 L 430.40000000000003,143.45689191121372 L 445.6,137.18484868589547 L 460.79999999999995,141.97997253471087 L 476,138.99125658278305 L 491.2,139.9682002660367 L 506.40000000000003,141.07015782222905 L 521.6,137.9650181062567 L 536.8000000000001,142.85997575558636 L 552,136.51154859768968 L 567.1999999999999,143.8772242327524 L 582.4,136.0004195958799 L 597.6,143.8471124268187 L 612.8000000000001,136.56970312965504 L 628,142.7777744841989 L 643.1999999999999,138.0656178009567 L 658.4,140.9580722356971 L 673.6,140.08406998001934 L 688.8,138.8795645254082 L 704,142.079812211762 L 719.2,137.10372169736954 L 734.4,143.51373171256643 L 749.6,136.1102547859347 L 764.8,143.9984816992317 L 780,136.1675304686926"
      stroke="url(#thread-10)"
      stroke-width="8"
      stroke-linecap="round"
      fill="none"
      opacity="0.8723404255319149"
      class="thread"
      style="animation-delay: 1s"
    >
      <title>2026-01-28: 11454 stars, TypeScript, JavaScript, Python, Shell</title>
    </path>

    <path
      d="M 20,149.17783869771844 L 35.2,154.780541843746 L 50.400000000000006,149.26166843786825 L 65.6,154.69553942648517 L 80.80000000000001,149.3478254705123 L 96,154.60824608552394 L 111.2,149.43623657127625 L 126.4,154.5187360109787 L 141.60000000000002,149.52682660006602 L 156.79999999999998,154.42708527695513 L 172,149.6195185649289 L 187.2,154.33337177689327 L 202.4,149.71423368748864 L 217.6,154.23767515736634 L 232.8,149.81089146989876 L 248,154.14007675038962 L 263.20000000000005,149.90940976325706 L 278.40000000000003,154.04065950429668 L 293.59999999999997,150.00970483742373 L 308.8,153.93950791324235 L 324,150.11169145218295 L 339.2,153.83670794539114 L 354.4,150.21528292968807 L 369.6,153.73234696985386 L 384.8,150.32039122812887 L 400,153.62651368243294 L 415.2,150.42692701655739 L 430.40000000000003,153.51929803024024 L 445.6,150.5347997508101 L 460.79999999999995,153.41079113525174 L 476,150.64391775046073 L 491.2,153.30108521686316 L 506.40000000000003,150.75418827673917 L 521.6,153.19027351351352 L 536.8000000000001,150.86551761134928 L 552,153.07845020344251 L 567.1999999999999,150.97781113611964 L 582.4,152.96571032464806 L 597.6,151.0909734134192 L 612.8000000000001,152.8521496941152 L 628,151.20490826726936 L 643.1999999999999,152.737864826381 L 658.4,151.3195188650823 L 673.6,152.62295285150745 L 688.8,151.43470779996002 L 704,152.50751143253154 L 719.2,151.5503771734787 L 734.4,152.39163868246214 L 749.6,151.66642867889254 L 764.8,152.2754330808933 L 780,151.782763684684"
      stroke="url(#thread-11)"
      stroke-width="8"
      stroke-linecap="round"
      fill="none"
      opacity="0.8595744680851064"
      class="thread"
      style="animation-delay: 1.1s"
    >
      <title>2026-01-27: 12558 stars, TypeScript, JavaScript, Python, Shell</title>
    </path>

    <path
      d="M 20,162.88233800720428 L 35.2,167.56641521313114 L 50.400000000000006,166.44189261457475 L 65.6,161.34027365568318 L 80.80000000000001,160.57053559128056 L 96,165.3863463492992 L 111.2,167.94422283655877 L 126.4,164.07816643094597 L 141.60000000000002,160.084800811914 L 156.79999999999998,162.46809743756302 L 172,167.34639489539126 L 187.2,166.77443836609953 L 202.4,161.68377013673972 L 217.6,160.36553207236338 L 232.8,164.96673087449142 L 248,167.99342069968273 L 263.20000000000005,164.51604935723697 L 278.40000000000003,160.19819141510595 L 293.59999999999997,162.07231709888322 L 308.8,167.08604876047988 L 324,167.07355067721986 L 339.2,162.05517840493226 L 354.4,160.20432580205164 L 369.6,164.53546578458517 L 384.8,167.99449574465214 L 400,164.94771361756594 L 415.2,160.35739580976843 L 430.40000000000003,161.69976635224654 L 445.6,166.78851411614642 L 460.79999999999995,167.33562508738964 L 476,162.45002279543706 L 491.2,160.08885940062382 L 506.40000000000003,164.09774805056318 L 521.6,167.94743501661014 L 536.8000000000001,165.36795743073682 L 552,160.56049549927658 L 567.1999999999999,161.3549346299422 L 582.4,166.45737641122298 L 597.6,167.55750346223442 L 612.8000000000001,162.8635452258401 L 628,160.02052429889991 L 643.1999999999999,163.65885240116083 L 658.4,167.8528056220622 L 673.6,165.77171663794383 L 688.8,160.80504302563375 L 704,161.04197733544865 L 719.2,166.09662602908173 L 734.4,167.73651205073014 L 749.6,163.2907625335302 L 764.8,160.0001439707689 L 780,163.22406775961306"
      stroke="url(#thread-12)"
      stroke-width="8"
      stroke-linecap="round"
      fill="none"
      opacity="0.8468085106382979"
      class="thread"
      style="animation-delay: 1.2000000000000002s"
    >
      <title>2026-01-26: 5507 stars, TypeScript, JavaScript, Python, Rust, Shell</title>
    </path>

    <path
      d="M 20,176.86047995235126 L 35.2,179.79943805168065 L 50.400000000000006,179.0125931479699 L 65.6,175.27154068909726 L 80.80000000000001,172.244829627883 L 96,172.90051182036902 L 111.2,176.59561252961393 L 126.4,179.7066439840641 L 141.60000000000002,179.182868106699 L 156.79999999999998,175.53790973104992 L 172,172.34608607909195 L 187.2,172.73736163133012 L 202.4,176.32804395543212 L 217.6,179.59703998338895 L 232.8,179.3387084987317 L 248,175.80637439009487 L 263.20000000000005,172.46391332821844 L 278.40000000000003,172.5890077736377 L 293.59999999999997,176.05898767513267 L 308.8,179.4711231127458 L 324,179.47940757516812 L 339.2,176.07571715708733 L 354.4,172.5977770190689 L 369.6,172.4561230441472 L 384.8,175.78966388091104 L 400,179.32946441542222 L 415.2,179.6043272542107 L 430.40000000000003,176.3447165405912 L 445.6,172.7470700688774 L 460.79999999999995,172.3393100859549 L 476,175.5212939781602 L 491.2,179.1727063251748 L 506.40000000000003,179.71290101491718 L 521.6,176.6121526064427 L 536.8000000000001,172.91111542147553 L 552,172.2390986553622 L 567.1999999999999,175.25509504629744 L 582.4,179.00155975273972 L 597.6,179.8046364664194 L 612.8000000000001,176.87681251025106 L 628,173.08916911779752 L 643.1999999999999,172.15594321938752 L 658.4,174.9922743192098 L 673.6,178.81680086179446 L 688.8,179.87911758095598 L 704,177.1374959977471 L 719.2,173.28042366979514 L 734.4,172.09022089472145 L 749.6,174.73402371035002 L 764.8,178.61926754899224 L 780,179.93600658059228"
      stroke="url(#thread-13)"
      stroke-width="8"
      stroke-linecap="round"
      fill="none"
      opacity="0.8340425531914893"
      class="thread"
      style="animation-delay: 1.3s"
    >
      <title>2026-01-25: 4122 stars, Shell, Python, TypeScript</title>
    </path>

    <path
      d="M 20,190.62794639487515 L 35.2,191.26063830201755 L 50.400000000000006,186.016755165213 L 65.6,184.34722956905765 L 80.80000000000001,189.26100992942654 L 96,191.90210046803506 L 111.2,187.51052313445433 L 126.4,184.00111894190405 L 141.60000000000002,187.69880810134507 L 156.79999999999998,191.93932864259847 L 172,189.08008581031996 L 187.2,184.27422862516457 L 202.4,186.18324535511417 L 217.6,191.36655810265785 L 232.8,190.48239893286708 L 248,185.12426802294777 L 263.20000000000005,184.94900414828612 L 278.40000000000003,190.27248144656397 L 293.59999999999997,191.5003165669139 L 308.8,186.41960989950636 L 324,184.18720474978483 L 339.2,188.82651468763672 L 354.4,191.9762158014077 L 369.6,187.95967264532456 L 384.8,184.0158105731652 L 400,187.25256345655225 L 415.2,191.83640440408956 L 430.40000000000003,189.50598001725626 L 445.6,184.4613617314508 L 460.79999999999995,185.79435157398166 L 476,191.10253194532402 L 491.2,190.81908880182945 L 506.40000000000003,185.4548653432504 L 521.6,184.67768080833383 L 536.8000000000001,189.8882373968933 L 552,191.69566621235248 L 567.1999999999999,186.84247896965206 L 582.4,184.07546583451133 L 597.6,188.38155231969878 L 612.8000000000001,191.9999756444202 L 628,188.40933286884749 L 643.1999999999999,184.08095867416952 L 658.4,186.8157844784984 L 673.6,191.6848952711392 L 688.8,189.9128022306115 L 704,184.69330876990767 L 719.2,185.4333905091808 L 734.4,190.79921478235372 L 749.6,191.12007723855703 L 764.8,185.81769469271703 L 780,184.44843189803646"
      stroke="url(#thread-14)"
      stroke-width="8"
      stroke-linecap="round"
      fill="none"
      opacity="0.8212765957446808"
      class="thread"
      style="animation-delay: 1.4000000000000001s"
    >
      <title>2026-01-24: 5856 stars, Shell, TypeScript, Python, Rust</title>
    </path>

    <path
      d="M 20,203.75199990709896 L 35.2,202.5724366012183 L 50.400000000000006,197.98589644684148 L 65.6,196.06686777664862 L 80.80000000000001,199.35694335442287 L 96,203.4986936062067 L 111.2,203.00671717618135 L 126.4,198.53259564513615 L 141.60000000000002,196.0019282936948 L 156.79999999999998,198.76637209700775 L 172,203.16465274713084 L 187.2,203.3716158588943 L 202.4,199.11315612298287 L 217.6,196.029246833056 L 232.8,198.20426758030248 L 248,202.75758553304897 L 263.20000000000005,203.6587123824671 L 278.40000000000003,199.7141810817609 L 293.59999999999997,196.14819300223326 L 308.8,197.68360072000215 L 324,202.2868852962671 L 339.2,203.86138181382603 L 354.4,200.32180149206508 L 369.6,196.35602204346927 L 384.8,197.21638623178598 L 400,201.76341374116132 L 415.2,203.97494742821613 L 430.40000000000003,200.92199613029288 L 445.6,196.64793817076202 L 460.79999999999995,196.81340538418695 L 476,201.19925030350979 L 491.2,203.99678862757006 L 506.40000000000003,201.5009151272087 L 521.6,197.0172052356469 L 536.8000000000001,196.48395721403116 L 552,200.60741340990495 L 567.1999999999999,203.92640141245877 L 582.4,202.04519956239804 L 597.6,197.4553021680644 L 612.8000000000001,196.2356439453072 L 628,200.0015600693622 L 643.1999999999999,203.76541001219564 L 658.4,202.54228972976853 L 673.6,197.95211960541766 L 688.8,196.07419556306039 L 704,199.39567072923649 L 719.2,203.5175294047223 L 734.4,202.98071496067712 L 749.6,198.49619317248067 L 764.8,196.00333759037937 L 780,198.80372666759584"
      stroke="url(#thread-15)"
      stroke-width="8"
      stroke-linecap="round"
      fill="none"
      opacity="0.8085106382978724"
      class="thread"
      style="animation-delay: 1.5s"
    >
      <title>2026-01-23: 4879 stars, Unknown, Rust, Python, Shell, TypeScript, JavaScript</title>
    </path>

    <path
      d="M 20,215.95743298649353 L 35.2,211.36533865175755 L 50.400000000000006,208.05947433971247 L 65.6,212.73963662828135 L 80.80000000000001,215.92082180124066 L 96,211.15591300086692 L 111.2,208.10166460710943 L 126.4,212.94793833391273 L 141.60000000000002,215.87308239350907 L 156.79999999999998,210.94888306913768 L 172,208.15491927522334 L 187.2,213.15354956565605 L 202.4,215.81435025906396 L 217.6,210.74483645663355 L 232.8,208.21908719467157 L 248,213.35588675005482 L 263.20000000000005,215.744792093637 L 278.40000000000003,210.54435229605042 L 293.59999999999997,208.293986241675 L 308.8,213.5543756061756 L 324,215.66460531980414 L 339.2,210.34799960900057 L 354.4,208.3794038349686 L 369.6,213.74845277555372 L 384.8,215.57401752665373 L 400,210.15633569099393 L 415.2,208.47509753915745 L 430.40000000000003,213.937567421138 L 445.6,215.47328582383443 L 460.79999999999995,209.9699045297018 L 476,208.58079575280595 L 491.2,214.12118279069728 L 506.40000000000003,215.36269611181729 L 521.6,209.78923526099027 L 536.8000000000001,208.69619847930707 L 552,214.29877774025036 L 567.1999999999999,215.24256227044214 L 582.4,209.6148406671074 L 597.6,208.8209781783439 L 612.8000000000001,214.4698482131964 L 628,215.11322526805236 L 643.1999999999999,209.4472157212854 L 658.4,208.95478069552692 L 673.6,214.633908670947 L 688.8,214.97505219374565 L 704,209.2868361828891 L 719.2,209.09722626756803 L 734.4,214.7904934710001 L 749.6,214.82843521548813 L 764.8,209.13415724709822 L 780,209.24791060013874"
      stroke="url(#thread-16)"
      stroke-width="8"
      stroke-linecap="round"
      fill="none"
      opacity="0.7957446808510638"
      class="thread"
      style="animation-delay: 1.6s"
    >
      <title>2026-01-22: 6303 stars, Rust, Unknown, Shell, TypeScript, Python</title>
    </path>

    <path
      d="M 20,227.19394845049396 L 35.2,223.46335472237269 L 50.400000000000006,220.2807366434265 L 65.6,220.89590797442816 L 80.80000000000001,224.6807090659534 L 96,227.77042905294644 L 111.2,227.0101136551283 L 126.4,223.1761310640524 L 141.60000000000002,220.18341202980338 L 156.79999999999998,221.087861866301 L 172,224.96593478461676 L 187.2,227.85767881357484 L 202.4,226.81029556366445 L 217.6,222.8932820382736 L 232.8,220.10635298173733 L 248,221.29527881751397 L 263.20000000000005,225.24603152031042 L 278.40000000000003,227.92444482182935 L 293.59999999999997,226.59555518312328 L 308.8,222.6163095350804 L 324,220.0499686723439 L 339.2,221.51705747212935 L 354.4,225.51951199727813 L 369.6,227.97037255924275 L 384.8,226.367032755861 L 400,222.3466842409772 L 415.2,220.01455849467447 L 430.40000000000003,221.75202021550837 L 445.6,225.7849240712021 L 460.79999999999995,227.9952181557455 L 476,226.1259417050364 L 491.2,222.08583782978266 L 506.40000000000003,220.00031047197982 L 521.6,221.9989194272851 L 536.8000000000001,226.0408584398925 L 552,227.998849684583 L 567.1999999999999,225.87356219149845 L 582.4,221.83515536063544 L 597.6,220.00730025933203 L 612.8000000000001,222.25644410606222 L 628,226.2859561264916 L 643.1999999999999,227.98124786282867 L 658.4,225.61123431630512 L 673.6,221.59596792351752 L 688.8,220.03549074190624 L 704,222.5232268306507 L 719.2,226.51891569545694 L 734.4,227.9425061537736 L 749.6,225.34035100496828 L 764.8,221.36954557134658 L 780,220.0847322320556"
      stroke="url(#thread-17)"
      stroke-width="8"
      stroke-linecap="round"
      fill="none"
      opacity="0.7829787234042553"
      class="thread"
      style="animation-delay: 1.7000000000000002s"
    >
      <title>2026-01-21: 4215 stars, Unknown, TypeScript, Python, Shell, JavaScript</title>
    </path>

    <path
      d="M 20,237.64847394096702 L 35.2,232.25561411497503 L 50.400000000000006,234.8405326209348 L 65.6,239.89580915551147 L 80.80000000000001,236.65068535192924 L 96,232.01921311607134 L 111.2,235.8691945342649 L 126.4,239.99786972021775 L 141.60000000000002,235.60869460781478 L 156.79999999999998,232.05323369443067 L 172,236.90674228383548 L 187.2,239.82834824173602 L 202.4,234.59328589997398 L 217.6,232.35536477469844 L 232.8,237.88269349842054 L 248,239.39876060045066 L 263.20000000000005,233.6734376571314 L 278.40000000000003,232.90508208224037 L 293.59999999999997,238.7307501634628 L 308.8,238.73828941048205 L 324,232.9116367242062 L 339.2,233.6650423917875 L 354.4,239.39330235719163 L 369.6,237.8918015954148 L 384.8,232.35963352538556 L 400,234.58362031580788 L 415.2,239.82534178992165 L 430.40000000000003,236.91680050239086 L 445.6,232.05492657039426 L 460.79999999999995,235.59841530428574 L 476,239.99751929319822 L 491.2,235.87951960260486 L 506.40000000000003,232.01821511738763 L 521.6,236.64049061948958 L 536.8000000000001,239.89813855838614 L 552,234.85042313972613 L 567.1999999999999,232.25199303738037 L 582.4,237.63905632501192 L 597.6,239.5339506866725 L 612.8000000000001,233.89941937479998 L 628,232.74037940137603 L 643.1999999999999,238.5262781657265 L 658.4,238.92969557535906 L 673.6,233.09111159998778 L 688.8,233.4501972986994 L 704,239.2418856633225 L 719.2,238.1264212948488 L 734.4,232.4804095278042 L 749.6,234.33322760057996 L 764.8,239.73726639170317 L 780,237.17869562388603"
      stroke="url(#thread-18)"
      stroke-width="8"
      stroke-linecap="round"
      fill="none"
      opacity="0.7702127659574468"
      class="thread"
      style="animation-delay: 1.8s"
    >
      <title>2026-01-20: 6510 stars, Python, Vue, TypeScript, Unknown, Shell, JavaScript</title>
    </path>

    <path
      d="M 20,247.69939551815276 L 35.2,244.24496099003258 L 50.400000000000006,245.19032945182954 L 65.6,249.42780668951636 L 80.80000000000001,251.99231378631183 L 96,249.87900153500559 L 111.2,245.56405128477795 L 126.4,244.10331757186714 L 141.60000000000002,247.20835133901383 L 156.79999999999998,251.24096485601805 L 172,251.47611932509395 L 187.2,247.6382827655121 L 202.4,244.22427258045792 L 217.6,245.23430612584622 L 232.8,249.48492069965985 L 248,251.99564428517454 L 263.20000000000005,249.8246461559769 L 278.40000000000003,245.51569856971687 L 293.59999999999997,244.1176227032449 L 308.8,247.26855290379584 L 324,251.27652429947224 L 339.2,251.44537142211502 L 354.4,247.57725502875735 L 369.6,244.2044715955923 L 384.8,245.27893283224316 L 400,249.5416857027979 L 415.2,251.99803567136482 L 430.40000000000003,249.76986192287478 L 445.6,245.46792975021526 L 460.79999999999995,244.13284032569 L 476,247.32892638359036 L 491.2,251.31131364797517 L 506.40000000000003,251.41381373935266 L 521.6,247.51632665148793 L 536.8000000000001,244.1855626893425 L 552,245.32419908222238 L 567.1999999999999,249.59808835721898 L 582.4,251.99948738282538 L 597.6,249.71466171186233 L 612.8000000000001,245.4207560535748 L 628,244.14896686254224 L 643.1999999999999,247.38945758857068 L 658.4,251.34532472484346 L 673.6,251.38145369393868 L 688.8,247.45551195395038 L 704,244.1675503059463 L 719.2,245.3700942366714 L 734.4,249.6541154063757 L 749.6,251.9999990783545 L 764.8,249.6590584968716 L 780,245.37418856722294"
      stroke="url(#thread-19)"
      stroke-width="8"
      stroke-linecap="round"
      fill="none"
      opacity="0.7574468085106383"
      class="thread"
      style="animation-delay: 1.9000000000000001s"
    >
      <title>2026-01-19: 4551 stars, JavaScript, TypeScript, Shell, Python</title>
    </path>

    <path
      d="M 20,257.8239155564425 L 35.2,256.0082288787952 L 50.400000000000006,257.4123401611967 L 65.6,260.90368080051695 L 80.80000000000001,263.6661044980358 L 96,263.47141581969805 L 111.2,260.4766523787142 L 126.4,257.09741690513215 L 141.60000000000002,256.0594306775507 L 156.79999999999998,258.19994258540936 L 172,261.79239675535854 L 187.2,263.93908781883994 L 202.4,262.908475740821 L 217.6,259.5318613563571 L 232.8,256.53285175033716 L 248,256.33047464715514 L 263.20000000000005,259.0879692116331 L 278.40000000000003,262.58111589210694 L 293.59999999999997,263.99231162105747 L 308.8,262.1832734179883 L 324,258.6131875285613 L 339.2,256.1617168680458 L 354.4,256.8062393952925 L 369.6,260.02687752829013 L 384.8,263.22583600878966 L 400,263.8228065783645 L 415.2,261.3362674854505 L 430.40000000000003,257.7718831972351 L 445.6,256.0047176669248 L 460.79999999999995,257.4601822712731 L 476,260.9642863625924 L 491.2,263.6905885286749 L 506.40000000000003,263.44002928281833 L 521.6,260.4147119330994 L 536.8000000000001,257.05488426310984 L 552,256.0706130450855 L 567.1999999999999,258.2558201657535 L 582.4,261.8478981970388 L 597.6,263.9494451671625 L 612.8000000000001,262.8653346668458 L 628,259.47001983265363 L 643.1999999999999,256.5021916979427 L 658.4,256.3557267360298 L 673.6,259.1487648831153 L 688.8,262.6284168188291 L 704,263.98796445636117 L 719.2,262.1307846234406 L 734.4,258.5548950309818 L 749.6,256.1446399125499 L 764.8,256.8441524055132 L 780,260.08919953421156"
      stroke="url(#thread-20)"
      stroke-width="7.412"
      stroke-linecap="round"
      fill="none"
      opacity="0.7446808510638299"
      class="thread"
      style="animation-delay: 2s"
    >
      <title>2026-01-18: 3706 stars, JavaScript, Shell, Vue, TypeScript, Python, HTML</title>
    </path>

    <path
      d="M 20,268.48121696011333 L 35.2,270.08636569487527 L 50.400000000000006,275.5062783944272 L 65.6,273.9365460851273 L 80.80000000000001,268.50637596808366 L 96,270.0406248248158 L 111.2,275.48082049269146 L 126.4,273.9821206005001 L 141.60000000000002,268.53213167654 L 156.79999999999998,269.9952186101481 L 172,275.45476807727573 L 187.2,274.0273565756308 L 202.4,268.5584796864847 L 217.6,269.95015480611715 L 232.8,275.4281255978543 L 248,274.07224628435074 L 263.20000000000005,268.58541549775686 L 278.40000000000003,269.9054411094854 L 293.59999999999997,275.40089760488263 L 308.8,274.11678205963267 L 324,268.61293450980077 L 339.2,269.8610851572178 L 354.4,275.3730887488201 L 369.6,274.1609562948999 L 384.8,268.641032022452 L 400,269.8170945251777 L 415.2,275.34470377933576 L 430.40000000000003,274.2047614453259 L 445.6,268.6697032367397 L 460.79999999999995,269.77347672683277 L 476,275.315747544497 L 491.2,274.24819002912255 L 506.40000000000003,268.6989432557067 L 521.6,269.7302392119721 L 536.8000000000001,275.2862249899419 L 552,274.2912346288183 L 567.1999999999999,268.7287470852457 L 582.4,269.6873893654331 L 597.6,275.2561411580338 L 612.8000000000001,274.33388789252484 L 628,268.75910963495204 L 643.1999999999999,269.6449345058408 L 658.4,275.22550118700104 L 673.6,274.37614253519286 L 688.8,268.7900257189935 L 704,269.60288188435777 L 719.2,275.19431031005854 L 734.4,274.41799133985637 L 749.6,268.82149005699597 L 764.8,269.56123868344525 L 780,275.1625738545142"
      stroke="url(#thread-21)"
      stroke-width="8"
      stroke-linecap="round"
      fill="none"
      opacity="0.7319148936170212"
      class="thread"
      style="animation-delay: 2.1s"
    >
      <title>2026-01-17: 6237 stars, JavaScript, TypeScript, Shell, Python</title>
    </path>

    <path
      d="M 20,280.0000391737972 L 35.2,283.497280086713 L 50.400000000000006,287.86918391809496 L 65.6,285.50924441397876 L 80.80000000000001,280.52342897195075 L 96,281.58636489480557 L 111.2,286.84869111317977 L 126.4,287.15468992735185 L 141.60000000000002,281.9719658447682 L 156.79999999999998,280.3177398902296 L 172,285.0701357723014 L 187.2,287.96064384564056 L 202.4,283.96018099566294 L 217.6,280.0289976900665 L 232.8,283.0068075988675 L 248,287.71263452313343 L 263.20000000000005,285.95899234467396 L 278.40000000000003,280.79697521197386 L 293.59999999999997,281.2077769292306 L 308.8,286.47665948939493 L 324,287.4364980674395 L 339.2,282.4173066736715 L 354.4,280.15178213744275 L 369.6,284.58162290821036 L 384.8,287.9995204937244 L 400,284.4588071807098 L 415.2,280.11983301292025 L 430.40000000000003,282.53181119723644 L 445.6,287.498234250641 L 460.79999999999995,286.37821493668866 L 476,281.1204315073999 L 491.2,280.87269783960323 L 506.40000000000003,286.06603615292903 L 521.6,287.6647581333508 L 536.8000000000001,282.8873092884898 L 552,280.04578794392677 L 567.1999999999999,284.08404710096613 L 582.4,287.97607596022596 L 597.6,284.95028415732907 L 612.8000000000001,280.2711297315215 L 628,282.079692353332 L 643.1999999999999,287.229323920682 L 658.4,286.7603797951216 L 673.6,281.48875770940293 L 688.8,280.5863488830272 L 704,285.6232195036786 L 719.2,287.8359133394565 L 734.4,283.37465003171275 L 749.6,280.00140892851726 L 764.8,283.585161658067 L 780,287.89067556169545"
      stroke="url(#thread-22)"
      stroke-width="8"
      stroke-linecap="round"
      fill="none"
      opacity="0.7191489361702128"
      class="thread"
      style="animation-delay: 2.2s"
    >
      <title>2026-01-16: 5731 stars, JavaScript, TypeScript, Shell, Python, C</title>
    </path>

    <path
      d="M 20,292.49819130124627 L 35.2,295.5027028723403 L 50.400000000000006,298.91659434266836 L 65.6,299.9295165901757 L 80.80000000000001,297.70762203249654 L 96,294.0799961791571 L 111.2,292.03293640389774 L 126.4,293.2516024993469 L 141.60000000000002,296.73277651871535 L 156.79999999999998,299.61072168211905 L 172,299.51628515221944 L 187.2,296.5272080116491 L 202.4,293.1041280371996 L 217.6,292.06495841812443 L 232.8,294.2651538318838 L 248,297.8934917181972 L 263.20000000000005,299.9630885507588 L 278.40000000000003,298.77023180913574 L 293.59999999999997,295.2968929255468 L 308.8,292.4023587188418 L 324,292.46943829038594 L 339.2,295.44291107542625 L 354.4,298.8749849565149 L 369.6,299.9403428717659 L 384.8,297.7619716800697 L 400,294.1331280269003 L 415.2,292.0411117908266 L 430.40000000000003,293.20809136632573 L 445.6,296.67339765950163 L 460.79999999999995,299.5843563591401 L 476,299.5446375593346 L 491.2,296.58693816774394 L 506.40000000000003,293.1460654887901 L 521.6,292.0545798415247 L 536.8000000000001,294.2110029736918 L 552,297.840146098847 L 567.1999999999999,299.9544628101297 L 582.4,298.81342674197026 L 597.6,295.35635003719926 L 612.8000000000001,292.4291323287055 L 628,292.4414880988121 L 643.1999999999999,295.3832459557295 L 658.4,298.832721823575 L 673.6,299.9502731533671 L 688.8,297.81592067047734 L 704,294.18668438523093 L 719.2,292.0501873947942 L 734.4,293.16521508925155 L 749.6,296.61386567546714 L 764.8,299.5571759844352 L 780,299.57218394643644"
      stroke="url(#thread-23)"
      stroke-width="7.494"
      stroke-linecap="round"
      fill="none"
      opacity="0.7063829787234044"
      class="thread"
      style="animation-delay: 2.3000000000000003s"
    >
      <title>2026-01-15: 3747 stars, TypeScript, Shell, Python, JavaScript, C</title>
    </path>

    <path
      d="M 20,305.8537083279983 L 35.2,309.70264680657795 L 50.400000000000006,311.96877087822594 L 65.6,310.5454464397085 L 80.80000000000001,306.7558242574205 L 96,304.12281264316204 L 111.2,305.09411167223107 L 126.4,308.7667824081966 L 141.60000000000002,311.72663693472487 L 156.79999999999998,311.22213549094977 L 172,307.7222726742476 L 187.2,304.4805907149618 L 202.4,304.5106217725662 L 217.6,307.7844483773613 L 232.8,311.25865606673125 L 248,311.7035521280343 L 263.20000000000005,308.7055523154379 L 278.40000000000003,305.05165700801274 L 293.59999999999997,304.13860010950737 L 308.8,306.81517751095413 L 324,310.59318951297297 L 339.2,311.96052085874504 L 354.4,309.64607307689266 L 369.6,305.8014029547978 L 384.8,304.00059246626824 L 400,305.917710933483 L 415.2,309.77056681913723 L 430.40000000000003,311.9774685004676 L 445.6,310.4868361886439 L 460.79999999999995,306.6843913906031 L 476,304.10496257731717 L 491.2,305.1464381843387 L 506.40000000000003,308.8406417296792 L 521.6,311.7533679682384 L 536.8000000000001,311.17688853496253 L 552,307.64711020086463 L 567.1999999999999,304.4453852575068 L 582.4,304.54810102597105 L 597.6,307.85977088066 L 612.8000000000001,311.3018005196009 L 628,311.674410587173 L 643.1999999999999,308.6312153380519 L 658.4,305.00122972989396 L 673.6,304.15896073346363 L 688.8,306.8873983951471 L 704,310.6501326840189 L 719.2,311.9492508099025 L 734.4,309.5770666701896 L 749.6,305.73880992127545 L 764.8,304.00260053743375 L 780,305.982453366358"
      stroke="url(#thread-24)"
      stroke-width="8"
      stroke-linecap="round"
      fill="none"
      opacity="0.6936170212765957"
      class="thread"
      style="animation-delay: 2.4000000000000004s"
    >
      <title>2026-01-14: 4003 stars, TypeScript, Shell, Python, C, HTML, Jupyter Notebook</title>
    </path>

    <path
      d="M 20,319.7347124105952 L 35.2,323.73188560941395 L 50.400000000000006,322.48412910968403 L 65.6,317.7450859237962 L 80.80000000000001,316.17518216065025 L 96,319.98081848012083 L 111.2,323.8134132152041 L 126.4,322.2864963471428 L 141.60000000000002,317.54605316774433 L 156.79999999999998,316.25447738843167 L 172,320.22699725354187 L 187.2,323.88048680497167 L 202.4,322.08019705596394 L 217.6,317.35632162948093 L 232.8,316.3479693058413 L 248,320.4723156371351 L 263.20000000000005,323.9328521490578 L 278.40000000000003,321.8660131742935 L 293.59999999999997,317.17661045024215 L 308.8,316.4553035495841 L 324,320.71584379832086 L 339.2,323.97031076660556 L 354.4,321.64475652531536 L 369.6,317.0076007910032 L 384.8,316.5760732896651 L 400,320.95665869001635 L 415.2,323.9927206778642 L 430.40000000000003,321.41726574018975 L 445.6,316.84993325066716 L 460.79999999999995,316.70982077140127 L 476,321.19384754926966 L 491.2,323.999996942336 L 506.40000000000003,321.184403079382 L 521.6,316.7042054379969 L 536.8000000000001,316.856039050453 L 552,321.4265113569139 L 567.1999999999999,323.9921119807271 L 582.4,320.9470511644283 L 597.6,316.57096970649326 L 612.8000000000001,317.0141739143 L 628,321.6537682451279 L 643.1999999999999,323.9690956794819 L 658.4,320.70610963252716 L 673.6,316.45073106080406 L 688.8,317.1836259828788 L 704,321.87475683998787 L 719.2,323.93103527750367 L 734.4,320.4624917266361 L 749.6,316.34394524260046 L 764.8,317.363752980418 L 780,322.0886395263418"
      stroke="url(#thread-25)"
      stroke-width="8"
      stroke-linecap="round"
      fill="none"
      opacity="0.6808510638297873"
      class="thread"
      style="animation-delay: 2.5s"
    >
      <title>2026-01-13: 5049 stars, TypeScript, Shell, C, Rust, Python</title>
    </path>

    <path
      d="M 20,333.68066814730656 L 35.2,335.90700566990085 L 50.400000000000006,335.04628292003935 L 65.6,331.7785867036272 L 80.80000000000001,328.6858367884942 L 96,328.2117218207054 L 111.2,330.7308564297999 L 126.4,334.25278525692966 L 141.60000000000002,335.99471055792725 L 156.79999999999998,334.5802769218645 L 172,331.12707727151417 L 187.2,328.36360405201924 L 202.4,328.47337300680954 L 217.6,331.3696518892204 L 232.8,334.7639906095262 L 248,335.97440477864853 L 263.20000000000005,334.0445043090323 L 278.40000000000003,330.49917029195495 L 293.59999999999997,328.1396937214436 L 308.8,328.8303786195604 L 324,332.02549096646817 L 339.2,335.2004620193674 L 354.4,335.84663736828105 L 369.6,333.45345152720546 L 384.8,329.91184337844226 L 400,328.02015997863396 L 415.2,329.2730857907699 L 430.40000000000003,332.6806408082235 L 445.6,335.5503979885594 L 460.79999999999995,335.6148629559032 L 476,332.8230997105493 L 491.2,329.3809769235438 L 506.40000000000003,328.0082348272959 L 521.6,329.7895244174008 L 536.8000000000001,333.3173871970063 L 552,335.8043368009155 L 567.1999999999999,335.28534835573913 L 582.4,332.1704925770921 L 597.6,328.920924718157 L 612.8000000000001,328.10424070469617 L 628,330.3657308142558 L 643.1999999999999,333.9185135156528 L 658.4,335.9554123518258 L 673.6,334.8670031223946 L 688.8,331.5132755934955 L 704,328.54412584766186 L 719.2,328.305581763468 L 734.4,330.9861252699824 L 749.6,334.46776625746446 L 764.8,335.99953979688655 L 780,334.3711386505658"
      stroke="url(#thread-26)"
      stroke-width="7.33"
      stroke-linecap="round"
      fill="none"
      opacity="0.6680851063829787"
      class="thread"
      style="animation-delay: 2.6s"
    >
      <title>2026-01-12: 3665 stars, TypeScript, Unknown, Python, Shell, C</title>
    </path>

    <path
      d="M 20,347.21513770620646 L 35.2,347.88346518112775 L 50.400000000000006,345.7386975570411 L 65.6,342.33445640911856 L 80.80000000000001,340.1366976922633 L 96,340.7374285410398 L 111.2,343.7014929986678 L 126.4,346.88178923469513 L 141.60000000000002,347.97458196692116 L 156.79999999999998,346.1882766436049 L 172,342.8168327869722 L 187.2,340.30244872952346 L 202.4,340.4664879029191 L 217.6,343.1901240081705 L 232.8,346.5004161222079 L 248,347.999462863673 L 263.20000000000005,346.60138838588836 L 278.40000000000003,343.31892649180315 L 293.59999999999997,340.52981897547403 L 308.8,340.25443278210247 L 324,342.69225149523464 L 339.2,346.07737390182285 L 354.4,347.9576932344904 L 369.6,346.97114833069577 L 384.8,343.8323701976389 L 400,340.81501933468127 L 415.2,340.1047970494649 L 430.40000000000003,342.2161724402213 L 445.6,345.6197125168554 L 460.79999999999995,347.849969164785 L 476,347.2913944768707 L 491.2,344.3486074322235 L 506.40000000000003,341.1532969804317 L 521.6,340.0200743649349 L 536.8000000000001,341.76982063836374 L 552,345.13505883447425 L 567.1999999999999,347.6780858621 L 582.4,347.5567899642401 L 597.6,344.8590351695095 L 612.8000000000001,341.53901455996845 L 628,340.00167662097783 L 643.1999999999999,341.36063448410624 L 658.4,344.6314895449572 L 673.6,347.44490773921115 L 688.8,347.76291201169147 L 704,345.35514719796276 L 719.2,341.9657441402377 L 734.4,340.0499104135923 L 749.6,340.99543301123316 L 764.8,344.1173965647027 L 780,347.15432067906244"
      stroke="url(#thread-27)"
      stroke-width="6.996"
      stroke-linecap="round"
      fill="none"
      opacity="0.6553191489361703"
      class="thread"
      style="animation-delay: 2.7s"
    >
      <title>2026-01-11: 3498 stars, TypeScript, Unknown, Shell, Python</title>
    </path>

    <path
      d="M 20,359.9624294227795 L 35.2,358.6892753380216 L 50.400000000000006,355.0752827199392 L 65.6,352.26619609678914 L 80.80000000000001,352.70714190019737 L 96,356.0143056084105 L 111.2,359.30901721886465 L 126.4,359.72344546679363 L 141.60000000000002,356.89685763051045 L 156.79999999999998,353.289613804592 L 172,352.04158413450983 L 187.2,354.23909693375293 L 202.4,357.9693608398251 L 217.6,359.98542476246433 L 232.8,358.5324367350324 L 248,354.8751279343577 L 263.20000000000005,352.196946796473 L 278.40000000000003,352.8290750780948 L 293.59999999999997,356.221286397155 L 308.8,359.4208823606815 L 324,359.6428236621367 L 339.2,356.6939248945683 L 354.4,353.1410098295709 L 369.6,352.07665897468524 L 384.8,354.42732023164456 L 400,358.1468965083112 L 415.2,359.99773959776473 L 430.40000000000003,358.36881147735414 L 445.6,354.67798768342305 L 460.79999999999995,352.1378892646221 L 476,352.9595059894961 L 491.2,356.4276741624513 L 506.40000000000003,359.5235799102768 L 521.6,359.5524394867378 L 536.8000000000001,356.48913251547106 L 552,353.00006763688685 L 567.1999999999999,352.12224794159005 L 582.4,354.61975814006394 L 597.6,358.3186787279339 L 612.8000000000001,359.99934092626296 L 628,358.19883806286003 L 643.1999999999999,354.48439028154104 L 658.4,352.08918176899095 L 673.6,353.09808509376165 L 688.8,356.6329158075623 L 704,359.61683464940046 L 719.2,359.4525351603449 L 734.4,356.28302931449485 L 749.6,352.8671649362688 L 764.8,352.17822886175713 L 780,354.8158949463713"
      stroke="url(#thread-28)"
      stroke-width="7.724"
      stroke-linecap="round"
      fill="none"
      opacity="0.6425531914893617"
      class="thread"
      style="animation-delay: 2.8000000000000003s"
    >
      <title>2026-01-10: 3862 stars, TypeScript, Unknown, Shell, Python</title>
    </path>

    <path
      d="M 20,371.7395802220987 L 35.2,368.8925102885218 L 50.400000000000006,365.2503515353906 L 65.6,364.0577048831635 L 80.80000000000001,366.37703429562873 L 96,370.14217548490035 L 111.2,371.9989691744602 L 126.4,370.29329896724903 L 141.60000000000002,366.54465357845754 L 156.79999999999998,364.09249707413954 L 172,365.12132216598104 L 187.2,368.714604598385 L 202.4,371.6712847037513 L 217.6,371.35741716513706 L 232.8,368.05260948285076 L 248,364.70093487683806 L 263.20000000000005,364.288217757525 L 278.40000000000003,367.182125334382 L 293.59999999999997,370.80463291819984 L 308.8,371.92864574527044 L 324,369.55284198957924 L 339.2,365.79369585640825 L 354.4,364.00002595322167 L 369.6,365.7697151328398 L 384.8,369.52624366333777 L 400,371.92312481694637 L 415.2,370.8251076822268 L 430.40000000000003,367.2103559383234 L 445.6,364.2990550934638 L 460.79999999999995,364.6847245522709 L 476,368.02379239329497 L 491.2,371.3416648866098 L 506.40000000000003,371.6826300834933 L 521.6,368.7429406553311 L 536.8000000000001,365.1414058498742 L 552,364.08643692454035 L 567.1999999999999,366.51784825267345 L 582.4,370.269627870492 L 597.6,371.9995195979583 L 612.8000000000001,370.1664570863293 L 628,366.4034159183897 L 643.1999999999999,364.0626845759976 L 658.4,365.2294931610923 L 673.6,368.86439543703125 L 688.8,371.72925488377706 L 704,371.27192420958846 L 719.2,367.89981441080124 L 734.4,364.6169544984039 L 749.6,364.347865619187 L 764.8,367.3322644039651 L 780,370.91151247356777"
      stroke="url(#thread-29)"
      stroke-width="7.822"
      stroke-linecap="round"
      fill="none"
      opacity="0.6297872340425532"
      class="thread"
      style="animation-delay: 2.9000000000000004s"
    >
      <title>2026-01-09: 3911 stars, TypeScript, Unknown, Python, Shell</title>
    </path>

    <path
      d="M 20,382.6011513606285 L 35.2,379.0509726741375 L 50.400000000000006,376.29093272733314 L 65.6,376.618978508276 L 80.80000000000001,379.76198650107756 L 96,383.10315916305353 L 111.2,383.8607115189294 L 126.4,381.403922568997 L 141.60000000000002,377.7782593632292 L 156.79999999999998,376.0023672850244 L 172,377.5548140112583 L 187.2,381.1430674237623 L 202.4,383.77962868897475 L 217.6,383.26935638321925 L 232.8,380.03709171557296 L 248,376.7739453223989 L 263.20000000000005,376.1967392679852 L 278.40000000000003,378.7860422903916 L 293.59999999999997,382.38605911266797 L 308.8,383.99949695168067 L 324,382.28304386483455 L 339.2,378.6657799658548 L 354.4,376.15935756481196 L 369.6,376.8505674032503 L 384.8,380.16392376466916 L 400,383.34080089805036 L 415.2,383.73620257841384 L 430.40000000000003,381.0209262876884 L 445.6,377.4556498038347 L 460.79999999999995,376.0087418880225 L 476,377.8848654260158 L 491.2,381.5220022889275 L 506.40000000000003,383.89195438528844 L 521.6,383.02155307020786 L 536.8000000000001,379.6354748407448 L 552,376.5528920345102 L 567.1999999999999,376.3402935471576 L 582.4,379.17468408263846 L 597.6,382.69621403024814 L 612.8000000000001,383.9729370078904 L 628,381.9418822696317 L 643.1999999999999,378.29406016616343 L 658.4,376.0665650791631 L 673.6,377.1139591616237 L 688.8,380.56420573165246 L 704,383.54470733904094 L 719.2,383.57396559115256 L 734.4,380.6276207274 L 749.6,377.1587330063083 L 764.8,376.05542007988186 L 780,378.2362753978659"
      stroke="url(#thread-30)"
      stroke-width="7.54"
      stroke-linecap="round"
      fill="none"
      opacity="0.6170212765957447"
      class="thread"
      style="animation-delay: 3s"
    >
      <title>2026-01-08: 3770 stars, TypeScript, Unknown, Python, Rust, JavaScript</title>
    </path>

    <path
      d="M 20,392.82586992775117 L 35.2,389.4607444373136 L 50.400000000000006,388.00032268743297 L 65.6,389.5400717160333 L 80.80000000000001,392.92502083903304 L 96,395.6161088642804 L 111.2,395.5947420341492 L 126.4,392.87694767644075 L 141.60000000000002,389.5013520544034 L 156.79999999999998,388.00000026912176 L 172,389.4990611093303 L 187.2,392.87408423154056 L 202.4,395.5934539686242 L 217.6,395.61736236021153 L 232.8,392.9278756451025 L 248,389.5423864330536 L 263.20000000000005,388.0003610387442 L 278.40000000000003,389.45847765547427 L 293.59999999999997,392.8229983330881 L 308.8,395.5701853218288 L 324,395.6393648516532 L 339.2,392.9786451353925 L 354.4,389.5838405647156 L 369.6,388.0014049346819 L 384.8,389.4183282859971 L 400,392.77177186899354 L 415.2,395.54630689810915 L 430.40000000000003,395.66074575051493 L 445.6,393.0292474760342 L 460.79999999999995,389.6257073691485 L 476,388.0031317786406 L 491.2,389.37861985829056 L 506.40000000000003,392.720413588583 L 521.6,395.52182277582835 L 536.8000000000001,395.68150140500336 L 552,393.07967402430006 L 567.1999999999999,389.6679796956276 L 582.4,388.00554127568046 L 597.6,389.3393591544347 L 612.8000000000001,392.66893226369643 L 628,395.4967371368009 L 643.1999999999999,395.7016282701151 L 658.4,393.12991616748707 L 673.6,389.7106503241668 L 688.8,388.00863301426676 L 704,389.30055288003973 L 719.2,392.61733668718944 L 734.4,395.47105426557846 L 749.6,395.7211229082421 L 764.8,393.17996532438815 L 780,389.7537119667509"
      stroke="url(#thread-31)"
      stroke-width="7.128"
      stroke-linecap="round"
      fill="none"
      opacity="0.6042553191489362"
      class="thread"
      style="animation-delay: 3.1s"
    >
      <title>2026-01-07: 3564 stars, TypeScript, Python, Unknown, Shell, Rust</title>
    </path>

    <path
      d="M 20,402.84838673333974 L 35.2,400.09394048697044 L 50.400000000000006,401.34344284606175 L 65.6,405.31607788563485 L 80.80000000000001,407.93965303574964 L 96,406.5248441761303 L 111.2,402.5219164503492 L 126.4,400.0341142744061 L 141.60000000000002,401.6115862110153 L 156.79999999999998,405.6373275679364 L 172,407.98470856950365 L 187.2,406.24752089852234 L 202.4,402.2064875904317 L 217.6,400.0039136010517 L 232.8,401.8975712515116 L 248,405.9463462593774 L 263.20000000000005,407.9999979556341 L 278.40000000000003,405.953408428509 L 293.59999999999997,401.904456436825 L 308.8,400.0035640687766 L 324,402.199261632412 L 339.2,406.2408255612814 L 354.4,407.9854069809892 L 369.6,405.64470381389145 L 384.8,401.61807919064086 L 400,400.0330682886196 L 415.2,402.51440369820887 L 430.40000000000003,406.5185656855787 L 445.6,407.9410446415212 L 460.79999999999995,405.32371310716263 L 476,401.3494951168312 L 491.2,400.09220586128475 L 506.40000000000003,402.84064330804364 L 521.6,406.7774918874301 L 536.8000000000001,407.8672423280766 L 552,404.99283413907875 L 567.1999999999999,401.10071056367735 L 582.4,400.1805350235447 L 597.6,403.17554342136043 L 612.8000000000001,407.01566996376545 L 628,407.764551350875 L 643.1999999999999,404.65453860663786 L 658.4,400.87358397518017 L 673.6,400.2973959482533 L 688.8,403.5166023028283 L 704,407.23132070196306 L 719.2,407.63373882117037 L 734.4,404.31135360927107 L 749.6,400.6698120083081 L 764.8,400.4419156733167 L 780,403.861272210539"
      stroke="url(#thread-32)"
      stroke-width="8"
      stroke-linecap="round"
      fill="none"
      opacity="0.5914893617021277"
      class="thread"
      style="animation-delay: 3.2s"
    >
      <title>2026-01-06: 4224 stars, TypeScript, Python, Rust, JavaScript, Go</title>
    </path>

    <path
      d="M 20,413.1528586305235 L 35.2,412.0558060365664 L 50.400000000000006,414.2329469756532 L 65.6,417.8769715514223 L 80.80000000000001,419.96286582925234 L 96,418.7590664990218 L 111.2,415.26488343713754 L 126.4,412.380942649967 L 141.60000000000002,412.50128975559505 L 156.79999999999998,415.5260210173848 L 172,418.9442164277598 L 187.2,419.91832960561175 L 202.4,417.63972002845503 L 217.6,413.9999297479801 L 232.8,412.02045768347244 L 248,413.3445228785538 L 263.20000000000005,416.87297916058264 L 278.40000000000003,419.67674929670665 L 293.59999999999997,419.4283397272919 L 308.8,416.33396267548574 L 324,412.9623532049672 L 339.2,412.1123853129753 L 354.4,414.489642802197 L 369.6,418.1206930347472 L 384.8,419.9912924668768 L 400,418.5486004877093 L 415.2,414.9902389160895 L 430.40000000000003,412.27011026138763 L 445.6,412.64627478454463 L 460.79999999999995,415.80646704920014 L 476,419.12731681240024 L 491.2,419.85208723014483 L 506.40000000000003,417.3791246726375 L 521.6,413.7613094212023 L 536.8000000000001,412.00189826539247 L 552,413.56143109795266 L 567.1999999999999,417.1452930083898 L 582.4,419.778412892376 L 597.6,419.27495907535257 L 612.8000000000001,416.0528636486837 L 628,412.78688452403804 L 643.1999999999999,412.1882087850401 L 658.4,414.75381509227054 L 673.6,418.3539168131881 L 688.8,419.9999616904219 L 704,418.32551857426057 L 719.2,414.7205928430433 L 734.4,412.1777413095642 L 749.6,412.80786118719465 L 764.8,416.08787109416 L 780,419.2949365742266"
      stroke="url(#thread-33)"
      stroke-width="7.528"
      stroke-linecap="round"
      fill="none"
      opacity="0.5787234042553191"
      class="thread"
      style="animation-delay: 3.3000000000000003s"
    >
      <title>2026-01-05: 3764 stars, Go, TypeScript, Python, Rust, JavaScript</title>
    </path>

    <path
      d="M 20,424.1544100324818 L 35.2,424.94883237351723 L 50.400000000000006,428.45627061809853 L 65.6,431.5580053436473 L 80.80000000000001,431.4960577469163 L 96,428.32550995897515 L 111.2,424.8655275009107 L 126.4,424.192633390745 L 141.60000000000002,426.90514691006626 L 156.79999999999998,430.5911742472633 L 172,431.97319937865984 L 187.2,429.8223628577818 L 202.4,426.05113046868576 L 217.6,424.01278026754295 L 232.8,425.51975823886676 L 248,429.2321002433525 L 263.20000000000005,431.84889196539393 L 278.40000000000003,431.0433528320243 L 293.59999999999997,427.53174649942287 L 308.8,424.4364985415401 L 324,424.5098199028904 L 339.2,427.68651520787836 L 354.4,431.14195272917846 L 369.6,431.80365068387323 L 384.8,429.0832451096391 L 400,425.39964722031186 L 415.2,424.02821284009207 L 430.40000000000003,426.1883844053479 L 445.6,429.95939566251155 L 460.79999999999995,431.9881651799579 L 476,430.4707658585371 L 491.2,426.7564282207917 L 506.40000000000003,424.1478410455609 L 521.6,424.9644896442253 L 536.8000000000001,428.48023212390603 L 552,431.5689651603027 L 567.1999999999999,431.48427070125115 L 582.4,428.30145677386673 L 597.6,424.85059561937055 L 612.8000000000001,424.2000998388325 L 628,426.9283727236587 L 643.1999999999999,430.6095076597707 L 658.4,431.97033881449283 L 673.6,429.80085185339215 L 688.8,426.0300960286024 L 704,424.01092564817594 L 719.2,425.5387325177019 L 734.4,429.2550320037584 L 749.6,431.8553909049378 L 764.8,431.0276402690677 L 780,427.5077936208703"
      stroke="url(#thread-34)"
      stroke-width="7.814"
      stroke-linecap="round"
      fill="none"
      opacity="0.5659574468085107"
      class="thread"
      style="animation-delay: 3.4000000000000004s"
    >
      <title>2026-01-04: 3907 stars, Python, Jupyter Notebook, TypeScript, Go, Rust</title>
    </path>

    <path
      d="M 20,436.09749597812737 L 35.2,438.5464839396328 L 50.400000000000006,442.2775853629805 L 65.6,443.9996805331503 L 80.80000000000001,442.1937484634113 L 96,438.4527607630349 L 111.2,436.0765576071804 L 126.4,437.1611337614119 L 141.60000000000002,440.74980926487507 L 156.79999999999998,443.6770950675134 L 172,443.3608989334322 L 187.2,440.080130281758 L 202.4,436.72868053082084 L 217.6,436.26278728922256 L 232.8,439.0934043903069 L 248,442.7237088614372 L 263.20000000000005,443.95149168687925 L 278.40000000000003,441.69375355782586 L 293.59999999999997,437.9419939337618 L 308.8,436.00555465876255 L 324,437.59252477994136 L 339.2,441.3030740433479 L 354.4,443.86421132686104 L 369.6,443.0168156765721 L 384.8,439.5083555246273 L 400,436.43356378371914 L 415.2,436.5046443233968 L 430.40000000000003,439.6588986160824 L 445.6,443.1140306823946 L 460.79999999999995,443.8223471012214 L 476,441.15905806763124 L 491.2,437.4733902712007 L 506.40000000000003,436.016387457871 L 521.6,438.07323867497905 L 536.8000000000001,441.8296422396148 L 552,443.97215999333446 L 567.1999999999999,442.6109257494609 L 582.4,438.9466532781262 L 597.6,436.21151399556453 L 612.8000000000001,436.8181120619941 L 628,440.23138111791394 L 643.1999999999999,443.44055415165525 L 658.4,443.6148926112811 L 673.6,440.6006165062583 L 688.8,437.0565502399325 L 704,436.10883406875837 L 719.2,438.5934268749247 L 734.4,442.31872584726085 L 749.6,443.9987294808282 L 764.8,442.1515447761118 L 780,438.4065313535535"
      stroke="url(#thread-35)"
      stroke-width="7.78"
      stroke-linecap="round"
      fill="none"
      opacity="0.5531914893617021"
      class="thread"
      style="animation-delay: 3.5s"
    >
      <title>2026-01-03: 3890 stars, Go, Python, Jupyter Notebook, TypeScript, Rust, JavaScript</title>
    </path>

    <path
      d="M 20,448.9960510129133 L 35.2,451.2502025791306 L 50.400000000000006,453.8201925321439 L 65.6,455.62345982513 L 80.80000000000001,455.9004112440734 L 96,454.5343860924374 L 111.2,452.10079736606195 L 126.4,449.6247496012794 L 141.60000000000002,448.1492324242103 L 156.79999999999998,448.2957803346067 L 172,450.002662717879 L 187.2,452.5508867322564 L 202.4,454.86705983263965 L 217.6,455.9755366577561 L 232.8,455.40939171213046 L 248,453.40710315178495 L 263.20000000000005,450.8120982428021 L 278.40000000000003,448.71747512258366 L 293.59999999999997,448.0055552940075 L 308.8,448.97622190407736 L 324,451.22059947828745 L 339.2,453.7932852015976 L 354.4,455.6105824834791 L 369.6,455.90698823488054 L 384.8,454.55764697917044 L 400,452.13094392757915 L 415.2,449.64908315245316 L 430.40000000000003,448.1575029037124 L 445.6,448.2845039549082 L 460.79999999999995,449.9765894467362 L 476,452.5209994560691 L 491.2,454.8459480173542 L 506.40000000000003,455.9720932676539 L 521.6,455.4250672120234 L 536.8000000000001,453.43529452536404 L 552,450.84093039193425 L 567.1999999999999,448.7348030342076 L 582.4,448.0040799037339 L 597.6,448.9565646929503 L 612.8000000000001,451.19104068531334 L 628,453.766275925205 L 643.1999999999999,455.59749988508094 L 658.4,455.9133431186731 L 673.6,454.5807624671204 L 688.8,452.1610830451106 L 704,449.67355035008086 L 719.2,448.16599182399483 L 734.4,448.27343879615154 L 749.6,449.9506312037559 L 764.8,452.491082561765 L 780,454.8246744137602"
      stroke="url(#thread-36)"
      stroke-width="5.26"
      stroke-linecap="round"
      fill="none"
      opacity="0.5404255319148936"
      class="thread"
      style="animation-delay: 3.6s"
    >
      <title>2026-01-02: 2630 stars, TypeScript, Rust, Python, JavaScript, Jupyter Notebook, Shell</title>
    </path>

    <path
      d="M 20,462.63007752612157 L 35.2,466.1916033785066 L 50.400000000000006,467.9924293489756 L 65.6,466.58580001423803 L 80.80000000000001,463.1017793848996 L 96,460.33937515132504 L 111.2,460.5178596761868 L 126.4,463.49384128335856 L 141.60000000000002,466.876462888151 L 156.79999999999998,467.9481791908379 L 172,465.8479900733804 L 187.2,462.26315462990743 L 202.4,460.0736735959136 L 217.6,461.0385417949226 L 232.8,464.38259920449593 L 248,467.419282396278 L 263.20000000000005,467.7089675817571 L 278.40000000000003,465.01892621302727 L 293.59999999999997,461.51029545875775 L 308.8,460.0018543988289 L 324,461.7054609917295 L 339.2,465.2524643417872 L 354.4,467.7932574257376 L 369.6,467.2866068129528 L 384.8,464.1395476827228 L 400,460.88037812644524 L 415.2,460.12746399861726 L 430.40000000000003,462.4856847354364 L 445.6,466.0604826748869 L 460.79999999999995,467.97992105523883 L 476,466.7019530979672 L 491.2,463.253278275033 L 506.40000000000003,460.40450800867484 L 521.6,460.4442997817082 L 536.8000000000001,463.3406855059433 L 552,466.7667541843187 L 567.1999999999999,467.9700558176185 L 582.4,465.98387669092597 L 597.6,462.40388205468184 L 612.8000000000001,460.1061836155538 L 628,460.93671636804265 L 643.1999999999999,464.22824328670123 L 658.4,467.3364031181012 L 673.6,467.76414885921616 L 688.8,465.16783627073846 L 704,461.633302285017 L 719.2,460.0001362330049 L 734.4,461.58039818137655 L 749.6,465.1045303930059 L 764.8,467.7413001595822 L 780,467.3723678845429"
      stroke="url(#thread-37)"
      stroke-width="7.396"
      stroke-linecap="round"
      fill="none"
      opacity="0.5276595744680851"
      class="thread"
      style="animation-delay: 3.7s"
    >
      <title>2026-01-01: 3698 stars, Rust, Python, JavaScript, TypeScript, Jupyter Notebook, Go, Shell</title>
    </path>

    <path
      d="M 20,476.5995088386518 L 35.2,479.52992078499085 L 50.400000000000006,479.61733767904826 L 65.6,476.79135403230777 L 80.80000000000001,473.32801455366865 L 96,472.0166897706534 L 111.2,473.9135194940755 L 126.4,477.4907987562656 L 141.60000000000002,479.86739002963964 L 156.79999999999998,479.1291888220438 L 172,475.87074172775493 L 187.2,472.71639913066093 L 202.4,472.2066657454484 L 217.6,474.7520803859921 L 232.8,478.30256837077485 L 248,479.99856984314425 L 263.20000000000005,478.47412672973206 L 278.40000000000003,474.9570241545965 L 293.59999999999997,472.27993339523294 L 308.8,472.5989809618285 L 324,475.6572062287707 L 339.2,478.99151729336074 L 354.4,479.9164629976849 L 369.6,477.6870928963383 L 384.8,474.09893968081434 L 400,472.04189875101486 L 415.2,473.1727090373507 L 430.40000000000003,476.58061694365296 L 445.6,479.5208964813258 L 460.79999999999995,479.6254491328411 L 476,476.81006828590745 L 491.2,473.3422591639152 L 506.40000000000003,472.0149921411575 L 521.6,473.89724689411923 L 536.8000000000001,477.47305712334196 L 552,479.8624684590835 L 567.1999999999999,479.1410511423921 L 582.4,475.8898340367778 L 597.6,472.7273444996977 L 612.8000000000001,472.2006487840378 L 628,474.73394714948836 L 643.1999999999999,478.28692335168694 L 658.4,479.99801352589355 L 673.6,478.4891071717361 L 688.8,474.9754761212247 L 704,472.28699568901817 L 719.2,472.58896561765425 L 734.4,475.63817959590335 L 749.6,478.9788034049439 L 764.8,479.92030160811134 L 780,477.7043923921939"
      stroke="url(#thread-38)"
      stroke-width="7.406"
      stroke-linecap="round"
      fill="none"
      opacity="0.5148936170212767"
      class="thread"
      style="animation-delay: 3.8000000000000003s"
    >
      <title>2025-12-31: 3703 stars, Go, Python, TypeScript, Rust, Shell</title>
    </path>

    <path
      d="M 20,490.4221594788784 L 35.2,491.9462464439161 L 50.400000000000006,489.2665899301224 L 65.6,485.23769706356256 L 80.80000000000001,484.1513505180791 L 96,487.16478217749597 L 111.2,491.0679305651137 L 126.4,491.7029624552209 L 141.60000000000002,488.3934094100687 L 156.79999999999998,484.66477654676754 L 172,484.4889942317606 L 187.2,488.05331477452887 L 202.4,491.5608416935495 L 217.6,491.27517797910446 L 232.8,487.5006272254582 L 248,484.25803388357537 L 263.20000000000005,485.0015741710758 L 278.40000000000003,488.93919095740523 L 293.59999999999997,491.8763335162174 L 308.8,490.6842074213456 L 324,486.63272634100184 L 339.2,484.037735069259 L 354.4,485.66355098751916 L 369.6,489.7782718536648 L 384.8,491.99868662041376 L 400,489.95949595112364 L 415.2,485.83295000805634 L 430.40000000000003,484.01485651503293 L 445.6,486.44194161772674 L 460.79999999999995,490.52875017084455 L 476,491.9218047500639 L 491.2,489.13715239241725 L 506.40000000000003,485.14114716515155 L 521.6,484.1905381472282 L 536.8000000000001,487.2979626680199 L 552,491.1532332491501 L 567.1999999999999,491.6495185523119 L 582.4,488.25815009811464 L 597.6,484.59178696050566 L 612.8000000000001,484.5560266103457 L 628,488.18896280100824 L 643.1999999999999,491.62060615459905 L 658.4,491.19539471513013 L 673.6,487.36628544846656 L 688.8,484.2122413231492 L 704,485.0931114038989 L 719.2,489.07054784288727 L 734.4,491.90758198382537 L 749.6,490.5820600056875 L 764.8,486.5059956919095 L 780,484.0214211537293"
      stroke="url(#thread-39)"
      stroke-width="8"
      stroke-linecap="round"
      fill="none"
      opacity="0.5021276595744681"
      class="thread"
      style="animation-delay: 3.9000000000000004s"
    >
      <title>2025-12-30: 4315 stars, Go, Shell, Rust, Python, Swift, TypeScript</title>
    </path>

    <path
      d="M 20,503.6517810029105 L 35.2,503.6787711205749 L 50.400000000000006,501.34693557953784 L 65.6,498.1514458177036 L 80.80000000000001,496.1412477997109 L 96,496.6052791921062 L 111.2,499.2460033667738 L 126.4,502.37018969408285 L 141.60000000000002,503.974611925408 L 156.79999999999998,503.03051556567505 L 172,500.14325458897866 L 187.2,497.16413886265684 L 202.4,496.00337545998644 L 217.6,497.40524512259526 L 232.8,500.4708699312177 L 248,503.2345732450629 L 263.20000000000005,503.9242702901488 L 278.40000000000003,502.0977277680838 L 293.59999999999997,498.92612356043264 L 308.8,496.4430882299696 L 324,496.24074242160253 L 339.2,498.44883013653816 L 354.4,501.65152696278113 L 369.6,503.7952657706637 L 384.8,503.50548262569555 L 400,500.9679862926532 L 415.2,497.80981777600823 L 430.40000000000003,496.055992682168 L 445.6,496.83106252483964 L 460.79999999999995,499.6380530231405 L 476,502.67712368846526 L 491.2,503.99962437949864 L 506.40000000000003,502.75756851011886 L 521.6,499.7473614989309 L 536.8000000000001,496.899146130921 L 552,496.03919625443854 L 567.1999999999999,497.71891117304415 L 582.4,500.86125876936836 L 597.6,503.4513678008617 L 612.8000000000001,503.82846203489845 L 628,501.750748892968 L 643.1999999999999,498.55045669533627 L 658.4,496.2796107253637 L 673.6,496.3942759475084 L 688.8,498.82092909563335 L 704,502.0036017436106 L 719.2,503.90156625190104 L 734.4,503.2978490076531 L 749.6,500.5795531166751 L 764.8,497.48964814283033 L 780,496.00937915311687"
      stroke="url(#thread-40)"
      stroke-width="6.556"
      stroke-linecap="round"
      fill="none"
      opacity="0.4893617021276596"
      class="thread"
      style="animation-delay: 4s"
    >
      <title>2025-12-29: 3278 stars, Shell, Go, JavaScript, TypeScript, Rust, Python</title>
    </path>

    <path
      d="M 20,515.9873191771152 L 35.2,514.047482999414 L 50.400000000000006,510.3820203254583 L 65.6,508.0801971042304 L 80.80000000000001,509.0819987428772 L 96,512.543102992015 L 111.2,515.5464779640431 L 126.4,515.5608677552972 L 141.60000000000002,512.5741445947184 L 156.79999999999998,509.1035301756477 L 172,508.07407159324777 L 187.2,510.35340047478707 L 202.4,514.020489728569 L 217.6,515.9847025179181 L 232.8,514.5905927978353 L 248,511.013121567923 L 263.20000000000005,508.26739525186923 L 278.40000000000003,508.66752248149226 L 293.59999999999997,511.8762744986007 L 308.8,515.189302841099 L 324,515.8143745613664 L 339.2,513.224676824883 L 354.4,509.6028167803502 L 369.6,508.0013119140476 L 384.8,509.76991664736136 L 400,513.4180441524248 L 415.2,515.8710386268438 L 430.40000000000003,515.0615069535887 L 445.6,511.67172552046173 L 460.79999999999995,508.5586150731732 L 476,508.3459169932853 L 491.2,511.21289403534206 L 506.40000000000003,514.7432469922965 L 521.6,515.9615809009697 L 536.8000000000001,513.8410792873331 L 552,510.16890901474477 L 567.1999999999999,508.0399892219472 L 582.4,509.2485816458649 L 597.6,512.7760799730478 L 612.8000000000001,515.6494951331973 L 628,515.447101848735 L 643.1999999999999,512.3394779532408 L 658.4,508.9457407414582 L 673.6,508.1261449044653 L 688.8,510.57144894572207 L 704,514.2207412746568 L 719.2,515.9983843708651 L 734.4,514.4061738396932 L 749.6,510.7860308013615 L 764.8,508.1890256427616 L 780,508.8039242358797"
      stroke="url(#thread-41)"
      stroke-width="7.59"
      stroke-linecap="round"
      fill="none"
      opacity="0.4765957446808511"
      class="thread"
      style="animation-delay: 4.1000000000000005s"
    >
      <title>2025-12-28: 3795 stars, Shell, Rust, Python, JavaScript, TypeScript</title>
    </path>

    <path
      d="M 20,527.3466225541442 L 35.2,522.5834254016382 L 50.400000000000006,520.0416007691405 L 65.6,523.7070590321725 L 80.80000000000001,527.8318866899891 L 96,525.9478195089662 L 111.2,521.0093189531268 L 126.4,520.7605937902082 L 141.60000000000002,525.5916773037246 L 156.79999999999998,527.9268045666464 L 172,524.1041934613389 L 187.2,520.1181935079959 L 202.4,522.2193691113088 L 217.6,527.1128046697211 L 232.8,527.1249591706667 L 248,522.2367727817682 L 263.20000000000005,520.1135551376434 L 278.40000000000003,524.0847866158947 L 293.59999999999997,527.9230616943695 L 308.8,525.6094677133203 L 324,520.7720198142741 L 339.2,520.9964631054237 L 354.4,525.9308414244629 L 369.6,527.8374102050875 L 384.8,523.7264225595002 L 400,520.0444397888579 L 415.2,522.5652879629683 L 430.40000000000003,527.3359505110432 L 445.6,526.8754104087891 L 460.79999999999995,521.9058542100889 L 476,520.2201899546576 L 491.2,524.4617576115342 L 506.40000000000003,527.9792295022204 L 521.6,525.2567539328428 L 536.8000000000001,520.5635253554289 L 552,521.2591342949262 L 567.1999999999999,526.2527758020872 L 582.4,527.7137729527255 L 597.6,523.3510929089014 L 612.8000000000001,520.0059832647385 L 628,522.9240093780736 L 643.1999999999999,527.5293282058891 L 658.4,526.6002031013352 L 673.6,521.593622617851 L 688.8,520.3605536710392 L 704,524.8346081419055 L 719.2,527.9998889036088 L 734.4,524.8928255869712 L 749.6,520.3856960639004 L 764.8,521.5462634287268 L 780,526.5546076752431"
      stroke="url(#thread-42)"
      stroke-width="8"
      stroke-linecap="round"
      fill="none"
      opacity="0.4638297872340426"
      class="thread"
      style="animation-delay: 4.2s"
    >
      <title>2025-12-27: 5384 stars, Shell, Python, Rust, C, Go</title>
    </path>

    <path
      d="M 20,537.8865560123768 L 35.2,534.2075617783034 L 50.400000000000006,532.045124307535 L 65.6,533.2288515228564 L 80.80000000000001,536.7572084800925 L 96,539.644901994753 L 111.2,539.4486952082391 L 126.4,536.3345959223774 L 141.60000000000002,532.9373997336972 L 156.79999999999998,532.1314265455873 L 172,534.5985989340534 L 187.2,538.2514770494664 L 202.4,539.9994121071697 L 217.6,538.3635008448413 L 232.8,534.7278647674905 L 248,532.1685644139309 L 263.20000000000005,532.8509878089985 L 278.40000000000003,536.1977461184784 L 293.59999999999997,539.3771942190118 L 308.8,539.6992458013048 L 324,536.89141755221 L 339.2,533.3293734526782 L 354.4,532.0269089043843 L 369.6,534.0860208385311 L 384.8,537.7645236152829 L 400,539.9500877845128 L 415.2,538.7935382492149 L 430.40000000000003,535.2734153008327 L 445.6,532.3680454448015 L 460.79999999999995,532.5356212434826 L 476,535.6343591710732 L 491.2,539.042460660173 L 506.40000000000003,539.8763789861245 L 521.6,537.430547584927 L 536.8000000000001,533.7743499971074 L 552,532.001243566227 L 567.1999999999999,533.6114286993414 L 582.4,537.2425504074535 L 597.6,539.8223676960539 L 612.8000000000001,539.1681334502018 L 628,535.8333860615264 L 643.1999999999999,532.6396083822639 L 658.4,532.289010776682 L 673.6,535.0782289466464 L 688.8,538.6473446373517 L 704,539.9765792733141 L 719.2,537.941286128757 L 734.4,534.2634981007277 L 749.6,532.054939900514 L 764.8,533.1842415512565 L 780,536.6959168133101"
      stroke="url(#thread-43)"
      stroke-width="7.606"
      stroke-linecap="round"
      fill="none"
      opacity="0.4510638297872341"
      class="thread"
      style="animation-delay: 4.3s"
    >
      <title>2025-12-26: 3803 stars, Python, Shell, Go, TypeScript</title>
    </path>

    <path
      d="M 20,547.9645947628384 L 35.2,544.8885382909133 L 50.400000000000006,544.0820355412922 L 65.6,546.1333635003524 L 80.80000000000001,549.5462482491336 L 96,551.8312729123548 L 111.2,551.3217011728618 L 126.4,548.3892234277338 L 141.60000000000002,545.1728394154512 L 156.79999999999998,544.0186349920979 L 172,545.7685067292019 L 187.2,549.1460680644924 L 202.4,551.6876676284436 L 217.6,551.5394189553712 L 232.8,548.8094571789376 L 248,545.489063404534 L 263.20000000000005,544.0001899988581 L 278.40000000000003,545.4288468491675 L 293.59999999999997,548.7329470600824 L 308.8,551.502423070544 L 324,551.7171714127775 L 339.2,549.2205509499015 L 354.4,545.833639617136 L 369.6,544.0269088330888 L 384.8,545.1182191274783 L 400,548.31154998892 L 415.2,551.2776309263237 L 430.40000000000003,551.8529514544149 L 445.6,549.6178628781016 L 460.79999999999995,546.2026772732922 L 476,544.0984897992546 L 491.2,544.8401310149449 L 506.40000000000003,547.886635053173 L 521.6,551.0158294347528 L 536.8000000000001,551.9452259208651 L 552,549.9969067185986 L 567.1999999999999,546.5920093868137 L 582.4,544.2141246413621 L 597.6,544.5977225416016 L 612.8000000000001,547.4630001769534 L 628,550.7199747255961 L 643.1999999999999,551.9929528956168 L 658.4,550.3534025004407 L 673.6,546.9972398167843 L 688.8,544.3725076693768 L 704,544.3937308610793 L 719.2,547.0454288305897 L 734.4,550.393407440293 L 749.6,551.9955934698585 L 764.8,550.6833248539281 L 780,547.413792906555"
      stroke="url(#thread-44)"
      stroke-width="7.022"
      stroke-linecap="round"
      fill="none"
      opacity="0.43829787234042555"
      class="thread"
      style="animation-delay: 4.4s"
    >
      <title>2025-12-25: 3511 stars, Python, TypeScript</title>
    </path>

    <path
      d="M 20,558.051301950158 L 35.2,556.2238225850411 L 50.400000000000006,556.2999414857563 L 65.6,558.2412865655407 L 80.80000000000001,561.0692117701543 L 96,563.3581396110823 L 111.2,563.9542050576865 L 126.4,562.5569272199584 L 141.60000000000002,559.8706839320134 L 156.79999999999998,557.2496298064707 L 172,556.0150571290872 L 187.2,556.7893228893414 L 202.4,559.1821141340671 L 217.6,561.9872075417871 L 232.8,563.7905352974462 L 248,563.6830268751733 L 263.20000000000005,561.7188780459059 L 278.40000000000003,558.8882303984417 L 293.59999999999997,556.6180338243693 L 308.8,556.0527107876285 L 324,557.4772447077249 L 339.2,560.1735177628709 L 354.4,562.7823192624741 L 369.6,563.9885335578703 L 384.8,563.1840993244401 L 400,560.7745376602304 L 415.2,557.9745259761155 L 430.40000000000003,556.1955703536358 L 445.6,556.3344551505735 L 460.79999999999995,558.3211675392594 L 476,561.1541914778815 L 491.2,563.4053791693428 L 506.40000000000003,563.9398906645052 L 521.6,562.4882748641626 L 536.8000000000001,559.7823017612288 L 552,557.1860719103356 L 567.1999999999999,556.008363501375 L 582.4,556.8428678360513 L 597.6,559.2689052614365 L 612.8000000000001,562.0634928166371 L 628,563.8178587626127 L 643.1999999999999,563.6476145748295 L 658.4,561.6385815760221 L 673.6,558.8035277885242 L 688.8,556.5716242708887 L 704,556.0679896811654 L 719.2,557.5465098478675 L 734.4,560.261852092985 L 749.6,562.8451928097486 L 764.8,563.9942513137273 L 780,563.12977892692"
      stroke="url(#thread-45)"
      stroke-width="5.776"
      stroke-linecap="round"
      fill="none"
      opacity="0.425531914893617"
      class="thread"
      style="animation-delay: 4.5s"
    >
      <title>2025-12-24: 2888 stars, Python, TypeScript</title>
    </path>

    <path
      d="M 20,568.6151183832993 L 35.2,568.0535988577348 L 50.400000000000006,569.4814886064628 L 65.6,572.1789781102827 L 80.80000000000001,574.7862434580536 L 96,575.9889433863276 L 111.2,575.1807881882945 L 126.4,572.7691747270902 L 141.60000000000002,569.9698147392502 L 156.79999999999998,568.1938857815231 L 172,568.3366464481633 L 187.2,570.3261300576346 L 202.4,573.1594235757434 L 217.6,575.4082433084292 L 232.8,575.9389430116486 L 248,574.4839931380018 L 263.20000000000005,571.7768444107982 L 278.40000000000003,569.1821900253414 L 293.59999999999997,568.0080139680362 L 308.8,568.8462268566444 L 324,571.2742795294581 L 339.2,574.068173124822 L 354.4,575.8194857338542 L 369.6,575.6453680411923 L 384.8,573.633594031313 L 400,570.7983134899973 L 415.2,568.5688117840333 L 430.40000000000003,568.0689968008866 L 445.6,569.5508288778512 L 460.79999999999995,572.2673057790711 L 476,574.849031909453 L 491.2,575.9945405092044 L 506.40000000000003,575.1263724326443 L 521.6,572.6821774677419 L 536.8000000000001,569.8940919219999 L 552,568.1676098246029 L 567.1999999999999,568.3730632509389 L 582.4,570.4068816472163 L 597.6,573.2438024935033 L 612.8000000000001,575.4537135334472 L 628,575.9225826755961 L 643.1999999999999,574.4140496042612 L 658.4,571.6885767191083 L 673.6,569.1200945556034 L 688.8,568.0033934943306 L 704,568.9014105930858 L 719.2,571.3614489565626 L 734.4,574.143385505786 L 749.6,575.8448259650586 L 764.8,575.6080619293523 L 780,573.5524478564307"
      stroke="url(#thread-46)"
      stroke-width="5.776"
      stroke-linecap="round"
      fill="none"
      opacity="0.41276595744680855"
      class="thread"
      style="animation-delay: 4.6000000000000005s"
    >
      <title>2025-12-23: 2888 stars, Python, TypeScript</title>
    </path>
  </g>

  <!-- Date markers -->
  <g id="dates">
    <text x="785" y="24" class="date-label">02-07</text>
<text x="785" y="108" class="date-label">01-31</text>
<text x="785" y="192" class="date-label">01-24</text>
<text x="785" y="276" class="date-label">01-17</text>
<text x="785" y="360" class="date-label">01-10</text>
<text x="785" y="444" class="date-label">01-03</text>
<text x="785" y="528" class="date-label">12-27</text>
  </g>

</svg>