<?xml version="1.0" encoding="UTF-8"?>
<svg xmlns="http://www.w3.org/2000/svg" viewBox="0 0 800 292" width="800" height="292">
  <title>The Data Tapestry - GitHub Trends Woven in Time</title>
  <desc>A living data art piece that weaves daily GitHub trending repositories into an evolving tapestry. Each thread represents one day of open source activity.</desc>

  <style>
    .thread {
      animation: breathe 8s ease-in-out infinite alternate;
    }

    @keyframes breathe {
      0% {
        opacity: 0.85;
      }
      100% {
        opacity: 1;
      }
    }

    .date-label {
      font-family: ui-monospace, monospace;
      font-size: 8px;
      fill: #666;
    }

    .title {
      font-family: system-ui, sans-serif;
      font-size: 14px;
      fill: #333;
      font-weight: 600;
    }

    .subtitle {
      font-family: system-ui, sans-serif;
      font-size: 10px;
      fill: #888;
    }

    .empty-state {
      font-family: system-ui, sans-serif;
      font-size: 12px;
      fill: #999;
      text-anchor: middle;
    }
  </style>

  <defs>
    
    <linearGradient id="thread-0" x1="0%" y1="0%" x2="100%" y2="0%">
      <stop offset="0%" stop-color="#3178c6" />
      <stop offset="50%" stop-color="#3572A5" />
      <stop offset="100%" stop-color="#8b8b8b" />
    </linearGradient>

    <linearGradient id="thread-1" x1="0%" y1="0%" x2="100%" y2="0%">
      <stop offset="0%" stop-color="#3178c6" />
      <stop offset="50%" stop-color="#89e051" />
      <stop offset="100%" stop-color="#3572A5" />
    </linearGradient>

    <linearGradient id="thread-2" x1="0%" y1="0%" x2="100%" y2="0%">
      <stop offset="0%" stop-color="#3572A5" />
      <stop offset="50%" stop-color="#3178c6" />
      <stop offset="100%" stop-color="#89e051" />
    </linearGradient>

    <linearGradient id="thread-3" x1="0%" y1="0%" x2="100%" y2="0%">
      <stop offset="0%" stop-color="#3572A5" />
      <stop offset="50%" stop-color="#3178c6" />
      <stop offset="100%" stop-color="#8b8b8b" />
    </linearGradient>

    <linearGradient id="thread-4" x1="0%" y1="0%" x2="100%" y2="0%">
      <stop offset="0%" stop-color="#3572A5" />
      <stop offset="50%" stop-color="#3178c6" />
      <stop offset="100%" stop-color="#8b8b8b" />
    </linearGradient>

    <linearGradient id="thread-5" x1="0%" y1="0%" x2="100%" y2="0%">
      <stop offset="0%" stop-color="#3178c6" />
      <stop offset="50%" stop-color="#3572A5" />
      <stop offset="100%" stop-color="#dea584" />
    </linearGradient>

    <linearGradient id="thread-6" x1="0%" y1="0%" x2="100%" y2="0%">
      <stop offset="0%" stop-color="#3572A5" />
      <stop offset="50%" stop-color="#3178c6" />
      <stop offset="100%" stop-color="#00ADD8" />
    </linearGradient>

    <linearGradient id="thread-7" x1="0%" y1="0%" x2="100%" y2="0%">
      <stop offset="0%" stop-color="#3572A5" />
      <stop offset="50%" stop-color="#00ADD8" />
      <stop offset="100%" stop-color="#3178c6" />
    </linearGradient>

    <linearGradient id="thread-8" x1="0%" y1="0%" x2="100%" y2="0%">
      <stop offset="0%" stop-color="#3572A5" />
      <stop offset="50%" stop-color="#3178c6" />
      <stop offset="100%" stop-color="#00ADD8" />
    </linearGradient>

    <linearGradient id="thread-9" x1="0%" y1="0%" x2="100%" y2="0%">
      <stop offset="0%" stop-color="#3572A5" />
      <stop offset="50%" stop-color="#00ADD8" />
      <stop offset="100%" stop-color="#DA5B0B" />
    </linearGradient>

    <linearGradient id="thread-10" x1="0%" y1="0%" x2="100%" y2="0%">
      <stop offset="0%" stop-color="#3572A5" />
      <stop offset="50%" stop-color="#3178c6" />
      <stop offset="100%" stop-color="#dea584" />
    </linearGradient>

    <linearGradient id="thread-11" x1="0%" y1="0%" x2="100%" y2="0%">
      <stop offset="0%" stop-color="#dea584" />
      <stop offset="50%" stop-color="#3572A5" />
      <stop offset="100%" stop-color="#3178c6" />
    </linearGradient>

    <linearGradient id="thread-12" x1="0%" y1="0%" x2="100%" y2="0%">
      <stop offset="0%" stop-color="#3572A5" />
      <stop offset="50%" stop-color="#3178c6" />
      <stop offset="100%" stop-color="#dea584" />
    </linearGradient>

    <linearGradient id="thread-13" x1="0%" y1="0%" x2="100%" y2="0%">
      <stop offset="0%" stop-color="#3572A5" />
      <stop offset="50%" stop-color="#dea584" />
      <stop offset="100%" stop-color="#3178c6" />
    </linearGradient>

    <linearGradient id="thread-14" x1="0%" y1="0%" x2="100%" y2="0%">
      <stop offset="0%" stop-color="#3572A5" />
      <stop offset="50%" stop-color="#3178c6" />
      <stop offset="100%" stop-color="#89e051" />
    </linearGradient>

    <linearGradient id="thread-15" x1="0%" y1="0%" x2="100%" y2="0%">
      <stop offset="0%" stop-color="#3572A5" />
      <stop offset="50%" stop-color="#f1e05a" />
      <stop offset="100%" stop-color="#89e051" />
    </linearGradient>

    <linearGradient id="thread-16" x1="0%" y1="0%" x2="100%" y2="0%">
      <stop offset="0%" stop-color="#3572A5" />
      <stop offset="50%" stop-color="#89e051" />
      <stop offset="100%" stop-color="#dea584" />
    </linearGradient>

    <linearGradient id="thread-17" x1="0%" y1="0%" x2="100%" y2="0%">
      <stop offset="0%" stop-color="#3572A5" />
      <stop offset="50%" stop-color="#89e051" />
      <stop offset="100%" stop-color="#00ADD8" />
    </linearGradient>

    <linearGradient id="thread-18" x1="0%" y1="0%" x2="100%" y2="0%">
      <stop offset="0%" stop-color="#3572A5" />
      <stop offset="50%" stop-color="#3178c6" />
      <stop offset="100%" stop-color="#3572A5" />
    </linearGradient>

    <linearGradient id="thread-19" x1="0%" y1="0%" x2="100%" y2="0%">
      <stop offset="0%" stop-color="#3572A5" />
      <stop offset="50%" stop-color="#3178c6" />
      <stop offset="100%" stop-color="#3572A5" />
    </linearGradient>

    <linearGradient id="thread-20" x1="0%" y1="0%" x2="100%" y2="0%">
      <stop offset="0%" stop-color="#3572A5" />
      <stop offset="50%" stop-color="#3178c6" />
      <stop offset="100%" stop-color="#3572A5" />
    </linearGradient>

    <!-- Background pattern -->
    <pattern id="loom" patternUnits="userSpaceOnUse" width="20" height="20">
      <rect width="20" height="20" fill="#fafafa"/>
      <circle cx="10" cy="10" r="0.5" fill="#eee"/>
    </pattern>
  </defs>

  <!-- Background -->
  <rect width="100%" height="100%" fill="url(#loom)"/>

  <!-- Threads -->
  <g id="tapestry">
    
    <path
      d="M 20,20 L 35.2,23.185106377068653 L 50.400000000000006,23.853550074084463 L 65.6,21.47717061323492 L 80.80000000000001,17.933627574690224 L 96,16.022796838412006 L 111.2,17.254491839992664 L 126.4,20.655507770323606 L 141.60000000000002,23.53858434580753 L 156.79999999999998,23.62570307591834 L 172,20.848028439688218 L 187.2,17.400297210952402 L 202.4,16.006681045854332 L 217.6,17.768324263551268 L 232.8,21.29329164534375 L 248,23.796384579961178 L 263.20000000000005,23.29982279023329 L 278.40000000000003,20.19595691585787 L 293.59999999999997,16.937258706654255 L 308.8,16.098538293832362 L 324,18.342497676026866 L 339.2,21.896106955906426 L 354.4,23.951536568170006 L 369.6,22.884720505508916 L 384.8,19.53858702636677 L 400,16.557031891984227 L 415.2,16.29588490736964 L 430.40000000000003,18.961487334755123 L 445.6,22.447654527638118 L 460.79999999999995,23.999845245600874 L 476,22.39161993223008 L 491.2,18.89369301528102 L 506.40000000000003,16.26989749977246 L 521.6,16.59338494557396 L 536.8000000000001,19.608556736521415 L 552,22.933021384890242 L 567.1999999999999,23.940004421877706 L 582.4,21.833853731473475 L 597.6,18.278711798609574 L 612.8000000000001,16.08361919070459 L 628,16.98299447705559 L 643.1999999999999,20.266210146186925 L 658.4,23.339083974058767 L 673.6,23.77363209840729 L 688.8,21.226503020799537 L 704,17.71027149762165 L 719.2,16.003233636192743 L 734.4,17.454179075133652 L 749.6,20.91666565374769 L 764.8,23.65486300375635 L 780,23.50522672017546"
      stroke="url(#thread-0)"
      stroke-width="7.33"
      stroke-linecap="round"
      fill="none"
      opacity="1"
      class="thread"
      style="animation-delay: 0s"
    >
      <title>2026-01-12: 3665 stars, TypeScript, Unknown, Python, Shell, C</title>
    </path>

    <path
      d="M 20,33.917702154416816 L 35.2,35.92676281012965 L 50.400000000000006,35.09136453524013 L 65.6,32.016651108101605 L 80.80000000000001,28.92987599161891 L 96,28.06702986600082 L 111.2,30.053139117210534 L 126.4,33.44951073782169 L 141.60000000000002,35.79588928205836 L 156.79999999999998,35.39261074487529 L 172,32.53180105596997 L 187.2,29.285766606593924 L 202.4,28.005861966662142 L 217.6,29.619221358282935 L 232.8,32.95716341421696 L 248,35.601757755185375 L 263.20000000000005,35.63731953982654 L 278.40000000000003,33.03808860874153 L 293.59999999999997,29.686889566347563 L 308.8,28.01125585565616 L 324,29.2249789642762 L 339.2,32.448865087405714 L 354.4,35.34760340603502 L 369.6,35.82141288000695 L 384.8,33.527076550515964 L 400,30.12656020917823 L 415.2,28.08312164452771 L 430.40000000000003,28.87698193316302 L 445.6,31.933086482574975 L 460.79999999999995,35.03766168362053 L 476,35.94182287396151 L 491.2,33.990615961149274 L 506.40000000000003,30.59745148128355 L 521.6,28.220261699297374 L 536.8000000000001,28.58102958998723 L 552,31.418422982767165 L 567.1999999999999,34.67709772623975 L 582.4,35.99654290487733 L 597.6,34.42098201694315 L 612.8000000000001,31.091716041154612 L 628,28.420390598875223 L 643.1999999999999,28.342053941869928 L 658.4,30.913451387945376 L 673.6,34.271920285120366 L 688.8,35.98466107059054 L 704,34.81100272382217 L 719.2,31.60111703449638 L 734.4,28.680173221304585 L 749.6,28.164037486755337 L 764.8,30.426586983742773 L 780,33.828881589366155"
      stroke="url(#thread-1)"
      stroke-width="6.996"
      stroke-linecap="round"
      fill="none"
      opacity="0.9714285714285714"
      class="thread"
      style="animation-delay: 0.1s"
    >
      <title>2026-01-11: 3498 stars, TypeScript, Unknown, Shell, Python</title>
    </path>

    <path
      d="M 20,47.36588393923159 L 35.2,47.68450851010269 L 50.400000000000006,44.79600907441686 L 65.6,41.214635730311606 L 80.80000000000001,40.057740058555275 L 96,42.332324179457295 L 111.2,46.058511178884885 L 126.4,47.9928986475296 L 141.60000000000002,46.45172863730612 L 156.79999999999998,42.77648898150909 L 172,40.16623575441209 L 187.2,40.89302390306209 L 202.4,44.32423181379601 L 217.6,47.47321710762908 L 232.8,47.59899376038588 L 248,44.59208141086909 L 263.20000000000005,41.069800864636846 L 278.40000000000003,40.09806728152008 L 293.59999999999997,42.52271127741945 L 308.8,46.23323861808868 L 324,47.99987760436717 L 339.2,46.2848843856768 L 354.4,42.581048545122876 L 369.6,40.11231726806704 L 384.8,41.02755988746761 L 400,44.53011748166512 L 415.2,47.571242432381965 L 430.40000000000003,47.50383409929108 L 445.6,44.38656703361281 L 460.79999999999995,40.93281861357107 L 476,40.14885125928308 L 491.2,42.71705734829392 L 506.40000000000003,46.40198122097672 L 521.6,47.996137324777735 L 536.8000000000001,46.111916892698325 L 552,42.38941074412398 L 567.1999999999999,40.068817348107935 L 582.4,41.170061687701256 L 597.6,44.734582492408634 L 612.8000000000001,47.65969721629401 L 628,47.399284544347964 L 643.1999999999999,44.18001669880036 L 658.4,40.804056074630935 L 673.6,40.209955896313815 L 688.8,42.9148415657734 L 704,46.56428677574788 L 719.2,47.9816878323033 L 734.4,45.93328969241729 L 749.6,42.202089146951344 L 764.8,40.03585256958351 L 780,41.32014741445561"
      stroke="url(#thread-2)"
      stroke-width="7.724"
      stroke-linecap="round"
      fill="none"
      opacity="0.9428571428571428"
      class="thread"
      style="animation-delay: 0.2s"
    >
      <title>2026-01-10: 3862 stars, TypeScript, Unknown, Shell, Python</title>
    </path>

    <path
      d="M 20,59.98997994641622 L 35.2,58.44820283554183 L 50.400000000000006,54.72545512121999 L 65.6,52.13813004142773 L 80.80000000000001,52.99113463191742 L 96,56.52457354845708 L 111.2,59.59069845329729 L 126.4,59.45806561682788 L 141.60000000000002,56.244830411304825 L 156.79999999999998,52.81348912317544 L 172,52.220836872174715 L 187.2,54.99483527926594 L 202.4,58.664280205623314 L 217.6,59.96026296477208 L 232.8,57.728263081838 L 248,53.956647721872606 L 263.20000000000005,52.00534364755153 L 278.40000000000003,53.61266141170103 L 293.59999999999997,57.34672913544014 L 308.8,59.881069200767705 L 324,58.95797603632518 L 339.2,55.39978308061089 L 354.4,52.37629069703679 L 369.6,52.58096362332464 L 384.8,55.831469893725966 L 400,59.23211045947386 L 415.2,59.75343980277256 L 430.40000000000003,56.93103399765377 L 445.6,53.27922069810096 L 460.79999999999995,52.05120153429702 L 476,54.340951914588295 L 491.2,58.108657900297324 L 506.40000000000003,59.997875377411084 L 521.6,58.32560336198848 L 536.8000000000001,54.58157793866127 L 552,52.10114749780476 L 567.1999999999999,53.093992461673174 L 582.4,56.67564131159087 L 597.6,59.65539810515519 L 612.8000000000001,59.378759760415335 L 628,56.09216831595768 L 643.1999999999999,52.72346913730634 L 658.4,52.27365289967635 L 673.6,55.14343639702865 L 688.8,58.77628576904738 L 704,59.93589331601865 L 719.2,57.58922781407312 L 734.4,53.82680578478603 L 749.6,52.000364153101366 L 764.8,53.736980320363344 L 780,57.4895975005554"
      stroke="url(#thread-3)"
      stroke-width="7.822"
      stroke-linecap="round"
      fill="none"
      opacity="0.9142857142857144"
      class="thread"
      style="animation-delay: 0.30000000000000004s"
    >
      <title>2026-01-09: 3911 stars, TypeScript, Unknown, Python, Shell</title>
    </path>

    <path
      d="M 20,71.63718970730272 L 35.2,68.7714881699602 L 50.400000000000006,65.26346298852079 L 65.6,64.03381678146019 L 80.80000000000001,66.10632523766527 L 96,69.7554645761558 L 111.2,71.94304371509388 L 126.4,70.84773361926501 L 141.60000000000002,67.38146476221773 L 156.79999999999998,64.43017438883939 L 172,64.45104027738967 L 187.2,67.42668995983493 L 202.4,70.87966464677788 L 217.6,71.93509551941874 L 232.8,69.71425464568564 L 248,66.06616403073669 L 263.20000000000005,64.02814161285016 L 278.40000000000003,65.29699887557166 L 293.59999999999997,68.81631388974556 L 308.8,71.65598437688112 L 324,71.45176475765165 L 339.2,68.37368367945209 L 354.4,64.98448200074145 L 369.6,64.10593257250332 L 384.8,66.46949582697509 L 400,70.1073223248788 L 415.2,71.99063980021033 L 430.40000000000003,70.55144061416341 L 445.6,66.98796953802288 L 460.79999999999995,64.26709219122979 L 476,64.65414966465652 L 491.2,67.82688663866645 L 506.40000000000003,71.14375389156243 L 521.6,71.84320258329457 L 536.8000000000001,69.34288751399373 L 552,65.72451459858861 L 567.1999999999999,64.00065948920401 L 582.4,65.60656505652724 L 597.6,69.20519055742965 L 612.8000000000001,71.80040159156287 L 628,71.2314840047087 L 643.1999999999999,67.97210574384015 L 658.4,64.73595161130382 L 673.6,64.21737052417664 L 688.8,66.84812139544421 L 704,70.43790040433528 L 719.2,71.99793854015675 L 734.4,70.22938324839356 L 749.6,66.6046937630619 L 764.8,64.14170476989388 L 780,64.89104533497589"
      stroke="url(#thread-4)"
      stroke-width="7.54"
      stroke-linecap="round"
      fill="none"
      opacity="0.8857142857142857"
      class="thread"
      style="animation-delay: 0.4s"
    >
      <title>2026-01-08: 3770 stars, TypeScript, Unknown, Python, Rust, JavaScript</title>
    </path>

    <path
      d="M 20,82.39388857641583 L 35.2,78.99435429906808 L 50.400000000000006,76.34915808693404 L 65.6,76.442470101456 L 80.80000000000001,79.20429670130433 L 96,82.56298289719732 L 111.2,83.99916740282698 L 126.4,82.43556361490688 L 141.60000000000002,79.04503574898274 L 156.79999999999998,76.37082963016404 L 172,76.41887584392732 L 187.2,79.15313477125225 L 202.4,82.522630022422 L 217.6,83.99989240410261 L 232.8,82.47682266645161 L 248,79.09588030392172 L 263.20000000000005,76.39312102478718 L 278.40000000000003,76.3958932316429 L 293.59999999999997,79.10211748323636 L 308.8,82.48184629001963 L 324,83.99993423577568 L 339.2,82.51765868412804 L 354.4,79.14687927978783 L 369.6,76.41602846350027 L 384.8,76.37352618996378 L 400,79.05125355085607 L 415.2,82.44063866572911 L 430.40000000000003,83.9992928907015 L 445.6,82.55806469326699 L 460.79999999999995,79.19802396610923 L 476,76.43954803378159 L 491.2,76.35177853911352 L 506.40000000000003,79.00055166151824 L 521.6,82.39901418768886 L 536.8000000000001,83.99796847841984 L 552,82.5980337926436 L 567.1999999999999,79.24930562752718 L 582.4,76.46367571855923 L 597.6,76.3306539935255 L 612.8000000000001,78.95002047495316 L 628,82.35697996523461 L 643.1999999999999,83.99596122513637 L 658.4,82.63755915565578 L 673.6,79.30071550528808 L 688.8,76.48840739689714 L 704,76.31015616120865 L 719.2,78.8996686217357 L 734.4,82.31454317768525 L 749.6,83.9932714736839 L 764.8,82.6766340314903 L 780,79.35224481873922"
      stroke="url(#thread-5)"
      stroke-width="7.128"
      stroke-linecap="round"
      fill="none"
      opacity="0.8571428571428571"
      class="thread"
      style="animation-delay: 0.5s"
    >
      <title>2026-01-07: 3564 stars, TypeScript, Python, Unknown, Shell, Rust</title>
    </path>

    <path
      d="M 20,92.56448003223947 L 35.2,88.81755878024552 L 50.400000000000006,88.33283336558877 L 65.6,91.60717682401591 L 80.80000000000001,95.2841879331605 L 96,95.59470663450006 L 111.2,92.22043237038802 L 126.4,88.62020151778331 L 141.60000000000002,88.48446970173158 L 156.79999999999998,91.95237029021764 L 172,95.46909422853373 L 187.2,95.42978555848437 L 202.4,91.87473805800656 L 217.6,88.44809166772403 L 232.8,88.66236737970361 L 248,92.2979195548292 L 263.20000000000005,95.62808606388423 L 278.40000000000003,95.23924366190668 L 293.59999999999997,91.52997946410785 L 308.8,88.30251490682795 L 324,88.8651974871259 L 339.2,92.64124333235824 L 354.4,95.7599757552548 L 369.6,95.02450431064761 L 384.8,91.18873196779974 L 400,88.18455870718488 L 415.2,89.09144486402762 L 430.40000000000003,92.97977696191019 L 445.6,95.86377807425175 L 460.79999999999995,94.7871716278491 L 476,90.85354471996085 L 491.2,88.09510421269543 L 506.40000000000003,89.3394194212334 L 521.6,93.3109915654461 L 536.8000000000001,95.93871760779354 L 552,94.52901851096367 L 567.1999999999999,90.52692160084413 L 582.4,88.03481965684321 L 597.6,89.60726876548837 L 612.8000000000001,93.63241293873955 L 628,95.98423455051937 L 643.1999999999999,94.25197338804392 L 658.4,90.2113025158558 L 673.6,88.00415537092789 L 688.8,89.89299203700998 L 704,93.94164003391461 L 719.2,95.999988886588 L 734.4,93.95810581220353 L 749.6,89.90904516923258 L 764.8,88.00334042004806 L 780,90.19445485609863"
      stroke="url(#thread-6)"
      stroke-width="8"
      stroke-linecap="round"
      fill="none"
      opacity="0.8285714285714285"
      class="thread"
      style="animation-delay: 0.6000000000000001s"
    >
      <title>2026-01-06: 4224 stars, TypeScript, Python, Rust, JavaScript, Go</title>
    </path>

    <path
      d="M 20,102.59686708924153 L 35.2,100.1410926792288 L 50.400000000000006,100.88871280595068 L 65.6,104.21910561186662 L 80.80000000000001,107.36761228741518 L 96,107.72056314712982 L 111.2,104.98496311189581 L 126.4,101.43171569898352 L 141.60000000000002,100.01047800145697 L 156.79999999999998,101.90106199644029 L 172,105.53403728891765 L 187.2,107.89356228524126 L 202.4,107.02092462094802 L 217.6,103.6405269556455 L 232.8,100.55853863025904 L 248,100.3334104556388 L 263.20000000000005,103.15202807186267 L 278.40000000000003,106.67457258140114 L 293.59999999999997,107.97687429079681 L 308.8,105.97785354866684 L 324,102.33695734138725 L 339.2,100.07660265120529 L 354.4,101.07317760142118 L 369.6,104.49939547960615 L 384.8,107.51105021385932 L 400,107.6080770137391 L 415.2,104.70993102682606 L 430.40000000000003,101.2224500329405 L 445.6,100.04069645108504 L 460.79999999999995,102.14567932169592 L 476,105.78998932210328 L 491.2,107.94837557814536 L 506.40000000000003,106.82909701753685 L 521.6,103.36130029452309 L 536.8000000000001,100.42370732533514 L 552,100.45490201117067 L 567.1999999999999,103.42898870907325 L 582.4,106.87708898069465 L 597.6,107.93683152399036 L 612.8000000000001,105.72849231572049 L 628,102.08527986984714 L 643.1999999999999,100.03153394764288 L 658.4,101.2721305464186 L 673.6,104.77721327511294 L 688.8,107.63710798750715 L 704,107.47773043233997 L 719.2,104.43138469132708 L 734.4,101.02693359857649 L 749.6,100.09051396551013 L 764.8,102.39947577420956 L 780,106.0370806765669"
      stroke="url(#thread-7)"
      stroke-width="7.528"
      stroke-linecap="round"
      fill="none"
      opacity="0.8"
      class="thread"
      style="animation-delay: 0.7000000000000001s"
    >
      <title>2026-01-05: 3764 stars, Go, TypeScript, Python, Rust, JavaScript</title>
    </path>

    <path
      d="M 20,112.9727900187683 L 35.2,112.14443372646176 L 50.400000000000006,114.74434290423105 L 65.6,118.46074848182229 L 80.80000000000001,119.98912292409834 L 96,117.97047692726674 L 111.2,114.19973602917688 L 126.4,112.02974126546242 L 141.60000000000002,113.3899934126359 L 156.79999999999998,117.07099297414948 L 172,119.79969448876656 L 187.2,119.14981021636733 L 202.4,115.69919971182514 L 217.6,112.51605270503588 L 232.8,112.43073760243762 L 248,115.51911429063664 L 263.20000000000005,119.03508157266829 L 278.40000000000003,119.85233623604915 L 293.59999999999997,117.24419749151193 L 308.8,113.52975191796749 L 324,112.01178426785435 L 339.2,114.04003040624931 L 354.4,117.81102860852923 L 369.6,119.9717090511192 L 384.8,118.60085300046039 L 400,114.9173886578842 L 415.2,112.19655310142458 L 430.40000000000003,112.85763987350713 L 445.6,116.31282845889152 L 460.79999999999995,119.48985842175776 L 476,119.5638004660273 L 491.2,116.468907321605 L 506.40000000000003,112.95707444245238 L 521.6,112.15092884159893 L 536.8000000000001,114.76727342974216 L 552,118.47972521330954 L 567.1999999999999,119.98727226409846 L 582.4,117.94944443270296 L 597.6,114.17822322655583 L 612.8000000000001,112.02687675825187 L 628,113.40832424333544 L 643.1999999999999,117.09421986284363 L 658.4,119.80716471291392 L 673.6,119.13488145427473 L 688.8,115.67514621582337 L 704,112.50426219457447 L 719.2,112.4416938811972 L 734.4,115.54307533125022 L 749.6,119.0507418645222 L 764.8,119.84577107029257 L 780,117.22124443634412"
      stroke="url(#thread-8)"
      stroke-width="7.814"
      stroke-linecap="round"
      fill="none"
      opacity="0.7714285714285715"
      class="thread"
      style="animation-delay: 0.8s"
    >
      <title>2026-01-04: 3907 stars, Python, Jupyter Notebook, TypeScript, Go, Rust</title>
    </path>

    <path
      d="M 20,124.08987952933961 L 35.2,125.11523150967787 L 50.400000000000006,128.68517217162034 L 65.6,131.6507380427592 L 80.80000000000001,131.3960709093183 L 96,128.14580685821565 L 111.2,124.7669298933348 L 126.4,124.23987054496384 L 141.60000000000002,127.02953587822695 L 156.79999999999998,130.6752255435816 L 172,131.96115959534933 L 187.2,129.75304485042201 L 202.4,125.99860910965272 L 217.6,124.00955475880384 L 232.8,125.54038140685459 L 248,129.24078168071898 L 263.20000000000005,131.84671665114863 L 278.40000000000003,131.0595503433685 L 293.59999999999997,127.57362425619807 L 308.8,124.46379451624885 L 324,124.4731712152105 L 339.2,127.59348338016831 L 354.4,131.0723746107177 L 369.6,131.84119406729002 L 384.8,129.22178359128287 L 400,125.52466559448919 L 415.2,124.01098378419691 L 430.40000000000003,126.01592246200309 L 445.6,129.7709708153515 L 460.79999999999995,131.9638860868554 L 476,130.660347585511 L 491.2,127.01017697904801 L 506.40000000000003,124.23310674939357 L 521.6,124.7787273916275 L 536.8000000000001,128.16575934541908 L 552,131.40657875021805 L 567.1999999999999,131.64253250986076 L 582.4,128.665491178888 L 597.6,125.10143521322728 L 612.8000000000001,124.09413732852256 L 628,126.53211208149565 L 643.1999999999999,130.2648773855374 L 658.4,131.9998458543065 L 673.6,130.20664125713455 L 688.8,126.4670085891823 L 704,124.07959278232299 L 719.2,125.15027902658062 L 734.4,128.73463933481256 L 749.6,131.6709909925422 L 764.8,131.36924497926915 L 780,128.09556459117118"
      stroke="url(#thread-9)"
      stroke-width="7.78"
      stroke-linecap="round"
      fill="none"
      opacity="0.7428571428571429"
      class="thread"
      style="animation-delay: 0.9s"
    >
      <title>2026-01-03: 3890 stars, Go, Python, Jupyter Notebook, TypeScript, Rust, JavaScript</title>
    </path>

    <path
      d="M 20,136.16430290134744 L 35.2,137.6687216681312 L 50.400000000000006,140.15514859740802 L 65.6,142.5762220307203 L 80.80000000000001,143.9121092689832 L 96,143.60009235861247 L 111.2,141.7716026901167 L 126.4,139.19685793976004 L 141.60000000000002,136.96042202538217 L 156.79999999999998,136.00435248373856 L 172,136.7313760424664 L 187.2,138.8352473857508 L 202.4,141.4297493666738 L 217.6,143.42199569703817 L 232.8,143.9727892156253 L 248,142.85011827298655 L 263.20000000000005,140.5268873758014 L 278.40000000000003,137.98171485256563 L 293.59999999999997,136.2867078638031 L 308.8,136.15585695954528 L 324,137.64428067896196 L 339.2,140.12500787848157 L 354.4,142.55307780608015 L 369.6,143.90571061800804 L 384.8,143.61313459545707 L 400,141.79859201214774 L 415.2,139.22642559097258 L 430.40000000000003,136.98011317597766 L 445.6,136.005872598333 L 460.79999999999995,136.7140848007174 L 476,138.80642840553662 L 491.2,141.40154211389097 L 506.40000000000003,143.4062819586426 L 521.6,143.9761881151926 L 536.8000000000001,142.87119808652523 L 552,140.55676861917786 L 567.1999999999999,138.0078106010442 L 582.4,136.29802576281932 L 597.6,136.14762955209315 L 612.8000000000001,137.61997360926068 L 628,140.09486005302574 L 643.1999999999999,142.52978844240818 L 658.4,143.89908993264902 L 673.6,143.6259714304703 L 688.8,141.82547908664733 L 704,139.25603721884752 L 719.2,136.99997600306838 L 734.4,136.0076197736863 L 749.6,136.69698035881817 L 764.8,138.77767727825866 L 780,141.37325518532816"
      stroke="url(#thread-10)"
      stroke-width="5.26"
      stroke-linecap="round"
      fill="none"
      opacity="0.7142857142857143"
      class="thread"
      style="animation-delay: 1s"
    >
      <title>2026-01-02: 2630 stars, TypeScript, Rust, Python, JavaScript, Jupyter Notebook, Shell</title>
    </path>

    <path
      d="M 20,149.17783869771844 L 35.2,152.58281178233426 L 50.400000000000006,155.51956299505534 L 65.6,155.62875233660756 L 80.80000000000001,152.8226587974949 L 96,149.35565404524408 L 111.2,148.0130754806626 L 126.4,149.87352972724102 L 141.60000000000002,153.44235693713188 L 156.79999999999998,155.85241713936304 L 172,155.16750565607418 L 187.2,151.93786966226804 L 202.4,148.75814821019918 L 217.6,148.18287978985597 L 232.8,150.67422605407293 L 248,154.23067837394484 L 263.20000000000005,155.99503857162182 L 278.40000000000003,154.5498472554214 L 293.59999999999997,151.0561485288228 L 308.8,148.3207253141831 L 324,148.54117384549266 L 339.2,151.5403892200798 L 354.4,154.90884870784413 L 369.6,155.9403846324121 L 384.8,153.80627716318338 L 400,150.22103486768341 L 415.2,148.06498533996287 L 430.40000000000003,149.0702650542088 L 445.6,152.429248008598 L 460.79999999999995,155.4433798254761 L 476,155.69115413827004 L 491.2,152.9735129387852 L 506.40000000000003,149.47376666811232 L 521.6,148.00355675094607 L 536.8000000000001,149.74402684353979 L 552,153.29691049104045 L 567.1999999999999,155.80787653117434 L 582.4,155.2596541138793 L 597.6,152.09267655608738 L 612.8000000000001,148.85124410241434 L 628,148.13947289649835 L 643.1999999999999,150.5291887944674 L 658.4,154.10053141436035 L 673.6,155.98433994414552 L 688.8,154.6671920700622 L 704,151.20726379654093 L 719.2,148.38420739204005 L 734.4,148.4660222248733 L 749.6,151.38697953776585 L 764.8,154.80042790358027 L 780,155.96405628485525"
      stroke="url(#thread-11)"
      stroke-width="7.396"
      stroke-linecap="round"
      fill="none"
      opacity="0.6857142857142857"
      class="thread"
      style="animation-delay: 1.1s"
    >
      <title>2026-01-01: 3698 stars, Rust, Python, JavaScript, TypeScript, Jupyter Notebook, Go, Shell</title>
    </path>

    <path
      d="M 20,162.88233800720428 L 35.2,166.41271374110158 L 50.400000000000006,167.99989197955097 L 65.6,166.3655607847359 L 80.80000000000001,162.82600904347927 L 96,160.23198857165042 L 111.2,160.67272114393734 L 126.4,163.79324113966126 L 141.60000000000002,167.08028453711643 L 156.79999999999998,167.88646951534668 L 172,165.56249541183348 L 187.2,161.98008889704826 L 202.4,160.02451698324273 L 217.6,161.2707955458353 L 232.8,164.7151729419334 L 248,167.5835506883828 L 263.20000000000005,167.5657399061853 L 278.40000000000003,164.67608538343936 L 293.59999999999997,161.2419122957979 L 308.8,160.02910058548426 L 324,162.014447722411 L 339.2,165.59895689301118 L 354.4,167.89566760791482 L 369.6,167.05481110552338 L 384.8,163.75361246299514 L 400,160.6508541230445 L 415.2,160.2454948856572 L 430.40000000000003,162.8640107191294 L 445.6,166.39745130635026 L 460.79999999999995,167.99998674946107 L 476,166.38093643170632 L 491.2,162.84428203515188 L 506.40000000000003,160.2384418568278 L 521.6,160.66215725249256 L 536.8000000000001,163.77416822034323 L 552,167.06806390213478 L 567.1999999999999,167.8909436532174 L 582.4,165.58006085590551 L 597.6,161.99659845433067 L 612.8000000000001,160.02667387102332 L 628,161.2568626086191 L 643.1999999999999,164.69637175492903 L 658.4,167.5750237108369 L 673.6,167.57435475820907 L 688.8,164.69490367089546 L 704,161.2557777867512 L 719.2,160.02684602588607 L 734.4,161.99788893255112 L 749.6,165.58143030747578 L 764.8,167.89128912306404 L 780,167.06710714915138"
      stroke="url(#thread-12)"
      stroke-width="7.406"
      stroke-linecap="round"
      fill="none"
      opacity="0.6571428571428573"
      class="thread"
      style="animation-delay: 1.2000000000000002s"
    >
      <title>2025-12-31: 3703 stars, Go, Python, TypeScript, Rust, Shell</title>
    </path>

    <path
      d="M 20,176.86047995235126 L 35.2,179.85561246620574 L 50.400000000000006,178.7435494482907 L 65.6,174.70891728371626 L 80.80000000000001,172.0496124400133 L 96,173.59846240371036 L 111.2,177.70555300266608 L 126.4,179.99580134033513 L 141.60000000000002,178.02951778982575 L 156.79999999999998,173.90128812282245 L 172,172.00871365196957 L 187.2,174.3678614686461 L 202.4,178.46564669817508 L 217.6,179.9368989992968 L 232.8,177.214365197519 L 248,173.1982274983312 L 263.20000000000005,172.1666811191349 L 278.40000000000003,175.2185820047594 L 293.59999999999997,179.1028892918641 L 308.8,179.68184025832667 L 324,176.33870673361375 L 339.2,172.6347654785929 L 354.4,172.51564409611527 L 369.6,176.10823677332718 L 384.8,179.58553010557662 L 400,179.2433334455807 L 415.2,175.44617217166527 L 430.40000000000003,172.238976617034 L 445.6,173.03821546648072 L 460.79999999999995,176.99249863346625 L 476,179.88952151083785 L 491.2,178.64322720836967 L 506.40000000000003,174.5812321385598 L 521.6,172.030581134628 L 536.8000000000001,173.70835805764008 L 552,177.82730914651398 L 567.1999999999999,179.9997171044312 L 582.4,177.91142190204658 L 597.6,173.78698236092927 L 612.8000000000001,172.0199623578453 L 628,174.4926819456593 L 643.1999999999999,178.5710737922924 L 658.4,179.9106263795056 L 673.6,177.08437980170794 L 688.8,173.1029964161131 L 704,172.20764936833768 L 719.2,175.35210811167562 L 734.4,179.18673442037945 L 749.6,179.62668829064737 L 764.8,176.20330836556468 L 780,172.56335397457352"
      stroke="url(#thread-13)"
      stroke-width="8"
      stroke-linecap="round"
      fill="none"
      opacity="0.6285714285714286"
      class="thread"
      style="animation-delay: 1.3s"
    >
      <title>2025-12-30: 4315 stars, Go, Shell, Rust, Python, Swift, TypeScript</title>
    </path>

    <path
      d="M 20,190.62794639487515 L 35.2,191.99818445818224 L 50.400000000000006,190.80478923769118 L 65.6,187.81296497547123 L 80.80000000000001,184.9410674497821 L 96,184.03055549313132 L 111.2,185.66524878211968 L 126.4,188.79698303911468 L 141.60000000000002,191.41769228786734 L 156.79999999999998,191.84697945627394 L 172,189.8095858901265 L 187.2,186.61188702382566 L 202.4,184.30424529836282 L 217.6,184.36631909277327 L 232.8,186.75830673030427 L 248,189.94646728775788 L 263.20000000000005,191.88655428159478 L 278.40000000000003,191.33458518852603 L 293.59999999999997,188.64448223335623 L 308.8,185.54113768777722 L 324,184.0144140634743 L 339.2,185.04324555904714 L 354.4,187.96794608620812 L 369.6,190.91319956212178 L 384.8,191.99051136653063 L 400,190.50910986853623 L 415.2,187.4188687487175 L 430.40000000000003,184.70124861065318 L 445.6,184.0987857258762 L 460.79999999999995,185.9977789057149 L 476,189.18059495378762 L 491.2,191.60641428250682 L 506.40000000000003,191.71980311020732 L 521.6,189.44805659404253 L 536.8000000000001,186.2478171281056 L 552,184.1710761842283 L 567.1999999999999,184.54943870991488 L 582.4,187.14029889887075 L 597.6,190.28239887679194 L 612.8000000000001,191.9610261738885 L 628,191.0998460549978 L 643.1999999999999,188.25104665431547 L 658.4,185.24127630156204 L 673.6,184.0003977966184 L 688.8,185.32406163277605 L 704,188.3635354160132 L 719.2,191.16991052607045 L 734.4,191.9437410608854 L 749.6,190.18884738297012 L 764.8,187.0304661814482 L 780,184.4937494361323"
      stroke="url(#thread-14)"
      stroke-width="6.556"
      stroke-linecap="round"
      fill="none"
      opacity="0.6000000000000001"
      class="thread"
      style="animation-delay: 1.4000000000000001s"
    >
      <title>2025-12-29: 3278 stars, Shell, Go, JavaScript, TypeScript, Rust, Python</title>
    </path>

    <path
      d="M 20,203.75199990709896 L 35.2,203.30178079567344 L 50.400000000000006,200.06880821207312 L 65.6,196.77784380439064 L 80.80000000000001,196.20252495166773 L 96,198.8277325815299 L 111.2,202.4409316714368 L 126.4,203.9969042207651 L 141.60000000000002,202.18427061887385 L 156.79999999999998,198.53072539232073 L 172,196.11549041987513 L 187.2,196.9741349660073 L 202.4,200.38299012597219 L 217.6,203.46905974419116 L 232.8,203.6313925531769 L 248,200.73317384117001 L 263.20000000000005,197.21703341403986 L 278.40000000000003,196.04638786051697 L 293.59999999999997,198.20786172667067 L 308.8,201.87975657814826 L 324,203.96738540217183 L 339.2,202.7112866480909 L 354.4,199.17010514595998 L 369.6,196.32836219821343 L 384.8,196.58108962078285 L 400,199.71528777614222 L 415.2,203.0894424817817 L 430.40000000000003,203.85980325763398 L 445.6,201.37710709791776 L 460.79999999999995,197.73377981353426 L 476,196.00043156254503 L 491.2,197.63793487478273 L 506.40000000000003,201.26619570106087 L 521.6,203.8273019517848 L 536.8000000000001,203.1627434917119 L 552,199.83261273056672 L 567.1999999999999,196.64355659976155 L 582.4,196.2833237931488 L 597.6,199.05551989675237 L 612.8000000000001,202.62372744065397 L 628,203.98064747113634 L 643.1999999999999,201.9826626011106 L 658.4,198.31368211422827 L 673.6,196.06593678564923 L 688.8,197.13383496794017 L 704,200.61734799214966 L 719.2,203.58055776941262 L 734.4,203.52605977570192 L 749.6,200.49978512837814 L 764.8,197.05228966495474 L 780,196.08913573642712"
      stroke="url(#thread-15)"
      stroke-width="7.59"
      stroke-linecap="round"
      fill="none"
      opacity="0.5714285714285714"
      class="thread"
      style="animation-delay: 1.5s"
    >
      <title>2025-12-28: 3795 stars, Shell, Rust, Python, JavaScript, TypeScript</title>
    </path>

    <path
      d="M 20,215.95743298649353 L 35.2,212.28627972735802 L 50.400000000000006,208.1662027616108 L 65.6,210.05801662214984 L 80.80000000000001,214.9951120477106 L 96,215.23548369689965 L 111.2,210.40219767812022 L 126.4,208.07447273203957 L 141.60000000000002,211.90248318434516 L 156.79999999999998,215.88341263914091 L 172,213.77464789045695 L 187.2,208.88300530313978 L 202.4,208.8792142787577 L 217.6,213.76921963475607 L 232.8,215.88485936041545 L 248,211.90853623618062 L 263.20000000000005,208.07564014484606 L 278.40000000000003,210.39664879735201 L 293.59999999999997,215.2319198865862 L 308.8,214.99912182419692 L 324,210.0633121363467 L 339.2,208.16447996110205 L 354.4,212.28024018656976 L 369.6,215.956547487943 L 384.8,213.42847566661533 L 400,208.6603689082011 L 415.2,209.12923642764457 L 430.40000000000003,214.0998332019017 L 445.6,215.77761943395387 L 460.79999999999995,211.53160891619933 L 476,208.02009630866777 L 491.2,210.74958837708405 L 506.40000000000003,215.4398878897794 L 521.6,214.7359974748126 L 536.8000000000001,209.74170850802273 L 552,208.28871321418745 L 567.1999999999999,212.6554964829551 L 582.4,215.99437633182347 L 597.6,213.06955652919072 L 612.8000000000001,208.46753350317155 L 628,209.4048756563525 L 643.1999999999999,214.41170903833967 L 658.4,215.63667015590903 L 673.6,211.15886125486247 L 688.8,208.00006689503635 L 704,211.1136859270028 L 719.2,215.61716026777506 L 734.4,214.44845862247956 L 749.6,209.44025660308213 L 764.8,208.44606390360457 L 780,213.02490349732784"
      stroke="url(#thread-16)"
      stroke-width="8"
      stroke-linecap="round"
      fill="none"
      opacity="0.5428571428571429"
      class="thread"
      style="animation-delay: 1.6s"
    >
      <title>2025-12-27: 5384 stars, Shell, Python, Rust, C, Go</title>
    </path>

    <path
      d="M 20,227.19394845049396 L 35.2,223.87593914590107 L 50.400000000000006,220.66289598466963 L 65.6,220.273329584334 L 80.80000000000001,223.0368465957868 L 96,226.61527415287466 L 111.2,227.9809550409672 L 126.4,225.97840587308735 L 141.60000000000002,222.301955328259 L 156.79999999999998,220.06219649204945 L 172,221.1541578067839 L 187.2,224.6539461658087 L 202.4,227.60043987367624 L 217.6,227.50065205551795 L 232.8,224.43901178045968 L 248,221.00592981398484 L 263.20000000000005,220.10608851123197 L 278.40000000000003,222.50083093946697 L 293.59999999999997,226.16399921946552 L 308.8,227.99623820307752 L 324,226.44731626225956 L 339.2,222.82775446085932 L 354.4,220.20001311894205 L 369.6,220.78738721876323 L 384.8,224.09290779765988 L 400,227.31982039598608 L 415.2,227.73787966059723 L 430.40000000000003,224.99337152897553 L 445.6,221.4083857214669 L 460.79999999999995,220.01612829612094 L 476,221.9945686742054 L 491.2,225.6697762845791 L 506.40000000000003,227.93220967103122 L 521.6,226.86765577326253 L 536.8000000000001,223.37681866800025 L 552,220.41324652081008 L 567.1999999999999,220.48437603381143 L 582.4,223.5300255267059 L 597.6,226.9733138098401 L 612.8000000000001,227.90092310713274 L 628,225.52801624177877 L 643.1999999999999,221.86227633043222 L 658.4,220.0052343423489 L 673.6,221.52810737872608 L 688.8,225.14241398730667 L 704,227.7901401927399 L 719.2,227.23108210089708 L 734.4,223.93825089844114 L 749.6,220.697664742126 L 764.8,220.2511379901507 L 780,222.9764706456104"
      stroke="url(#thread-17)"
      stroke-width="7.606"
      stroke-linecap="round"
      fill="none"
      opacity="0.5142857142857142"
      class="thread"
      style="animation-delay: 1.7000000000000002s"
    >
      <title>2025-12-26: 3803 stars, Python, Shell, Go, TypeScript</title>
    </path>

    <path
      d="M 20,237.64847394096702 L 35.2,234.23269785746442 L 50.400000000000006,232.10602237395105 L 65.6,232.81968119053786 L 80.80000000000001,235.8531192835492 L 96,238.9936946991193 L 111.2,239.95061767635616 L 126.4,238.0258921259609 L 141.60000000000002,234.62344599104645 L 156.79999999999998,232.22508204227913 L 172,232.58020822238498 L 187.2,235.42978938348062 L 202.4,238.69529198222062 L 217.6,239.994802220174 L 232.8,238.38043496376963 L 248,235.0297374748742 L 263.20000000000005,232.38676617109627 L 278.40000000000003,232.3793498098697 L 293.59999999999997,235.01289801271687 L 308.8,238.3664553942049 L 324,239.99387948184622 L 339.2,238.7080991363474 L 354.4,235.44698467141663 L 369.6,232.58924910515975 L 384.8,232.21937394439317 L 400,234.60715249734042 L 415.2,238.01089799117304 L 430.40000000000003,239.94785988046635 L 445.6,239.00518482591426 L 460.79999999999995,235.87047623678697 L 476,232.8302445097944 L 491.2,232.10208699235426 L 506.40000000000003,234.21713431008328 L 521.6,237.6326345471272 L 536.8000000000001,239.85726304605097 L 552,239.26833749142358 L 567.1999999999999,236.29543031885015 L 582.4,233.10703118702503 L 597.6,232.02881329857553 L 612.8000000000001,233.8472473386587 L 628,237.23593622117758 L 643.1999999999999,239.7231119521407 L 658.4,239.49458574633948 L 673.6,236.717048551474 L 688.8,233.416483801965 L 704,232.00038023247285 L 719.2,233.50166815929316 L 734.4,236.8252823297781 L 749.6,239.54692136490164 L 764.8,239.68137491002776 L 780,237.13057023524735"
      stroke="url(#thread-18)"
      stroke-width="7.022"
      stroke-linecap="round"
      fill="none"
      opacity="0.48571428571428577"
      class="thread"
      style="animation-delay: 1.8s"
    >
      <title>2025-12-25: 3511 stars, Python, TypeScript</title>
    </path>

    <path
      d="M 20,247.69939551815276 L 35.2,245.12763544475698 L 50.400000000000006,244.00385505699188 L 65.6,244.89456015218872 L 80.80000000000001,247.35073986876358 L 96,250.13421629947047 L 111.2,251.8418189032516 L 126.4,251.6127328935954 L 141.60000000000002,249.5624421799655 L 156.79999999999998,246.72451309625723 L 172,244.52956615857784 L 187.2,244.08408994651788 L 202.4,245.61265223101614 L 217.6,248.34469374161557 L 232.8,250.9029726513946 L 248,251.99784211355038 L 263.20000000000005,251.07737053683513 L 278.40000000000003,248.6055742808197 L 293.59999999999997,245.82850366289682 L 308.8,244.1461000077059 L 324,244.4064751300584 L 339.2,246.47837205314687 L 354.4,249.31733259708025 L 369.6,251.4922162792136 L 384.8,251.90664855175834 L 400,250.3517111175508 L 415.2,247.6112591502142 L 430.40000000000003,245.06677424856122 L 445.6,244.0009496004264 L 460.79999999999995,244.9510750968601 L 476,247.43818562351976 L 491.2,250.2085108287458 L 506.40000000000003,251.86550979908216 L 521.6,251.57387740455204 L 536.8000000000001,249.48062763827156 L 552,246.64098280236556 L 567.1999999999999,244.4864283359969 L 582.4,244.10309068268822 L 597.6,245.68421311781526 L 612.8000000000001,248.43274041996477 L 628,250.96312015581165 L 643.1999999999999,251.99976965332004 L 658.4,251.02010642525957 L 673.6,248.51798576948988 L 688.8,245.75474475199653 L 704,244.12335309611382 L 719.2,244.4462070999417 L 734.4,246.5605537319703 L 749.6,249.40053560791645 L 764.8,251.53449738430257 L 780,251.88669354112517"
      stroke="url(#thread-19)"
      stroke-width="5.776"
      stroke-linecap="round"
      fill="none"
      opacity="0.4571428571428572"
      class="thread"
      style="animation-delay: 1.9000000000000001s"
    >
      <title>2025-12-24: 2888 stars, Python, TypeScript</title>
    </path>

    <path
      d="M 20,257.8239155564425 L 35.2,256.1446399125499 L 50.400000000000006,256.40887909069795 L 65.6,258.48342821568804 L 80.80000000000001,261.32249211352473 L 96,263.4948782001153 L 111.2,263.90547098359485 L 126.4,262.3472876809251 L 141.60000000000002,259.6058197314278 L 156.79999999999998,257.06306089784937 L 172,256.0008342446608 L 187.2,256.9546158877141 L 202.4,259.44359762279026 L 217.6,262.21306580857333 L 232.8,263.86691156128853 L 248,263.5714193107006 L 263.20000000000005,261.47554883119875 L 278.40000000000003,258.63584354534123 L 293.59999999999997,256.48381936554756 L 308.8,256.10432719963126 L 324,257.6886717850429 L 339.2,260.438173591175 L 354.4,262.9667889302174 L 369.6,263.999824575287 L 384.8,263.0165198082281 L 400,260.5125656529695 L 415.2,257.75022345581107 L 430.40000000000003,256.12200983827444 L 445.6,256.4487190264118 L 460.79999999999995,258.56565456250223 L 476,261.4056539770557 L 491.2,263.53705308525616 L 506.40000000000003,263.8853982266126 L 521.6,262.2750861033641 L 536.8000000000001,259.51788666920004 L 552,257.00372404173095 L 567.1999999999999,256.00000573171377 L 582.4,257.0127133772897 L 597.6,259.531333751438 L 612.8000000000001,262.28621216115494 L 628,263.8885945339912 L 643.1999999999999,263.5307083606236 L 658.4,261.3929666418526 L 673.6,258.5530203938961 L 688.8,256.44250699990505 L 704,256.1253514812256 L 719.2,257.76143422191103 L 734.4,260.52599411418373 L 749.6,263.02539658042247 L 764.8,263.9996748135857 L 780,262.95768813057407"
      stroke="url(#thread-20)"
      stroke-width="5.776"
      stroke-linecap="round"
      fill="none"
      opacity="0.4285714285714286"
      class="thread"
      style="animation-delay: 2s"
    >
      <title>2025-12-23: 2888 stars, Python, TypeScript</title>
    </path>
  </g>

  <!-- Date markers -->
  <g id="dates">
    <text x="785" y="24" class="date-label">01-12</text>
<text x="785" y="108" class="date-label">01-05</text>
<text x="785" y="192" class="date-label">12-29</text>
  </g>

</svg>