<?xml version="1.0" encoding="UTF-8"?>
<svg xmlns="http://www.w3.org/2000/svg" viewBox="0 0 800 460" width="800" height="460">
  <title>The Data Tapestry - GitHub Trends Woven in Time</title>
  <desc>A living data art piece that weaves daily GitHub trending repositories into an evolving tapestry. Each thread represents one day of open source activity.</desc>

  <style>
    .thread {
      animation: breathe 8s ease-in-out infinite alternate;
    }

    @keyframes breathe {
      0% {
        opacity: 0.85;
      }
      100% {
        opacity: 1;
      }
    }

    .date-label {
      font-family: ui-monospace, monospace;
      font-size: 8px;
      fill: #666;
    }

    .title {
      font-family: system-ui, sans-serif;
      font-size: 14px;
      fill: #333;
      font-weight: 600;
    }

    .subtitle {
      font-family: system-ui, sans-serif;
      font-size: 10px;
      fill: #888;
    }

    .empty-state {
      font-family: system-ui, sans-serif;
      font-size: 12px;
      fill: #999;
      text-anchor: middle;
    }
  </style>

  <defs>
    
    <linearGradient id="thread-0" x1="0%" y1="0%" x2="100%" y2="0%">
      <stop offset="0%" stop-color="#3178c6" />
      <stop offset="50%" stop-color="#3572A5" />
      <stop offset="100%" stop-color="#f1e05a" />
    </linearGradient>

    <linearGradient id="thread-1" x1="0%" y1="0%" x2="100%" y2="0%">
      <stop offset="0%" stop-color="#3572A5" />
      <stop offset="50%" stop-color="#3178c6" />
      <stop offset="100%" stop-color="#89e051" />
    </linearGradient>

    <linearGradient id="thread-2" x1="0%" y1="0%" x2="100%" y2="0%">
      <stop offset="0%" stop-color="#3178c6" />
      <stop offset="50%" stop-color="#3572A5" />
      <stop offset="100%" stop-color="#89e051" />
    </linearGradient>

    <linearGradient id="thread-3" x1="0%" y1="0%" x2="100%" y2="0%">
      <stop offset="0%" stop-color="#3572A5" />
      <stop offset="50%" stop-color="#3178c6" />
      <stop offset="100%" stop-color="#8b8b8b" />
    </linearGradient>

    <linearGradient id="thread-4" x1="0%" y1="0%" x2="100%" y2="0%">
      <stop offset="0%" stop-color="#3178c6" />
      <stop offset="50%" stop-color="#3572A5" />
      <stop offset="100%" stop-color="#dea584" />
    </linearGradient>

    <linearGradient id="thread-5" x1="0%" y1="0%" x2="100%" y2="0%">
      <stop offset="0%" stop-color="#3572A5" />
      <stop offset="50%" stop-color="#3178c6" />
      <stop offset="100%" stop-color="#8b8b8b" />
    </linearGradient>

    <linearGradient id="thread-6" x1="0%" y1="0%" x2="100%" y2="0%">
      <stop offset="0%" stop-color="#3572A5" />
      <stop offset="50%" stop-color="#3178c6" />
      <stop offset="100%" stop-color="#41b883" />
    </linearGradient>

    <linearGradient id="thread-7" x1="0%" y1="0%" x2="100%" y2="0%">
      <stop offset="0%" stop-color="#3178c6" />
      <stop offset="50%" stop-color="#f1e05a" />
      <stop offset="100%" stop-color="#89e051" />
    </linearGradient>

    <linearGradient id="thread-8" x1="0%" y1="0%" x2="100%" y2="0%">
      <stop offset="0%" stop-color="#3178c6" />
      <stop offset="50%" stop-color="#3572A5" />
      <stop offset="100%" stop-color="#f1e05a" />
    </linearGradient>

    <linearGradient id="thread-9" x1="0%" y1="0%" x2="100%" y2="0%">
      <stop offset="0%" stop-color="#3178c6" />
      <stop offset="50%" stop-color="#3572A5" />
      <stop offset="100%" stop-color="#f1e05a" />
    </linearGradient>

    <linearGradient id="thread-10" x1="0%" y1="0%" x2="100%" y2="0%">
      <stop offset="0%" stop-color="#3178c6" />
      <stop offset="50%" stop-color="#f1e05a" />
      <stop offset="100%" stop-color="#3572A5" />
    </linearGradient>

    <linearGradient id="thread-11" x1="0%" y1="0%" x2="100%" y2="0%">
      <stop offset="0%" stop-color="#3572A5" />
      <stop offset="50%" stop-color="#3178c6" />
      <stop offset="100%" stop-color="#89e051" />
    </linearGradient>

    <linearGradient id="thread-12" x1="0%" y1="0%" x2="100%" y2="0%">
      <stop offset="0%" stop-color="#3178c6" />
      <stop offset="50%" stop-color="#89e051" />
      <stop offset="100%" stop-color="#3572A5" />
    </linearGradient>

    <linearGradient id="thread-13" x1="0%" y1="0%" x2="100%" y2="0%">
      <stop offset="0%" stop-color="#3572A5" />
      <stop offset="50%" stop-color="#3178c6" />
      <stop offset="100%" stop-color="#89e051" />
    </linearGradient>

    <linearGradient id="thread-14" x1="0%" y1="0%" x2="100%" y2="0%">
      <stop offset="0%" stop-color="#3178c6" />
      <stop offset="50%" stop-color="#3572A5" />
      <stop offset="100%" stop-color="#8b8b8b" />
    </linearGradient>

    <linearGradient id="thread-15" x1="0%" y1="0%" x2="100%" y2="0%">
      <stop offset="0%" stop-color="#3178c6" />
      <stop offset="50%" stop-color="#89e051" />
      <stop offset="100%" stop-color="#3572A5" />
    </linearGradient>

    <linearGradient id="thread-16" x1="0%" y1="0%" x2="100%" y2="0%">
      <stop offset="0%" stop-color="#3572A5" />
      <stop offset="50%" stop-color="#3178c6" />
      <stop offset="100%" stop-color="#89e051" />
    </linearGradient>

    <linearGradient id="thread-17" x1="0%" y1="0%" x2="100%" y2="0%">
      <stop offset="0%" stop-color="#3572A5" />
      <stop offset="50%" stop-color="#3178c6" />
      <stop offset="100%" stop-color="#8b8b8b" />
    </linearGradient>

    <linearGradient id="thread-18" x1="0%" y1="0%" x2="100%" y2="0%">
      <stop offset="0%" stop-color="#3572A5" />
      <stop offset="50%" stop-color="#3178c6" />
      <stop offset="100%" stop-color="#8b8b8b" />
    </linearGradient>

    <linearGradient id="thread-19" x1="0%" y1="0%" x2="100%" y2="0%">
      <stop offset="0%" stop-color="#3178c6" />
      <stop offset="50%" stop-color="#3572A5" />
      <stop offset="100%" stop-color="#dea584" />
    </linearGradient>

    <linearGradient id="thread-20" x1="0%" y1="0%" x2="100%" y2="0%">
      <stop offset="0%" stop-color="#3572A5" />
      <stop offset="50%" stop-color="#3178c6" />
      <stop offset="100%" stop-color="#00ADD8" />
    </linearGradient>

    <linearGradient id="thread-21" x1="0%" y1="0%" x2="100%" y2="0%">
      <stop offset="0%" stop-color="#3572A5" />
      <stop offset="50%" stop-color="#00ADD8" />
      <stop offset="100%" stop-color="#3178c6" />
    </linearGradient>

    <linearGradient id="thread-22" x1="0%" y1="0%" x2="100%" y2="0%">
      <stop offset="0%" stop-color="#3572A5" />
      <stop offset="50%" stop-color="#3178c6" />
      <stop offset="100%" stop-color="#00ADD8" />
    </linearGradient>

    <linearGradient id="thread-23" x1="0%" y1="0%" x2="100%" y2="0%">
      <stop offset="0%" stop-color="#3572A5" />
      <stop offset="50%" stop-color="#00ADD8" />
      <stop offset="100%" stop-color="#DA5B0B" />
    </linearGradient>

    <linearGradient id="thread-24" x1="0%" y1="0%" x2="100%" y2="0%">
      <stop offset="0%" stop-color="#3572A5" />
      <stop offset="50%" stop-color="#3178c6" />
      <stop offset="100%" stop-color="#dea584" />
    </linearGradient>

    <linearGradient id="thread-25" x1="0%" y1="0%" x2="100%" y2="0%">
      <stop offset="0%" stop-color="#dea584" />
      <stop offset="50%" stop-color="#3572A5" />
      <stop offset="100%" stop-color="#3178c6" />
    </linearGradient>

    <linearGradient id="thread-26" x1="0%" y1="0%" x2="100%" y2="0%">
      <stop offset="0%" stop-color="#3572A5" />
      <stop offset="50%" stop-color="#3178c6" />
      <stop offset="100%" stop-color="#dea584" />
    </linearGradient>

    <linearGradient id="thread-27" x1="0%" y1="0%" x2="100%" y2="0%">
      <stop offset="0%" stop-color="#3572A5" />
      <stop offset="50%" stop-color="#dea584" />
      <stop offset="100%" stop-color="#3178c6" />
    </linearGradient>

    <linearGradient id="thread-28" x1="0%" y1="0%" x2="100%" y2="0%">
      <stop offset="0%" stop-color="#3572A5" />
      <stop offset="50%" stop-color="#3178c6" />
      <stop offset="100%" stop-color="#89e051" />
    </linearGradient>

    <linearGradient id="thread-29" x1="0%" y1="0%" x2="100%" y2="0%">
      <stop offset="0%" stop-color="#3572A5" />
      <stop offset="50%" stop-color="#f1e05a" />
      <stop offset="100%" stop-color="#89e051" />
    </linearGradient>

    <linearGradient id="thread-30" x1="0%" y1="0%" x2="100%" y2="0%">
      <stop offset="0%" stop-color="#3572A5" />
      <stop offset="50%" stop-color="#89e051" />
      <stop offset="100%" stop-color="#dea584" />
    </linearGradient>

    <linearGradient id="thread-31" x1="0%" y1="0%" x2="100%" y2="0%">
      <stop offset="0%" stop-color="#3572A5" />
      <stop offset="50%" stop-color="#89e051" />
      <stop offset="100%" stop-color="#00ADD8" />
    </linearGradient>

    <linearGradient id="thread-32" x1="0%" y1="0%" x2="100%" y2="0%">
      <stop offset="0%" stop-color="#3572A5" />
      <stop offset="50%" stop-color="#3178c6" />
      <stop offset="100%" stop-color="#3572A5" />
    </linearGradient>

    <linearGradient id="thread-33" x1="0%" y1="0%" x2="100%" y2="0%">
      <stop offset="0%" stop-color="#3572A5" />
      <stop offset="50%" stop-color="#3178c6" />
      <stop offset="100%" stop-color="#3572A5" />
    </linearGradient>

    <linearGradient id="thread-34" x1="0%" y1="0%" x2="100%" y2="0%">
      <stop offset="0%" stop-color="#3572A5" />
      <stop offset="50%" stop-color="#3178c6" />
      <stop offset="100%" stop-color="#3572A5" />
    </linearGradient>

    <!-- Background pattern -->
    <pattern id="loom" patternUnits="userSpaceOnUse" width="20" height="20">
      <rect width="20" height="20" fill="#fafafa"/>
      <circle cx="10" cy="10" r="0.5" fill="#eee"/>
    </pattern>
  </defs>

  <!-- Background -->
  <rect width="100%" height="100%" fill="url(#loom)"/>

  <!-- Threads -->
  <g id="tapestry">
    
    <path
      d="M 20,20 L 35.2,23.930461555371327 L 50.400000000000006,21.45940313684857 L 65.6,16.611423280757602 L 80.80000000000001,17.28239870401762 L 96,22.37951562038991 L 111.2,23.60112922563011 L 126.4,18.957604515259177 L 141.60000000000002,16.011823294363737 L 156.79999999999998,19.561562378369906 L 172,23.82538227772869 L 187.2,21.85882421417489 L 202.4,16.864809917462654 L 217.6,16.977061552264246 L 232.8,22.012755531028574 L 248,23.770286232292545 L 263.20000000000005,19.387173580784072 L 278.40000000000003,16.002167769369123 L 293.59999999999997,19.128408160499273 L 308.8,23.674205133227858 L 324,22.235845482824125 L 339.2,17.1559772423466 L 354.4,16.708152397497088 L 369.6,21.62174067972418 L 384.8,23.894009308399763 L 400,19.824127526728557 L 415.2,16.04068822379543 L 430.40000000000003,18.705757082355614 L 445.6,23.47875188591051 L 460.79999999999995,22.585923638367312 L 476,17.48141653612296 L 491.2,16.47891173635504 L 506.40000000000003,21.211183000930976 L 521.6,23.970807525862583 L 536.8000000000001,20.263200828404866 L 552,16.12692046592258 L 567.1999999999999,18.298702311552773 L 582.4,23.241377850126337 L 597.6,22.904840055048226 L 612.8000000000001,17.8372060842687 L 628,16.29210203928118 L 643.1999999999999,20.786029930445004 L 658.4,23.999755425799655 L 673.6,20.699102421775027 L 688.8,16.259825351914003 L 704,17.912149072004702 L 719.2,22.96494350775733 L 734.4,23.188751622440876 L 749.6,18.21905843574509 L 764.8,16.14997446130222 L 780,20.35140478620294"
      stroke="url(#thread-0)"
      stroke-width="8"
      stroke-linecap="round"
      fill="none"
      opacity="1"
      class="thread"
      style="animation-delay: 0s"
    >
      <title>2026-01-26: 5507 stars, TypeScript, JavaScript, Python, Rust, Shell</title>
    </path>

    <path
      d="M 20,33.917702154416816 L 35.2,35.99757472101666 L 50.400000000000006,34.15734760501925 L 65.6,30.20158338167863 L 80.80000000000001,28.009381544700684 L 96,29.730457940582674 L 111.2,33.67709151241667 L 126.4,35.979136461317026 L 141.60000000000002,34.37916264443605 L 156.79999999999998,30.446135569471362 L 172,28.03685823929327 L 187.2,29.513914959747584 L 202.4,33.428875123498834 L 217.6,35.94265249292964 L 232.8,34.590187987038064 L 248,30.69773465930583 L 263.20000000000005,28.082308105300616 L 278.40000000000003,29.308646577520904 L 293.59999999999997,33.174178669250104 L 308.8,35.88828827362949 L 324,34.789466615669596 L 339.2,30.955239628770414 L 354.4,28.145525023870096 L 369.6,29.115583702773023 L 384.8,32.91415721888259 L 400,35.81629034958912 L 415.2,34.97609478548175 L 430.40000000000003,31.2174826718072 L 445.6,28.226222301115293 L 460.79999999999995,28.935601891401575 L 476,32.64998999090048 L 491.2,35.726985237271585 L 506.40000000000003,35.14922612248908 L 521.6,31.483274494807965 L 536.8000000000001,28.324033968296206 L 552,28.76951737561391 L 567.1999999999999,32.382875005247875 L 582.4,35.620777942651635 L 597.6,35.30807546194476 L 612.8000000000001,31.751409710157528 L 628,28.43851644151736 L 643.1999999999999,28.618083362247347 L 658.4,32.11402365019056 L 673.6,35.49815012448056 L 688.8,35.4519224091267 L 704,32.0206723027651 L 719.2,28.569150533416927 L 734.4,28.481986616914824 L 749.6,31.844655188571398 L 764.8,35.35965790992448 L 780,35.58011460638654"
      stroke="url(#thread-1)"
      stroke-width="8"
      stroke-linecap="round"
      fill="none"
      opacity="0.9828571428571429"
      class="thread"
      style="animation-delay: 0.1s"
    >
      <title>2026-01-25: 4122 stars, Shell, Python, TypeScript</title>
    </path>

    <path
      d="M 20,47.36588393923159 L 35.2,46.483377446700786 L 50.400000000000006,41.12513566057655 L 65.6,40.948197185934404 L 80.80000000000001,46.27145425432077 L 96,47.500920430246246 L 111.2,42.42075648911792 L 126.4,40.186827593018165 L 141.60000000000002,44.82529352564602 L 156.79999999999998,47.976351506971376 L 172,43.96092063935876 L 187.2,40.01592162410328 L 202.4,43.25133741978727 L 217.6,47.83605093809594 L 232.8,45.50713616584096 L 248,40.461943794034184 L 263.20000000000005,41.793310512266714 L 278.40000000000003,47.10174404141464 L 293.59999999999997,46.81997407721285 L 308.8,41.45582828602272 L 324,40.676985928403724 L 339.2,45.88713706072321 L 354.4,47.696143531063036 L 369.6,42.84367368247131 L 384.8,40.075224737407446 L 400,44.380309936557154 L 415.2,47.99997109442208 L 430.40000000000003,44.410574352352086 L 445.6,40.08120869339118 L 460.79999999999995,42.81459242941965 L 476,47.684409556992314 L 491.2,45.91389824307439 L 506.40000000000003,40.69401119037992 L 521.6,41.432433381050494 L 536.8000000000001,46.79832311611378 L 552,47.120858064208264 L 567.1999999999999,41.81874074575765 L 582.4,40.447857900608625 L 597.6,45.478920834272415 L 612.8000000000001,47.84455802559587 L 628,43.28123479397294 L 643.1999999999999,40.0133259202021 L 658.4,43.93051003610573 L 673.6,47.97293435033898 L 688.8,44.85502848014317 L 704,40.19612401922229 L 719.2,42.39285964726067 L 734.4,47.486108170698735 L 749.6,46.29642237917415 L 764.8,40.96794620557441 L 780,41.104072361279634"
      stroke="url(#thread-2)"
      stroke-width="8"
      stroke-linecap="round"
      fill="none"
      opacity="0.9657142857142857"
      class="thread"
      style="animation-delay: 0.2s"
    >
      <title>2026-01-24: 5856 stars, Shell, TypeScript, Python, Rust</title>
    </path>

    <path
      d="M 20,59.98997994641622 L 35.2,57.61410010884885 L 50.400000000000006,53.10047985062399 L 65.6,52.42703120867674 L 80.80000000000001,56.485680511017996 L 96,59.901086650040696 L 111.2,58.14983021927586 L 126.4,53.551303701543105 L 141.60000000000002,52.195870363984284 L 156.79999999999998,55.87868815084405 L 172,59.72217332259751 L 187.2,58.63595164358783 L 202.4,54.0586327615583 L 217.6,52.052492206204455 L 232.8,55.27449513798268 L 248,59.45736850178389 L 263.20000000000005,59.06124682379518 L 278.40000000000003,54.61076009313106 L 293.59999999999997,52.000205276617066 L 308.8,54.68704360668203 L 324,59.11278272559475 L 339.2,59.41590180579496 L 354.4,55.19494501039616 L 369.6,52.040216129048815 L 384.8,54.12988937096076 L 400,58.69636752781046 L 415.2,59.69173270254183 L 430.40000000000003,55.797707078510875 L 445.6,52.171601487883926 L 460.79999999999995,53.615889115662945 L 476,58.21773195134763 L 491.2,59.88237454239531 L 506.40000000000003,56.40513718317819 L 521.6,52.391329553230456 L 536.8000000000001,53.15690372035924 L 552,57.687920813542696 L 567.1999999999999,59.98342814484856 L 582.4,57.00321849221801 L 597.6,52.69432996161192 L 612.8000000000001,52.76352456208152 L 628,57.119159840036644 L 643.1999999999999,59.99256163438883 L 658.4,57.578149902796575 L 673.6,53.07361078779748 L 688.8,52.44482911262842 L 704,56.52457354845705 L 719.2,59.909564249993366 L 734.4,58.11666451056512 L 749.6,53.520419887879704 L 764.8,52.20817147018704 L 780,55.9178823919089"
      stroke="url(#thread-3)"
      stroke-width="8"
      stroke-linecap="round"
      fill="none"
      opacity="0.9485714285714285"
      class="thread"
      style="animation-delay: 0.30000000000000004s"
    >
      <title>2026-01-23: 4879 stars, Unknown, Rust, Python, Shell, TypeScript, JavaScript</title>
    </path>

    <path
      d="M 20,71.63718970730272 L 35.2,66.2871131094136 L 50.400000000000006,64.4084414588197 L 65.6,69.8085657152255 L 80.80000000000001,71.54337849902555 L 96,66.09703897250242 L 111.2,64.50731622649747 L 126.4,69.99600583644421 L 141.60000000000002,71.43951034190897 L 156.79999999999998,65.91236589046082 L 172,64.61610405935637 L 187.2,70.17778081955086 L 202.4,71.3258800384254 L 217.6,65.73361800930894 L 232.8,64.7344961917171 L 248,70.35337474401767 L 263.20000000000005,71.20281009833465 L 278.40000000000003,65.56130265794104 L 293.59999999999997,64.8621565986197 L 308.8,70.52228923262768 L 324,71.07064982332481 L 339.2,65.39590890820581 L 354.4,64.99872294954223 L 369.6,70.68404486598767 L 384.8,70.92977431561111 L 400,65.23790618680422 L 415.2,65.14380763678069 L 430.40000000000003,70.8381825432339 L 445.6,70.78058341330683 L 460.79999999999995,65.08774294294551 L 476,65.29699887557165 L 491.2,70.98426478506954 L 506.40000000000003,70.62350055558798 L 521.6,64.94584537554162 L 536.8000000000001,65.45786187283514 L 552,71.12187697543456 L 567.1999999999999,70.45897158087233 L 582.4,64.81261622355377 L 597.6,65.62594006122043 L 612.8000000000001,71.25062853828449 L 628,70.2874634614243 L 643.1999999999999,64.68843362292368 L 658.4,65.80075639495278 L 673.6,71.37015404613791 L 688.8,70.1094629779768 L 704,64.57365003333392 L 719.2,65.98181470380231 L 734.4,71.48011425724636 L 749.6,69.92547533813207 L 764.8,64.46859123784394 L 780,66.16860110133261"
      stroke="url(#thread-4)"
      stroke-width="8"
      stroke-linecap="round"
      fill="none"
      opacity="0.9314285714285714"
      class="thread"
      style="animation-delay: 0.4s"
    >
      <title>2026-01-22: 6303 stars, Rust, Unknown, Shell, TypeScript, Python</title>
    </path>

    <path
      d="M 20,82.39388857641583 L 35.2,78.37717137491146 L 50.400000000000006,76.01754612298053 L 65.6,77.7244576310827 L 80.80000000000001,81.75495579655014 L 96,83.99344519574268 L 111.2,82.15417445278412 L 126.4,78.11524745007071 L 141.60000000000002,76.00086640935342 L 156.79999999999998,77.97005400667864 L 172,82.01204652720895 L 187.2,83.99951150807176 L 202.4,81.90302195436968 L 217.6,77.86333130617403 L 232.8,76.00542155382095 L 248,78.2264291207515 L 263.20000000000005,82.25845356313324 L 278.40000000000003,83.98434095561583 L 293.59999999999997,81.64176466694632 L 308.8,77.62276058384936 L 324,76.03118736918252 L 339.2,78.49222165614526 L 354.4,82.49286851631274 L 369.6,83.94801409195514 L 384.8,81.37178983134977 L 400,77.39481268107166 L 415.2,76.07802704244588 L 430.40000000000003,78.76602029047127 L 445.6,82.71404667507352 L 460.79999999999995,83.89072380781899 L 476,81.09453097741674 L 491.2,77.18069797035253 L 506.40000000000003,76.14569186128566 L 521.6,79.04637119003912 L 536.8000000000001,82.92081361332836 L 552,83.81277430686202 L 567.1999999999999,80.81146031213538 L 582.4,76.9815533718261 L 597.6,76.23382253467202 L 612.8000000000001,79.3317857295168 L 628,83.1120714266205 L 643.1999999999999,83.71457949038414 L 658.4,80.52408090242548 L 673.6,76.79843631635687 L 688.8,76.34195110065755 L 704,79.62074839632982 L 719.2,83.28680456184756 L 734.4,83.59666075957037 L 749.6,80.23391869405663 L 764.8,76.63231913072494 L 780,76.46950341119177"
      stroke="url(#thread-5)"
      stroke-width="8"
      stroke-linecap="round"
      fill="none"
      opacity="0.9142857142857144"
      class="thread"
      style="animation-delay: 0.5s"
    >
      <title>2026-01-21: 4215 stars, Unknown, TypeScript, Python, Shell, JavaScript</title>
    </path>

    <path
      d="M 20,92.56448003223947 L 35.2,88.01162173849819 L 50.400000000000006,91.95639126711592 L 65.6,95.99407344281894 L 80.80000000000001,91.52199365841554 L 96,88.06835287883779 L 111.2,92.99146870907704 L 126.4,95.80216401777855 L 141.60000000000002,90.51197906281084 L 156.79999999999998,88.39216744935011 L 172,93.95919400686837 L 187.2,95.35196716849765 L 202.4,89.60304824299422 L 217.6,88.96106817928144 L 232.8,94.79382794635552 L 248,94.67406552740825 L 263.20000000000005,88.85694640489719 L 278.40000000000003,89.7364086810758 L 293.59999999999997,95.43867243418796 L 308.8,93.8145100980827 L 324,88.32435750667679 L 339.2,90.665518764762 L 354.4,95.84992209505339 L 369.6,92.83169193277288 L 384.8,88.04146121182391 L 400,91.6852824129276 L 415.2,95.99964004481735 L 430.40000000000003,91.79237552959826 L 445.6,88.0274751435087 L 460.79999999999995,92.72642535839547 L 476,95.87765569025288 L 491.2,90.76716340741172 L 506.40000000000003,88.2833493989767 L 521.6,93.7182210022095 L 536.8000000000001,95.49225563461818 L 552,89.82569995743395 L 567.1999999999999,88.79170200783807 L 582.4,94.59329499097083 L 597.6,94.8696207547 L 612.8000000000001,89.03194038211663 L 628,89.51799971867734 L 643.1999999999999,95.2922020704716 L 658.4,94.05204768962905 L 673.6,88.43980611020834 L 688.8,90.41290390115479 L 704,95.76746430222644 L 719.2,93.09507555873805 L 734.4,88.089521823017 L 749.6,91.41562220250663 L 764.8,95.986796320032 L 780,92.06371309536993"
      stroke="url(#thread-6)"
      stroke-width="8"
      stroke-linecap="round"
      fill="none"
      opacity="0.8971428571428571"
      class="thread"
      style="animation-delay: 0.6000000000000001s"
    >
      <title>2026-01-20: 6510 stars, Python, Vue, TypeScript, Unknown, Shell, JavaScript</title>
    </path>

    <path
      d="M 20,102.59686708924153 L 35.2,100.00940766121046 L 50.400000000000006,102.09775055031672 L 65.6,106.41497116720917 L 80.80000000000001,107.90255477264944 L 96,104.81749023477057 L 111.2,100.77456721136751 L 126.4,100.51090421416725 L 141.60000000000002,104.33543684685672 L 156.79999999999998,107.7669360016486 L 172,106.78469238602281 L 187.2,102.53960706529074 L 202.4,100.00567339532233 L 217.6,102.15191750548273 L 232.8,106.46357157900358 L 248,107.8886432307698 L 263.20000000000005,104.75736698094377 L 278.40000000000003,100.73867904288342 L 293.59999999999997,100.54130152533065 L 308.8,104.39650291566093 L 324,107.78711932852357 L 339.2,106.74034403904128 L 354.4,102.4826902834841 L 369.6,100.00287793240676 L 384.8,102.206518823061 L 400,106.51159296746054 L 415.2,107.87381772511465 L 430.40000000000003,104.6970657200476 L 445.6,100.70355739604668 L 460.79999999999995,100.57251174858925 L 476,104.45747579275785 L 491.2,107.80641255320238 L 506.40000000000003,106.69535161775525 L 521.6,102.42613012120638 L 536.8000000000001,100.00102192949288 L 552,102.26154166987985 L 567.1999999999999,106.55902404591608 L 582.4,107.8580817401834 L 597.6,104.63660062493489 L 612.8000000000001,100.66921052564204 L 628,100.60452754847624 L 643.1999999999999,104.5183411474419 L 658.4,107.82481114111924 L 673.6,106.64972569691822 L 688.8,102.36993987202467 L 704,100.00010582280466 L 719.2,102.31697311369372 L 734.4,106.60585366644916 L 749.6,107.84143897446917 L 764.8,104.57598590696497 L 780,100.6356465043554"
      stroke="url(#thread-7)"
      stroke-width="8"
      stroke-linecap="round"
      fill="none"
      opacity="0.88"
      class="thread"
      style="animation-delay: 0.7000000000000001s"
    >
      <title>2026-01-19: 4551 stars, JavaScript, TypeScript, Shell, Python</title>
    </path>

    <path
      d="M 20,112.9727900187683 L 35.2,112.09556566427106 L 50.400000000000006,114.36769264470966 L 65.6,117.9564532028646 L 80.80000000000001,119.96712127018223 L 96,118.77787416572423 L 111.2,115.34796914263995 L 126.4,112.4439979871726 L 141.60000000000002,112.40832956730284 L 156.79999999999998,115.26973434657873 L 172,118.72017787326403 L 187.2,119.9765018221059 L 202.4,118.02534416286332 L 217.6,114.44052595396079 L 232.8,112.11359333010921 L 248,112.92147076617353 L 263.20000000000005,116.21251716309587 L 278.40000000000003,119.33214533301202 L 293.59999999999997,119.76403554900958 L 308.8,117.15982133560428 L 324,113.62008495496794 L 339.2,112.0000091396325 L 354.4,113.60636139879497 L 369.6,117.14344376528085 L 384.8,119.75821425789087 L 400,119.34157582610064 L 415.2,116.22959272109678 L 430.40000000000003,112.93241809268555 L 445.6,112.10958221455635 L 460.79999999999995,114.42479179769308 L 476,118.01057827575691 L 491.2,119.97461449955097 L 506.40000000000003,118.73269144635817 L 521.6,115.28655525637326 L 536.8000000000001,112.41588991889648 L 552,112.4361995339727 L 567.1999999999999,115.33110218610473 L 582.4,118.76554374246409 L 597.6,119.96927320886671 L 612.8000000000001,117.97135173068109 L 628,114.38332047709581 L 643.1999999999999,112.0993172531358 L 658.4,112.96163929928802 L 673.6,116.27473001152858 L 688.8,119.36622106190852 L 704,119.7424883734747 L 719.2,117.100031398368 L 734.4,113.57027934924265 L 749.6,112.00036150835612 L 764.8,113.65658751823247 L 780,117.20303080240757"
      stroke="url(#thread-8)"
      stroke-width="7.412"
      stroke-linecap="round"
      fill="none"
      opacity="0.8628571428571429"
      class="thread"
      style="animation-delay: 0.8s"
    >
      <title>2026-01-18: 3706 stars, JavaScript, Shell, Vue, TypeScript, Python, HTML</title>
    </path>

    <path
      d="M 20,124.08987952933961 L 35.2,127.14404595950239 L 50.400000000000006,131.90452723804674 L 65.6,128.88146817800433 L 80.80000000000001,124.10123271672633 L 96,127.09305532291972 L 111.2,131.89284085228954 L 126.4,128.93238244988646 L 141.60000000000002,124.11325180184883 L 156.79999999999998,127.04221958976245 L 172,131.8804895810131 L 187.2,128.9831374736481 L 202.4,124.12593473188353 L 217.6,126.99154744262103 L 232.8,131.8674755337775 L 248,129.03372458048364 L 263.20000000000005,124.13927934062407 L 278.40000000000003,126.9410475361459 L 293.59999999999997,131.85380093334288 L 308.8,129.08413513026727 L 324,124.15328334885137 L 339.2,126.8907284955693 L 354.4,131.83946811528992 L 369.6,129.1343605130286 L 384.8,124.16794436472294 L 400,126.84059891523223 L 415.2,131.82447952762084 L 430.40000000000003,129.18439215042315 L 445.6,124.18325988418128 L 460.79999999999995,126.7906673571163 L 476,131.80883773034137 L 491.2,129.23422149719767 L 506.40000000000003,124.19922729138172 L 521.6,126.74094234938165 L 536.8000000000001,131.7925453950235 L 552,129.2838400426494 L 567.1999999999999,124.21584385913911 L 582.4,126.6914323849101 L 597.6,131.77560530434914 L 612.8000000000001,129.33323931207994 L 628,124.23310674939358 L 643.1999999999999,126.64214591985478 L 658.4,131.75802035163485 L 673.6,129.38241086824246 L 688.8,124.25101301369537 L 704,126.59309137219593 L 719.2,131.73979354033776 L 734.4,129.43134631278295 L 749.6,124.26955959370835 L 764.8,126.54427712030281 L 780,131.72092798354242"
      stroke="url(#thread-9)"
      stroke-width="8"
      stroke-linecap="round"
      fill="none"
      opacity="0.8457142857142858"
      class="thread"
      style="animation-delay: 0.9s"
    >
      <title>2026-01-17: 6237 stars, JavaScript, TypeScript, Shell, Python</title>
    </path>

    <path
      d="M 20,136.16430290134744 L 35.2,140.62610314397875 L 50.400000000000006,143.9985707608291 L 65.6,140.4140798826543 L 80.80000000000001,136.10914744434228 L 96,138.57375876530102 L 111.2,143.5198320053273 L 126.4,142.34188578059718 L 141.60000000000002,137.08938313303014 L 156.79999999999998,136.90095011173895 L 172,142.10443403683536 L 187.2,143.646494637077 L 202.4,138.84416036228177 L 217.6,136.05282673433848 L 232.8,140.12902708900907 L 248,143.98073820573407 L 263.20000000000005,140.90651699980324 L 278.40000000000003,136.25508195425581 L 293.59999999999997,138.11928486283347 L 308.8,143.25567124216707 L 324,142.727641243758 L 339.2,137.45389382350479 L 354.4,136.61001798820047 L 369.6,141.66424063998684 L 384.8,143.82291541963255 L 400,139.33024763335087 L 415.2,136.0028560658541 L 430.40000000000003,139.6299405128642 L 445.6,143.90087713773602 L 460.79999999999995,141.38482862099818 L 476,136.45937038882252 L 491.2,137.69411657081395 L 506.40000000000003,142.94078007795667 L 521.6,143.07089415554793 L 536.8000000000001,137.85807835628177 L 552,136.37190911806184 L 567.1999999999999,141.19811477366252 L 582.4,143.93976690971556 L 597.6,139.82677109518903 L 612.8000000000001,136.01516954701248 L 628,139.1366202640904 L 643.1999999999999,143.76023196504033 L 658.4,141.84156161643406 L 673.6,136.7188294922881 L 688.8,137.3048789310121 L 704,142.5800651982485 L 719.2,143.36629589303132 L 734.4,138.29563866195522 L 749.6,136.1903337526283 L 764.8,140.71331968724473 L 780,143.995228308322"
      stroke="url(#thread-10)"
      stroke-width="8"
      stroke-linecap="round"
      fill="none"
      opacity="0.8285714285714285"
      class="thread"
      style="animation-delay: 1s"
    >
      <title>2026-01-16: 5731 stars, JavaScript, TypeScript, Shell, Python, C</title>
    </path>

    <path
      d="M 20,149.17783869771844 L 35.2,152.63150084351918 L 50.400000000000006,155.56530526783519 L 65.6,155.5641152389283 L 80.80000000000001,152.6289104003293 L 96,149.1759803186233 L 111.2,148.04781108570305 L 126.4,150.173122738753 L 141.60000000000002,153.8023377677219 L 156.79999999999998,155.9478505738206 L 172,154.84345385860874 L 187.2,151.3982978882773 L 202.4,148.4484690295766 L 217.6,148.42229548664386 L 232.8,151.3413235781133 L 248,154.8025805951524 L 263.20000000000005,155.956725630592 L 278.40000000000003,153.8536551104717 L 293.59999999999997,150.22463742489984 L 308.8,148.05711571763513 L 324,149.13541523158304 L 339.2,152.57186917397223 L 354.4,155.53755477326334 L 369.6,155.591090400105 L 384.8,152.6884049985774 L 400,149.21901781400095 L 415.2,148.03896258763152 L 430.40000000000003,150.11967241809796 L 445.6,153.7482864555092 L 460.79999999999995,155.9376938432526 L 476,154.88555283044246 L 491.2,151.4579962737699 L 506.40000000000003,148.47662252911712 L 521.6,148.3957278617947 L 536.8000000000001,151.28190555962817 L 552,154.75922568175707 L 567.1999999999999,155.9651240145074 L 582.4,153.90689315924396 L 597.6,150.27888905181018 L 612.8000000000001,148.06772044844683 L 628,149.09364314732088 L 643.1999999999999,152.5121074663067 L 658.4,155.50899986924261 L 673.6,155.617248978293 L 688.8,152.74774305946536 L 704,149.26268768074556 L 719.2,148.03101479530903 L 734.4,150.0666496677198 L 749.6,153.69383759803307 L 764.8,155.92664171506183 L 780,154.92699565244644"
      stroke="url(#thread-11)"
      stroke-width="7.494"
      stroke-linecap="round"
      fill="none"
      opacity="0.8114285714285714"
      class="thread"
      style="animation-delay: 1.1s"
    >
      <title>2026-01-15: 3747 stars, TypeScript, Shell, Python, JavaScript, C</title>
    </path>

    <path
      d="M 20,162.88233800720428 L 35.2,166.64618351278062 L 50.400000000000006,167.95008408366297 L 65.6,165.58190776105303 L 80.80000000000001,161.7431584546872 L 96,160.00241403006342 L 111.2,161.9779051991743 L 126.4,165.83317599760318 L 141.60000000000002,167.98428985153961 L 156.79999999999998,166.4315284484088 L 172,162.61836973672467 L 187.2,160.08960205512167 L 202.4,161.19601824141037 L 217.6,164.90907175678166 L 232.8,167.77703404829504 L 248,167.1337902082629 L 263.20000000000005,163.57731253090353 L 278.40000000000003,160.4137735494209 L 293.59999999999997,160.5840621536515 L 308.8,163.92987466307204 L 324,167.34087708337233 L 339.2,167.64613357978507 L 354.4,164.56187162916277 L 369.6,160.9552826133798 L 384.8,160.17912356461022 L 400,162.9549274042542 L 415.2,166.70225155829652 L 430.40000000000003,167.93750880503833 L 445.6,165.51237938793582 L 460.79999999999995,161.68131194850056 L 476,160.00574313562421 L 491.2,162.04331511360064 L 506.40000000000003,165.89986036075615 L 521.6,167.9902575503429 L 536.8000000000001,166.37123179111236 L 552,162.54786169772694 L 567.1999999999999,160.07442831277407 L 582.4,161.2502846090279 L 597.6,164.98233113744135 L 612.8000000000001,167.8011830615994 L 628,167.086379450129 L 643.1999999999999,163.50241598703883 L 658.4,160.38101653976867 L 673.6,160.62389624726603 L 688.8,164.00526929259402 L 704,167.38174389850408 L 719.2,167.6144819746616 L 734.4,164.4871255667566 L 749.6,160.90692752307112 L 764.8,160.20211130211766 L 780,163.02788811062115"
      stroke="url(#thread-12)"
      stroke-width="8"
      stroke-linecap="round"
      fill="none"
      opacity="0.7942857142857143"
      class="thread"
      style="animation-delay: 1.2000000000000002s"
    >
      <title>2026-01-14: 4003 stars, TypeScript, Shell, Python, C, HTML, Jupyter Notebook</title>
    </path>

    <path
      d="M 20,176.86047995235126 L 35.2,179.98554866838253 L 50.400000000000006,177.5091802655806 L 65.6,172.91175424637163 L 80.80000000000001,172.6546627295822 L 96,177.0992316165884 L 111.2,179.99889984080775 L 126.4,177.27836671596486 L 141.60000000000002,172.76116985167437 L 156.79999999999998,172.79594435291986 L 172,177.33381685287713 L 187.2,179.99709394550663 L 202.4,177.04270776094654 L 217.6,172.6228616253901 L 232.8,172.9493703385509 L 248,177.56334651058714 L 263.20000000000005,179.9801378273811 L 278.40000000000003,176.8030966208822 L 293.59999999999997,172.49735379849142 L 308.8,173.1143591545171 L 324,177.78695060129522 L 339.2,179.94809575536542 L 354.4,176.56044149613254 L 369.6,172.38512208447656 L 384.8,173.29028544215555 L 400,178.00378159631057 L 415.2,179.90108917882685 L 430.40000000000003,176.31566212470213 L 445.6,172.28659187626815 L 460.79999999999995,173.47648238640141 L 476,178.21301763907073 L 491.2,179.83929626723514 L 506.40000000000003,176.0696862961477 L 521.6,172.20213663384223 L 536.8000000000001,173.67224424322342 L 552,178.41386566023237 L 567.1999999999999,179.7629512348451 L 582.4,175.82344633496868 L 597.6,172.13207646869955 L 612.8000000000001,173.87682901461199 L 628,178.6055643836494 L 643.1999999999999,179.6723434529519 L 658.4,175.577875566809 L 673.6,172.0766769305438 L 688.8,174.0894612609815 L 704,178.7873872118451 L 719.2,179.5678163530846 L 734.4,175.33390478086378 L 749.6,172.03614800076625 L 764.8,174.30933504032606 L 780,178.9586449800415"
      stroke="url(#thread-13)"
      stroke-width="8"
      stroke-linecap="round"
      fill="none"
      opacity="0.7771428571428571"
      class="thread"
      style="animation-delay: 1.3s"
    >
      <title>2026-01-13: 5049 stars, TypeScript, Shell, C, Rust, Python</title>
    </path>

    <path
      d="M 20,190.62794639487515 L 35.2,191.99098961627934 L 50.400000000000006,190.20061394527832 L 65.6,186.67145710541007 L 80.80000000000001,184.19202794362994 L 96,184.72140917196634 L 111.2,187.84131837747805 L 126.4,191.08660741968419 L 141.60000000000002,191.89306121386872 L 156.79999999999998,189.62347273246635 L 172,186.07112231027074 L 187.2,184.04284484559932 L 202.4,185.14125249510747 L 217.6,188.49845539524034 L 232.8,191.46181145248477 L 248,191.68987058194932 L 263.20000000000005,189.00243537983584 L 278.40000000000003,185.52294132287204 L 293.59999999999997,184.00065697604867 L 308.8,185.63839183786823 L 324,189.1421149659934 L 339.2,191.74341356853935 L 354.4,191.38691167444486 L 369.6,188.354293757012 L 384.8,185.0417360917367 L 400,184.06660502837147 L 415.2,186.19938533722086 L 430.40000000000003,189.75489355104614 L 445.6,191.92379969117619 L 460.79999999999995,190.99237602195333 L 476,187.69657259029827 L 491.2,184.64051764666834 L 506.40000000000003,184.23890587134068 L 521.6,186.80906461454563 L 536.8000000000001,190.32022258481118 L 552,191.99809246440265 L 567.1999999999999,190.51693124569127 L 582.4,187.04705562174243 L 597.6,184.3301343010449 L 612.8000000000001,184.51290076216216 L 628,187.45094490464336 L 643.1999999999999,190.82281646266242 L 658.4,191.96428312891166 L 673.6,189.97343262185598 L 688.8,186.4233047648254 L 704,184.11897833055073 L 719.2,184.88118131152544 L 734.4,188.10767077776313 L 749.6,191.24908583955408 L 764.8,191.8232858357624 L 780,189.37657549525122"
      stroke="url(#thread-14)"
      stroke-width="7.33"
      stroke-linecap="round"
      fill="none"
      opacity="0.76"
      class="thread"
      style="animation-delay: 1.4000000000000001s"
    >
      <title>2026-01-12: 3665 stars, TypeScript, Unknown, Python, Shell, C</title>
    </path>

    <path
      d="M 20,203.75199990709896 L 35.2,203.46097162850634 L 50.400000000000006,200.66289310693222 L 65.6,197.38462968262246 L 80.80000000000001,196.00088187226982 L 96,197.51400556217985 L 111.2,200.8279278798664 L 126.4,203.54211780584708 L 141.60000000000002,203.69047701750594 L 156.79999999999998,201.16553742854768 L 172,197.79630866097352 L 187.2,196.02338448643846 L 202.4,197.1310314230341 L 217.6,200.31689486644717 L 232.8,203.27320677427923 L 248,203.85848108931629 L 263.20000000000005,201.64875822124014 L 278.40000000000003,198.24471186748963 L 293.59999999999997,196.1121568784377 L 308.8,196.79586827027873 L 324,199.80058084149354 L 339.2,202.94974817959258 L 354.4,203.9621840780371 L 369.6,202.10450267365144 L 384.8,198.72236672133585 L 400,196.26571966795657 L 415.2,196.514101554052 L 430.40000000000003,199.28759011075437 L 445.6,202.57713241699486 L 460.79999999999995,203.99985778691425 L 476,202.5251758640433 L 491.2,199.22131316679744 L 506.40000000000003,196.48151375117678 L 521.6,196.2904268798558 L 536.8000000000001,198.7864715977148 L 552,202.16156907947268 L 567.1999999999999,203.97087438851287 L 582.4,202.9037673286754 L 597.6,199.73323632656798 L 612.8000000000001,196.7559429479036 L 628,196.12857175690363 L 643.1999999999999,198.3055763769036 L 658.4,201.70998347573598 L 673.6,203.87571688737947 L 688.8,203.2339678902678 L 704,200.24960506809296 L 719.2,197.08443393143855 L 734.4,196.03123347966672 L 749.6,197.8529185043275 L 764.8,201.22990122085352 L 780,203.71597107083434"
      stroke="url(#thread-15)"
      stroke-width="6.996"
      stroke-linecap="round"
      fill="none"
      opacity="0.7428571428571429"
      class="thread"
      style="animation-delay: 1.5s"
    >
      <title>2026-01-11: 3498 stars, TypeScript, Unknown, Shell, Python</title>
    </path>

    <path
      d="M 20,215.95743298649353 L 35.2,213.75479990516445 L 50.400000000000006,210.02472812010444 L 65.6,208.01400149278257 L 80.80000000000001,209.47282622286568 L 96,213.13139066508825 L 111.2,215.80515342946157 L 126.4,215.16677866482738 L 141.60000000000002,211.77192990873073 L 156.79999999999998,208.57560127082124 L 172,208.35998806409046 L 187.2,211.3127675023488 L 202.4,214.86373794362964 L 217.6,215.9220115483257 L 232.8,213.56643026406175 L 248,209.84737374539543 L 263.20000000000005,208.00203778385563 L 278.40000000000003,209.63666680693922 L 293.59999999999997,213.32842301487676 L 308.8,215.8638737535252 L 324,215.0360747563519 L 339.2,211.56557098319578 L 354.4,208.47320929469421 L 369.6,208.45068856491875 L 384.8,211.5176116182108 L 400,215.00442225093937 L 415.2,215.8760795462821 L 430.40000000000003,213.37386276042233 L 445.6,209.67578817464602 L 460.79999999999995,208.00078817832386 L 476,209.80684086662322 L 491.2,213.52189533563939 L 506.40000000000003,215.91223931667244 L 521.6,214.8972344981321 L 536.8000000000001,211.3603762801202 L 552,208.38026873361989 L 567.1999999999999,208.55090083390323 L 582.4,211.72374848240798 L 597.6,215.1370550337726 L 612.8000000000001,215.81976007312664 L 628,213.17761345418697 L 643.1999999999999,209.51043123850167 L 658.4,208.01025602499396 L 673.6,209.98289235396825 L 688.8,213.71128914262397 L 704,215.95012050446059 L 719.2,214.75062996694157 L 734.4,211.15689569896438 L 749.6,208.29702865818143 L 764.8,208.6603563130752 L 780,211.93062567059087"
      stroke="url(#thread-16)"
      stroke-width="7.724"
      stroke-linecap="round"
      fill="none"
      opacity="0.7257142857142858"
      class="thread"
      style="animation-delay: 1.6s"
    >
      <title>2026-01-10: 3862 stars, TypeScript, Unknown, Shell, Python</title>
    </path>

    <path
      d="M 20,227.19394845049396 L 35.2,223.76747696119776 L 50.400000000000006,220.5481475864722 L 65.6,220.4038855762843 L 80.80000000000001,223.46320610055642 L 96,227.00072708183328 L 111.2,227.86506369315632 L 126.4,225.28622550995283 L 141.60000000000002,221.56155905390918 L 156.79999999999998,220.00916686552833 L 172,222.01199061889378 L 187.2,225.78582368432498 L 202.4,227.96876366609916 L 217.6,226.6161481938348 L 232.8,222.93294874291365 L 248,220.20032715682123 L 263.20000000000005,220.85262721749118 L 278.40000000000003,224.30875031810265 L 293.59999999999997,227.4898245715307 L 308.8,227.56200413241075 L 324,224.46098816007554 L 339.2,220.94930293637518 L 354.4,220.1553176185801 L 369.6,222.78635049443213 L 384.8,226.49855763252467 L 400,227.98493582031716 L 415.2,225.9213516624395 L 430.40000000000003,222.1461399245954 L 445.6,220.02243118669264 L 460.79999999999995,221.44212192904286 L 476,225.1404869703409 L 491.2,227.8228542683891 L 506.40000000000003,227.0996488501656 L 521.6,223.61513504479424 L 536.8000000000001,220.47347647241872 L 552,220.47340569430716 L 567.1999999999999,223.61498576282528 L 582.4,227.09955405151717 L 597.6,227.82289840401535 L 612.8000000000001,225.14063072221558 L 628,221.442237236448 L 643.1999999999999,220.02241532853944 L 658.4,222.14600702804904 L 673.6,225.92122011779705 L 688.8,227.98492281353808 L 704,226.49867475064016 L 719.2,222.78649340329017 L 734.4,220.15535900846032 L 749.6,220.9492059352869 L 764.8,224.46083918100675 L 780,227.561935892702"
      stroke="url(#thread-17)"
      stroke-width="7.822"
      stroke-linecap="round"
      fill="none"
      opacity="0.7085714285714286"
      class="thread"
      style="animation-delay: 1.7000000000000002s"
    >
      <title>2026-01-09: 3911 stars, TypeScript, Unknown, Python, Shell</title>
    </path>

    <path
      d="M 20,237.64847394096702 L 35.2,234.0030228153766 L 50.400000000000006,232.02020983817386 L 65.6,233.35088035821897 L 80.80000000000001,236.88714812293108 L 96,239.684796376207 L 111.2,239.4145663025316 L 126.4,236.3014453643525 L 141.60000000000002,232.93734781698316 L 156.79999999999998,232.12314537804838 L 172,234.53672462827967 L 187.2,238.16859393878383 L 202.4,239.9949408633804 L 217.6,238.4951901584431 L 232.8,234.91800042372972 L 248,232.24165912429055 L 263.20000000000005,232.6944276427874 L 278.40000000000003,235.89934112602197 L 293.59999999999997,239.18806091667875 L 308.8,239.822473116709 L 324,237.27438044188997 L 339.2,233.66526736355294 L 354.4,232.00000000239902 L 369.6,233.66504239178752 L 384.8,237.27411780477522 L 400,239.8223914799811 L 415.2,239.18822824923546 L 430.40000000000003,235.8996181105519 L 445.6,232.69458366822022 L 460.79999999999995,232.24156428737112 L 476,234.91773368353748 L 491.2,238.49497359684392 L 506.40000000000003,239.99495478467574 L 521.6,238.1688267524173 L 536.8000000000001,234.53698249887273 L 552,232.1232136083633 L 567.1999999999999,232.93716959999915 L 582.4,236.30116907950955 L 597.6,239.4144219783564 L 612.8000000000001,239.68490417375168 L 628,236.887418292392 L 643.1999999999999,233.35108796259854 L 658.4,232.02018203074957 L 673.6,234.00278274798254 L 688.8,237.64822148829913 L 704,239.92138820440866 L 719.2,238.92969557535903 L 734.4,235.49880450966174 L 749.6,232.48519750131504 L 764.8,232.39793575287376 L 780,235.30967142730233"
      stroke="url(#thread-18)"
      stroke-width="7.54"
      stroke-linecap="round"
      fill="none"
      opacity="0.6914285714285715"
      class="thread"
      style="animation-delay: 1.8s"
    >
      <title>2026-01-08: 3770 stars, TypeScript, Unknown, Python, Rust, JavaScript</title>
    </path>

    <path
      d="M 20,247.69939551815276 L 35.2,244.6983038666073 L 50.400000000000006,244.17382507273032 L 65.6,246.51937236172844 L 80.80000000000001,249.97554319032972 L 96,251.9498527366141 L 111.2,250.96136507861925 L 126.4,247.75154797852863 L 141.60000000000002,244.72809553648952 L 156.79999999999998,244.15890912500313 L 172,246.47093729661506 L 187.2,249.9299203054952 L 202.4,251.9412639042781 L 217.6,250.99625280946 L 232.8,247.80374287376313 L 248,244.75844603782173 L 263.20000000000005,244.14464922405455 L 278.40000000000003,246.42276339081644 L 293.59999999999997,249.88396779607206 L 308.8,251.9320019159111 L 324,251.03062878932494 L 339.2,247.85597128912505 L 354.4,244.7893501868295 L 369.6,244.1310478054328 L 384.8,246.3748588722909 L 400,249.83769351061088 L 415.2,251.92206835343293 L 430.40000000000003,251.06448714689998 L 445.6,247.90822430415793 L 460.79999999999995,244.82080270517702 L 476,244.11810719221924 L 491.2,246.32723192298627 L 506.40000000000003,249.79110535262055 L 521.6,251.9114649134662 L 536.8000000000001,251.09782209927943 L 552,247.96049299420392 L 567.1999999999999,244.85279822086866 L 582.4,244.1058295946318 L 597.6,246.27989067744235 L 612.8000000000001,249.74421127921843 L 628,251.9001934070466 L 643.1999999999999,251.1306279529536 L 658.4,248.01276843192775 L 673.6,244.88533126916656 L 688.8,244.09421710964725 L 704,246.23284322140162 L 719.2,249.69701929977137 L 734.4,251.88825575931352 L 749.6,251.16289910478125 L 764.8,248.06504168884175 L 780,244.91839629352378"
      stroke="url(#thread-19)"
      stroke-width="7.128"
      stroke-linecap="round"
      fill="none"
      opacity="0.6742857142857144"
      class="thread"
      style="animation-delay: 1.9000000000000001s"
    >
      <title>2026-01-07: 3564 stars, TypeScript, Python, Unknown, Shell, Rust</title>
    </path>

    <path
      d="M 20,257.8239155564425 L 35.2,256.00871746718224 L 50.400000000000006,258.2848267627601 L 65.6,262.31909296006 L 80.80000000000001,263.97614780346436 L 96,261.5574092802595 L 111.2,257.54223150797884 L 126.4,256.04641594545126 L 141.60000000000002,258.6032645343472 L 156.79999999999998,262.5918519386 L 172,263.92363344409443 L 187.2,261.23345199576903 L 202.4,257.27890722120964 L 217.6,256.11364806829107 L 232.8,258.93213605117234 L 248,262.84524953949403 L 263.20000000000005,263.8418091740295 L 278.40000000000003,260.90028070891117 L 293.59999999999997,257.03590975331264 L 308.8,256.20991160542343 L 324,259.26898461208697 L 339.2,263.07739285884116 L 354.4,263.73128622825936 L 369.6,260.56038424052076 L 384.8,256.81505431821773 L 400,256.33448745917616 L 415.2,259.61129392667334 L 430.40000000000003,263.2865477642217 L 445.6,263.59289022357945 L 460.79999999999995,260.216301649171 L 476,256.61799072678804 L 491.2,256.48644503621006 L 506.40000000000003,259.95650691217037 L 521.6,263.4711518488295 L 536.8000000000001,263.4276549911555 L 552,259.870603264167 L 567.1999999999999,256.44619106257784 L 582.4,256.6646491991389 L 597.6,260.30204479512236 L 612.8000000000001,263.62982610279744 L 628,263.2368148537078 L 643.1999999999999,259.52587148494456 L 658.4,256.30093868522994 L 673.6,256.8677687461123 L 688.8,260.64532637505897 L 704,263.7613852145312 L 719.2,263.0217954050043 L 734.4,259.18468149030315 L 749.6,256.1833186436586 L 764.8,257.09428635501877 L 780,260.9837873063057"
      stroke="url(#thread-20)"
      stroke-width="8"
      stroke-linecap="round"
      fill="none"
      opacity="0.6571428571428573"
      class="thread"
      style="animation-delay: 2s"
    >
      <title>2026-01-06: 4224 stars, TypeScript, Python, Rust, JavaScript, Go</title>
    </path>

    <path
      d="M 20,268.48121696011333 L 35.2,268.3989462938024 L 50.400000000000006,271.30601815635424 L 65.6,274.78918513126126 L 80.80000000000001,275.9569659958747 L 96,273.8399508808075 L 111.2,270.19553743520436 L 126.4,268.04906240618214 L 141.60000000000002,269.1823789997496 L 156.79999999999998,272.6546871700795 L 172,275.5835199134111 L 187.2,275.53756545438864 L 202.4,272.5549719657289 L 217.6,269.1116796275561 L 232.8,268.0660685323671 L 248,270.28613176510805 L 263.20000000000005,273.9289283479826 L 278.40000000000003,275.97046374004805 L 293.59999999999997,274.7159982707529 L 308.8,271.2069012959331 L 324,268.3561793077381 L 339.2,268.5303020043591 L 354.4,271.5847249205598 L 369.6,274.98388011720687 L 384.8,275.9060270648398 L 400,273.5856639650055 L 415.2,269.9489937190384 L 430.40000000000003,268.01492521213754 L 445.6,269.3889866349719 L 460.79999999999995,272.93052844891355 L 476,275.699610729173 L 491.2,275.3975353441302 L 506.40000000000003,272.2750641177138 L 521.6,268.92425392933444 L 536.8000000000001,268.12671266921325 L 552,270.544503222805 L 567.1999999999999,274.17054524157305 L 582.4,275.99475265001917 L 597.6,274.50279624551314 L 612.8000000000001,270.9331937217854 L 628,268.2491790392043 L 643.1999999999999,268.678833168882 L 658.4,271.86548735013423 L 673.6,275.16380451053664 L 688.8,275.83575279449656 L 704,273.3235278074335 L 719.2,269.7126027493095 L 734.4,268.00051465385695 L 749.6,269.6085191241476 L 764.8,273.20176349153945 L 780,275.79738799319296"
      stroke="url(#thread-21)"
      stroke-width="7.528"
      stroke-linecap="round"
      fill="none"
      opacity="0.64"
      class="thread"
      style="animation-delay: 2.1s"
    >
      <title>2026-01-05: 3764 stars, Go, TypeScript, Python, Rust, JavaScript</title>
    </path>

    <path
      d="M 20,280.0000391737972 L 35.2,281.79308896555176 L 50.400000000000006,285.5484644853984 L 65.6,287.9269871773313 L 80.80000000000001,286.8137388591602 L 96,283.198589889229 L 111.2,280.2960331600232 L 126.4,280.6869437761849 L 141.60000000000002,284.02373456836074 L 156.79999999999998,287.3394212229377 L 172,287.6857846558626 L 187.2,284.75484785080374 L 202.4,281.1527207098836 L 217.6,280.0823174666856 L 232.8,282.4954117952607 L 248,286.24634534719263 L 263.20000000000005,287.9998892444582 L 278.40000000000003,286.19683958113126 L 293.59999999999997,282.4404194541768 L 308.8,280.0707362560473 L 324,281.19484832961786 L 339.2,284.81322555845213 L 354.4,287.7085045693777 L 369.6,287.3062814084242 L 384.8,283.9642020544523 L 400,280.6539532674877 L 415.2,280.31891892646877 L 430.40000000000003,283.25700252497256 L 445.6,286.8557394250347 L 460.79999999999995,287.9152299037414 L 476,285.49340362269567 L 491.2,281.74368314677844 L 506.40000000000003,280.00021871956113 L 521.6,281.8132518542443 L 536.8000000000001,285.57068242058324 L 552,287.93150457069623 L 567.1999999999999,286.796538966448 L 582.4,283.17496639082043 L 597.6,280.2869914331134 L 612.8000000000001,280.7005234803091 L 628,284.047860997123 L 643.1999999999999,287.3526418070464 L 658.4,287.67634400874704 L 673.6,284.7311403410794 L 688.8,281.1358264153402 L 704,280.0872583380601 L 719.2,282.5177945430793 L 734.4,286.26626783619736 L 749.6,287.9996369351269 L 764.8,286.1766368201116 L 780,282.41822999130216"
      stroke="url(#thread-22)"
      stroke-width="7.814"
      stroke-linecap="round"
      fill="none"
      opacity="0.6228571428571429"
      class="thread"
      style="animation-delay: 2.2s"
    >
      <title>2026-01-04: 3907 stars, Python, Jupyter Notebook, TypeScript, Go, Rust</title>
    </path>

    <path
      d="M 20,292.49819130124627 L 35.2,295.64563724728066 L 50.400000000000006,299.10565851877936 L 65.6,299.8262490379229 L 80.80000000000001,297.1717922950206 L 96,293.4837242168921 L 111.2,292.01520578337863 L 126.4,294.0615837084996 L 141.60000000000002,297.8177945620295 L 156.79999999999998,299.9705701716083 L 172,298.6209961291838 L 187.2,294.95950100635923 L 202.4,292.2158063834088 L 217.6,292.8100628917472 L 232.8,296.2180903796011 L 248,299.43374530329214 L 263.20000000000005,299.620571583166 L 278.40000000000003,296.61377400643937 L 293.59999999999997,293.0655803367202 L 308.8,292.10577151913344 L 324,294.58097308426454 L 339.2,298.3078660210901 L 354.4,299.99904282484425 L 369.6,298.16275489668396 L 384.8,294.41875005825904 L 400,292.06952983358735 L 415.2,293.1872879582666 L 430.40000000000003,296.7860754099154 L 445.6,299.6914836189426 L 460.79999999999995,299.34071807725064 L 476,296.0431810922622 L 491.2,292.70755504778833 L 506.40000000000003,292.27611982081305 L 521.6,295.12943461360493 L 536.8000000000001,298.7506553358498 L 552,299.9455855401279 L 567.1999999999999,297.6602044676458 L 582.4,293.9103947896472 L 597.6,292.0037783471277 L 612.8000000000001,293.62213814488354 L 628,297.33795580910135 L 643.1999999999999,299.87359308111525 L 658.4,298.99242198725375 L 673.6,295.4717035103372 L 688.8,292.416983352744 L 704,292.5227606968374 L 719.2,295.69573175291873 L 734.4,299.13709091026084 L 749.6,299.81129351753896 L 764.8,297.1236407871923 L 780,293.4448500716415"
      stroke="url(#thread-23)"
      stroke-width="7.78"
      stroke-linecap="round"
      fill="none"
      opacity="0.6057142857142858"
      class="thread"
      style="animation-delay: 2.3000000000000003s"
    >
      <title>2026-01-03: 3890 stars, Go, Python, Jupyter Notebook, TypeScript, Rust, JavaScript</title>
    </path>

    <path
      d="M 20,305.8537083279983 L 35.2,308.3779174122597 L 50.400000000000006,310.74293573044486 L 65.6,311.9525427707619 L 80.80000000000001,311.4972137927445 L 96,309.56874776218757 L 111.2,306.9794755609123 L 126.4,304.82008052853104 L 141.60000000000002,304.000168145804 L 156.79999999999998,304.8651114389205 L 172,307.05056893808563 L 187.2,309.6359568272772 L 202.4,311.53222796197775 L 217.6,311.9406129686982 L 232.8,310.6890871670058 L 248,308.3048328053829 L 263.20000000000005,305.79217322547714 L 278.40000000000003,304.209520107826 L 293.59999999999997,304.2235369986405 L 308.8,305.8283195402107 L 324,308.34788257310487 L 339.2,310.72090646405786 L 354.4,311.94779850084353 L 369.6,311.5117529558268 L 384.8,309.5964460029641 L 400,307.00866550438224 L 415.2,304.83846644734246 L 430.40000000000003,304.0000053094796 L 445.6,304.84646843927004 L 460.79999999999995,307.0212987961662 L 476,309.608389052564 L 491.2,311.5179749730397 L 506.40000000000003,311.94567857524163 L 521.6,310.7113375753495 L 536.8000000000001,308.3348954398401 L 552,305.81738475365233 L 567.1999999999999,304.2192606367109 L 582.4,304.21370350941436 L 597.6,305.80305420952993 L 612.8000000000001,308.31782795729464 L 628,310.6987225178061 L 643.1999999999999,311.9428298039018 L 658.4,311.5260924804873 L 673.6,309.6240534879374 L 688.8,307.03791180388197 L 704,304.8570320950746 L 719.2,304.0000698674615 L 734.4,304.82800471363794 L 749.6,306.9920842920909 L 764.8,309.58072984310127 L 780,311.5035219919666"
      stroke="url(#thread-24)"
      stroke-width="5.26"
      stroke-linecap="round"
      fill="none"
      opacity="0.5885714285714285"
      class="thread"
      style="animation-delay: 2.4000000000000004s"
    >
      <title>2026-01-02: 2630 stars, TypeScript, Rust, Python, JavaScript, Jupyter Notebook, Shell</title>
    </path>

    <path
      d="M 20,319.7347124105952 L 35.2,323.0392850769857 L 50.400000000000006,323.90214364098034 L 65.6,321.6300810256805 L 80.80000000000001,318.0484368056174 L 96,316.03464793730257 L 111.2,317.206560905834 L 126.4,320.6226791587127 L 141.60000000000002,323.53854671296176 L 156.79999999999998,323.611601173944 L 172,320.7831517301348 L 187.2,317.32553043329153 L 202.4,316.01653616288604 L 217.6,317.9077944456605 L 232.8,321.4798979528021 L 248,323.86307458736235 L 263.20000000000005,323.14271750934154 L 278.40000000000003,319.89755033025045 L 293.59999999999997,316.73468961372436 L 308.8,316.19512819848535 L 324,318.71234128785477 L 339.2,322.26403925010624 L 354.4,323.9968434839534 L 369.6,322.51864616558123 L 384.8,319.01700790446466 L 400,316.3050901208338 L 415.2,316.5616051529853 L 430.40000000000003,319.58047283548035 L 445.6,322.9363820813689 L 460.79999999999995,323.93324788233923 L 476,321.77020384291666 L 491.2,318.1850057186092 L 506.40000000000003,316.0579456170222 L 521.6,317.09787036072476 L 536.8000000000001,320.4693206730085 L 552,323.46372609585154 L 567.1999999999999,323.67542813916657 L 582.4,320.93434869195875 L 597.6,317.44262811701134 L 612.8000000000001,316.0054601205792 L 628,317.77744299650874 L 643.1999999999999,321.334993412613 L 658.4,323.8200309977013 L 673.6,323.23611541702485 L 688.8,320.05235531680535 L 704,316.8265337737989 L 719.2,316.15022537013806 L 734.4,318.56676570118776 L 749.6,322.1347440549313 L 764.8,323.98770241815095 L 780,322.63700301846865"
      stroke="url(#thread-25)"
      stroke-width="7.396"
      stroke-linecap="round"
      fill="none"
      opacity="0.5714285714285714"
      class="thread"
      style="animation-delay: 2.5s"
    >
      <title>2026-01-01: 3698 stars, Rust, Python, JavaScript, TypeScript, Jupyter Notebook, Go, Shell</title>
    </path>

    <path
      d="M 20,333.68066814730656 L 35.2,335.9150168721477 L 50.400000000000006,334.99621449953617 L 65.6,331.66426364099397 L 80.80000000000001,328.6027145465887 L 96,328.27733612669385 L 111.2,330.9501878705233 L 126.4,334.46855736722074 L 141.60000000000002,335.99875296179476 L 156.79999999999998,334.3083564869894 L 172,330.75881175613324 L 187.2,328.2089189300075 L 202.4,328.7123594168034 L 217.6,331.86366269741904 L 232.8,335.12477191994907 L 248,335.8691926247942 L 263.20000000000005,333.49736904013946 L 278.40000000000003,329.919565765896 L 293.59999999999997,328.01734236848824 L 308.8,329.32274787580366 L 324,332.7844098563986 L 339.2,335.61430883817945 L 354.4,335.533246704897 L 369.6,332.6065108264065 L 384.8,329.19129166920885 L 400,328.0382036968508 L 415.2,330.07594293395664 L 430.40000000000003,333.6633160161978 L 445.6,335.9110558623228 L 460.79999999999995,335.0088348047757 L 476,331.68330087871266 L 491.2,328.61283614250516 L 506.40000000000003,328.2703901564833 L 521.6,330.93176861239897 L 536.8000000000001,334.4534996752499 L 552,335.99918428766233 L 567.1999999999999,334.3239294412263 L 582.4,330.77698389528496 L 597.6,328.2150544294069 L 612.8000000000001,328.7015167507058 L 628,331.84457453943 L 643.1999999999999,335.1128118554904 L 658.4,335.873993279115 L 673.6,333.51506397053095 L 688.8,329.93590349120103 L 704,328.01916449931605 L 719.2,329.30858686961045 L 734.4,332.76567097494376 L 749.6,335.6060843598755 L 764.8,335.54216061723554 L 780,332.62538387233934"
      stroke="url(#thread-26)"
      stroke-width="7.406"
      stroke-linecap="round"
      fill="none"
      opacity="0.5542857142857143"
      class="thread"
      style="animation-delay: 2.6s"
    >
      <title>2025-12-31: 3703 stars, Go, Python, TypeScript, Rust, Shell</title>
    </path>

    <path
      d="M 20,347.21513770620646 L 35.2,347.60645414317185 L 50.400000000000006,344.1559912332249 L 65.6,340.5393584860051 L 80.80000000000001,340.60917801787633 L 96,344.2910744937018 L 111.2,347.66290353655194 L 126.4,347.1328204524726 L 141.60000000000002,343.26549684512713 L 156.79999999999998,340.1806035526036 L 172,341.1643266369329 L 187.2,345.16875397212493 L 202.4,347.9281648192431 L 217.6,346.5030936586229 L 232.8,342.41159915270896 L 248,340.01215044232924 L 263.20000000000005,341.8607629746689 L 278.40000000000003,345.98820016297356 L 293.59999999999997,347.9977048834272 L 308.8,345.7486499642749 L 324,341.6368436968351 L 339.2,340.04239234882874 L 354.4,342.6637870185067 L 369.6,346.7085840750128 L 384.8,347.8680588882121 L 400,344.9070796045503 L 415.2,340.9798327482467 L 430.40000000000003,340.2698224659821 L 445.6,343.53338801238533 L 460.79999999999995,347.29401250529804 L 476,347.54568645872183 L 491.2,344.02031390968705 L 506.40000000000003,340.4733019454282 L 521.6,340.6831090646733 L 536.8000000000001,344.42623799682013 L 552,347.71531642172476 L 567.1999999999999,347.04664983460685 L 582.4,343.1325360721721 L 597.6,340.14248923803325 L 612.8000000000001,341.261660097366 L 628,345.29785062896696 L 643.1999999999999,347.9515043130711 L 658.4,346.3958135672915 L 673.6,342.28797971460466 L 688.8,340.003877403432 L 704,341.97664919900245 L 719.2,346.1047977192564 L 734.4,347.99080809321583 L 749.6,345.625605641127 L 764.8,341.52872494487406 L 780,340.06437279062357"
      stroke="url(#thread-27)"
      stroke-width="8"
      stroke-linecap="round"
      fill="none"
      opacity="0.5371428571428571"
      class="thread"
      style="animation-delay: 2.7s"
    >
      <title>2025-12-30: 4315 stars, Go, Shell, Rust, Python, Swift, TypeScript</title>
    </path>

    <path
      d="M 20,359.9624294227795 L 35.2,359.09340931052964 L 50.400000000000006,356.24089715287016 L 65.6,353.23392189688957 L 80.80000000000001,352.00055412822917 L 96,353.3316284609425 L 111.2,356.37366089541825 L 126.4,359.1761022058808 L 141.60000000000002,359.94202884001885 L 156.79999999999998,358.18032913633675 L 172,355.0206038032696 L 187.2,352.4888666769059 L 202.4,352.20846596212664 L 217.6,354.3591944155512 L 232.8,357.56200634649673 L 248,359.7632608202349 L 263.20000000000005,359.5515148945983 L 278.40000000000003,357.06253991989564 L 293.59999999999997,353.89226503707243 L 308.8,352.0734684466846 L 324,352.77236134392484 L 339.2,355.540814055959 L 354.4,358.60369649776385 L 369.6,359.9970904323749 L 384.8,358.8275525718265 L 400,355.8449898344522 L 415.2,352.96181951478184 L 430.40000000000003,352.0267285535192 L 445.6,353.6392966690952 L 460.79999999999995,356.76554623073235 L 476,359.40092804529115 L 491.2,359.85563700098066 L 506.40000000000003,357.8381140100602 L 521.6,354.6419935069708 L 536.8000000000001,352.3166258872355 L 552,352.3530353618108 L 567.1999999999999,354.72787619919205 L 582.4,357.91840199332637 L 597.6,359.87884967244736 L 612.8000000000001,359.35218145505553 L 628,356.67609666086616 L 643.1999999999999,353.56649912583407 L 658.4,352.01726077443004 L 673.6,353.0217522336815 L 688.8,355.9358942308181 L 704,358.89114080561416 L 719.2,359.99258976928417 L 734.4,358.5339927600521 L 749.6,355.45060123507966 L 764.8,352.7194838421686 L 780,352.0918312839134"
      stroke="url(#thread-28)"
      stroke-width="6.556"
      stroke-linecap="round"
      fill="none"
      opacity="0.52"
      class="thread"
      style="animation-delay: 2.8000000000000003s"
    >
      <title>2025-12-29: 3278 stars, Shell, Go, JavaScript, TypeScript, Rust, Python</title>
    </path>

    <path
      d="M 20,371.7395802220987 L 35.2,369.00579086104545 L 50.400000000000006,365.4243171187263 L 65.6,364.01363875158097 L 80.80000000000001,365.96268087827247 L 96,369.6287833462635 L 111.2,371.922140985714 L 126.4,370.9099032141498 L 141.60000000000002,367.44518789365844 L 156.79999999999998,364.44807033657696 L 172,364.44453267334035 L 187.2,367.4375564600434 L 202.4,370.9046098115702 L 217.6,371.9236469140924 L 232.8,369.6358194034077 L 248,365.96931704833344 L 263.20000000000005,364.0142820450715 L 278.40000000000003,365.41842536543436 L 293.59999999999997,368.9983296531604 L 308.8,371.7368378941388 L 324,371.325924877808 L 339.2,368.11190966461413 L 354.4,364.8035765584265 L 369.6,364.1892013437608 L 384.8,366.7865817993395 L 400,370.4066357514486 L 415.2,371.9983678954052 L 430.40000000000003,370.2202602975622 L 445.6,366.57090883632617 L 460.79999999999995,364.1260008690309 L 476,364.9461141735999 L 491.2,368.3400541229225 L 506.40000000000003,371.44739515794714 L 521.6,371.64925837981514 L 536.8000000000001,368.77551269372645 L 552,365.24816194578426 L 567.1999999999999,364.0400708259391 L 582.4,366.169423146653 L 597.6,369.84159263482064 L 612.8000000000001,371.96166081281234 L 628,370.74282611848787 L 643.1999999999999,367.2123270899365 L 658.4,364.3456818000371 L 673.6,364.55890985385076 L 688.8,367.67230183278355 L 704,371.06187907932764 L 719.2,371.87089293700495 L 734.4,369.41750343496125 L 749.6,365.7694366210176 L 764.8,364.0012971468606 L 780,365.6032797181617"
      stroke="url(#thread-29)"
      stroke-width="7.59"
      stroke-linecap="round"
      fill="none"
      opacity="0.5028571428571429"
      class="thread"
      style="animation-delay: 2.9000000000000004s"
    >
      <title>2025-12-28: 3795 stars, Shell, Rust, Python, JavaScript, TypeScript</title>
    </path>

    <path
      d="M 20,382.6011513606285 L 35.2,377.59461968390895 L 50.400000000000006,376.3600360150901 L 65.6,380.8333875155518 L 80.80000000000001,383.9998794071333 L 96,380.89404211207807 L 111.2,376.3862309415933 L 126.4,377.5452779014776 L 141.60000000000002,382.55364717747625 L 156.79999999999998,383.5575667955447 L 172,378.9827607137058 L 187.2,376.00311763949105 L 202.4,379.29110399446984 L 217.6,383.6907311398803 L 232.8,382.30281363896563 L 248,377.30378596975186 L 263.20000000000005,376.532771256425 L 278.40000000000003,381.1988204721474 L 293.59999999999997,383.9849638528144 L 308.8,380.5221675686694 L 324,376.24054487804835 L 339.2,377.85423494241076 L 354.4,382.8327626502231 L 369.6,383.3691514730176 L 384.8,378.62227423516003 L 400,376.0358495125898 L 415.2,379.6657264010283 L 430.40000000000003,383.8197876054772 L 445.6,381.9839269033156 L 460.79999999999995,377.0370117534554 L 476,376.73644609736226 L 491.2,381.5535558289749 L 506.40000000000003,383.9344887219131 L 521.6,380.1456334955051 L 536.8000000000001,376.1284060779806 L 552,378.1823395841031 L 567.1999999999999,383.08660014200916 L 582.4,383.1506717372994 L 597.6,378.2740818066118 L 612.8000000000001,376.10395523550204 L 628,380.04333167721387 L 643.1999999999999,383.9147584344403 L 658.4,381.6473367195897 L 673.6,376.7966775781123 L 688.8,376.9692430581527 L 704,381.89442812718596 L 719.2,383.848904426114 L 734.4,379.7677998709201 L 749.6,376.0508152049837 L 764.8,378.5266640052331 L 780,383.31289454979674"
      stroke="url(#thread-30)"
      stroke-width="8"
      stroke-linecap="round"
      fill="none"
      opacity="0.48571428571428577"
      class="thread"
      style="animation-delay: 3s"
    >
      <title>2025-12-27: 5384 stars, Shell, Python, Rust, C, Go</title>
    </path>

    <path
      d="M 20,392.82586992775117 L 35.2,389.2797881195936 L 50.400000000000006,388.03523931542895 L 65.6,390.1452187501126 L 80.80000000000001,393.82450250720996 L 96,395.96010036011074 L 111.2,394.7451130091275 L 126.4,391.2075241594502 L 141.60000000000002,388.3404379698892 L 156.79999999999998,388.56965573118106 L 172,391.70123952013887 L 187.2,395.08560034813615 L 202.4,395.85927812988984 L 217.6,393.36767497837945 L 232.8,389.7189012681531 L 248,388.00013310437987 L 263.20000000000005,389.6655960507484 L 278.40000000000003,393.30616533811684 L 293.59999999999997,395.8416065080761 L 308.8,395.126718455383 L 324,391.76635790435546 L 339.2,388.603678643569 L 354.4,388.3145791029124 L 369.6,391.1436623366744 L 384.8,394.69728082039336 L 400,395.9687679474016 L 415.2,393.88233634685497 L 430.40000000000003,390.2032864439961 L 445.6,388.0444106046542 L 460.79999999999995,389.23230330536904 L 476,392.7619052433745 L 491.2,395.6468698734656 L 506.40000000000003,395.44626920788767 L 521.6,392.3298286477303 L 536.8000000000001,388.9343247087672 L 552,388.132645505708 L 567.1999999999999,390.6030805342151 L 582.4,394.2554294708196 L 597.6,395.9994912616102 L 612.8000000000001,394.3596397609105 L 628,390.72333025398444 L 643.1999999999999,388.1671930589354 L 658.4,388.8539398966829 L 673.6,392.202523928983 L 688.8,395.37975531408307 L 704,395.6974232744323 L 719.2,392.8867534177413 L 734.4,389.325813969172 L 749.6,388.0274657007602 L 764.8,390.09022281720854 L 780,393.76881554121644"
      stroke="url(#thread-31)"
      stroke-width="7.606"
      stroke-linecap="round"
      fill="none"
      opacity="0.46857142857142864"
      class="thread"
      style="animation-delay: 3.1s"
    >
      <title>2025-12-26: 3803 stars, Python, Shell, Go, TypeScript</title>
    </path>

    <path
      d="M 20,402.84838673333974 L 35.2,400.31009360376913 L 50.400000000000006,400.4632817069779 L 65.6,403.196213003949 L 80.80000000000001,406.51544036990254 L 96,407.99986223653934 L 111.2,406.56671574579303 L 126.4,403.2613626140496 L 141.60000000000002,400.4947843043844 L 156.79999999999998,400.28497065173866 L 172,402.7849633454772 L 187.2,406.17122468714877 L 202.4,407.9737573728367 L 217.6,406.8777630380198 L 232.8,403.6826788137878 L 248,400.71905412422734 L 263.20000000000005,400.14860782516143 L 278.40000000000003,402.38743326514015 L 293.59999999999997,405.802492635582 L 308.8,407.90278285473926 L 324,407.1563160884419 L 339.2,404.1075780435456 L 354.4,400.98037072215 L 369.6,400.0557329671766 L 384.8,402.0081114711409 L 400,405.4134077506589 L 415.2,407.7877400905362 L 430.40000000000003,407.39922961718173 L 445.6,404.5312625565551 L 460.79999999999995,401.2757834435612 L 476,400.00739477361253 L 491.2,401.65128107294106 L 506.40000000000003,405.00836338171587 L 521.6,407.62992808481846 L 536.8000000000001,407.6037607677789 L 552,404.94894832201436 L 567.1999999999999,401.60195663772276 L 582.4,400.0041390548537 L 597.6,401.320971218559 L 612.8000000000001,404.5919330844946 L 628,407.43112877077704 L 643.1999999999999,407.7676000781351 L 658.4,405.3559190439387 L 673.6,401.9552073222275 L 688.8,400.0460025728263 L 704,401.0209115994728 L 719.2,404.1688189788689 L 734.4,407.19358688951667 L 749.6,407.8888975577899 L 764.8,405.74757941518465 L 780,402.3315467693699"
      stroke="url(#thread-32)"
      stroke-width="7.022"
      stroke-linecap="round"
      fill="none"
      opacity="0.45142857142857146"
      class="thread"
      style="animation-delay: 3.2s"
    >
      <title>2025-12-25: 3511 stars, Python, TypeScript</title>
    </path>

    <path
      d="M 20,413.1528586305235 L 35.2,412.0056010212605 L 50.400000000000006,412.871948741781 L 65.6,415.3151696587226 L 80.80000000000001,418.1036184891834 L 96,419.8316180695326 L 111.2,419.62807135028294 L 126.4,417.59558770043395 L 141.60000000000002,414.7587567846179 L 156.79999999999998,412.5476455245884 L 172,412.0768910513976 L 187.2,413.58380408970817 L 202.4,416.3087389101844 L 217.6,418.87803621964383 L 232.8,419.9964947165484 L 248,419.10029140712703 L 263.20000000000005,416.6412088424033 L 278.40000000000003,413.8588882763081 L 293.59999999999997,412.1559175702133 L 308.8,412.39077653760506 L 324,414.44507107939495 L 339.2,417.2832165030396 L 354.4,419.47448323390984 L 369.6,419.9142379112064 L 384.8,418.38079703092416 L 400,415.64717919883566 L 415.2,413.0914208768923 L 430.40000000000003,412.00189826539247 L 445.6,412.9278475696107 L 460.79999999999995,415.4024910680408 L 476,418.17834312785646 L 491.2,419.85607670834753 L 506.40000000000003,419.5899342130358 L 521.6,417.51407999302745 L 536.8000000000001,414.67496713012787 L 552,412.5038128920712 L 567.1999999999999,412.0951117869932 L 582.4,413.6548929892085 L 597.6,416.39685954671165 L 612.8000000000001,418.9387663448649 L 628,419.99921983639933 L 643.1999999999999,419.0436377690395 L 658.4,416.55373595388056 L 673.6,413.7846918512432 L 688.8,412.1324005615303 L 704,412.429794038968 L 719.2,414.5269540870019 L 734.4,417.3666872022773 L 749.6,419.5174634433646 L 764.8,419.89506099735115 L 780,418.3091302143228"
      stroke="url(#thread-33)"
      stroke-width="5.776"
      stroke-linecap="round"
      fill="none"
      opacity="0.43428571428571433"
      class="thread"
      style="animation-delay: 3.3000000000000003s"
    >
      <title>2025-12-24: 2888 stars, Python, TypeScript</title>
    </path>

    <path
      d="M 20,424.1544100324818 L 35.2,424.3931361310218 L 50.400000000000006,426.450108315903 L 65.6,429.2883920753905 L 80.80000000000001,431.47718809875914 L 96,431.9131085266782 L 111.2,430.3764027279033 L 126.4,427.64173517716347 L 141.60000000000002,425.08767150715187 L 156.79999999999998,424.0017336319076 L 172,424.93135066530834 L 187.2,427.407895957118 L 202.4,430.1829251667535 L 217.6,431.8575260582142 L 232.8,431.5875202461527 L 248,429.509019607508 L 263.20000000000005,426.6698113028042 L 278.40000000000003,424.5011607126771 L 293.59999999999997,424.09630023828674 L 308.8,425.6593229643225 L 324,428.4022978632454 L 339.2,430.94247150823674 L 354.4,431.9993240470347 L 369.6,431.04008849360554 L 384.8,428.54832240771833 L 400,425.7801430420115 L 415.2,424.1310095767654 L 430.40000000000003,424.4322620841206 L 445.6,426.53203700271297 L 460.79999999999995,429.3718226540827 L 476,431.5200626129762 L 491.2,431.8938136246245 L 506.40000000000003,430.3046651088446 L 521.6,427.55371829218484 L 536.8000000000001,425.02774530268266 L 552,424.0001073397635 L 567.1999999999999,424.98884411108673 L 582.4,427.49552628020257 L 597.6,430.25651728935327 L 612.8000000000001,431.8799816606356 L 628,431.5475192972822 L 643.1999999999999,429.426726874128 L 658.4,426.5867111452448 L 673.6,424.4591445196199 L 688.8,424.11654867564096 L 704,425.7316286488014 L 719.2,428.49021097788903 L 734.4,431.00167441798993 L 749.6,431.99997213816397 L 764.8,430.9818550586992 L 780,428.46056334124825"
      stroke="url(#thread-34)"
      stroke-width="5.776"
      stroke-linecap="round"
      fill="none"
      opacity="0.41714285714285715"
      class="thread"
      style="animation-delay: 3.4000000000000004s"
    >
      <title>2025-12-23: 2888 stars, Python, TypeScript</title>
    </path>
  </g>

  <!-- Date markers -->
  <g id="dates">
    <text x="785" y="24" class="date-label">01-26</text>
<text x="785" y="108" class="date-label">01-19</text>
<text x="785" y="192" class="date-label">01-12</text>
<text x="785" y="276" class="date-label">01-05</text>
<text x="785" y="360" class="date-label">12-29</text>
  </g>

</svg>