<?xml version="1.0" encoding="UTF-8"?>
<svg xmlns="http://www.w3.org/2000/svg" viewBox="0 0 800 340" width="800" height="340">
  <title>The Data Tapestry - GitHub Trends Woven in Time</title>
  <desc>A living data art piece that weaves daily GitHub trending repositories into an evolving tapestry. Each thread represents one day of open source activity.</desc>

  <style>
    .thread {
      animation: breathe 8s ease-in-out infinite alternate;
    }

    @keyframes breathe {
      0% {
        opacity: 0.85;
      }
      100% {
        opacity: 1;
      }
    }

    .date-label {
      font-family: ui-monospace, monospace;
      font-size: 8px;
      fill: #666;
    }

    .title {
      font-family: system-ui, sans-serif;
      font-size: 14px;
      fill: #333;
      font-weight: 600;
    }

    .subtitle {
      font-family: system-ui, sans-serif;
      font-size: 10px;
      fill: #888;
    }

    .empty-state {
      font-family: system-ui, sans-serif;
      font-size: 12px;
      fill: #999;
      text-anchor: middle;
    }
  </style>

  <defs>
    
    <linearGradient id="thread-0" x1="0%" y1="0%" x2="100%" y2="0%">
      <stop offset="0%" stop-color="#3178c6" />
      <stop offset="50%" stop-color="#f1e05a" />
      <stop offset="100%" stop-color="#3572A5" />
    </linearGradient>

    <linearGradient id="thread-1" x1="0%" y1="0%" x2="100%" y2="0%">
      <stop offset="0%" stop-color="#3572A5" />
      <stop offset="50%" stop-color="#3178c6" />
      <stop offset="100%" stop-color="#89e051" />
    </linearGradient>

    <linearGradient id="thread-2" x1="0%" y1="0%" x2="100%" y2="0%">
      <stop offset="0%" stop-color="#3178c6" />
      <stop offset="50%" stop-color="#89e051" />
      <stop offset="100%" stop-color="#3572A5" />
    </linearGradient>

    <linearGradient id="thread-3" x1="0%" y1="0%" x2="100%" y2="0%">
      <stop offset="0%" stop-color="#3572A5" />
      <stop offset="50%" stop-color="#3178c6" />
      <stop offset="100%" stop-color="#89e051" />
    </linearGradient>

    <linearGradient id="thread-4" x1="0%" y1="0%" x2="100%" y2="0%">
      <stop offset="0%" stop-color="#3178c6" />
      <stop offset="50%" stop-color="#3572A5" />
      <stop offset="100%" stop-color="#8b8b8b" />
    </linearGradient>

    <linearGradient id="thread-5" x1="0%" y1="0%" x2="100%" y2="0%">
      <stop offset="0%" stop-color="#3178c6" />
      <stop offset="50%" stop-color="#89e051" />
      <stop offset="100%" stop-color="#3572A5" />
    </linearGradient>

    <linearGradient id="thread-6" x1="0%" y1="0%" x2="100%" y2="0%">
      <stop offset="0%" stop-color="#3572A5" />
      <stop offset="50%" stop-color="#3178c6" />
      <stop offset="100%" stop-color="#89e051" />
    </linearGradient>

    <linearGradient id="thread-7" x1="0%" y1="0%" x2="100%" y2="0%">
      <stop offset="0%" stop-color="#3572A5" />
      <stop offset="50%" stop-color="#3178c6" />
      <stop offset="100%" stop-color="#8b8b8b" />
    </linearGradient>

    <linearGradient id="thread-8" x1="0%" y1="0%" x2="100%" y2="0%">
      <stop offset="0%" stop-color="#3572A5" />
      <stop offset="50%" stop-color="#3178c6" />
      <stop offset="100%" stop-color="#8b8b8b" />
    </linearGradient>

    <linearGradient id="thread-9" x1="0%" y1="0%" x2="100%" y2="0%">
      <stop offset="0%" stop-color="#3178c6" />
      <stop offset="50%" stop-color="#3572A5" />
      <stop offset="100%" stop-color="#dea584" />
    </linearGradient>

    <linearGradient id="thread-10" x1="0%" y1="0%" x2="100%" y2="0%">
      <stop offset="0%" stop-color="#3572A5" />
      <stop offset="50%" stop-color="#3178c6" />
      <stop offset="100%" stop-color="#00ADD8" />
    </linearGradient>

    <linearGradient id="thread-11" x1="0%" y1="0%" x2="100%" y2="0%">
      <stop offset="0%" stop-color="#3572A5" />
      <stop offset="50%" stop-color="#00ADD8" />
      <stop offset="100%" stop-color="#3178c6" />
    </linearGradient>

    <linearGradient id="thread-12" x1="0%" y1="0%" x2="100%" y2="0%">
      <stop offset="0%" stop-color="#3572A5" />
      <stop offset="50%" stop-color="#3178c6" />
      <stop offset="100%" stop-color="#00ADD8" />
    </linearGradient>

    <linearGradient id="thread-13" x1="0%" y1="0%" x2="100%" y2="0%">
      <stop offset="0%" stop-color="#3572A5" />
      <stop offset="50%" stop-color="#00ADD8" />
      <stop offset="100%" stop-color="#DA5B0B" />
    </linearGradient>

    <linearGradient id="thread-14" x1="0%" y1="0%" x2="100%" y2="0%">
      <stop offset="0%" stop-color="#3572A5" />
      <stop offset="50%" stop-color="#3178c6" />
      <stop offset="100%" stop-color="#dea584" />
    </linearGradient>

    <linearGradient id="thread-15" x1="0%" y1="0%" x2="100%" y2="0%">
      <stop offset="0%" stop-color="#dea584" />
      <stop offset="50%" stop-color="#3572A5" />
      <stop offset="100%" stop-color="#3178c6" />
    </linearGradient>

    <linearGradient id="thread-16" x1="0%" y1="0%" x2="100%" y2="0%">
      <stop offset="0%" stop-color="#3572A5" />
      <stop offset="50%" stop-color="#3178c6" />
      <stop offset="100%" stop-color="#dea584" />
    </linearGradient>

    <linearGradient id="thread-17" x1="0%" y1="0%" x2="100%" y2="0%">
      <stop offset="0%" stop-color="#3572A5" />
      <stop offset="50%" stop-color="#dea584" />
      <stop offset="100%" stop-color="#3178c6" />
    </linearGradient>

    <linearGradient id="thread-18" x1="0%" y1="0%" x2="100%" y2="0%">
      <stop offset="0%" stop-color="#3572A5" />
      <stop offset="50%" stop-color="#3178c6" />
      <stop offset="100%" stop-color="#89e051" />
    </linearGradient>

    <linearGradient id="thread-19" x1="0%" y1="0%" x2="100%" y2="0%">
      <stop offset="0%" stop-color="#3572A5" />
      <stop offset="50%" stop-color="#f1e05a" />
      <stop offset="100%" stop-color="#89e051" />
    </linearGradient>

    <linearGradient id="thread-20" x1="0%" y1="0%" x2="100%" y2="0%">
      <stop offset="0%" stop-color="#3572A5" />
      <stop offset="50%" stop-color="#89e051" />
      <stop offset="100%" stop-color="#dea584" />
    </linearGradient>

    <linearGradient id="thread-21" x1="0%" y1="0%" x2="100%" y2="0%">
      <stop offset="0%" stop-color="#3572A5" />
      <stop offset="50%" stop-color="#89e051" />
      <stop offset="100%" stop-color="#00ADD8" />
    </linearGradient>

    <linearGradient id="thread-22" x1="0%" y1="0%" x2="100%" y2="0%">
      <stop offset="0%" stop-color="#3572A5" />
      <stop offset="50%" stop-color="#3178c6" />
      <stop offset="100%" stop-color="#3572A5" />
    </linearGradient>

    <linearGradient id="thread-23" x1="0%" y1="0%" x2="100%" y2="0%">
      <stop offset="0%" stop-color="#3572A5" />
      <stop offset="50%" stop-color="#3178c6" />
      <stop offset="100%" stop-color="#3572A5" />
    </linearGradient>

    <linearGradient id="thread-24" x1="0%" y1="0%" x2="100%" y2="0%">
      <stop offset="0%" stop-color="#3572A5" />
      <stop offset="50%" stop-color="#3178c6" />
      <stop offset="100%" stop-color="#3572A5" />
    </linearGradient>

    <!-- Background pattern -->
    <pattern id="loom" patternUnits="userSpaceOnUse" width="20" height="20">
      <rect width="20" height="20" fill="#fafafa"/>
      <circle cx="10" cy="10" r="0.5" fill="#eee"/>
    </pattern>
  </defs>

  <!-- Background -->
  <rect width="100%" height="100%" fill="url(#loom)"/>

  <!-- Threads -->
  <g id="tapestry">
    
    <path
      d="M 20,20 L 35.2,23.966019593114634 L 50.400000000000006,21.031715207960104 L 65.6,16.30236946683457 L 80.80000000000001,18.00638796704503 L 96,23.179014877120068 L 111.2,22.82059685187778 L 126.4,17.5547315402347 L 141.60000000000002,16.54329417330403 L 156.79999999999998,21.546045476339287 L 172,23.85889209751177 L 187.2,19.45780172345565 L 202.4,16.00006114401741 L 217.6,19.50165935540734 L 232.8,23.87030116516949 L 248,21.505155784493482 L 263.20000000000005,16.521248114089488 L 278.40000000000003,17.589886198747177 L 293.59999999999997,22.85178799849453 L 308.8,23.15197424315103 L 324,17.96816250487744 L 339.2,16.319466178509813 L 354.4,21.074388186592824 L 369.6,23.960023774914742 L 384.8,19.955767276974772 L 400,16.028469581720746 L 415.2,19.01108393613362 L 430.40000000000003,23.71427507232527 L 445.6,21.955142777752997 L 460.79999999999995,16.794333241421626 L 476,17.210939217348745 L 491.2,22.480124093488683 L 506.40000000000003,23.434237056949733 L 521.6,18.41325389323292 L 536.8000000000001,16.152988862870437 L 552,20.585989604641085 L 567.1999999999999,23.999449715059022 L 582.4,20.454422072008647 L 597.6,16.118763055079086 L 612.8000000000001,18.53591796848853 L 628,23.50037253864469 L 643.1999999999999,22.374664416912545 L 658.4,17.117369591773375 L 673.6,16.875451836608022 L 688.8,22.06981448977482 L 704,23.66298702800682 L 719.2,18.883070218590227 L 734.4,16.0464563031092 L 749.6,20.088460036959027 L 764.8,23.976555576505774 L 780,20.945995988094893"
      stroke="url(#thread-0)"
      stroke-width="8"
      stroke-linecap="round"
      fill="none"
      opacity="1"
      class="thread"
      style="animation-delay: 0s"
    >
      <title>2026-01-16: 5731 stars, JavaScript, TypeScript, Shell, Python, C</title>
    </path>

    <path
      d="M 20,33.917702154416816 L 35.2,35.96672680479492 L 50.400000000000006,34.75030283438978 L 65.6,31.269802450545157 L 80.80000000000001,28.39040788973941 L 96,28.482465147544577 L 111.2,31.470191781577782 L 126.4,34.89406176534589 L 141.60000000000002,35.935511566134224 L 156.79999999999998,33.73720943841184 L 172,30.10881937072434 L 187.2,28.037267845599256 L 202.4,29.2278765056625 L 217.6,32.70052456160323 L 232.8,35.596493890703755 L 248,35.5317939846914 L 263.20000000000005,32.559686444187975 L 278.40000000000003,29.12683950387625 L 293.59999999999997,28.059206615617526 L 308.8,30.235673700734388 L 324,33.864551593064974 L 339.2,35.95851222802522 L 354.4,34.793786562801294 L 369.6,31.329188250125423 L 384.8,28.416808784682825 L 400,28.454147660799926 L 415.2,31.410467147466175 L 430.40000000000003,34.852095891600314 L 445.6,35.945851173838875 L 460.79999999999995,33.79134286054752 L 476,30.162183440390425 L 491.2,28.045932734434523 L 506.40000000000003,29.184709191735088 L 521.6,32.641060803402176 L 536.8000000000001,35.569684840340045 L 552,35.559709116782955 L 567.1999999999999,32.61934574673167 L 582.4,29.16913085073002 L 597.6,28.049315353025076 L 612.8000000000001,30.18174241359753 L 628,33.81097704876009 L 643.1999999999999,35.949397519711624 L 658.4,34.83663500824102 L 673.6,31.388726586512792 L 688.8,28.444024466408475 L 704,28.426636470299083 L 719.2,31.35087656804132 L 734.4,34.80948147584439 L 749.6,35.95529352901418 L 764.8,33.84506894676459 L 780,30.215965413693503"
      stroke="url(#thread-1)"
      stroke-width="7.494"
      stroke-linecap="round"
      fill="none"
      opacity="0.976"
      class="thread"
      style="animation-delay: 0.1s"
    >
      <title>2026-01-15: 3747 stars, TypeScript, Shell, Python, JavaScript, C</title>
    </path>

    <path
      d="M 20,47.36588393923159 L 35.2,47.6270294598684 L 50.400000000000006,44.51641610410989 L 65.6,40.92573204525617 L 80.80000000000001,40.19294875051738 L 96,42.9992761758224 L 111.2,46.735896413558436 L 126.4,47.92917281596523 L 141.60000000000002,45.46981185611506 L 156.79999999999998,41.64408449992829 L 172,40.008463148475315 L 187.2,42.083454009716014 L 202.4,45.94010422229664 L 217.6,47.9931948815181 L 232.8,46.33413199031772 L 248,42.50521347921906 L 263.20000000000005,40.06587831050165 L 278.40000000000003,41.28378107551385 L 293.59999999999997,45.02673508982068 L 308.8,47.81521570072288 L 324,47.05699575498225 L 339.2,43.45693162627813 L 354.4,40.36171468170818 L 369.6,40.64872028386505 L 384.8,44.051142304661006 L 400,47.40602141972432 L 415.2,47.59459513743229 L 430.40000000000003,44.4415615713316 L 445.6,40.878043567735766 L 460.79999999999995,40.2167584874392 L 476,43.07245012119089 L 491.2,46.79041060932555 L 506.40000000000003,47.914349779220764 L 521.6,45.399431377255326 L 536.8000000000001,41.58357367485805 L 552,40.014074046224096 L 567.1999999999999,42.14997062790547 L 582.4,46.00569138691186 L 597.6,47.996881457111805 L 612.8000000000001,46.272490862740696 L 628,42.43554746923924 L 643.1999999999999,40.05295032951294 L 658.4,41.339609232311545 L 673.6,45.09942041713195 L 688.8,47.83718846958434 L 704,47.007829641519955 L 719.2,43.38233242949881 L 734.4,40.33103130177818 L 749.6,40.690476602319215 L 764.8,44.12652081561712 L 780,47.4449487570248"
      stroke="url(#thread-2)"
      stroke-width="8"
      stroke-linecap="round"
      fill="none"
      opacity="0.9520000000000001"
      class="thread"
      style="animation-delay: 0.2s"
    >
      <title>2026-01-14: 4003 stars, TypeScript, Shell, Python, C, HTML, Jupyter Notebook</title>
    </path>

    <path
      d="M 20,59.98997994641622 L 35.2,57.45630409767366 L 50.400000000000006,52.875884749414716 L 65.6,52.68621221776489 L 80.80000000000001,57.15385927541036 L 96,59.99982994343678 L 111.2,57.22429206185617 L 126.4,52.72808895443675 L 141.60000000000002,52.830350325830544 L 156.79999999999998,57.38735427242812 L 172,59.99451934735423 L 187.2,56.98763958030682 L 202.4,52.59269471470809 L 217.6,52.986502386906466 L 232.8,57.61559076748165 L 248,59.974068286970905 L 263.20000000000005,56.7472436391551 L 278.40000000000003,52.47021521629066 L 293.59999999999997,53.15407653636499 L 308.8,57.83770367363431 L 324,59.93855427813357 L 339.2,56.50401541340074 L 354.4,52.36111469438078 L 369.6,53.33243761632929 L 384.8,58.05285111424618 L 400,59.88811192992439 L 415.2,56.25887681327833 L 430.40000000000003,52.26580667371408 L 445.6,53.52090958311827 L 460.79999999999995,58.260217613946935 L 476,59.82293243445083 L 491.2,56.0127569899326 L 506.40000000000003,52.18465240117887 L 521.6,53.71877806966125 L 536.8000000000001,58.45901718953992 L 552,59.743262842168384 L 567.1999999999999,55.766588813647786 L 582.4,52.11795947657862 L 597.6,53.92529309317023 L 612.8000000000001,58.64849632912148 L 628,59.64940512548299 L 643.1999999999999,55.52130533798081 L 658.4,52.065980686733525 L 673.6,54.139671897806814 L 688.8,58.82793684812451 L 704,59.54171503418211 L 719.2,55.27783626319933 L 734.4,52.02891304734022 L 749.6,54.361101921568824 L 764.8,58.99665861145992 L 780,59.42060074703295"
      stroke="url(#thread-3)"
      stroke-width="8"
      stroke-linecap="round"
      fill="none"
      opacity="0.928"
      class="thread"
      style="animation-delay: 0.30000000000000004s"
    >
      <title>2026-01-13: 5049 stars, TypeScript, Shell, C, Rust, Python</title>
    </path>

    <path
      d="M 20,71.63718970730272 L 35.2,68.87478308893378 L 50.400000000000006,65.42118010459382 L 65.6,64.00519188755699 L 80.80000000000001,65.74563968877658 L 96,69.2673355209865 L 111.2,71.78766573736182 L 126.4,71.3152302884013 L 141.60000000000002,68.22331675774511 L 156.79999999999998,64.95495293516345 L 172,64.09258608720445 L 187.2,66.31760207852821 L 202.4,69.87193883993666 L 217.6,71.94719199781858 L 232.8,70.90363227603285 L 248,67.56581229396218 L 263.20000000000005,64.57105903135498 L 278.40000000000003,64.28563059068203 L 293.59999999999997,66.93505385218786 L 308.8,70.42592788775903 L 324,71.99999241782118 L 339.2,70.41352463068974 L 354.4,66.92004758032756 L 369.6,64.2798782782999 L 384.8,64.57910577936208 L 400,67.5813000885254 L 415.2,70.91432367514581 L 430.40000000000003,71.94463935736525 L 445.6,69.85815908940195 L 460.79999999999995,66.30348307527252 L 476,64.08928374389333 L 491.2,64.96507654743226 L 506.40000000000003,68.23886730949579 L 521.6,71.32392075100368 L 536.8000000000001,71.78262947582334 L 552,69.2525518596877 L 567.1999999999999,65.7327897096848 L 582.4,64.00442880346681 L 597.6,65.43310685463005 L 612.8000000000001,68.88997593550117 L 628,71.64364425700481 L 643.1999999999999,71.51834326463826 L 658.4,68.613077605007 L 673.6,65.22339813125461 L 688.8,64.02760780065468 L 704,65.97054190029688 L 719.2,69.51702101715587 L 734.4,71.86484937427298 L 749.6,71.15892660574951 L 764.8,67.9570266997113 L 780,64.78908148412044"
      stroke="url(#thread-4)"
      stroke-width="7.33"
      stroke-linecap="round"
      fill="none"
      opacity="0.904"
      class="thread"
      style="animation-delay: 0.4s"
    >
      <title>2026-01-12: 3665 stars, TypeScript, Unknown, Python, Shell, C</title>
    </path>

    <path
      d="M 20,82.39388857641583 L 35.2,79.05870898346139 L 50.400000000000006,76.4053794964981 L 65.6,76.3559125007798 L 80.80000000000001,78.94614077881577 L 96,82.29976104619274 L 111.2,83.98748597881219 L 126.4,82.78676547901969 L 141.60000000000002,79.56737455333759 L 156.79999999999998,76.66136780053964 L 172,76.17379135151602 L 187.2,78.45783465310548 L 202.4,81.8589879523051 L 217.6,83.91353206258815 L 232.8,83.13320129911736 L 248,80.08324976974272 L 263.20000000000005,76.97299397386018 L 278.40000000000003,76.055433469333 L 293.59999999999997,77.995228511356 L 308.8,81.38723506714295 L 324,83.7743596459996 L 339.2,83.42742272904253 L 354.4,80.59773763961498 L 369.6,77.33506480700771 L 384.8,76.00281127286915 L 400,77.56603162446167 L 415.2,80.89236409088426 L 430.40000000000003,83.57228801918056 L 445.6,83.6645266071172 L 460.79999999999995,81.10226428984122 L 476,77.74154643686676 L 491.2,76.01680170415136 L 506.40000000000003,77.17739650245102 L 521.6,80.38262198367383 L 536.8000000000001,83.31068467938329 L 552,83.8405616282003 L 567.1999999999999,81.58842184973187 L 582.4,78.18566490019869 L 597.6,76.09717161447072 L 612.8000000000001,76.83579969884165 L 628,79.86650353111023 L 643.1999999999999,82.9939092120766 L 658.4,83.95259419167148 L 673.6,82.04810856708724 L 688.8,78.66001902085384 L 704,76.24258164977529 L 719.2,76.54693387972259 L 734.4,79.35260977975403 L 749.6,82.62724063902391 L 764.8,83.99875728950197 L 780,82.47366382283887"
      stroke="url(#thread-5)"
      stroke-width="6.996"
      stroke-linecap="round"
      fill="none"
      opacity="0.88"
      class="thread"
      style="animation-delay: 0.5s"
    >
      <title>2026-01-11: 3498 stars, TypeScript, Unknown, Shell, Python</title>
    </path>

    <path
      d="M 20,92.56448003223947 L 35.2,89.05088411855151 L 50.400000000000006,88.10430095991026 L 65.6,90.5486693703955 L 80.80000000000001,94.2563263011524 L 96,95.9999985573699 L 111.2,94.26193332692964 L 126.4,90.55500287223045 L 141.60000000000002,88.10584803812452 L 156.79999999999998,89.04629814260606 L 172,92.55775279466452 L 187.2,95.58372006826042 L 202.4,95.49029309098579 L 217.6,92.3587939444306 L 232.8,88.9149881036622 L 248,88.15648362293408 L 263.20000000000005,90.74350911144987 L 278.40000000000003,94.42422785149161 L 293.59999999999997,95.99481458381382 L 308.8,94.08817613987068 L 324,90.36391675415585 L 339.2,88.06376097414179 L 354.4,89.18984417302055 L 369.6,92.76198447562423 L 384.8,95.670867060761 L 400,95.3844996300096 L 415.2,92.15214632792028 L 430.40000000000003,88.7873595847235 L 445.6,88.21896649132213 L 460.79999999999995,90.94171611126436 L 476,94.58563273516663 L 491.2,95.97892494217447 L 506.40000000000003,93.9088228681415 L 521.6,90.17721516102453 L 536.8000000000001,88.03222260212536 L 552,89.34092111504923 L 567.1999999999999,92.96417412116291 L 582.4,95.74817652926498 L 597.6,95.26963607856827 L 612.8000000000001,91.94509097581859 L 628,88.66834059226849 L 643.1999999999999,88.29158211779101 L 658.4,91.14275919666252 L 673.6,94.74010840466481 L 688.8,95.95237221496123 L 704,93.7243541589803 L 719.2,89.99539843277594 L 734.4,88.011317441478 L 749.6,89.49912409893848 L 764.8,93.16377988504723 L 780,95.81544129281511"
      stroke="url(#thread-6)"
      stroke-width="7.724"
      stroke-linecap="round"
      fill="none"
      opacity="0.856"
      class="thread"
      style="animation-delay: 0.6000000000000001s"
    >
      <title>2026-01-10: 3862 stars, TypeScript, Unknown, Shell, Python</title>
    </path>

    <path
      d="M 20,102.59686708924153 L 35.2,100.1048311576655 L 50.400000000000006,101.08278905881693 L 65.6,104.65953134760568 L 80.80000000000001,107.6487330697805 L 96,107.38747717076046 L 111.2,104.10850230580235 L 126.4,100.73286864447094 L 141.60000000000002,100.2677444150238 L 156.79999999999998,103.12748346782351 L 172,106.76449999129395 L 187.2,107.93877399739104 L 202.4,105.60420871238755 L 217.6,101.84054123343238 L 232.8,100.00061798876511 L 248,101.72352641467279 L 263.20000000000005,105.47442120553559 L 278.40000000000003,107.9118344254725 L 293.59999999999997,106.86440735209236 L 308.8,103.26523573348152 L 324,100.32062559257021 L 339.2,100.65376977216857 L 354.4,103.96788826211342 L 369.6,107.31061335088232 L 384.8,107.7040932656675 L 400,104.79779817506162 L 415.2,101.18078812978231 L 430.40000000000003,100.07526043579036 L 445.6,102.46606952054164 L 460.79999999999995,106.22337374812298 L 476,107.99999536446973 L 491.2,106.2132389072412 L 506.40000000000003,102.45482841668543 L 521.6,100.0729271563159 L 536.8000000000001,101.18944126632817 L 552,104.80972911943557 L 567.1999999999999,107.70867338915745 L 582.4,107.3037624708552 L 597.6,103.95570945456033 L 612.8000000000001,100.64711247361195 L 628,100.32542042780943 L 643.1999999999999,103.27721124487698 L 658.4,106.87289520859913 L 673.6,107.90927325788586 L 688.8,105.46309261860488 L 704,101.71352242966185 L 719.2,100.000850611211 L 734.4,101.85080323266415 L 749.6,105.61535823204748 L 764.8,107.94087853749676 L 780,106.75568473165582"
      stroke="url(#thread-7)"
      stroke-width="7.822"
      stroke-linecap="round"
      fill="none"
      opacity="0.8320000000000001"
      class="thread"
      style="animation-delay: 0.7000000000000001s"
    >
      <title>2026-01-09: 3911 stars, TypeScript, Unknown, Python, Shell</title>
    </path>

    <path
      d="M 20,112.9727900187683 L 35.2,112.11005010729023 L 50.400000000000006,114.48599471195777 L 65.6,118.12246596066626 L 80.80000000000001,119.99181993731462 L 96,118.53767469705758 L 111.2,114.97071875870448 L 126.4,112.26071915934955 L 141.60000000000002,112.66396042277044 L 156.79999999999998,115.8447129709179 L 172,119.1547539959141 L 187.2,119.83821802104619 L 202.4,117.32606831921225 L 217.6,113.70986405337669 L 232.8,112.00037530696149 L 248,113.62088384097756 L 263.20000000000005,117.22219081169798 L 278.40000000000003,119.80592928750283 L 293.59999999999997,119.22093690739582 L 308.8,115.95426512853494 L 324,112.72567117179184 L 339.2,112.2232095224497 L 354.4,114.86521841327882 L 369.6,118.45202085042298 L 384.8,119.9973260496685 L 400,118.21454776709096 L 415.2,114.58798697796138 L 430.40000000000003,112.13703637333388 L 445.6,112.90230212860455 L 460.79999999999995,116.24664124175769 L 476,119.3856324217098 L 491.2,119.70582243352817 L 506.40000000000003,116.94062829745663 L 521.6,113.39228826325143 L 536.8000000000001,112.01507018622277 L 552,113.95561476469628 L 567.1999999999999,117.59826836493988 L 582.4,119.9102397844497 L 597.6,118.96663378172907 L 612.8000000000001,115.55307542513187 L 628,112.51161638611794 L 643.1999999999999,112.37450683958183 L 658.4,115.25590110052242 L 673.6,118.75681531690911 L 688.8,119.96246729933242 L 704,117.86905840898406 L 719.2,114.21951365675916 L 734.4,112.052361662824 L 749.6,113.17192428233808 L 764.8,116.64607893771476 L 780,119.58232284629595"
      stroke="url(#thread-8)"
      stroke-width="7.54"
      stroke-linecap="round"
      fill="none"
      opacity="0.808"
      class="thread"
      style="animation-delay: 0.8s"
    >
      <title>2026-01-08: 3770 stars, TypeScript, Unknown, Python, Rust, JavaScript</title>
    </path>

    <path
      d="M 20,124.08987952933961 L 35.2,124.89813197423784 L 50.400000000000006,128.03310557245416 L 65.6,131.14324657460836 L 80.80000000000001,131.89562824126054 L 96,129.72588667148744 L 111.2,126.26155197478953 L 126.4,124.10123271672633 L 141.60000000000002,124.86539130056887 L 156.79999999999998,127.98082992204269 L 172,131.11064808046766 L 187.2,131.90715913838372 L 202.4,129.77289759696467 L 217.6,126.3087798826638 L 232.8,124.11325180184883 L 248,124.83318600864594 L 263.20000000000005,127.92855754582293 L 278.40000000000003,131.07751829698265 L 293.59999999999997,131.91802270446746 L 308.8,129.81960571686005 L 324,126.35629664585183 L 339.2,124.12593473188353 L 354.4,124.80152159903615 L 369.6,127.87629737175963 L 384.8,131.04386288262074 L 400,131.92821708404733 L 415.2,129.86600305356706 L 430.40000000000003,126.40409414863325 L 445.6,124.13927934062407 L 460.79999999999995,124.77040347992549 L 476,127.82405832573352 L 491.2,131.0096875856256 L 506.40000000000003,131.93774053595394 L 521.6,129.91208168256006 L 536.8000000000001,126.45216422733823 L 552,124.15328334885137 L 567.1999999999999,124.73983696619521 L 582.4,127.77184933001665 L 597.6,130.97499824303523 L 612.8000000000001,131.94659143361028 L 628,129.95783373374772 L 643.1999999999999,126.50049867174182 L 658.4,124.16794436472294 L 673.6,124.70982727851397 L 688.8,127.71967930174857 L 704,130.93980077968516 L 719.2,131.9547682653097 L 734.4,130.0032513928171 L 749.6,126.54908922646608 L 764.8,124.18325988418128 L 780,124.68037954244629"
      stroke="url(#thread-9)"
      stroke-width="7.128"
      stroke-linecap="round"
      fill="none"
      opacity="0.784"
      class="thread"
      style="animation-delay: 0.9s"
    >
      <title>2026-01-07: 3564 stars, TypeScript, Python, Unknown, Shell, Rust</title>
    </path>

    <path
      d="M 20,136.16430290134744 L 35.2,139.12092149270526 L 50.400000000000006,142.9786490281619 L 65.6,143.78308011929084 L 80.80000000000001,140.70962396434652 L 96,136.908760079702 L 111.2,136.27660515269997 L 126.4,139.46115643734072 L 141.60000000000002,143.1980551514239 L 156.79999999999998,143.65675279841724 L 172,140.36705638769152 L 187.2,136.70110485163542 L 202.4,136.4167215136047 L 217.6,139.80541659404685 L 232.8,143.39357150205 L 248,143.50310919036176 L 263.20000000000005,140.02174686531285 L 278.40000000000003,136.518092680462 L 293.59999999999997,136.58360530167303 L 308.8,140.15113030708855 L 324,143.56373755452023 L 339.2,143.32329702732088 L 354.4,139.67627489180586 L 369.6,136.3610906843057 L 384.8,136.77600987931908 L 400,140.49571506252832 L 415.2,143.70728215242502 L 430.40000000000003,143.11865952305695 L 445.6,139.33322117529102 L 460.79999999999995,136.23127168283787 L 476,136.99249796625958 L 491.2,140.83659677984795 L 506.40000000000003,143.82313300412312 L 521.6,142.89072533896518 L 536.8000000000001,138.99514835928179 L 552,136.12960543620395 L 567.1999999999999,137.2314523761326 L 582.4,141.1712290405722 L 597.6,143.91042469286103 L 612.8000000000001,142.6411971648292 L 628,138.6645818794966 L 643.1999999999999,136.05685140082414 L 658.4,137.4910880970319 L 673.6,141.49711211025405 L 688.8,143.9685051415174 L 704,142.37193899956839 L 719.2,138.34399109861653 L 734.4,136.01355305618245 L 749.6,137.7694656257136 L 764.8,141.8118116117262 L 780,143.99694048368056"
      stroke="url(#thread-10)"
      stroke-width="8"
      stroke-linecap="round"
      fill="none"
      opacity="0.76"
      class="thread"
      style="animation-delay: 1s"
    >
      <title>2026-01-06: 4224 stars, TypeScript, Python, Rust, JavaScript, Go</title>
    </path>

    <path
      d="M 20,149.17783869771844 L 35.2,152.64837096447164 L 50.400000000000006,155.5806710756646 L 65.6,155.5405488900362 L 80.80000000000001,152.56131103548913 L 96,149.11611207977327 L 111.2,148.064914855709 L 126.4,150.28034966111986 L 141.60000000000002,153.92331771435215 L 156.79999999999998,155.96968213178394 L 172,154.7206945242834 L 187.2,151.21317691055526 L 202.4,148.35882470780678 L 217.6,148.5271211640506 L 232.8,151.5783583506767 L 248,154.97961289808046 L 263.20000000000005,155.9074015428651 L 278.40000000000003,153.59153914480976 L 293.59999999999997,149.95449243791128 L 308.8,148.01548281886252 L 324,149.38414024350683 L 339.2,152.92430119395735 L 354.4,155.69717204156382 L 369.6,155.40090965148823 L 384.8,152.28145030644455 L 400,148.92835063291363 L 415.2,148.12511909130828 L 430.40000000000003,150.5385422401606 L 445.6,154.16516524440678 L 460.79999999999995,155.99441973510335 L 476,154.50778677548982 L 491.2,150.93936490826042 L 506.40000000000003,148.25140799546492 L 521.6,148.6752695715817 L 536.8000000000001,151.85908944811757 L 552,155.1598833938773 L 567.1999999999999,155.83756349956641 L 582.4,153.3295672137255 L 597.6,149.71785736478756 L 612.8000000000001,148.00062246484308 L 628,149.60339063351344 L 643.1999999999999,153.1956560129527 L 658.4,155.7953715275403 L 673.6,155.244435470177 L 688.8,152.00019636197084 L 704,148.75579424781185 L 719.2,148.2045044887134 L 734.4,150.8039692241868 L 749.6,154.39629492638608 L 764.8,155.99938444396096 L 780,154.28246515771585"
      stroke="url(#thread-11)"
      stroke-width="7.528"
      stroke-linecap="round"
      fill="none"
      opacity="0.736"
      class="thread"
      style="animation-delay: 1.1s"
    >
      <title>2026-01-05: 3764 stars, Go, TypeScript, Python, Rust, JavaScript</title>
    </path>

    <path
      d="M 20,162.88233800720428 L 35.2,166.57304725957573 L 50.400000000000006,167.97587233435743 L 65.6,165.84345903680045 L 80.80000000000001,162.0718917180204 L 96,160.01474624462386 L 111.2,161.50118084993468 L 126.4,165.20949800124868 L 141.60000000000002,167.8423621737707 L 156.79999999999998,167.05870160535628 L 172,163.55532612272114 L 187.2,160.44734265017348 L 202.4,160.49828620814068 L 217.6,163.6628591598267 L 232.8,167.12720864728414 L 248,167.81092860781916 L 263.20000000000005,165.10607370588113 L 278.40000000000003,161.41772791720723 L 293.59999999999997,160.02546876995297 L 308.8,162.1672555212805 L 324,165.93866919796764 L 339.2,167.98627054781002 L 354.4,166.48938771455573 L 369.6,162.7790085132023 L 384.8,160.154301987786 L 400,160.94908634081682 L 415.2,164.45666077652515 L 430.40000000000003,167.55818477485832 L 445.6,167.49586690552158 L 460.79999999999995,164.32511853599217 L 476,160.8652835390915 L 491.2,160.19275381435486 L 506.40000000000003,162.90552464168135 L 521.6,166.59147341812644 L 536.8000000000001,167.97315397411393 L 552,165.8220132503237 L 567.1999999999999,162.0507875198314 L 582.4,160.01274891815754 L 597.6,161.52006636397775 L 612.8000000000001,165.23247386642728 L 628,167.84899887087843 L 643.1999999999999,167.04309796244704 L 658.4,163.53135647793303 L 673.6,160.43632016472003 L 688.8,160.5100117785941 L 704,163.6869067254088 L 719.2,167.1421957617145 L 734.4,167.80352913344316 L 749.6,165.08286705560477 L 764.8,161.39934881811703 L 780,160.02825942091462"
      stroke="url(#thread-12)"
      stroke-width="7.814"
      stroke-linecap="round"
      fill="none"
      opacity="0.712"
      class="thread"
      style="animation-delay: 1.2000000000000002s"
    >
      <title>2026-01-04: 3907 stars, Python, Jupyter Notebook, TypeScript, Go, Rust</title>
    </path>

    <path
      d="M 20,176.86047995235126 L 35.2,179.7200962663605 L 50.400000000000006,179.29830026405523 L 65.6,175.9671486068322 L 80.80000000000001,172.66497441643543 L 96,172.30455045010996 L 111.2,175.20379849200154 L 126.4,178.805357777352 L 141.60000000000002,179.93237476509745 L 156.79999999999998,177.5907334003053 L 172,173.8459422786276 L 187.2,172.00119648665824 L 202.4,173.6837043353692 L 217.6,177.40936391401686 L 232.8,179.89185563503574 L 248,178.94143000668222 L 263.20000000000005,175.39643586170615 L 278.40000000000003,172.38383191721832 L 293.59999999999997,172.56096760178374 L 308.8,175.7715955563629 L 324,179.18369387643477 L 339.2,179.78752822979783 L 354.4,177.05047006539635 L 369.6,173.38681614548136 L 384.8,172.02819227614646 L 400,174.1730096755067 L 415.2,177.9293736917627 L 430.40000000000003,179.98388105119696 L 445.6,178.52429753445094 L 460.79999999999995,174.83808856865613 L 476,172.17677525294312 L 491.2,172.88784154107964 L 506.40000000000003,176.3440720309519 L 521.6,179.49680440700533 L 536.8000000000001,179.56508513790925 L 552,176.48868534373355 L 567.1999999999999,172.98122732124526 L 582.4,172.13656002753314 L 597.6,174.69974527345366 L 612.8000000000001,178.4098556440322 L 628,179.99428715453013 L 643.1999999999999,178.0554488017471 L 658.4,174.3035458047511 L 673.6,172.04804647362027 L 688.8,173.27847547510544 L 704,176.90949936868947 L 719.2,179.73827455245242 L 734.4,179.26960276713908 L 749.6,175.91688873631614 L 764.8,172.63748526112124 L 780,172.3240795687581"
      stroke="url(#thread-13)"
      stroke-width="7.78"
      stroke-linecap="round"
      fill="none"
      opacity="0.688"
      class="thread"
      style="animation-delay: 1.3s"
    >
      <title>2026-01-03: 3890 stars, Go, Python, Jupyter Notebook, TypeScript, Rust, JavaScript</title>
    </path>

    <path
      d="M 20,190.62794639487515 L 35.2,191.92574021901703 L 50.400000000000006,191.56988810727802 L 65.6,189.71028622331698 L 80.80000000000001,187.13025769250834 L 96,184.91659212812323 L 111.2,184.00175547536406 L 126.4,184.7711058650368 L 141.60000000000002,186.90056858150234 L 156.79999999999998,189.49314658210497 L 172,191.45676402000623 L 187.2,191.96428312891166 L 202.4,190.80192080932883 L 217.6,188.45930083118733 L 232.8,185.92320881708164 L 248,184.26192692990946 L 263.20000000000005,184.1752396403209 L 278.40000000000003,185.69966237626664 L 293.59999999999997,188.1930600699066 L 308.8,190.60513475637575 L 324,191.91984429335432 L 339.2,191.58339144480595 L 354.4,189.73750079121163 L 369.6,187.1597198540834 L 384.8,184.9358914891517 L 400,184.00276253461828 L 415.2,184.7533964173096 L 430.40000000000003,186.87160240625622 L 445.6,189.46512514843909 L 460.79999999999995,191.44149084198773 L 476,191.96819175215214 L 491.2,190.8233647981051 L 506.40000000000003,188.48924729923831 L 521.6,185.94904336497598 L 536.8000000000001,184.2727672290295 L 552,184.1665194138415 L 567.1999999999999,185.67505485936724 L 582.4,188.16293072694359 L 597.6,190.58217501947703 L 612.8000000000001,191.9137255298273 L 628,191.59669107136048 L 643.1999999999999,189.76461658452843 L 658.4,187.1892297844521 L 673.6,184.95536504061866 L 688.8,184.00399683143428 L 704,184.73587153461978 L 719.2,186.84270037889226 L 734.4,189.43702042438343 L 749.6,191.4260220198539 L 764.8,191.97187478904047 L 780,190.8446482823984"
      stroke="url(#thread-14)"
      stroke-width="5.26"
      stroke-linecap="round"
      fill="none"
      opacity="0.6639999999999999"
      class="thread"
      style="animation-delay: 1.4000000000000001s"
    >
      <title>2026-01-02: 2630 stars, TypeScript, Rust, Python, JavaScript, Jupyter Notebook, Shell</title>
    </path>

    <path
      d="M 20,203.75199990709896 L 35.2,203.35583973638478 L 50.400000000000006,200.26365040020718 L 65.6,196.95964845547803 L 80.80000000000001,196.09821739648592 L 96,198.37141746493378 L 111.2,201.95299527421884 L 126.4,203.9655672212101 L 141.60000000000002,202.79226447637066 L 156.79999999999998,199.375700116752 L 172,196.46068852050973 L 187.2,196.38910441900376 L 202.4,199.21845735994916 L 217.6,202.67568943611818 L 232.8,203.98331446184199 L 248,202.09080694014344 L 263.20000000000005,198.5185778188513 L 278.40000000000003,196.1365001113582 L 293.59999999999997,196.85829779684323 L 308.8,200.1040899022871 L 324,203.26625780799532 L 339.2,203.80436526862266 L 354.4,201.28610516524586 L 369.6,197.73460828427153 L 384.8,196.0030916814325 L 400,197.48262871792787 L 415.2,200.98458247569312 L 430.40000000000003,203.69553806942432 L 445.6,203.43755616914348 L 460.79999999999995,200.41789539920555 L 476,197.06250400060986 L 491.2,196.0670509512512 L 506.40000000000003,198.23126766405207 L 521.6,201.81645627605064 L 536.8000000000001,203.94233232168176 L 552,202.90100023041504 L 567.1999999999999,199.52904991998366 L 582.4,196.53545353910235 L 597.6,196.32521960619823 L 612.8000000000001,199.0672467753203 L 628,202.55863329872003 L 643.1999999999999,203.99445384193191 L 658.4,202.22119263395527 L 673.6,198.663459998953 L 688.8,196.17948269992903 L 704,196.76484925438874 L 719.2,199.94928532646338 L 734.4,203.1744647741794 L 749.6,203.8493288647193 L 764.8,201.4317023412934 L 780,197.8638685458875"
      stroke="url(#thread-15)"
      stroke-width="7.396"
      stroke-linecap="round"
      fill="none"
      opacity="0.64"
      class="thread"
      style="animation-delay: 1.5s"
    >
      <title>2026-01-01: 3698 stars, Rust, Python, JavaScript, TypeScript, Jupyter Notebook, Go, Shell</title>
    </path>

    <path
      d="M 20,215.95743298649353 L 35.2,213.8970021551397 L 50.400000000000006,210.30872747976494 L 65.6,208.08260218392667 L 80.80000000000001,209.0115455956555 L 96,212.34738751956797 L 111.2,215.40344384501734 L 126.4,215.71836953284878 L 141.60000000000002,213.03852371493065 L 156.79999999999998,209.522251823153 L 172,208.00155610337552 L 187.2,209.7012035321649 L 202.4,213.25229958610373 L 217.6,215.79479467018353 L 232.8,215.28096551105955 L 248,212.12464965526226 L 263.20000000000005,208.86794107827814 L 278.40000000000003,208.13378996370824 L 293.59999999999997,210.51348096451815 L 308.8,214.09041307084152 L 324,215.98372835411976 L 339.2,214.66855237364126 L 354.4,211.20412669122186 L 369.6,208.3806966619401 L 384.8,208.47225031347125 L 400,211.40505041651883 L 415.2,214.81702238353174 L 430.40000000000003,215.9601670350421 L 445.6,213.91379668816913 L 460.79999999999995,210.32605619535053 L 476,208.08650854998936 L 491.2,208.99888342845207 L 506.40000000000003,212.32835491727207 L 521.6,215.39336964854496 L 536.8000000000001,215.72536749105473 L 552,213.05695767851654 L 567.1999999999999,209.537275094286 L 582.4,208.00106895288272 L 597.6,209.68559831061873 L 612.8000000000001,213.2341447250209 L 628,215.78871207848982 L 643.1999999999999,215.2918541026807 L 658.4,212.1437397682169 L 673.6,208.879857552617 L 688.8,208.12893528162581 L 704,210.49576508263425 L 719.2,214.0741043446266 L 734.4,215.9819618171233 L 749.6,214.68275079318485 L 764.8,211.22285467286713 L 780,208.38887070597136"
      stroke="url(#thread-16)"
      stroke-width="7.406"
      stroke-linecap="round"
      fill="none"
      opacity="0.616"
      class="thread"
      style="animation-delay: 1.6s"
    >
      <title>2025-12-31: 3703 stars, Go, Python, TypeScript, Rust, Shell</title>
    </path>

    <path
      d="M 20,227.19394845049396 L 35.2,223.36391257294676 L 50.400000000000006,220.2114695450717 L 65.6,221.09476286073195 L 80.80000000000001,225.07286331837528 L 96,227.90809491509114 L 111.2,226.58022399212112 L 126.4,222.50376654903508 L 141.60000000000002,220.02117347851 L 156.79999999999998,221.77702985122772 L 172,225.90090768417258 L 187.2,227.99984146084324 L 202.4,225.8379396064038 L 217.6,221.71817051161054 L 232.8,220.02912285501097 L 248,222.57005655936342 L 263.20000000000005,226.63423912794764 L 278.40000000000003,227.89229549200533 L 293.59999999999997,225.0040796896534 L 308.8,221.04626686451164 L 324,220.23492159606803 L 339.2,223.4343303473636 L 354.4,227.23631933464753 L 369.6,227.59081549760091 L 384.8,224.120191398489 L 400,220.52153327646684 L 415.2,220.62831575811714 L 430.40000000000003,224.3267886843278 L 445.6,227.67714959568528 L 460.79999999999995,227.11042274954076 L 476,223.23031455846046 L 491.2,220.1701146527868 L 506.40000000000003,221.18970443633557 L 521.6,225.20296474128742 L 536.8000000000001,227.93476549769852 L 552,226.475052866196 L 567.1999999999999,222.3787873751844 L 582.4,220.0095204627524 L 597.6,221.89111638175265 L 612.8000000000001,226.01920295555962 L 628,227.99633130171785 L 643.1999999999999,225.7163632177365 L 658.4,221.60803727866235 L 673.6,220.0477523284963 L 688.8,222.69760367162343 L 704,226.73483417367453 L 719.2,227.85877948518873 L 734.4,224.87215559438692 L 749.6,220.95646697219138 L 764.8,220.2829053433526 L 780,223.56898299329498"
      stroke="url(#thread-17)"
      stroke-width="8"
      stroke-linecap="round"
      fill="none"
      opacity="0.592"
      class="thread"
      style="animation-delay: 1.7000000000000002s"
    >
      <title>2025-12-30: 4315 stars, Go, Shell, Rust, Python, Swift, TypeScript</title>
    </path>

    <path
      d="M 20,237.64847394096702 L 35.2,234.44574150014634 L 50.400000000000006,232.239598602286 L 65.6,232.44462264393292 L 80.80000000000001,234.92935234243683 L 96,238.10058062520002 L 111.2,239.9249179722427 L 126.4,239.23260045879562 L 141.60000000000002,236.4675416258654 L 156.79999999999998,233.40269540539316 L 172,232.00323920795233 L 187.2,233.1665034405067 L 202.4,236.14660383092735 L 217.6,239.0327019399554 L 232.8,239.97423353024817 L 248,238.36748915621413 L 263.20000000000005,235.2427122693277 L 278.40000000000003,232.60350778463257 L 293.59999999999997,232.142131907534 L 308.8,234.15441855146008 L 324,237.35009082426944 L 339.2,239.6800857354042 L 354.4,239.6504120576609 L 369.6,237.2800965339803 L 384.8,234.0889839422028 L 400,232.1232136083633 L 415.2,232.64323619671782 L 430.40000000000003,235.31561356058353 L 445.6,238.42681906592668 L 460.79999999999995,239.98194975875504 L 476,238.983856846538 L 491.2,236.07251685783376 L 506.40000000000003,233.1146791068768 L 521.6,232.00690724292792 L 536.8000000000001,233.45950386732474 L 552,236.54106496577378 L 567.1999999999999,239.27569555877406 L 582.4,239.90995228211025 L 597.6,238.037150135772 L 612.8000000000001,234.85812864243206 L 628,232.41127432364212 L 643.1999999999999,232.26550858307024 L 658.4,234.51429631911617 L 673.6,237.71571629262192 L 688.8,239.81702009106755 L 704,239.47085308051604 L 719.2,236.89917732381986 L 734.4,233.75094964974937 L 749.6,232.04481160289478 L 764.8,232.8747377933368 L 780,235.70858008554893"
      stroke="url(#thread-18)"
      stroke-width="6.556"
      stroke-linecap="round"
      fill="none"
      opacity="0.5680000000000001"
      class="thread"
      style="animation-delay: 1.8s"
    >
      <title>2025-12-29: 3278 stars, Shell, Go, JavaScript, TypeScript, Rust, Python</title>
    </path>

    <path
      d="M 20,247.69939551815276 L 35.2,244.57284529531455 L 50.400000000000006,244.3347141542762 L 65.6,247.18569993071048 L 80.80000000000001,250.72298091734672 L 96,251.96532318111517 L 111.2,249.86567591456628 L 126.4,246.19362985763883 L 141.60000000000002,244.0439994596416 L 156.79999999999998,245.22850143470592 L 172,248.7488329917357 L 187.2,251.63804524170484 L 202.4,251.4610990593671 L 217.6,248.3671253633872 L 232.8,244.96373700819436 L 248,244.11932270541422 L 263.20000000000005,246.54555805631463 L 278.40000000000003,250.19760263542628 L 293.59999999999997,251.99749931537804 L 308.8,250.42828829609638 L 324,246.812506621289 L 339.2,244.1975489040026 L 354.4,244.78731150128914 L 369.6,248.0847402424089 L 384.8,251.31074958339607 L 400,251.74644652364208 L 415.2,249.0246240169147 L 430.40000000000003,245.43924447318494 L 445.6,244.01207947324716 L 460.79999999999995,245.94594913288466 L 476,249.61098071277408 L 491.2,251.91827159165962 L 506.40000000000003,250.92322819962618 L 521.6,247.46447690998536 L 536.8000000000001,244.45706652708213 L 552,244.43565401428754 L 567.1999999999999,247.4182859192116 L 582.4,250.89118867441385 L 597.6,251.927386566295 L 612.8000000000001,249.6535680518021 L 628,245.98611606422725 L 643.1999999999999,244.01597315367295 L 658.4,245.4035832939516 L 673.6,248.97946335615737 L 688.8,251.72984795882616 L 704,251.33670244837896 L 719.2,248.1313713634055 L 734.4,244.81531999132517 L 749.6,244.1833291006427 L 764.8,246.76804302914513 L 780,250.39105500054268"
      stroke="url(#thread-19)"
      stroke-width="7.59"
      stroke-linecap="round"
      fill="none"
      opacity="0.544"
      class="thread"
      style="animation-delay: 1.9000000000000001s"
    >
      <title>2025-12-28: 3795 stars, Shell, Rust, Python, JavaScript, TypeScript</title>
    </path>

    <path
      d="M 20,257.8239155564425 L 35.2,256.2530031561268 L 50.400000000000006,260.55786731651136 L 65.6,263.98792324008144 L 80.80000000000001,261.16439879614813 L 96,256.5149461652451 L 111.2,257.3305095160114 L 126.4,262.3321798394805 L 141.60000000000002,263.6766899871774 L 156.79999999999998,259.2556738353412 L 172,256.0018575542413 L 187.2,259.01764667927955 L 202.4,263.57389309764415 L 217.6,262.525812058962 L 232.8,257.516930434859 L 248,256.4018236275937 L 263.20000000000005,260.92912359865824 L 278.40000000000003,263.9994373777231 L 293.59999999999997,260.7981151295415 L 308.8,256.34524494409163 L 324,257.62350424377087 L 339.2,262.6284168188291 L 354.4,263.51163125019144 L 369.6,258.8881528687653 L 384.8,256.0081948544494 L 400,259.3879045384025 L 415.2,263.727459217167 L 430.40000000000003,262.22187486545477 L 445.6,257.2321028297857 L 460.79999999999995,256.5827522016678 L 476,261.29208890427896 L 491.2,263.9752627851848 L 506.40000000000003,260.42470953231793 L 521.6,256.2081567019014 L 536.8000000000001,257.9377054832989 L 552,262.90119928450787 L 567.1999999999999,263.31523669060266 L 582.4,258.53055340077043 L 597.6,256.05015277908933 L 612.8000000000001,259.76362439322895 L 628,263.84776358667483 L 643.1999999999999,261.8981109100614 L 658.4,256.9719743826049 L 673.6,256.7941743734944 L 688.8,261.64352433509026 L 704,263.91561518293634 L 719.2,260.0475140660522 L 734.4,256.10490473705966 L 749.6,258.2703094794166 L 764.8,263.14809307918506 L 780,263.08925882302344"
      stroke="url(#thread-20)"
      stroke-width="8"
      stroke-linecap="round"
      fill="none"
      opacity="0.52"
      class="thread"
      style="animation-delay: 2s"
    >
      <title>2025-12-27: 5384 stars, Shell, Python, Rust, C, Go</title>
    </path>

    <path
      d="M 20,268.48121696011333 L 35.2,268.41618763101883 L 50.400000000000006,271.3833715301439 L 65.6,274.87227610286715 L 80.80000000000001,275.9309882722173 L 96,273.6637465657004 L 111.2,269.9888322955789 L 126.4,268.015538727003 L 141.60000000000002,269.41344178799415 L 156.79999999999998,272.9997953643881 L 172,275.74023614812324 L 187.2,275.316115744681 L 202.4,272.08627646087575 L 217.6,268.7834398772633 L 232.8,268.20208956283807 L 248,270.8340978401824 L 263.20000000000005,274.4525595330033 L 278.40000000000003,275.9959451076281 L 293.59999999999997,274.1584177417594 L 308.8,270.494683489271 L 324,268.1045763596744 L 339.2,269.01033237122556 L 354.4,272.4456041047526 L 369.6,275.50385647401987 L 384.8,275.5975451729725 L 400,272.647401511442 L 415.2,269.14950053874355 L 430.40000000000003,268.0633670593058 L 445.6,270.307963330324 L 460.79999999999995,273.9841680239346 L 476,275.9815960658269 L 491.2,274.610251689631 L 506.40000000000003,271.0304100799341 L 521.6,268.27092486138605 L 536.8000000000001,268.66655765688307 L 552,271.88256912392853 L 567.1999999999999,275.19793720319717 L 582.4,275.80757560351316 L 597.6,273.19567785077976 L 612.8000000000001,269.57213388933195 L 628,268.00277328883016 L 643.1999999999999,269.8154099755489 L 658.4,273.47639754908045 L 673.6,275.8882259263382 L 688.8,275.0102810469953 L 704,271.58537972250997 L 719.2,268.51128278191896 L 734.4,268.3889404001722 L 749.6,271.32186474534944 L 764.8,274.8285497894603 L 780,275.9420386488285"
      stroke="url(#thread-21)"
      stroke-width="7.606"
      stroke-linecap="round"
      fill="none"
      opacity="0.49600000000000005"
      class="thread"
      style="animation-delay: 2.1s"
    >
      <title>2025-12-26: 3803 stars, Python, Shell, Go, TypeScript</title>
    </path>

    <path
      d="M 20,280.0000391737972 L 35.2,281.47253068872783 L 50.400000000000006,284.78860181984163 L 65.6,287.5294532108537 L 80.80000000000001,287.6958606840772 L 96,285.1664437644863 L 111.2,281.7862026872923 L 126.4,280.0207434718866 L 141.60000000000002,281.15782245549104 L 156.79999999999998,284.3680346570782 L 172,287.30979604550913 L 187.2,287.8373352330965 L 202.4,285.5658560568814 L 217.6,282.15221452266303 L 232.8,280.08637951804525 L 248,280.8752066507006 L 263.20000000000005,283.9433118334832 L 278.40000000000003,287.0527663405892 L 293.59999999999997,287.93548053738556 L 308.8,285.94758749624185 L 324,282.5390906152053 L 339.2,280.1962061833036 L 354.4,280.6278744287974 L 369.6,283.5192291039356 L 384.8,286.7612663452618 L 400,287.9891883899075 L 415.2,286.307327764612 L 430.40000000000003,282.9424625561468 L 445.6,280.34898336061667 L 460.79999999999995,280.41861853988564 L 476,283.10057499569655 L 491.2,286.43858752974506 L 506.40000000000003,287.99785234881006 L 521.6,286.6410148571941 L 536.8000000000001,283.35777567395513 L 552,280.54298596752403 L 567.1999999999999,280.2498017954144 L 582.4,282.6920767387868 L 597.6,286.0883734196934 L 612.8000000000001,287.96137458506024 L 628,286.94488094844786 L 643.1999999999999,283.78034046338064 L 658.4,280.77602342490707 L 673.6,280.1233303885075 L 688.8,282.29834688850065 L 704,285.71457845535275 L 719.2,287.88016698707975 L 734.4,287.21549493646705 L 749.6,284.2053855369724 L 764.8,281.04546439189795 L 780,280.04063237019744"
      stroke="url(#thread-22)"
      stroke-width="7.022"
      stroke-linecap="round"
      fill="none"
      opacity="0.47200000000000003"
      class="thread"
      style="animation-delay: 2.2s"
    >
      <title>2025-12-25: 3511 stars, Python, TypeScript</title>
    </path>

    <path
      d="M 20,292.49819130124627 L 35.2,294.66402660710264 L 50.400000000000006,297.50333573435375 L 65.6,299.5848024769906 L 80.80000000000001,299.8591444400774 L 96,298.1880638616742 L 111.2,295.41396451193026 L 126.4,292.93528987776943 L 141.60000000000002,292.0015577166092 L 156.79999999999998,293.08346914426454 L 172,295.63562480812294 L 187.2,298.37146463380634 L 202.4,299.91183203636876 L 217.6,299.48021670020745 L 232.8,297.2941990287664 L 248,294.45576629413426 L 263.20000000000005,292.395792906481 L 278.40000000000003,292.1527263055013 L 293.59999999999997,293.8490981175624 L 308.8,296.6297550792469 L 324,299.09294796416305 L 339.2,299.99696347633034 L 354.4,298.88608087698526 L 369.6,296.3203040953075 L 384.8,293.593059709393 L 400,292.07917128101644 L 415.2,292.5418008839471 L 430.40000000000003,294.7477335992109 L 445.6,297.5849428375158 L 460.79999999999995,299.6231709620135 L 476,299.83493247697635 L 491.2,298.113476875647 L 506.40000000000003,295.3266023404984 L 521.6,292.87919242154203 L 536.8000000000001,292.00500410780313 L 552,293.1447220322262 L 567.1999999999999,295.72380617032104 L 582.4,298.44212160965924 L 597.6,299.929345934824 L 612.8000000000001,299.4357586387567 L 628,297.2101806367851 L 643.1999999999999,294.3745418488976 L 658.4,292.35830823656244 L 673.6,292.17787770331796 L 688.8,293.92420658210204 L 704,296.71695789190926 L 719.2,299.14828555824397 L 734.4,299.9925397716005 L 749.6,298.82412589489945 L 764.8,296.23204978910786 L 780,293.52299571125843"
      stroke="url(#thread-23)"
      stroke-width="5.776"
      stroke-linecap="round"
      fill="none"
      opacity="0.448"
      class="thread"
      style="animation-delay: 2.3000000000000003s"
    >
      <title>2025-12-24: 2888 stars, Python, TypeScript</title>
    </path>

    <path
      d="M 20,305.8537083279983 L 35.2,308.63515198219363 L 50.400000000000006,311.0964109419268 L 65.6,311.99674681684803 L 80.80000000000001,310.8822937998643 L 96,308.31485569343414 L 111.2,305.58869656144134 L 126.4,304.0780928813327 L 141.60000000000002,304.5445508615884 L 156.79999999999998,306.7529256706175 L 172,309.5899596420504 L 187.2,311.62548349233265 L 202.4,311.83337496987 L 217.6,310.108834481679 L 232.8,307.3212153239455 L 248,304.8757764162956 L 263.20000000000005,304.0052811467416 L 278.40000000000003,305.14855245802283 L 293.59999999999997,307.72925903770965 L 308.8,310.4464480888672 L 324,311.93036501648334 L 339.2,311.432956596454 L 354.4,309.2049700002514 L 369.6,306.3695493375848 L 384.8,304.3560506114255 L 400,304.1794930494687 L 415.2,305.9288805918972 L 430.40000000000003,308.7223343633057 L 445.6,311.15165417323965 L 460.79999999999995,311.9922023870842 L 476,310.8202525888388 L 491.2,308.22659312301937 L 506.40000000000003,305.5187064298667 L 521.6,304.06165771864113 L 536.8000000000001,304.5899557518108 L 552,306.8372816811668 L 567.1999999999999,309.6707422996966 L 582.4,311.66196967681253 L 597.6,311.8071717324764 L 612.8000000000001,310.03315106334003 L 628,307.23420428161774 L 643.1999999999999,304.8213006438747 L 658.4,304.0108022739432 L 673.6,305.2112872448104 L 688.8,307.8175824256675 L 704,310.51583562120396 L 719.2,311.9458379377773 L 734.4,311.3867148955018 L 749.6,309.1203244519635 L 764.8,306.28917037325306 L 780,304.3204578466022"
      stroke="url(#thread-24)"
      stroke-width="5.776"
      stroke-linecap="round"
      fill="none"
      opacity="0.42400000000000004"
      class="thread"
      style="animation-delay: 2.4000000000000004s"
    >
      <title>2025-12-23: 2888 stars, Python, TypeScript</title>
    </path>
  </g>

  <!-- Date markers -->
  <g id="dates">
    <text x="785" y="24" class="date-label">01-16</text>
<text x="785" y="108" class="date-label">01-09</text>
<text x="785" y="192" class="date-label">01-02</text>
<text x="785" y="276" class="date-label">12-26</text>
  </g>

</svg>