<?xml version="1.0" encoding="UTF-8"?>
<svg xmlns="http://www.w3.org/2000/svg" viewBox="0 0 800 208" width="800" height="208">
  <title>The Data Tapestry - GitHub Trends Woven in Time</title>
  <desc>A living data art piece that weaves daily GitHub trending repositories into an evolving tapestry. Each thread represents one day of open source activity.</desc>

  <style>
    .thread {
      animation: breathe 8s ease-in-out infinite alternate;
    }

    @keyframes breathe {
      0% {
        opacity: 0.85;
      }
      100% {
        opacity: 1;
      }
    }

    .date-label {
      font-family: ui-monospace, monospace;
      font-size: 8px;
      fill: #666;
    }

    .title {
      font-family: system-ui, sans-serif;
      font-size: 14px;
      fill: #333;
      font-weight: 600;
    }

    .subtitle {
      font-family: system-ui, sans-serif;
      font-size: 10px;
      fill: #888;
    }

    .empty-state {
      font-family: system-ui, sans-serif;
      font-size: 12px;
      fill: #999;
      text-anchor: middle;
    }
  </style>

  <defs>
    
    <linearGradient id="thread-0" x1="0%" y1="0%" x2="100%" y2="0%">
      <stop offset="0%" stop-color="#3572A5" />
      <stop offset="50%" stop-color="#00ADD8" />
      <stop offset="100%" stop-color="#3178c6" />
    </linearGradient>

    <linearGradient id="thread-1" x1="0%" y1="0%" x2="100%" y2="0%">
      <stop offset="0%" stop-color="#3572A5" />
      <stop offset="50%" stop-color="#3178c6" />
      <stop offset="100%" stop-color="#00ADD8" />
    </linearGradient>

    <linearGradient id="thread-2" x1="0%" y1="0%" x2="100%" y2="0%">
      <stop offset="0%" stop-color="#3572A5" />
      <stop offset="50%" stop-color="#00ADD8" />
      <stop offset="100%" stop-color="#DA5B0B" />
    </linearGradient>

    <linearGradient id="thread-3" x1="0%" y1="0%" x2="100%" y2="0%">
      <stop offset="0%" stop-color="#3572A5" />
      <stop offset="50%" stop-color="#3178c6" />
      <stop offset="100%" stop-color="#dea584" />
    </linearGradient>

    <linearGradient id="thread-4" x1="0%" y1="0%" x2="100%" y2="0%">
      <stop offset="0%" stop-color="#dea584" />
      <stop offset="50%" stop-color="#3572A5" />
      <stop offset="100%" stop-color="#3178c6" />
    </linearGradient>

    <linearGradient id="thread-5" x1="0%" y1="0%" x2="100%" y2="0%">
      <stop offset="0%" stop-color="#3572A5" />
      <stop offset="50%" stop-color="#3178c6" />
      <stop offset="100%" stop-color="#dea584" />
    </linearGradient>

    <linearGradient id="thread-6" x1="0%" y1="0%" x2="100%" y2="0%">
      <stop offset="0%" stop-color="#3572A5" />
      <stop offset="50%" stop-color="#dea584" />
      <stop offset="100%" stop-color="#3178c6" />
    </linearGradient>

    <linearGradient id="thread-7" x1="0%" y1="0%" x2="100%" y2="0%">
      <stop offset="0%" stop-color="#3572A5" />
      <stop offset="50%" stop-color="#3178c6" />
      <stop offset="100%" stop-color="#89e051" />
    </linearGradient>

    <linearGradient id="thread-8" x1="0%" y1="0%" x2="100%" y2="0%">
      <stop offset="0%" stop-color="#3572A5" />
      <stop offset="50%" stop-color="#f1e05a" />
      <stop offset="100%" stop-color="#89e051" />
    </linearGradient>

    <linearGradient id="thread-9" x1="0%" y1="0%" x2="100%" y2="0%">
      <stop offset="0%" stop-color="#3572A5" />
      <stop offset="50%" stop-color="#89e051" />
      <stop offset="100%" stop-color="#dea584" />
    </linearGradient>

    <linearGradient id="thread-10" x1="0%" y1="0%" x2="100%" y2="0%">
      <stop offset="0%" stop-color="#3572A5" />
      <stop offset="50%" stop-color="#89e051" />
      <stop offset="100%" stop-color="#00ADD8" />
    </linearGradient>

    <linearGradient id="thread-11" x1="0%" y1="0%" x2="100%" y2="0%">
      <stop offset="0%" stop-color="#3572A5" />
      <stop offset="50%" stop-color="#3178c6" />
      <stop offset="100%" stop-color="#3572A5" />
    </linearGradient>

    <linearGradient id="thread-12" x1="0%" y1="0%" x2="100%" y2="0%">
      <stop offset="0%" stop-color="#3572A5" />
      <stop offset="50%" stop-color="#3178c6" />
      <stop offset="100%" stop-color="#3572A5" />
    </linearGradient>

    <linearGradient id="thread-13" x1="0%" y1="0%" x2="100%" y2="0%">
      <stop offset="0%" stop-color="#3572A5" />
      <stop offset="50%" stop-color="#3178c6" />
      <stop offset="100%" stop-color="#3572A5" />
    </linearGradient>

    <!-- Background pattern -->
    <pattern id="loom" patternUnits="userSpaceOnUse" width="20" height="20">
      <rect width="20" height="20" fill="#fafafa"/>
      <circle cx="10" cy="10" r="0.5" fill="#eee"/>
    </pattern>
  </defs>

  <!-- Background -->
  <rect width="100%" height="100%" fill="url(#loom)"/>

  <!-- Threads -->
  <g id="tapestry">
    
    <path
      d="M 20,20 L 35.2,23.244320615091773 L 50.400000000000006,23.795433523986713 L 65.6,21.195843395823868 L 80.80000000000001,17.603547850676105 L 96,16.000619005622045 L 111.2,17.71769610078582 L 126.4,21.329382015020595 L 141.60000000000002,23.837508105149738 L 156.79999999999998,23.160003788313155 L 172,19.859285688379053 L 187.2,16.675378752750603 L 202.4,16.251339482983077 L 217.6,18.93917557639085 L 232.8,22.50763379428774 L 248,23.994430098846173 L 263.20000000000005,22.16533034984123 L 278.40000000000003,18.53872502832081 L 293.59999999999997,16.125167824268168 L 308.8,16.9282248559837 L 324,20.281254430821203 L 339.2,23.400806279392658 L 354.4,23.697246985268432 L 369.6,20.924492240448494 L 384.8,17.384288799370584 L 400,16.01546556342731 L 415.2,17.954323695430688 L 430.40000000000003,21.591358993470557 L 445.6,23.90735953168929 L 460.79999999999995,22.97974390180327 L 476,19.57855361918442 L 491.2,16.52721859910693 L 506.40000000000003,16.358743425653362 L 521.6,19.212984385941986 L 536.8000000000001,22.72055057765763 L 552,23.969706257550744 L 567.1999999999999,21.92348988498997 L 582.4,18.280526952625923 L 597.6,16.064950093094453 L 612.8000000000001,17.115976011429105 L 628,20.561116615822904 L 643.1999999999999,23.540457512635527 L 658.4,23.580758595646415 L 673.6,20.648564728877886 L 688.8,17.177977856912513 L 704,16.05003608218773 L 719.2,18.201077652439952 L 734.4,21.845458539022744 L 749.6,23.95786902303726 L 764.8,22.784733897478844 L 780,19.299907764098904"
      stroke="url(#thread-0)"
      stroke-width="7.528"
      stroke-linecap="round"
      fill="none"
      opacity="1"
      class="thread"
      style="animation-delay: 0s"
    >
      <title>2026-01-05: 3764 stars, Go, TypeScript, Python, Rust, JavaScript</title>
    </path>

    <path
      d="M 20,33.917702154416816 L 35.2,35.984218144385906 L 50.400000000000006,34.508074892989406 L 65.6,30.801819138790815 L 80.80000000000001,28.160953467906644 L 96,28.93366435886741 L 111.2,32.43287814262131 L 126.4,35.54718836518255 L 141.60000000000002,35.50743443076842 L 156.79999999999998,32.348964464915504 L 172,28.88020471528579 L 187.2,28.185482730665324 L 202.4,30.882526549480808 L 217.6,34.573197600289305 L 232.8,35.97585079460322 L 248,33.843284769146514 L 263.20000000000005,30.07171967656121 L 278.40000000000003,28.014729403981597 L 293.59999999999997,29.5013341843539 L 308.8,33.20968516990225 L 324,35.84241675134349 L 339.2,35.05857506294358 L 354.4,31.55513097842098 L 369.6,28.447252421030697 L 384.8,28.498381123473767 L 400,31.663054823483208 L 415.2,35.1273310804216 L 430.40000000000003,35.81086894619615 L 445.6,33.10588499900259 L 460.79999999999995,29.417577958136427 L 476,28.025490898248293 L 491.2,30.167430061059022 L 506.40000000000003,33.938840953169034 L 521.6,35.98628679834483 L 536.8000000000001,34.48923401088699 L 552,30.77882152448388 L 567.1999999999999,28.154247979339512 L 582.4,28.94921333549526 L 597.6,32.45685585408796 L 612.8000000000001,35.558274477601714 L 628,35.4957714721872 L 643.1999999999999,32.32492282332525 L 658.4,28.865161569513237 L 673.6,28.192814039922315 L 688.8,30.90571351144544 L 704,34.591622994190445 L 719.2,35.97313125747874 L 734.4,33.82183844000819 L 749.6,30.050616052450096 L 764.8,28.01273325787801 L 780,29.520220435497905"
      stroke="url(#thread-1)"
      stroke-width="7.814"
      stroke-linecap="round"
      fill="none"
      opacity="0.9571428571428572"
      class="thread"
      style="animation-delay: 0.1s"
    >
      <title>2026-01-04: 3907 stars, Python, Jupyter Notebook, TypeScript, Go, Rust</title>
    </path>

    <path
      d="M 20,47.36588393923159 L 35.2,47.67346016489661 L 50.400000000000006,44.740760718777615 L 65.6,41.154653088569624 L 80.80000000000001,40.078361261727814 L 96,42.461257782313425 L 111.2,46.20144381994954 L 126.4,47.999786327949195 L 141.60000000000002,46.27000827685387 L 156.79999999999998,42.53790754793935 L 172,40.095485320940604 L 187.2,41.09714669816296 L 202.4,44.65934895795269 L 217.6,47.6399544964587 L 232.8,47.409838951343545 L 248,44.171982011800885 L 263.20000000000005,40.78242365076245 L 278.40000000000003,40.23101621515689 L 293.59999999999997,43.004143664148145 L 308.8,46.65569333981504 L 324,47.964716314647625 L 339.2,45.77655319157694 L 354.4,42.0213328995444 L 369.6,40.011449859139894 L 384.8,41.519776192725836 L 400,45.21585154291673 L 415.2,47.839451897281705 L 430.40000000000003,47.076359047612144 L 445.6,43.59967984279264 L 460.79999999999995,40.476113944800105 L 476,40.46088779795457 L 491.2,43.567432040124416 L 506.40000000000003,47.05553464249431 L 521.6,47.84841962389231 L 536.8000000000001,45.24670117355134 L 552,41.54529596976583 L 567.1999999999999,40.00912936761405 L 582.4,41.9932189922564 L 597.6,45.747444506795574 L 612.8000000000001,47.96028896124594 L 628,46.6798525855444 L 643.1999999999999,43.03557918776604 L 658.4,40.241999456168166 L 673.6,40.76326654204549 L 688.8,44.13958260329522 L 704,47.39277602448372 L 719.2,47.653278870992715 L 734.4,44.691307506119216 L 749.6,41.119549511406795 L 764.8,40.08857138717098 L 780,42.50777549090184"
      stroke="url(#thread-2)"
      stroke-width="7.78"
      stroke-linecap="round"
      fill="none"
      opacity="0.9142857142857144"
      class="thread"
      style="animation-delay: 0.2s"
    >
      <title>2026-01-03: 3890 stars, Go, Python, Jupyter Notebook, TypeScript, Rust, JavaScript</title>
    </path>

    <path
      d="M 20,59.98997994641622 L 35.2,59.32332920913343 L 50.400000000000006,57.25678710520955 L 65.6,54.660846525367745 L 80.80000000000001,52.628999741167085 L 96,52.01712487738764 L 111.2,53.08296297783436 L 126.4,55.37754932635699 L 141.60000000000002,57.93433158427012 L 156.79999999999998,59.67631220363387 L 172,59.86971385561739 L 187.2,58.43306964787618 L 202.4,55.97153955608302 L 217.6,53.52199790335893 L 232.8,52.11626910314213 L 248,52.346490583724126 L 263.20000000000005,54.11568577648921 L 278.40000000000003,56.678613713600626 L 293.59999999999997,58.95568809267663 L 308.8,59.98773317039708 L 324,59.340018920523605 L 339.2,57.28538306974195 L 354.4,54.68930321840412 L 369.6,52.64533030362788 L 384.8,52.01445035989331 L 400,53.06240997173792 L 415.2,55.347775407836515 L 430.40000000000003,57.9078784694377 L 445.6,59.66432278106426 L 460.79999999999995,59.87723844927492 L 476,58.456938660939166 L 491.2,56.0016986053669 L 506.40000000000003,53.54574304349392 L 521.6,52.12359813013855 L 536.8000000000001,52.33431627962295 L 552,54.089136343202924 L 567.1999999999999,56.64887261208295 L 582.4,58.93528321548018 L 597.6,59.98525969712253 L 612.8000000000001,59.35651875634038 L 628,57.31390596197948 L 643.1999999999999,54.71783442278576 L 658.4,52.66185157453895 L 673.6,52.01200241552363 L 688.8,53.04202396367481 L 704,55.318038567404926 L 719.2,57.88131689428602 L 734.4,59.65212504668391 L 749.6,59.88454262715299 L 764.8,58.48066800035116 L 780,56.03185755808735"
      stroke="url(#thread-3)"
      stroke-width="5.26"
      stroke-linecap="round"
      fill="none"
      opacity="0.8714285714285714"
      class="thread"
      style="animation-delay: 0.30000000000000004s"
    >
      <title>2026-01-02: 2630 stars, TypeScript, Rust, Python, JavaScript, Jupyter Notebook, Shell</title>
    </path>

    <path
      d="M 20,71.63718970730272 L 35.2,68.84238122432365 L 50.400000000000006,65.37081683891223 L 65.6,64.01149708985349 L 80.80000000000001,65.8564782064478 L 96,69.42353121150744 L 111.2,71.84694150247668 L 126.4,71.17977914897219 L 141.60000000000002,67.95803195268947 L 156.79999999999998,64.77000122931813 L 172,64.17690100747024 L 187.2,66.65521873045479 L 202.4,70.21391269565184 L 217.6,71.99398382241229 L 232.8,70.56535080431605 L 248,67.07575506708477 L 263.20000000000005,64.32868325558051 L 278.40000000000003,64.53108990435344 L 293.59999999999997,67.52036467702213 L 308.8,70.89497096761602 L 324,71.94380285449218 L 339.2,69.82424520140682 L 354.4,66.23911748112636 L 369.6,64.06865523976187 L 384.8,65.05657390025534 L 400,68.40919505987553 L 415.2,71.43307530739946 L 430.40000000000003,71.69887653951956 L 445.6,68.9930582029602 L 460.79999999999995,65.4894324356242 L 476,64.00275738915761 L 491.2,65.72740454721138 L 506.40000000000003,69.27781935310229 L 521.6,71.80165407329797 L 536.8000000000001,71.27129936141556 L 552,68.11283389927446 L 567.1999999999999,64.86371944695702 L 582.4,64.13424374568096 L 597.6,66.51045616628296 L 612.8000000000001,70.0833448093507 L 628,71.98250681201064 L 643.1999999999999,70.68218512049269 L 658.4,67.22703784728279 L 673.6,64.39287627995466 L 688.8,64.45662150097444 L 704,67.367061596625 L 719.2,70.78599450763247 L 734.4,71.96670299869498 L 749.6,69.96062433205677 L 764.8,66.37941073736125 L 780,64.10015321343381"
      stroke="url(#thread-4)"
      stroke-width="7.396"
      stroke-linecap="round"
      fill="none"
      opacity="0.8285714285714285"
      class="thread"
      style="animation-delay: 0.4s"
    >
      <title>2026-01-01: 3698 stars, Rust, Python, JavaScript, TypeScript, Jupyter Notebook, Go, Shell</title>
    </path>

    <path
      d="M 20,82.39388857641583 L 35.2,78.85974570156826 L 50.400000000000006,76.24396262180962 L 65.6,76.65328869684686 L 80.80000000000001,79.75805307087812 L 96,83.05768128585817 L 111.2,83.89465572001932 L 126.4,81.59487791049408 L 141.60000000000002,78.01058685415396 L 156.79999999999998,76.0285673713384 L 172,77.24513618596079 L 187.2,80.68046985964885 L 202.4,83.56775371521232 L 217.6,83.58157191023284 L 232.8,80.71079528276381 L 248,77.26754476843735 L 263.20000000000005,76.02501126083367 L 278.40000000000003,77.98393013889718 L 293.59999999999997,81.56658988518082 L 308.8,83.88751953500991 L 324,83.0774444181952 L 339.2,79.78879831140193 L 354.4,76.67025385625787 L 369.6,76.23348397584758 L 384.8,78.83026274234624 L 400,82.36914685299861 L 415.2,83.99992220102868 L 430.40000000000003,82.40916377544306 L 445.6,78.8780669935851 L 460.79999999999995,76.25057405456445 L 476,76.64286542829495 L 491.2,79.7389899922158 L 506.40000000000003,83.0453317836398 L 521.6,83.8989660723184 L 536.8000000000001,81.61237656341285 L 552,78.02718040823679 L 567.1999999999999,76.03089139292493 L 582.4,77.23131891013779 L 597.6,80.66163970804202 L 612.8000000000001,83.55907647513327 L 628,83.59003622310294 L 643.1999999999999,80.72958399854593 L 658.4,77.28152547219612 L 673.6,76.02292390622966 L 688.8,77.96745587946698 L 704,81.54899707477793 L 719.2,83.8829774074437 L 734.4,83.08961119895687 L 749.6,79.80787488611625 L 764.8,76.68087596866225 L 780,76.22709658608422"
      stroke="url(#thread-5)"
      stroke-width="7.406"
      stroke-linecap="round"
      fill="none"
      opacity="0.7857142857142857"
      class="thread"
      style="animation-delay: 0.5s"
    >
      <title>2025-12-31: 3703 stars, Go, Python, TypeScript, Rust, Shell</title>
    </path>

    <path
      d="M 20,92.56448003223947 L 35.2,88.76297459049243 L 50.400000000000006,88.40971412011757 L 65.6,91.88100973593559 L 80.80000000000001,95.47905986486222 L 96,95.37103754564612 L 111.2,91.67201367576584 L 126.4,88.32237760800086 L 141.60000000000002,88.89033294454494 L 156.79999999999998,92.770864622047 L 172,95.83023189077582 L 187.2,94.80944031436097 L 202.4,90.79588927182898 L 217.6,88.06501854165903 L 232.8,89.52589125172089 L 248,93.62231109861514 L 263.20000000000005,95.99056221647494 L 278.40000000000003,94.10786242876219 L 293.59999999999997,89.9797598094945 L 308.8,88.00372033357246 L 324,90.28472228323872 L 339.2,94.3929257568586 L 354.4,95.95206236689465 L 369.6,93.30126007958147 L 384.8,89.26428902365588 L 400,88.14153717330068 L 415.2,91.12901720444822 L 430.40000000000003,95.04431264170653 L 445.6,95.71665060102329 L 460.79999999999995,92.42982231231377 L 476,88.68512532023652 L 491.2,88.4716023225464 L 506.40000000000003,92.0167089335536 L 521.6,95.5440163342321 L 536.8000000000001,95.29605633444994 L 552,91.53696860386776 L 567.1999999999999,88.27112559067668 L 582.4,88.97747025110156 L 597.6,92.90356813831602 L 612.8000000000001,95.86713904625839 L 628,94.71123572001918 L 643.1999999999999,90.66718548263697 L 658.4,88.04291741433201 L 673.6,89.63393603709133 L 688.8,93.74540696710822 L 704,95.99758115523007 L 719.2,93.9913275053476 L 734.4,89.86380998262005 L 749.6,88.01187128719816 L 764.8,90.40829120481416 L 780,94.50028071319323"
      stroke="url(#thread-6)"
      stroke-width="8"
      stroke-linecap="round"
      fill="none"
      opacity="0.7428571428571429"
      class="thread"
      style="animation-delay: 0.6000000000000001s"
    >
      <title>2025-12-30: 4315 stars, Go, Shell, Rust, Python, Swift, TypeScript</title>
    </path>

    <path
      d="M 20,102.59686708924153 L 35.2,100.2981439535027 L 50.400000000000006,100.37304851600786 L 65.6,102.77355201981617 L 80.80000000000001,105.96045317379085 L 96,107.89031302308724 L 111.2,107.32570668286866 L 126.4,104.6286593726233 L 141.60000000000002,101.52851608001764 L 156.79999999999998,100.01308667540485 L 172,101.05406351103777 L 187.2,103.98397291445238 L 202.4,106.92415887473472 L 217.6,107.98937605936634 L 232.8,106.4966078998128 L 248,103.40301637267922 L 263.20000000000005,100.6922103605436 L 278.40000000000003,100.10235692180886 L 293.59999999999997,102.01166969917193 L 308.8,105.19589857700541 L 324,107.6133180621948 L 339.2,107.71388034730313 L 354.4,105.43310496028244 L 369.6,102.23342360136805 L 384.8,100.16646988453051 L 400,100.55757319363829 L 415.2,103.15595834032294 L 430.40000000000003,106.29554245226099 L 445.6,107.96322623130055 L 460.79999999999995,107.0896919189659 L 476,104.23504915028344 L 491.2,101.22969301874902 L 506.40000000000003,100.00065592845822 L 521.6,101.33599566530029 L 536.8000000000001,104.37949325530047 L 552,107.17966001591026 L 567.1999999999999,107.94103083471009 L 582.4,106.17541523604706 L 597.6,103.01492479768059 L 612.8000000000001,100.48606394072124 L 628,100.21033660797184 L 643.1999999999999,102.3645389865224 L 658.4,105.56739790715048 L 673.6,107.7652423053737 L 688.8,107.54881577723513 L 704,105.05689087233475 L 719.2,101.8872882249493 L 734.4,100.07235499870774 L 749.6,100.77582520221542 L 764.8,103.54663419682569 L 780,106.60814105065432"
      stroke="url(#thread-7)"
      stroke-width="6.556"
      stroke-linecap="round"
      fill="none"
      opacity="0.7"
      class="thread"
      style="animation-delay: 0.7000000000000001s"
    >
      <title>2025-12-29: 3278 stars, Shell, Go, JavaScript, TypeScript, Rust, Python</title>
    </path>

    <path
      d="M 20,112.9727900187683 L 35.2,112.11598165523041 L 50.400000000000006,114.53263879523564 L 65.6,118.18599356605975 L 80.80000000000001,119.99698460574955 L 96,118.43930174544772 L 111.2,114.82576605241955 L 126.4,112.2018792176853 L 141.60000000000002,112.77906309260418 L 156.79999999999998,116.07086490171679 L 172,119.30294150085601 L 187.2,119.75128638105701 L 202.4,117.03803276396006 L 217.6,113.4499211666101 L 232.8,112.01102575503295 L 248,113.93405308076876 L 263.20000000000005,117.59826836493988 L 278.40000000000003,119.91545696344139 L 293.59999999999997,118.93268347044217 L 308.8,115.47823314145907 L 324,112.46352991475878 L 339.2,112.42937719033375 L 354.4,115.40455901484222 L 369.6,118.881580777088 L 384.8,119.929995248595 L 400,117.66619470631655 L 415.2,113.99811889827927 L 430.40000000000003,112.01723613285532 L 445.6,113.393041974583 L 460.79999999999995,116.96600200248476 L 476,119.72481185116666 L 491.2,119.34433603751322 L 506.40000000000003,116.1452410312398 L 521.6,112.82373632880655 L 536.8000000000001,112.17919878637927 L 552,114.7548471077819 L 567.1999999999999,118.37991504503205 L 582.4,119.99918148760935 L 597.6,118.24792248976833 L 612.8000000000001,114.60210582723327 L 628,112.1344397154849 L 643.1999999999999,112.92468258356064 L 658.4,116.30681472237482 L 673.6,119.4303622406952 L 688.8,119.66278735360926 L 704,116.8082012877527 L 719.2,113.27246008807954 L 734.4,112.03549994932291 L 749.6,114.13983560340482 L 764.8,117.81192491945728 L 780,119.95691698921563"
      stroke="url(#thread-8)"
      stroke-width="7.59"
      stroke-linecap="round"
      fill="none"
      opacity="0.6571428571428573"
      class="thread"
      style="animation-delay: 0.8s"
    >
      <title>2025-12-28: 3795 stars, Shell, Rust, Python, JavaScript, TypeScript</title>
    </path>

    <path
      d="M 20,124.08987952933961 L 35.2,126.33237674016674 L 50.400000000000006,131.18992330130993 L 65.6,131.04525679816504 L 80.80000000000001,126.12523305253167 L 96,124.14508679964881 L 111.2,128.20994393746648 L 126.4,131.94558177827736 L 141.60000000000002,129.4940361500026 L 156.79999999999998,124.69964825182353 L 172,125.08063953116103 L 187.2,130.03956629584252 L 202.4,131.80018883598186 L 217.6,127.60162287955013 L 232.8,124.02776386689023 L 248,126.68288580537708 L 263.20000000000005,131.4034134634298 L 278.40000000000003,130.78694782043627 L 293.59999999999997,125.8001868818942 L 308.8,124.26301794885968 L 324,128.5859210838739 L 339.2,131.9900240398392 L 354.4,129.1372523020741 L 369.6,124.50112159749915 L 384.8,125.35168558810946 L 400,130.35514972652618 L 415.2,131.66543393000657 L 430.40000000000003,127.22784279007844 L 445.6,124.0010942060098 L 460.79999999999995,127.04514805701558 L 476,131.58653347762245 L 491.2,130.50376968752502 L 506.40000000000003,125.49477060651542 L 521.6,124.41429582450101 L 536.8000000000001,128.95666980000618 L 552,131.998861570555 L 567.1999999999999,128.77032025410597 L 582.4,124.3338169665361 L 597.6,125.64636371365938 L 612.8000000000001,130.64971712540708 L 628,131.49797075280065 L 643.1999999999999,126.86095299734576 L 658.4,124.01010853175504 L 673.6,127.41593087045729 L 688.8,131.73764928385393 L 704,130.1982493218516 L 719.2,125.21170958949396 L 734.4,124.59757050787768 L 749.6,129.3188817328014 L 764.8,131.97201550927022 L 780,128.39651430135962"
      stroke="url(#thread-9)"
      stroke-width="8"
      stroke-linecap="round"
      fill="none"
      opacity="0.6142857142857143"
      class="thread"
      style="animation-delay: 0.9s"
    >
      <title>2025-12-27: 5384 stars, Shell, Python, Rust, C, Go</title>
    </path>

    <path
      d="M 20,136.16430290134744 L 35.2,138.71371973533812 L 50.400000000000006,142.3514402058315 L 65.6,143.99964019829923 L 80.80000000000001,142.2638008860393 L 96,138.61259149131746 L 111.2,136.13524891768913 L 126.4,136.92781786537472 L 141.60000000000002,140.31971689762017 L 156.79999999999998,143.4411079605757 L 172,143.65102598769386 L 187.2,140.7718622893628 L 202.4,137.23963676658275 L 217.6,136.04291574272773 L 232.8,138.19422804057567 L 248,141.87337858964074 L 263.20000000000005,143.9674898687546 L 278.40000000000003,142.70476378467674 L 293.59999999999997,139.15357511307857 L 308.8,136.318534630775 L 324,136.59833020641202 L 339.2,139.7562307396154 L 354.4,143.12038101467724 L 369.6,143.84442081083046 L 384.8,141.31575024236253 L 400,137.67384190384388 L 415.2,136.00006320602395 L 430.40000000000003,137.71057475836136 L 445.6,141.3581367999491 L 460.79999999999995,143.85659840140744 L 476,143.09204635017213 L 491.2,139.71135738105315 L 506.40000000000003,136.57488487119238 L 521.6,136.3363540871977 L 536.8000000000001,139.197582569749 L 552,142.73772515160417 L 567.1999999999999,143.9615169970832 L 582.4,141.83352504206513 L 597.6,138.15421334303878 L 612.8000000000001,136.03659576788752 L 628,137.27235875624197 L 643.1999999999999,140.81594062840463 L 658.4,143.66916661355037 L 673.6,143.41796234491252 L 688.8,140.2748682202367 L 704,136.89921196127264 L 719.2,136.14708883990053 L 734.4,138.6548596482236 L 749.6,142.30073478471158 L 764.8,143.99999058665816 L 780,142.31491062521584"
      stroke="url(#thread-10)"
      stroke-width="7.606"
      stroke-linecap="round"
      fill="none"
      opacity="0.5714285714285714"
      class="thread"
      style="animation-delay: 1s"
    >
      <title>2025-12-26: 3803 stars, Python, Shell, Go, TypeScript</title>
    </path>

    <path
      d="M 20,149.17783869771844 L 35.2,152.3962499788316 L 50.400000000000006,155.32562970548477 L 65.6,155.82923788719333 L 80.80000000000001,153.53973404856546 L 96,150.12712169438865 L 111.2,148.08061901063104 L 126.4,148.8929802773992 L 141.60000000000002,151.9716552050769 L 156.79999999999998,155.07100531401676 L 172,155.9303112915161 L 187.2,153.9227805679809 L 202.4,150.5127406049811 L 217.6,148.18753324208654 L 232.8,148.64320474918202 L 248,151.54738048638163 L 263.20000000000005,154.78170468689672 L 278.40000000000003,155.98700561257627 L 293.59999999999997,154.2841160236681 L 308.8,150.91515289493435 L 324,148.33749591605357 L 339.2,148.4313324517478 L 354.4,151.1282165178512 L 369.6,154.4609944601915 L 384.8,155.99868068683259 L 400,154.6196603987825 L 415.2,151.32981472860868 L 430.40000000000003,148.5288137300172 L 445.6,148.2597557397046 L 460.79999999999995,150.71889628659034 L 476,154.1124959312484 L 491.2,155.96520468526333 L 506.40000000000003,154.92562489629066 L 521.6,151.75204395472457 L 536.8000000000001,148.75932642018006 L 552,148.13041197033138 L 567.1999999999999,150.32404162921117 L 582.4,153.7401441688408 L 597.6,155.88695560191294 L 612.8000000000001,155.1985547201465 L 628,152.17707297484216 L 643.1999999999999,149.02643115406633 L 658.4,148.04476162792187 L 673.6,149.94811104439646 L 688.8,153.3481435803658 L 704,155.76481698577476 L 719.2,155.43536808509697 L 734.4,152.60010257666661 L 749.6,149.32711192038678 L 764.8,148.00377183273582 L 780,149.59534934979231"
      stroke="url(#thread-11)"
      stroke-width="7.022"
      stroke-linecap="round"
      fill="none"
      opacity="0.5285714285714286"
      class="thread"
      style="animation-delay: 1.1s"
    >
      <title>2025-12-25: 3511 stars, Python, TypeScript</title>
    </path>

    <path
      d="M 20,162.88233800720428 L 35.2,165.7133359433708 L 50.400000000000006,167.68062887519397 L 65.6,167.79249024910487 L 80.80000000000001,165.99252993985493 L 96,163.1881209192969 L 111.2,160.79298599798256 L 126.4,160.01452996165798 L 141.60000000000002,161.24517811187377 L 156.79999999999998,163.86455184159735 L 172,166.55220596472196 L 187.2,167.9532746564405 L 202.4,167.3614690858041 L 217.6,165.0751227086272 L 232.8,162.24679922105503 L 248,160.30227688891435 L 263.20000000000005,160.2218034422697 L 278.40000000000003,162.04594612588866 L 293.59999999999997,164.85514145861387 L 308.8,167.23325381541486 L 324,167.98145960807068 L 339.2,166.7225829010061 L 354.4,164.0912325203243 L 369.6,161.41389116824672 L 384.8,160.04022592732767 L 400,160.66271135135494 L 415.2,162.9675480491797 L 430.40000000000003,165.7928512206799 L 445.6,167.71436516314085 L 460.79999999999995,167.76344084165478 L 476,165.91533885278596 L 491.2,163.10170073624457 L 506.40000000000003,160.74090175642093 L 521.6,160.0230377033506 L 536.8000000000001,161.309989022882 L 552,163.9529942743144 L 567.1999999999999,166.61969545103483 L 582.4,167.9657892596155 L 597.6,167.31270010413476 L 612.8000000000001,164.98965493745828 L 628,162.16771758016205 L 643.1999999999999,160.26944700374875 L 658.4,160.25177509468793 L 673.6,162.1236103897736 L 688.8,164.94134721848496 L 704,167.28454412606993 L 719.2,167.97197865404135 L 734.4,166.6571100995881 L 749.6,164.00277318285302 L 764.8,161.34703828464365 L 780,160.0286805183098"
      stroke="url(#thread-12)"
      stroke-width="5.776"
      stroke-linecap="round"
      fill="none"
      opacity="0.48571428571428577"
      class="thread"
      style="animation-delay: 1.2000000000000002s"
    >
      <title>2025-12-24: 2888 stars, Python, TypeScript</title>
    </path>

    <path
      d="M 20,176.86047995235126 L 35.2,179.23646871403952 L 50.400000000000006,179.98093025800247 L 65.6,178.7185761514317 L 80.80000000000001,176.08576820259782 L 96,173.4097238843386 L 111.2,172.03945643510733 L 126.4,172.66572755739963 L 141.60000000000002,174.9728294622717 L 156.79999999999998,177.7977354423939 L 172,179.71639002208954 L 187.2,179.76158559184034 L 202.4,177.9105387390185 L 217.6,175.0963755304891 L 232.8,172.73773593330012 L 248,172.02362717712924 L 263.20000000000005,173.3140366355774 L 278.40000000000003,175.95845959517848 L 293.59999999999997,178.62382337240822 L 308.8,179.9664988665664 L 324,179.3096336786821 L 339.2,176.98435828678546 L 354.4,174.1628607840687 L 369.6,172.2674784081691 L 384.8,172.2536870828497 L 400,174.12843911465663 L 415.2,176.94665848505454 L 430.40000000000003,179.2876604865475 L 445.6,179.97132912863734 L 460.79999999999995,178.6530221187425 L 476,175.99730752718958 L 491.2,173.34295023059647 L 506.40000000000003,172.02803088340409 L 521.6,172.71540981074136 L 536.8000000000001,175.0585743384778 L 552,177.87631833104132 L 567.1999999999999,179.74819672233045 L 582.4,179.7305821167173 L 597.6,177.83235416391477 L 612.8000000000001,175.01042326352282 L 628,172.6873451320721 L 643.1999999999999,172.03420020791907 L 658.4,173.38024355731918 L 673.6,176.04692502118763 L 688.8,178.68995124348749 L 704,179.9769536460402 L 719.2,179.2591450368257 L 734.4,176.8983779120448 L 749.6,174.08473200337633 L 764.8,172.23658650327806 L 780,172.28560488578475"
      stroke="url(#thread-13)"
      stroke-width="5.776"
      stroke-linecap="round"
      fill="none"
      opacity="0.44285714285714284"
      class="thread"
      style="animation-delay: 1.3s"
    >
      <title>2025-12-23: 2888 stars, Python, TypeScript</title>
    </path>
  </g>

  <!-- Date markers -->
  <g id="dates">
    <text x="785" y="24" class="date-label">01-05</text>
<text x="785" y="108" class="date-label">12-29</text>
  </g>

</svg>