<?xml version="1.0" encoding="UTF-8"?>
<svg xmlns="http://www.w3.org/2000/svg" viewBox="0 0 800 316" width="800" height="316">
  <title>The Data Tapestry - GitHub Trends Woven in Time</title>
  <desc>A living data art piece that weaves daily GitHub trending repositories into an evolving tapestry. Each thread represents one day of open source activity.</desc>

  <style>
    .thread {
      animation: breathe 8s ease-in-out infinite alternate;
    }

    @keyframes breathe {
      0% {
        opacity: 0.85;
      }
      100% {
        opacity: 1;
      }
    }

    .date-label {
      font-family: ui-monospace, monospace;
      font-size: 8px;
      fill: #666;
    }

    .title {
      font-family: system-ui, sans-serif;
      font-size: 14px;
      fill: #333;
      font-weight: 600;
    }

    .subtitle {
      font-family: system-ui, sans-serif;
      font-size: 10px;
      fill: #888;
    }

    .empty-state {
      font-family: system-ui, sans-serif;
      font-size: 12px;
      fill: #999;
      text-anchor: middle;
    }
  </style>

  <defs>
    
    <linearGradient id="thread-0" x1="0%" y1="0%" x2="100%" y2="0%">
      <stop offset="0%" stop-color="#3178c6" />
      <stop offset="50%" stop-color="#89e051" />
      <stop offset="100%" stop-color="#3572A5" />
    </linearGradient>

    <linearGradient id="thread-1" x1="0%" y1="0%" x2="100%" y2="0%">
      <stop offset="0%" stop-color="#3572A5" />
      <stop offset="50%" stop-color="#3178c6" />
      <stop offset="100%" stop-color="#89e051" />
    </linearGradient>

    <linearGradient id="thread-2" x1="0%" y1="0%" x2="100%" y2="0%">
      <stop offset="0%" stop-color="#3178c6" />
      <stop offset="50%" stop-color="#3572A5" />
      <stop offset="100%" stop-color="#8b8b8b" />
    </linearGradient>

    <linearGradient id="thread-3" x1="0%" y1="0%" x2="100%" y2="0%">
      <stop offset="0%" stop-color="#3178c6" />
      <stop offset="50%" stop-color="#89e051" />
      <stop offset="100%" stop-color="#3572A5" />
    </linearGradient>

    <linearGradient id="thread-4" x1="0%" y1="0%" x2="100%" y2="0%">
      <stop offset="0%" stop-color="#3572A5" />
      <stop offset="50%" stop-color="#3178c6" />
      <stop offset="100%" stop-color="#89e051" />
    </linearGradient>

    <linearGradient id="thread-5" x1="0%" y1="0%" x2="100%" y2="0%">
      <stop offset="0%" stop-color="#3572A5" />
      <stop offset="50%" stop-color="#3178c6" />
      <stop offset="100%" stop-color="#8b8b8b" />
    </linearGradient>

    <linearGradient id="thread-6" x1="0%" y1="0%" x2="100%" y2="0%">
      <stop offset="0%" stop-color="#3572A5" />
      <stop offset="50%" stop-color="#3178c6" />
      <stop offset="100%" stop-color="#8b8b8b" />
    </linearGradient>

    <linearGradient id="thread-7" x1="0%" y1="0%" x2="100%" y2="0%">
      <stop offset="0%" stop-color="#3178c6" />
      <stop offset="50%" stop-color="#3572A5" />
      <stop offset="100%" stop-color="#dea584" />
    </linearGradient>

    <linearGradient id="thread-8" x1="0%" y1="0%" x2="100%" y2="0%">
      <stop offset="0%" stop-color="#3572A5" />
      <stop offset="50%" stop-color="#3178c6" />
      <stop offset="100%" stop-color="#00ADD8" />
    </linearGradient>

    <linearGradient id="thread-9" x1="0%" y1="0%" x2="100%" y2="0%">
      <stop offset="0%" stop-color="#3572A5" />
      <stop offset="50%" stop-color="#00ADD8" />
      <stop offset="100%" stop-color="#3178c6" />
    </linearGradient>

    <linearGradient id="thread-10" x1="0%" y1="0%" x2="100%" y2="0%">
      <stop offset="0%" stop-color="#3572A5" />
      <stop offset="50%" stop-color="#3178c6" />
      <stop offset="100%" stop-color="#00ADD8" />
    </linearGradient>

    <linearGradient id="thread-11" x1="0%" y1="0%" x2="100%" y2="0%">
      <stop offset="0%" stop-color="#3572A5" />
      <stop offset="50%" stop-color="#00ADD8" />
      <stop offset="100%" stop-color="#DA5B0B" />
    </linearGradient>

    <linearGradient id="thread-12" x1="0%" y1="0%" x2="100%" y2="0%">
      <stop offset="0%" stop-color="#3572A5" />
      <stop offset="50%" stop-color="#3178c6" />
      <stop offset="100%" stop-color="#dea584" />
    </linearGradient>

    <linearGradient id="thread-13" x1="0%" y1="0%" x2="100%" y2="0%">
      <stop offset="0%" stop-color="#dea584" />
      <stop offset="50%" stop-color="#3572A5" />
      <stop offset="100%" stop-color="#3178c6" />
    </linearGradient>

    <linearGradient id="thread-14" x1="0%" y1="0%" x2="100%" y2="0%">
      <stop offset="0%" stop-color="#3572A5" />
      <stop offset="50%" stop-color="#3178c6" />
      <stop offset="100%" stop-color="#dea584" />
    </linearGradient>

    <linearGradient id="thread-15" x1="0%" y1="0%" x2="100%" y2="0%">
      <stop offset="0%" stop-color="#3572A5" />
      <stop offset="50%" stop-color="#dea584" />
      <stop offset="100%" stop-color="#3178c6" />
    </linearGradient>

    <linearGradient id="thread-16" x1="0%" y1="0%" x2="100%" y2="0%">
      <stop offset="0%" stop-color="#3572A5" />
      <stop offset="50%" stop-color="#3178c6" />
      <stop offset="100%" stop-color="#89e051" />
    </linearGradient>

    <linearGradient id="thread-17" x1="0%" y1="0%" x2="100%" y2="0%">
      <stop offset="0%" stop-color="#3572A5" />
      <stop offset="50%" stop-color="#f1e05a" />
      <stop offset="100%" stop-color="#89e051" />
    </linearGradient>

    <linearGradient id="thread-18" x1="0%" y1="0%" x2="100%" y2="0%">
      <stop offset="0%" stop-color="#3572A5" />
      <stop offset="50%" stop-color="#89e051" />
      <stop offset="100%" stop-color="#dea584" />
    </linearGradient>

    <linearGradient id="thread-19" x1="0%" y1="0%" x2="100%" y2="0%">
      <stop offset="0%" stop-color="#3572A5" />
      <stop offset="50%" stop-color="#89e051" />
      <stop offset="100%" stop-color="#00ADD8" />
    </linearGradient>

    <linearGradient id="thread-20" x1="0%" y1="0%" x2="100%" y2="0%">
      <stop offset="0%" stop-color="#3572A5" />
      <stop offset="50%" stop-color="#3178c6" />
      <stop offset="100%" stop-color="#3572A5" />
    </linearGradient>

    <linearGradient id="thread-21" x1="0%" y1="0%" x2="100%" y2="0%">
      <stop offset="0%" stop-color="#3572A5" />
      <stop offset="50%" stop-color="#3178c6" />
      <stop offset="100%" stop-color="#3572A5" />
    </linearGradient>

    <linearGradient id="thread-22" x1="0%" y1="0%" x2="100%" y2="0%">
      <stop offset="0%" stop-color="#3572A5" />
      <stop offset="50%" stop-color="#3178c6" />
      <stop offset="100%" stop-color="#3572A5" />
    </linearGradient>

    <!-- Background pattern -->
    <pattern id="loom" patternUnits="userSpaceOnUse" width="20" height="20">
      <rect width="20" height="20" fill="#fafafa"/>
      <circle cx="10" cy="10" r="0.5" fill="#eee"/>
    </pattern>
  </defs>

  <!-- Background -->
  <rect width="100%" height="100%" fill="url(#loom)"/>

  <!-- Threads -->
  <g id="tapestry">
    
    <path
      d="M 20,20 L 35.2,23.37892675741415 L 50.400000000000006,23.61673585558154 L 65.6,20.49235521706099 L 80.80000000000001,16.910271355604614 L 96,16.200460823511015 L 111.2,19.02277763868285 L 126.4,22.753539838001817 L 141.60000000000002,23.924556522977024 L 156.79999999999998,21.44722724366466 L 172,17.624526673884613 L 187.2,16.010113453736544 L 202.4,18.104778289619002 L 217.6,21.9612790012283 L 232.8,23.99453566294801 L 248,22.31439235710546 L 263.20000000000005,18.48274378783033 L 278.40000000000003,16.061566833895952 L 293.59999999999997,17.301635848276078 L 308.8,21.050157959326707 L 324,23.822432300637566 L 339.2,23.041297390190486 L 354.4,19.432911809575202 L 369.6,16.351702713441288 L 384.8,16.662023489284124 L 400,20.075393758861637 L 415.2,23.41867648752467 L 430.40000000000003,23.58388941557639 L 445.6,20.417447312232948 L 460.79999999999995,16.862937867274965 L 476,16.22470390583705 L 491.2,19.096060439144242 L 506.40000000000003,22.807737204686575 L 521.6,23.909285503604625 L 536.8000000000001,21.376684082211106 L 552,17.564289699236358 L 567.1999999999999,16.016180158112668 L 582.4,18.17150894371569 L 597.6,22.026639458985304 L 612.8000000000001,23.997765540131972 L 628,22.25248909551131 L 643.1999999999999,18.413253893232945 L 658.4,16.049089497319535 L 673.6,17.357770250488485 L 688.8,21.122720441213783 L 704,23.843967332790694 L 719.2,22.991785577504334 L 734.4,19.358380319945212 L 749.6,16.321437505118233 L 764.8,16.704159703142476 L 780,20.15076073067975"
      stroke="url(#thread-0)"
      stroke-width="8"
      stroke-linecap="round"
      fill="none"
      opacity="1"
      class="thread"
      style="animation-delay: 0s"
    >
      <title>2026-01-14: 4003 stars, TypeScript, Shell, Python, C, HTML, Jupyter Notebook</title>
    </path>

    <path
      d="M 20,33.917702154416816 L 35.2,35.921725205345695 L 50.400000000000006,32.414010986735164 L 65.6,28.324430455187535 L 80.80000000000001,29.400630947591353 L 96,34.130080592668826 L 111.2,35.8658363976649 L 126.4,32.16840312508168 L 141.60000000000002,28.23428988839634 L 156.79999999999998,29.59264455336698 L 172,34.33438536639036 L 187.2,35.79529487387942 L 202.4,31.922156963477274 L 217.6,28.158422528104836 L 232.8,29.793782781163316 L 248,34.529842097273516 L 263.20000000000005,35.71036800819118 L 278.40000000000003,31.67620585106727 L 293.59999999999997,28.097115935083213 L 308.8,30.00328325486131 L 324,34.715709943830525 L 339.2,35.61137769969901 L 354.4,31.43148201866933 L 369.6,28.05060248028837 L 384.8,30.22035190284255 L 400,34.89128440941218 L 415.2,35.498699152301405 L 430.40000000000003,31.18891304533003 L 445.6,28.01905846410604 L 460.79999999999995,30.444165967766313 L 476,35.05590001246805 L 491.2,35.372759452557744 L 506.40000000000003,30.949418342513464 L 521.6,28.00260344811784 L 536.8000000000001,30.6738771250746 L 552,35.20893280892766 L 567.1999999999999,35.234035950898004 L 582.4,30.71390566924715 L 597.6,28.001299801925825 L 612.8000000000001,30.908614698404467 L 628,35.34980275714139 L 643.1999999999999,35.083054452316986 L 658.4,30.483267691434573 L 673.6,28.01515246675244 L 688.8,31.147488959721144 L 704,35.47797591641786 L 719.2,34.92038722341055 L 734.4,30.25837859837496 L 749.6,28.044108936711737 L 764.8,31.38959450166234 L 780,35.5929664708244"
      stroke="url(#thread-1)"
      stroke-width="8"
      stroke-linecap="round"
      fill="none"
      opacity="0.9739130434782609"
      class="thread"
      style="animation-delay: 0.1s"
    >
      <title>2026-01-13: 5049 stars, TypeScript, Shell, C, Rust, Python</title>
    </path>

    <path
      d="M 20,47.36588393923159 L 35.2,47.75705361786227 L 50.400000000000006,45.179645325249986 L 65.6,41.670158472521386 L 80.80000000000001,40.00155996966292 L 96,41.49226718896991 L 111.2,44.96442081223398 L 126.4,47.674552204940944 L 141.60000000000002,47.48129284540823 L 156.79999999999998,44.537343635938036 L 172,41.16882063996413 L 187.2,40.03731035013904 L 202.4,42.03685817072311 L 217.6,45.58755223024026 L 232.8,47.88386637979744 L 248,47.111403410097516 L 263.20000000000005,43.880513022978626 L 278.40000000000003,40.744033427909564 L 293.59999999999997,40.18020560311542 L 308.8,42.6345294084598 L 324,46.16775874210292 L 339.2,47.98816693894318 L 354.4,46.65738653834134 L 369.6,43.22691314925181 L 384.8,40.407282411988604 L 400,40.42638206653073 L 415.2,43.26912081541505 L 430.40000000000003,46.68935247967423 L 445.6,47.98463375991116 L 460.79999999999995,46.13151812962605 L 476,42.59421632354894 L 491.2,40.16767280806554 L 506.40000000000003,40.76918351743646 L 521.6,43.92347404173161 L 536.8000000000001,47.13823037169525 L 552,47.8733623742848 L 567.1999999999999,45.54801683557015 L 582.4,41.999529669241056 L 597.6,40.03168328157487 L 612.8000000000001,41.19934114575773 L 628,44.579896409153335 L 643.1999999999999,47.50225546857911 L 658.4,47.6573613846748 L 673.6,44.92265961003064 L 688.8,41.45893257466875 L 704,40.002990774635364 L 719.2,41.70522416828574 L 734.4,45.22063929311504 L 749.6,47.77158510636808 L 764.8,47.342471116853915 L 780,44.27235512517665"
      stroke="url(#thread-2)"
      stroke-width="7.33"
      stroke-linecap="round"
      fill="none"
      opacity="0.9478260869565218"
      class="thread"
      style="animation-delay: 0.2s"
    >
      <title>2026-01-12: 3665 stars, TypeScript, Unknown, Python, Shell, C</title>
    </path>

    <path
      d="M 20,59.98997994641622 L 35.2,58.76277906013568 L 50.400000000000006,55.5342829719622 L 65.6,52.64314185621497 L 80.80000000000001,52.183633509633985 L 96,54.488615475014264 L 111.2,57.88841050080649 L 126.4,59.92028330328396 L 141.60000000000002,59.112390784629326 L 156.79999999999998,56.049952170135754 L 172,52.95132932366385 L 187.2,52.06109515536718 L 202.4,54.02411533520843 L 217.6,57.4184220613387 L 232.8,59.7852556512433 L 248,59.4101349234547 L 263.20000000000005,56.564788921922236 L 278.40000000000003,53.310322489503875 L 293.59999999999997,52.00419813556171 L 308.8,53.592543055113495 L 324,56.92479580359193 L 339.2,59.58714720846875 L 354.4,59.651049609450354 L 369.6,57.070213540137004 L 384.8,53.71413877954307 L 400,52.01389063161678 L 415.2,53.20109073037516 L 430.40000000000003,56.41575794463962 L 445.6,59.32925942626845 L 460.79999999999995,59.83112003085925 L 476,57.55780318957134 L 491.2,54.15604864808253 L 506.40000000000003,52.09001111935234 L 521.6,52.856281862826386 L 536.8000000000001,55.899791533875195 L 552,59.01588997082943 L 567.1999999999999,59.94734533764198 L 582.4,58.01943225244034 L 597.6,54.6286877249162 L 612.8000000000001,52.23129106078846 L 628,52.56386264718188 L 643.1999999999999,55.38549508410249 L 658.4,58.65226110317241 L 673.6,59.99778865025047 L 688.8,58.447407740741546 L 704,55.12417954159767 L 719.2,52.4353760441649 L 734.4,52.32870621145416 L 749.6,54.88143927844374 L 764.8,58.24443265085439 L 780,59.981609337472506"
      stroke="url(#thread-3)"
      stroke-width="6.996"
      stroke-linecap="round"
      fill="none"
      opacity="0.9217391304347826"
      class="thread"
      style="animation-delay: 0.30000000000000004s"
    >
      <title>2026-01-11: 3498 stars, TypeScript, Unknown, Shell, Python</title>
    </path>

    <path
      d="M 20,71.63718970730272 L 35.2,68.68053811788994 L 50.400000000000006,65.1315225457974 L 65.6,64.07932924468506 L 80.80000000000001,66.43982375978997 L 96,70.15834979001218 L 111.2,71.99817329936486 L 126.4,70.3578480899375 L 141.60000000000002,66.66517011966873 L 156.79999999999998,64.13437437660659 L 172,64.96835325766415 L 187.2,68.44118261771666 L 202.4,71.52999132462774 L 217.6,71.54617314273955 L 232.8,68.47564285629157 L 248,64.99109652977276 L 263.20000000000005,64.12560414934168 L 278.40000000000003,66.63252030304221 L 293.59999999999997,70.32973821681936 L 308.8,71.99907117832475 L 324,70.18747387605997 L 339.2,66.47182343824345 L 354.4,64.08635088549049 L 369.6,65.10745426924797 L 384.8,68.6463297867167 L 400,71.62261743949514 L 415.2,71.44565322030193 L 430.40000000000003,68.26947292363181 L 445.6,64.85873404740431 L 460.79999999999995,64.18226201298927 L 476,66.82888154297537 L 491.2,70.49488319889416 L 506.40000000000003,71.9892519819916 L 521.6,70.01123747039188 L 536.8000000000001,66.28257210359821 L 552,64.04881554783813 L 567.1999999999999,65.25430698841654 L 582.4,68.84974486226822 L 597.6,71.70553533409695 L 612.8000000000001,71.3358993224363 L 628,68.06258083288003 L 643.1999999999999,64.73478981573166 L 658.4,64.24915099872281 L 673.6,67.02838125284846 L 688.8,70.6533421656675 L 704,71.96874202474237 L 719.2,69.82961116730986 L 734.4,66.09792328870208 L 749.6,64.02186895426716 L 764.8,65.40851786587352 L 780,69.05088271411881"
      stroke="url(#thread-4)"
      stroke-width="7.724"
      stroke-linecap="round"
      fill="none"
      opacity="0.8956521739130434"
      class="thread"
      style="animation-delay: 0.4s"
    >
      <title>2026-01-10: 3862 stars, TypeScript, Unknown, Shell, Python</title>
    </path>

    <path
      d="M 20,82.39388857641583 L 35.2,78.66096628583907 L 50.400000000000006,76.12091622186591 L 65.6,77.03653068274326 L 80.80000000000001,80.59213859976944 L 96,83.6202424797464 L 111.2,83.42326945389942 L 126.4,80.17669206592782 L 141.60000000000002,76.77270933716645 L 156.79999999999998,76.24374413646157 L 172,79.06102275937818 L 187.2,82.71478507938566 L 202.4,83.95009319010067 L 217.6,81.66647835725131 L 232.8,77.89828869437478 L 248,76.00239919713682 L 263.20000000000005,77.66775458892087 L 278.40000000000003,81.41078042848996 L 293.59999999999997,83.8970188002124 L 308.8,82.91161531246276 L 324,79.33241227802509 L 339.2,76.3479267954636 L 354.4,76.61687447828328 L 369.6,79.89966447985185 L 384.8,83.27183793312952 L 400,83.72930912080815 L 415.2,80.86454187073457 L 430.40000000000003,77.22960134165476 L 445.6,76.06265813124648 L 460.79999999999995,78.40327840651389 L 476,82.16633100917149 L 491.2,83.99951727079365 L 506.40000000000003,82.26975136646473 L 521.6,78.51798755594571 L 536.8000000000001,76.08646793741184 L 552,77.14130094466637 L 567.1999999999999,80.74279328638154 L 582.4,83.68257153377508 L 597.6,83.34174731487896 L 612.8000000000001,80.02394236869462 L 628,76.68480846988355 L 643.1999999999999,76.2989981956576 L 658.4,79.21020891225587 L 673.6,82.82500150541604 L 688.8,83.9231540765318 L 704,81.52638229354793 L 719.2,77.76983963556874 L 734.4,76.00002541576725 L 749.6,77.79357075755935 L 764.8,81.55270377308882 L 780,83.92861754068404"
      stroke="url(#thread-5)"
      stroke-width="7.822"
      stroke-linecap="round"
      fill="none"
      opacity="0.8695652173913044"
      class="thread"
      style="animation-delay: 0.5s"
    >
      <title>2026-01-09: 3911 stars, TypeScript, Unknown, Python, Shell</title>
    </path>

    <path
      d="M 20,92.56448003223947 L 35.2,89.11415101427437 L 50.400000000000006,88.06651475168904 L 65.6,90.29380956008403 L 80.80000000000001,93.9416400339146 L 96,95.9729048225283 L 111.2,94.69641869204744 L 126.4,91.17495519480255 L 141.60000000000002,88.3404053878155 L 156.79999999999998,88.55275148765345 L 172,91.6351989225154 L 187.2,95.02137150389834 L 202.4,95.89201833891168 L 217.6,93.52225851613973 L 232.8,89.88510059782107 L 248,88.00876020568165 L 263.20000000000005,89.45543601647806 L 278.40000000000003,93.02065838984561 L 293.59999999999997,95.73610361578456 L 308.8,95.34095326468692 L 324,92.16420060354767 L 339.2,88.8507382245665 L 354.4,88.15928014659204 L 369.6,90.66551876476201 L 384.8,94.28281635100555 L 400,95.99949254799635 L 415.2,94.38628148553656 L 430.40000000000003,90.78630629717986 L 445.6,88.1968251025977 L 460.79999999999995,88.77378152087384 L 476,92.03681465536447 L 491.2,95.26919673840591 L 506.40000000000003,95.77971937622625 L 521.6,93.14333293891913 L 536.8000000000001,89.55503329239143 L 552,88.0023577636097 L 567.1999999999999,89.77802896658184 L 582.4,93.40366312016732 L 597.6,95.8606390291594 L 612.8000000000001,95.10333398569018 L 628,91.76226308273793 L 643.1999999999999,88.61912657330984 L 658.4,88.29082900013393 L 673.6,91.05070351563094 L 688.8,94.60094086611446 L 704,95.98569353354792 L 719.2,94.05204768962903 L 734.4,90.4099132373481 L 749.6,88.09164914832816 L 764.8,89.02738979872566 L 780,92.43805863507397"
      stroke="url(#thread-6)"
      stroke-width="7.54"
      stroke-linecap="round"
      fill="none"
      opacity="0.8434782608695652"
      class="thread"
      style="animation-delay: 0.6000000000000001s"
    >
      <title>2026-01-08: 3770 stars, TypeScript, Unknown, Python, Rust, JavaScript</title>
    </path>

    <path
      d="M 20,102.59686708924153 L 35.2,100.19887451702222 L 50.400000000000006,100.6521183591851 L 65.6,103.61661895624339 L 80.80000000000001,106.8686949036651 L 96,107.96895360440259 L 111.2,106.09208747867925 L 126.4,102.64593982620917 L 141.60000000000002,100.21547705235368 L 156.79999999999998,100.62379707788656 L 172,103.5646177422387 L 187.2,106.83202003433874 L 202.4,107.97511501684669 L 217.6,106.13646347766081 L 232.8,102.69524383258542 L 248,100.23272597283173 L 263.20000000000005,100.5960524419013 L 278.40000000000003,103.51269089021528 L 293.59999999999997,106.79486146450103 L 308.8,107.98059749159152 L 324,106.1804745751007 L 339.2,102.74477068739417 L 354.4,100.25061833239259 L 369.6,100.56888918992976 L 384.8,103.46084726912338 L 400,106.757225540724 L 415.2,107.98540009224689 L 430.40000000000003,106.22411325403569 L 445.6,102.79451193159737 L 460.79999999999995,100.26915107507502 L 476,100.54231196137376 L 491.2,103.40909573369773 L 506.40000000000003,106.71911869111037 L 521.6,107.98952199854303 L 536.8000000000001,106.26737206111056 L 552,102.84445906954008 L 567.1999999999999,100.28832103554222 L 582.4,100.51632529554405 L 597.6,103.35744512294501 L 612.8000000000001,106.6805474241955 L 628,107.99296250647072 L 643.1999999999999,106.31024360785112 L 658.4,102.8946035704012 L 673.6,100.30812493962263 L 688.8,100.49093363088507 L 704,103.30590425863438 L 719.2,106.64151832783591 L 734.4,107.99572102840156 L 749.6,106.35272057192593 L 764.8,102.94493686965065 L 780,100.32855940486887"
      stroke="url(#thread-7)"
      stroke-width="7.128"
      stroke-linecap="round"
      fill="none"
      opacity="0.817391304347826"
      class="thread"
      style="animation-delay: 0.7000000000000001s"
    >
      <title>2026-01-07: 3564 stars, TypeScript, Python, Unknown, Shell, Rust</title>
    </path>

    <path
      d="M 20,112.9727900187683 L 35.2,112.24143772575309 L 50.400000000000006,115.36284039622684 L 65.6,119.1373704188245 L 80.80000000000001,119.69590491668353 L 96,116.46591205398717 L 111.2,112.75833099464238 L 126.4,112.37365785568912 L 141.60000000000002,115.70620600412356 L 156.79999999999998,119.33991086974528 L 172,119.55000392795054 L 187.2,116.1211270141717 L 202.4,112.56808754274145 L 217.6,112.53296710236191 L 232.8,116.05176628078955 L 248,119.51750187247822 L 263.20000000000005,119.37758407613369 L 278.40000000000003,115.77543714417301 L 293.59999999999997,112.40348079953633 L 308.8,112.71817541072186 L 324,116.3969398584714 L 339.2,119.66881680553726 L 354.4,119.17993335373556 L 369.6,115.4314247798189 L 384.8,112.26574039287371 L 400,112.92789925729377 L 415.2,116.73914825809348 L 430.40000000000003,119.79272533214707 L 445.6,118.95852823023394 L 460.79999999999995,115.09165972581229 L 476,112.15589525654056 L 491.2,113.16057198522725 L 506.40000000000003,117.07583515073898 L 521.6,119.88830184396502 L 536.8000000000001,118.71502262271608 L 552,114.75868005904852 L 567.1999999999999,112.07476594403207 L 582.4,113.41445550737066 L 597.6,117.40448545366729 L 612.8000000000001,119.95483237546252 L 628,118.45123554096254 L 643.1999999999999,114.43497316894232 L 658.4,112.02295849893974 L 673.6,113.68765328994553 L 688.8,117.7226441182186 L 704,119.99181993731462 L 719.2,118.16913749927303 L 734.4,114.122957176395 L 749.6,112.00085992774895 L 764.8,113.97812451983228 L 780,118.02793446925804"
      stroke="url(#thread-8)"
      stroke-width="8"
      stroke-linecap="round"
      fill="none"
      opacity="0.791304347826087"
      class="thread"
      style="animation-delay: 0.8s"
    >
      <title>2026-01-06: 4224 stars, TypeScript, Python, Rust, JavaScript, Go</title>
    </path>

    <path
      d="M 20,124.08987952933961 L 35.2,125.02894442478737 L 50.400000000000006,128.43437153285984 L 65.6,131.47921382258582 L 80.80000000000001,131.63585651979724 L 96,128.77426583027324 L 111.2,125.26993388668309 L 126.4,124.0319115860454 L 141.60000000000002,126.08791831743993 L 156.79999999999998,129.73120131813835 L 172,131.93736225719476 L 187.2,130.87500086715778 L 202.4,127.42601515437862 L 217.6,124.45351145212477 L 232.8,124.42505410664761 L 248,127.36426641269193 L 263.20000000000005,130.83122020903832 L 278.40000000000003,131.947893318127 L 293.59999999999997,129.78730194904946 L 308.8,126.14301770446232 L 324,124.04027007784954 L 339.2,125.2246128488953 L 354.4,128.71288761367327 L 369.6,131.60937302019053 L 384.8,131.50960978614577 L 400,128.49641435991174 L 415.2,125.07113050648532 L 430.40000000000003,124.07718893584233 L 445.6,126.33969031316143 L 460.79999999999995,129.9804644858591 L 476,131.97719577624935 L 491.2,130.67233774041168 L 506.40000000000003,127.14909211286742 L 521.6,124.33221060612826 L 536.8000000000001,124.56007092124601 L 552,127.64351938649135 L 567.1999999999999,131.02289308518783 L 582.4,131.89287270175635 L 597.6,129.5312621016111 L 612.8000000000001,125.89850497140887 L 628,124.01026180175919 L 643.1999999999999,125.43401979846342 L 658.4,128.98787480857004 L 673.6,131.7216653543872 L 688.8,131.36599003000154 L 704,128.2161055742457 L 719.2,124.88682540919925 L 734.4,124.14188470791555 L 749.6,126.59968105663323 L 764.8,130.21992409815476 L 780,131.99734166166684"
      stroke="url(#thread-9)"
      stroke-width="7.528"
      stroke-linecap="round"
      fill="none"
      opacity="0.7652173913043478"
      class="thread"
      style="animation-delay: 0.9s"
    >
      <title>2026-01-05: 3764 stars, Go, TypeScript, Python, Rust, JavaScript</title>
    </path>

    <path
      d="M 20,136.16430290134744 L 35.2,138.81314682536677 L 50.400000000000006,142.51730855952738 L 65.6,143.98314746381368 L 80.80000000000001,141.90727914700193 L 96,138.1355096894579 L 111.2,136.02159469412146 L 126.4,137.44517032103627 L 141.60000000000002,141.1404315445466 L 156.79999999999998,143.8216518184855 L 172,143.10476244044244 L 187.2,139.6272020967855 L 202.4,136.48112358698486 L 217.6,136.46393501042178 L 232.8,139.59091998546262 L 248,143.08164786850685 L 263.20000000000005,143.8322576394483 L 278.40000000000003,141.175327348655 L 293.59999999999997,137.47332770110233 L 308.8,136.01797686774805 L 324,138.10333353021244 L 339.2,141.87515482726243 L 354.4,143.97963906166862 L 369.6,142.5455356514736 L 384.8,138.84801064308485 L 400,136.1748034790844 L 415.2,136.90285782079647 L 430.40000000000003,140.38480739749696 L 445.6,143.5245966221571 L 460.79999999999995,143.53040965799707 L 476,140.39707771043967 L 491.2,136.9106749797447 L 506.40000000000003,136.17121667728364 L 521.6,138.83620916788985 L 536.8000000000001,142.5360130561102 L 552,143.9808625809225 L 567.1999999999999,141.8860365408354 L 582.4,138.11419771208898 L 597.6,136.01916338062392 L 612.8000000000001,137.46378152975188 L 628,141.16353669099527 L 643.1999999999999,143.8287064300447 L 658.4,143.0894937469152 L 673.6,139.60318660835966 L 688.8,136.4697152277992 L 704,136.4752777855567 L 719.2,139.6149282054056 L 734.4,143.09697407205783 L 749.6,143.82527418005853 L 764.8,141.15224372993282 L 780,137.45466925379688"
      stroke="url(#thread-10)"
      stroke-width="7.814"
      stroke-linecap="round"
      fill="none"
      opacity="0.7391304347826088"
      class="thread"
      style="animation-delay: 1s"
    >
      <title>2026-01-04: 3907 stars, Python, Jupyter Notebook, TypeScript, Go, Rust</title>
    </path>

    <path
      d="M 20,149.17783869771844 L 35.2,152.77301888865364 L 50.400000000000006,155.68633669744855 L 65.6,155.3480207379259 L 80.80000000000001,152.056491824198 L 96,148.71513275704888 L 111.2,148.27128038238743 L 126.4,151.11644678607277 L 141.60000000000002,154.7409753865156 L 156.79999999999998,155.94775193216373 L 172,153.6723062759036 L 187.2,149.921757284275 L 202.4,148.0043789300135 L 217.6,149.6114470555219 L 232.8,153.3254034142877 L 248,155.87025156285551 L 263.20000000000005,155.001238822814 L 278.40000000000003,151.484901569577 L 293.59999999999997,148.42292092775048 L 308.8,148.51620038772612 L 324,151.68246025916602 L 339.2,155.1288147146935 L 354.4,155.8153128640545 L 369.6,153.13641030163498 L 384.8,149.45510605571818 L 400,148.01859488357053 L 415.2,150.09399062185102 L 430.40000000000003,153.8506338872521 L 445.6,155.97487508673586 L 460.79999999999995,154.59296936648218 L 476,150.92386433583937 L 491.2,148.20399410170808 L 506.40000000000003,148.83249434392582 L 521.6,152.2549792918153 L 536.8000000000001,155.4525528049836 L 552,155.6047080048019 L 567.1999999999999,152.5772322497345 L 582.4,149.04059305425275 L 597.6,148.11437942452184 L 612.8000000000001,150.6155833399216 L 628,154.3379497075868 L 643.1999999999999,155.99806380646734 L 658.4,154.13157674327948 L 673.6,150.38487430990983 L 688.8,148.06283751752989 L 704,149.21368221430248 L 719.2,152.82227446503802 L 734.4,155.7055571098459 L 749.6,155.3202520976599 L 764.8,152.00622821734916 L 780,148.6867105681532"
      stroke="url(#thread-11)"
      stroke-width="7.78"
      stroke-linecap="round"
      fill="none"
      opacity="0.7130434782608696"
      class="thread"
      style="animation-delay: 1.1s"
    >
      <title>2026-01-03: 3890 stars, Go, Python, Jupyter Notebook, TypeScript, Rust, JavaScript</title>
    </path>

    <path
      d="M 20,162.88233800720428 L 35.2,165.47552756098858 L 50.400000000000006,167.44717824098564 L 65.6,167.9667684252706 L 80.80000000000001,166.81543029564082 L 96,164.47814388456618 L 111.2,161.93944814751296 L 126.4,160.2687220178298 L 141.60000000000002,160.16972817979644 L 156.79999999999998,161.684165968776 L 172,164.17410629237492 L 187.2,166.59070753933233 L 202.4,167.91602083689364 L 217.6,167.59178230971008 L 232.8,165.75457147981308 L 248,163.17827965246488 L 263.20000000000005,160.94812242326194 L 278.40000000000003,160.00351254819404 L 293.59999999999997,160.74234958091276 L 308.8,162.85341199674485 L 324,165.4474535415901 L 339.2,167.4317818774889 L 354.4,167.9705351529065 L 369.6,166.83677344960245 L 384.8,164.50807305340535 L 400,161.96535621877342 L 415.2,160.27969569252687 L 430.40000000000003,160.1611449990938 L 445.6,161.65964143983766 L 460.79999999999995,164.1439709224035 L 476,166.5676552992223 L 491.2,167.90976205923056 L 506.40000000000003,167.60495338958594 L 521.6,165.78162434183506 L 536.8000000000001,163.2078187755743 L 552,160.96770499459956 L 567.1999999999999,160.00488976939315 L 582.4,160.72494132284828 L 597.6,162.82455116826785 L 612.8000000000001,165.41929723640888 L 628,167.41619042181838 L 643.1999999999999,167.97407616097112 L 658.4,166.85795533681733 L 673.6,164.5379733389763 L 688.8,161.99137995679024 L 704,160.29088086150898 L 719.2,160.15278005212332 L 734.4,161.6352499571287 L 749.6,164.1138273678792 L 764.8,166.54445709136968 L 780,167.9032810168646"
      stroke="url(#thread-12)"
      stroke-width="5.26"
      stroke-linecap="round"
      fill="none"
      opacity="0.6869565217391305"
      class="thread"
      style="animation-delay: 1.2000000000000002s"
    >
      <title>2026-01-02: 2630 stars, TypeScript, Rust, Python, JavaScript, Jupyter Notebook, Shell</title>
    </path>

    <path
      d="M 20,176.86047995235126 L 35.2,179.64485906865653 L 50.400000000000006,179.50101540764646 L 65.6,176.54451071714396 L 80.80000000000001,173.1505546315671 L 96,172.0457983952553 L 111.2,174.1177858922418 L 126.4,177.7019147692662 L 141.60000000000002,179.91875193526934 L 156.79999999999998,178.98732507806739 L 172,175.6559279690481 L 187.2,172.60095294908422 L 202.4,172.27671917540033 L 217.6,174.9437109913941 L 232.8,178.4593088786146 L 248,179.99913647152093 L 263.20000000000005,178.32612036185404 L 278.40000000000003,174.7843355294314 L 293.59999999999997,172.21919652205682 L 308.8,172.69149590451468 L 324,175.82179573877386 L 339.2,179.09526208973716 L 354.4,179.88204328163073 L 369.6,177.55005160860114 L 384.8,173.9727727129868 L 400,172.02413651790224 L 415.2,173.26964686963223 L 430.40000000000003,176.70868022893467 L 445.6,179.57837097467907 L 460.79999999999995,179.57325443806633 L 476,176.6974411645985 L 491.2,173.26131456610344 L 506.40000000000003,172.02540501753495 L 521.6,173.98262292301294 L 536.8000000000001,177.56057002432365 L 552,179.88477957234554 L 567.1999999999999,179.08801796227422 L 582.4,175.81039101185294 L 597.6,172.68509295739653 L 612.8000000000001,172.2229393823266 L 628,174.79521724167938 L 643.1999999999999,178.33539872862877 L 658.4,179.9993573980511 L 673.6,178.4502948759807 L 688.8,174.9327037683509 L 704,172.27256176280937 L 719.2,172.6069853472073 L 734.4,175.66730384356805 L 749.6,178.9949052292912 L 764.8,179.9164465882425 L 780,177.69157600373896"
      stroke="url(#thread-13)"
      stroke-width="7.396"
      stroke-linecap="round"
      fill="none"
      opacity="0.6608695652173913"
      class="thread"
      style="animation-delay: 1.3s"
    >
      <title>2026-01-01: 3698 stars, Rust, Python, JavaScript, TypeScript, Jupyter Notebook, Go, Shell</title>
    </path>

    <path
      d="M 20,190.62794639487515 L 35.2,191.98824495975134 L 50.400000000000006,190.13641459072298 L 65.6,186.56391781556067 L 80.80000000000001,184.14804035106127 L 96,184.8345277526759 L 111.2,188.07048367934715 L 126.4,191.24967211352885 L 141.60000000000002,191.81157752550132 L 156.79999999999998,189.30364179756384 L 172,185.74575412844388 L 187.2,184.00343407396005 L 202.4,185.47994465220907 L 217.6,188.98610556020736 L 232.8,191.69805792941426 L 248,191.43159774016402 L 263.20000000000005,188.40133179125215 L 278.40000000000003,185.04783357556968 L 293.59999999999997,184.07200756540928 L 308.8,186.2597831591217 L 324,189.84912784456856 L 339.2,191.94918661303467 L 354.4,190.86857400520992 L 369.6,187.47761445175632 L 384.8,184.50738375299966 L 400,184.3501030648949 L 415.2,187.1324461133802 L 430.40000000000003,190.61351628847274 L 445.6,191.98966277553842 L 460.79999999999995,190.15253842112907 L 476,186.58176154195579 L 491.2,184.15323265211964 L 506.40000000000003,184.82288675375557 L 521.6,188.0513850305972 L 536.8000000000001,191.23849784962053 L 552,191.81732738862127 L 567.1999999999999,189.32168485308293 L 582.4,185.76155851553767 L 597.6,184.0042709533574 L 612.8000000000001,185.46514000198968 L 628,188.96758303245525 L 643.1999999999999,191.69073555146278 L 658.4,191.44137294868528 L 673.6,188.42033164202053 L 688.8,185.06075560572023 L 704,184.06844438338248 L 719.2,186.24260454854434 L 734.4,189.83216944307992 L 749.6,191.94610670207032 L 764.8,190.881853142314 L 780,187.49655763174735"
      stroke="url(#thread-14)"
      stroke-width="7.406"
      stroke-linecap="round"
      fill="none"
      opacity="0.6347826086956522"
      class="thread"
      style="animation-delay: 1.4000000000000001s"
    >
      <title>2025-12-31: 3703 stars, Go, Python, TypeScript, Rust, Shell</title>
    </path>

    <path
      d="M 20,203.75199990709896 L 35.2,202.97937377296537 L 50.400000000000006,199.03296636411858 L 65.6,196.1166926274641 L 80.80000000000001,197.33711645280883 L 96,201.3941799826125 L 111.2,203.9660917122137 L 126.4,202.31311976852848 L 141.60000000000002,198.19609438041158 L 156.79999999999998,196.00068148977647 L 172,198.0655471565135 L 187.2,202.19109089834905 L 202.4,203.98257258745548 L 217.6,201.53161433232088 L 232.8,197.44910218082362 L 248,196.08393681061014 L 263.20000000000005,198.8903621732737 L 278.40000000000003,202.87883048339606 L 293.59999999999997,203.80062137151032 L 308.8,200.67379605355228 L 324,196.8292087289792 L 339.2,196.3623103849914 L 354.4,199.77046500954808 L 369.6,203.4231320417785 L 384.8,203.42930380253642 L 400,199.7824058167079 L 415.2,196.36730028024755 L 430.40000000000003,196.8219322207776 L 445.6,200.6620044504683 L 460.79999999999995,203.79687569203927 L 476,202.8871208168226 L 491.2,198.9018572325572 L 506.40000000000003,196.08639147087345 L 521.6,197.4399016124505 L 536.8000000000001,201.52055945115623 L 552,203.9814396181385 L 567.1999999999999,202.20108673772353 L 582.4,198.07602372540268 L 597.6,196.0004786113454 L 612.8000000000001,198.18542817113794 L 628,202.30335241988084 L 643.1999999999999,203.9676279033642 L 658.4,201.40538328420405 L 673.6,197.34605253517495 L 688.8,196.11384231877742 L 704,199.02136595892497 L 719.2,202.97138061599165 L 734.4,203.7561287178339 L 749.6,200.53965646315515 L 764.8,196.74831455194618 L 780,196.42083423471877"
      stroke="url(#thread-15)"
      stroke-width="8"
      stroke-linecap="round"
      fill="none"
      opacity="0.6086956521739131"
      class="thread"
      style="animation-delay: 1.5s"
    >
      <title>2025-12-30: 4315 stars, Go, Shell, Rust, Python, Swift, TypeScript</title>
    </path>

    <path
      d="M 20,215.95743298649353 L 35.2,214.26162828826148 L 50.400000000000006,211.11566899711138 L 65.6,208.53674217197477 L 80.80000000000001,208.17845402200737 L 96,210.27053867680073 L 111.2,213.47155281135377 L 126.4,215.72900823682002 L 141.60000000000002,215.59542599720177 L 156.79999999999998,213.1564589379821 L 172,209.97597115710352 L 187.2,208.0932893587373 L 202.4,208.71558789203465 L 217.6,211.44384934068927 L 232.8,214.5287142317132 L 248,215.99216919594718 L 263.20000000000005,214.89584785863028 L 278.40000000000003,211.94271075084353 L 293.59999999999997,209.02630747249302 L 308.8,208.0166339158534 L 324,209.56109211118246 L 339.2,212.66937646443048 L 354.4,215.34845706243576 L 369.6,215.8805091617779 L 384.8,213.9243813011238 L 400,210.73434139717122 L 415.2,208.35584096921687 L 430.40000000000003,208.3139729504177 L 445.6,210.63558308729768 L 460.79999999999995,213.8320564644722 L 476,215.85381642378363 L 491.2,215.40451178940407 L 506.40000000000003,212.77223640175228 L 521.6,209.64480353369927 L 536.8000000000001,208.02752111369176 L 552,208.95738958145375 L 567.1999999999999,211.83817787800288 L 582.4,214.82272641431723 L 597.6,215.99734460287323 L 612.8000000000001,214.608868022311 L 628,211.54758695636644 L 643.1999999999999,208.7763928408401 L 658.4,208.072173546898 L 673.6,209.88647402948797 L 688.8,213.05596599482408 L 704,215.54837324853563 L 719.2,215.76556587460072 L 734.4,213.56828010192535 L 749.6,210.36541414412713 L 764.8,208.21064357791735 L 780,208.4856058940774"
      stroke="url(#thread-16)"
      stroke-width="6.556"
      stroke-linecap="round"
      fill="none"
      opacity="0.5826086956521739"
      class="thread"
      style="animation-delay: 1.6s"
    >
      <title>2025-12-29: 3278 stars, Shell, Go, JavaScript, TypeScript, Rust, Python</title>
    </path>

    <path
      d="M 20,227.19394845049396 L 35.2,223.88397799930672 L 50.400000000000006,220.67179133367574 L 65.6,220.26463165059675 L 80.80000000000001,223.005654686908 L 96,226.58471575293137 L 111.2,227.98536850502921 L 126.4,226.02713745121284 L 141.60000000000002,222.3604272069154 L 156.79999999999998,220.07555517817065 L 172,221.0982202423226 L 187.2,224.5665163752434 L 202.4,227.55735034219663 L 217.6,227.55003584651976 L 232.8,224.55073757312127 L 248,221.08727556848154 L 263.20000000000005,220.07866884554844 L 278.40000000000003,222.37497500474734 L 293.59999999999997,226.04085843989247 L 308.8,227.98669858286337 L 324,226.5725339252386 L 339.2,222.99022784461997 L 354.4,220.2589615953467 L 369.6,220.68065680969622 L 384.8,223.89990714952873 L 400,227.203516126238 L 415.2,227.8071894696859 L 430.40000000000003,225.20214897910873 L 445.6,221.5839327349898 L 460.79999999999995,220.0019872146951 L 476,221.78958214805044 L 491.2,225.44012569402412 L 506.40000000000003,227.87692580170986 L 521.6,227.04623802824702 L 536.8000000000001,223.64816920353957 L 552,220.54662471859183 L 567.1999999999999,220.3555981177064 L 582.4,223.23608735010765 L 597.6,226.76040508309006 L 612.8000000000001,227.95824286330173 L 628,225.8200584321063 L 643.1999999999999,222.14792179907437 L 658.4,220.03672375140175 L 673.6,221.2657900714989 L 688.8,224.79925896797587 L 704,227.65910935191675 L 719.2,227.43504839096875 L 734.4,224.31591551925598 L 749.6,220.93052784065978 L 764.8,220.1321030277815 L 780,222.5935565640533"
      stroke="url(#thread-17)"
      stroke-width="7.59"
      stroke-linecap="round"
      fill="none"
      opacity="0.5565217391304348"
      class="thread"
      style="animation-delay: 1.7000000000000002s"
    >
      <title>2025-12-28: 3795 stars, Shell, Rust, Python, JavaScript, TypeScript</title>
    </path>

    <path
      d="M 20,237.64847394096702 L 35.2,232.79742518315314 L 50.400000000000006,232.96842870528366 L 65.6,237.8933288272238 L 80.80000000000001,239.849244023839 L 96,235.7690458330968 L 111.2,232.05101370147602 L 126.4,234.5255037678214 L 141.60000000000002,239.31219498107788 L 156.79999999999998,238.90493529306556 L 172,233.9423606644348 L 187.2,232.20643112840878 L 202.4,236.41930912702085 L 217.6,239.97465608333556 L 232.8,237.29722729298933 L 248,232.58557802164358 L 263.20000000000005,233.22818482915497 L 278.40000000000003,238.2173569768735 L 293.59999999999997,239.7294260753268 L 308.8,235.39327185485726 L 324,232.00854598153884 L 339.2,234.88293719371669 L 354.4,239.5090276272915 L 369.6,238.6325080661441 L 384.8,233.62787475539585 L 400,232.34304119149846 L 415.2,236.792792882343 L 430.40000000000003,239.99934260914588 L 445.6,236.93440491811077 L 460.79999999999995,232.40419924185815 L 476,233.5126750729533 L 491.2,238.52159867973413 L 506.40000000000003,239.57632882566347 L 521.6,235.02291197740723 L 536.8000000000001,232.00169575277283 L 552,235.25033865994425 L 567.1999999999999,239.67454768416889 L 582.4,238.33658981756236 L 597.6,233.3345563581373 L 612.8000000000001,232.5122838986002 L 628,237.15920219978946 L 643.1999999999999,239.98834125043774 L 658.4,236.56324443918115 L 673.6,232.25490736603408 L 688.8,233.8193608057186 L 704,238.80333905393178 L 719.2,239.39131842861468 L 734.4,234.66127108403103 L 749.6,232.03052414276746 L 764.8,235.624429682418 L 780,239.80727814379836"
      stroke="url(#thread-18)"
      stroke-width="8"
      stroke-linecap="round"
      fill="none"
      opacity="0.5304347826086957"
      class="thread"
      style="animation-delay: 1.8s"
    >
      <title>2025-12-27: 5384 stars, Shell, Python, Rust, C, Go</title>
    </path>

    <path
      d="M 20,247.69939551815276 L 35.2,244.56870497977758 L 50.400000000000006,244.34118488645558 L 65.6,247.20933678838733 L 80.80000000000001,250.74645771059176 L 96,251.95983940111054 L 111.2,249.8228566814842 L 126.4,246.14358056765428 L 141.60000000000002,244.03499481937013 L 156.79999999999998,245.28114417461003 L 172,248.8276791947705 L 187.2,251.67392649205033 L 202.4,251.4117162693099 L 217.6,248.26290090722893 L 232.8,244.89164878603907 L 248,244.15032889860734 L 263.20000000000005,246.66616157278023 L 278.40000000000003,250.3105361757464 L 293.59999999999997,251.9999986251029 L 308.8,250.3051185098555 L 324,246.6599100518928 L 339.2,244.14853284659972 L 354.4,244.89582781724795 L 369.6,248.2695192021392 L 384.8,251.41517418170434 L 400,251.67129833089803 L 415.2,248.82118861024935 L 430.40000000000003,245.27628275897365 L 445.6,244.03587574799792 L 460.79999999999995,246.1494584992272 L 476,249.82875838078934 L 491.2,251.96077152339106 L 506.40000000000003,250.74163160029926 L 521.6,247.20283574954644 L 536.8000000000001,244.33850935657276 L 552,244.57211868704724 L 567.1999999999999,247.7060101728782 L 582.4,251.08864231557956 L 597.6,251.85801764617796 L 612.8000000000001,249.36317852104835 L 628,245.71497322649435 L 643.1999999999999,244.00009693918116 L 658.4,245.66948236087552 L 673.6,249.31068597124397 L 688.8,251.8429366201108 L 704,251.12373265724474 L 719.2,247.7615824378447 L 734.4,244.60115396371916 L 749.6,244.31644130582708 L 764.8,247.1483358386651 L 780,250.7008114371727"
      stroke="url(#thread-19)"
      stroke-width="7.606"
      stroke-linecap="round"
      fill="none"
      opacity="0.5043478260869565"
      class="thread"
      style="animation-delay: 1.9000000000000001s"
    >
      <title>2025-12-26: 3803 stars, Python, Shell, Go, TypeScript</title>
    </path>

    <path
      d="M 20,257.8239155564425 L 35.2,256.02558474472266 L 50.400000000000006,257.12626082428267 L 65.6,260.32309171883935 L 80.80000000000001,263.2842539529089 L 96,263.8498248280851 L 111.2,261.60726721391444 L 126.4,258.19234123106884 L 141.60000000000002,256.09595266608756 L 156.79999999999998,256.8472434194329 L 172,259.89820908507033 L 187.2,263.02342279599156 L 202.4,263.94329988306765 L 217.6,261.9868661668835 L 232.8,258.5811780724111 L 248,256.2104031114161 L 263.20000000000005,256.6038253441064 L 278.40000000000003,259.4744758227261 L 293.59999999999997,262.7284526811015 L 308.8,263.99224919419424 L 324,262.3440304340193 L 339.2,258.9860355319154 L 354.4,256.3676437642819 L 369.6,256.3987551518479 L 384.8,259.0566765130614 L 400,262.40267426128804 L 415.2,263.9961200506508 L 430.40000000000003,262.6747270974247 L 445.6,259.4023421643265 L 460.79999999999995,256.5658991429207 L 476,256.234348391341 L 491.2,258.6495287341446 L 506.40000000000003,262.0497660613667 L 521.6,263.9548687446878 L 536.8000000000001,262.97522209797006 L 552,259.82539724613133 L 567.1999999999999,256.8029306480708 L 582.4,256.11246146040565 L 597.6,258.2576297923569 L 612.8000000000001,261.67371294188064 L 628,263.8689610651465 L 643.1999999999999,263.2421223983971 L 658.4,260.2504238537459 L 673.6,257.07606184010103 L 688.8,256.03447064449495 L 704,257.88540481193866 L 719.2,261.27876110407544 L 734.4,263.7393670380072 L 749.6,263.47241429577554 L 764.8,260.67262280211617 L 780,257.38220866001114"
      stroke="url(#thread-20)"
      stroke-width="7.022"
      stroke-linecap="round"
      fill="none"
      opacity="0.4782608695652174"
      class="thread"
      style="animation-delay: 2s"
    >
      <title>2025-12-25: 3511 stars, Python, TypeScript</title>
    </path>

    <path
      d="M 20,268.48121696011333 L 35.2,268.1055709901343 L 50.400000000000006,269.69313476772135 L 65.6,272.44360594427695 L 80.80000000000001,274.97045216537015 L 96,275.9998720292335 L 111.2,275.01292755909174 L 126.4,272.5071445794445 L 141.60000000000002,269.7457063601541 L 156.79999999999998,268.1206738209801 L 172,268.4512375834325 L 187.2,270.5707580710819 L 202.4,273.41076972171663 L 217.6,275.539602182224 L 232.8,275.8840956577236 L 248,274.2705885029884 L 263.20000000000005,271.51246131012033 L 278.40000000000003,269.0001058865829 L 293.59999999999997,268.000018718599 L 308.8,269.0163509594256 L 324,271.5367621974385 L 339.2,274.2906949522452 L 354.4,275.8898718628561 L 369.6,275.52813631657125 L 384.8,273.3878418108374 L 400,270.5479262401892 L 415.2,268.4400115231254 L 430.40000000000003,268.12671266921325 L 445.6,269.7659658899855 L 460.79999999999995,272.5314118157898 L 476,275.0289692131121 L 491.2,275.9996013874569 L 506.40000000000003,274.9540056602679 L 521.6,272.41927437767094 L 536.8000000000001,269.67318385779856 L 552,268.1000581344578 L 567.1999999999999,268.4929212289842 L 582.4,270.6537280223938 L 597.6,273.49320022801555 L 612.8000000000001,275.5799394308578 L 628,275.8620053507741 L 643.1999999999999,274.1972065234875 L 658.4,271.4247800431101 L 673.6,268.94232609105455 L 688.8,268.00126760614273 L 704,269.07599895682466 L 719.2,271.6247403190675 L 734.4,274.36265279255895 L 749.6,275.9095349556466 L 764.8,275.48559235496737 L 780,273.30453751267873"
      stroke="url(#thread-21)"
      stroke-width="5.776"
      stroke-linecap="round"
      fill="none"
      opacity="0.4521739130434783"
      class="thread"
      style="animation-delay: 2.1s"
    >
      <title>2025-12-24: 2888 stars, Python, TypeScript</title>
    </path>

    <path
      d="M 20,280.0000391737972 L 35.2,281.0199941122939 L 50.400000000000006,283.5421915083442 L 65.6,286.29517346640876 L 80.80000000000001,287.89114192899194 L 96,287.52555768518147 L 111.2,285.38271438860085 L 126.4,282.5428347976304 L 141.60000000000002,280.4375226931539 L 156.79999999999998,280.1280810889652 L 172,281.77050172919604 L 187.2,284.53682852520376 L 202.4,287.0325361904527 L 217.6,287.9995204937244 L 232.8,286.9503176745762 L 248,284.41383844020214 L 263.20000000000005,281.66874026383067 L 278.40000000000003,280.0988469317539 L 293.59999999999997,280.49555299356155 L 308.8,282.65887606275066 L 324,285.49826937988433 L 339.2,287.5823742982264 L 354.4,287.8605784994437 L 369.6,286.1926372395031 L 384.8,283.4193717354784 L 400,280.9388051266534 L 415.2,280.00140892851726 L 430.40000000000003,281.0797313243468 L 445.6,283.6301822183542 L 460.79999999999995,286.367060922937 L 476,287.91068714680426 L 491.2,287.48290777903327 L 506.40000000000003,285.29936948374046 L 521.6,282.4608096616187 L 536.8000000000001,280.39816678855794 L 552,280.1512340110971 L 567.1999999999999,281.8444919230475 L 582.4,284.62435700049264 L 597.6,287.08947921159637 L 612.8000000000001,287.9971726731341 L 628,286.88986256554216 L 643.1999999999999,284.3257518991453 L 658.4,281.5974273513116 L 673.6,280.08025700122846 L 688.8,280.53905736306433 L 704,282.7425438658945 L 719.2,285.57992307375514 L 734.4,287.6208516669189 L 749.6,287.83648282393017 L 764.8,286.1181153235698 L 780,283.3319906143433"
      stroke="url(#thread-22)"
      stroke-width="5.776"
      stroke-linecap="round"
      fill="none"
      opacity="0.4260869565217391"
      class="thread"
      style="animation-delay: 2.2s"
    >
      <title>2025-12-23: 2888 stars, Python, TypeScript</title>
    </path>
  </g>

  <!-- Date markers -->
  <g id="dates">
    <text x="785" y="24" class="date-label">01-14</text>
<text x="785" y="108" class="date-label">01-07</text>
<text x="785" y="192" class="date-label">12-31</text>
<text x="785" y="276" class="date-label">12-24</text>
  </g>

</svg>