<?xml version="1.0" encoding="UTF-8"?>
<svg xmlns="http://www.w3.org/2000/svg" viewBox="0 0 800 200" width="800" height="200">
  <title>The Data Tapestry - GitHub Trends Woven in Time</title>
  <desc>A living data art piece that weaves daily GitHub trending repositories into an evolving tapestry. Each thread represents one day of open source activity.</desc>

  <style>
    .thread {
      animation: breathe 8s ease-in-out infinite alternate;
    }

    @keyframes breathe {
      0% {
        opacity: var(--base-opacity, 0.7);
        stroke-width: var(--base-width, 4);
      }
      100% {
        opacity: calc(var(--base-opacity, 0.7) + 0.15);
        stroke-width: calc(var(--base-width, 4) + 0.5);
      }
    }

    .date-label {
      font-family: ui-monospace, monospace;
      font-size: 8px;
      fill: #666;
    }

    .title {
      font-family: system-ui, sans-serif;
      font-size: 14px;
      fill: #333;
      font-weight: 600;
    }

    .subtitle {
      font-family: system-ui, sans-serif;
      font-size: 10px;
      fill: #888;
    }

    .empty-state {
      font-family: system-ui, sans-serif;
      font-size: 12px;
      fill: #999;
      text-anchor: middle;
    }
  </style>

  <defs>
    
    <linearGradient id="thread-0" x1="0%" y1="0%" x2="100%" y2="0%">
      <stop offset="0%" stop-color="#3572A5" />
      <stop offset="50%" stop-color="#3178c6" />
      <stop offset="100%" stop-color="#3572A5" />
    </linearGradient>

    <linearGradient id="thread-1" x1="0%" y1="0%" x2="100%" y2="0%">
      <stop offset="0%" stop-color="#3572A5" />
      <stop offset="50%" stop-color="#3178c6" />
      <stop offset="100%" stop-color="#3572A5" />
    </linearGradient>

    <linearGradient id="thread-2" x1="0%" y1="0%" x2="100%" y2="0%">
      <stop offset="0%" stop-color="#3572A5" />
      <stop offset="50%" stop-color="#3178c6" />
      <stop offset="100%" stop-color="#3572A5" />
    </linearGradient>

    <!-- Background pattern -->
    <pattern id="loom" patternUnits="userSpaceOnUse" width="20" height="20">
      <rect width="20" height="20" fill="#fafafa"/>
      <circle cx="10" cy="10" r="0.5" fill="#eee"/>
    </pattern>
  </defs>

  <!-- Background -->
  <rect width="100%" height="100%" fill="url(#loom)"/>

  <!-- Threads -->
  <g id="tapestry">
    
    <path
      d="M 20,20 L 35.2,23.089090077395156 L 50.400000000000006,23.924944685682785 L 65.6,21.897877087595965 L 80.80000000000001,18.486465277253696 L 96,16.179051743288507 L 111.2,16.658703630512584 L 126.4,19.57555459704541 L 141.60000000000002,22.80200334566796 L 156.79999999999998,23.98462262838485 L 172,22.26078958619704 L 187.2,18.88789770914882 L 202.4,16.32619238355741 L 217.6,16.44422556369003 L 232.8,19.15590181647643 L 248,22.48327781218788 L 263.20000000000005,23.99930823173286 L 278.40000000000003,22.59817439453562 L 293.59999999999997,19.301887436510256 L 308.8,16.514815797583356 L 324,16.269897499772462 L 339.2,18.745780164815525 L 354.4,22.13651236415217 L 369.6,23.968835673336322 L 384.8,22.906221934339115 L 400,19.723759897142383 L 415.2,16.742792145367567 L 430.40000000000003,16.13768786290997 L 445.6,18.34982052790787 L 460.79999999999995,21.765622501262882 L 476,23.89354903388147 L 491.2,23.181453888903356 L 506.40000000000003,20.148751521020316 L 521.6,17.00754723352692 L 536.8000000000001,16.049089497319535 L 552,17.97249388130511 L 567.1999999999999,21.37479612388864 L 582.4,23.774298411946535 L 597.6,23.42076247848214 L 612.8000000000001,20.572063518108664 L 628,17.306091581781097 L 643.1999999999999,16.00510281084465 L 658.4,17.61806080627546 L 673.6,20.968446245415908 L 688.8,23.612430325119423 L 704,23.62144555176105 L 719.2,20.988916063866366 L 734.4,17.635054178648797 L 749.6,16.006224478857007 L 764.8,17.290523381479126 L 780,20.551161162738538"
      stroke="url(#thread-0)"
      stroke-width="7.022"
      stroke-linecap="round"
      fill="none"
      opacity="1"
      class="thread"
      style="animation-delay: 0s"
    >
      <title>2025-12-25: 3511 stars, Python, TypeScript</title>
    </path>

    <path
      d="M 20,33.917702154416816 L 35.2,35.76435218544476 L 50.400000000000006,35.71336513411347 L 65.6,33.79044394067931 L 80.80000000000001,30.964947045413734 L 96,28.661227808578467 L 111.2,28.040607710152514 L 126.4,29.415945817197745 L 141.60000000000002,32.0939242720487 L 156.79999999999998,34.72455482404872 L 172,35.9817176418057 L 187.2,35.231667883175724 L 202.4,32.85251104027886 L 217.6,30.043597234309026 L 232.8,28.220920170629213 L 248,28.303304500816434 L 263.20000000000005,30.24921968992949 L 278.40000000000003,33.07771585865981 L 293.59999999999997,35.36292769136356 L 308.8,35.95286342394593 L 324,34.55013219943936 L 339.2,31.86186094356014 L 354.4,29.243226582187198 L 369.6,28.014301580510033 L 384.8,28.79459589395684 L 400,31.19075753222341 L 415.2,33.994864134144144 L 430.40000000000003,35.793345340583166 L 445.6,35.679573806080846 L 460.79999999999995,33.710902581614555 L 476,30.879753028013837 L 491.2,28.613328051369884 L 506.40000000000003,28.05414882616112 L 521.6,29.484101632195262 L 536.8000000000001,32.18233694820643 L 552,34.788654893749786 L 567.1999999999999,35.98919179767235 L 582.4,35.17874834933758 L 597.6,32.76587493535962 L 612.8000000000001,29.96691844355289 L 628,28.192853025406116 L 643.1999999999999,28.337997851432483 L 658.4,30.329184368156774 L 673.6,33.16264109355885 L 688.8,35.41000205960484 L 704,35.93835639703407 L 719.2,34.481356874254395 L 734.4,31.77348745748373 L 749.6,29.179804646833574 L 764.8,28.007802650842244 L 780,28.848296127285824"
      stroke="url(#thread-1)"
      stroke-width="5.776"
      stroke-linecap="round"
      fill="none"
      opacity="0.8"
      class="thread"
      style="animation-delay: 0.1s"
    >
      <title>2025-12-24: 2888 stars, Python, TypeScript</title>
    </path>

    <path
      d="M 20,47.36588393923159 L 35.2,47.95202312396463 L 50.400000000000006,46.545918952888925 L 65.6,43.85639867840939 L 80.80000000000001,41.239268865688395 L 96,40.013843526090284 L 111.2,40.79786841015228 L 126.4,43.196110920021 L 141.60000000000002,45.99959971215051 L 156.79999999999998,47.795075869775864 L 172,47.67742691421457 L 187.2,45.705960532360855 L 202.4,42.874507144039846 L 217.6,40.610422820616265 L 232.8,40.05504879640111 L 248,41.48835312194095 L 263.20000000000005,44.18779675081847 L 278.40000000000003,46.792570683359486 L 293.59999999999997,47.9895895964997 L 308.8,47.1754276241251 L 324,44.76050968763346 L 339.2,41.962213333381975 L 354.4,40.1911799327573 L 369.6,40.34020019437513 L 384.8,42.33415192973185 L 400,45.16786969015405 L 415.2,47.412855917971804 L 430.40000000000003,47.93739686659014 L 445.6,46.47706766121578 L 460.79999999999995,43.76803078507375 L 476,41.17593126296354 L 491.2,40.007465156252955 L 506.40000000000003,40.851664655433495 L 521.6,43.28296270523644 L 536.8000000000001,46.07572442606333 L 552,47.822098495148424 L 567.1999999999999,47.64172515072973 L 582.4,45.62553189644558 L 597.6,42.78989629104987 L 612.8000000000001,40.56428269169365 L 628,40.070638963263654 L 643.1999999999999,41.557814469048694 L 658.4,44.27611331219139 L 673.6,46.85522144353689 L 688.8,47.994991855486006 L 704,47.120858064208264 L 719.2,44.67347721748218 L 734.4,41.88659164881223 L 749.6,40.165090470287396 L 764.8,40.37679484017373 L 780,42.41498305895884"
      stroke="url(#thread-2)"
      stroke-width="5.776"
      stroke-linecap="round"
      fill="none"
      opacity="0.6000000000000001"
      class="thread"
      style="animation-delay: 0.2s"
    >
      <title>2025-12-23: 2888 stars, Python, TypeScript</title>
    </path>
  </g>

  <!-- Date markers -->
  <g id="dates">
    <text x="785" y="24" class="date-label">12-25</text>
  </g>

</svg>