<?xml version="1.0" encoding="UTF-8"?>
<svg xmlns="http://www.w3.org/2000/svg" viewBox="0 0 800 364" width="800" height="364">
  <title>The Data Tapestry - GitHub Trends Woven in Time</title>
  <desc>A living data art piece that weaves daily GitHub trending repositories into an evolving tapestry. Each thread represents one day of open source activity.</desc>

  <style>
    .thread {
      animation: breathe 8s ease-in-out infinite alternate;
    }

    @keyframes breathe {
      0% {
        opacity: 0.85;
      }
      100% {
        opacity: 1;
      }
    }

    .date-label {
      font-family: ui-monospace, monospace;
      font-size: 8px;
      fill: #666;
    }

    .title {
      font-family: system-ui, sans-serif;
      font-size: 14px;
      fill: #333;
      font-weight: 600;
    }

    .subtitle {
      font-family: system-ui, sans-serif;
      font-size: 10px;
      fill: #888;
    }

    .empty-state {
      font-family: system-ui, sans-serif;
      font-size: 12px;
      fill: #999;
      text-anchor: middle;
    }
  </style>

  <defs>
    
    <linearGradient id="thread-0" x1="0%" y1="0%" x2="100%" y2="0%">
      <stop offset="0%" stop-color="#3178c6" />
      <stop offset="50%" stop-color="#3572A5" />
      <stop offset="100%" stop-color="#f1e05a" />
    </linearGradient>

    <linearGradient id="thread-1" x1="0%" y1="0%" x2="100%" y2="0%">
      <stop offset="0%" stop-color="#3178c6" />
      <stop offset="50%" stop-color="#3572A5" />
      <stop offset="100%" stop-color="#f1e05a" />
    </linearGradient>

    <linearGradient id="thread-2" x1="0%" y1="0%" x2="100%" y2="0%">
      <stop offset="0%" stop-color="#3178c6" />
      <stop offset="50%" stop-color="#f1e05a" />
      <stop offset="100%" stop-color="#3572A5" />
    </linearGradient>

    <linearGradient id="thread-3" x1="0%" y1="0%" x2="100%" y2="0%">
      <stop offset="0%" stop-color="#3572A5" />
      <stop offset="50%" stop-color="#3178c6" />
      <stop offset="100%" stop-color="#89e051" />
    </linearGradient>

    <linearGradient id="thread-4" x1="0%" y1="0%" x2="100%" y2="0%">
      <stop offset="0%" stop-color="#3178c6" />
      <stop offset="50%" stop-color="#89e051" />
      <stop offset="100%" stop-color="#3572A5" />
    </linearGradient>

    <linearGradient id="thread-5" x1="0%" y1="0%" x2="100%" y2="0%">
      <stop offset="0%" stop-color="#3572A5" />
      <stop offset="50%" stop-color="#3178c6" />
      <stop offset="100%" stop-color="#89e051" />
    </linearGradient>

    <linearGradient id="thread-6" x1="0%" y1="0%" x2="100%" y2="0%">
      <stop offset="0%" stop-color="#3178c6" />
      <stop offset="50%" stop-color="#3572A5" />
      <stop offset="100%" stop-color="#8b8b8b" />
    </linearGradient>

    <linearGradient id="thread-7" x1="0%" y1="0%" x2="100%" y2="0%">
      <stop offset="0%" stop-color="#3178c6" />
      <stop offset="50%" stop-color="#89e051" />
      <stop offset="100%" stop-color="#3572A5" />
    </linearGradient>

    <linearGradient id="thread-8" x1="0%" y1="0%" x2="100%" y2="0%">
      <stop offset="0%" stop-color="#3572A5" />
      <stop offset="50%" stop-color="#3178c6" />
      <stop offset="100%" stop-color="#89e051" />
    </linearGradient>

    <linearGradient id="thread-9" x1="0%" y1="0%" x2="100%" y2="0%">
      <stop offset="0%" stop-color="#3572A5" />
      <stop offset="50%" stop-color="#3178c6" />
      <stop offset="100%" stop-color="#8b8b8b" />
    </linearGradient>

    <linearGradient id="thread-10" x1="0%" y1="0%" x2="100%" y2="0%">
      <stop offset="0%" stop-color="#3572A5" />
      <stop offset="50%" stop-color="#3178c6" />
      <stop offset="100%" stop-color="#8b8b8b" />
    </linearGradient>

    <linearGradient id="thread-11" x1="0%" y1="0%" x2="100%" y2="0%">
      <stop offset="0%" stop-color="#3178c6" />
      <stop offset="50%" stop-color="#3572A5" />
      <stop offset="100%" stop-color="#dea584" />
    </linearGradient>

    <linearGradient id="thread-12" x1="0%" y1="0%" x2="100%" y2="0%">
      <stop offset="0%" stop-color="#3572A5" />
      <stop offset="50%" stop-color="#3178c6" />
      <stop offset="100%" stop-color="#00ADD8" />
    </linearGradient>

    <linearGradient id="thread-13" x1="0%" y1="0%" x2="100%" y2="0%">
      <stop offset="0%" stop-color="#3572A5" />
      <stop offset="50%" stop-color="#00ADD8" />
      <stop offset="100%" stop-color="#3178c6" />
    </linearGradient>

    <linearGradient id="thread-14" x1="0%" y1="0%" x2="100%" y2="0%">
      <stop offset="0%" stop-color="#3572A5" />
      <stop offset="50%" stop-color="#3178c6" />
      <stop offset="100%" stop-color="#00ADD8" />
    </linearGradient>

    <linearGradient id="thread-15" x1="0%" y1="0%" x2="100%" y2="0%">
      <stop offset="0%" stop-color="#3572A5" />
      <stop offset="50%" stop-color="#00ADD8" />
      <stop offset="100%" stop-color="#DA5B0B" />
    </linearGradient>

    <linearGradient id="thread-16" x1="0%" y1="0%" x2="100%" y2="0%">
      <stop offset="0%" stop-color="#3572A5" />
      <stop offset="50%" stop-color="#3178c6" />
      <stop offset="100%" stop-color="#dea584" />
    </linearGradient>

    <linearGradient id="thread-17" x1="0%" y1="0%" x2="100%" y2="0%">
      <stop offset="0%" stop-color="#dea584" />
      <stop offset="50%" stop-color="#3572A5" />
      <stop offset="100%" stop-color="#3178c6" />
    </linearGradient>

    <linearGradient id="thread-18" x1="0%" y1="0%" x2="100%" y2="0%">
      <stop offset="0%" stop-color="#3572A5" />
      <stop offset="50%" stop-color="#3178c6" />
      <stop offset="100%" stop-color="#dea584" />
    </linearGradient>

    <linearGradient id="thread-19" x1="0%" y1="0%" x2="100%" y2="0%">
      <stop offset="0%" stop-color="#3572A5" />
      <stop offset="50%" stop-color="#dea584" />
      <stop offset="100%" stop-color="#3178c6" />
    </linearGradient>

    <linearGradient id="thread-20" x1="0%" y1="0%" x2="100%" y2="0%">
      <stop offset="0%" stop-color="#3572A5" />
      <stop offset="50%" stop-color="#3178c6" />
      <stop offset="100%" stop-color="#89e051" />
    </linearGradient>

    <linearGradient id="thread-21" x1="0%" y1="0%" x2="100%" y2="0%">
      <stop offset="0%" stop-color="#3572A5" />
      <stop offset="50%" stop-color="#f1e05a" />
      <stop offset="100%" stop-color="#89e051" />
    </linearGradient>

    <linearGradient id="thread-22" x1="0%" y1="0%" x2="100%" y2="0%">
      <stop offset="0%" stop-color="#3572A5" />
      <stop offset="50%" stop-color="#89e051" />
      <stop offset="100%" stop-color="#dea584" />
    </linearGradient>

    <linearGradient id="thread-23" x1="0%" y1="0%" x2="100%" y2="0%">
      <stop offset="0%" stop-color="#3572A5" />
      <stop offset="50%" stop-color="#89e051" />
      <stop offset="100%" stop-color="#00ADD8" />
    </linearGradient>

    <linearGradient id="thread-24" x1="0%" y1="0%" x2="100%" y2="0%">
      <stop offset="0%" stop-color="#3572A5" />
      <stop offset="50%" stop-color="#3178c6" />
      <stop offset="100%" stop-color="#3572A5" />
    </linearGradient>

    <linearGradient id="thread-25" x1="0%" y1="0%" x2="100%" y2="0%">
      <stop offset="0%" stop-color="#3572A5" />
      <stop offset="50%" stop-color="#3178c6" />
      <stop offset="100%" stop-color="#3572A5" />
    </linearGradient>

    <linearGradient id="thread-26" x1="0%" y1="0%" x2="100%" y2="0%">
      <stop offset="0%" stop-color="#3572A5" />
      <stop offset="50%" stop-color="#3178c6" />
      <stop offset="100%" stop-color="#3572A5" />
    </linearGradient>

    <!-- Background pattern -->
    <pattern id="loom" patternUnits="userSpaceOnUse" width="20" height="20">
      <rect width="20" height="20" fill="#fafafa"/>
      <circle cx="10" cy="10" r="0.5" fill="#eee"/>
    </pattern>
  </defs>

  <!-- Background -->
  <rect width="100%" height="100%" fill="url(#loom)"/>

  <!-- Threads -->
  <g id="tapestry">
    
    <path
      d="M 20,20 L 35.2,23.209870770552342 L 50.400000000000006,23.830631332820634 L 65.6,21.36157071631543 L 80.80000000000001,17.794255094264848 L 96,16.006112859723167 L 111.2,17.439475384965245 L 126.4,20.938179755171475 L 141.60000000000002,23.680140021034237 L 156.79999999999998,23.45366673381199 L 172,20.441435253905567 L 187.2,17.073138186353486 L 202.4,16.06567379451842 L 217.6,18.231671784653017 L 232.8,21.824018983595096 L 248,23.945096306548574 L 263.20000000000005,22.88402398857088 L 278.40000000000003,19.496672364196044 L 293.59999999999997,16.51530927117485 L 308.8,16.344728600139266 L 324,19.122522231973097 L 339.2,22.6080972073997 L 354.4,23.989957863288865 L 369.6,22.153483149032635 L 384.8,18.57998984334925 L 400,16.151889313655655 L 415.2,16.82770896418374 L 430.40000000000003,20.062326675939232 L 445.6,23.246671138564857 L 460.79999999999995,23.812221889955495 L 476,21.302800682325728 L 491.2,17.74252889936625 L 506.40000000000003,16.0031533111004 L 521.6,17.487669680763936 L 536.8000000000001,20.998653949319337 L 552,23.70411509263036 L 567.1999999999999,23.421804177648223 L 582.4,20.379435690138475 L 597.6,17.031011012536155 L 612.8000000000001,16.077399162368227 L 628,18.2877919085562 L 643.1999999999999,21.879266874294327 L 658.4,23.954908525818325 L 673.6,22.8404859133957 L 688.8,19.43490219183149 L 704,16.4851313700359 L 719.2,16.370484732710686 L 734.4,19.18343727348087 L 749.6,22.65503654555581 L 764.8,23.985059811976516 L 780,22.10069851984518"
      stroke="url(#thread-0)"
      stroke-width="7.412"
      stroke-linecap="round"
      fill="none"
      opacity="1"
      class="thread"
      style="animation-delay: 0s"
    >
      <title>2026-01-18: 3706 stars, JavaScript, Shell, Vue, TypeScript, Python, HTML</title>
    </path>

    <path
      d="M 20,33.917702154416816 L 35.2,35.516577124665986 L 50.400000000000006,30.105276922649782 L 65.6,28.471041805313146 L 80.80000000000001,33.871663096168035 L 96,35.541188579235474 L 111.2,30.151476804475365 L 126.4,28.446732243921964 L 141.60000000000002,33.82530436348697 L 156.79999999999998,35.565195209437256 L 172,30.197992408507737 L 187.2,28.423029569985594 L 202.4,33.77863387430582 L 217.6,35.588592915011034 L 232.8,30.24481579002152 L 248,28.39993783184952 L 263.20000000000005,33.73165959980395 L 278.40000000000003,35.611377699699005 L 293.59999999999997,30.29193895172387 L 308.8,28.37746097351322 L 324,33.6843895630462 L 339.2,35.633545671928424 L 354.4,30.339353845120378 L 369.6,28.35560283395656 L 384.8,33.63683183761285 L 400,35.655093045476235 L 415.2,30.38705237188972 L 430.40000000000003,28.33436714648408 L 445.6,33.588994546220526 L 460.79999999999995,35.67601614011581 L 476,30.435026385266898 L 491.2,28.31375753808738 L 506.40000000000003,33.540885859334765 L 521.6,35.696311382245426 L 536.8000000000001,30.48326769143452 L 552,28.293777528825657 L 567.1999999999999,33.49251399377472 L 582.4,35.715975305498766 L 597.6,30.53176805092259 L 612.8000000000001,28.274430531224432 L 628,33.4438872113097 L 643.1999999999999,35.7350045513368 L 658.4,30.58051918001533 L 673.6,28.25571984969277 L 688.8,33.39501381724803 L 704,35.753395869621514 L 719.2,30.629512752166438 L 734.4,28.237648679958856 L 749.6,33.34590215901848 L 764.8,35.77114611917103 L 780,30.678740399421027"
      stroke="url(#thread-1)"
      stroke-width="8"
      stroke-linecap="round"
      fill="none"
      opacity="0.9777777777777779"
      class="thread"
      style="animation-delay: 0.1s"
    >
      <title>2026-01-17: 6237 stars, JavaScript, TypeScript, Shell, Python</title>
    </path>

    <path
      d="M 20,47.36588393923159 L 35.2,46.58064787881556 L 50.400000000000006,41.305442462581034 L 65.6,40.71839340809461 L 80.80000000000001,45.84088464248704 L 96,47.760491942106725 L 111.2,43.13736486813529 L 126.4,40.01510327027936 L 141.60000000000002,43.82600925000049 L 156.79999999999998,47.93963500102657 L 172,45.19884230429529 L 187.2,40.37223028562877 L 202.4,41.85743437376454 L 217.6,47.070405463201794 L 232.8,46.94129693267897 L 248,41.694739717079116 L 263.20000000000005,40.45901563856375 L 278.40000000000003,45.384113190459445 L 293.59999999999997,47.901045776819664 L 308.8,43.630699812956074 L 324,40.002884950114414 L 339.2,43.32949584717314 L 354.4,47.8226909666882 L 369.6,45.66493403726588 L 384.8,40.61042282061628 L 400,41.45330573880685 L 415.2,46.72708342774943 L 430.40000000000003,47.256114217329944 L 445.6,42.11995791382806 L 460.79999999999995,40.25481406570827 L 476,44.905774260628334 L 491.2,47.980812879073206 L 506.40000000000003,44.129789253609815 L 521.6,40.05295032951293 L 536.8000000000001,42.84343034956986 L 552,47.64618113733975 L 567.1999999999999,46.10508249613106 L 582.4,40.901432300838806 L 597.6,41.08886010978328 L 612.8000000000001,46.3412675329063 L 628,47.52019419841937 L 643.1999999999999,42.57447123343451 L 658.4,40.10897059178903 L 673.6,44.41332140832635 L 688.8,47.99855030485154 L 704,44.626856296915165 L 719.2,40.16451928155587 L 734.4,42.37538670916417 L 749.6,47.412855917971775 L 764.8,46.51242921571454 L 780,41.24072416904443"
      stroke="url(#thread-2)"
      stroke-width="8"
      stroke-linecap="round"
      fill="none"
      opacity="0.9555555555555556"
      class="thread"
      style="animation-delay: 0.2s"
    >
      <title>2026-01-16: 5731 stars, JavaScript, TypeScript, Shell, Python, C</title>
    </path>

    <path
      d="M 20,59.98997994641622 L 35.2,58.5764694592161 L 50.400000000000006,55.04198390715458 L 65.6,52.2961466495228 L 80.80000000000001,52.59935799293892 L 96,55.70201136959818 L 111.2,59.04997192520874 L 126.4,59.88716551684245 L 141.60000000000002,57.52440612447287 L 156.79999999999998,53.90674057858238 L 172,52.01226682960292 L 187.2,53.40053434870985 L 202.4,56.928707624754246 L 217.6,59.692359626306335 L 232.8,59.41642477388522 L 248,56.32805535894072 L 263.20000000000005,52.96962753762989 L 278.40000000000003,52.10583220922087 L 293.59999999999997,54.447754205767815 L 308.8,58.067500246502775 L 324,59.98525969712253 L 339.2,58.622314067245924 L 354.4,55.100653639113524 L 369.6,52.319344003532116 L 384.8,52.567986678433805 L 400,55.64189656202532 L 415.2,59.010600726941846 L 430.40000000000003,59.90094868652611 L 445.6,57.57999722091048 L 460.79999999999995,53.958376463014176 L 476,52.017440332793804 L 491.2,53.354986591818246 L 506.40000000000003,56.869933970390385 L 521.6,59.66874312629744 L 536.8000000000001,59.44740676391605 L 552,56.38813115931088 L 567.1999999999999,53.00934215707956 L 582.4,52.092492181401404 L 597.6,54.392341173123434 L 612.8000000000001,58.01563076392286 L 628,59.97963323414114 L 643.1999999999999,58.66756238367074 L 658.4,55.15952787467931 L 673.6,52.34337830697441 L 688.8,52.5373957741616 L 704,55.58186318408612 L 719.2,58.970544944031964 L 734.4,59.9138448141188 L 749.6,57.6352290396054 L 764.8,54.01047659503205 L 780,52.02351943570888"
      stroke="url(#thread-3)"
      stroke-width="7.494"
      stroke-linecap="round"
      fill="none"
      opacity="0.9333333333333333"
      class="thread"
      style="animation-delay: 0.30000000000000004s"
    >
      <title>2026-01-15: 3747 stars, TypeScript, Shell, Python, JavaScript, C</title>
    </path>

    <path
      d="M 20,71.63718970730272 L 35.2,68.54045800382299 L 50.400000000000006,64.94130576809448 L 65.6,64.18557665332978 L 80.80000000000001,66.9758115070881 L 96,70.71815239700831 L 111.2,71.93364464304115 L 126.4,69.49234242723904 L 141.60000000000002,65.66372894712556 L 156.79999999999998,64.00695960209687 L 172,66.0622001964425 L 187.2,69.9188581105579 L 202.4,71.99170728024377 L 217.6,70.35378580330188 L 232.8,66.5277381301905 L 248,64.07033443497743 L 263.20000000000005,65.26602617136604 L 278.40000000000003,69.00327446981896 L 293.59999999999997,71.80785882481561 L 308.8,71.0725817216431 L 324,67.4809714102545 L 339.2,64.37186042067754 L 354.4,64.63554029666626 L 369.6,68.02688897008504 L 384.8,71.39324112098738 L 400,71.60516869496502 L 415.2,68.46565959530948 L 430.40000000000003,64.89326405477006 L 445.6,64.20895216942257 L 460.79999999999995,67.0488739069397 L 476,70.7729814175064 L 491.2,71.91927013393081 L 506.40000000000003,69.42212721868827 L 521.6,65.60294649646593 L 536.8000000000001,64.01211448691956 L 552,66.12850033307407 L 567.1999999999999,69.9846695705544 L 582.4,71.99585041870101 L 597.6,70.29240907613293 L 612.8000000000001,66.45789856627418 L 628,64.05695628490612 L 643.1999999999999,65.32154603008658 L 658.4,69.0760799700957 L 673.6,71.83026852250133 L 688.8,71.02376311512033 L 704,67.40630724915285 L 719.2,64.34075999729214 L 734.4,64.67691518444023 L 749.6,68.10227624869879 L 764.8,71.43255927369401 L 780,71.57186678335641"
      stroke="url(#thread-4)"
      stroke-width="8"
      stroke-linecap="round"
      fill="none"
      opacity="0.9111111111111111"
      class="thread"
      style="animation-delay: 0.4s"
    >
      <title>2026-01-14: 4003 stars, TypeScript, Shell, Python, C, HTML, Jupyter Notebook</title>
    </path>

    <path
      d="M 20,82.39388857641583 L 35.2,77.65196371869091 L 50.400000000000006,76.21005566588673 L 65.6,80.09467518501387 L 80.80000000000001,83.84623470671177 L 96,82.19215409036981 L 111.2,77.45713925048899 L 126.4,76.29595470989179 L 141.60000000000002,80.34057205610775 L 156.79999999999998,83.90653687153088 L 172,81.98211066203042 L 187.2,77.27195301133341 L 202.4,76.3958932316429 L 217.6,80.58517805373002 L 232.8,83.95203205285591 L 248,81.76455442098214 L 263.20000000000005,77.09710691437041 L 278.40000000000003,76.50949243321988 L 293.59999999999997,80.82756604546431 L 308.8,83.98254780987263 L 324,81.54030997269426 L 339.2,76.93326368040799 L 354.4,76.63632173849916 L 369.6,81.06681730582284 L 384.8,83.99796847841984 L 400,81.31022727301097 L 415.2,76.78104432599875 L 430.40000000000003,76.77590042517058 L 445.6,81.30202499850034 L 460.79999999999995,83.99823560939231 L 476,81.07517840655571 L 491.2,76.64102580959529 L 506.40000000000003,76.92769944682348 L 521.6,81.53229761356417 L 536.8000000000001,83.98334819028102 L 552,80.83605428126054 L 567.1999999999999,76.51373884469895 L 582.4,77.09114343819658 L 597.6,81.75676234655282 L 612.8000000000001,83.95336264901081 L 628,80.59376125154955 L 643.1999999999999,76.39966588829154 L 658.4,77.26561289599009 L 673.6,81.974568406675 L 688.8,83.90839264006115 L 704,80.34921768297504 L 719.2,76.29923931217395 L 734.4,77.45044652697511 L 749.6,82.1848902415698 L 764.8,83.8486086136805 L 780,80.10335047132796"
      stroke="url(#thread-5)"
      stroke-width="8"
      stroke-linecap="round"
      fill="none"
      opacity="0.888888888888889"
      class="thread"
      style="animation-delay: 0.5s"
    >
      <title>2026-01-13: 5049 stars, TypeScript, Shell, C, Rust, Python</title>
    </path>

    <path
      d="M 20,92.56448003223947 L 35.2,89.18824102230849 L 50.400000000000006,88.03367000293682 L 65.6,90.0130334581712 L 80.80000000000001,93.56236788151382 L 96,95.8772214196253 L 111.2,95.12854825127471 L 126.4,91.90790093367329 L 141.60000000000002,88.76002427288914 L 156.79999999999998,88.17216446284556 L 172,90.60880986590651 L 187.2,94.14468269714303 L 202.4,95.98596757260071 L 217.6,94.67780164601103 L 232.8,91.25381204846997 L 248,88.41941135239882 L 263.20000000000005,88.41415755293211 L 278.40000000000003,91.24220185868928 L 293.59999999999997,94.669008678308 L 308.8,95.98693945479226 L 324,94.1546515115048 L 339.2,90.61989890751924 L 354.4,88.17561189650486 L 369.6,88.75310616205877 L 384.8,91.89608351692807 L 400,95.12116887819624 L 415.2,95.88011078803973 L 430.40000000000003,93.5732430015311 L 445.6,90.02330152143628 L 460.79999999999995,88.03521785762479 L 476,89.17984565491015 L 491.2,92.55277491282317 L 506.40000000000003,95.48893759879775 L 521.6,95.66837005084888 L 536.8000000000001,92.94929648436904 L 552,89.48015094173257 L 567.1999999999999,88.00202526893929 L 582.4,89.68283766926453 L 597.6,93.19452014770413 L 612.8000000000001,95.76237095447914 L 628,95.35744237849248 L 643.1999999999999,92.29968248886027 L 658.4,89.005133102648 L 673.6,88.07693160564753 L 688.8,90.24848209509348 L 704,93.80396744349989 L 719.2,95.93407573895375 L 734.4,94.95573476439041 L 749.6,91.64196555194128 L 764.8,88.61109173667259 L 780,88.25791151865448"
      stroke="url(#thread-6)"
      stroke-width="7.33"
      stroke-linecap="round"
      fill="none"
      opacity="0.8666666666666667"
      class="thread"
      style="animation-delay: 0.6000000000000001s"
    >
      <title>2026-01-12: 3665 stars, TypeScript, Unknown, Python, Shell, C</title>
    </path>

    <path
      d="M 20,102.59686708924153 L 35.2,100.22005752640676 L 50.400000000000006,100.58135353451188 L 65.6,103.41904038655716 L 80.80000000000001,106.67756135583353 L 96,107.99651691739307 L 111.2,106.4204852371317 L 126.4,103.09110832517219 L 141.60000000000002,100.4201121625528 L 156.79999999999998,100.34230647823614 L 172,102.91405196531913 L 187.2,106.27243385871873 L 202.4,107.98471561921464 L 217.6,106.81055873367184 L 232.8,103.60049612208103 L 248,100.67982516165527 L 263.20000000000005,100.16421440647757 L 278.40000000000003,102.42716072615679 L 293.59999999999997,105.82943654833218 L 308.8,107.90650955600346 L 324,107.15379463622655 L 339.2,104.11654159890436 L 354.4,100.99486844052595 L 369.6,100.05004520033721 L 384.8,101.96648064793906 L 400,105.35595191695624 L 415.2,107.76320202158223 L 430.40000000000003,107.44447296333715 L 445.6,104.63064492521269 L 460.79999999999995,101.35999184409539 L 476,100.00170147471465 L 491.2,101.53968890396334 L 506.40000000000003,104.85987052409328 L 521.6,107.55718121728324 L 536.8000000000001,107.67774959867103 L 552,105.13423863626122 L 567.1999999999999,101.76911063856096 L 582.4,100.01998887147936 L 597.6,101.15389792286561 L 612.8000000000001,104.34945950132251 L 628,107.29188045288532 L 643.1999999999999,107.84973701758723 L 658.4,105.61893040866983 L 673.6,102.21540691268059 L 688.8,100.10460263355422 L 704,100.81553686092698 L 719.2,103.83322478163304 L 734.4,106.97172093095507 L 749.6,107.95756907222646 L 764.8,106.0766429173955 L 780,102.69144319737237"
      stroke="url(#thread-7)"
      stroke-width="6.996"
      stroke-linecap="round"
      fill="none"
      opacity="0.8444444444444444"
      class="thread"
      style="animation-delay: 0.7000000000000001s"
    >
      <title>2026-01-11: 3498 stars, TypeScript, Unknown, Shell, Python</title>
    </path>

    <path
      d="M 20,112.9727900187683 L 35.2,112.13263366007212 L 50.400000000000006,114.65876710554504 L 65.6,118.3523561838102 L 80.80000000000001,119.99837284681718 L 96,118.1640670980202 L 111.2,114.4460822851553 L 126.4,112.08068134984904 L 141.60000000000002,113.12679131152674 L 156.79999999999998,116.67384177459951 L 172,119.63435698445913 L 187.2,119.4314018152174 L 202.4,116.24163548580277 L 217.6,112.84154124827522 L 232.8,112.19067906126453 L 248,114.85558194788588 L 263.20000000000005,118.51662600188644 L 278.40000000000003,119.98711149317914 L 293.59999999999997,117.98707684548118 L 308.8,114.25742158853717 L 324,112.0445670232964 L 339.2,113.27465851751784 L 354.4,116.87698176817793 L 369.6,119.71594966918303 L 384.8,119.32042608821243 L 400,116.03468846911296 L 415.2,112.71875680330746 L 430.40000000000003,112.25893302777006 L 445.6,115.05546370598897 L 460.79999999999995,118.67415153631678 L 476,119.96516511490198 L 491.2,117.80476144337209 L 506.40000000000003,114.07343081230977 L 521.6,112.01905282640827 L 536.8000000000001,113.42982934191548 L 552,117.0777715461135 L 567.1999999999999,119.78758401342887 L 582.4,119.20055198085721 L 597.6,115.82764849110325 L 612.8000000000001,112.60476573280732 L 628,112.33721264639074 L 643.1999999999999,115.25787671850802 L 658.4,118.8245106358222 L 673.6,119.93259252588967 L 688.8,117.61760947711794 L 704,113.89460303171838 L 719.2,112.00420713445403 L 734.4,113.59188794380698 L 749.6,117.27567301366564 L 764.8,119.84906804495444 L 780,119.07210074270624"
      stroke="url(#thread-8)"
      stroke-width="7.724"
      stroke-linecap="round"
      fill="none"
      opacity="0.8222222222222222"
      class="thread"
      style="animation-delay: 0.8s"
    >
      <title>2026-01-10: 3862 stars, TypeScript, Unknown, Shell, Python</title>
    </path>

    <path
      d="M 20,124.08987952933961 L 35.2,125.12989629964281 L 50.400000000000006,128.72673218168413 L 65.6,131.67616193306407 L 80.80000000000001,131.35069918243005 L 96,128.04028097312872 L 111.2,124.69397863813462 L 126.4,124.29283072413926 L 141.60000000000002,127.19419806552979 L 156.79999999999998,130.81341047505236 L 172,131.92630868035894 L 187.2,129.54147226678205 L 202.4,125.78342214269281 L 217.6,124.00000054074138 L 232.8,125.77996066018967 L 248,129.53763294806276 L 263.20000000000005,131.92551176542264 L 278.40000000000003,130.81636589202435 L 293.59999999999997,127.1982729943499 L 308.8,124.29439503259835 L 324,124.69163876900184 L 339.2,128.03612138841044 L 354.4,131.3484254296656 L 369.6,131.6777995747873 L 384.8,128.73082233205207 L 400,125.1327952663982 L 415.2,124.08900478084655 L 430.40000000000003,126.52930698539647 L 445.6,130.27976951856797 L 460.79999999999995,131.99930951932117 L 476,130.15608242859824 L 491.2,126.39211889924536 L 506.40000000000003,124.0605290946817 L 521.6,125.23839941854496 L 536.8000000000001,128.8764293334267 L 552,131.73369607605287 L 567.1999999999999,131.26481628136563 L 582.4,127.88748942831232 L 597.6,124.61039211746262 L 612.8000000000001,124.35291190765741 L 628,127.3444238982154 L 643.1999999999999,130.91995294224535 L 658.4,131.89425489919142 L 673.6,129.3993772055927 L 688.8,125.65787055452994 L 704,124.0028394993131 L 719.2,125.90866109188354 L 734.4,129.67754264592094 L 749.6,131.9519927975973 L 764.8,130.7058277488227 L 780,127.04918808883448"
      stroke="url(#thread-9)"
      stroke-width="7.822"
      stroke-linecap="round"
      fill="none"
      opacity="0.8"
      class="thread"
      style="animation-delay: 0.9s"
    >
      <title>2026-01-09: 3911 stars, TypeScript, Unknown, Python, Shell</title>
    </path>

    <path
      d="M 20,136.16430290134744 L 35.2,138.68235119224042 L 50.400000000000006,142.29744415185942 L 65.6,143.9997369452652 L 80.80000000000001,142.3719389995684 L 96,138.7693181581986 L 111.2,136.19133525183497 L 126.4,136.78436068421348 L 141.60000000000002,140.05465486009552 L 156.79999999999998,143.2794446325776 L 172,143.77384279436285 L 187.2,141.12622459049348 L 202.4,137.54093720230645 L 217.6,136.00301001843607 L 232.8,137.7928865136672 L 248,141.4203559010224 L 263.20000000000005,143.8652690110645 L 278.40000000000003,143.09204635017213 L 293.59999999999997,139.74445566045895 L 308.8,136.60962542229078 L 324,136.29754456434955 L 339.2,139.06804456783098 L 354.4,142.61446963748364 L 369.6,143.98414627427857 L 384.8,142.0367126128798 L 400,138.3935579820324 L 415.2,136.0878907310168 L 430.40000000000003,137.03935739287522 L 445.6,140.45578829180673 L 460.79999999999995,143.49274014241385 L 476,143.621715353179 L 491.2,140.7353320735404 L 506.40000000000003,137.23672789993503 L 521.6,136.03876173227155 L 536.8000000000001,138.1388331733955 L 552,141.78847012295554 L 567.1999999999999,143.9490671993644 L 582.4,142.8217600239037 L 597.6,139.34511911670967 L 612.8000000000001,136.41371725760902 L 628,136.46817349659585 L 643.1999999999999,139.46314879772393 L 658.4,142.90509429750273 L 673.6,143.92832382952625 L 688.8,141.68091957139836 L 704,138.03401960280473 L 719.2,136.02395055673145 L 734.4,137.32425057003258 L 749.6,140.85231918882698 L 764.8,143.67076608091458 L 780,143.43301595336166"
      stroke="url(#thread-10)"
      stroke-width="7.54"
      stroke-linecap="round"
      fill="none"
      opacity="0.7777777777777778"
      class="thread"
      style="animation-delay: 1s"
    >
      <title>2026-01-08: 3770 stars, TypeScript, Unknown, Python, Rust, JavaScript</title>
    </path>

    <path
      d="M 20,149.17783869771844 L 35.2,152.44923258934188 L 50.400000000000006,155.38365567508302 L 65.6,155.77998778810266 L 80.80000000000001,153.34093893945112 L 96,149.89604749214092 L 111.2,148.02933756801448 L 126.4,149.14103426739877 L 141.60000000000002,152.39725033105236 L 156.79999999999998,155.35548764746542 L 172,155.79676291900324 L 187.2,153.39007414938627 L 202.4,149.9406863025695 L 217.6,148.0359962640845 L 232.8,149.10471813983477 L 248,152.3452002236001 L 263.20000000000005,155.3267465126412 L 278.40000000000003,155.81288957420693 L 293.59999999999997,153.43897193883396 L 308.8,149.98567683758912 L 324,148.0433320000804 L 339.2,149.06889651771183 L 354.4,152.29309115698697 L 369.6,155.2974371795098 L 384.8,155.82836499932947 L 400,153.4876239561988 L 415.2,150.03101141295167 L 430.40000000000003,148.0513435230805 L 445.6,149.03357551925546 L 460.79999999999995,152.24093203128504 L 476,155.2675646540173 L 491.2,155.84318655121473 L 506.40000000000003,153.53602189186233 L 521.6,150.07668228564785 L 536.8000000000001,148.06002946474075 L 552,148.99876117718597 L 567.1999999999999,152.18873175511618 L 582.4,155.2371340383012 L 597.6,155.8573516983862 L 612.8000000000001,153.58415747960268 L 628,150.1226816552299 L 643.1999999999999,148.06938834152842 L 658.4,148.9644594376884 L 673.6,152.13649924413068 L 688.8,155.20615052981933 L 704,155.8708580214793 L 719.2,153.63202249800602 L 734.4,150.16900166514372 L 749.6,148.07941855497546 L 764.8,148.9306761593968 L 780,152.0842434194845"
      stroke="url(#thread-11)"
      stroke-width="7.128"
      stroke-linecap="round"
      fill="none"
      opacity="0.7555555555555555"
      class="thread"
      style="animation-delay: 1.1s"
    >
      <title>2026-01-07: 3564 stars, TypeScript, Python, Unknown, Shell, Rust</title>
    </path>

    <path
      d="M 20,162.88233800720428 L 35.2,166.80862598518598 L 50.400000000000006,167.8559014803487 L 65.6,164.950643404649 L 80.80000000000001,161.0709180117879 L 96,160.19367983215554 L 111.2,163.21815136205012 L 126.4,167.04406530549684 L 141.60000000000002,167.74962714109208 L 156.79999999999998,164.61159306820392 L 172,160.8466388973562 L 187.2,160.3140716748711 L 202.4,163.55980519972437 L 217.6,167.25676517179775 L 232.8,167.6153427345825 L 248,164.26797407404243 L 263.20000000000005,160.6459156868142 L 278.40000000000003,160.46199774869592 L 293.59999999999997,163.90474733394018 L 308.8,167.44513669609117 L 324,167.45405137796095 L 339.2,163.92235328835517 L 354.4,160.470247801415 L 369.6,160.63635303195176 L 384.8,164.2504010145263 L 400,167.60777272538147 L 415.2,167.2669579328246 L 430.40000000000003,163.57731253090353 L 445.6,160.32094749677742 L 460.79999999999995,160.8358350742812 L 476,164.5941841759933 L 491.2,167.74345835324016 L 506.40000000000003,167.05546000479765 L 521.6,163.23542928858367 L 536.8000000000001,160.19913006021307 L 552,161.05895372607444 L 567.1999999999999,164.93352872580533 L 582.4,167.8511799952711 L 597.6,166.82113750328577 L 612.8000000000001,162.8992574613567 L 628,160.10570547942532 L 643.1999999999999,161.3040422700268 L 658.4,165.2658997282729 L 673.6,167.93013296068122 L 688.8,166.56574083940424 L 704,162.57130828437613 L 719.2,160.04137164481565 L 734.4,161.56926987167373 L 749.6,165.58881434076085 L 764.8,167.9797274633964 L 780,166.29117785024263"
      stroke="url(#thread-12)"
      stroke-width="8"
      stroke-linecap="round"
      fill="none"
      opacity="0.7333333333333334"
      class="thread"
      style="animation-delay: 1.2000000000000002s"
    >
      <title>2026-01-06: 4224 stars, TypeScript, Python, Rust, JavaScript, Go</title>
    </path>

    <path
      d="M 20,176.86047995235126 L 35.2,179.67168822953658 L 50.400000000000006,179.43491814461404 L 65.6,176.34671963606507 L 80.80000000000001,172.97069877377078 L 96,172.1093915833992 L 111.2,174.47779495882114 L 126.4,178.10982632718685 L 141.60000000000002,179.9904276745231 L 156.79999999999998,178.55845550059448 L 172,175.0026327928715 L 187.2,172.27475447376762 L 202.4,172.6393140327372 L 217.6,175.793679661747 L 232.8,179.11931798259354 L 248,179.85551702616272 L 263.20000000000005,177.39113591808714 L 278.40000000000003,173.77193122151323 L 293.59999999999997,172.00231314601604 L 308.8,173.55129465405807 L 324,177.1330198056286 L 339.2,179.77419128392836 L 354.4,179.28229354482303 L 369.6,176.06566563330608 L 384.8,172.7945267129728 L 400,172.1843471683779 L 415.2,174.74165531365355 L 430.40000000000003,178.34355306901747 L 445.6,179.99999723511564 L 460.79999999999995,178.33592390110397 L 476,174.7327301785962 L 491.2,172.18153508808518 L 506.40000000000003,172.80016207951422 L 521.6,176.07507036014297 L 536.8000000000001,179.28766048654754 L 552,179.77106518148136 L 567.1999999999999,177.12399573027446 L 582.4,173.5438637610088 L 597.6,172.00264404213837 L 612.8000000000001,173.77974922002608 L 628,177.39995106428506 L 643.1999999999999,179.85801160318348 L 658.4,179.11342116734258 L 673.6,175.78428657716682 L 688.8,172.6342221596497 L 704,172.27819072851844 L 719.2,175.01174463748012 L 734.4,178.56567891996218 L 749.6,179.9897662918998 L 764.8,178.1018291760958 L 780,174.46910071388828"
      stroke="url(#thread-13)"
      stroke-width="7.528"
      stroke-linecap="round"
      fill="none"
      opacity="0.7111111111111112"
      class="thread"
      style="animation-delay: 1.3s"
    >
      <title>2026-01-05: 3764 stars, Go, TypeScript, Python, Rust, JavaScript</title>
    </path>

    <path
      d="M 20,190.62794639487515 L 35.2,191.96729990954617 L 50.400000000000006,189.77903742065396 L 65.6,186.0089028728998 L 80.80000000000001,184.009198151564 L 96,185.55800672354331 L 111.2,189.27816980842303 L 126.4,191.86181879699885 L 141.60000000000002,191.01164274039104 L 156.79999999999998,187.48359524218768 L 172,184.41472091705134 L 187.2,184.53377998707316 L 202.4,187.7349083405514 L 217.6,191.1717490428823 L 232.8,191.7883561006542 L 248,189.03645916010024 L 263.20000000000005,185.36297070804707 L 278.40000000000003,184.03425752992126 L 293.59999999999997,186.23177552221895 L 308.8,190.00155099641347 L 324,191.99160134574248 L 339.2,190.43242751032957 L 354.4,186.71040478307992 L 369.6,184.13505531700204 L 384.8,184.99631034957164 L 400,188.52836515079306 L 415.2,191.59061192031567 L 430.40000000000003,191.46018347962476 L 445.6,188.25305327796576 L 460.79999999999995,184.82091493135704 L 476,184.21553322541698 L 491.2,186.97519723403178 L 506.40000000000003,190.64608820308553 L 521.6,191.96414895892957 L 536.8000000000001,189.75739545145564 L 552,185.9880133400219 L 567.1999999999999,184.0076354638405 L 582.4,185.5771603807216 L 597.6,189.3010088954905 L 612.8000000000001,191.8680354141539 L 628,190.9957092394437 L 643.1999999999999,187.45967926214084 L 658.4,184.4040879018789 L 673.6,184.5458845268852 L 688.8,187.75898740524426 L 704,191.18639217801643 L 719.2,191.7805430256813 L 734.4,189.01313705041414 L 749.6,185.34487695412525 L 764.8,184.03748060940705 L 780,186.25344955982337"
      stroke="url(#thread-14)"
      stroke-width="7.814"
      stroke-linecap="round"
      fill="none"
      opacity="0.6888888888888889"
      class="thread"
      style="animation-delay: 1.4000000000000001s"
    >
      <title>2026-01-04: 3907 stars, Python, Jupyter Notebook, TypeScript, Go, Rust</title>
    </path>

    <path
      d="M 20,203.75199990709896 L 35.2,203.24693429287845 L 50.400000000000006,199.87782177878054 L 65.6,196.61647989511505 L 80.80000000000001,196.33966414994367 L 96,199.29154741690115 L 111.2,202.86834059619804 L 126.4,203.91503576570403 L 141.60000000000002,201.50836691972407 L 156.79999999999998,197.77120191624914 L 172,196.00000901643526 L 187.2,197.75711719778064 L 202.4,201.49262129264173 L 217.6,203.9115180895794 L 232.8,202.88015373314371 L 248,199.3082712674648 L 263.20000000000005,196.34654698586704 L 278.40000000000003,196.60745052335554 L 293.59999999999997,199.86084480282656 L 308.8,203.2369847171386 L 324,203.75785402606593 L 339.2,200.96400575750738 L 354.4,197.3198299331037 L 369.6,196.0397711738574 L 384.8,198.2529402009559 L 400,202.00715094618445 L 415.2,203.9908994872304 L 430.40000000000003,202.45436634928012 L 445.6,198.7528924703863 L 460.79999999999995,196.15146378237856 L 476,196.94474137078672 L 491.2,200.43299311512848 L 506.40000000000003,203.5393114794903 L 521.6,203.52368367673444 L 536.8000000000001,200.3998946362736 L 552,196.9233676313245 L 567.1999999999999,196.16066807181963 L 582.4,198.78455589433327 L 597.6,202.48055932154028 L 612.8000000000001,203.98851778263827 L 628,201.97829541219744 L 643.1999999999999,198.22306364788838 L 658.4,196.0352270297352 L 673.6,197.3446264841168 L 688.8,200.99627052991568 L 704,203.7691269978746 L 719.2,203.21732225627846 L 734.4,199.82759071887028 L 749.6,196.5899374875161 L 764.8,196.36022284878726 L 780,199.3410728614712"
      stroke="url(#thread-15)"
      stroke-width="7.78"
      stroke-linecap="round"
      fill="none"
      opacity="0.6666666666666667"
      class="thread"
      style="animation-delay: 1.5s"
    >
      <title>2026-01-03: 3890 stars, Go, Python, Jupyter Notebook, TypeScript, Rust, JavaScript</title>
    </path>

    <path
      d="M 20,215.95743298649353 L 35.2,214.76664542415983 L 50.400000000000006,212.41045931112149 L 65.6,209.88137475503476 L 80.80000000000001,208.24472215586152 L 96,208.18991134921984 L 111.2,209.7400303803161 L 126.4,212.24212008912073 L 141.60000000000002,214.64222115908723 L 156.79999999999998,215.9293351138449 L 172,215.56128884932787 L 187.2,213.69311509199795 L 202.4,211.11174771138693 L 217.6,208.90454028664524 L 232.8,208.00123839031212 L 248,208.7823413489881 L 263.20000000000005,210.91882389328273 L 278.40000000000003,213.51073200704926 L 293.59999999999997,215.46627202097045 L 308.8,215.96170863518924 L 324,214.7883482790967 L 339.2,212.44044744342472 L 354.4,209.90701621497223 L 369.6,208.25521594956965 L 384.8,208.18083715891157 L 400,209.71521054193005 L 415.2,212.21200950353838 L 430.40000000000003,214.61950335723455 L 445.6,215.92357955233643 L 460.79999999999995,215.57491995269663 L 476,213.72039100840712 L 491.2,211.1411789622157 L 506.40000000000003,208.92372949825048 L 521.6,208.00210245988686 L 536.8000000000001,208.76451630310038 L 552,210.88981820499612 L 567.1999999999999,213.48276378960523 L 582.4,215.45112237208053 L 597.6,215.96575906608928 L 612.8000000000001,214.80989262019253 L 628,212.47041053688446 L 643.1999999999999,209.93277665821662 L 658.4,208.2659226292032 L 673.6,208.17198008286272 L 688.8,209.69052059074485 L 704,212.1818868655015 L 719.2,214.596636640147 L 734.4,215.91760094061925 L 749.6,215.58834782668495 L 764.8,213.74756912290653 L 780,211.1706590358628"
      stroke="url(#thread-16)"
      stroke-width="5.26"
      stroke-linecap="round"
      fill="none"
      opacity="0.6444444444444445"
      class="thread"
      style="animation-delay: 1.6s"
    >
      <title>2026-01-02: 2630 stars, TypeScript, Rust, Python, JavaScript, Jupyter Notebook, Shell</title>
    </path>

    <path
      d="M 20,227.19394845049396 L 35.2,223.98147682672874 L 50.400000000000006,220.78388643070355 L 65.6,220.17007138254607 L 80.80000000000001,222.6331610930832 L 96,226.194347806759 L 111.2,227.99262980777823 L 126.4,226.58329545812367 L 141.60000000000002,223.09858193508418 L 156.79999999999998,220.33805358898843 L 172,220.51947572384356 L 187.2,223.4970966335931 L 202.4,226.87874224349218 L 217.6,227.94765135284922 L 232.8,225.84507909884766 L 248,222.26019915024827 L 263.20000000000005,220.07304799726825 L 278.40000000000003,221.0407486734597 L 293.59999999999997,224.38586558850994 L 308.8,227.4209841239319 L 324,227.7077375116655 L 339.2,225.01575256426582 L 354.4,221.5077278911118 L 369.6,220.0019556559935 L 384.8,221.70814972528208 L 400,225.25558046523815 L 415.2,227.79429749423647 L 430.40000000000003,227.28473525173226 L 445.6,224.13626807479986 L 460.79999999999995,220.87832525753853 L 476,220.12828711150362 L 491.2,222.4887225540948 L 506.40000000000003,226.06329466331263 L 521.6,227.9802481059047 L 536.8000000000001,226.69953246348265 L 552,223.25005465528895 L 567.1999999999999,220.40307120936254 L 582.4,220.44580410492645 L 597.6,223.34392240194322 L 612.8000000000001,226.76912318147265 L 628,227.9696537006595 L 643.1999999999999,225.98102651433055 L 658.4,222.40087360575563 L 673.6,220.1054338351179 L 688.8,220.93882761797417 L 704,224.23151942182105 L 719.2,227.33821214268633 L 734.4,227.76303743120457 L 749.6,225.16469729401405 L 764.8,221.63065756439278 L 780,220.00011049567215"
      stroke="url(#thread-17)"
      stroke-width="7.396"
      stroke-linecap="round"
      fill="none"
      opacity="0.6222222222222222"
      class="thread"
      style="animation-delay: 1.7000000000000002s"
    >
      <title>2026-01-01: 3698 stars, Rust, Python, JavaScript, TypeScript, Jupyter Notebook, Go, Shell</title>
    </path>

    <path
      d="M 20,237.64847394096702 L 35.2,234.06166431756628 L 50.400000000000006,232.0359885242082 L 65.6,233.20292403838485 L 80.80000000000001,236.62262203764044 L 96,239.54086080302886 L 111.2,239.60729343536406 L 126.4,236.76841515180723 L 141.60000000000002,233.31065599025024 L 156.79999999999998,232.01889209581412 L 172,233.93350895709492 L 187.2,237.51247586145428 L 202.4,239.87329605581004 L 217.6,239.11456706098522 L 232.8,235.8473685327844 L 248,232.7030992521637 L 263.20000000000005,232.21415089370544 L 278.40000000000003,234.77432202927235 L 293.59999999999997,238.32165310941528 L 308.8,239.99912684566345 L 324,238.45570738679783 L 339.2,234.93446338858186 L 354.4,232.2714016269666 L 369.6,232.61134966986364 L 384.8,235.68051366668615 L 400,239.00699167144475 L 415.2,239.9116412656285 L 430.40000000000003,237.66585847283977 L 445.6,234.07839475162274 L 460.79999999999995,232.03859018377935 L 476,233.18930154917223 L 491.2,236.60374694030747 L 506.40000000000003,239.5319350841349 L 521.6,239.6155058609464 L 536.8000000000001,236.78715144162564 L 552,233.3248259531938 L 567.1999999999999,232.01708325636474 L 582.4,233.917178152932 L 597.6,237.49477590768697 L 612.8000000000001,239.8684824794179 L 628,239.1265167121018 L 643.1999999999999,235.86645717305697 L 658.4,232.71395290773984 L 673.6,232.20802804006328 L 688.8,234.75615400727503 L 704,238.30607242777734 L 719.2,239.9986821714814 L 734.4,238.4707568602613 L 749.6,234.95288617718438 L 764.8,232.27836003319695 L 780,232.6012393995493"
      stroke="url(#thread-18)"
      stroke-width="7.406"
      stroke-linecap="round"
      fill="none"
      opacity="0.6000000000000001"
      class="thread"
      style="animation-delay: 1.8s"
    >
      <title>2025-12-31: 3703 stars, Go, Python, TypeScript, Rust, Shell</title>
    </path>

    <path
      d="M 20,247.69939551815276 L 35.2,244.33326721989343 L 50.400000000000006,244.87313015458258 L 65.6,248.74389472165532 L 80.80000000000001,251.82222459679016 L 96,250.82892540573806 L 111.2,246.82211023298495 L 126.4,244.07004346412475 L 141.60000000000002,245.5043673311677 L 156.79999999999998,249.59716671570814 L 172,251.9885824534883 L 187.2,250.13115623045215 L 202.4,246.00351342731722 L 217.6,244.00263019932962 L 232.8,246.25994966366306 L 248,250.37085971291594 L 263.20000000000005,251.95620877680267 L 278.40000000000003,249.32720197550523 L 293.59999999999997,245.28439177167988 L 308.8,244.13438629840073 L 324,247.10223018418324 L 339.2,251.02642437965048 L 354.4,251.72671658852332 L 369.6,248.45711974482313 L 384.8,244.70057557696182 L 400,244.458747000071 L 415.2,247.98924217865527 L 430.40000000000003,251.53119713857023 L 445.6,251.3115403606734 L 460.79999999999995,247.5642614755639 L 476,244.2811535454635 L 491.2,244.95955099882303 L 506.40000000000003,248.87679018268878 L 521.6,251.86002763474082 L 536.8000000000001,250.73136629175758 L 552,246.693113923364 L 567.1999999999999,244.04702342329566 L 582.4,245.61184568360827 L 597.6,249.72065202516146 L 612.8000000000001,251.9965318546713 L 628,250.0151016147815 L 643.1999999999999,245.8870821051364 L 658.4,244.00985076801723 L 673.6,246.3831304042742 L 688.8,250.47878220247046 L 704,251.9339084614817 L 719.2,249.19843429137663 L 734.4,245.18632663961222 L 749.6,244.1714877110232 L 764.8,247.2349758198204 L 780,251.11340680009903"
      stroke="url(#thread-19)"
      stroke-width="8"
      stroke-linecap="round"
      fill="none"
      opacity="0.5777777777777777"
      class="thread"
      style="animation-delay: 1.9000000000000001s"
    >
      <title>2025-12-30: 4315 stars, Go, Shell, Rust, Python, Swift, TypeScript</title>
    </path>

    <path
      d="M 20,257.8239155564425 L 35.2,256.0588328089663 L 50.400000000000006,256.82082391053933 L 65.6,259.6213006605964 L 80.80000000000001,262.6645991816852 L 96,263.9993584341143 L 111.2,262.7697316501383 L 126.4,259.76415472685534 L 141.60000000000002,256.90980163988706 L 156.79999999999998,256.0368817390019 L 172,257.705110699003 L 187.2,260.8448211917353 L 202.4,263.44283288376363 L 217.6,263.83330236164807 L 232.8,261.76586084918995 L 248,258.56615050449346 L 263.20000000000005,256.28582352719394 L 278.40000000000003,256.387024097504 L 293.59999999999997,258.804862475318 L 308.8,261.98902225951946 L 324,263.8978222597859 L 339.2,263.3073411528322 L 354.4,260.59619504181035 L 369.6,257.50276905630886 L 384.8,256.01056593371845 L 400,257.0763853493097 L 415.2,260.016824584447 L 430.40000000000003,262.9464759069391 L 445.6,263.98684878719223 L 460.79999999999995,262.47085680854065 L 476,259.3705530453462 L 491.2,256.67385026159974 L 506.40000000000003,256.10987253479976 L 521.6,258.0402420179179 L 536.8000000000001,261.22720704924114 L 552,263.6272877158103 L 567.1999999999999,263.7015538494524 L 582.4,261.4023860533999 L 597.6,258.2040092286412 L 612.8000000000001,256.1572205226915 L 628,256.5744195275048 L 643.1999999999999,259.18809851153605 L 658.4,262.3223682038654 L 673.6,263.96753690875033 L 688.8,263.06872351867355 L 704,260.20224659692906 L 719.2,257.20608928828767 L 734.4,256.00138571756673 L 749.6,257.3605910336751 L 764.8,260.4121836686773 L 780,263.199484402415"
      stroke="url(#thread-20)"
      stroke-width="6.556"
      stroke-linecap="round"
      fill="none"
      opacity="0.5555555555555556"
      class="thread"
      style="animation-delay: 2s"
    >
      <title>2025-12-29: 3278 stars, Shell, Go, JavaScript, TypeScript, Rust, Python</title>
    </path>

    <path
      d="M 20,268.48121696011333 L 35.2,268.4126228216765 L 50.400000000000006,271.3674838781034 L 65.6,274.8554319391918 L 80.80000000000001,275.93681105004674 L 96,273.70023076360644 L 111.2,270.03068949225644 L 126.4,268.02089064244893 L 141.60000000000002,269.3647003651421 L 156.79999999999998,272.9295506907521 L 172,275.71097214196726 L 187.2,275.3647720906481 L 202.4,272.18272926303155 L 217.6,268.8466815142418 L 232.8,268.1682626354894 L 248,270.7192466503288 L 263.20000000000005,274.3496544826025 L 278.40000000000003,275.9997645378581 L 293.59999999999997,274.27885775571764 L 308.8,270.6373209485236 L 324,268.14425525332 L 339.2,268.90082596514355 L 354.4,272.26939239687425 L 369.6,275.41091388705047 L 384.8,275.677704118593 L 400,272.844911264833 L 415.2,269.30002396828786 L 430.40000000000003,268.0306867890858 L 445.6,270.1067019525633 L 460.79999999999995,273.77839594555917 L 476,275.9512510395914 L 491.2,274.7939766579585 L 506.40000000000003,271.2819280719637 L 521.6,268.3750732509919 L 536.8000000000001,268.52332054655056 L 552,271.60172657142357 L 567.1999999999999,275.0157989638817 L 582.4,275.8881444648637 L 597.6,273.4835469525195 L 612.8000000000001,269.82861039929537 L 628,268.00372929939607 L 643.1999999999999,269.5469204175035 L 658.4,273.15757638205326 L 673.6,275.79262254819145 L 688.8,275.2312319374068 L 704,271.94654670179324 L 719.2,268.7069121101773 L 734.4,268.24270457646566 L 749.6,270.9451599840151 L 764.8,274.5366385880521 L 780,275.9902284964482"
      stroke="url(#thread-21)"
      stroke-width="7.59"
      stroke-linecap="round"
      fill="none"
      opacity="0.5333333333333333"
      class="thread"
      style="animation-delay: 2.1s"
    >
      <title>2025-12-28: 3795 stars, Shell, Rust, Python, JavaScript, TypeScript</title>
    </path>

    <path
      d="M 20,280.0000391737972 L 35.2,283.1535527471962 L 50.400000000000006,287.6344052896755 L 65.6,286.4160394172585 L 80.80000000000001,281.4090106851788 L 96,280.4649889209178 L 111.2,285.0643225705398 L 126.4,287.9946605221196 L 141.60000000000002,284.66085317499056 L 156.79999999999998,280.2907424207682 L 172,281.73722817029983 L 187.2,286.73203334286626 L 202.4,287.44265623614587 L 217.6,282.7547480759579 L 232.8,280.0195562836573 L 248,283.52621599649365 L 263.20000000000005,287.7758304164281 L 278.40000000000003,286.10445349784453 L 293.59999999999997,281.1330208143522 L 308.8,280.6573829769617 L 324,285.4234017445082 L 339.2,287.9573421422753 L 354.4,284.2856572963826 L 369.6,280.1660247962979 L 384.8,282.05856219516954 L 400,286.99552562987645 L 415.2,287.23511673778654 L 430.40000000000003,282.40162561716545 L 445.6,280.0745926349438 L 460.79999999999995,283.9031070278184 L 476,287.8835621557838 L 491.2,285.77408861880014 L 506.40000000000003,280.88261425360764 L 521.6,280.8796046676861 L 536.8000000000001,285.76977928172147 L 552,287.884710666461 L 567.1999999999999,283.90791237269366 L 582.4,280.07551941061 L 597.6,282.3972205192929 L 612.8000000000001,287.232287530621 L 628,286.99870887684233 L 643.1999999999999,282.06276615256155 L 658.4,280.16465711420614 L 673.6,284.2808626775416 L 688.8,287.95663917028077 L 704,285.4278927705338 L 719.2,280.66002549028366 L 734.4,281.1296710116835 L 749.6,286.10036430381354 L 764.8,287.77741421712443 L 780,283.53098918720775"
      stroke="url(#thread-22)"
      stroke-width="8"
      stroke-linecap="round"
      fill="none"
      opacity="0.5111111111111112"
      class="thread"
      style="animation-delay: 2.2s"
    >
      <title>2025-12-27: 5384 stars, Shell, Python, Rust, C, Go</title>
    </path>

    <path
      d="M 20,292.49819130124627 L 35.2,295.55861084670386 L 50.400000000000006,298.99248354529 L 65.6,299.8944580145508 L 80.80000000000001,297.5013863450475 L 96,293.83801281054576 L 111.2,292.0038662221433 L 126.4,293.55079220546054 L 141.60000000000002,297.16995844821196 L 156.79999999999998,299.7992393069403 L 172,299.21403723587423 L 187.2,295.9094834747032 L 202.4,292.68151447219674 L 217.6,292.26126939021475 L 232.8,295.0043116806024 L 248,298.58979185066045 L 263.20000000000005,299.9840855691409 L 278.40000000000003,298.0075005358015 L 293.59999999999997,294.33239754069575 L 308.8,292.06822952652794 L 324,293.1306771977048 L 339.2,296.6208185261879 L 354.4,299.58569403335633 L 369.6,299.5167642625487 L 384.8,296.47234972313936 L 400,293.02828672801127 L 415.2,292.09854852616513 L 430.40000000000003,294.46977353059924 L 445.6,298.1357016235233 L 460.79999999999995,299.9946426178962 L 476,298.4737726900143 L 491.2,294.8598784902166 L 506.40000000000003,292.2106250605845 L 521.6,292.76750845815627 L 536.8000000000001,296.0593574744981 L 552,299.30098496670973 L 567.1999999999999,299.7496955169397 L 582.4,297.0258414411113 L 597.6,293.4340373535255 L 612.8000000000001,292.01325816308554 L 628,293.96560515526005 L 643.1999999999999,297.6392250056439 L 658.4,299.9259196394169 L 673.6,298.89094889622965 L 688.8,295.4099869618946 L 704,292.42822675878017 L 719.2,292.4684936472532 L 734.4,295.4967183794524 L 749.6,298.9507626106166 L 764.8,299.90820810835135 L 780,297.55897370639406"
      stroke="url(#thread-23)"
      stroke-width="7.606"
      stroke-linecap="round"
      fill="none"
      opacity="0.48888888888888893"
      class="thread"
      style="animation-delay: 2.3000000000000003s"
    >
      <title>2025-12-26: 3803 stars, Python, Shell, Go, TypeScript</title>
    </path>

    <path
      d="M 20,305.8537083279983 L 35.2,309.24322026149474 L 50.400000000000006,311.72590593906176 L 65.6,311.4908516977166 L 80.80000000000001,308.7095101466398 L 96,305.41063968314984 L 111.2,304.0004932005242 L 126.4,305.5076558133701 L 141.60000000000002,308.8327771719428 L 156.79999999999998,311.55045652828454 L 172,311.67837178561336 L 187.2,309.1232193536706 L 202.4,305.7487713933136 L 217.6,304.0164083248069 L 232.8,305.189745586203 L 248,308.4129307846081 L 263.20000000000005,311.3349171617247 L 278.40000000000003,311.8243575634679 L 293.59999999999997,309.52424573699574 L 308.8,306.1123228360046 L 324,304.07730414744265 L 339.2,304.90356732766855 L 354.4,307.9884217921227 L 369.6,311.0817216006763 L 384.8,311.92716063386075 L 400,309.90806110993077 L 415.2,306.4971889725761 L 430.40000000000003,304.1824930636637 L 445.6,304.65235241762997 L 460.79999999999995,307.5640435348929 L 476,310.79372880109776 L 491.2,311.9856201966205 L 506.40000000000003,310.2703316237982 L 521.6,306.8990240896602 L 536.8000000000001,304.33078733353665 L 552,304.43893744753814 L 567.1999999999999,307.1445878771289 L 582.4,310.4741906317302 L 597.6,311.9990761559913 L 612.8000000000001,310.6069667035503 L 628,307.31329086876053 L 643.1999999999999,304.5205124933202 L 658.4,304.265732191079 L 673.6,306.7347910995423 L 688.8,310.12671515564347 L 704,311.96737657409915 L 719.2,310.9141652364698 L 734.4,307.7353116193538 L 749.6,304.74952626266077 L 764.8,304.1346923942297 L 780,306.3392804196648"
      stroke="url(#thread-24)"
      stroke-width="7.022"
      stroke-linecap="round"
      fill="none"
      opacity="0.46666666666666673"
      class="thread"
      style="animation-delay: 2.4000000000000004s"
    >
      <title>2025-12-25: 3511 stars, Python, TypeScript</title>
    </path>

    <path
      d="M 20,319.7347124105952 L 35.2,322.4507700003438 L 50.400000000000006,323.93137675980927 L 65.6,323.4301481445227 L 80.80000000000001,321.1997571139339 L 96,318.36455987046514 L 111.2,316.35379978985895 L 126.4,316.18111552883823 L 141.60000000000002,317.9335584686525 L 156.79999999999998,320.7277094860411 L 172,323.15501690382285 L 187.2,323.99185754877874 L 202.4,322.8163740171212 L 217.6,320.2211360338618 L 232.8,317.514421781266 L 248,316.0607054328545 L 263.20000000000005,316.59281588297046 L 278.40000000000003,318.8425124165301 L 293.59999999999997,321.67570678784676 L 308.8,323.6641652834729 L 324,323.8054916364964 L 339.2,322.0284422132188 L 354.4,319.22884044265805 L 369.6,316.81798576597606 L 384.8,316.0112074109588 L 400,317.2152081642491 L 415.2,319.8230425637655 L 430.40000000000003,322.52008248297165 L 445.6,323.94673064957243 L 460.79999999999995,323.3838034348709 L 476,321.1150765072058 L 491.2,318.2842314711652 L 506.40000000000003,316.31831772334226 L 521.6,316.2083665607058 L 536.8000000000001,318.009805157226 L 552,320.8145153257768 L 567.1999999999999,323.2086224449316 L 582.4,323.98523985142475 L 597.6,322.75286911026245 L 612.8000000000001,320.1327571989955 L 628,317.44572142636974 L 643.1999999999999,316.04631590224693 L 658.4,316.63999104279725 L 673.6,318.9274709285308 L 688.8,321.7556204534649 L 704,323.6987490475932 L 719.2,323.7773115742337 L 734.4,321.9517040971731 L 749.6,319.1422285105056 L 764.8,316.76516171729503 L 780,316.0188002296166"
      stroke="url(#thread-25)"
      stroke-width="5.776"
      stroke-linecap="round"
      fill="none"
      opacity="0.4444444444444445"
      class="thread"
      style="animation-delay: 2.5s"
    >
      <title>2025-12-24: 2888 stars, Python, TypeScript</title>
    </path>

    <path
      d="M 20,333.68066814730656 L 35.2,335.66635404881794 L 50.400000000000006,335.80380443533255 L 65.6,334.0237295758195 L 80.80000000000001,331.22347804352034 L 96,328.81467682917486 L 111.2,328.0116199953971 L 126.4,329.2191342831364 L 141.60000000000002,331.8285030322584 L 156.79999999999998,334.5243246395261 L 172,335.9476159924782 L 187.2,335.3808856563847 L 202.4,333.10982648050333 L 217.6,330.27929577256646 L 232.8,328.3161844741034 L 248,328.2101111471516 L 263.20000000000005,330.01454812074843 L 278.40000000000003,332.81986570426153 L 293.59999999999997,335.2118830740016 L 308.8,335.98476702445265 L 324,334.7489011827345 L 339.2,332.1272944317923 L 354.4,329.44151763983183 L 369.6,328.04549025548255 L 384.8,328.6429597502943 L 400,330.93273744343196 L 415.2,333.76052988763036 L 430.40000000000003,335.70082651985695 L 445.6,335.7755098158464 L 460.79999999999995,333.94693138753075 L 476,331.1368908069561 L 491.2,328.76194979468914 L 506.40000000000003,328.0193332413019 L 521.6,329.2833995065489 L 536.8000000000001,331.91692367062404 L 552,334.59232721142155 L 567.1999999999999,335.9609199110275 L 582.4,335.3327843203094 L 597.6,333.0245681201896 L 612.8000000000001,330.1998597422676 L 628,328.28261504952604 L 643.1999999999999,328.23933091730254 L 658.4,330.0918271887836 L 673.6,332.9062471347059 L 688.8,335.26382136485023 L 704,335.97607970874884 L 719.2,334.683967598971 L 734.4,332.0388480677963 L 749.6,329.3741449455025 L 764.8,328.0331542918724 L 780,328.69187916561697"
      stroke="url(#thread-26)"
      stroke-width="5.776"
      stroke-linecap="round"
      fill="none"
      opacity="0.4222222222222223"
      class="thread"
      style="animation-delay: 2.6s"
    >
      <title>2025-12-23: 2888 stars, Python, TypeScript</title>
    </path>
  </g>

  <!-- Date markers -->
  <g id="dates">
    <text x="785" y="24" class="date-label">01-18</text>
<text x="785" y="108" class="date-label">01-11</text>
<text x="785" y="192" class="date-label">01-04</text>
<text x="785" y="276" class="date-label">12-28</text>
  </g>

</svg>