<?xml version="1.0" encoding="UTF-8"?>
<svg xmlns="http://www.w3.org/2000/svg" viewBox="0 0 800 256" width="800" height="256">
  <title>The Data Tapestry - GitHub Trends Woven in Time</title>
  <desc>A living data art piece that weaves daily GitHub trending repositories into an evolving tapestry. Each thread represents one day of open source activity.</desc>

  <style>
    .thread {
      animation: breathe 8s ease-in-out infinite alternate;
    }

    @keyframes breathe {
      0% {
        opacity: 0.85;
      }
      100% {
        opacity: 1;
      }
    }

    .date-label {
      font-family: ui-monospace, monospace;
      font-size: 8px;
      fill: #666;
    }

    .title {
      font-family: system-ui, sans-serif;
      font-size: 14px;
      fill: #333;
      font-weight: 600;
    }

    .subtitle {
      font-family: system-ui, sans-serif;
      font-size: 10px;
      fill: #888;
    }

    .empty-state {
      font-family: system-ui, sans-serif;
      font-size: 12px;
      fill: #999;
      text-anchor: middle;
    }
  </style>

  <defs>
    
    <linearGradient id="thread-0" x1="0%" y1="0%" x2="100%" y2="0%">
      <stop offset="0%" stop-color="#3572A5" />
      <stop offset="50%" stop-color="#3178c6" />
      <stop offset="100%" stop-color="#8b8b8b" />
    </linearGradient>

    <linearGradient id="thread-1" x1="0%" y1="0%" x2="100%" y2="0%">
      <stop offset="0%" stop-color="#3572A5" />
      <stop offset="50%" stop-color="#3178c6" />
      <stop offset="100%" stop-color="#8b8b8b" />
    </linearGradient>

    <linearGradient id="thread-2" x1="0%" y1="0%" x2="100%" y2="0%">
      <stop offset="0%" stop-color="#3178c6" />
      <stop offset="50%" stop-color="#3572A5" />
      <stop offset="100%" stop-color="#dea584" />
    </linearGradient>

    <linearGradient id="thread-3" x1="0%" y1="0%" x2="100%" y2="0%">
      <stop offset="0%" stop-color="#3572A5" />
      <stop offset="50%" stop-color="#3178c6" />
      <stop offset="100%" stop-color="#00ADD8" />
    </linearGradient>

    <linearGradient id="thread-4" x1="0%" y1="0%" x2="100%" y2="0%">
      <stop offset="0%" stop-color="#3572A5" />
      <stop offset="50%" stop-color="#00ADD8" />
      <stop offset="100%" stop-color="#3178c6" />
    </linearGradient>

    <linearGradient id="thread-5" x1="0%" y1="0%" x2="100%" y2="0%">
      <stop offset="0%" stop-color="#3572A5" />
      <stop offset="50%" stop-color="#3178c6" />
      <stop offset="100%" stop-color="#00ADD8" />
    </linearGradient>

    <linearGradient id="thread-6" x1="0%" y1="0%" x2="100%" y2="0%">
      <stop offset="0%" stop-color="#3572A5" />
      <stop offset="50%" stop-color="#00ADD8" />
      <stop offset="100%" stop-color="#DA5B0B" />
    </linearGradient>

    <linearGradient id="thread-7" x1="0%" y1="0%" x2="100%" y2="0%">
      <stop offset="0%" stop-color="#3572A5" />
      <stop offset="50%" stop-color="#3178c6" />
      <stop offset="100%" stop-color="#dea584" />
    </linearGradient>

    <linearGradient id="thread-8" x1="0%" y1="0%" x2="100%" y2="0%">
      <stop offset="0%" stop-color="#dea584" />
      <stop offset="50%" stop-color="#3572A5" />
      <stop offset="100%" stop-color="#3178c6" />
    </linearGradient>

    <linearGradient id="thread-9" x1="0%" y1="0%" x2="100%" y2="0%">
      <stop offset="0%" stop-color="#3572A5" />
      <stop offset="50%" stop-color="#3178c6" />
      <stop offset="100%" stop-color="#dea584" />
    </linearGradient>

    <linearGradient id="thread-10" x1="0%" y1="0%" x2="100%" y2="0%">
      <stop offset="0%" stop-color="#3572A5" />
      <stop offset="50%" stop-color="#dea584" />
      <stop offset="100%" stop-color="#3178c6" />
    </linearGradient>

    <linearGradient id="thread-11" x1="0%" y1="0%" x2="100%" y2="0%">
      <stop offset="0%" stop-color="#3572A5" />
      <stop offset="50%" stop-color="#3178c6" />
      <stop offset="100%" stop-color="#89e051" />
    </linearGradient>

    <linearGradient id="thread-12" x1="0%" y1="0%" x2="100%" y2="0%">
      <stop offset="0%" stop-color="#3572A5" />
      <stop offset="50%" stop-color="#f1e05a" />
      <stop offset="100%" stop-color="#89e051" />
    </linearGradient>

    <linearGradient id="thread-13" x1="0%" y1="0%" x2="100%" y2="0%">
      <stop offset="0%" stop-color="#3572A5" />
      <stop offset="50%" stop-color="#89e051" />
      <stop offset="100%" stop-color="#dea584" />
    </linearGradient>

    <linearGradient id="thread-14" x1="0%" y1="0%" x2="100%" y2="0%">
      <stop offset="0%" stop-color="#3572A5" />
      <stop offset="50%" stop-color="#89e051" />
      <stop offset="100%" stop-color="#00ADD8" />
    </linearGradient>

    <linearGradient id="thread-15" x1="0%" y1="0%" x2="100%" y2="0%">
      <stop offset="0%" stop-color="#3572A5" />
      <stop offset="50%" stop-color="#3178c6" />
      <stop offset="100%" stop-color="#3572A5" />
    </linearGradient>

    <linearGradient id="thread-16" x1="0%" y1="0%" x2="100%" y2="0%">
      <stop offset="0%" stop-color="#3572A5" />
      <stop offset="50%" stop-color="#3178c6" />
      <stop offset="100%" stop-color="#3572A5" />
    </linearGradient>

    <linearGradient id="thread-17" x1="0%" y1="0%" x2="100%" y2="0%">
      <stop offset="0%" stop-color="#3572A5" />
      <stop offset="50%" stop-color="#3178c6" />
      <stop offset="100%" stop-color="#3572A5" />
    </linearGradient>

    <!-- Background pattern -->
    <pattern id="loom" patternUnits="userSpaceOnUse" width="20" height="20">
      <rect width="20" height="20" fill="#fafafa"/>
      <circle cx="10" cy="10" r="0.5" fill="#eee"/>
    </pattern>
  </defs>

  <!-- Background -->
  <rect width="100%" height="100%" fill="url(#loom)"/>

  <!-- Threads -->
  <g id="tapestry">
    
    <path
      d="M 20,20 L 35.2,23.32852904915892 L 50.400000000000006,23.691852804235307 L 65.6,20.766305914526974 L 80.80000000000001,17.158098810326504 L 96,16.08158673670077 L 111.2,18.495775684799344 L 126.4,22.249996171468307 L 141.60000000000002,23.999817579514502 L 156.79999999999998,22.18641929292179 L 172,18.425259107091907 L 187.2,16.066949839339255 L 202.4,17.21238080820263 L 217.6,20.84114993134539 L 232.8,23.720584380610884 L 248,23.2855527881106 L 263.20000000000005,19.923601112471804 L 278.40000000000003,16.629709045871977 L 293.59999999999997,16.338225680588472 L 308.8,19.30881767571023 L 324,22.895146369202763 L 339.2,23.902346800836458 L 354.4,21.433158947347575 L 369.6,17.687247822054697 L 384.8,16.001641684539297 L 400,17.877955262773057 L 415.2,21.644682953719855 L 430.40000000000003,23.94625215290293 L 445.6,22.732320179419595 L 460.79999999999995,19.084312930796123 L 476,16.252041433678947 L 491.2,16.758622149873663 L 506.40000000000003,20.15276990224767 L 521.6,23.410823266911358 L 536.8000000000001,23.630359899752897 L 552,20.615806568172378 L 567.1999999999999,17.05266469519488 L 582.4,16.115143365157472 L 597.6,18.63842928368455 L 612.8000000000001,22.3746644169125 L 628,23.995440319740275 L 643.1999999999999,22.05689599032363 L 658.4,18.285975019511586 L 673.6,16.041985576492067 L 688.8,17.323975672574466 L 704,20.989890134520817 L 719.2,23.773965374369055 L 734.4,23.196020351665904 L 749.6,19.77091481848141 L 764.8,16.549888800002208 L 780,16.40237899373451"
      stroke="url(#thread-0)"
      stroke-width="7.822"
      stroke-linecap="round"
      fill="none"
      opacity="1"
      class="thread"
      style="animation-delay: 0s"
    >
      <title>2026-01-09: 3911 stars, TypeScript, Unknown, Python, Shell</title>
    </path>

    <path
      d="M 20,33.917702154416816 L 35.2,35.96963666590025 L 50.400000000000006,34.71654125176193 L 65.6,31.20171488164377 L 80.80000000000001,28.351522690267885 L 96,28.538970390522234 L 111.2,31.607993256344756 L 126.4,35.003392092531385 L 141.60000000000002,35.89823443460349 L 156.79999999999998,33.547494737864 L 172,29.908345836746403 L 187.2,28.010661000334768 L 202.4,29.43440980811622 L 217.6,32.99421112516041 L 232.8,35.726254690653285 L 248,35.35590267196373 L 263.20000000000005,32.191501804020405 L 278.40000000000003,28.86766085468755 L 293.59999999999997,28.151734806328733 L 308.8,30.639787534180588 L 324,34.2603224721436 L 339.2,35.99896391689044 L 354.4,34.40815822851857 L 369.6,30.812374331623115 L 384.8,28.2053807711682 L 400,28.757701566951646 L 415.2,32.009486885791425 L 430.40000000000003,35.253373637563115 L 445.6,35.78857490087673 L 460.79999999999995,33.16949417903608 L 476,29.576718989699824 L 491.2,28.001512895800357 L 506.40000000000003,29.75535695153104 L 521.6,33.378040166083416 L 536.8000000000001,35.853398229511015 L 552,35.12050386689862 L 567.1999999999999,31.789548389093575 L 582.4,28.63381017434839 L 597.6,28.280685660920117 L 612.8000000000001,31.024178351541536 L 628,34.58011813031311 L 643.1999999999999,35.98790976606308 L 658.4,34.07545770527096 L 673.6,30.435026385266898 L 688.8,28.09755678816612 L 704,29.009173362841086 L 719.2,32.41088471698759 L 734.4,35.47050272609573 L 749.6,35.64065846647079 L 764.8,32.77968410770731 L 780,29.269562351994335"
      stroke="url(#thread-1)"
      stroke-width="7.54"
      stroke-linecap="round"
      fill="none"
      opacity="0.9666666666666667"
      class="thread"
      style="animation-delay: 0.1s"
    >
      <title>2026-01-08: 3770 stars, TypeScript, Unknown, Python, Rust, JavaScript</title>
    </path>

    <path
      d="M 20,47.36588393923159 L 35.2,47.79068646627881 L 50.400000000000006,45.372082918846004 L 65.6,41.924275573936676 L 80.80000000000001,40.033475777533184 L 96,41.117978520409864 L 111.2,44.364294817308334 L 126.4,47.3373524035087 L 141.60000000000002,47.80705124948262 L 156.79999999999998,45.42106874461609 L 172,41.96913801727321 L 187.2,40.04056337582276 L 202.4,41.081974843446666 L 217.6,44.3122063386405 L 232.8,47.30825085802437 L 248,47.82276579977359 L 263.20000000000005,45.46981185611506 L 278.40000000000003,42.01434732573343 L 293.59999999999997,40.04832723398923 L 308.8,41.04646955641125 L 324,44.26006453606823 L 339.2,47.27858427323511 L 354.4,47.83782743315375 L 369.6,45.518303928165935 L 384.8,42.05989577770337 L 400,40.05676602598896 L 415.2,41.011468723499966 L 430.40000000000003,44.20787831525474 L 445.6,47.24835771610447 L 460.79999999999995,47.85223357714138 L 476,45.56653667846853 L 491.2,42.10577559364424 L 506.40000000000003,40.06587831050165 L 521.6,40.976978322749865 L 536.8000000000001,44.15565658944969 L 552,47.21757634923754 L 567.1999999999999,47.86598177121038 L 582.4,45.614501869014035 L 597.6,42.151978937421404 L 612.8000000000001,40.075662531176484 L 628,40.94300424501774 L 643.1999999999999,44.10340827796687 L 658.4,47.18624542999929 L 673.6,47.87906966721052 L 688.8,45.66219130749207 L 704,42.19849791764255 L 719.2,40.08611701689796 L 734.4,40.90955229297399 L 749.6,44.05114230466099 L 764.8,47.1543703096166 L 780,47.891495029768485"
      stroke="url(#thread-2)"
      stroke-width="7.128"
      stroke-linecap="round"
      fill="none"
      opacity="0.9333333333333333"
      class="thread"
      style="animation-delay: 0.2s"
    >
      <title>2026-01-07: 3564 stars, TypeScript, Python, Unknown, Shell, Rust</title>
    </path>

    <path
      d="M 20,59.98997994641622 L 35.2,58.19204778112492 L 50.400000000000006,54.14713329847235 L 65.6,52.001519894295164 L 80.80000000000001,53.954591824991894 L 96,58.004331556730264 L 111.2,59.99950951984201 L 126.4,57.89494693597024 L 141.60000000000002,53.84794847358948 L 156.79999999999998,52.00693373452575 L 172,54.259054814777045 L 187.2,58.29575061113408 L 202.4,59.979162381153714 L 217.6,57.58369065905659 L 232.8,53.564839675927026 L 248,52.04217615515456 L 263.20000000000005,54.57652282876513 L 278.40000000000003,58.570020192645224 L 293.59999999999997,59.92909052539021 L 308.8,57.26060406403428 L 324,53.299921754819074 L 339.2,52.106983891986275 L 354.4,54.90462435104588 L 369.6,58.825091481705215 L 384.8,59.84966799402139 L 400,56.92810063814205 L 415.2,53.05517367204166 L 430.40000000000003,52.20087282513409 L 445.6,55.24090843240253 L 460.79999999999995,59.05905907180508 L 476,59.74148808082322 L 491.2,56.58866421323051 L 506.40000000000003,52.832423718782366 L 521.6,52.32314159544073 L 536.8000000000001,55.58286299913263 L 552,59.27017520305109 L 567.1999999999999,59.60535889991748 L 582.4,56.24483041130481 L 597.6,52.63333585813316 L 612.8000000000001,52.47287684369729 L 628,55.92793361847496 L 643.1999999999999,59.45686281809542 L 658.4,59.4422973490833 L 673.6,55.899167703189754 L 688.8,52.45939729512965 L 704,52.64896003352244 L 719.2,56.273542580462426 L 734.4,59.6177273429029 L 749.6,59.253521513435075 L 764.8,55.55425822181127 L 780,52.311907367189754"
      stroke="url(#thread-3)"
      stroke-width="8"
      stroke-linecap="round"
      fill="none"
      opacity="0.9"
      class="thread"
      style="animation-delay: 0.30000000000000004s"
    >
      <title>2026-01-06: 4224 stars, TypeScript, Python, Rust, JavaScript, Go</title>
    </path>

    <path
      d="M 20,71.63718970730272 L 35.2,68.77740589378205 L 50.400000000000006,65.27227416543532 L 65.6,64.0315093445602 L 80.80000000000001,66.08510746842084 L 96,69.72831523153775 L 111.2,71.93679675993474 L 126.4,70.87722539544986 L 141.60000000000002,67.42918306066551 L 156.79999999999998,64.45499296252265 L 172,64.42361937500569 L 187.2,67.3611064527147 L 202.4,70.82895819813999 L 217.6,71.94840701929886 L 232.8,69.790164923564 L 248,66.14585331143228 L 263.20000000000005,64.04072439500607 L 278.40000000000003,65.2223087339605 L 293.59999999999997,68.70973778146006 L 308.8,71.60799224075289 L 324,71.51114428584762 L 339.2,68.49959030459412 L 354.4,65.07331144935154 L 369.6,64.07656441090245 L 384.8,66.33677875727183 L 400,69.97768286876146 L 415.2,71.97685320160258 L 430.40000000000003,70.67471858968976 L 445.6,67.15221997178098 L 460.79999999999995,64.33348894531744 L 476,64.55843855306507 L 491.2,67.64033138865486 L 506.40000000000003,71.02079591017662 L 521.6,71.89360727735517 L 536.8000000000001,69.53421863461566 L 552,65.90122915522741 L 567.1999999999999,64.01049220981777 L 582.4,65.43156516213219 L 597.6,68.98477279498103 L 612.8000000000001,71.72049103792233 L 628,71.36771824592772 L 643.1999999999999,68.2193016787646 L 658.4,64.88883622023012 L 673.6,64.14104099100024 L 688.8,66.59668320645149 L 704,70.21726071992458 L 719.2,71.99722370542213 L 734.4,70.45897158087237 L 749.6,66.87945350371663 L 764.8,64.23013463218315 L 780,64.71029390553447"
      stroke="url(#thread-4)"
      stroke-width="7.528"
      stroke-linecap="round"
      fill="none"
      opacity="0.8666666666666667"
      class="thread"
      style="animation-delay: 0.4s"
    >
      <title>2026-01-05: 3764 stars, Go, TypeScript, Python, Rust, JavaScript</title>
    </path>

    <path
      d="M 20,82.39388857641583 L 35.2,78.66475619098847 L 50.400000000000006,76.12288656278146 L 65.6,77.02844156104454 L 80.80000000000001,80.57622612192763 L 96,83.61164596732957 L 111.2,83.43568769561462 L 126.4,80.20480865294094 L 141.60000000000002,76.79181928378445 L 156.79999999999998,76.23145761983703 L 172,79.02198212871988 L 187.2,82.68213373239257 L 202.4,83.95740441105167 L 217.6,81.71385789633291 L 232.8,77.94639519660642 L 248,76.00494246199852 L 263.20000000000005,77.61578706500785 L 278.40000000000003,81.34660946075803 L 293.59999999999997,83.88006306850977 L 308.8,82.96346931725674 L 324,79.4118386320757 L 339.2,76.38318516098805 L 354.4,76.57050582821124 L 369.6,79.80724015216822 L 384.8,83.21537133029787 L 400,83.76448110324856 L 415.2,80.96631588118885 L 430.40000000000003,77.30892865809594 L 445.6,76.04436944117134 L 460.79999999999995,78.29705015610354 L 476,82.06394791022143 L 491.2,83.99563888778613 L 506.40000000000003,82.37451560719553 L 521.6,78.6420371360134 L 536.8000000000001,76.1170225925563 L 552,77.04464675962701 L 567.1999999999999,80.60009126411073 L 582.4,83.62195081279572 L 597.6,83.42326945389942 L 612.8000000000001,80.18070928941366 L 628,76.77746730206033 L 643.1999999999999,76.23961441471032 L 658.4,79.04539489833823 L 673.6,82.6999844739136 L 688.8,83.95382072690003 L 704,81.69202630173386 L 719.2,77.9257277562505 L 734.4,76.00381610604342 L 749.6,77.63520331876884 L 764.8,81.36930391542862 L 780,83.88585642751207"
      stroke="url(#thread-5)"
      stroke-width="7.814"
      stroke-linecap="round"
      fill="none"
      opacity="0.8333333333333333"
      class="thread"
      style="animation-delay: 0.5s"
    >
      <title>2026-01-04: 3907 stars, Python, Jupyter Notebook, TypeScript, Go, Rust</title>
    </path>

    <path
      d="M 20,92.56448003223947 L 35.2,89.03194038211663 L 50.400000000000006,88.11745862306194 L 65.6,90.62767831813103 L 80.80000000000001,94.34839176024391 L 96,95.9976422363903 L 111.2,94.12066340784617 L 126.4,90.37309561412131 L 141.60000000000002,88.06058318107704 L 156.79999999999998,89.22294073610357 L 172,92.83487911356411 L 187.2,95.71038961127971 L 202.4,95.3130498123845 L 217.6,91.99334411741586 L 232.8,88.67950942511052 L 248,88.2946039562708 L 263.20000000000005,91.17814407166635 L 278.40000000000003,94.78662461128069 L 293.59999999999997,95.93708695306286 L 308.8,93.61473442846498 L 324,89.86806138585915 L 339.2,88.00192291149246 L 354.4,89.66239731497977 L 369.6,93.38481788653756 L 384.8,95.88572209309474 L 400,94.95911920814031 L 415.2,91.42234456423454 L 430.40000000000003,88.3951066435172 L 445.6,88.54766317218811 L 460.79999999999995,91.74544750565752 L 476,95.16776680550329 L 491.2,95.79587104570481 L 506.40000000000003,93.07572375995767 L 521.6,89.40670500902915 L 536.8000000000001,88.02517279444605 L 552,90.14974526469875 L 567.1999999999999,93.90638535955534 L 582.4,95.98144628264316 L 597.6,94.54456398352195 L 612.8000000000001,90.86317966151408 L 628,88.18455870718489 L 643.1999999999999,88.87145174872529 L 658.4,92.31796605511019 L 673.6,95.48400973527949 L 688.8,95.57688765925973 L 704,92.5146743224831 L 719.2,88.99847847026496 L 734.4,88.12985650058822 L 749.6,90.67500009921454 L 764.8,94.38889597795503 L 780,95.99560104140916"
      stroke="url(#thread-6)"
      stroke-width="7.78"
      stroke-linecap="round"
      fill="none"
      opacity="0.8"
      class="thread"
      style="animation-delay: 0.6000000000000001s"
    >
      <title>2026-01-03: 3890 stars, Go, Python, Jupyter Notebook, TypeScript, Rust, JavaScript</title>
    </path>

    <path
      d="M 20,102.59686708924153 L 35.2,100.59282787140504 L 50.400000000000006,100.02399730950667 L 65.6,101.1299848260781 L 80.80000000000001,103.44491350113016 L 96,105.99366216469593 L 111.2,107.70261727284546 L 126.4,107.85191288653758 L 141.60000000000002,106.37866097165559 L 156.79999999999998,103.90344182787693 L 172,101.46889603994946 L 187.2,100.1005312887992 L 202.4,100.37474608357375 L 217.6,102.17603248038508 L 232.8,104.74563168133432 L 248,107.00114723672554 L 263.20000000000005,107.99248466159494 L 278.40000000000003,107.30206128050702 L 293.59999999999997,105.22070525693587 L 308.8,102.62514957306578 L 324,100.60872437009978 L 339.2,100.02081171507832 L 354.4,101.10905901164762 L 369.6,103.41506208153638 L 384.8,105.96745950195405 L 400,107.6911007571889 L 415.2,107.85993363858272 L 430.40000000000003,106.40284039697636 L 445.6,103.93359478782865 L 460.79999999999995,101.49232115418167 L 476,100.10736115835358 L 491.2,100.36210375139227 L 506.40000000000003,102.14924329660951 L 521.6,104.71598009740683 L 536.8000000000001,106.98112343755868 L 552,107.99052330467133 L 567.1999999999999,107.31898855139283 L 582.4,105.24939085379141 L 597.6,102.65351021528357 L 612.8000000000001,100.62481365824279 L 628,100.01785233214017 L 643.1999999999999,101.08829754331542 L 658.4,103.38524391487478 L 673.6,105.94114499179155 L 688.8,107.67937440742979 L 704,107.86773495860356 L 719.2,106.4268832240595 L 734.4,103.96375152282721 L 749.6,101.51588882657599 L 764.8,100.11441231917897 L 780,100.34966822870875"
      stroke="url(#thread-7)"
      stroke-width="5.26"
      stroke-linecap="round"
      fill="none"
      opacity="0.7666666666666667"
      class="thread"
      style="animation-delay: 0.7000000000000001s"
    >
      <title>2026-01-02: 2630 stars, TypeScript, Rust, Python, JavaScript, Jupyter Notebook, Shell</title>
    </path>

    <path
      d="M 20,112.9727900187683 L 35.2,112.0938260614762 L 50.400000000000006,114.35302116149903 L 65.6,117.93537330485647 L 80.80000000000001,119.96287680053283 L 96,118.8066670462777 L 111.2,115.39562487780799 L 126.4,112.47012823126644 L 141.60000000000002,112.38047536345783 L 156.79999999999998,115.19869198638467 L 172,118.66066693656519 L 187.2,119.98510367751895 L 202.4,118.10797044315531 L 217.6,114.53732671928184 L 232.8,112.14177183579751 L 248,112.8458571243162 L 263.20000000000005,116.08393147455423 L 278.40000000000003,119.25457659065896 L 293.59999999999997,119.81054576901951 L 308.8,117.305182066008 L 324,113.75125550165193 L 339.2,112.0039351013176 L 354.4,113.46699074997137 L 369.6,116.96502641880416 L 384.8,119.68777495388915 L 400,119.44782276058314 L 415.2,116.43794367860676 L 430.40000000000003,113.07622749381744 L 445.6,112.06342441843069 L 460.79999999999995,114.21320460495956 L 476,117.7984682698903 L 491.2,119.93887065130566 L 506.40000000000003,118.91484594766958 L 521.6,115.5490795921464 L 536.8000000000001,112.5455756407825 L 552,112.31730219919577 L 567.1999999999999,115.04765058060829 L 582.4,118.54310159268405 L 597.6,119.99546455431589 L 612.8000000000001,118.23793377423546 L 628,114.68248199682687 L 643.1999999999999,112.18550357977145 L 658.4,112.75303193548902 L 673.6,115.92912365802589 L 688.8,119.16215632533786 L 704,119.85476205079304 L 719.2,117.45051222555514 L 734.4,113.88094356147103 L 749.6,112.01379170221674 L 764.8,113.3490972529261 L 780,116.81409661571769"
      stroke="url(#thread-8)"
      stroke-width="7.396"
      stroke-linecap="round"
      fill="none"
      opacity="0.7333333333333334"
      class="thread"
      style="animation-delay: 0.8s"
    >
      <title>2026-01-01: 3698 stars, Rust, Python, JavaScript, TypeScript, Jupyter Notebook, Go, Shell</title>
    </path>

    <path
      d="M 20,124.08987952933961 L 35.2,124.98823556283016 L 50.400000000000006,128.31226398815423 L 65.6,131.38479527589294 L 80.80000000000001,131.73121546695594 L 96,129.07251804839532 L 111.2,125.55001555011856 L 126.4,124.00072834290333 L 141.60000000000002,125.67245096180109 L 156.79999999999998,129.218779500378 L 172,131.78350411624652 L 187.2,131.3009978909833 L 202.4,128.15987090812087 L 217.6,124.88998403842925 L 232.8,124.12490125070386 L 248,126.48081953988513 L 263.20000000000005,130.06028441685214 L 278.40000000000003,131.98039806182862 L 293.59999999999997,130.6947026574897 L 308.8,127.23869613591896 L 324,124.39584306755549 L 339.2,124.45577477842973 L 354.4,127.37022232205011 L 369.6,130.79189224586153 L 384.8,131.9649746446392 L 400,129.94467000055138 L 415.2,126.35812987225779 L 430.40000000000003,124.09395048064351 L 445.6,124.9756998885409 L 460.79999999999995,128.29321790916515 L 476,131.3745784872368 L 491.2,131.73805656110508 L 506.40000000000003,129.09090721422288 L 521.6,125.5651421698663 L 536.8000000000001,124.0004094505162 L 552,125.6569433929233 L 567.1999999999999,129.2005730371542 L 582.4,131.77726222792083 L 597.6,131.3117477888468 L 612.8000000000001,128.17895463402093 L 628,124.90203157654467 L 643.1999999999999,124.12020952458036 L 658.4,126.46316726155854 L 673.6,130.04388871554457 L 688.8,131.97846402075163 L 704,130.70878795160195 L 719.2,127.25745648190356 L 734.4,124.40416889948676 L 749.6,124.44696047869512 L 764.8,127.35136691979534 L 780,130.77818186524757"
      stroke="url(#thread-9)"
      stroke-width="7.406"
      stroke-linecap="round"
      fill="none"
      opacity="0.7"
      class="thread"
      style="animation-delay: 0.9s"
    >
      <title>2025-12-31: 3703 stars, Go, Python, TypeScript, Rust, Shell</title>
    </path>

    <path
      d="M 20,136.16430290134744 L 35.2,139.21039019257432 L 50.400000000000006,143.0976102224583 L 65.6,143.68509746634362 L 80.80000000000001,140.34703047453672 L 96,136.63928887800802 L 111.2,136.51154859768965 L 126.4,140.09988511138164 L 141.60000000000002,143.58181889742585 L 156.79999999999998,143.24821605989644 L 172,139.4544473980363 L 187.2,136.24182926122765 L 202.4,137.03260674604965 L 217.6,140.98440324418075 L 232.8,143.88756307527217 L 248,142.6494919522208 L 263.20000000000005,138.58904653636884 L 278.40000000000003,136.0316208903081 L 293.59999999999997,137.70151557027935 L 308.8,141.81987338349714 L 324,143.99960902070526 L 339.2,141.91875663392264 L 354.4,137.793946576997 L 369.6,136.0191374190775 L 384.8,138.48494661900955 L 400,142.56466814320584 L 415.2,143.91237403290225 L 430.40000000000003,141.0924190678343 L 445.6,137.10876345765345 L 460.79999999999995,136.20500083778145 L 476,139.34386535918742 L 491.2,143.1816780473516 L 506.40000000000003,143.6302046041553 L 521.6,140.21165160867494 L 536.8000000000001,136.5676364981452 L 552,136.57995048235452 L 567.1999999999999,140.23547607572416 L 582.4,143.64016051362762 L 597.6,143.16715985544357 L 612.8000000000001,139.320338586217 L 628,136.19752740521196 L 643.1999999999999,137.12530444796542 L 658.4,141.11535417242675 L 673.6,143.91727160571938 L 688.8,142.5463110392759 L 704,138.46288976401507 L 719.2,136.01687690269873 L 734.4,137.81389041685804 L 749.6,141.93965963209928 L 764.8,143.99920423479495 L 780,141.79859201214774"
      stroke="url(#thread-10)"
      stroke-width="8"
      stroke-linecap="round"
      fill="none"
      opacity="0.6666666666666667"
      class="thread"
      style="animation-delay: 1s"
    >
      <title>2025-12-30: 4315 stars, Go, Shell, Rust, Python, Swift, TypeScript</title>
    </path>

    <path
      d="M 20,149.17783869771844 L 35.2,152.16261897151446 L 50.400000000000006,155.04312806615107 L 65.6,155.9723854166918 L 80.80000000000001,154.3545518121205 L 96,151.22698111134636 L 111.2,148.59506962106752 L 126.4,148.1463972833953 L 141.60000000000002,150.1686525105094 L 156.79999999999998,153.36516656118783 L 172,155.68633669744855 L 187.2,155.64383013201893 L 202.4,153.26490204710862 L 217.6,150.07491958923762 L 232.8,148.11929744331232 L 248,148.6519792620741 L 263.20000000000005,151.331409808506 L 278.40000000000003,154.43953995248333 L 293.59999999999997,155.9834386597287 L 308.8,154.9731590795892 L 324,152.056491824198 L 339.2,149.10360204773724 L 354.4,148.007880761427 L 369.6,149.4719037440317 L 384.8,152.55694040777914 L 400,155.28486724295112 L 415.2,155.90653933050785 L 430.40000000000003,154.023340930746 L 445.6,150.84277763729693 L 460.79999999999995,148.40422457294318 L 476,148.27128038238743 L 491.2,150.52918879446744 L 506.40000000000003,153.7301803984622 L 521.6,155.82178145210466 L 536.8000000000001,155.4628587151383 L 552,152.88355321392726 L 567.1999999999999,149.7377139644807 L 582.4,148.04245105506772 L 597.6,148.88476596468846 L 612.8000000000001,151.72456691910676 L 628,154.7409753865156 L 643.1999999999999,155.99987221221852 L 658.4,154.6940535673289 L 673.6,151.66080952079096 L 688.8,148.8450541897294 L 704,148.05224806783627 L 719.2,149.79073792673807 L 734.4,152.94580519543305 L 749.6,155.49442278568978 L 764.8,155.80241875011743 L 780,153.6723062759036"
      stroke="url(#thread-11)"
      stroke-width="6.556"
      stroke-linecap="round"
      fill="none"
      opacity="0.6333333333333333"
      class="thread"
      style="animation-delay: 1.1s"
    >
      <title>2025-12-29: 3278 stars, Shell, Go, JavaScript, TypeScript, Rust, Python</title>
    </path>

    <path
      d="M 20,162.88233800720428 L 35.2,166.48583163762063 L 50.400000000000006,167.99425686437579 L 65.6,166.13630714199303 L 80.80000000000001,162.47786959655346 L 96,160.10228937187972 L 111.2,161.0117145594814 L 126.4,164.43967813592738 L 141.60000000000002,167.49707929920697 L 156.79999999999998,167.60712866521078 L 172,164.67707620772296 L 187.2,161.1763813349552 L 202.4,160.05544306339704 L 217.6,162.25899245192417 L 232.8,165.92986965513816 L 248,167.97424533810658 L 263.20000000000005,166.6691118627498 L 278.40000000000003,163.1144407095972 L 293.59999999999997,160.30612231051424 L 308.8,160.6110181440887 L 324,163.77216083664064 L 339.2,167.1253272467472 L 354.4,167.84445591002196 L 369.6,165.32346244094467 L 384.8,161.68704976909729 L 400,160.00000039067206 L 415.2,161.684165968776 L 430.40000000000003,165.32012531823318 L 445.6,167.84347800469413 L 460.79999999999995,167.12753274115033 L 476,163.77569093166358 L 491.2,160.61289766215603 L 506.40000000000003,160.30476718661635 L 521.6,163.11099304733378 L 536.8000000000001,166.6664773650515 L 552,167.97464436970114 L 567.1999999999999,165.93296591067283 L 582.4,162.26217639540215 L 597.6,160.05603125508782 L 612.8000000000001,161.17387804465403 L 628,164.6735912180619 L 643.1999999999999,167.60559913879385 L 658.4,167.49879432674336 L 673.6,164.44319228565558 L 688.8,161.0140660925813 L 704,160.10149640726848 L 719.2,162.4746004478357 L 734.4,166.13331706020094 L 749.6,167.99406590187016 L 764.8,166.488600738331 L 780,162.88573336246995"
      stroke="url(#thread-12)"
      stroke-width="7.59"
      stroke-linecap="round"
      fill="none"
      opacity="0.6000000000000001"
      class="thread"
      style="animation-delay: 1.2000000000000002s"
    >
      <title>2025-12-28: 3795 stars, Shell, Rust, Python, JavaScript, TypeScript</title>
    </path>

    <path
      d="M 20,176.86047995235126 L 35.2,179.99999860606366 L 50.400000000000006,176.86700115377153 L 65.6,172.37443355245173 L 80.80000000000001,173.56722391629773 L 96,178.57492240140976 L 111.2,179.54480892076995 L 126.4,174.9559757409453 L 141.60000000000002,172.00430787664172 L 156.79999999999998,175.3184029954569 L 172,179.7013305339434 L 187.2,178.2800922028189 L 202.4,173.28337385935728 L 217.6,172.54667730573902 L 232.8,177.22523819399754 L 248,179.98246683631697 L 263.20000000000005,176.49467145923816 L 278.40000000000003,172.2311671380241 L 293.59999999999997,173.87768108325307 L 308.8,178.85226608510513 L 324,179.35412828892638 L 339.2,174.59628273134916 L 354.4,172.03964773483105 L 369.6,175.69335824470048 L 384.8,179.82792275936228 L 400,177.95980839202576 L 415.2,173.01846052780016 L 430.40000000000003,172.7525528829065 L 445.6,177.57906309898115 L 460.79999999999995,179.92939777195886 L 476,176.11792759476808 L 491.2,172.12153166875234 L 506.40000000000003,174.20707663079105 L 521.6,179.10415775015414 L 536.8000000000001,179.13351730233856 L 552,174.24911570531484 L 567.1999999999999,172.11032754963443 L 582.4,176.07104979253637 L 597.6,179.9203567546087 L 612.8000000000001,177.62203635318906 L 628,172.78015277790234 L 643.1999999999999,172.9874068520301 L 658.4,177.9187973328142 L 673.6,179.8412649714777 L 688.8,175.7401314107558 L 704,172.04650546991357 L 719.2,174.5524712182724 L 734.4,179.3283496569825 L 749.6,178.88494456939608 L 764.8,173.9175725861624 L 780,172.2157166141295"
      stroke="url(#thread-13)"
      stroke-width="8"
      stroke-linecap="round"
      fill="none"
      opacity="0.5666666666666667"
      class="thread"
      style="animation-delay: 1.3s"
    >
      <title>2025-12-27: 5384 stars, Shell, Python, Rust, C, Go</title>
    </path>

    <path
      d="M 20,190.62794639487515 L 35.2,191.9792846994526 L 50.400000000000006,189.96380620051474 L 65.6,186.28677890220345 L 80.80000000000001,184.05928387309416 L 96,185.16597332085215 L 111.2,188.67049287266832 L 126.4,191.60771783743286 L 141.60000000000002,191.4925034934237 L 156.79999999999998,188.4223310762683 L 172,184.994830276848 L 187.2,184.10996130337256 L 202.4,186.51639934593737 L 217.6,190.1780910305679 L 232.8,191.99693053568217 L 248,190.4340233434894 L 263.20000000000005,186.8117232422806 L 278.40000000000003,184.1948073890666 L 293.59999999999997,184.7974114724043 L 308.8,188.10968065483323 L 324,191.32915057819838 L 339.2,191.73187303193592 L 354.4,188.97711021344958 L 369.6,185.39562818937813 L 384.8,184.01766851589633 L 400,186.00910348756085 L 415.2,189.68500799041078 L 430.40000000000003,191.93525093731498 L 445.6,190.8559334273803 L 460.79999999999995,187.36025082189272 L 476,184.40585099599187 L 491.2,184.4924100797908 L 506.40000000000003,187.54669165020292 L 521.6,190.98451103822345 L 536.8000000000001,191.8971776229902 L 552,189.5124970465518 L 567.1999999999999,185.84811399687786 L 582.4,184.0044114216514 L 597.6,185.5413201325107 L 612.8000000000001,189.15848329047364 L 628,191.79547003394308 L 643.1999999999999,191.22116297647483 L 658.4,187.9214752400246 L 673.6,184.68822619830095 L 688.8,184.25702238006585 L 704,186.99269926974029 L 719.2,190.58063913655184 L 734.4,191.98513653443243 L 749.6,190.0178659735451 L 764.8,186.34330739983778 L 780,184.0704531287286"
      stroke="url(#thread-14)"
      stroke-width="7.606"
      stroke-linecap="round"
      fill="none"
      opacity="0.5333333333333333"
      class="thread"
      style="animation-delay: 1.4000000000000001s"
    >
      <title>2025-12-26: 3803 stars, Python, Shell, Go, TypeScript</title>
    </path>

    <path
      d="M 20,203.75199990709896 L 35.2,203.45440097374558 L 50.400000000000006,200.63710251608225 L 65.6,197.35509051794986 L 80.80000000000001,196.0023210178412 L 96,197.56552737179427 L 111.2,200.90447996072604 L 126.4,203.58368929920414 L 141.60000000000002,203.64889398358778 L 156.79999999999998,201.0525325948429 L 172,197.68843581616994 L 187.2,196.0104337377579 L 202.4,197.24248995587143 L 217.6,200.4859214599689 L 232.8,203.37491348791949 L 248,203.8021855317892 L 263.20000000000005,201.45607800895522 L 278.40000000000003,198.04788212567692 L 293.59999999999997,196.06359461803677 L 308.8,196.95058894588925 L 324,200.06187618034576 L 339.2,203.1280298639006 L 354.4,203.91254472787406 L 369.6,201.84318212811573 L 384.8,198.42937076090757 L 400,196.1612033929591 L 415.2,196.69312034012 L 430.40000000000003,199.6371322262524 L 445.6,202.84582611191186 L 460.79999999999995,203.9787254517291 L 476,202.2094739687913 L 491.2,198.82859414552732 L 506.40000000000003,196.3021579137056 L 521.6,196.4729913435776 L 536.8000000000001,199.21648559116252 L 552,202.5314887337027 L 567.1999999999999,203.99998042416027 L 582.4,202.55081754914988 L 597.6,199.2410444513994 L 612.8000000000001,196.4848665932623 L 628,196.2926875413319 L 643.1999999999999,198.80468600370017 L 658.4,202.18856706764498 L 673.6,203.97606964479064 L 688.8,202.8633585904715 L 704,199.6620644986954 L 719.2,196.70726637781448 L 734.4,196.15424483254174 L 749.6,198.4063832961113 L 764.8,201.82093321140266 L 780,203.90726310202314"
      stroke="url(#thread-15)"
      stroke-width="7.022"
      stroke-linecap="round"
      fill="none"
      opacity="0.5"
      class="thread"
      style="animation-delay: 1.5s"
    >
      <title>2025-12-25: 3511 stars, Python, TypeScript</title>
    </path>

    <path
      d="M 20,215.95743298649353 L 35.2,214.57363982609132 L 50.400000000000006,211.8924562702019 L 65.6,209.26548628402816 L 80.80000000000001,208.01700438133193 L 96,208.7763792923748 L 111.2,211.16080464845936 L 126.4,213.9682744329012 L 141.60000000000002,215.78352288200284 L 156.79999999999998,215.69147016236565 L 172,213.73852071377374 L 187.2,210.90917043646476 L 202.4,208.62971520837624 L 217.6,208.04924484770413 L 232.8,209.4603786491789 L 248,212.15175388744154 L 263.20000000000005,214.76662889671002 L 278.40000000000003,215.98682632830034 L 293.59999999999997,215.19723585780176 L 308.8,212.7958957353252 L 324,209.99333883326977 L 339.2,208.20235429589405 L 354.4,208.3257903437225 L 369.6,210.30142197491685 L 384.8,213.1333190374227 L 400,215.39390180051933 L 415.2,215.94359419170718 L 430.40000000000003,214.50529231262036 L 445.6,211.80405451245787 L 460.79999999999995,209.20159424557684 L 476,208.00983049949795 L 491.2,208.8295399727233 L 506.40000000000003,211.24750120867182 L 521.6,214.04480251178416 L 536.8000000000001,215.81130412312842 L 552,215.65649984174505 L 567.1999999999999,213.65842762221146 L 582.4,210.82433007898848 L 597.6,208.58289622099457 L 612.8000000000001,208.0640490195795 L 628,209.52934309051238 L 643.1999999999999,212.24011312603724 L 658.4,214.82984040321148 L 673.6,215.99302472644632 L 688.8,215.14329649038868 L 704,212.70900982643613 L 719.2,209.91730619613153 L 734.4,208.1755035311782 L 749.6,208.3616571155498 L 764.8,210.381925584965 L 780,213.21787703533494"
      stroke="url(#thread-16)"
      stroke-width="5.776"
      stroke-linecap="round"
      fill="none"
      opacity="0.46666666666666673"
      class="thread"
      style="animation-delay: 1.6s"
    >
      <title>2025-12-24: 2888 stars, Python, TypeScript</title>
    </path>

    <path
      d="M 20,227.19394845049396 L 35.2,224.79053862488223 L 50.400000000000006,221.98861257769744 L 65.6,220.20064143470853 L 80.80000000000001,220.32795434259927 L 96,222.30637194641702 L 111.2,225.13855966521754 L 126.4,227.396791246346 L 141.60000000000002,227.94267586508795 L 156.79999999999998,226.50102914862626 L 172,223.79859560280107 L 187.2,221.19769146598088 L 202.4,220.00945126930105 L 217.6,220.83287546460247 L 232.8,223.25286997711768 L 248,226.04949812190765 L 263.20000000000005,227.8129594840051 L 278.40000000000003,227.65428047401974 L 293.59999999999997,225.65345232515892 L 308.8,222.81910693573099 L 324,220.5800582557136 L 339.2,220.0650268710385 L 354.4,221.53364381673933 L 369.6,224.24556869992753 L 384.8,226.83370063062551 L 400,227.99334363890765 L 415.2,227.1399133218258 L 430.40000000000003,224.70363005651842 L 445.6,221.91264180566938 L 460.79999999999995,220.17390587303967 L 476,220.36393158072363 L 491.2,222.3869255991553 L 506.40000000000003,225.22308205533204 L 521.6,227.44267402746812 L 536.8000000000001,227.92678919638186 L 552,226.43138161434945 L 567.1999999999999,223.7102970272281 L 582.4,221.13525379780097 L 597.6,220.00434978729723 L 612.8000000000001,220.88768186264085 L 628,223.33995595472467 L 643.1999999999999,226.12496300977293 L 658.4,227.83876088795978 L 673.6,227.61741172026998 L 688.8,225.57249921833966 L 704,222.73487852076275 L 719.2,220.53501468397383 L 734.4,220.08187493186156 L 749.6,221.6038902811688 L 764.8,224.33380181867983 L 780,226.89544145226674"
      stroke="url(#thread-17)"
      stroke-width="5.776"
      stroke-linecap="round"
      fill="none"
      opacity="0.43333333333333335"
      class="thread"
      style="animation-delay: 1.7000000000000002s"
    >
      <title>2025-12-23: 2888 stars, Python, TypeScript</title>
    </path>
  </g>

  <!-- Date markers -->
  <g id="dates">
    <text x="785" y="24" class="date-label">01-09</text>
<text x="785" y="108" class="date-label">01-02</text>
<text x="785" y="192" class="date-label">12-26</text>
  </g>

</svg>