<?xml version="1.0" encoding="UTF-8"?>
<svg xmlns="http://www.w3.org/2000/svg" viewBox="0 0 800 424" width="800" height="424">
  <title>The Data Tapestry - GitHub Trends Woven in Time</title>
  <desc>A living data art piece that weaves daily GitHub trending repositories into an evolving tapestry. Each thread represents one day of open source activity.</desc>

  <style>
    .thread {
      animation: breathe 8s ease-in-out infinite alternate;
    }

    @keyframes breathe {
      0% {
        opacity: 0.85;
      }
      100% {
        opacity: 1;
      }
    }

    .date-label {
      font-family: ui-monospace, monospace;
      font-size: 8px;
      fill: #666;
    }

    .title {
      font-family: system-ui, sans-serif;
      font-size: 14px;
      fill: #333;
      font-weight: 600;
    }

    .subtitle {
      font-family: system-ui, sans-serif;
      font-size: 10px;
      fill: #888;
    }

    .empty-state {
      font-family: system-ui, sans-serif;
      font-size: 12px;
      fill: #999;
      text-anchor: middle;
    }
  </style>

  <defs>
    
    <linearGradient id="thread-0" x1="0%" y1="0%" x2="100%" y2="0%">
      <stop offset="0%" stop-color="#3572A5" />
      <stop offset="50%" stop-color="#3178c6" />
      <stop offset="100%" stop-color="#8b8b8b" />
    </linearGradient>

    <linearGradient id="thread-1" x1="0%" y1="0%" x2="100%" y2="0%">
      <stop offset="0%" stop-color="#3178c6" />
      <stop offset="50%" stop-color="#3572A5" />
      <stop offset="100%" stop-color="#dea584" />
    </linearGradient>

    <linearGradient id="thread-2" x1="0%" y1="0%" x2="100%" y2="0%">
      <stop offset="0%" stop-color="#3572A5" />
      <stop offset="50%" stop-color="#3178c6" />
      <stop offset="100%" stop-color="#8b8b8b" />
    </linearGradient>

    <linearGradient id="thread-3" x1="0%" y1="0%" x2="100%" y2="0%">
      <stop offset="0%" stop-color="#3572A5" />
      <stop offset="50%" stop-color="#3178c6" />
      <stop offset="100%" stop-color="#41b883" />
    </linearGradient>

    <linearGradient id="thread-4" x1="0%" y1="0%" x2="100%" y2="0%">
      <stop offset="0%" stop-color="#3178c6" />
      <stop offset="50%" stop-color="#f1e05a" />
      <stop offset="100%" stop-color="#89e051" />
    </linearGradient>

    <linearGradient id="thread-5" x1="0%" y1="0%" x2="100%" y2="0%">
      <stop offset="0%" stop-color="#3178c6" />
      <stop offset="50%" stop-color="#3572A5" />
      <stop offset="100%" stop-color="#f1e05a" />
    </linearGradient>

    <linearGradient id="thread-6" x1="0%" y1="0%" x2="100%" y2="0%">
      <stop offset="0%" stop-color="#3178c6" />
      <stop offset="50%" stop-color="#3572A5" />
      <stop offset="100%" stop-color="#f1e05a" />
    </linearGradient>

    <linearGradient id="thread-7" x1="0%" y1="0%" x2="100%" y2="0%">
      <stop offset="0%" stop-color="#3178c6" />
      <stop offset="50%" stop-color="#f1e05a" />
      <stop offset="100%" stop-color="#3572A5" />
    </linearGradient>

    <linearGradient id="thread-8" x1="0%" y1="0%" x2="100%" y2="0%">
      <stop offset="0%" stop-color="#3572A5" />
      <stop offset="50%" stop-color="#3178c6" />
      <stop offset="100%" stop-color="#89e051" />
    </linearGradient>

    <linearGradient id="thread-9" x1="0%" y1="0%" x2="100%" y2="0%">
      <stop offset="0%" stop-color="#3178c6" />
      <stop offset="50%" stop-color="#89e051" />
      <stop offset="100%" stop-color="#3572A5" />
    </linearGradient>

    <linearGradient id="thread-10" x1="0%" y1="0%" x2="100%" y2="0%">
      <stop offset="0%" stop-color="#3572A5" />
      <stop offset="50%" stop-color="#3178c6" />
      <stop offset="100%" stop-color="#89e051" />
    </linearGradient>

    <linearGradient id="thread-11" x1="0%" y1="0%" x2="100%" y2="0%">
      <stop offset="0%" stop-color="#3178c6" />
      <stop offset="50%" stop-color="#3572A5" />
      <stop offset="100%" stop-color="#8b8b8b" />
    </linearGradient>

    <linearGradient id="thread-12" x1="0%" y1="0%" x2="100%" y2="0%">
      <stop offset="0%" stop-color="#3178c6" />
      <stop offset="50%" stop-color="#89e051" />
      <stop offset="100%" stop-color="#3572A5" />
    </linearGradient>

    <linearGradient id="thread-13" x1="0%" y1="0%" x2="100%" y2="0%">
      <stop offset="0%" stop-color="#3572A5" />
      <stop offset="50%" stop-color="#3178c6" />
      <stop offset="100%" stop-color="#89e051" />
    </linearGradient>

    <linearGradient id="thread-14" x1="0%" y1="0%" x2="100%" y2="0%">
      <stop offset="0%" stop-color="#3572A5" />
      <stop offset="50%" stop-color="#3178c6" />
      <stop offset="100%" stop-color="#8b8b8b" />
    </linearGradient>

    <linearGradient id="thread-15" x1="0%" y1="0%" x2="100%" y2="0%">
      <stop offset="0%" stop-color="#3572A5" />
      <stop offset="50%" stop-color="#3178c6" />
      <stop offset="100%" stop-color="#8b8b8b" />
    </linearGradient>

    <linearGradient id="thread-16" x1="0%" y1="0%" x2="100%" y2="0%">
      <stop offset="0%" stop-color="#3178c6" />
      <stop offset="50%" stop-color="#3572A5" />
      <stop offset="100%" stop-color="#dea584" />
    </linearGradient>

    <linearGradient id="thread-17" x1="0%" y1="0%" x2="100%" y2="0%">
      <stop offset="0%" stop-color="#3572A5" />
      <stop offset="50%" stop-color="#3178c6" />
      <stop offset="100%" stop-color="#00ADD8" />
    </linearGradient>

    <linearGradient id="thread-18" x1="0%" y1="0%" x2="100%" y2="0%">
      <stop offset="0%" stop-color="#3572A5" />
      <stop offset="50%" stop-color="#00ADD8" />
      <stop offset="100%" stop-color="#3178c6" />
    </linearGradient>

    <linearGradient id="thread-19" x1="0%" y1="0%" x2="100%" y2="0%">
      <stop offset="0%" stop-color="#3572A5" />
      <stop offset="50%" stop-color="#3178c6" />
      <stop offset="100%" stop-color="#00ADD8" />
    </linearGradient>

    <linearGradient id="thread-20" x1="0%" y1="0%" x2="100%" y2="0%">
      <stop offset="0%" stop-color="#3572A5" />
      <stop offset="50%" stop-color="#00ADD8" />
      <stop offset="100%" stop-color="#DA5B0B" />
    </linearGradient>

    <linearGradient id="thread-21" x1="0%" y1="0%" x2="100%" y2="0%">
      <stop offset="0%" stop-color="#3572A5" />
      <stop offset="50%" stop-color="#3178c6" />
      <stop offset="100%" stop-color="#dea584" />
    </linearGradient>

    <linearGradient id="thread-22" x1="0%" y1="0%" x2="100%" y2="0%">
      <stop offset="0%" stop-color="#dea584" />
      <stop offset="50%" stop-color="#3572A5" />
      <stop offset="100%" stop-color="#3178c6" />
    </linearGradient>

    <linearGradient id="thread-23" x1="0%" y1="0%" x2="100%" y2="0%">
      <stop offset="0%" stop-color="#3572A5" />
      <stop offset="50%" stop-color="#3178c6" />
      <stop offset="100%" stop-color="#dea584" />
    </linearGradient>

    <linearGradient id="thread-24" x1="0%" y1="0%" x2="100%" y2="0%">
      <stop offset="0%" stop-color="#3572A5" />
      <stop offset="50%" stop-color="#dea584" />
      <stop offset="100%" stop-color="#3178c6" />
    </linearGradient>

    <linearGradient id="thread-25" x1="0%" y1="0%" x2="100%" y2="0%">
      <stop offset="0%" stop-color="#3572A5" />
      <stop offset="50%" stop-color="#3178c6" />
      <stop offset="100%" stop-color="#89e051" />
    </linearGradient>

    <linearGradient id="thread-26" x1="0%" y1="0%" x2="100%" y2="0%">
      <stop offset="0%" stop-color="#3572A5" />
      <stop offset="50%" stop-color="#f1e05a" />
      <stop offset="100%" stop-color="#89e051" />
    </linearGradient>

    <linearGradient id="thread-27" x1="0%" y1="0%" x2="100%" y2="0%">
      <stop offset="0%" stop-color="#3572A5" />
      <stop offset="50%" stop-color="#89e051" />
      <stop offset="100%" stop-color="#dea584" />
    </linearGradient>

    <linearGradient id="thread-28" x1="0%" y1="0%" x2="100%" y2="0%">
      <stop offset="0%" stop-color="#3572A5" />
      <stop offset="50%" stop-color="#89e051" />
      <stop offset="100%" stop-color="#00ADD8" />
    </linearGradient>

    <linearGradient id="thread-29" x1="0%" y1="0%" x2="100%" y2="0%">
      <stop offset="0%" stop-color="#3572A5" />
      <stop offset="50%" stop-color="#3178c6" />
      <stop offset="100%" stop-color="#3572A5" />
    </linearGradient>

    <linearGradient id="thread-30" x1="0%" y1="0%" x2="100%" y2="0%">
      <stop offset="0%" stop-color="#3572A5" />
      <stop offset="50%" stop-color="#3178c6" />
      <stop offset="100%" stop-color="#3572A5" />
    </linearGradient>

    <linearGradient id="thread-31" x1="0%" y1="0%" x2="100%" y2="0%">
      <stop offset="0%" stop-color="#3572A5" />
      <stop offset="50%" stop-color="#3178c6" />
      <stop offset="100%" stop-color="#3572A5" />
    </linearGradient>

    <!-- Background pattern -->
    <pattern id="loom" patternUnits="userSpaceOnUse" width="20" height="20">
      <rect width="20" height="20" fill="#fafafa"/>
      <circle cx="10" cy="10" r="0.5" fill="#eee"/>
    </pattern>
  </defs>

  <!-- Background -->
  <rect width="100%" height="100%" fill="url(#loom)"/>

  <!-- Threads -->
  <g id="tapestry">
    
    <path
      d="M 20,20 L 35.2,23.764883319789064 L 50.400000000000006,22.543493974301985 L 65.6,17.953459865856583 L 80.80000000000001,16.07389677669409 L 96,19.394128613585146 L 111.2,23.51678636282097 L 126.4,22.981755089297753 L 141.60000000000002,18.497638908371243 L 156.79999999999998,16.00327417742661 L 172,18.802238090945135 L 187.2,23.187537345916912 L 202.4,23.35121032791754 L 217.6,19.076485879151953 L 232.8,16.024878543359513 L 248,18.23798667861908 L 263.20000000000005,22.784733897478816 L 278.40000000000003,23.643334277874377 L 293.59999999999997,19.67664351983263 L 308.8,16.138211340144064 L 324,17.71439483327053 L 339.2,22.317670960735416 L 354.4,23.851385995064817 L 369.6,20.28426281491934 L 384.8,16.340657342125773 L 400,17.243544766450597 L 415.2,21.79712630707405 L 430.40000000000003,23.970564555098978 L 445.6,20.885322566543902 L 460.79999999999995,16.627544980323297 L 476,16.83630163995795 L 491.2,21.23511183217871 L 506.40000000000003,23.998119837654173 L 521.6,21.465952942434363 L 536.8000000000001,16.992254141824418 L 552,16.50206284538825 L 567.1999999999999,20.644596373973105 L 582.4,23.933415987233143 L 597.6,22.01275553102861 L 612.8000000000001,17.426368933060505 L 628,16.248541153405235 L 643.1999999999999,20.039206448518566 L 658.4,23.77794608593008 L 673.6,22.513112518258673 L 688.8,17.919871881850106 L 704,16.081586736700764 L 719.2,19.432911809575174 L 734.4,23.535297699621097 L 749.6,22.955477851556154 L 764.8,18.461375096877994 L 780,16.00505217357593"
      stroke="url(#thread-0)"
      stroke-width="8"
      stroke-linecap="round"
      fill="none"
      opacity="1"
      class="thread"
      style="animation-delay: 0s"
    >
      <title>2026-01-23: 4879 stars, Unknown, Rust, Python, Shell, TypeScript, JavaScript</title>
    </path>

    <path
      d="M 20,33.917702154416816 L 35.2,35.484475116091915 L 50.400000000000006,29.98947171459598 L 65.6,28.569085192349526 L 80.80000000000001,34.101927574172116 L 96,35.37491962966092 L 111.2,29.808164844003752 L 126.4,28.683470678926238 L 141.60000000000002,34.28018722479398 L 156.79999999999998,35.255785320628306 L 172,29.633078921592563 L 187.2,28.807269262555817 L 202.4,34.4519751631022 L 217.6,35.12741032042746 L 232.8,29.464710882748985 L 248,28.94012957348699 L 263.20000000000005,34.61680381417155 L 278.40000000000003,34.99015898776565 L 293.59999999999997,29.303538595912237 L 308.8,29.081674522636472 L 324,34.77420535518502 L 339.2,34.84442087448761 L 354.4,29.150019506270148 L 369.6,29.23150237185738 L 384.8,34.92373304322603 L 400,34.690609619934804 L 415.2,29.004589337421173 L 430.40000000000003,29.389187874167234 L 445.6,35.06496248324081 L 460.79999999999995,34.52916177693912 L 476,28.86766085468755 L 491.2,29.554283480699937 L 506.40000000000003,35.19749283257217 L 521.6,34.36053557278209 L 536.8000000000001,28.739622693589247 L 552,29.72632061095556 L 567.1999999999999,35.320947938646185 L 582.4,34.18520960863738 L 597.6,28.62083825680431 L 612.8000000000001,29.904810982742994 L 628,35.43497740658232 L 643.1999999999999,34.00368150118698 L 658.4,28.511644682745622 L 673.6,30.08924799804063 L 688.8,35.539257593697364 L 704,33.81646647026688 L 719.2,28.412351888682284 L 734.4,30.27910818084173 L 749.6,35.63349252808001 L 764.8,33.62409587655128 L 780,28.323241691120955"
      stroke="url(#thread-1)"
      stroke-width="8"
      stroke-linecap="round"
      fill="none"
      opacity="0.98125"
      class="thread"
      style="animation-delay: 0.1s"
    >
      <title>2026-01-22: 6303 stars, Rust, Unknown, Shell, TypeScript, Python</title>
    </path>

    <path
      d="M 20,47.36588393923159 L 35.2,47.53205976399285 L 50.400000000000006,44.09160226355903 L 65.6,40.55760847028463 L 80.80000000000001,40.53868657245447 L 96,44.054157972267326 L 111.2,47.51432794439893 L 126.4,47.38597078877744 L 141.60000000000002,43.80015370865665 L 156.79999999999998,40.41840234158618 L 172,40.693868104294175 L 187.2,44.345269233130686 L 202.4,47.644111343836094 L 217.6,47.22190276695544 L 232.8,43.509766310512646 L 248,40.29821401169455 L 263.20000000000005,40.86660474902425 L 278.40000000000003,44.634547161097366 L 293.59999999999997,47.75454500525791 L 308.8,47.040726877516555 L 324,43.221981986908055 L 339.2,40.1976816643743 L 354.4,41.0559792984406 L 369.6,44.92045572952281 L 384.8,47.845042540869116 L 400,46.84340513991204 L 415.2,42.93832883365038 L 430.40000000000003,40.11733911278293 L 445.6,41.26098619931717 L 460.79999999999995,45.20147680260563 L 476,47.9151234210042 L 491.2,46.63098530586162 L 506.40000000000003,42.66031301059177 L 521.6,40.05761296499524 L 536.8000000000001,41.48053689275739 L 552,45.4761181964832 L 567.1999999999999,47.96441552567491 L 582.4,46.404595295933696 L 597.6,42.389410744123985 L 612.8000000000001,40.01882035877224 L 628,41.71346559429469 L 643.1999999999999,45.74292160252593 L 658.4,47.99265712047698 L 673.6,46.16543721043973 L 688.8,42.12706048861608 L 704,40.00116727760246 L 719.2,41.95853548405016 L 734.4,46.00047033075893 L 749.6,47.99969824636444 L 764.8,45.914780946444225 L 780,41.87465528841644"
      stroke="url(#thread-2)"
      stroke-width="8"
      stroke-linecap="round"
      fill="none"
      opacity="0.9625"
      class="thread"
      style="animation-delay: 0.2s"
    >
      <title>2026-01-21: 4215 stars, Unknown, TypeScript, Python, Shell, JavaScript</title>
    </path>

    <path
      d="M 20,59.98997994641622 L 35.2,56.02180469041071 L 50.400000000000006,52.00717242061579 L 65.6,56.49964767769862 L 80.80000000000001,59.92757495838411 L 96,54.98742176813702 L 111.2,52.204664990975864 L 126.4,57.508238610097784 L 141.60000000000002,59.598363169075384 L 156.79999999999998,54.02182499557358 L 172,52.659981079476395 L 187.2,58.41437234603705 L 202.4,59.02470849143344 L 217.6,53.19060899254065 L 232.8,53.3421902951179 L 248,59.156493690217424 L 263.20000000000005,58.24558025671246 L 278.40000000000003,52.550239666191885 L 293.59999999999997,54.20494901351244 L 308.8,59.6841890861574 L 324,57.31390596197949 L 339.2,52.14421838656075 L 354.4,55.189648577570765 L 369.6,59.96161129424196 L 384.8,56.29297581583475 L 400,52.00012686501275 L 415.2,56.229396682578454 L 430.40000000000003,59.969914555261795 L 445.6,55.25214332763348 L 460.79999999999995,52.127753482002156 L 476,57.253561483447875 L 491.2,59.7085348146702 L 506.40000000000003,54.26211400644541 L 521.6,52.51842834585347 L 536.8000000000001,58.192569735264534 L 552,59.19522803976116 L 567.1999999999999,53.39014221638963 L 582.4,53.14561225314779 L 597.6,58.98263302133496 L 612.8000000000001,58.46486402681816 L 628,52.69546247407581 L 643.1999999999999,53.966699541640445 L 658.4,59.570081008082994 L 673.6,57.567057636951674 L 688.8,52.22526554783357 L 704,54.92591236486586 L 719.2,59.915007361467474 L 734.4,56.5627983747756 L 749.6,52.01149270910656 L 764.8,55.958089775465666 L 780,59.993980651662696"
      stroke="url(#thread-3)"
      stroke-width="8"
      stroke-linecap="round"
      fill="none"
      opacity="0.94375"
      class="thread"
      style="animation-delay: 0.30000000000000004s"
    >
      <title>2026-01-20: 6510 stars, Python, Vue, TypeScript, Unknown, Shell, JavaScript</title>
    </path>

    <path
      d="M 20,71.63718970730272 L 35.2,67.99120640816648 L 50.400000000000006,64.35552661627436 L 65.6,64.99009936978221 L 80.80000000000001,69.15139175443994 L 96,71.96359112826507 L 111.2,70.13162567433224 L 126.4,65.80202091747442 L 141.60000000000002,64.0478021721604 L 156.79999999999998,66.92439865233816 L 172,71.0612840437202 L 187.2,71.61124353292296 L 202.4,67.9298861033672 L 217.6,64.33068157055122 L 232.8,65.03084068056114 L 248,69.2099825698527 L 263.20000000000005,71.97138021881699 L 278.40000000000003,70.07948651329268 L 293.59999999999997,65.75104529004848 L 308.8,64.05771854384902 L 324,66.98358794763003 L 339.2,71.10039379045593 L 354.4,71.58444859315696 L 369.6,67.86858227772476 L 384.8,64.30669893979555 L 400,65.0722798450388 L 415.2,69.26828899809692 L 430.40000000000003,71.97823589957957 L 445.6,70.02685860200476 L 460.79999999999995,65.70059824367658 L 476,64.06856148612538 L 491.2,67.04301613441741 L 506.40000000000003,71.13877483891667 L 521.6,71.55681118572937 L 536.8000000000001,67.80730933972885 L 552,64.28358436074348 L 567.1999999999999,65.11440712359835 L 582.4,69.32629733517349 L 597.6,71.98415655923404 L 612.8000000000001,69.97375430982244 L 628,65.650691635135 L 643.1999999999999,64.08032845052824 L 658.4,67.10266924504967 L 673.6,71.17641816824707 L 688.8,71.5283378063735 L 704,67.74608169060954 L 719.2,64.26134326610935 L 734.4,65.15721261489261 L 749.6,69.38399394714492 L 764.8,71.98914080622346 L 780,69.92018611806539"
      stroke="url(#thread-4)"
      stroke-width="8"
      stroke-linecap="round"
      fill="none"
      opacity="0.925"
      class="thread"
      style="animation-delay: 0.4s"
    >
      <title>2026-01-19: 4551 stars, JavaScript, TypeScript, Shell, Python</title>
    </path>

    <path
      d="M 20,82.39388857641583 L 35.2,78.85685523208531 L 50.400000000000006,76.24189258770546 L 65.6,76.65825268512106 L 80.80000000000001,79.77009578011852 L 96,83.0673816562035 L 111.2,83.8904903063271 L 126.4,81.5754949991975 L 141.60000000000002,77.98969146422739 L 156.79999999999998,76.02542060886537 L 172,77.26708071173046 L 187.2,80.7131377306924 L 202.4,83.58397153649973 L 217.6,83.56394214105919 L 232.8,80.66920543222662 L 248,77.23468169149467 L 263.20000000000005,76.03068820369059 L 278.40000000000003,78.028376785448 L 293.59999999999997,81.61639412390113 L 308.8,83.90061363809397 L 324,83.03856362592104 L 339.2,79.72558126638792 L 354.4,76.63394748918951 L 369.6,76.25740149599554 L 384.8,78.89966862173569 L 400,82.42947278793719 L 415.2,83.99964267424706 L 430.40000000000003,82.34366533606925 L 445.6,78.79726676907224 L 460.79999999999995,76.22100348434446 L 476,76.69291227729504 L 491.2,79.83234733363874 L 506.40000000000003,83.10701251634895 L 521.6,83.87553387010958 L 536.8000000000001,81.51801526060882 L 552,77.93605208977857 L 567.1999999999999,76.01888759332029 L 582.4,77.31292364332108 L 597.6,80.77437929455363 L 612.8000000000001,83.6112137445197 L 628,83.53521118683803 L 643.1999999999999,80.60767595804286 L 658.4,77.18998391647766 L 673.6,76.03887574926519 L 688.8,78.08284550479856 L 704,81.67320906531668 L 719.2,83.91394736635452 L 734.4,82.99766103765278 L 749.6,79.6634347517525 L 764.8,76.60068497761264 L 780,76.27985282407592"
      stroke="url(#thread-5)"
      stroke-width="7.412"
      stroke-linecap="round"
      fill="none"
      opacity="0.90625"
      class="thread"
      style="animation-delay: 0.5s"
    >
      <title>2026-01-18: 3706 stars, JavaScript, Shell, Vue, TypeScript, Python, HTML</title>
    </path>

    <path
      d="M 20,92.56448003223947 L 35.2,88.04189544754215 L 50.400000000000006,91.40965572923422 L 65.6,95.95424694717498 L 80.80000000000001,92.61618330176617 L 96,88.04977950328423 L 111.2,91.35800397807837 L 126.4,95.9460253730085 L 141.60000000000002,92.66778132903661 L 156.79999999999998,88.05833824481634 L 172,91.30646187791382 L 187.2,95.93712982956649 L 202.4,92.71926530126284 L 217.6,88.06757021033114 L 232.8,91.25503823197637 L 248,95.92756183618107 L 263.20000000000005,92.77062642513702 L 278.40000000000003,88.07747382303668 L 293.59999999999997,91.2037418232702 L 308.8,95.91732302703674 L 324,92.82185592833366 L 339.2,88.08804739142568 L 354.4,91.15258141306781 L 369.6,95.90641515089135 L 384.8,92.87294506100748 L 400,88.0992891095644 L 415.2,91.10156573941347 L 430.40000000000003,95.89484007077735 L 445.6,92.92388509728812 L 460.79999999999995,88.11119705740118 L 476,91.05070351563094 L 491.2,95.88259976368363 L 506.40000000000003,92.97466733677054 L 521.6,88.1237692010943 L 536.8000000000001,91.00000342883527 L 552,95.86969632021788 L 567.1999999999999,93.02528310600083 L 582.4,88.13700339335945 L 597.6,90.94947413844878 L 612.8000000000001,95.85613194424946 L 628,93.0757237599577 L 643.1999999999999,88.15089737383632 L 658.4,90.89912427472255 L 673.6,95.84190895253302 L 688.8,93.125980683529 L 704,88.16544876947478 L 719.2,90.84896243726197 L 734.4,95.82702977431282 L 749.6,93.17604529298328 L 764.8,88.1806550949402 L 780,90.79899719355812"
      stroke="url(#thread-6)"
      stroke-width="8"
      stroke-linecap="round"
      fill="none"
      opacity="0.8875"
      class="thread"
      style="animation-delay: 0.6000000000000001s"
    >
      <title>2026-01-17: 6237 stars, JavaScript, TypeScript, Shell, Python</title>
    </path>

    <path
      d="M 20,102.59686708924153 L 35.2,100.10348983968896 L 50.400000000000006,104.38949979675591 L 65.6,107.99783413372461 L 80.80000000000001,104.6504916046548 L 96,100.17138391107221 L 111.2,102.35353715726932 L 126.4,107.40030737428212 L 141.60000000000002,106.53101440568216 L 156.79999999999998,101.25810744001728 L 172,100.75571320967354 L 187.2,105.89792798997027 L 202.4,107.73801132317168 L 217.6,103.07447344151498 L 232.8,100.02122339482678 L 248,103.89049275790579 L 263.20000000000005,107.95028953283337 L 278.40000000000003,105.13713045251538 L 293.59999999999997,100.34552211250784 L 308.8,101.91219839592868 L 324,107.11135987822578 L 339.2,106.89718673907552 L 354.4,101.64231053333596 L 369.6,100.48948697211148 L 384.8,105.44446914750513 L 400,107.8862753638834 L 415.2,103.5665014997907 L 430.40000000000003,100.0009548968873 L 445.6,103.39319207878802 L 460.79999999999995,107.84119087523345 L 476,105.60605034793528 L 491.2,100.57660498527895 L 506.40000000000003,101.5033921001872 L 521.6,106.77393066436282 L 536.8000000000001,107.21821463549774 L 552,102.0632515290099 L 567.1999999999999,100.27796212192851 L 582.4,104.96850235085579 L 597.6,107.97398282712261 L 612.8000000000001,104.06528440250082 L 628,100.04300017291592 L 643.1999999999999,102.90534677980956 L 658.4,107.67223815402687 L 673.6,106.04994450451449 L 688.8,100.86103175831892 L 704,101.13348835651611 L 719.2,106.39327760981654 L 734.4,107.48909578583276 L 749.6,102.51437125569156 L 764.8,100.12443467388896 L 780,104.47744419238815"
      stroke="url(#thread-7)"
      stroke-width="8"
      stroke-linecap="round"
      fill="none"
      opacity="0.86875"
      class="thread"
      style="animation-delay: 0.7000000000000001s"
    >
      <title>2026-01-16: 5731 stars, JavaScript, TypeScript, Shell, Python, C</title>
    </path>

    <path
      d="M 20,112.9727900187683 L 35.2,112.10472870952752 L 50.400000000000006,114.44329313707165 L 65.6,118.06335400454417 L 80.80000000000001,119.98484150916704 L 96,118.62596818974217 L 111.2,115.10537196239004 L 126.4,112.32124235734126 L 141.60000000000002,112.56550231920062 L 156.79999999999998,115.63707463876831 L 172,119.00741069443417 L 187.2,119.90201661098435 L 202.4,117.58444397639003 L 217.6,113.96254143655571 L 232.8,112.017894877108 L 248,113.35135652154348 L 263.20000000000005,116.86520759517221 L 278.40000000000003,119.66681124482128 L 293.59999999999997,119.44985972006296 L 308.8,116.39294965539264 L 324,113.01255955960747 L 339.2,112.09145989288835 L 354.4,114.38790898365257 L 369.6,118.01144729557149 L 384.8,119.97914235930844 L 400,118.6711681953594 L 415.2,115.16426203315105 L 430.40000000000003,112.34534360629273 L 445.6,112.53497436054826 L 460.79999999999995,115.57704838910463 L 476,118.96730035438881 L 491.2,119.91484140800245 L 506.40000000000003,117.63964641110361 L 521.6,114.01467832036867 L 536.8000000000001,112.02404661315447 L 552,113.306458940049 L 567.1999999999999,116.80622082794883 L 582.4,119.64229378030365 L 597.6,119.47999457680368 L 612.8000000000001,116.45292952216911 L 628,113.0530084186402 L 643.1999999999999,112.07907984456371 L 658.4,114.3328914058285 L 673.6,117.95908320082977 L 688.8,119.97253838679201 L 704,118.71576080036418 L 719.2,115.22334214351861 L 734.4,112.3702758925917 L 749.6,112.50523431884517 L 764.8,115.51711831498992 L 780,118.9265152758318"
      stroke="url(#thread-8)"
      stroke-width="7.494"
      stroke-linecap="round"
      fill="none"
      opacity="0.85"
      class="thread"
      style="animation-delay: 0.8s"
    >
      <title>2026-01-15: 3747 stars, TypeScript, Shell, Python, JavaScript, C</title>
    </path>

    <path
      d="M 20,124.08987952933961 L 35.2,125.19507892345662 L 50.400000000000006,128.9077888553476 L 65.6,131.77660017412336 L 80.80000000000001,131.13460869943114 L 96,127.57862250170834 L 111.2,124.41435722489301 L 126.4,124.58337693743877 L 141.60000000000002,127.92855754582293 L 156.79999999999998,131.34015248353313 L 172,131.64667509980833 L 187.2,128.56317586124183 L 202.4,124.95613711737926 L 217.6,124.17873397658103 L 232.8,126.9536558929932 L 248,130.70128014601448 L 263.20000000000005,131.93774053595394 L 278.40000000000003,129.51359884037123 L 293.59999999999997,125.6823854951669 L 308.8,124.00567278614352 L 324,126.0421662662523 L 339.2,129.8987010069329 L 354.4,131.990165448466 L 369.6,130.37229256092226 L 384.8,126.54908922646607 L 400,124.07468146526064 L 415.2,125.24932804966475 L 430.40000000000003,128.98105410287778 L 445.6,131.80077270861827 L 460.79999999999995,131.08721725104036 L 476,127.50372310541722 L 491.2,124.3815778523173 L 506.40000000000003,124.62318994665213 L 521.6,128.00395196994558 L 536.8000000000001,131.3810401632107 L 552,131.61504603307822 L 567.1999999999999,128.48843305893678 L 582.4,124.90776297822454 L 597.6,124.20169806448216 L 612.8000000000001,127.02661033413894 L 628,130.7564050378572 L 643.1999999999999,131.92379068033972 L 658.4,129.44354230111435 L 673.6,125.62134822746081 L 688.8,124.0103962505846 L 704,126.10825943615252 L 719.2,129.96472235424682 L 734.4,131.99474021285587 L 749.6,130.31116795023144 L 764.8,126.47908789707033 L 780,124.0608780481662"
      stroke="url(#thread-9)"
      stroke-width="8"
      stroke-linecap="round"
      fill="none"
      opacity="0.83125"
      class="thread"
      style="animation-delay: 0.9s"
    >
      <title>2026-01-14: 4003 stars, TypeScript, Shell, Python, C, HTML, Jupyter Notebook</title>
    </path>

    <path
      d="M 20,136.16430290134744 L 35.2,139.94306911209407 L 50.400000000000006,143.80184809278984 L 65.6,142.3173695200003 L 80.80000000000001,137.57597433987942 L 96,136.24139424078325 L 111.2,140.1892973244307 L 126.4,143.87115496545852 L 141.60000000000002,142.11234861753672 L 156.79999999999998,137.3847696014874 L 172,136.332731859025 L 187.2,140.43480804133586 L 202.4,143.9257889630049 L 217.6,141.899321260215 L 232.8,137.20347739550382 L 248,136.43796955823808 L 263.20000000000005,140.6786707012271 L 278.40000000000003,143.9655430056736 L 293.59999999999997,141.67909488763377 L 308.8,137.03278487548445 L 324,136.55670845498008 L 339.2,140.91996098916806 L 354.4,143.99026641334225 L 369.6,141.45250422588703 L 384.8,136.8733390188953 L 400,136.68849849209246 L 415.2,141.15776434030806 L 430.40000000000003,143.999865476646 L 445.6,141.2204081236939 L 460.79999999999995,136.7257441748683 L 476,136.83284014455643 L 491.2,141.39117940636572 L 506.40000000000003,143.99430381216476 L 521.6,140.9836862970963 L 536.8000000000001,136.59055977353066 L 552,136.9891863128473 L 567.1999999999999,141.61932147201793 L 582.4,143.97360250032781 L 597.6,140.74323599506297 L 612.8000000000001,136.4682982055919 L 628,137.156944396611 L 643.1999999999999,141.8413258082447 L 658.4,143.93784000551238 L 673.6,140.49996859863808 L 688.8,136.3594228802244 L 704,137.33547854080277 L 719.2,142.05635094991985 L 734.4,143.88715187863932 L 749.6,140.25480616652524 L 764.8,136.26434646859923 L 780,137.5241120457746"
      stroke="url(#thread-10)"
      stroke-width="8"
      stroke-linecap="round"
      fill="none"
      opacity="0.8125"
      class="thread"
      style="animation-delay: 1s"
    >
      <title>2026-01-13: 5049 stars, TypeScript, Shell, C, Rust, Python</title>
    </path>

    <path
      d="M 20,149.17783869771844 L 35.2,152.54997092849905 L 50.400000000000006,155.48755211230917 L 65.6,155.66949778297652 L 80.80000000000001,152.95204637496516 L 96,149.48235020715416 L 111.2,148.00193619353266 L 126.4,149.68053063458845 L 141.60000000000002,153.19181802162657 L 156.79999999999998,155.76140878024552 L 172,155.3589804032339 L 187.2,152.3025054660482 L 202.4,149.0070105003961 L 217.6,148.07638002708015 L 232.8,150.24593736150868 L 248,153.80144023689235 L 263.20000000000005,155.9335628926474 L 278.40000000000003,154.95764149598457 L 293.59999999999997,151.64478528687434 L 308.8,148.61259650487582 L 324,148.25691235074012 L 339.2,150.85877117315286 L 354.4,154.36235435196528 L 369.6,155.9993596740836 L 384.8,154.4763326317138 L 400,150.99666955278977 L 415.2,148.30977255239736 L 430.40000000000003,148.53865185547502 L 445.6,151.5024620106937 L 460.79999999999995,154.85939413465118 L 476,155.95702008345307 L 491.2,153.92806764230147 L 506.40000000000003,150.3756822901074 L 521.6,148.10672652458786 L 536.8000000000001,148.91398074984008 L 552,152.1596054900356 L 567.1999999999999,155.27912041386958 L 582.4,155.80768891644777 L 597.6,153.3276707475522 L 612.8000000000001,149.7986140140993 L 628,148.0089484655042 L 643.1999999999999,149.37275073303812 L 658.4,152.81243348888535 L 673.6,155.61018445362407 L 688.8,155.55540385208445 L 704,152.6913757316937 L 719.2,149.2810677399697 L 734.4,148.01908213950833 L 749.6,149.9025573889529 L 764.8,153.44329456872987 L 780,155.84363480490825"
      stroke="url(#thread-11)"
      stroke-width="7.33"
      stroke-linecap="round"
      fill="none"
      opacity="0.79375"
      class="thread"
      style="animation-delay: 1.1s"
    >
      <title>2026-01-12: 3665 stars, TypeScript, Unknown, Python, Shell, C</title>
    </path>

    <path
      d="M 20,162.88233800720428 L 35.2,166.2452073908325 L 50.400000000000006,167.98169888439986 L 65.6,166.8339369869847 L 80.80000000000001,163.6333346810278 L 96,160.69833651046767 L 111.2,160.15498933915237 L 126.4,162.39688167461242 L 141.60000000000002,165.80003697856597 L 156.79999999999998,167.8992858571331 L 172,167.1739794937381 L 187.2,164.14951355461767 L 202.4,161.01674334904618 L 217.6,160.04497736842924 L 232.8,161.93814109940197 L 248,165.32486918529798 L 263.20000000000005,167.7518917406539 L 278.40000000000003,167.46112804703492 L 293.59999999999997,164.6632008043597 L 308.8,161.3848657698318 L 324,160.00087533298034 L 339.2,161.5137611333062 L 354.4,164.82762262020387 L 369.6,167.54197283865045 L 384.8,167.69059735376186 L 400,165.16583589937062 L 415.2,161.79656906079194 L 430.40000000000003,160.02341818746274 L 445.6,161.13081401299797 L 460.79999999999995,164.31658383230584 L 476,167.2730274221904 L 491.2,167.85856333791156 L 506.40000000000003,165.64904249148134 L 521.6,162.24499224038811 L 536.8000000000001,160.1122302581526 L 552,160.79568150218992 L 567.1999999999999,163.8002692162167 L 582.4,166.9495374314907 L 597.6,167.96222686830964 L 612.8000000000001,166.10476800598448 L 628,162.72266239493678 L 643.1999999999999,160.26583150349876 L 658.4,160.5139485403763 L 673.6,163.2872830875365 L 688.8,166.57689378496949 L 704,167.99986040576974 L 719.2,166.52541783673942 L 734.4,163.22161921373888 L 749.6,160.48166217882155 L 764.8,160.29031017054618 L 780,162.78617429305774"
      stroke="url(#thread-12)"
      stroke-width="6.996"
      stroke-linecap="round"
      fill="none"
      opacity="0.775"
      class="thread"
      style="animation-delay: 1.2000000000000002s"
    >
      <title>2026-01-11: 3498 stars, TypeScript, Unknown, Shell, Python</title>
    </path>

    <path
      d="M 20,176.86047995235126 L 35.2,179.70965964188562 L 50.400000000000006,179.32982290737726 L 65.6,176.05159281740472 L 80.80000000000001,172.72845454963564 L 96,172.25298291735854 L 111.2,175.039044921323 L 126.4,178.66155555706496 L 141.60000000000002,179.96735591830407 L 156.79999999999998,177.8198320781576 L 172,174.0882632752275 L 187.2,172.02073642726185 L 202.4,173.41689861612525 L 217.6,177.0614818459172 L 232.8,179.78211445889525 L 248,179.2106634619671 L 263.20000000000005,175.84453962397583 L 278.40000000000003,172.61373388951137 L 293.59999999999997,172.3304516322652 L 308.8,175.24127155475753 L 324,178.81251503293515 L 339.2,179.93564787269355 L 354.4,177.63305629377814 L 369.6,173.90899587323187 L 384.8,172.0050179723432 L 400,173.57841099664876 L 415.2,177.25963908372242 L 430.40000000000003,179.84443362099518 L 445.6,179.08289978809282 L 460.79999999999995,175.6379030474264 L 476,172.5080880538276 L 491.2,172.41775433721477 L 506.40000000000003,175.44553149780623 L 521.6,178.9559372747761 L 536.8000000000001,179.8933927193428 L 552,177.44190409635732 L 567.1999999999999,173.73533213460337 L 582.4,172.00000563423913 L 597.6,173.74641297201075 L 612.8000000000001,177.45442062594725 L 628,179.89645011961701 L 643.1999999999999,178.9468742784881 L 658.4,175.43223685128055 L 673.6,172.41180016192004 L 688.8,172.51465707046447 L 704,175.65127735606387 L 719.2,179.09143792659705 L 734.4,179.84070369746166 L 749.6,177.24688775296934 L 764.8,173.56773745925105 L 780,172.00571284546987"
      stroke="url(#thread-13)"
      stroke-width="7.724"
      stroke-linecap="round"
      fill="none"
      opacity="0.7562500000000001"
      class="thread"
      style="animation-delay: 1.3s"
    >
      <title>2026-01-10: 3862 stars, TypeScript, Unknown, Shell, Python</title>
    </path>

    <path
      d="M 20,190.62794639487515 L 35.2,191.96678477190287 L 50.400000000000006,189.77183058398222 L 65.6,185.99844900358653 L 80.80000000000001,184.00814022300344 L 96,185.57396196409215 L 111.2,189.3010088954905 L 126.4,191.86905784081696 L 141.60000000000002,190.9903738229443 L 156.79999999999998,187.4477285897351 L 172,184.39707188518298 L 187.2,184.55606766149285 L 202.4,187.78307523874642 L 217.6,191.20332927441657 L 232.8,191.76991167829198 L 248,188.97808503673045 L 263.20000000000005,185.3149356919139 L 278.40000000000003,184.04376393951188 L 293.59999999999997,186.2969874794279 L 308.8,190.06733214621687 L 324,191.99600316856572 L 339.2,190.36485254729823 L 354.4,186.62698355602126 L 369.6,184.11226015500944 L 384.8,185.06091249749446 L 400,188.62783786493728 L 415.2,191.63545666379002 L 430.40000000000003,191.40444506865484 L 445.6,188.14059873123634 L 460.79999999999995,184.75150063965074 L 476,184.25631374994134 L 491.2,187.09617309960996 L 506.40000000000003,190.74120262216562 L 521.6,191.94424398498074 L 536.8000000000001,189.63357314258818 L 552,185.86764093424856 L 567.1999999999999,184.00131131229728 L 582.4,185.69719571673707 L 597.6,189.44452307123692 L 612.8000000000001,191.90500347472747 L 628,190.88672890697976 L 643.1999999999999,187.29682473614346 L 658.4,184.33334112053174 L 673.6,184.63628425391937 L 688.8,187.93577859378885 L 704,191.29248428764635 L 719.2,191.71609500284364 L 734.4,188.82923901848494 L 749.6,185.20365914397638 L 764.8,184.06918707951857 L 780,186.43646221621702"
      stroke="url(#thread-14)"
      stroke-width="7.822"
      stroke-linecap="round"
      fill="none"
      opacity="0.7375"
      class="thread"
      style="animation-delay: 1.4000000000000001s"
    >
      <title>2026-01-09: 3911 stars, TypeScript, Unknown, Python, Shell</title>
    </path>

    <path
      d="M 20,203.75199990709896 L 35.2,203.3159025146081 L 50.400000000000006,200.11905950139962 L 65.6,196.82309023353022 L 80.80000000000001,196.1721443602141 L 96,198.70818472902133 L 111.2,202.31976134668355 L 126.4,203.99995700523954 L 141.60000000000002,202.34987870772326 L 156.79999999999998,198.7433444158029 L 172,196.18307321079132 L 187.2,196.80068913348774 L 202.4,200.0819791012222 L 217.6,203.29501511888049 L 232.8,203.76469589024535 L 248,201.09997580195258 L 263.20000000000005,197.51944067845972 L 278.40000000000003,196.0041632800366 L 293.59999999999997,197.81572938112615 L 308.8,201.4458699182711 L 324,203.87221178298552 L 339.2,203.07463748150593 L 354.4,199.71718938248046 L 369.6,196.59520302286677 L 384.8,196.30797380784426 L 400,199.0946423014139 L 415.2,202.6350911882681 L 430.40000000000003,203.98162260434208 L 445.6,202.01314487287274 L 460.79999999999995,198.36856814055255 L 476,196.0822847662628 L 491.2,197.05780270462023 L 506.40000000000003,200.48292772965252 L 521.6,203.50597802272637 L 536.8000000000001,203.6100301154813 L 552,200.70845258309885 L 567.1999999999999,197.21703341403986 L 582.4,196.0426494355347 L 597.6,198.16306625179394 L 612.8000000000001,201.81287266215818 L 628,203.95332219579788 L 643.1999999999999,202.8023248635382 L 658.4,199.31817507557201 L 673.6,196.40169733644262 L 688.8,196.481085210572 L 704,199.49024214509848 L 719.2,202.92381196852804 L 734.4,203.92308191361224 L 749.6,201.65608236946764 L 764.8,198.01026600881124 L 780,196.02105727710878"
      stroke="url(#thread-15)"
      stroke-width="7.54"
      stroke-linecap="round"
      fill="none"
      opacity="0.71875"
      class="thread"
      style="animation-delay: 1.5s"
    >
      <title>2026-01-08: 3770 stars, TypeScript, Unknown, Python, Rust, JavaScript</title>
    </path>

    <path
      d="M 20,215.95743298649353 L 35.2,214.01884364535815 L 50.400000000000006,210.5659132117314 L 65.6,208.18869587687158 L 80.80000000000001,208.67034998701217 L 96,211.64958524954918 L 111.2,214.89166774012332 L 126.4,215.9647009857157 L 141.60000000000002,214.06379930776177 L 156.79999999999998,210.61483515078194 L 172,208.20488758920237 L 187.2,208.6416660172797 L 202.4,211.59754153543466 L 217.6,214.85530243847992 L 232.8,215.97129182592383 L 248,214.10840247944554 L 263.20000000000005,210.66399367182612 L 278.40000000000003,208.22172749532822 L 293.59999999999997,208.61355564089934 L 308.8,211.54556656001645 L 324,214.8184494597605 L 339.2,215.97720438142224 L 354.4,214.1526455423218 L 369.6,210.71338037873633 L 384.8,208.2392127190438 L 400,208.5860236590389 L 415.2,211.49366920046418 L 430.40000000000003,214.78111509834307 L 445.6,215.98243764236418 L 460.79999999999995,214.19652093980832 L 476,210.76298683641144 L 491.2,208.2573402739254 L 506.40000000000003,208.55907477407814 L 521.6,211.4418583206909 L 536.8000000000001,214.74330573082437 L 552,215.98699071492445 L 567.1999999999999,214.24002117811912 L 582.4,210.81280457221752 L 597.6,208.27610706384115 L 612.8000000000001,208.53271358880565 L 628,211.39014276983917 L 643.1999999999999,214.70502781493073 L 658.4,215.99086282145188 L 673.6,214.28313882754418 L 688.8,210.86282507743508 L 704,208.29550988347975 L 719.2,208.50694460563267 L 734.4,211.33853138076964 L 749.6,214.6662878884152 L 764.8,215.99405330060236 L 780,214.32586652371853"
      stroke="url(#thread-16)"
      stroke-width="7.128"
      stroke-linecap="round"
      fill="none"
      opacity="0.7"
      class="thread"
      style="animation-delay: 1.6s"
    >
      <title>2026-01-07: 3564 stars, TypeScript, Python, Unknown, Shell, Rust</title>
    </path>

    <path
      d="M 20,227.19394845049396 L 35.2,223.4543901124946 L 50.400000000000006,220.27411509849875 L 65.6,220.9130987531713 L 80.80000000000001,224.7163439612599 L 96,227.78529303403639 L 111.2,226.9740864885144 L 126.4,223.11426037934152 L 141.60000000000002,220.16237126065914 L 156.79999999999998,221.14428504177994 L 172,225.05348036748987 L 187.2,227.88279423358026 L 202.4,226.73200782086656 L 217.6,222.7807472044247 L 232.8,220.07929487028454 L 248,221.39680378959721 L 263.20000000000005,225.3827471763352 L 278.40000000000003,227.95129059517103 L 293.59999999999997,226.46952079795602 L 308.8,222.45634196251493 L 324,220.0255065158213 L 339.2,221.6687686578372 L 354.4,225.7016847337788 L 369.6,227.99027044454817 L 384.8,226.18858622252083 L 400,222.14346799126713 L 415.2,220.00140800133389 L 430.40000000000003,221.9581480433663 L 445.6,226.00791054628274 L 460.79999999999995,227.99944259857224 L 476,225.89130270225056 L 491.2,221.84446248866035 L 506.40000000000003,220.00717934499113 L 521.6,222.26278025496947 L 536.8000000000001,226.29913707823877 L 552,227.97873854039042 L 567.1999999999999,225.57989097298983 L 582.4,221.56155905390918 L 597.6,220.0427774343133 L 612.8000000000001,222.5803896613871 L 628,226.57318884007444 L 643.1999999999999,227.92831293126372 L 658.4,225.25667730963258 L 673.6,221.29687100226738 L 688.8,220.1079363482266 L 704,222.90860369049423 L 719.2,226.82801863936484 L 734.4,227.84854245523292 L 749.6,224.92407614862995 L 764.8,221.0523755783645 L 780,220.20216934351828"
      stroke="url(#thread-17)"
      stroke-width="8"
      stroke-linecap="round"
      fill="none"
      opacity="0.68125"
      class="thread"
      style="animation-delay: 1.7000000000000002s"
    >
      <title>2026-01-06: 4224 stars, TypeScript, Python, Rust, JavaScript, Go</title>
    </path>

    <path
      d="M 20,237.64847394096702 L 35.2,234.00825145516868 L 50.400000000000006,232.02143908697496 L 65.6,233.33734928593094 L 80.80000000000001,236.86360558591136 L 96,239.6729570250492 L 111.2,239.43327683692522 L 126.4,236.34353072384255 L 141.60000000000002,232.96860946855466 L 156.79999999999998,232.11013628002166 L 172,234.48075546231303 L 187.2,238.11254503493598 L 202.4,239.99064770580475 L 217.6,238.5559942008521 L 232.8,234.99953336073426 L 248,232.27358984067703 L 263.20000000000005,232.64105099550113 L 278.40000000000003,235.79687631555515 L 293.59999999999997,239.12132068938368 L 308.8,239.85466327904965 L 324,237.38813443811816 L 339.2,233.7692736271014 L 354.4,232.00220558587446 L 369.6,233.5538264170816 L 384.8,237.13608919950806 L 400,239.77525031287965 L 415.2,239.28046307719703 L 430.40000000000003,236.0624651950995 L 445.6,232.79261308379031 L 460.79999999999995,232.18530890911487 L 476,234.74469405452118 L 491.2,238.34614626021482 L 506.40000000000003,239.99999219096676 L 521.6,238.33332480890786 L 536.8000000000001,234.72969462262463 L 552,232.1805829742615 L 567.1999999999999,232.80208378603814 L 582.4,236.0782706208761 L 597.6,239.28948266921122 L 612.8000000000001,239.76999663767424 L 628,237.12092349021248 L 643.1999999999999,233.54133818317737 L 658.4,232.00276168433348 L 673.6,233.78241242393835 L 688.8,237.40294902458706 L 704,239.85885562324313 L 719.2,239.1114106008309 L 734.4,235.78109045555937 L 749.6,232.63249367921287 L 764.8,232.2793647526288 L 780,235.01484657356306"
      stroke="url(#thread-18)"
      stroke-width="7.528"
      stroke-linecap="round"
      fill="none"
      opacity="0.6625000000000001"
      class="thread"
      style="animation-delay: 1.8s"
    >
      <title>2026-01-05: 3764 stars, Go, TypeScript, Python, Rust, JavaScript</title>
    </path>

    <path
      d="M 20,247.69939551815276 L 35.2,244.51614918312163 L 50.400000000000006,244.43064896657157 L 65.6,247.5189193534386 L 80.80000000000001,251.0349536670335 L 96,251.8523890922159 L 111.2,249.24438411120335 L 126.4,245.52990636399073 L 141.60000000000002,244.01176921097402 L 156.79999999999998,246.039859234637 L 172,249.81085352336277 L 187.2,251.9716857334031 L 202.4,250.60100218367847 L 217.6,246.91757769234536 L 232.8,244.1966139027879 L 248,244.85751837884138 L 263.20000000000005,248.31263269797435 L 278.40000000000003,251.4897624599132 L 293.59999999999997,251.56388962993756 L 308.8,248.46910232912757 L 324,244.95720189816137 L 339.2,244.15087541531787 L 354.4,246.76708662667824 L 369.6,250.47957113370543 L 384.8,251.98728791137958 L 400,249.94961589372926 L 415.2,246.1783980428104 L 430.40000000000003,244.02689948783936 L 445.6,245.40817467572012 L 460.79999999999995,249.0940309895123 L 476,251.80710447493516 L 491.2,251.13500341363343 L 506.40000000000003,247.67534192954943 L 521.6,244.5043576393049 L 536.8000000000001,244.4416041900537 L 552,247.54288025517684 L 567.1999999999999,251.05061485989836 L 582.4,251.84582506620194 L 597.6,249.22143142108143 L 612.8000000000001,245.51097392233243 L 628,244.013691233922 L 643.1999999999999,246.06092671126066 L 658.4,249.832333822052 L 673.6,251.97447915230902 L 688.8,250.5826248901033 L 704,246.89437027973958 L 719.2,244.1892117760808 L 734.4,244.87250330932017 L 749.6,248.33668048989517 L 764.8,251.5014904657414 L 780,251.55286962342535"
      stroke="url(#thread-19)"
      stroke-width="7.814"
      stroke-linecap="round"
      fill="none"
      opacity="0.64375"
      class="thread"
      style="animation-delay: 1.9000000000000001s"
    >
      <title>2026-01-04: 3907 stars, Python, Jupyter Notebook, TypeScript, Go, Rust</title>
    </path>

    <path
      d="M 20,257.8239155564425 L 35.2,256.0006415658857 L 50.400000000000006,257.705110699003 L 65.6,261.43384949550654 L 80.80000000000001,263.8978222597859 L 96,262.9236146506903 L 111.2,259.3705530453462 L 126.4,256.3727122841897 L 141.60000000000002,256.57441952750486 L 156.79999999999998,259.79775340307094 L 172,263.19948440241495 L 187.2,263.7790229711819 L 202.4,261.02517131738784 L 217.6,257.3670393583693 L 232.8,256.0313821040903 L 248,258.1963524438184 L 263.20000000000005,261.952279275362 L 278.40000000000003,263.9861449556962 L 293.59999999999997,262.50392282117576 L 308.8,258.8130473088368 L 324,256.1691557723927 L 339.2,256.90436481031384 L 354.4,260.3701632499418 L 369.6,263.50944910483105 L 384.8,263.55312971417703 L 400,260.4626754058344 L 415.2,256.96410564389726 L 430.40000000000003,256.14342925295387 L 445.6,258.72454621411543 L 460.79999999999995,262.43071195418565 L 476,263.99280195729085 L 491.2,262.03293215582437 L 506.40000000000003,258.279859131453 L 521.6,256.0440832487947 L 536.8000000000001,257.29773156924165 L 552,260.9349894190607 L 567.1999999999999,263.7475143653059 L 582.4,263.2544421136832 L 597.6,259.8907004841896 L 612.8000000000001,256.62336947196707 L 628,256.33448745917616 L 643.1999999999999,259.27887069971484 L 658.4,262.85934569653654 L 673.6,263.917656880002 L 688.8,261.5202920226671 L 704,257.7819121457249 L 719.2,256.0000571225889 L 734.4,257.74646074726803 L 749.6,261.4806600981173 L 764.8,263.9088028487187 L 780,262.88907949816155"
      stroke="url(#thread-20)"
      stroke-width="7.78"
      stroke-linecap="round"
      fill="none"
      opacity="0.625"
      class="thread"
      style="animation-delay: 2s"
    >
      <title>2026-01-03: 3890 stars, Go, Python, Jupyter Notebook, TypeScript, Rust, JavaScript</title>
    </path>

    <path
      d="M 20,268.48121696011333 L 35.2,268.0546007672651 L 50.400000000000006,269.28991150861253 L 65.6,271.6667972319089 L 80.80000000000001,274.1840384990104 L 96,275.78129367783225 L 111.2,275.7857483721928 L 126.4,274.19552612394307 L 141.60000000000002,271.68047883648387 L 156.79999999999998,269.30002396828786 L 172,268.0568843942084 L 187.2,268.474709818434 L 202.4,270.37749895811584 L 217.6,272.9637368499277 L 232.8,275.1440183013666 L 248,275.9999398114103 L 263.20000000000005,275.17096017061755 L 278.40000000000003,273.0062718210364 L 293.59999999999997,270.4177099560384 L 308.8,268.49565869913073 L 324,268.04974682659963 L 339.2,269.2678065215834 L 354.4,271.636752518146 L 369.6,274.1587098421462 L 384.8,275.77135030918305 L 400,275.79537875310314 L 415.2,274.2206736334026 L 430.40000000000003,271.71055054819203 L 445.6,269.3223527262239 L 460.79999999999995,268.06206461935943 L 476,268.46055943613635 L 491.2,270.3499785569138 L 506.40000000000003,272.93443889316916 L 521.6,275.1252840150165 L 536.8000000000001,275.99966066937077 L 552,275.18925375634376 L 567.1999999999999,273.0354322976668 L 582.4,270.4454540085856 L 597.6,268.51029965522736 L 612.8000000000001,268.0451174525022 L 628,269.2458568560706 L 643.1999999999999,271.6067284545128 L 658.4,274.1332584655373 L 673.6,275.76119254435247 L 688.8,275.8047933718474 L 704,274.2456949005595 L 719.2,271.7406387147114 L 734.4,269.34483370479813 L 749.6,268.0674687108286 L 764.8,268.4466102662637 L 780,270.3225519572067"
      stroke="url(#thread-21)"
      stroke-width="5.26"
      stroke-linecap="round"
      fill="none"
      opacity="0.60625"
      class="thread"
      style="animation-delay: 2.1s"
    >
      <title>2026-01-02: 2630 stars, TypeScript, Rust, Python, JavaScript, Jupyter Notebook, Shell</title>
    </path>

    <path
      d="M 20,280.0000391737972 L 35.2,281.6209768132964 L 50.400000000000006,285.15318447773916 L 65.6,287.7589417663085 L 80.80000000000001,287.3448240222985 L 96,284.24352696525784 L 111.2,280.9465841526129 L 126.4,280.1027078823268 L 141.60000000000002,282.3898551533785 L 156.79999999999998,285.9705676147002 L 172,287.9681568701823 L 187.2,286.77779095034646 L 202.4,283.3557912202017 L 217.6,280.4513387495858 L 232.8,280.3978252334544 L 248,283.23824259382116 L 263.20000000000005,286.690643941921 L 278.40000000000003,287.9814240234728 L 293.59999999999997,286.0735903062253 L 308.8,282.49986656383965 L 324,280.1313265649221 L 339.2,280.8708183052853 L 354.4,284.12424568492116 L 369.6,287.27785602425007 L 384.8,287.79808809293235 L 400,285.2669955823974 L 415.2,281.71801863428897 L 430.40000000000003,280.0023498296823 L 445.6,281.49833065650506 L 460.79999999999995,285.00411351269224 L 476,287.70320727514746 L 491.2,287.4272022236439 L 506.40000000000003,284.39783650038225 L 521.6,281.0488551540957 L 536.8000000000001,280.07077742689444 L 552,282.2493756695957 L 567.1999999999999,285.8343981230146 L 582.4,287.9456938107905 L 597.6,286.8870807938857 L 612.8000000000001,283.50903221545127 L 628,280.52541947735057 L 643.1999999999999,280.33323039552545 L 658.4,283.08686667285406 L 673.6,286.57409998559837 L 688.8,287.9933416237854 L 704,286.2043950494499 L 719.2,282.6444719647991 L 734.4,280.17355890583025 L 749.6,280.7767487838875 L 764.8,283.9694482836457 L 780,287.18669255455404"
      stroke="url(#thread-22)"
      stroke-width="7.396"
      stroke-linecap="round"
      fill="none"
      opacity="0.5875"
      class="thread"
      style="animation-delay: 2.2s"
    >
      <title>2026-01-01: 3698 stars, Rust, Python, JavaScript, TypeScript, Jupyter Notebook, Go, Shell</title>
    </path>

    <path
      d="M 20,292.49819130124627 L 35.2,295.45884372919863 L 50.400000000000006,298.85534293505634 L 65.6,299.95215148738754 L 80.80000000000001,297.86590075626816 L 96,294.2768552200431 L 111.2,292.0756289529111 L 126.4,293.03508762738744 L 141.60000000000002,296.38248408268515 L 156.79999999999998,299.42182819888393 L 172,299.70523493525565 L 187.2,297.00444875906595 L 202.4,293.4946804480825 L 217.6,292.00269426999307 L 232.8,293.73013456209173 L 248,297.2857224536372 L 263.20000000000005,299.80579062761836 L 278.40000000000003,299.26067842408384 L 293.59999999999997,296.0894187256344 L 308.8,292.8461412653018 L 324,292.1429788173137 L 339.2,294.5462577902061 L 354.4,298.120379442433 L 369.6,299.9867493826587 L 384.8,298.64219492543646 L 400,295.16961903155226 L 415.2,292.3658312291299 L 430.40000000000003,292.488999713849 L 445.6,295.4399246979572 L 460.79999999999995,298.8419338308608 L 476,299.9550519907989 L 491.2,297.8827748044255 L 506.40000000000003,294.29411246960865 L 521.6,292.07937043047457 L 536.8000000000001,293.0222999502559 L 552,296.3634664346164 L 567.1999999999999,299.4118973766727 L 582.4,299.71238921425476 L 597.6,297.0229260893496 L 612.8000000000001,293.50959920431814 L 628,292.00203889921295 L 643.1999999999999,293.7144328993377 L 658.4,297.26762060408873 L 673.6,299.7998678047588 L 688.8,299.2717048641623 L 704,296.108513743645 L 719.2,292.8579257507675 L 734.4,292.1379615561498 L 749.6,294.5284796800796 L 764.8,298.1041589573854 L 780,299.9851504868821"
      stroke="url(#thread-23)"
      stroke-width="7.406"
      stroke-linecap="round"
      fill="none"
      opacity="0.56875"
      class="thread"
      style="animation-delay: 2.3000000000000003s"
    >
      <title>2025-12-31: 3703 stars, Go, Python, TypeScript, Rust, Shell</title>
    </path>

    <path
      d="M 20,305.8537083279983 L 35.2,309.98094645695693 L 50.400000000000006,311.9979791365866 L 65.6,309.75616002812274 L 80.80000000000001,305.64358946738025 L 96,304.04118788638345 L 111.2,306.6559153780504 L 126.4,310.7024305304269 L 141.60000000000002,311.8701785098127 L 156.79999999999998,308.9152144630348 L 172,304.9853171764319 L 187.2,304.26681417055306 L 202.4,307.52509158344344 L 217.6,311.28926572313856 L 232.8,311.54954583839816 L 248,308.02866824264265 L 263.20000000000005,304.47725176905186 L 278.40000000000003,304.67844682489147 L 293.59999999999997,308.41793014982306 L 308.8,311.7122129109038 L 324,311.0520566783672 L 339.2,307.1406936240949 L 354.4,304.1447076567246 L 369.6,305.2555762098109 L 384.8,309.28994530325076 L 400,311.95019870633644 L 415.2,310.40249847858615 L 430.40000000000003,306.29553403462626 L 445.6,304.0042538842503 L 460.79999999999995,305.9694467940008 L 476,310.09768879849275 L 491.2,311.99136544255805 L 506.40000000000003,309.6332355435591 L 521.6,305.5352996382178 L 536.8000000000001,304.06288857537305 L 552,306.7844899017505 L 567.1999999999999,310.80091473233347 L 582.4,311.8336619826776 L 597.6,308.7825964786079 L 612.8000000000001,304.89786919232074 L 628,304.3176902505416 L 643.1999999999999,307.660095925896 L 658.4,311.3645847998671 L 673.6,311.4849459178988 L 688.8,307.89296446314654 L 704,304.4150027348471 L 719.2,304.75596338993023 L 734.4,308.55263770569854 L 749.6,311.7606140816643 L 764.8,310.9625920622257 L 780,307.00866550438224"
      stroke="url(#thread-24)"
      stroke-width="8"
      stroke-linecap="round"
      fill="none"
      opacity="0.55"
      class="thread"
      style="animation-delay: 2.4000000000000004s"
    >
      <title>2025-12-30: 4315 stars, Go, Shell, Rust, Python, Swift, TypeScript</title>
    </path>

    <path
      d="M 20,319.7347124105952 L 35.2,322.7483725604186 L 50.400000000000006,323.9997780054228 L 65.6,322.6865283851708 L 80.80000000000001,319.65067850519404 L 96,316.83881334132957 L 111.2,316.0538990145835 L 126.4,317.7992220826478 L 141.60000000000002,320.95568252523367 L 156.79999999999998,323.49935995191356 L 172,323.79925004498085 L 187.2,321.663063471087 L 202.4,318.46052167718267 L 217.6,316.24509238630037 L 232.8,316.43730742417523 L 248,318.9139186330755 L 263.20000000000005,322.0869245106766 L 278.40000000000003,323.92179574434056 L 293.59999999999997,323.2420140880224 L 308.8,320.4834550992609 L 324,317.4149050141279 L 339.2,316.00391615881733 L 354.4,317.155213673046 L 369.6,320.1305863367211 L 384.8,323.0222271259094 L 400,323.97601784034117 L 415.2,322.3803884919707 L 430.40000000000003,319.25845558501936 L 445.6,316.6120004764394 L 460.79999999999995,316.1379284669726 L 476,318.14021422189467 L 491.2,321.3349934126131 L 506.40000000000003,323.67377569222793 L 521.6,323.65693537856055 L 536.8000000000001,321.295270469822 L 552,318.1030789751575 L 567.1999999999999,316.12719201243385 L 582.4,316.6345470217922 L 597.6,319.29982829999346 L 612.8000000000001,322.4140592185339 L 628,323.98039693043944 L 643.1999999999999,322.9945067098094 L 658.4,320.08854072726353 L 673.6,317.1258024877699 L 688.8,316.00599783066355 L 704,317.44714477645755 L 719.2,320.52518083735924 L 734.4,323.2664712856588 L 749.6,323.9133024622385 L 764.8,322.05092663581644 L 780,318.8734979794912"
      stroke="url(#thread-25)"
      stroke-width="6.556"
      stroke-linecap="round"
      fill="none"
      opacity="0.53125"
      class="thread"
      style="animation-delay: 2.5s"
    >
      <title>2025-12-29: 3278 stars, Shell, Go, JavaScript, TypeScript, Rust, Python</title>
    </path>

    <path
      d="M 20,333.68066814730656 L 35.2,335.932932245545 L 50.400000000000006,334.8705060177449 L 65.6,331.388806348702 L 80.80000000000001,328.4222230246174 L 96,328.47100380767125 L 111.2,331.4940360674927 L 126.4,334.9434966631457 L 141.60000000000002,335.9121670226823 L 156.79999999999998,333.58364806536224 L 172,329.9204244667273 L 187.2,328.0098750745229 L 202.4,329.46221821756257 L 217.6,333.05341354483977 L 232.8,335.75678791096175 L 248,335.29392706935823 L 263.20000000000005,332.054931906131 L 278.40000000000003,328.76963992249716 L 293.59999999999997,328.20690775683346 L 308.8,330.8410082288125 L 324,334.45191139457427 L 339.2,335.99633426713876 L 354.4,334.17263134757803 L 369.6,330.5178264256824 L 384.8,328.1122030562698 L 400,328.983229808044 L 415.2,332.396802006027 L 430.40000000000003,335.47594795697245 L 445.6,335.6255516866297 L 460.79999999999995,332.7195265999409 L 476,329.2070817451889 L 491.2,328.0485190685815 L 506.40000000000003,330.2202796213497 L 521.6,333.8919953103519 L 536.8000000000001,335.96913012162923 L 552,334.70106689857596 L 567.1999999999999,331.1565341714182 L 582.4,328.32287766784935 L 597.6,328.5883139177462 L 612.8000000000001,331.729132235345 L 628,335.09823894010196 L 643.1999999999999,335.85613802638426 L 658.4,333.3640692480018 L 673.6,329.7223576946847 L 688.8,328.00025178017734 L 704,329.64914895016346 L 719.2,333.2793523686051 L 734.4,335.8313127218088 L 749.6,335.1542280719125 L 764.8,331.8187479492921 L 780,328.6360277476535"
      stroke="url(#thread-26)"
      stroke-width="7.59"
      stroke-linecap="round"
      fill="none"
      opacity="0.5125"
      class="thread"
      style="animation-delay: 2.6s"
    >
      <title>2025-12-28: 3795 stars, Shell, Rust, Python, JavaScript, TypeScript</title>
    </path>

    <path
      d="M 20,347.21513770620646 L 35.2,347.0178018973415 L 50.400000000000006,342.08816168789235 L 65.6,340.15653167439496 L 80.80000000000001,344.25195800504974 L 96,347.9522815368397 L 111.2,345.4549155100106 L 126.4,340.6760534457622 L 141.60000000000002,341.1095702721836 L 156.79999999999998,346.0756554333836 L 172,347.78684392620033 L 187.2,343.55977047012306 L 202.4,340.0230339587402 L 217.6,342.7226955073516 L 232.8,347.42533600457153 L 248,346.75660581566626 L 263.20000000000005,341.7651605261955 L 278.40000000000003,340.2782331064368 L 293.59999999999997,344.6275184161728 L 308.8,347.99277353992534 L 324,345.09684239755154 L 339.2,340.48092025469055 L 354.4,341.3833711300867 L 369.6,346.3890351178792 L 384.8,347.64838248646305 L 400,343.18659338452085 L 415.2,340.0003312511604 L 430.40000000000003,343.0860679649366 L 445.6,347.60496853057975 L 460.79999999999995,346.47081133379703 L 476,341.46210181525936 L 491.2,340.4331454933987 L 506.40000000000003,344.9974792058184 L 521.6,347.9976362771724 L 536.8000000000001,344.72898168031725 L 552,340.31718935240383 L 567.1999999999999,341.6805213126322 L 582.4,346.68109639639414 L 597.6,347.4773649329889 L 612.8000000000001,342.82067468215723 L 628,340.0133193383863 L 643.1999999999999,343.45759583807666 L 658.4,347.7524323445807 L 673.6,346.1629687209811 L 688.8,341.18168988060336 L 704,340.61988648425023 L 719.2,345.35853905193767 L 734.4,347.9668263562479 L 749.6,344.3546159404916 L 764.8,340.18632178140416 L 780,341.99836921868575"
      stroke="url(#thread-27)"
      stroke-width="8"
      stroke-linecap="round"
      fill="none"
      opacity="0.49375"
      class="thread"
      style="animation-delay: 2.7s"
    >
      <title>2025-12-27: 5384 stars, Shell, Python, Rust, C, Go</title>
    </path>

    <path
      d="M 20,359.9624294227795 L 35.2,358.73288541840316 L 50.400000000000006,355.19108550782653 L 65.6,352.3336967692456 L 80.80000000000001,352.57831561654666 L 96,355.71797348433336 L 111.2,359.09625001946847 L 126.4,359.8548329712656 L 141.60000000000002,357.35189597597594 L 156.79999999999998,353.7051388139245 L 172,352.0000314172384 L 187.2,353.67924116675385 L 202.4,357.3220123165769 L 217.6,359.8462474434515 L 232.8,359.1162267175414 L 248,355.74961040508657 L 263.20000000000005,352.59484520639995 L 278.40000000000003,352.3211335747629 L 293.59999999999997,355.16005907112026 L 308.8,358.70964677108964 L 324,359.9666404574288 L 339.2,357.86751545554944 L 354.4,354.1883118989908 L 369.6,352.0419521578158 L 384.8,353.244441013982 L 400,356.77836956293504 L 415.2,359.6537305748141 L 430.40000000000003,359.43772154812973 L 445.6,356.31310468153833 L 460.79999999999995,352.92357434866307 L 476,352.1369644801394 L 491.2,354.6188146196751 L 506.40000000000003,358.26926627894807 L 521.6,359.9997236637063 L 536.8000000000001,358.34607112483013 L 552,354.70744081183125 L 567.1999999999999,352.1624266441821 L 582.4,352.8643293057982 L 597.6,356.21927882907295 L 612.8000000000001,359.38869961988996 L 628,359.69098933464176 L 643.1999999999999,356.87038489829723 L 658.4,353.31336004410315 L 673.6,352.0294634608653 L 688.8,354.10498198576715 L 704,357.7838485933435 L 719.2,359.9534260013252 L 734.4,358.7780652864963 L 749.6,355.2522226146652 L 764.8,352.3590638688121 L 780,352.54644996276295"
      stroke="url(#thread-28)"
      stroke-width="7.606"
      stroke-linecap="round"
      fill="none"
      opacity="0.47500000000000003"
      class="thread"
      style="animation-delay: 2.8000000000000003s"
    >
      <title>2025-12-26: 3803 stars, Python, Shell, Go, TypeScript</title>
    </path>

    <path
      d="M 20,371.7395802220987 L 35.2,369.27933010318054 L 50.400000000000006,365.885914588317 L 65.6,364.03454935848225 L 80.80000000000001,365.07565207636026 L 96,368.249824501002 L 111.2,371.241770634857 L 126.4,371.8691134731906 L 141.60000000000002,369.6742583524585 L 156.79999999999998,366.2581703736058 L 172,364.1126029030587 L 187.2,364.8025697814225 L 202.4,367.82479729252583 L 217.6,370.97482067389313 L 232.8,371.95495865577004 L 248,370.0502817249173 L 263.20000000000005,366.6500940162946 L 278.40000000000003,364.234550965561 L 293.59999999999997,364.56559124808825 L 308.8,367.4017483842315 L 324,370.6742805454881 L 339.2,371.9961464495408 L 354.4,370.40315435519994 L 369.6,367.05726011323287 L 384.8,364.3990165702695 L 400,364.3673923178576 L 415.2,366.9854546299947 L 430.40000000000003,370.3435437964612 L 445.6,371.99221178280914 L 460.79999999999995,370.72889178439755 L 476,367.47507115120175 L 491.2,364.6041426549252 L 506.40000000000003,364.2102109526056 L 521.6,366.58061660791486 L 536.8000000000001,369.9863449385685 L 552,371.9431990838378 L 567.1999999999999,371.02381595054 L 582.4,367.89880941970273 L 597.6,364.8476130397361 L 612.8000000000001,364.0958219646508 L 628,366.1918055437696 L 643.1999999999999,369.6067172802886 L 658.4,371.8496617791843 L 673.6,371.28459671940766 L 688.8,368.32369028095405 L 704,365.126678580505 L 719.2,364.0255169764739 L 734.4,365.82341169504974 L 749.6,369.2089473847475 L 764.8,371.71265604468925 L 780,371.50828948671955"
      stroke="url(#thread-29)"
      stroke-width="7.022"
      stroke-linecap="round"
      fill="none"
      opacity="0.45625000000000004"
      class="thread"
      style="animation-delay: 2.9000000000000004s"
    >
      <title>2025-12-25: 3511 stars, Python, TypeScript</title>
    </path>

    <path
      d="M 20,382.6011513606285 L 35.2,379.9285226095513 L 50.400000000000006,377.2919261264405 L 65.6,376.0204892115829 L 80.80000000000001,376.7551523824049 L 96,379.1255666366569 L 111.2,381.93678905512587 L 126.4,383.77166214424005 L 141.60000000000002,383.70521314805234 L 156.79999999999998,381.77093948472117 L 172,378.94392245645855 L 187.2,376.64928173353206 L 202.4,376.04376225159194 L 217.6,377.43261074803513 L 232.8,380.11569868047405 L 248,382.7404620737541 L 263.20000000000005,383.98373877350355 L 278.40000000000003,383.21878402980224 L 293.59999999999997,380.8312170452283 L 308.8,378.02462755404264 L 324,376.21383755776435 L 339.2,376.31167935157276 L 354.4,378.2688301816476 L 369.6,381.0986762010485 L 384.8,383.3746716246745 L 400,383.9494707467086 L 415.2,382.5333131847146 L 430.40000000000003,379.84009417795676 L 445.6,377.2274848492114 L 460.79999999999995,376.01252040127247 L 476,376.8076731737557 L 491.2,379.21210092000854 L 506.40000000000003,382.01371427422066 L 521.6,383.80019974140544 L 536.8000000000001,383.67097711476555 L 552,381.69118845224665 L 567.1999999999999,378.8588594953711 L 582.4,376.601787695926 L 597.6,376.0577792243157 L 612.8000000000001,377.50107267405883 L 628,380.2040934091932 L 643.1999999999999,382.8042291849851 L 658.4,383.99073280663436 L 673.6,383.165479242296 L 688.8,380.74448476486083 L 704,377.9481901487952 L 719.2,376.1862276748313 L 734.4,376.34681533204224 L 749.6,378.34899972439075 L 764.8,381.18346526144603 L 780,383.42133742594507"
      stroke="url(#thread-30)"
      stroke-width="5.776"
      stroke-linecap="round"
      fill="none"
      opacity="0.4375"
      class="thread"
      style="animation-delay: 3s"
    >
      <title>2025-12-24: 2888 stars, Python, TypeScript</title>
    </path>

    <path
      d="M 20,392.82586992775117 L 35.2,390.01987673277534 L 50.400000000000006,388.21207795596706 L 65.6,388.3137979972004 L 80.80000000000001,390.27375905016123 L 96,393.1039306142871 L 111.2,395.37760279503357 L 126.4,395.9486010500728 L 141.60000000000002,394.5290810414296 L 156.79999999999998,391.83463304197153 L 172,389.22354771855777 L 187.2,388.01209201190454 L 202.4,388.81096947984304 L 217.6,391.2174602298821 L 232.8,394.0184349211258 L 248,395.80190201319556 L 263.20000000000005,395.6688028839558 L 278.40000000000003,393.68623376426706 L 293.59999999999997,390.85362204416174 L 308.8,388.59890771841003 L 324,388.05870853792715 L 339.2,389.5053428051047 L 354.4,392.2095517538203 L 369.6,394.80812415230537 L 384.8,395.99110091553416 L 400,395.16213492642436 L 415.2,392.73911391796537 L 430.40000000000003,389.94350025352645 L 445.6,388.18458294121416 L 460.79999999999995,388.3490448821538 L 476,390.35397962594186 L 491.2,393.18868511015353 L 506.40000000000003,395.42416585843387 L 521.6,395.93349990496904 L 536.8000000000001,394.4599282839667 L 552,391.74628907586424 L 567.1999999999999,389.16054737419097 L 582.4,388.0061942171846 L 597.6,388.8651473556188 L 612.8000000000001,391.3044023182848 L 628,394.0943130884308 L 643.1999999999999,395.8284655280881 L 658.4,395.63266088702244 L 673.6,393.60560569679086 L 688.8,390.7691530963864 L 704,388.55317929603564 L 719.2,388.07477266843165 L 734.4,389.5751014444583 L 749.6,392.29783906887803 L 764.8,394.870433870885 L 780,395.9960222591688"
      stroke="url(#thread-31)"
      stroke-width="5.776"
      stroke-linecap="round"
      fill="none"
      opacity="0.41875"
      class="thread"
      style="animation-delay: 3.1s"
    >
      <title>2025-12-23: 2888 stars, Python, TypeScript</title>
    </path>
  </g>

  <!-- Date markers -->
  <g id="dates">
    <text x="785" y="24" class="date-label">01-23</text>
<text x="785" y="108" class="date-label">01-16</text>
<text x="785" y="192" class="date-label">01-09</text>
<text x="785" y="276" class="date-label">01-02</text>
<text x="785" y="360" class="date-label">12-26</text>
  </g>

</svg>