<?xml version="1.0" encoding="UTF-8"?>
<svg xmlns="http://www.w3.org/2000/svg" viewBox="0 0 800 244" width="800" height="244">
  <title>The Data Tapestry - GitHub Trends Woven in Time</title>
  <desc>A living data art piece that weaves daily GitHub trending repositories into an evolving tapestry. Each thread represents one day of open source activity.</desc>

  <style>
    .thread {
      animation: breathe 8s ease-in-out infinite alternate;
    }

    @keyframes breathe {
      0% {
        opacity: 0.85;
      }
      100% {
        opacity: 1;
      }
    }

    .date-label {
      font-family: ui-monospace, monospace;
      font-size: 8px;
      fill: #666;
    }

    .title {
      font-family: system-ui, sans-serif;
      font-size: 14px;
      fill: #333;
      font-weight: 600;
    }

    .subtitle {
      font-family: system-ui, sans-serif;
      font-size: 10px;
      fill: #888;
    }

    .empty-state {
      font-family: system-ui, sans-serif;
      font-size: 12px;
      fill: #999;
      text-anchor: middle;
    }
  </style>

  <defs>
    
    <linearGradient id="thread-0" x1="0%" y1="0%" x2="100%" y2="0%">
      <stop offset="0%" stop-color="#3572A5" />
      <stop offset="50%" stop-color="#3178c6" />
      <stop offset="100%" stop-color="#8b8b8b" />
    </linearGradient>

    <linearGradient id="thread-1" x1="0%" y1="0%" x2="100%" y2="0%">
      <stop offset="0%" stop-color="#3178c6" />
      <stop offset="50%" stop-color="#3572A5" />
      <stop offset="100%" stop-color="#dea584" />
    </linearGradient>

    <linearGradient id="thread-2" x1="0%" y1="0%" x2="100%" y2="0%">
      <stop offset="0%" stop-color="#3572A5" />
      <stop offset="50%" stop-color="#3178c6" />
      <stop offset="100%" stop-color="#00ADD8" />
    </linearGradient>

    <linearGradient id="thread-3" x1="0%" y1="0%" x2="100%" y2="0%">
      <stop offset="0%" stop-color="#3572A5" />
      <stop offset="50%" stop-color="#00ADD8" />
      <stop offset="100%" stop-color="#3178c6" />
    </linearGradient>

    <linearGradient id="thread-4" x1="0%" y1="0%" x2="100%" y2="0%">
      <stop offset="0%" stop-color="#3572A5" />
      <stop offset="50%" stop-color="#3178c6" />
      <stop offset="100%" stop-color="#00ADD8" />
    </linearGradient>

    <linearGradient id="thread-5" x1="0%" y1="0%" x2="100%" y2="0%">
      <stop offset="0%" stop-color="#3572A5" />
      <stop offset="50%" stop-color="#00ADD8" />
      <stop offset="100%" stop-color="#DA5B0B" />
    </linearGradient>

    <linearGradient id="thread-6" x1="0%" y1="0%" x2="100%" y2="0%">
      <stop offset="0%" stop-color="#3572A5" />
      <stop offset="50%" stop-color="#3178c6" />
      <stop offset="100%" stop-color="#dea584" />
    </linearGradient>

    <linearGradient id="thread-7" x1="0%" y1="0%" x2="100%" y2="0%">
      <stop offset="0%" stop-color="#dea584" />
      <stop offset="50%" stop-color="#3572A5" />
      <stop offset="100%" stop-color="#3178c6" />
    </linearGradient>

    <linearGradient id="thread-8" x1="0%" y1="0%" x2="100%" y2="0%">
      <stop offset="0%" stop-color="#3572A5" />
      <stop offset="50%" stop-color="#3178c6" />
      <stop offset="100%" stop-color="#dea584" />
    </linearGradient>

    <linearGradient id="thread-9" x1="0%" y1="0%" x2="100%" y2="0%">
      <stop offset="0%" stop-color="#3572A5" />
      <stop offset="50%" stop-color="#dea584" />
      <stop offset="100%" stop-color="#3178c6" />
    </linearGradient>

    <linearGradient id="thread-10" x1="0%" y1="0%" x2="100%" y2="0%">
      <stop offset="0%" stop-color="#3572A5" />
      <stop offset="50%" stop-color="#3178c6" />
      <stop offset="100%" stop-color="#89e051" />
    </linearGradient>

    <linearGradient id="thread-11" x1="0%" y1="0%" x2="100%" y2="0%">
      <stop offset="0%" stop-color="#3572A5" />
      <stop offset="50%" stop-color="#f1e05a" />
      <stop offset="100%" stop-color="#89e051" />
    </linearGradient>

    <linearGradient id="thread-12" x1="0%" y1="0%" x2="100%" y2="0%">
      <stop offset="0%" stop-color="#3572A5" />
      <stop offset="50%" stop-color="#89e051" />
      <stop offset="100%" stop-color="#dea584" />
    </linearGradient>

    <linearGradient id="thread-13" x1="0%" y1="0%" x2="100%" y2="0%">
      <stop offset="0%" stop-color="#3572A5" />
      <stop offset="50%" stop-color="#89e051" />
      <stop offset="100%" stop-color="#00ADD8" />
    </linearGradient>

    <linearGradient id="thread-14" x1="0%" y1="0%" x2="100%" y2="0%">
      <stop offset="0%" stop-color="#3572A5" />
      <stop offset="50%" stop-color="#3178c6" />
      <stop offset="100%" stop-color="#3572A5" />
    </linearGradient>

    <linearGradient id="thread-15" x1="0%" y1="0%" x2="100%" y2="0%">
      <stop offset="0%" stop-color="#3572A5" />
      <stop offset="50%" stop-color="#3178c6" />
      <stop offset="100%" stop-color="#3572A5" />
    </linearGradient>

    <linearGradient id="thread-16" x1="0%" y1="0%" x2="100%" y2="0%">
      <stop offset="0%" stop-color="#3572A5" />
      <stop offset="50%" stop-color="#3178c6" />
      <stop offset="100%" stop-color="#3572A5" />
    </linearGradient>

    <!-- Background pattern -->
    <pattern id="loom" patternUnits="userSpaceOnUse" width="20" height="20">
      <rect width="20" height="20" fill="#fafafa"/>
      <circle cx="10" cy="10" r="0.5" fill="#eee"/>
    </pattern>
  </defs>

  <!-- Background -->
  <rect width="100%" height="100%" fill="url(#loom)"/>

  <!-- Threads -->
  <g id="tapestry">
    
    <path
      d="M 20,20 L 35.2,23.247845169984817 L 50.400000000000006,23.791607728884728 L 65.6,21.178563238457148 L 80.80000000000001,17.58427358627489 L 96,16.0012632428668 L 111.2,17.747510904488692 L 126.4,21.369130166678286 L 141.60000000000002,23.850842542221603 L 156.79999999999998,23.126430299301006 L 172,19.79902272728092 L 187.2,16.638944298104633 L 202.4,16.277205014641225 L 217.6,19.014980842789438 L 232.8,22.572861397361862 L 248,23.988635601042457 L 263.20000000000005,22.083561794353294 L 278.40000000000003,18.44376144672562 L 293.59999999999997,16.099650206909963 L 308.8,17.002882205655347 L 324,20.40144685940486 L 339.2,23.46577591540374 L 354.4,23.644578138606 L 369.6,20.788986832085044 L 384.8,17.276502890184535 L 400,16.03154119474209 L 415.2,18.090628764725334 L 430.40000000000003,21.73941574622212 L 445.6,23.940004421877706 L 460.79999999999995,22.86023430972602 L 476,19.39909764351697 L 491.2,16.438258721837823 L 506.40000000000003,16.442845228830414 L 521.6,19.409038542252873 L 536.8000000000001,22.86725303220293 L 552,23.938257338116824 L 567.1999999999999,21.730357438745273 L 582.4,18.08180097596545 L 597.6,16.03029374244926 L 612.8000000000001,17.283874374992905 L 628,20.798839922057628 L 643.1999999999999,23.648709373335684 L 658.4,23.460745722062995 L 673.6,20.391443263478614 L 688.8,16.996233975412043 L 704,16.101892508853688 L 719.2,18.45302739084858 L 734.4,22.092136764635654 L 749.6,23.98938027069448 L 764.8,22.565155771232416 L 780,19.00524045134058"
      stroke="url(#thread-0)"
      stroke-width="7.54"
      stroke-linecap="round"
      fill="none"
      opacity="1"
      class="thread"
      style="animation-delay: 0s"
    >
      <title>2026-01-08: 3770 stars, TypeScript, Unknown, Python, Rust, JavaScript</title>
    </path>

    <path
      d="M 20,33.917702154416816 L 35.2,35.938860580022265 L 50.400000000000006,35.00546705325807 L 65.6,31.81766305179359 L 80.80000000000001,28.76663057990412 L 96,28.14095887892637 L 111.2,30.409966298192664 L 126.4,33.871663096168035 L 141.60000000000002,35.92941940358401 L 156.79999999999998,35.03970561535303 L 172,31.869898897196737 L 187.2,28.797681433466572 L 202.4,28.12753339581581 L 217.6,30.36213497634371 L 232.8,33.82530436348697 L 248,35.91930709411994 L 263.20000000000005,35.0734250048635 L 278.40000000000003,31.922156963477267 L 293.59999999999997,28.829279233416894 L 308.8,28.1147693183641 L 324,30.31458339691884 L 339.2,33.77863387430582 L 354.4,35.90852537878209 L 369.6,35.10661946261909 L 384.8,31.974428325114538 L 400,28.861418582945824 L 415.2,28.102668826637313 L 430.40000000000003,30.267319681584947 L 445.6,33.73165959980395 L 460.79999999999995,35.89707609905505 L 476,35.13928331910617 L 491.2,32.026704054317 L 506.40000000000003,28.894093992749028 L 521.6,28.091233987363065 L 536.8000000000001,30.22035190284256 L 552,33.6843895630462 L 567.1999999999999,35.884961210441396 L 582.4,35.17141099543619 L 597.6,32.078975222547264 L 612.8000000000001,28.927299881964732 L 628,28.08046675357754 L 643.1999999999999,30.173688082647097 L 658.4,33.63683183761285 L 673.6,35.87218278212769 L 688.8,35.202997004298616 L 704,32.13123290204682 L 719.2,28.961030579126806 L 734.4,28.070368964291916 L 749.6,30.127336191038918 L 764.8,33.5889945462205 L 780,35.8587429966311"
      stroke="url(#thread-1)"
      stroke-width="7.128"
      stroke-linecap="round"
      fill="none"
      opacity="0.9647058823529412"
      class="thread"
      style="animation-delay: 0.1s"
    >
      <title>2026-01-07: 3564 stars, TypeScript, Python, Unknown, Shell, Rust</title>
    </path>

    <path
      d="M 20,47.36588393923159 L 35.2,47.527804199490845 L 50.400000000000006,44.07351055984103 L 65.6,40.54386412472553 L 80.80000000000001,40.55696719763141 L 96,44.09938833177355 L 111.2,47.5399303800809 L 126.4,47.351828455741895 L 141.60000000000002,43.727898473396166 L 156.79999999999998,40.38288910768593 L 172,40.74563843453195 L 187.2,44.44430632796789 L 202.4,47.68753320819597 L 217.6,47.15081423831731 L 232.8,43.38431901093577 L 248,40.24893424906283 L 263.20000000000005,40.958620058274754 L 278.40000000000003,44.785905314122296 L 293.59999999999997,47.8075898165744 L 308.8,46.926263142318966 L 324,43.04533874334494 L 339.2,40.14300020424346 L 354.4,41.194321076107656 L 369.6,45.12163351369588 L 384.8,47.89920337106485 L 400,46.67985258554439 L 415.2,42.713489885090674 L 430.40000000000003,40.06587831050165 L 445.6,41.45098077926883 L 460.79999999999995,45.44898300547542 L 476,47.96168950980255 L 491.2,46.41342327801817 L 506.40000000000003,42.391251378341835 L 521.6,40.018144675634055 L 536.8000000000001,41.72668189564659 L 552,45.765508457982655 L 567.1999999999999,47.99458145545667 L 582.4,46.128965471715034 L 597.6,42.08103037503809 L 612.8000000000001,40.000155874380624 L 628,42.01936491198246 L 643.1999999999999,46.068845396330204 L 658.4,47.99763350210097 L 673.6,45.82860409319046 L 688.8,41.78514425523846 L 704,40.0120462847779 L 719.2,42.326843458628815 L 734.4,46.35672786507143 L 749.6,47.97082285066007 L 764.8,45.51458287017946 L 780,41.50580331607465"
      stroke="url(#thread-2)"
      stroke-width="8"
      stroke-linecap="round"
      fill="none"
      opacity="0.9294117647058824"
      class="thread"
      style="animation-delay: 0.2s"
    >
      <title>2026-01-06: 4224 stars, TypeScript, Python, Rust, JavaScript, Go</title>
    </path>

    <path
      d="M 20,59.98997994641622 L 35.2,58.56337318366345 L 50.400000000000006,55.008833571121905 L 65.6,52.27709089546774 L 80.80000000000001,52.635846564260646 L 96,55.78728675252282 L 111.2,59.11530657802886 L 126.4,59.85721711332355 L 141.60000000000002,57.397136203705685 L 156.79999999999998,53.77725068879597 L 172,52.00253594585974 L 187.2,53.54623583363992 L 202.4,57.126878843283436 L 217.6,59.77206597641357 L 232.8,59.2859481735571 L 248,56.07206638152503 L 263.20000000000005,52.79836012788516 L 278.40000000000003,52.182431017458626 L 293.59999999999997,54.73558025116721 L 308.8,58.338362186274985 L 324,59.99999963934246 L 339.2,58.34111759647937 L 354.4,54.73880372304397 L 369.6,52.18344665046368 L 384.8,52.79632481464399 L 400,56.068669696514384 L 415.2,59.28400980673107 L 430.40000000000003,59.77319502412625 L 445.6,57.130138049214885 L 460.79999999999995,53.54891963333705 L 476,52.002416436817285 L 491.2,53.77442707904923 L 506.40000000000003,57.39395245626926 L 521.6,59.85631615229392 L 536.8000000000001,59.11743631813943 L 552,55.79067923272462 L 567.1999999999999,52.63768558513731 L 582.4,52.275849830713035 L 597.6,55.00554266575712 L 612.8000000000001,58.56076431679068 L 628,59.99021881655905 L 643.1999999999999,58.107273174313576 L 658.4,54.475016959702664 L 673.6,52.10869483830161 L 688.8,52.97266167166627 L 704,56.34971271662415 L 719.2,59.43645676202532 L 734.4,59.670495131407186 L 749.6,56.85754556517031 L 764.8,53.33272174279854 L 780,52.022085483594914"
      stroke="url(#thread-3)"
      stroke-width="7.528"
      stroke-linecap="round"
      fill="none"
      opacity="0.8941176470588235"
      class="thread"
      style="animation-delay: 0.30000000000000004s"
    >
      <title>2026-01-05: 3764 stars, Go, TypeScript, Python, Rust, JavaScript</title>
    </path>

    <path
      d="M 20,71.63718970730272 L 35.2,68.63591615608587 L 50.400000000000006,65.069203122027 L 65.6,64.1084755707025 L 80.80000000000001,66.60798651105719 L 96,70.34523827583375 L 111.2,71.997167462881 L 126.4,70.09492322405428 L 141.60000000000002,66.32992979562685 L 156.79999999999998,64.04991771833068 L 172,65.28221219458723 L 187.2,68.93109023529625 L 202.4,71.75206796857219 L 217.6,71.2368081311659 L 232.8,67.84346586382037 L 248,64.58930952556543 L 263.20000000000005,64.36784710386199 L 278.40000000000003,67.37599700689722 L 293.59999999999997,70.93899352978188 L 308.8,71.88871632836845 L 324,69.38069752283229 L 339.2,65.64499974452586 L 354.4,64.00330463277264 L 369.6,65.91536317217987 L 384.8,69.68102451528254 L 400,71.95196422964626 L 415.2,70.70892401310925 L 430.40000000000003,67.05718167700547 L 445.6,64.24376794737918 L 460.79999999999995,64.77029437958403 L 476,68.1685878808635 L 491.2,71.41697758860573 L 506.40000000000003,71.62708304756244 L 521.6,68.61208415430046 L 536.8000000000001,65.05283655096689 L 552,64.1141271436264 L 567.1999999999999,66.63063100185511 L 582.4,70.3647408144549 L 597.6,71.99618691834996 L 612.8000000000001,70.07433147010356 L 628,66.30803646410533 L 643.1999999999999,64.04618976873412 L 658.4,65.29996441908088 L 673.6,68.95453783498651 L 688.8,71.76036197065683 L 704,71.22257373284339 L 719.2,67.81935990789775 L 734.4,64.57676637743799 L 749.6,64.37801979230954 L 764.8,67.39984025190942 L 780,70.95530656141456"
      stroke="url(#thread-4)"
      stroke-width="7.814"
      stroke-linecap="round"
      fill="none"
      opacity="0.8588235294117647"
      class="thread"
      style="animation-delay: 0.4s"
    >
      <title>2026-01-04: 3907 stars, Python, Jupyter Notebook, TypeScript, Go, Rust</title>
    </path>

    <path
      d="M 20,82.39388857641583 L 35.2,78.68087829647635 L 50.400000000000006,76.13143527252488 L 65.6,76.99436521805468 L 80.80000000000001,80.50849725235939 L 96,83.57409542430342 L 111.2,83.48706530244618 L 126.4,80.32417417809006 L 141.60000000000002,76.87533638341927 L 156.79999999999998,76.18269330567149 L 172,78.85720965204641 L 187.2,82.539755375685 L 202.4,83.98204064005536 L 217.6,81.9118584130599 L 232.8,78.15526935826426 L 248,76.02587525076407 L 263.20000000000005,77.40196620735641 L 278.40000000000003,81.06972368948264 L 293.59999999999997,83.79390223214345 L 308.8,83.17156589452448 L 324,79.75166340723234 L 339.2,76.55081298089577 L 354.4,76.39241198472777 L 369.6,79.41618233518585 L 384.8,82.9549249709384 L 400,83.88719548899255 L 415.2,81.39065926652071 L 430.40000000000003,77.66745413060637 L 445.6,76.0017346606974 L 460.79999999999995,77.86279412038765 L 476,81.60903428340441 L 491.2,83.93598189674178 L 506.40000000000003,82.79108938874937 L 521.6,79.18424040425502 L 536.8000000000001,76.2969544076422 L 552,76.67604071556252 L 567.1999999999999,79.98711591675739 L 582.4,83.30955587477833 L 597.6,83.71271185963117 L 612.8000000000001,80.84096914541361 L 628,77.22742667285257 L 643.1999999999999,76.05950807993578 L 658.4,78.36740779735719 L 673.6,82.11537996927783 L 688.8,83.99742357702601 L 704,82.35343075453628 L 719.2,78.6335301838086 L 734.4,76.11896156249023 L 749.6,77.02776868660489 L 764.8,80.55831345952836 L 780,83.5963826266383"
      stroke="url(#thread-5)"
      stroke-width="7.78"
      stroke-linecap="round"
      fill="none"
      opacity="0.8235294117647058"
      class="thread"
      style="animation-delay: 0.5s"
    >
      <title>2026-01-03: 3890 stars, Go, Python, Jupyter Notebook, TypeScript, Rust, JavaScript</title>
    </path>

    <path
      d="M 20,92.56448003223947 L 35.2,90.01456798681917 L 50.400000000000006,88.30098269670982 L 65.6,88.14554048002842 L 80.80000000000001,89.61371851446346 L 96,92.08707377924853 L 111.2,94.52375081441498 L 126.4,95.89734419029683 L 141.60000000000002,95.62925293564881 L 156.79999999999998,93.83240556559431 L 172,91.26369101957339 L 187.2,89.00513310264799 L 202.4,88.008107838678 L 217.6,88.69259380081195 L 232.8,90.7702638542162 L 248,93.36593766391341 L 263.20000000000005,95.38623533036633 L 278.40000000000003,95.98014358244313 L 293.59999999999997,94.89748948140084 L 308.8,92.59432117466417 L 324,90.04080599313161 L 339.2,88.31256528884691 L 354.4,88.13758870387042 L 369.6,89.58958190961135 L 384.8,92.05691944701132 L 400,94.50028071319322 L 415.2,95.89044466899156 L 430.40000000000003,95.64183029083836 L 445.6,93.85916181750086 L 460.79999999999995,91.29335558869951 L 476,89.02521033430482 L 491.2,88.01014056792826 L 506.40000000000003,88.67572577780825 L 521.6,90.74160042371655 L 536.8000000000001,93.33755276935514 L 552,95.3700855870393 L 567.1999999999999,95.98303177298918 L 582.4,94.91819900861992 L 597.6,92.62412853073121 L 612.8000000000001,90.06715537698246 L 628,88.32435750667679 L 643.1999999999999,88.1298565005882 L 658.4,89.56558233377851 L 673.6,92.02676187898028 L 688.8,94.47666847438322 L 704,95.88332398115105 L 719.2,95.65420061288494 L 734.4,93.8858123785642 L 749.6,91.3230603296079 L 764.8,89.04545667874422 L 780,88.01240011530905"
      stroke="url(#thread-6)"
      stroke-width="5.26"
      stroke-linecap="round"
      fill="none"
      opacity="0.788235294117647"
      class="thread"
      style="animation-delay: 0.6000000000000001s"
    >
      <title>2026-01-02: 2630 stars, TypeScript, Rust, Python, JavaScript, Jupyter Notebook, Shell</title>
    </path>

    <path
      d="M 20,102.59686708924153 L 35.2,100.15908970457362 L 50.400000000000006,100.80703958695148 L 65.6,104.02016393353739 L 80.80000000000001,107.21708889124372 L 96,107.82945494268203 L 111.2,105.36529677833016 L 126.4,101.80428053283025 L 141.60000000000002,100.00727097051085 L 156.79999999999998,101.41795747203615 L 172,104.90301656244937 L 187.2,107.66260626799776 L 202.4,107.47971537381144 L 217.6,104.50127556422503 L 232.8,101.12011880530636 L 248,100.05261356251404 L 263.20000000000005,102.15637685422023 L 278.40000000000003,105.74127815059774 L 293.59999999999997,107.9272638109583 L 308.8,106.95814714029429 L 324,103.61250131673418 L 339.2,100.57816587559086 L 354.4,100.29287845922697 L 369.6,102.98583451661393 L 384.8,106.49355526379526 L 400,107.99799270635455 L 415.2,106.29050532938903 L 430.40000000000003,102.74286178980093 L 445.6,100.20518342911211 L 460.79999999999995,100.71620135799022 L 476,103.86537176369221 L 491.2,107.12270038912246 L 506.40000000000003,107.87130035483794 L 521.6,105.50975815501731 L 536.8000000000001,101.93529986311061 L 552,100.0195893733224 L 567.1999999999999,101.30167853519573 L 582.4,104.75155696544017 L 597.6,107.59764628252607 L 612.8000000000001,107.55344283635856 L 628,104.6544589843334 L 643.1999999999999,101.22969301874906 L 658.4,100.03054835973683 L 673.6,102.02039907407786 L 688.8,105.60063021523095 L 704,107.89494007218305 L 719.2,107.06011598436275 L 734.4,103.76684256891438 L 749.6,100.66088418747552 L 764.8,100.23751923260005 L 780,102.83687248843783"
      stroke="url(#thread-7)"
      stroke-width="7.396"
      stroke-linecap="round"
      fill="none"
      opacity="0.7529411764705882"
      class="thread"
      style="animation-delay: 0.7000000000000001s"
    >
      <title>2026-01-01: 3698 stars, Rust, Python, JavaScript, TypeScript, Jupyter Notebook, Go, Shell</title>
    </path>

    <path
      d="M 20,112.9727900187683 L 35.2,112.09491146315382 L 50.400000000000006,114.36218773259421 L 65.6,117.94855654161772 L 80.80000000000001,119.96555964972663 L 96,118.78870455239434 L 111.2,115.36582929550401 L 126.4,112.45371455846733 L 141.60000000000002,112.39777495349719 L 156.79999999999998,115.24306418855016 L 172,118.69798885111663 L 187.2,119.97995569903472 L 202.4,118.05646977623714 L 217.6,114.47670492959847 L 232.8,112.12380057420106 L 248,112.89278377958408 L 263.20000000000005,116.16431615790403 L 278.40000000000003,119.30350844918367 L 293.59999999999997,119.78205798152841 L 308.8,117.21454138835375 L 324,113.66883424411552 L 339.2,112.00064592075505 L 354.4,113.5535338062323 L 369.6,117.07680338243462 L 384.8,119.73281647470718 L 400,119.38242250714104 L 415.2,116.30782846873593 L 430.40000000000003,112.98530965612943 L 445.6,112.09081975800392 L 460.79999999999995,114.34478014061203 L 476,117.9318531218618 L 491.2,119.96301332157242 L 506.40000000000003,118.80236612626645 L 521.6,115.3846957519891 L 536.8000000000001,112.46259087033722 L 552,112.38951214708771 L 567.1999999999999,115.22431712077478 L 582.4,118.6838563936432 L 597.6,119.98182012050914 L 612.8000000000001,118.07282947326658 L 628,114.49438381678488 L 643.1999999999999,112.12856009157032 L 658.4,112.8807906160915 L 673.6,116.14522959673114 L 688.8,119.29270078967791 L 704,119.78823370301753 L 719.2,117.23272657025785 L 734.4,113.68438255714644 L 749.6,112.00103476746351 L 764.8,113.53845000982606 L 780,117.0583954190877"
      stroke="url(#thread-8)"
      stroke-width="7.406"
      stroke-linecap="round"
      fill="none"
      opacity="0.7176470588235294"
      class="thread"
      style="animation-delay: 0.8s"
    >
      <title>2025-12-31: 3703 stars, Go, Python, TypeScript, Rust, Shell</title>
    </path>

    <path
      d="M 20,124.08987952933961 L 35.2,125.42708556552675 L 50.400000000000006,129.50509160729462 L 65.6,131.9797971154724 L 80.80000000000001,130.21501925407205 L 96,126.09068963199879 L 111.2,124.00025503463296 L 126.4,126.17055327646231 L 141.60000000000002,130.2896717055857 L 156.79999999999998,131.96971476579498 L 172,129.42101469080075 L 187.2,125.35857711241599 L 202.4,124.10991824661926 L 217.6,127.00517335966352 L 232.8,130.96016867426806 L 248,131.76184096722506 L 263.20000000000005,128.55620792354924 L 278.40000000000003,124.75807376147542 L 293.59999999999997,124.4134051844161 L 308.8,127.88936078313925 L 324,131.4831749325108 L 339.2,131.36653305328196 L 354.4,127.66368803896445 L 369.6,124.31909972076275 L 384.8,124.89559457995051 L 400,128.77906081704126 L 415.2,131.8326316393894 L 430.40000000000003,130.80348728167448 L 445.6,126.78792493263134 L 460.79999999999995,124.06352691727055 L 476,125.53246129670508 L 491.2,129.62994406513644 L 506.40000000000003,131.99112707833058 L 521.6,130.1007574662228 L 536.8000000000001,125.97255359192513 L 552,124.0040892923731 L 567.1999999999999,126.2922733846305 L 582.4,130.39961518156042 L 597.6,131.95076419769197 L 612.8000000000001,129.29335719268283 L 628,125.25819997825069 L 643.1999999999999,124.14374833188002 L 658.4,127.13717312783952 L 673.6,131.04972522331096 L 688.8,131.71355408217713 L 704,128.42151526321314 L 719.2,124.68045683431275 L 734.4,124.47554550969947 L 749.6,128.0250633092177 L 764.8,131.54788239030077 L 780,131.2913157503321"
      stroke="url(#thread-9)"
      stroke-width="8"
      stroke-linecap="round"
      fill="none"
      opacity="0.6823529411764706"
      class="thread"
      style="animation-delay: 0.9s"
    >
      <title>2025-12-30: 4315 stars, Go, Shell, Rust, Python, Swift, TypeScript</title>
    </path>

    <path
      d="M 20,136.16430290134744 L 35.2,138.2265948714447 L 50.400000000000006,141.4259930608207 L 65.6,143.7110454236294 L 80.80000000000001,143.6165778655317 L 96,141.20316292356566 L 111.2,138.01828069464827 L 126.4,136.10407560018578 L 141.60000000000002,136.68793470635947 L 156.79999999999998,139.39548793262634 L 172,142.49065390477472 L 187.2,143.9888142071033 L 202.4,142.92934942455372 L 217.6,139.99158768917292 L 232.8,137.05921992204333 L 248,136.01247843529998 L 263.20000000000005,137.52253319196345 L 278.40000000000003,140.62113806056328 L 293.59999999999997,143.32146960722193 L 308.8,143.89207699401294 L 324,141.96708713427444 L 339.2,138.78080227869432 L 354.4,136.376266211986 L 369.6,136.2952659020047 L 384.8,138.58973869502293 L 400,141.78847012295557 L 415.2,143.84043566696195 L 430.40000000000003,143.4299163498808 L 445.6,140.82013689181167 L 460.79999999999995,137.68448619015436 L 476,136.03354144293752 L 491.2,136.92588735227895 L 506.40000000000003,139.7893522993412 L 521.6,142.78788441556804 L 536.8000000000001,143.99882685105717 L 552,142.64572410085304 L 567.1999999999999,139.59618477158782 L 582.4,136.8055715051118 L 597.6,136.06322371959658 L 612.8000000000001,137.84513433407966 L 628,141.00874341721692 L 643.1999999999999,143.52554687489152 L 658.4,143.781771960909 L 673.6,141.61312731614655 L 688.8,138.4101464815632 L 704,136.22657869279047 L 719.2,136.46252620105673 L 734.4,138.96669961695355 L 749.6,142.1334245688902 L 764.8,143.9321990696948 L 780,143.2096500750414"
      stroke="url(#thread-10)"
      stroke-width="6.556"
      stroke-linecap="round"
      fill="none"
      opacity="0.6470588235294118"
      class="thread"
      style="animation-delay: 1s"
    >
      <title>2025-12-29: 3278 stars, Shell, Go, JavaScript, TypeScript, Rust, Python</title>
    </path>

    <path
      d="M 20,149.17783869771844 L 35.2,152.67910343850224 L 50.400000000000006,155.6080172061584 L 65.6,155.49608028461674 L 80.80000000000001,152.43763353911365 L 96,149.01034757445208 L 111.2,148.1027520988414 L 126.4,150.47977204745453 L 141.60000000000002,154.13804592394396 L 156.79999999999998,155.99436652530363 L 172,154.48421975487636 L 187.2,150.8803630817245 L 202.4,148.22014068192865 L 217.6,148.7455981599364 L 232.8,152.0138779452748 L 248,155.27046134530173 L 263.20000000000005,155.7706874256128 L 278.40000000000003,153.0929637341342 L 293.59999999999997,149.49408603082406 L 308.8,148.00720219695347 L 324,149.88546360975675 L 339.2,153.54586437284635 L 354.4,155.90340473506188 L 369.6,154.97114066991188 L 384.8,151.53478789410275 L 400,148.49051765892736 L 415.2,148.4040525521097 L 430.40000000000003,151.34826569609757 L 445.6,154.84176300198266 L 460.79999999999995,155.94021159014932 L 476,153.7178347928273 L 491.2,150.04766026749536 L 506.40000000000003,148.02292512948168 L 521.6,149.35008389052274 L 536.8000000000001,152.91060207514593 L 552,155.70366135101833 L 567.1999999999999,155.37526068690593 L 582.4,152.20217741748849 L 597.6,148.85869824800142 L 612.8000000000001,148.16272019941775 L 628,150.70081623072724 L 643.1999999999999,154.33386930754205 L 658.4,155.99992841320196 L 673.6,154.29483256669974 L 688.8,150.65564306340133 L 704,148.14948272365743 L 719.2,148.8885530589638 L 734.4,152.24996276640587 L 749.6,155.40070289910156 L 764.8,155.68531763282766 L 780,152.86393258235958"
      stroke="url(#thread-11)"
      stroke-width="7.59"
      stroke-linecap="round"
      fill="none"
      opacity="0.611764705882353"
      class="thread"
      style="animation-delay: 1.1s"
    >
      <title>2025-12-28: 3795 stars, Shell, Rust, Python, JavaScript, TypeScript</title>
    </path>

    <path
      d="M 20,162.88233800720428 L 35.2,167.508728038058 L 50.400000000000006,166.6329778689263 L 65.6,161.6283772385575 L 80.80000000000001,160.34278839633387 L 96,164.79218122442566 L 111.2,167.99933124734451 L 126.4,164.93501166920208 L 141.60000000000002,160.40447264151246 L 156.79999999999998,161.5121863950874 L 172,166.52111423456122 L 187.2,167.57660828598563 L 202.4,163.02351711322882 L 217.6,160.00167763271634 L 232.8,163.2497256986061 L 248,167.67430108435053 L 263.20000000000005,166.3370962797316 L 278.40000000000003,161.33502168398894 L 293.59999999999997,160.51197839690522 L 308.8,165.1586049367903 L 324,167.98838881190625 L 339.2,164.563862242572 L 354.4,160.25512661557977 L 369.6,161.81883768972267 L 384.8,166.80289388605755 L 400,167.39164928977067 L 415.2,162.66185914105398 L 430.40000000000003,160.03044724604914 L 445.6,163.6238084159765 L 460.79999999999995,167.80708673391328 L 476,166.02035975754143 L 491.2,161.06544689733173 L 506.40000000000003,160.71229354086503 L 521.6,165.51468991021017 L 536.8000000000001,167.9418562374765 L 552,164.18768122636232 L 567.1999999999999,160.13919773389824 L 582.4,162.14495245029534 L 597.6,167.0596620886486 L 612.8000000000001,167.1764251224989 L 628,162.31214198543594 L 643.1999999999999,160.09463891598418 L 658.4,164.00124805550115 L 673.6,167.90590008227804 L 688.8,165.68559468097135 L 704,160.8220584123937 L 719.2,160.9419463285106 L 734.4,165.85725864261747 L 749.6,167.86014875458304 L 764.8,163.80982544842627 L 780,160.05772048061843"
      stroke="url(#thread-12)"
      stroke-width="8"
      stroke-linecap="round"
      fill="none"
      opacity="0.5764705882352941"
      class="thread"
      style="animation-delay: 1.2000000000000002s"
    >
      <title>2025-12-27: 5384 stars, Shell, Python, Rust, C, Go</title>
    </path>

    <path
      d="M 20,176.86047995235126 L 35.2,179.68706743292637 L 50.400000000000006,179.39407902827313 L 65.6,176.22940810579934 L 80.80000000000001,172.87063821232854 L 96,172.159577303455 L 111.2,174.69784401095126 L 126.4,178.33784658201378 L 141.60000000000002,179.99983004892735 L 156.79999999999998,178.2776135811676 L 172,174.62834030391528 L 187.2,172.1396089989722 L 202.4,172.91710021190715 L 217.6,176.30298956522464 L 232.8,179.43252370987145 L 248,179.65784783243828 L 263.20000000000005,176.7883183626875 L 278.40000000000003,173.25180381635224 L 293.59999999999997,172.04049939929843 L 308.8,174.17927273812992 L 324,177.85853779918622 L 339.2,179.96532017431426 L 354.4,178.7171009341932 L 369.6,175.16998081790533 L 384.8,172.32512825485404 L 400,172.5895329771694 L 415.2,175.7394858689536 L 430.40000000000003,179.1098561020959 L 445.6,179.84902083679987 L 460.79999999999995,177.3315831896233 L 476,173.687511738457 L 491.2,172.00000407323094 L 506.40000000000003,173.6968366895865 L 521.6,177.34234338191524 L 536.8000000000001,179.8521122229308 L 552,179.10266310375013 L 567.1999999999999,175.7280943808402 L 582.4,172.58358117712532 L 597.6,172.32965187716647 L 612.8000000000001,175.18115248937417 L 628,178.72546846075207 L 643.1999999999999,179.9638039094563 L 658.4,177.8484206332769 L 673.6,174.16911466291654 L 688.8,172.03889501931494 L 704,173.26011057493224 L 719.2,176.79950802825618 L 734.4,179.6624529863745 L 749.6,179.42664799621525 L 764.8,176.2916043426408 L 780,172.90983835705623"
      stroke="url(#thread-13)"
      stroke-width="7.606"
      stroke-linecap="round"
      fill="none"
      opacity="0.5411764705882354"
      class="thread"
      style="animation-delay: 1.3s"
    >
      <title>2025-12-26: 3803 stars, Python, Shell, Go, TypeScript</title>
    </path>

    <path
      d="M 20,190.62794639487515 L 35.2,191.9983837029505 L 50.400000000000006,190.45233112148964 L 65.6,187.11750601268437 L 80.80000000000001,184.42638720692432 L 96,184.3419230782608 L 111.2,186.925723215862 L 126.4,190.29311932930463 L 141.60000000000002,191.98787473683356 L 156.79999999999998,190.77380567558288 L 172,187.5364750142997 L 187.2,184.6372474553638 L 202.4,184.19086947917464 L 217.6,186.5229368642231 L 232.8,189.93239952239685 L 248,191.9323367102021 L 263.20000000000005,191.06395982172359 L 278.40000000000003,187.96067790514388 L 293.59999999999997,184.88607820132896 L 308.8,184.08282665150156 L 324,186.13682876095305 L 339.2,189.54986003940232 L 354.4,191.83239673030673 L 369.6,191.31951728634064 L 384.8,188.38532480115515 L 400,185.17006977414127 L 415.2,184.01901456009665 L 430.40000000000003,185.77175864307833 L 445.6,189.14982032229594 L 460.79999999999995,191.6891832687519 L 476,191.53759244405745 L 491.2,188.8056208047904 L 506.40000000000003,185.4860154848845 L 521.6,184.00015373875678 L 536.8000000000001,185.43184869735623 L 552,188.73679741682724 L 567.1999999999999,191.50431341936638 L 582.4,191.71572290071137 L 597.6,189.2168201465783 L 612.8000000000001,185.830347834711 L 628,184.026457154318 L 643.1999999999999,185.12093701463093 L 658.4,188.3154549683291 L 673.6,191.27987463879927 L 688.8,191.8518972974605 L 704,189.61427977194293 L 719.2,186.19917879723056 L 734.4,184.0976278019421 L 749.6,184.84253425205702 L 764.8,187.89055056219792 L 780,191.01840117601748"
      stroke="url(#thread-14)"
      stroke-width="7.022"
      stroke-linecap="round"
      fill="none"
      opacity="0.5058823529411766"
      class="thread"
      style="animation-delay: 1.4000000000000001s"
    >
      <title>2025-12-25: 3511 stars, Python, TypeScript</title>
    </path>

    <path
      d="M 20,203.75199990709896 L 35.2,203.72662423904643 L 50.400000000000006,201.82263041847963 L 65.6,198.9998354605176 L 80.80000000000001,196.68123065934302 L 96,196.03564141526184 L 111.2,197.38851392171938 L 126.4,200.05785539231152 L 141.60000000000002,202.69803154242985 L 156.79999999999998,203.97811053583519 L 172,203.25279532098503 L 187.2,200.8877225281131 L 202.4,198.07514240723222 L 217.6,196.2328968794907 L 232.8,196.28967520031213 L 248,198.21685500872786 L 263.20000000000005,201.04293106594434 L 278.40000000000003,203.34325805198387 L 293.59999999999997,203.95822454495595 L 308.8,202.5778215010776 L 324,199.8979200491963 L 339.2,197.26947783663897 L 354.4,196.01751153710399 L 369.6,196.77314639042615 L 384.8,199.15546141797557 L 400,201.96351443490056 L 415.2,203.78174566580293 L 430.40000000000003,203.69357163546883 L 445.6,201.74344150843444 L 460.79999999999995,198.91442994460945 L 476,196.63266207402154 L 491.2,196.04839353462768 L 506.40000000000003,197.45615831044157 L 521.6,200.1462920262347 L 536.8000000000001,202.76267887665492 L 552,203.9863793829913 L 567.1999999999999,203.2005172955921 L 582.4,200.80125135976152 L 597.6,197.99806883545307 L 612.8000000000001,196.20407424761447 L 628,196.32363320491476 L 643.1999999999999,198.2964751748096 L 658.4,201.12807629362263 L 673.6,203.39100601798276 L 688.8,203.944505155293 L 704,202.50955079901578 L 719.2,199.80951378796195 L 734.4,197.2055022500398 L 749.6,196.01021717968842 L 764.8,196.8262104003688 L 780,199.24213384520667"
      stroke="url(#thread-15)"
      stroke-width="5.776"
      stroke-linecap="round"
      fill="none"
      opacity="0.4705882352941177"
      class="thread"
      style="animation-delay: 1.5s"
    >
      <title>2025-12-24: 2888 stars, Python, TypeScript</title>
    </path>

    <path
      d="M 20,215.95743298649353 L 35.2,214.57363982609132 L 50.400000000000006,211.8924562702019 L 65.6,209.26548628402816 L 80.80000000000001,208.01700438133193 L 96,208.7763792923748 L 111.2,211.16080464845936 L 126.4,213.9682744329012 L 141.60000000000002,215.78352288200284 L 156.79999999999998,215.69147016236565 L 172,213.73852071377374 L 187.2,210.90917043646476 L 202.4,208.62971520837624 L 217.6,208.04924484770413 L 232.8,209.4603786491789 L 248,212.15175388744154 L 263.20000000000005,214.76662889671002 L 278.40000000000003,215.98682632830034 L 293.59999999999997,215.19723585780176 L 308.8,212.7958957353252 L 324,209.99333883326977 L 339.2,208.20235429589405 L 354.4,208.3257903437225 L 369.6,210.30142197491685 L 384.8,213.1333190374227 L 400,215.39390180051933 L 415.2,215.94359419170718 L 430.40000000000003,214.50529231262036 L 445.6,211.80405451245787 L 460.79999999999995,209.20159424557684 L 476,208.00983049949795 L 491.2,208.8295399727233 L 506.40000000000003,211.24750120867182 L 521.6,214.04480251178416 L 536.8000000000001,215.81130412312842 L 552,215.65649984174505 L 567.1999999999999,213.65842762221146 L 582.4,210.82433007898848 L 597.6,208.58289622099457 L 612.8000000000001,208.0640490195795 L 628,209.52934309051238 L 643.1999999999999,212.24011312603724 L 658.4,214.82984040321148 L 673.6,215.99302472644632 L 688.8,215.14329649038868 L 704,212.70900982643613 L 719.2,209.91730619613153 L 734.4,208.1755035311782 L 749.6,208.3616571155498 L 764.8,210.381925584965 L 780,213.21787703533494"
      stroke="url(#thread-16)"
      stroke-width="5.776"
      stroke-linecap="round"
      fill="none"
      opacity="0.43529411764705883"
      class="thread"
      style="animation-delay: 1.6s"
    >
      <title>2025-12-23: 2888 stars, Python, TypeScript</title>
    </path>
  </g>

  <!-- Date markers -->
  <g id="dates">
    <text x="785" y="24" class="date-label">01-08</text>
<text x="785" y="108" class="date-label">01-01</text>
<text x="785" y="192" class="date-label">12-25</text>
  </g>

</svg>