<?xml version="1.0" encoding="UTF-8"?>
<svg xmlns="http://www.w3.org/2000/svg" viewBox="0 0 800 448" width="800" height="448">
  <title>The Data Tapestry - GitHub Trends Woven in Time</title>
  <desc>A living data art piece that weaves daily GitHub trending repositories into an evolving tapestry. Each thread represents one day of open source activity.</desc>

  <style>
    .thread {
      animation: breathe 8s ease-in-out infinite alternate;
    }

    @keyframes breathe {
      0% {
        opacity: 0.85;
      }
      100% {
        opacity: 1;
      }
    }

    .date-label {
      font-family: ui-monospace, monospace;
      font-size: 8px;
      fill: #666;
    }

    .title {
      font-family: system-ui, sans-serif;
      font-size: 14px;
      fill: #333;
      font-weight: 600;
    }

    .subtitle {
      font-family: system-ui, sans-serif;
      font-size: 10px;
      fill: #888;
    }

    .empty-state {
      font-family: system-ui, sans-serif;
      font-size: 12px;
      fill: #999;
      text-anchor: middle;
    }
  </style>

  <defs>
    
    <linearGradient id="thread-0" x1="0%" y1="0%" x2="100%" y2="0%">
      <stop offset="0%" stop-color="#3572A5" />
      <stop offset="50%" stop-color="#3178c6" />
      <stop offset="100%" stop-color="#89e051" />
    </linearGradient>

    <linearGradient id="thread-1" x1="0%" y1="0%" x2="100%" y2="0%">
      <stop offset="0%" stop-color="#3178c6" />
      <stop offset="50%" stop-color="#3572A5" />
      <stop offset="100%" stop-color="#89e051" />
    </linearGradient>

    <linearGradient id="thread-2" x1="0%" y1="0%" x2="100%" y2="0%">
      <stop offset="0%" stop-color="#3572A5" />
      <stop offset="50%" stop-color="#3178c6" />
      <stop offset="100%" stop-color="#8b8b8b" />
    </linearGradient>

    <linearGradient id="thread-3" x1="0%" y1="0%" x2="100%" y2="0%">
      <stop offset="0%" stop-color="#3178c6" />
      <stop offset="50%" stop-color="#3572A5" />
      <stop offset="100%" stop-color="#dea584" />
    </linearGradient>

    <linearGradient id="thread-4" x1="0%" y1="0%" x2="100%" y2="0%">
      <stop offset="0%" stop-color="#3572A5" />
      <stop offset="50%" stop-color="#3178c6" />
      <stop offset="100%" stop-color="#8b8b8b" />
    </linearGradient>

    <linearGradient id="thread-5" x1="0%" y1="0%" x2="100%" y2="0%">
      <stop offset="0%" stop-color="#3572A5" />
      <stop offset="50%" stop-color="#3178c6" />
      <stop offset="100%" stop-color="#41b883" />
    </linearGradient>

    <linearGradient id="thread-6" x1="0%" y1="0%" x2="100%" y2="0%">
      <stop offset="0%" stop-color="#3178c6" />
      <stop offset="50%" stop-color="#f1e05a" />
      <stop offset="100%" stop-color="#89e051" />
    </linearGradient>

    <linearGradient id="thread-7" x1="0%" y1="0%" x2="100%" y2="0%">
      <stop offset="0%" stop-color="#3178c6" />
      <stop offset="50%" stop-color="#3572A5" />
      <stop offset="100%" stop-color="#f1e05a" />
    </linearGradient>

    <linearGradient id="thread-8" x1="0%" y1="0%" x2="100%" y2="0%">
      <stop offset="0%" stop-color="#3178c6" />
      <stop offset="50%" stop-color="#3572A5" />
      <stop offset="100%" stop-color="#f1e05a" />
    </linearGradient>

    <linearGradient id="thread-9" x1="0%" y1="0%" x2="100%" y2="0%">
      <stop offset="0%" stop-color="#3178c6" />
      <stop offset="50%" stop-color="#f1e05a" />
      <stop offset="100%" stop-color="#3572A5" />
    </linearGradient>

    <linearGradient id="thread-10" x1="0%" y1="0%" x2="100%" y2="0%">
      <stop offset="0%" stop-color="#3572A5" />
      <stop offset="50%" stop-color="#3178c6" />
      <stop offset="100%" stop-color="#89e051" />
    </linearGradient>

    <linearGradient id="thread-11" x1="0%" y1="0%" x2="100%" y2="0%">
      <stop offset="0%" stop-color="#3178c6" />
      <stop offset="50%" stop-color="#89e051" />
      <stop offset="100%" stop-color="#3572A5" />
    </linearGradient>

    <linearGradient id="thread-12" x1="0%" y1="0%" x2="100%" y2="0%">
      <stop offset="0%" stop-color="#3572A5" />
      <stop offset="50%" stop-color="#3178c6" />
      <stop offset="100%" stop-color="#89e051" />
    </linearGradient>

    <linearGradient id="thread-13" x1="0%" y1="0%" x2="100%" y2="0%">
      <stop offset="0%" stop-color="#3178c6" />
      <stop offset="50%" stop-color="#3572A5" />
      <stop offset="100%" stop-color="#8b8b8b" />
    </linearGradient>

    <linearGradient id="thread-14" x1="0%" y1="0%" x2="100%" y2="0%">
      <stop offset="0%" stop-color="#3178c6" />
      <stop offset="50%" stop-color="#89e051" />
      <stop offset="100%" stop-color="#3572A5" />
    </linearGradient>

    <linearGradient id="thread-15" x1="0%" y1="0%" x2="100%" y2="0%">
      <stop offset="0%" stop-color="#3572A5" />
      <stop offset="50%" stop-color="#3178c6" />
      <stop offset="100%" stop-color="#89e051" />
    </linearGradient>

    <linearGradient id="thread-16" x1="0%" y1="0%" x2="100%" y2="0%">
      <stop offset="0%" stop-color="#3572A5" />
      <stop offset="50%" stop-color="#3178c6" />
      <stop offset="100%" stop-color="#8b8b8b" />
    </linearGradient>

    <linearGradient id="thread-17" x1="0%" y1="0%" x2="100%" y2="0%">
      <stop offset="0%" stop-color="#3572A5" />
      <stop offset="50%" stop-color="#3178c6" />
      <stop offset="100%" stop-color="#8b8b8b" />
    </linearGradient>

    <linearGradient id="thread-18" x1="0%" y1="0%" x2="100%" y2="0%">
      <stop offset="0%" stop-color="#3178c6" />
      <stop offset="50%" stop-color="#3572A5" />
      <stop offset="100%" stop-color="#dea584" />
    </linearGradient>

    <linearGradient id="thread-19" x1="0%" y1="0%" x2="100%" y2="0%">
      <stop offset="0%" stop-color="#3572A5" />
      <stop offset="50%" stop-color="#3178c6" />
      <stop offset="100%" stop-color="#00ADD8" />
    </linearGradient>

    <linearGradient id="thread-20" x1="0%" y1="0%" x2="100%" y2="0%">
      <stop offset="0%" stop-color="#3572A5" />
      <stop offset="50%" stop-color="#00ADD8" />
      <stop offset="100%" stop-color="#3178c6" />
    </linearGradient>

    <linearGradient id="thread-21" x1="0%" y1="0%" x2="100%" y2="0%">
      <stop offset="0%" stop-color="#3572A5" />
      <stop offset="50%" stop-color="#3178c6" />
      <stop offset="100%" stop-color="#00ADD8" />
    </linearGradient>

    <linearGradient id="thread-22" x1="0%" y1="0%" x2="100%" y2="0%">
      <stop offset="0%" stop-color="#3572A5" />
      <stop offset="50%" stop-color="#00ADD8" />
      <stop offset="100%" stop-color="#DA5B0B" />
    </linearGradient>

    <linearGradient id="thread-23" x1="0%" y1="0%" x2="100%" y2="0%">
      <stop offset="0%" stop-color="#3572A5" />
      <stop offset="50%" stop-color="#3178c6" />
      <stop offset="100%" stop-color="#dea584" />
    </linearGradient>

    <linearGradient id="thread-24" x1="0%" y1="0%" x2="100%" y2="0%">
      <stop offset="0%" stop-color="#dea584" />
      <stop offset="50%" stop-color="#3572A5" />
      <stop offset="100%" stop-color="#3178c6" />
    </linearGradient>

    <linearGradient id="thread-25" x1="0%" y1="0%" x2="100%" y2="0%">
      <stop offset="0%" stop-color="#3572A5" />
      <stop offset="50%" stop-color="#3178c6" />
      <stop offset="100%" stop-color="#dea584" />
    </linearGradient>

    <linearGradient id="thread-26" x1="0%" y1="0%" x2="100%" y2="0%">
      <stop offset="0%" stop-color="#3572A5" />
      <stop offset="50%" stop-color="#dea584" />
      <stop offset="100%" stop-color="#3178c6" />
    </linearGradient>

    <linearGradient id="thread-27" x1="0%" y1="0%" x2="100%" y2="0%">
      <stop offset="0%" stop-color="#3572A5" />
      <stop offset="50%" stop-color="#3178c6" />
      <stop offset="100%" stop-color="#89e051" />
    </linearGradient>

    <linearGradient id="thread-28" x1="0%" y1="0%" x2="100%" y2="0%">
      <stop offset="0%" stop-color="#3572A5" />
      <stop offset="50%" stop-color="#f1e05a" />
      <stop offset="100%" stop-color="#89e051" />
    </linearGradient>

    <linearGradient id="thread-29" x1="0%" y1="0%" x2="100%" y2="0%">
      <stop offset="0%" stop-color="#3572A5" />
      <stop offset="50%" stop-color="#89e051" />
      <stop offset="100%" stop-color="#dea584" />
    </linearGradient>

    <linearGradient id="thread-30" x1="0%" y1="0%" x2="100%" y2="0%">
      <stop offset="0%" stop-color="#3572A5" />
      <stop offset="50%" stop-color="#89e051" />
      <stop offset="100%" stop-color="#00ADD8" />
    </linearGradient>

    <linearGradient id="thread-31" x1="0%" y1="0%" x2="100%" y2="0%">
      <stop offset="0%" stop-color="#3572A5" />
      <stop offset="50%" stop-color="#3178c6" />
      <stop offset="100%" stop-color="#3572A5" />
    </linearGradient>

    <linearGradient id="thread-32" x1="0%" y1="0%" x2="100%" y2="0%">
      <stop offset="0%" stop-color="#3572A5" />
      <stop offset="50%" stop-color="#3178c6" />
      <stop offset="100%" stop-color="#3572A5" />
    </linearGradient>

    <linearGradient id="thread-33" x1="0%" y1="0%" x2="100%" y2="0%">
      <stop offset="0%" stop-color="#3572A5" />
      <stop offset="50%" stop-color="#3178c6" />
      <stop offset="100%" stop-color="#3572A5" />
    </linearGradient>

    <!-- Background pattern -->
    <pattern id="loom" patternUnits="userSpaceOnUse" width="20" height="20">
      <rect width="20" height="20" fill="#fafafa"/>
      <circle cx="10" cy="10" r="0.5" fill="#eee"/>
    </pattern>
  </defs>

  <!-- Background -->
  <rect width="100%" height="100%" fill="url(#loom)"/>

  <!-- Threads -->
  <g id="tapestry">
    
    <path
      d="M 20,20 L 35.2,23.441431896774954 L 50.400000000000006,23.508128603410267 L 65.6,20.134686029486616 L 80.80000000000001,16.629167710070334 L 96,16.42915323036247 L 111.2,19.73078068736856 L 126.4,23.296409849320188 L 141.60000000000002,23.629515267289314 L 156.79999999999998,20.40344727632107 L 172,16.781751023162705 L 187.2,16.315932439105268 L 202.4,19.46278230629755 L 217.6,23.136438314097266 L 232.8,23.734441783136752 L 248,20.670378856822097 L 263.20000000000005,16.94892935808588 L 278.40000000000003,16.219419194984543 L 293.59999999999997,19.197220251323092 L 308.8,22.962242775077648 L 324,23.82243230063757 L 339.2,20.934270214481273 L 354.4,17.129944547443433 L 369.6,16.1400511934412 L 384.8,18.93529886804359 L 400,22.77461322325121 L 415.2,23.89308777561181 L 430.40000000000003,21.19392458044884 L 445.6,17.323975672574477 L 460.79999999999995,16.07818837484143 L 476,18.678205991314083 L 491.2,22.574400573952577 L 506.40000000000003,23.94608777971253 L 521.6,21.448164400978417 L 536.8000000000001,17.53014278648688 L 552,16.034111292117743 L 567.1999999999999,18.427107558318234 L 582.4,22.362512807890596 L 597.6,23.9811919535945 L 612.8000000000001,21.695836677729076 L 628,17.7475109044887 L 643.1999999999999,16.008019838438504 L 658.4,18.18314232094803 L 673.6,22.13991085338174 L 688.8,23.998241096963433 L 704,21.935818196707064 L 719.2,17.975094244419946 L 734.4,16.00003234067612 L 749.6,17.94741668147104 L 764.8,21.907604228461803 L 780,23.997157890562356"
      stroke="url(#thread-0)"
      stroke-width="8"
      stroke-linecap="round"
      fill="none"
      opacity="1"
      class="thread"
      style="animation-delay: 0s"
    >
      <title>2026-01-25: 4122 stars, Shell, Python, TypeScript</title>
    </path>

    <path
      d="M 20,33.917702154416816 L 35.2,35.68272037170194 L 50.400000000000006,30.810454528136894 L 65.6,28.08207972249084 L 80.80000000000001,32.41488447568692 L 96,35.99995227368801 L 111.2,32.375996091939726 L 126.4,28.074390613994623 L 141.60000000000002,30.84782260212139 L 156.79999999999998,35.69779798924572 L 172,33.88331526468293 L 187.2,28.67457581514946 L 202.4,29.45917354844257 L 217.6,34.82304562411943 L 232.8,35.09900609293121 L 248,29.789697611338237 L 263.20000000000005,28.463967390709985 L 278.40000000000003,33.511149177365304 L 293.59999999999997,35.834820804095465 L 308.8,31.247081183091773 L 324,28.01631020433926 L 339.2,31.965253707110367 L 354.4,35.97681967172846 L 369.6,32.82105302460105 L 384.8,28.185520985788777 L 400,30.424738644513592 L 415.2,35.50301439920003 L 430.40000000000003,34.26788612370375 L 445.6,28.94539771727095 L 460.79999999999995,29.128150273247815 L 476,34.48677297212129 L 491.2,35.363540698338824 L 506.40000000000003,30.178274707131333 L 521.6,28.276263220532606 L 536.8000000000001,33.08545874358758 L 552,35.93835639703407 L 567.1999999999999,31.69324293325283 L 582.4,28.000990828514503 L 597.6,31.516062971646743 L 612.8000000000001,35.9033239318897 L 628,33.25571199856739 L 643.1999999999999,28.344958585063168 L 658.4,30.02160407143686 L 673.6,35.26386802387795 L 688.8,34.62373607733518 L 704,29.254903635422895 L 719.2,28.833496603842583 L 734.4,34.11900739351151 L 749.6,35.58547883774197 L 764.8,30.589922449741866 L 780,28.135717102349215"
      stroke="url(#thread-1)"
      stroke-width="8"
      stroke-linecap="round"
      fill="none"
      opacity="0.9823529411764705"
      class="thread"
      style="animation-delay: 0.1s"
    >
      <title>2026-01-24: 5856 stars, Shell, TypeScript, Python, Rust</title>
    </path>

    <path
      d="M 20,47.36588393923159 L 35.2,47.17114337818625 L 50.400000000000006,42.7764889815091 L 65.6,40.00227246536291 L 80.80000000000001,42.52271127741944 L 96,46.999695286349926 L 111.2,47.50383409929109 L 126.4,43.36743807782561 L 141.60000000000002,40.068817348107935 L 156.79999999999998,41.97671882222721 L 172,46.564286775747874 L 187.2,47.7556716420973 L 202.4,43.97298393883738 L 217.6,40.22607674611561 L 232.8,41.47741485432606 L 248,46.069705732995885 L 263.20000000000005,47.92084469671583 L 278.40000000000003,44.579153212473194 L 293.59999999999997,40.47042179974646 L 308.8,41.036321127200225 L 324,45.52736492710629 L 339.2,47.99554179089751 L 354.4,45.17195816102303 L 369.6,40.7962140930174 L 384.8,40.663616156371646 L 400,44.949779213701426 L 415.2,47.97803924215533 L 430.40000000000003,45.737719436994034 L 445.6,41.1959357636011 L 460.79999999999995,40.36790034374439 L 476,44.35027674683916 L 491.2,47.86874093282336 L 506.40000000000003,46.26338174266827 L 521.6,41.660362982233536 L 536.8000000000001,40.15599751791496 L 552,43.74269142346501 L 567.1999999999999,47.67016899021746 L 582.4,46.73681508931878 L 597.6,42.178778798382574 L 612.8000000000001,40.03279747003019 L 628,43.14104365752846 L 643.1999999999999,47.386905586959294 L 658.4,47.147094704338066 L 673.6,42.73922044063032 L 688.8,40.00114311877738 L 704,42.55921685010209 L 719.2,47.02548720445758 L 734.4,47.48475312724552 L 749.6,43.32875536515692 L 764.8,40.06176490824527 L 780,42.01063702115906"
      stroke="url(#thread-2)"
      stroke-width="8"
      stroke-linecap="round"
      fill="none"
      opacity="0.9647058823529412"
      class="thread"
      style="animation-delay: 0.2s"
    >
      <title>2026-01-23: 4879 stars, Unknown, Rust, Python, Shell, TypeScript, JavaScript</title>
    </path>

    <path
      d="M 20,59.98997994641622 L 35.2,56.22977733590355 L 50.400000000000006,52.00389880422201 L 65.6,55.87667847183758 L 80.80000000000001,59.999386471162474 L 96,56.0167782009548 L 111.2,52.00016655894173 L 126.4,56.08977703349415 L 141.60000000000002,59.997441788257454 L 156.79999999999998,55.803731445491145 L 172,52.007786789919315 L 187.2,56.302620786630236 L 202.4,59.98415141717263 L 217.6,55.591241746749496 L 232.8,52.02673786913138 L 248,56.51460563017773 L 263.20000000000005,59.959553079134245 L 278.40000000000003,55.379912200907604 L 293.59999999999997,52.05696600891901 L 308.8,56.725129900857645 L 324,59.92371659006156 L 339.2,55.17034261135413 L 354.4,52.098385414649925 L 369.6,56.9335960808434 L 384.8,59.87674366241269 L 400,54.96312778630406 L 415.2,52.15087852822401 L 430.40000000000003,57.13941249365798 L 445.6,59.81876761650054 L 460.79999999999995,54.75885585059225 L 476,52.21429636173103 L 491.2,57.341994983492306 L 506.40000000000003,59.749953002098096 L 521.6,54.55810657643529 L 536.8000000000001,52.28845892031377 L 552,57.54076857317798 L 567.1999999999999,59.670495131407165 L 582.4,54.36144973790066 L 597.6,52.37315571303602 L 612.8000000000001,57.735169096108834 L 628,59.58061952471598 L 643.1999999999999,54.16944349375254 L 658.4,52.46814635030593 L 673.6,57.92464479747968 L 688.8,59.48058127031914 L 704,53.9826328032648 L 719.2,52.573161226158646 L 734.4,58.10865790029728 L 749.6,59.37066430051645 L 764.8,53.801547879497555 L 780,52.68790228346183"
      stroke="url(#thread-3)"
      stroke-width="8"
      stroke-linecap="round"
      fill="none"
      opacity="0.9470588235294117"
      class="thread"
      style="animation-delay: 0.30000000000000004s"
    >
      <title>2026-01-22: 6303 stars, Rust, Unknown, Shell, TypeScript, Python</title>
    </path>

    <path
      d="M 20,71.63718970730272 L 35.2,68.32861965003231 L 50.400000000000006,64.6844916859555 L 65.6,64.42587347380781 L 80.80000000000001,67.81684351869919 L 96,71.39483708904704 L 111.2,71.50631723745778 L 126.4,68.03745009779618 L 141.60000000000002,64.53034216387611 L 156.79999999999998,64.56614811447149 L 172,68.10830601595536 L 187.2,71.53987120028142 L 202.4,71.3568266976523 L 217.6,67.74608169060954 L 232.8,64.39461605529792 L 248,64.72465604388493 L 263.20000000000005,68.39919342292573 L 278.40000000000003,71.66610907455413 L 293.59999999999997,71.18951186241951 L 308.8,67.45606155527862 L 324,64.27803404748732 L 339.2,64.90055560639658 L 354.4,68.6879611668501 L 369.6,71.77288040583868 L 384.8,71.0052611508889 L 400,67.16892965946862 L 415.2,64.18121517512674 L 430.40000000000003,65.09291279913704 L 445.6,68.97307593009215 L 460.79999999999995,71.85961825281717 L 476,70.80505290940087 L 491.2,66.8862106346837 L 506.40000000000003,64.10467353332426 L 521.6,65.30070623144783 L 536.8000000000001,69.25302379184855 L 552,71.9258620492619 L 567.1999999999999,70.5899502166201 L 582.4,66.60940568068035 L 597.6,64.04881554783813 L 612.8000000000001,65.52283254832766 L 628,69.52631826686353 L 643.1999999999999,71.97126004957963 L 658.4,70.36109523873169 L 673.6,66.33998459429951 L 688.8,64.01393781701108 L 704,65.75811228909812 L 719.2,69.79150819846443 L 734.4,71.99557119653319 L 749.6,70.11970316469335 L 764.8,66.07937796504437 L 780,64.00022553687317"
      stroke="url(#thread-4)"
      stroke-width="8"
      stroke-linecap="round"
      fill="none"
      opacity="0.9294117647058824"
      class="thread"
      style="animation-delay: 0.4s"
    >
      <title>2026-01-21: 4215 stars, Unknown, TypeScript, Python, Shell, JavaScript</title>
    </path>

    <path
      d="M 20,82.39388857641583 L 35.2,76.64594719474405 L 50.400000000000006,78.04414155218146 L 65.6,83.6094825725135 L 80.80000000000001,81.484469889794 L 96,76.19664971744142 L 111.2,79.01223726125592 L 126.4,83.93234939634644 L 141.60000000000002,80.47420865603199 L 156.79999999999998,76.00572024934962 L 172,80.04743336167542 L 187.2,83.98808508326711 L 202.4,79.4317336272453 L 217.6,76.08612895174903 L 232.8,81.07940723371316 L 248,83.77290341391578 L 263.20000000000005,78.42786189306001 L 278.40000000000003,76.43241352566146 L 293.59999999999997,82.03805514905919 L 308.8,83.30142204257058 L 324,77.53078815609244 L 339.2,77.02105027504646 L 354.4,82.85825453550189 L 369.6,82.60566949520052 L 384.8,76.80145215060749 L 400,77.81205211120903 L 415.2,83.48428786326154 L 430.40000000000003,81.73290941759493 L 445.6,76.28939890343244 L 460.79999999999995,78.75168494327966 L 476,83.87362763090483 L 491.2,80.74242987606833 L 506.40000000000003,76.02941305659445 L 521.6,79.77611792577348 L 536.8000000000001,83.99982533035354 L 552,79.70151581896788 L 567.1999999999999,76.03915588783029 L 582.4,80.81575959574496 L 597.6,83.85430813871436 L 612.8000000000001,78.68087829647634 L 628,76.31796555015676 L 643.1999999999999,81.79998533841837 L 658.4,83.44696128461904 L 673.6,77.74985093952999 L 688.8,76.84690203225429 L 704,82.66193503656652 L 719.2,82.80545652794557 L 734.4,76.97168000915241 L 749.6,77.59003378542873 L 764.8,83.3430549912118 L 780,81.97337237042736"
      stroke="url(#thread-5)"
      stroke-width="8"
      stroke-linecap="round"
      fill="none"
      opacity="0.9117647058823529"
      class="thread"
      style="animation-delay: 0.5s"
    >
      <title>2026-01-20: 6510 stars, Python, Vue, TypeScript, Unknown, Shell, JavaScript</title>
    </path>

    <path
      d="M 20,92.56448003223947 L 35.2,88.62937299641415 L 50.400000000000006,88.6436509680168 L 65.6,92.59058435729335 L 80.80000000000001,95.84552631475782 L 96,94.59464073419538 L 111.2,90.30359817263457 L 126.4,88.00024037608719 L 141.60000000000002,90.3834262627156 L 156.79999999999998,94.66076183563106 L 172,95.82046591422856 L 187.2,92.50370588481532 L 202.4,88.59675048002339 L 217.6,88.67740409172397 L 232.8,92.65116437228076 L 248,95.86195123379089 L 263.20000000000005,94.54766537561846 L 278.40000000000003,90.24826386160316 L 293.59999999999997,88.00138267528777 L 308.8,90.43970673294028 L 324,94.70623629347422 L 339.2,95.80185164943018 L 354.4,92.44281334933011 L 369.6,88.56492784333251 L 384.8,88.71193813878169 L 400,92.71159134143369 L 415.2,95.87746846257801 L 430.40000000000003,94.500091228794 L 445.6,90.19334126830458 L 460.79999999999995,88.00346478592647 L 476,90.49635392529416 L 491.2,94.75107469349634 L 506.40000000000003,95.78234381983778 L 521.6,92.38181673760631 L 536.8000000000001,88.53391256574636 L 552,88.74724499251117 L 567.1999999999999,92.77185106235365 L 582.4,95.89207435404124 L 597.6,94.45192947526898 L 612.8000000000001,90.13884330142133 L 628,88.00648621863624 L 643.1999999999999,90.55335452575515 L 658.4,94.79526649714423 L 673.6,95.76194701045662 L 688.8,92.32073038592794 L 704,88.50371193691295 L 719.2,88.78331635459769 L 734.4,92.83192937195112 L 749.6,95.90576547529795 L 764.8,94.40319143469792 L 780,90.08478276983416"
      stroke="url(#thread-6)"
      stroke-width="8"
      stroke-linecap="round"
      fill="none"
      opacity="0.8941176470588235"
      class="thread"
      style="animation-delay: 0.6000000000000001s"
    >
      <title>2026-01-19: 4551 stars, JavaScript, TypeScript, Shell, Python</title>
    </path>

    <path
      d="M 20,102.59686708924153 L 35.2,100.15685186076493 L 50.400000000000006,100.81675397803531 L 65.6,104.04429054543968 L 80.80000000000001,107.23610196640503 L 96,107.81764486405983 L 111.2,105.31984158372516 L 126.4,101.75744238598146 L 141.60000000000002,100.00391003246943 L 156.79999999999998,101.47365925872472 L 172,104.98117731444418 L 187.2,107.69726905348142 L 202.4,107.43111081007024 L 217.6,104.3973881819477 L 232.8,101.04312872475055 L 248,100.07390784093272 L 263.20000000000005,102.27150768427953 L 278.40000000000003,105.8633247467832 L 293.59999999999997,107.95216755639677 L 308.8,106.85315699228867 L 324,103.45276471451722 L 339.2,100.49377726742465 L 354.4,100.36294014735172 L 369.6,103.16578773478227 L 384.8,106.6415183278359 L 400,107.98657682944192 L 415.2,106.11602713276504 L 430.40000000000003,102.5386711993046 L 445.6,100.1400360262718 L 460.79999999999995,100.85488200010418 L 476,104.10660802359257 L 491.2,107.27234307052801 L 506.40000000000003,107.79857719841127 L 521.6,105.26084529638817 L 536.8000000000001,101.70610440512664 L 552,100.00164002839355 L 567.1999999999999,101.52228823683137 L 582.4,105.04148071005947 L 597.6,107.72060561331438 L 612.8000000000001,107.39865705815915 L 628,104.33532160217788 L 643.1999999999999,101.00151277037675 L 658.4,100.08631030953893 L 673.6,102.32792463478162 L 688.8,105.91824976695882 L 704,107.96129763824588 L 719.2,106.80912773088413 L 734.4,103.39109050227995 L 749.6,100.46420507048057 L 764.8,100.38932316181446 L 780,103.22684518738909"
      stroke="url(#thread-7)"
      stroke-width="7.412"
      stroke-linecap="round"
      fill="none"
      opacity="0.8764705882352941"
      class="thread"
      style="animation-delay: 0.7000000000000001s"
    >
      <title>2026-01-18: 3706 stars, JavaScript, Shell, Vue, TypeScript, Python, HTML</title>
    </path>

    <path
      d="M 20,112.9727900187683 L 35.2,113.3755488183112 L 50.400000000000006,119.01006050211507 L 65.6,118.64412042533145 L 80.80000000000001,113.00721750569568 L 96,113.33632323418684 L 111.2,118.97537669556532 L 126.4,118.68311936808398 L 141.60000000000002,113.04215615087948 L 156.79999999999998,113.29755259804945 L 172,118.94018470361728 L 187.2,118.7216600421115 L 202.4,113.0775999869041 L 217.6,113.25924353180721 L 232.8,118.90449053695741 L 248,118.75973586478267 L 263.20000000000005,113.11354296006884 L 278.40000000000003,113.2214025785335 L 293.59999999999997,118.86830029204211 L 308.8,118.79734033286142 L 324,113.14997893142194 L 339.2,113.18403620134939 L 354.4,118.83162015005645 L 369.6,118.83446702361759 L 384.8,113.18690167780895 L 400,113.14715078231986 L 415.2,118.79445637585849 L 430.40000000000003,118.871109595924 L 445.6,113.2243048929357 L 460.79999999999995,113.11075262136359 L 476,118.75681531690911 L 491.2,118.9072617913394 L 506.40000000000003,113.26218218844554 L 521.6,113.07484793517715 L 536.8000000000001,118.71870340218815 L 552,118.94291743517743 L 567.1999999999999,113.30052709501018 L 582.4,113.03944285617297 L 597.6,118.68012714109602 L 612.8000000000001,118.97807043756134 L 628,113.33933306343481 L 643.1999999999999,113.00454343143217 L 658.4,118.64109312234228 L 673.6,119.01271479446388 L 688.8,113.37859346577662 L 704,112.97015562167168 L 719.2,118.60160801281998 L 734.4,119.04684458873301 L 749.6,113.41830159647692 L 764.8,112.93628530022602 L 780,118.5616785564672"
      stroke="url(#thread-8)"
      stroke-width="8"
      stroke-linecap="round"
      fill="none"
      opacity="0.8588235294117647"
      class="thread"
      style="animation-delay: 0.8s"
    >
      <title>2026-01-17: 6237 stars, JavaScript, TypeScript, Shell, Python</title>
    </path>

    <path
      d="M 20,124.08987952933961 L 35.2,126.65539288804351 L 50.400000000000006,131.5603361154481 L 65.6,130.27078834468023 L 80.80000000000001,125.03038382787553 L 96,124.95669954471292 L 111.2,130.17793592738676 L 126.4,131.60986589085593 L 141.60000000000002,126.76112991705797 L 156.79999999999998,124.06785604791686 L 172,128.2159672404307 L 187.2,131.98832539071253 L 202.4,128.8215505688699 L 217.6,124.22539171181587 L 232.8,126.19652771249496 L 248,131.30545533962487 L 263.20000000000005,130.66334916482668 L 278.40000000000003,125.38738486777855 L 293.59999999999997,124.65700851340083 L 308.8,129.74297365016892 L 324,131.79640639788073 L 339.2,127.24461860053263 L 354.4,124.00708966174699 L 369.6,127.716670867843 L 384.8,131.91920546422466 L 400,129.3028661731693 L 415.2,124.41972045715232 L 430.40000000000003,125.76576453669476 L 445.6,130.99906841881347 L 460.79999999999995,131.01440924327713 L 476,125.78509610339509 L 491.2,124.40940852144988 L 506.40000000000003,129.2808520728511 L 521.6,131.92379068033972 L 536.8000000000001,127.7398777603516 L 552,124.00854145663716 L 567.1999999999999,127.22178937606922 L 582.4,131.7890158380622 L 597.6,129.7638803039589 L 612.8000000000001,124.66983770309909 L 628,125.36981558280557 L 643.1999999999999,130.64594952405673 L 658.4,131.31849830454976 L 673.6,126.21732033329286 L 688.8,124.21775771237559 L 704,128.79877204933015 L 719.2,131.9900338155377 L 734.4,128.23919018739508 L 749.6,124.07218881048229 L 764.8,126.7390340893441 L 780,131.5997851482441"
      stroke="url(#thread-9)"
      stroke-width="8"
      stroke-linecap="round"
      fill="none"
      opacity="0.8411764705882354"
      class="thread"
      style="animation-delay: 0.9s"
    >
      <title>2026-01-16: 5731 stars, JavaScript, TypeScript, Shell, Python, C</title>
    </path>

    <path
      d="M 20,136.16430290134744 L 35.2,138.66054173937266 L 50.400000000000006,142.25943582566836 L 65.6,143.9983400604425 L 80.80000000000001,142.44577133065252 L 96,138.879819524222 L 111.2,136.2360113313209 L 126.4,136.6907557263935 L 141.60000000000002,139.8697026392752 L 156.79999999999998,143.155911624341 L 172,143.84414304045472 L 187.2,141.3678379993633 L 202.4,137.76551522922722 L 217.6,136.0026423561854 L 232.8,137.53043371265224 L 248,141.09119638874827 L 263.20000000000005,143.7536754375639 L 278.40000000000003,143.3260918519565 L 293.59999999999997,140.16043665591175 L 308.8,136.86270842268766 L 324,136.14762955209315 L 339.2,138.60386002164717 L 354.4,142.20940668843002 L 369.6,143.99614798279296 L 384.8,142.49322085252848 L 400,138.93784973132523 L 415.2,136.2568511849401 L 430.40000000000003,136.65724965353184 L 445.6,139.8094331695089 L 460.79999999999995,143.1184931794865 L 476,143.86037885329185 L 491.2,141.4243625886665 L 506.40000000000003,137.8157969957048 L 521.6,136.00528885385486 L 536.8000000000001,137.48326631853553 L 552,141.03304376679023 L 567.1999999999999,143.7324093995914 L 582.4,143.35921881012854 L 597.6,140.22068617160303 L 612.8000000000001,136.900482500473 L 628,136.13183219865732 L 643.1999999999999,138.54749577411295 L 658.4,142.15887515116384 L 673.6,143.99304721555342 L 688.8,142.5401034374832 L 704,138.99612146223996 L 719.2,136.27854219832028 L 734.4,136.6245036932723 L 749.6,139.74920703299642 L 764.8,143.0803656161757 L 780,143.8757368492682"
      stroke="url(#thread-10)"
      stroke-width="7.494"
      stroke-linecap="round"
      fill="none"
      opacity="0.8235294117647058"
      class="thread"
      style="animation-delay: 1s"
    >
      <title>2026-01-15: 3747 stars, TypeScript, Shell, Python, JavaScript, C</title>
    </path>

    <path
      d="M 20,149.17783869771844 L 35.2,152.8841506578598 L 50.400000000000006,155.76853854440466 L 65.6,155.1496178891448 L 80.80000000000001,151.6027496689476 L 96,148.42517327411252 L 111.2,148.57082705370885 L 126.4,151.90430835119125 L 141.60000000000002,155.3267465126412 L 156.79999999999998,155.65657481039233 L 172,152.58717828503126 L 187.2,148.971929122826 L 202.4,148.17163500067053 L 217.6,150.9302652852219 L 232.8,154.68334228156596 L 248,155.94193081113994 L 263.20000000000005,153.53602189186233 L 278.40000000000003,149.702196407382 L 293.59999999999997,148.0044549402352 L 308.8,150.02105179604987 L 324,153.8773183447701 L 339.2,155.9883923432682 L 354.4,154.39177732662122 L 369.6,150.5717184365162 L 384.8,148.07941855497546 L 400,149.2317693260302 L 415.2,152.9575225053483 L 430.40000000000003,155.79314367926673 L 445.6,155.10258288760647 L 460.79999999999995,151.5277992058959 L 476,148.3919827938416 L 491.2,148.6102510881997 L 506.40000000000003,151.9796975322188 L 521.6,155.36801755493678 L 536.8000000000001,155.6253613304628 L 552,152.5124969559365 L 567.1999999999999,148.9232051965697 L 582.4,148.19416321021953 L 597.6,151.00310295796854 L 612.8000000000001,154.73877806519377 L 628,155.9284304962952 L 643.1999999999999,153.46613564030014 L 658.4,149.64089187146087 L 673.6,148.00872203841115 L 688.8,150.08692374881082 L 704,153.94355927193232 L 719.2,155.9934233586906 L 734.4,154.3309214980937 L 749.6,150.50154855515842 L 764.8,148.065165941057 L 780,149.28668349351918"
      stroke="url(#thread-11)"
      stroke-width="8"
      stroke-linecap="round"
      fill="none"
      opacity="0.8058823529411765"
      class="thread"
      style="animation-delay: 1.1s"
    >
      <title>2026-01-14: 4003 stars, TypeScript, Shell, Python, C, HTML, Jupyter Notebook</title>
    </path>

    <path
      d="M 20,162.88233800720428 L 35.2,167.3347831177687 L 50.400000000000006,167.10040101999576 L 65.6,162.5086009600629 L 80.80000000000001,160.01286812609774 L 96,163.12079750640507 L 111.2,167.4643905035343 L 126.4,166.93900129136944 L 141.60000000000002,162.2830312494247 L 156.79999999999998,160.04015242567158 L 172,163.3625894550972 L 187.2,167.58086677734838 L 202.4,166.76646183847032 L 217.6,162.06396938161146 L 232.8,160.08244577279837 L 248,163.60679738698053 L 263.20000000000005,167.68377045809333 L 278.40000000000003,166.58343663921164 L 293.59999999999997,161.85224566888368 L 308.8,160.13958786260616 L 324,163.85249567843098 L 339.2,167.772711508979 L 354.4,166.39061941572976 L 369.6,161.64866260962367 L 384.8,160.21136210889387 L 400,164.09875305690062 L 415.2,167.84735281590255 L 430.40000000000003,166.1887410049627 L 445.6,161.4539918466182 L 460.79999999999995,160.29749646505985 L 476,164.34463613072865 L 491.2,167.90741146521543 L 506.40000000000003,165.978566588552 L 521.6,161.2689712422936 L 536.8000000000001,160.39766445524273 L 552,164.58921292698477 L 567.1999999999999,167.95265981605357 L 582.4,165.76089279256752 L 597.6,161.09430208198887 L 612.8000000000001,160.511486411766 L 628,164.8315564239348 L 643.1999999999999,167.98292636316663 L 658.4,165.53654466804818 L 673.6,160.93064641586724 L 688.8,160.6385309141959 L 704,165.07074806474 L 719.2,167.99809638697604 L 734.4,165.30637256380302 L 749.6,160.7786245495413 L 764.8,160.77831642455848 L 780,165.30588123907165"
      stroke="url(#thread-12)"
      stroke-width="8"
      stroke-linecap="round"
      fill="none"
      opacity="0.788235294117647"
      class="thread"
      style="animation-delay: 1.2000000000000002s"
    >
      <title>2026-01-13: 5049 stars, TypeScript, Shell, C, Rust, Python</title>
    </path>

    <path
      d="M 20,176.86047995235126 L 35.2,179.63106794522537 L 50.400000000000006,179.53262360301778 L 65.6,176.64293120442008 L 80.80000000000001,173.24523663055606 L 96,172.0241758464359 L 111.2,173.94455119825292 L 126.4,177.48900771965302 L 141.60000000000002,179.856947756285 L 156.79999999999998,179.17738000886322 L 172,175.9872544520626 L 187.2,172.80719959339055 L 202.4,172.14988673354827 L 217.6,174.53468149102608 L 232.8,178.07727506881184 L 248,179.97854178871904 L 263.20000000000005,178.7362250751854 L 278.40000000000003,175.3319223192008 L 293.59999999999997,172.45549083896023 L 308.8,172.37969860547028 L 324,175.16443168308203 L 339.2,178.60937617936457 L 354.4,179.9925623318428 L 369.6,178.22108693496926 L 384.8,174.69465395217847 L 400,172.19962001676586 L 415.2,172.70739771197375 L 430.40000000000003,175.81677432337185 L 445.6,179.07092387727425 L 460.79999999999995,179.89863029230352 L 476,177.64589411031235 L 491.2,174.0926800816271 L 506.40000000000003,172.04650546991357 L 521.6,173.1241235865354 L 536.8000000000001,176.4740710967116 L 552,179.44943864140362 L 567.1999999999999,179.6992854441661 L 582.4,177.02619890717506 L 597.6,173.5422771307107 L 612.8000000000001,172.00028717403856 L 628,173.6186086193642 L 643.1999999999999,177.11854973598045 L 658.4,179.73468603006654 L 673.6,179.3999177574319 L 688.8,176.37875690557902 L 704,173.05832712633787 L 719.2,172.06221479889956 L 734.4,174.17748271578276 L 749.6,177.7327845561678 L 764.8,179.91895340417443 L 780,179.0086216617585"
      stroke="url(#thread-13)"
      stroke-width="7.33"
      stroke-linecap="round"
      fill="none"
      opacity="0.7705882352941177"
      class="thread"
      style="animation-delay: 1.3s"
    >
      <title>2026-01-12: 3665 stars, TypeScript, Unknown, Python, Shell, C</title>
    </path>

    <path
      d="M 20,190.62794639487515 L 35.2,191.99873384911828 L 50.400000000000006,190.4729281659086 L 65.6,187.1557887693126 L 80.80000000000001,184.4501770586387 L 96,184.31597748968235 L 111.2,186.85040122106412 L 126.4,190.21756853067228 L 141.60000000000002,191.9783789207788 L 156.79999999999998,190.85734082710695 L 172,187.6665091078887 L 187.2,184.71725071311303 L 202.4,184.14594229329546 L 217.6,186.3664268574118 L 232.8,189.7702351767192 L 248,191.89172482765784 L 263.20000000000005,191.19413627684668 L 278.40000000000003,188.18278702859794 L 293.59999999999997,185.03903095543163 L 308.8,184.04013446490498 L 324,185.90967577668948 L 339.2,189.29340108489768 L 354.4,191.7402156488925 L 369.6,191.47770186297365 L 384.8,188.69601882736404 L 400,185.41015535990968 L 415.2,184.00031727814303 L 430.40000000000003,185.4877596759647 L 445.6,188.79501263303064 L 460.79999999999995,191.5263762651462 L 476,191.7033120020541 L 491.2,189.1976515633346 L 506.40000000000003,185.8244391868487 L 521.6,184.02715428122332 L 536.8000000000001,185.10770973191592 L 552,188.2833753995341 L 567.1999999999999,191.25377028180247 L 582.4,191.86720693060525 L 597.6,189.67932559252299 L 612.8000000000001,186.27497845041543 L 628,184.12019823899684 L 643.1999999999999,184.77585942719205 L 658.4,187.76701575203856 L 673.6,190.92694064194686 L 688.8,191.96665536106212 L 704,190.1330138801826 L 719.2,186.75426497266332 L 734.4,184.27789858606718 L 749.6,184.49773900375195 L 764.8,187.2545387565867 L 780,190.55133391881435"
      stroke="url(#thread-14)"
      stroke-width="6.996"
      stroke-linecap="round"
      fill="none"
      opacity="0.7529411764705882"
      class="thread"
      style="animation-delay: 1.4000000000000001s"
    >
      <title>2026-01-11: 3498 stars, TypeScript, Unknown, Shell, Python</title>
    </path>

    <path
      d="M 20,203.75199990709896 L 35.2,203.26329336979504 L 50.400000000000006,199.934103094155 L 65.6,196.66227177103573 L 80.80000000000001,196.29571486949072 L 96,199.15349623086834 L 111.2,202.7481038343836 L 126.4,203.95066654083953 L 141.60000000000002,201.71443205893598 L 156.79999999999998,197.98589644684148 L 172,196.0105064277928 L 187.2,197.5077099919446 L 202.4,201.17428922566535 L 217.6,203.81872638644853 L 232.8,203.13921164567665 L 248,199.72721820308954 L 263.20000000000005,196.55266349813172 L 278.40000000000003,196.37879005731182 L 293.59999999999997,199.35694335442287 L 308.8,202.8948354606455 L 324,203.91296237283697 L 339.2,201.5251111122898 L 354.4,197.80975024022186 L 369.6,196.00085872917714 L 384.8,197.67295849284415 L 400,201.37059589915484 L 415.2,203.87521909490926 L 430.40000000000003,203.00671717618135 L 445.6,199.52106433753613 L 460.79999999999995,196.4522937116671 L 476,196.4715696934603 L 491.2,199.56211379976415 L 506.40000000000003,203.0338092430959 L 521.6,203.86477189176355 L 536.8000000000001,201.3317030339343 L 552,197.63947366445888 L 567.1999999999999,196.0019282936948 L 582.4,197.84444321158782 L 597.6,201.5632295248808 L 612.8000000000001,203.9213266381741 L 628,202.86616503205983 L 643.1999999999999,199.31619396740618 L 658.4,196.3614313917401 L 673.6,196.57380513861423 L 688.8,199.76845773243997 L 704,203.16465274713084 L 719.2,203.80622424286105 L 734.4,201.13472613645905 L 749.6,197.47552304223387 L 764.8,196.01371225502928 L 780,198.02170458780256"
      stroke="url(#thread-15)"
      stroke-width="7.724"
      stroke-linecap="round"
      fill="none"
      opacity="0.7352941176470589"
      class="thread"
      style="animation-delay: 1.5s"
    >
      <title>2026-01-10: 3862 stars, TypeScript, Unknown, Shell, Python</title>
    </path>

    <path
      d="M 20,215.95743298649353 L 35.2,213.71040111304566 L 50.400000000000006,209.9396660179933 L 65.6,208.00437028393077 L 80.80000000000001,209.62856350498967 L 96,213.36534037658393 L 111.2,215.88580984839922 L 126.4,214.94462290559406 L 141.60000000000002,211.38023174861794 L 156.79999999999998,208.36795838089972 L 172,208.59127312980186 L 187.2,211.8512370448415 L 202.4,215.24372577660486 L 217.6,215.74655583233198 L 232.8,212.91178329408032 L 248,209.2647526650224 L 263.20000000000005,208.05440495460994 L 278.40000000000003,210.35897303555967 L 293.59999999999997,214.12544268648972 L 308.8,215.99847117672425 L 324,214.30947940925512 L 339.2,210.56309818543488 L 354.4,208.09677455002654 L 369.6,209.10762194041516 L 384.8,212.6951314563563 L 400,215.66338620719577 L 415.2,215.368129654569 L 430.40000000000003,212.07238978472196 L 445.6,208.7121617972335 L 460.79999999999995,208.28088984436144 L 476,211.1627706264977 L 491.2,214.79049347100013 L 506.40000000000003,215.93231762238372 L 521.6,213.5710541156161 L 536.8000000000001,209.81022403991855 L 552,208.00014613546278 L 567.1999999999999,209.75332024999696 L 582.4,213.50793902384706 L 597.6,215.91921702745665 L 612.8000000000001,214.83907797961845 L 628,211.22975894532195 L 643.1999999999999,208.30660572761286 L 658.4,208.67369636473322 L 673.6,212.00400979587167 L 688.8,215.3307511181983 L 704,215.69030762612513 L 719.2,212.76237000431186 L 734.4,209.15527845610987 L 749.6,208.0823944384881 L 764.8,210.49949190504705 L 780,214.253310331903"
      stroke="url(#thread-16)"
      stroke-width="7.822"
      stroke-linecap="round"
      fill="none"
      opacity="0.7176470588235294"
      class="thread"
      style="animation-delay: 1.6s"
    >
      <title>2026-01-09: 3911 stars, TypeScript, Unknown, Python, Shell</title>
    </path>

    <path
      d="M 20,227.19394845049396 L 35.2,223.90910229086202 L 50.400000000000006,220.6999355130365 L 65.6,220.23832797144718 L 80.80000000000001,222.9086036904942 L 96,226.48755135289952 L 111.2,227.99541988267862 L 126.4,226.17679196226376 L 141.60000000000002,222.5458161665546 L 156.79999999999998,220.12556102147266 L 172,220.93107635534318 L 187.2,224.29170827511382 L 202.4,227.40947046650743 L 217.6,227.68858447149955 L 232.8,224.89666626686622 L 248,221.3582039589034 L 263.20000000000005,220.01924143091182 L 278.40000000000003,221.9945686742054 L 293.59999999999997,225.6395727930846 L 308.8,227.91950559626167 L 324,226.93614647134766 L 339.2,223.50821803933005 L 354.4,220.489736172248 L 369.6,220.39382077005348 L 384.8,223.30032883258326 L 400,226.78936732321776 L 415.2,227.9560415138703 L 430.40000000000003,225.8290047957492 L 445.6,222.17917995044672 L 460.79999999999995,220.04532879730604 L 476,221.20404766277034 L 491.2,224.6906133623127 L 506.40000000000003,227.602189957919 L 521.6,227.51466446668567 L 536.8000000000001,224.50090863787528 L 552,221.07010757860303 L 567.1999999999999,220.07866884554844 L 582.4,222.35204195914588 L 597.6,225.9974677565515 L 612.8000000000001,227.97984696645034 L 628,226.64869538485283 L 643.1999999999999,223.11229978533473 L 658.4,220.31498335637446 L 673.6,220.58572864404857 L 688.8,223.69911923035824 L 704,227.0630163570403 L 719.2,227.87671517221233 L 734.4,225.46274840092497 L 749.6,221.8309303133595 L 764.8,220.00503070863334 L 780,221.50525240194102"
      stroke="url(#thread-17)"
      stroke-width="7.54"
      stroke-linecap="round"
      fill="none"
      opacity="0.7"
      class="thread"
      style="animation-delay: 1.7000000000000002s"
    >
      <title>2026-01-08: 3770 stars, TypeScript, Unknown, Python, Rust, JavaScript</title>
    </path>

    <path
      d="M 20,237.64847394096702 L 35.2,234.18505724922755 L 50.400000000000006,232.08303493507316 L 65.6,232.91914067719995 L 80.80000000000001,236.06620887718137 L 96,239.1636135860678 L 111.2,239.88798159884277 L 126.4,237.69596214619156 L 141.60000000000002,234.23179604900315 L 156.79999999999998,232.09396540580428 L 172,232.8860638377389 L 187.2,236.01393577088004 L 202.4,239.13135443759427 L 217.6,239.89993409891696 L 232.8,237.74316068617807 L 248,234.27883685269992 L 263.20000000000005,232.10556301550608 L 278.40000000000003,232.8535188492167 L 293.59999999999997,235.96166028439092 L 308.8,239.09856046319283 L 324,239.91122050196674 L 339.2,237.79006149955777 L 354.4,234.32617162589003 L 369.6,232.11782578334166 L 384.8,232.82151127021956 L 400,235.90939134621 L 415.2,239.06523726397575 L 430.40000000000003,239.92183888030837 L 445.6,237.8366565758126 L 460.79999999999995,234.37379228393638 L 476,232.1307516148671 L 491.2,232.7900465675458 L 506.40000000000003,235.85713788371487 L 521.6,239.03139053144534 L 536.8000000000001,239.9317874203548 L 552,237.88293795664367 L 567.1999999999999,234.42169069337373 L 582.4,232.14433830238926 L 597.6,232.75913011527206 L 612.8000000000001,235.80490882163988 L 628,238.99702604652177 L 643.1999999999999,239.94106442292522 L 658.4,237.92889773733017 L 673.6,234.4698586732977 L 688.8,232.15858352534272 L 704,232.72876719383552 L 719.2,235.7527130805519 L 734.4,238.96214967855582 L 749.6,239.9496683035355 L 764.8,237.97452806807962 L 780,234.51828799676198"
      stroke="url(#thread-18)"
      stroke-width="7.128"
      stroke-linecap="round"
      fill="none"
      opacity="0.6823529411764706"
      class="thread"
      style="animation-delay: 1.8s"
    >
      <title>2026-01-07: 3564 stars, TypeScript, Python, Unknown, Shell, Rust</title>
    </path>

    <path
      d="M 20,247.69939551815276 L 35.2,244.37078100006656 L 50.400000000000006,244.76233672137957 L 65.6,248.47269424951116 L 80.80000000000001,251.698511418023 L 96,251.13312940355368 L 111.2,247.3560991629782 L 126.4,244.23910644867397 L 141.60000000000002,244.9772583986758 L 156.79999999999998,248.81390436263666 L 172,251.81624884529987 L 187.2,250.90670612008543 L 202.4,247.01761280759044 L 217.6,244.13552612567798 L 232.8,245.2147602399071 L 248,249.14903453365667 L 263.20000000000005,251.90547853493013 L 278.40000000000003,250.6585694686356 L 293.59999999999997,246.68646497688593 L 308.8,244.06081378582908 L 324,245.47306808399156 L 339.2,249.47558130868754 L 354.4,251.96553393274363 L 369.6,250.39057305331832 L 384.8,246.36512937629178 L 400,244.0155275373298 L 415.2,245.7502523470499 L 430.40000000000003,249.79110535262055 L 445.6,251.99596641927275 L 460.79999999999995,250.10471883255082 L 476,246.05600641295376 L 491.2,244.00000567271388 L 506.40000000000003,246.04424243657846 L 521.6,250.09324967118457 L 536.8000000000001,251.99654866098214 L 552,249.80314216423588 L 567.1999999999999,245.76140526446923 L 582.4,244.01436414176925 L 597.6,246.35284221896993 L 612.8000000000001,250.37975721791474 L 628,251.9672763084715 L 643.1999999999999,249.48809585443757 L 658.4,245.48352662911333 L 673.6,244.05849568538216 L 688.8,246.6737464248379 L 704,250.64848775450199 L 719.2,251.90836802896598 L 734.4,249.1619333287081 L 749.6,245.22444628641597 L 764.8,244.13207063677294 L 780,247.00455786959571"
      stroke="url(#thread-19)"
      stroke-width="8"
      stroke-linecap="round"
      fill="none"
      opacity="0.6647058823529413"
      class="thread"
      style="animation-delay: 1.9000000000000001s"
    >
      <title>2026-01-06: 4224 stars, TypeScript, Python, Rust, JavaScript, Go</title>
    </path>

    <path
      d="M 20,257.8239155564425 L 35.2,256.0049149310141 L 50.400000000000006,257.5023540694777 L 65.6,261.07316389644313 L 80.80000000000001,263.75310823296724 L 96,263.31748502410176 L 111.2,260.1279181419318 L 126.4,256.8321625791454 L 141.60000000000002,256.16612373243737 L 156.79999999999998,258.6827003955447 L 172,262.2928069118933 L 187.2,263.99958574379303 L 202.4,262.38618866685346 L 217.6,258.7919449139982 L 232.8,256.20054386787035 L 248,256.7631851462922 L 263.20000000000005,260.01280337359725 L 278.40000000000003,263.25179313703313 L 293.59999999999997,263.7913720300154 L 308.8,261.18361945372243 L 324,257.59330892087576 L 339.2,256.000864730394 L 354.4,257.7282224966377 L 369.6,261.3414508055025 L 384.8,263.8411006258365 L 400,263.15213778019086 L 415.2,259.84649096036776 L 430.40000000000003,256.66827659175965 L 445.6,256.25582560555245 L 460.79999999999995,258.9515259178216 L 476,262.5175959662799 L 491.2,263.99373420407363 L 506.40000000000003,262.1545540713959 L 521.6,258.5268140776771 L 536.8000000000001,256.12200983827444 L 552,256.93644137339135 L 567.1999999999999,260.29402467445504 L 582.4,263.40752928755836 L 597.6,263.69234178754147 L 612.8000000000001,260.9120307883669 L 628,257.3746157175133 L 643.1999999999999,256.0166107667415 L 658.4,257.96533651634775 L 673.6,261.60309735952615 L 688.8,263.9100790736703 L 704,262.97118704646414 L 719.2,259.56582366840996 L 734.4,256.5208830662822 L 749.6,256.3640616263179 L 764.8,259.22554152245027 L 780,262.7299225949226"
      stroke="url(#thread-20)"
      stroke-width="7.528"
      stroke-linecap="round"
      fill="none"
      opacity="0.6470588235294118"
      class="thread"
      style="animation-delay: 2s"
    >
      <title>2026-01-05: 3764 stars, Go, TypeScript, Python, Rust, JavaScript</title>
    </path>

    <path
      d="M 20,268.48121696011333 L 35.2,268.463843224067 L 50.400000000000006,271.59072465357394 L 65.6,275.0815226749278 L 80.80000000000001,275.8323139029304 L 96,273.1755150412285 L 111.2,269.47347993159667 L 126.4,268.01795827691626 L 141.60000000000002,270.10316064852043 L 156.79999999999998,273.87498137644474 L 172,275.979619269511 L 187.2,274.5456871166284 L 202.4,270.84819868682445 L 217.6,268.1748608979908 L 232.8,268.9027335595278 L 248,272.38461194581953 L 263.20000000000005,275.5245037704274 L 278.40000000000003,275.530501967467 L 293.59999999999997,272.39727310202005 L 308.8,268.9107997165158 L 324,268.17115984667515 L 339.2,270.836021302145 L 354.4,274.53586120037886 L 369.6,275.9808817612224 L 384.8,273.88620970256153 L 400,270.114370884508 L 415.2,268.01918258349474 L 430.40000000000003,269.46362968840003 L 445.6,273.1633488186527 L 460.79999999999995,275.82864957772784 L 476,275.0896184661698 L 491.2,271.60338200219064 L 506.40000000000003,268.4698075572857 L 521.6,268.47518495381127 L 536.8000000000001,271.6147327559107 L 552,275.0968497932293 L 567.1999999999999,275.8253315772764 L 582.4,273.15243176714006 L 597.6,269.4548207333839 L 612.8000000000001,268.0203144100249 L 628,270.12443710298146 L 643.1999999999999,273.89625970319526 L 658.4,275.98197935469886 L 673.6,274.5270304362025 L 688.8,270.82511425748226 L 704,268.1678747712629 L 719.2,268.91805761074767 L 734.4,272.40862044223303 L 749.6,275.53584900500437 L 764.8,275.5190960638255 L 780,272.37325788183676"
      stroke="url(#thread-21)"
      stroke-width="7.814"
      stroke-linecap="round"
      fill="none"
      opacity="0.6294117647058823"
      class="thread"
      style="animation-delay: 2.1s"
    >
      <title>2026-01-04: 3907 stars, Python, Jupyter Notebook, TypeScript, Go, Rust</title>
    </path>

    <path
      d="M 20,280.0000391737972 L 35.2,281.77885545730976 L 50.400000000000006,285.5168928299661 L 65.6,287.91691353359425 L 80.80000000000001,286.86191388538356 L 96,283.282485082839 L 111.2,280.33595987141973 L 126.4,280.6214011319748 L 141.60000000000002,283.88702761990584 L 156.79999999999998,287.2523044751665 L 172,287.748797514879 L 187.2,284.9385615196657 L 202.4,281.30044175216955 L 217.6,280.0435409233182 L 232.8,282.2765426705417 L 248,286.0297669342271 L 263.20000000000005,287.99257994499703 L 278.40000000000003,286.4336289831908 L 293.59999999999997,282.7280292394714 L 308.8,280.1444059772032 L 324,280.9617145207916 L 339.2,284.4590255906877 L 354.4,287.5514406259283 L 369.6,287.5112106498122 L 384.8,284.37382160938495 L 400,280.9066930285505 L 415.2,280.1681001810632 L 430.40000000000003,282.8095390210473 L 445.6,286.501056417802 L 460.79999999999995,287.98644882596807 L 476,285.9554853822231 L 491.2,282.19963275331804 L 506.40000000000003,280.0318431298177 L 521.6,281.3642744400147 L 536.8000000000001,285.0216193265537 L 552,287.7778170382058 L 567.1999999999999,287.2016882533505 L 582.4,283.8014230711265 L 597.6,280.57631808194213 L 612.8000000000001,280.37116505331534 L 628,283.36692480632826 L 643.1999999999999,286.9211057906552 L 658.4,287.89864578711564 L 673.6,285.4372789954717 L 688.8,281.70812108767603 L 704,280.00057744787864 L 719.2,281.82083348879127 L 734.4,285.56328275191754 L 749.6,287.9267958508346 L 764.8,286.82657163061293 L 780,283.2330928552578"
      stroke="url(#thread-22)"
      stroke-width="7.78"
      stroke-linecap="round"
      fill="none"
      opacity="0.611764705882353"
      class="thread"
      style="animation-delay: 2.2s"
    >
      <title>2026-01-03: 3890 stars, Go, Python, Jupyter Notebook, TypeScript, Rust, JavaScript</title>
    </path>

    <path
      d="M 20,292.49819130124627 L 35.2,294.4225298009273 L 50.400000000000006,297.01134863759887 L 65.6,299.1741554431578 L 80.80000000000001,299.99990759008057 L 96,299.14077215880997 L 111.2,296.95864416405175 L 126.4,294.3727049292729 L 141.60000000000002,292.472233843189 L 156.79999999999998,292.05776943163977 L 172,293.3038972126393 L 187.2,295.68570875473915 L 202.4,298.1999097091315 L 217.6,299.7874391195975 L 232.8,299.7795793911747 L 248,298.17964129004696 L 263.20000000000005,295.6615693441212 L 278.40000000000003,293.28605509367424 L 293.59999999999997,292.0537402691113 L 308.8,292.48371484778056 L 324,294.39485993875184 L 339.2,296.98214078775015 L 354.4,299.1557128757209 L 369.6,299.99999889772533 L 384.8,299.15935887986876 L 400,296.9878969837901 L 415.2,294.4003016348661 L 430.40000000000003,292.4865498294666 L 445.6,292.0527743524236 L 460.79999999999995,293.2816951532698 L 476,295.65565192478607 L 491.2,298.17465899594964 L 506.40000000000003,299.77763092215923 L 521.6,299.78934523243555 L 536.8000000000001,298.20486748881285 L 552,295.69162982766704 L 567.1999999999999,293.30828743563643 L 582.4,292.0587795039344 L 597.6,292.46943829038594 L 612.8000000000001,294.3672813266251 L 628,296.95287710452163 L 643.1999999999999,299.1370909102608 L 658.4,299.99986281082465 L 673.6,299.1777659956339 L 688.8,297.01709364291656 L 704,294.427989281155 L 719.2,292.5010655506503 L 734.4,292.0480036676648 L 749.6,293.2596476258667 L 764.8,295.62561467055696 L 780,298.14928465633534"
      stroke="url(#thread-23)"
      stroke-width="5.26"
      stroke-linecap="round"
      fill="none"
      opacity="0.5941176470588235"
      class="thread"
      style="animation-delay: 2.3000000000000003s"
    >
      <title>2026-01-02: 2630 stars, TypeScript, Rust, Python, JavaScript, Jupyter Notebook, Shell</title>
    </path>

    <path
      d="M 20,305.8537083279983 L 35.2,309.4204640155934 L 50.400000000000006,311.84604112633053 L 65.6,311.1817689407096 L 80.80000000000001,307.9613133447451 L 96,304.771938002629 L 111.2,304.1759371886457 L 126.4,306.6521286364663 L 141.60000000000002,310.2111788596867 L 156.79999999999998,311.9938025655331 L 172,310.56786774546504 L 187.2,307.0789481351029 L 202.4,304.3299871895553 L 217.6,304.5294571441205 L 232.8,307.5171069566195 L 248,310.8927054886708 L 263.20000000000005,311.9443496673613 L 278.40000000000003,309.82716500518234 L 293.59999999999997,306.242064551115 L 308.8,304.0692619460212 L 324,305.0543528244643 L 339.2,308.4059305795913 L 354.4,311.4313900550324 L 369.6,311.7001244204673 L 384.8,308.9962366891838 L 400,305.4919879809968 L 415.2,304.0026369084907 L 430.40000000000003,305.72470483278863 L 445.6,309.27470931327275 L 460.79999999999995,311.80063226542575 L 476,311.27318668996617 L 491.2,308.1161141140044 L 506.40000000000003,304.86575727464844 L 521.6,304.13340202743416 L 536.8000000000001,306.50741112537463 L 552,310.0805427840281 L 567.1999999999999,311.9821989055998 L 582.4,310.684618700189 L 597.6,307.2302578132147 L 612.8000000000001,304.39429576184637 L 628,304.4551001092721 L 643.1999999999999,307.36382159363063 L 658.4,310.7836388610845 L 673.6,311.9671241981923 L 688.8,309.96348399251 L 704,306.3824114522817 L 719.2,304.1008842553797 L 734.4,304.9518456731868 L 749.6,308.25164661000355 L 764.8,311.3492785956026 L 780,311.75615253363924"
      stroke="url(#thread-24)"
      stroke-width="7.396"
      stroke-linecap="round"
      fill="none"
      opacity="0.5764705882352941"
      class="thread"
      style="animation-delay: 2.4000000000000004s"
    >
      <title>2026-01-01: 3698 stars, Rust, Python, JavaScript, TypeScript, Jupyter Notebook, Go, Shell</title>
    </path>

    <path
      d="M 20,319.7347124105952 L 35.2,323.0425505963494 L 50.400000000000006,323.8999212451217 L 65.6,321.6162988009859 L 80.80000000000001,318.03091074393603 L 96,316.03142541770495 L 111.2,317.22822652091696 L 126.4,320.65741151234107 L 141.60000000000002,323.557117857999 L 156.79999999999998,323.5919246530287 L 172,320.73379853575346 L 187.2,317.28467173217706 L 202.4,316.0224678940011 L 217.6,317.96376486687114 L 232.8,321.5450438000679 L 248,323.88194583454543 L 263.20000000000005,323.0923321557627 L 278.40000000000003,319.81215691644127 L 293.59999999999997,316.6832703291014 L 308.8,316.225674860875 L 324,318.80791749379244 L 339.2,322.3502623141215 L 354.4,323.99970796259885 L 369.6,322.42779238490084 L 384.8,318.900534985486 L 400,316.25878572826826 L 415.2,316.6302071091237 L 430.40000000000003,319.7156566791415 L 445.6,323.030116106204 L 460.79999999999995,323.90412272355877 L 476,321.633752381019 L 491.2,318.0475593277715 L 506.40000000000003,316.03386025076867 L 521.6,317.2144865908308 L 536.8000000000001,320.6385629465433 L 552,323.54834127457417 L 567.1999999999999,323.6002887044403 L 582.4,320.7525668224536 L 597.6,317.2987282927948 L 612.8000000000001,316.02049158715045 L 628,317.9473474083271 L 643.1999999999999,321.5274077963009 L 658.4,323.8772953072618 L 673.6,323.1044126354893 L 688.8,319.83123879557957 L 704,316.6939850792104 L 719.2,316.21939283177227 L 734.4,318.789698226115 L 749.6,322.33477958980905 L 764.8,323.99943155400524 L 780,322.4429449112609"
      stroke="url(#thread-25)"
      stroke-width="7.406"
      stroke-linecap="round"
      fill="none"
      opacity="0.5588235294117647"
      class="thread"
      style="animation-delay: 2.5s"
    >
      <title>2025-12-31: 3703 stars, Go, Python, TypeScript, Rust, Shell</title>
    </path>

    <path
      d="M 20,333.68066814730656 L 35.2,335.9944489898209 L 50.400000000000006,334.0531385370686 L 65.6,329.92471994015926 L 80.80000000000001,328.0069957695329 L 96,330.3428238626407 L 111.2,334.4439607066602 L 126.4,335.9416656492124 L 141.60000000000002,333.24050680966195 L 156.79999999999998,329.2178966908581 L 172,328.1589252625042 L 187.2,331.1916630340017 L 202.4,335.0854826709646 L 217.6,335.6924884098469 L 232.8,332.3660667021273 L 248,328.6496920267573 L 263.20000000000005,328.50223670164957 L 278.40000000000003,332.08077767832 L 293.59999999999997,335.57327014197966 L 308.8,335.25933255345444 L 324,331.47338728328776 L 339.2,328.24841680402943 L 354.4,329.0198245589963 L 369.6,332.9658675664591 L 384.8,335.88301905849795 L 400,334.66378011539194 L 415.2,330.60694639753905 L 430.40000000000003,328.03406460216075 L 445.6,329.685899966005 L 460.79999999999995,333.80283300317564 L 476,335.99929614870894 L 491.2,333.93550455749875 L 506.40000000000003,329.80991455165133 L 521.6,328.0173155417852 L 536.8000000000001,330.46727564661273 L 552,334.5499720989969 L 567.1999999999999,335.9163078945634 L 582.4,333.11079228479053 L 597.6,329.1220039398029 L 612.8000000000001,328.1990041465687 L 628,331.3250194766959 L 643.1999999999999,335.17005857117823 L 658.4,335.6381891944097 L 673.6,332.2307346715757 L 688.8,328.5774897793967 L 704,328.57007776298144 L 719.2,332.21639428118283 L 734.4,335.63219654709235 L 749.6,335.1787973412557 L 764.8,331.3391806794789 L 780,328.20350254480786"
      stroke="url(#thread-26)"
      stroke-width="8"
      stroke-linecap="round"
      fill="none"
      opacity="0.5411764705882354"
      class="thread"
      style="animation-delay: 2.6s"
    >
      <title>2025-12-30: 4315 stars, Go, Shell, Rust, Python, Swift, TypeScript</title>
    </path>

    <path
      d="M 20,347.21513770620646 L 35.2,347.9305001294861 L 50.400000000000006,346.12562841666875 L 65.6,342.9578051404718 L 80.80000000000001,340.4582365328713 L 96,340.22964436536216 L 111.2,342.4186017876256 L 126.4,345.62155071893136 L 141.60000000000002,347.78476238000894 L 156.79999999999998,347.52118685551744 L 172,344.9998286009662 L 187.2,341.8373808953556 L 202.4,340.0616031582848 L 217.6,340.8111229240754 L 232.8,343.60534860458455 L 248,346.65262450410347 L 263.20000000000005,347.99903929046855 L 278.40000000000003,346.7812726751274 L 293.59999999999997,343.7801558227348 L 308.8,340.9200029143475 L 324,340.0347421414696 L 339.2,341.69200213802924 L 354.4,344.8291488681223 L 369.6,347.4346458812564 L 384.8,347.83785018094926 L 400,345.78022743151047 L 415.2,342.5811240065589 L 430.40000000000003,340.2918029491826 L 445.6,340.3801754379114 L 460.79999999999995,342.789577090237 L 476,345.97510112795925 L 491.2,347.89419160228215 L 506.40000000000003,347.3163289446236 L 521.6,344.6120383166243 L 536.8000000000001,341.515309116601 L 552,340.0117621009553 L 567.1999999999999,341.06547064183405 L 582.4,344.00079750561963 L 597.6,346.9356130093187 L 612.8000000000001,347.988115353694 L 628,346.4834407175443 L 643.1999999999999,343.3863855025529 L 658.4,340.6827795057078 L 673.6,340.1061731402732 L 688.8,342.0262860341299 L 704,345.2119430439533 L 719.2,347.6205029593222 L 734.4,347.70759872322776 L 749.6,345.417384588291 L 764.8,342.21834437379476 L 780,340.16170059232417"
      stroke="url(#thread-27)"
      stroke-width="6.556"
      stroke-linecap="round"
      fill="none"
      opacity="0.5235294117647059"
      class="thread"
      style="animation-delay: 2.7s"
    >
      <title>2025-12-29: 3278 stars, Shell, Go, JavaScript, TypeScript, Rust, Python</title>
    </path>

    <path
      d="M 20,359.9624294227795 L 35.2,358.73875259841617 L 50.400000000000006,355.2068446181091 L 65.6,352.3434110246611 L 80.80000000000001,352.56176459309074 L 96,355.6778761014988 L 111.2,359.06547486254317 L 126.4,359.8694796948856 L 141.60000000000002,357.41227225336587 L 156.79999999999998,353.7647963597854 L 172,352.00115863589065 L 187.2,353.6077596950287 L 202.4,357.2305500250167 L 217.6,359.81622809143863 L 232.8,359.18557453888167 L 248,355.8701065914501 L 263.20000000000005,352.6641133051252 L 278.40000000000003,352.2696180731559 L 293.59999999999997,355.01910298458864 L 308.8,358.59529164905626 L 324,359.9841585939291 L 339.2,358.0151614505865 L 354.4,354.3477785358564 L 369.6,352.0728941849837 L 384.8,353.1077896222346 L 400,356.5802510182956 L 415.2,359.5636746387384 L 430.40000000000003,359.54361965525777 L 445.6,356.53698848457026 L 460.79999999999995,353.0777813670137 L 476,352.0814312804424 L 491.2,354.387665885318 L 506.40000000000003,358.05278184349737 L 521.6,359.9878054193796 L 536.8000000000001,358.5618913486205 L 552,354.9768054591114 L 567.1999999999999,352.25407183874717 L 582.4,352.68842078755375 L 597.6,355.91378135163535 L 612.8000000000001,359.2118073220387 L 628,359.8029098076755 L 643.1999999999999,357.1889053747841 L 658.4,353.57288694868544 L 673.6,352.00244867731925 L 688.8,353.80116193713997 L 704,357.45306431908284 L 719.2,359.88031854009404 L 734.4,359.03722546708127 L 749.6,355.63434716381545 L 764.8,352.539642468209 L 780,352.36134032396984"
      stroke="url(#thread-28)"
      stroke-width="7.59"
      stroke-linecap="round"
      fill="none"
      opacity="0.5058823529411766"
      class="thread"
      style="animation-delay: 2.8000000000000003s"
    >
      <title>2025-12-28: 3795 stars, Shell, Rust, Python, JavaScript, TypeScript</title>
    </path>

    <path
      d="M 20,371.7395802220987 L 35.2,367.42130391517037 L 50.400000000000006,364.01049805262494 L 65.6,366.8557481751771 L 80.80000000000001,371.4953334231582 L 96,370.65378296289686 L 111.2,365.65075695827477 L 126.4,364.3316484414745 L 141.60000000000002,368.7649904876462 L 156.79999999999998,371.9987283270997 L 172,368.961942022558 L 187.2,364.4167059849612 L 202.4,365.4905392609907 L 217.6,370.49953213406616 L 232.8,371.5889347491253 L 248,367.0504226486238 L 263.20000000000005,364.0009708746372 L 278.40000000000003,367.2225149352977 L 293.59999999999997,371.66325631845984 L 308.8,370.3595371352784 L 324,365.35575799174757 L 339.2,364.4984929394452 L 354.4,369.13204465875975 L 369.6,371.99040367075116 L 384.8,368.5912926785523 L 400,364.26495815083535 L 415.2,365.79565320307154 L 430.40000000000003,370.7830496566515 L 445.6,371.4062636405941 L 460.79999999999995,366.6880148763909 L 476,364.027128783815 L 491.2,367.59621953493735 L 506.40000000000003,371.79849037431177 L 521.6,370.04423612508856 L 536.8000000000001,365.0843547539817 L 552,364.6965829174436 L 567.1999999999999,369.48899709991423 L 582.4,371.9464708959438 L 597.6,368.2153669711812 L 612.8000000000001,364.1465397298685 L 628,366.12043749641145 L 643.1999999999999,371.0417328090758 L 658.4,371.19319695075734 L 673.6,366.3373145216408 L 688.8,364.08873836168596 L 704,367.97352724439185 L 719.2,371.8998288380449 L 734.4,369.7106935012411 L 749.6,364.8389690948547 L 764.8,364.92415073189665 L 780,369.83266256824754"
      stroke="url(#thread-29)"
      stroke-width="8"
      stroke-linecap="round"
      fill="none"
      opacity="0.4882352941176471"
      class="thread"
      style="animation-delay: 2.9000000000000004s"
    >
      <title>2025-12-27: 5384 stars, Shell, Python, Rust, C, Go</title>
    </path>

    <path
      d="M 20,382.6011513606285 L 35.2,379.018777718811 L 50.400000000000006,376.2666024452443 L 65.6,376.6732023212123 L 80.80000000000001,379.8945589117171 L 96,383.2051277236699 L 111.2,383.8038830584545 L 126.4,381.18422645061696 L 141.60000000000002,377.5626125026442 L 156.79999999999998,376.00323782694676 L 172,377.82546739930456 L 187.2,381.4875384137236 L 202.4,383.8910241030243 L 217.6,383.00236903779506 L 232.8,379.5734517671014 L 248,376.50543095557043 L 263.20000000000005,376.39411585083354 L 278.40000000000003,379.33368859702455 L 293.59999999999997,382.8370180475851 L 308.8,383.93998643933537 L 324,381.70938773260644 L 339.2,378.03250011303504 L 354.4,376.02028646897963 L 369.6,377.37525245679626 L 384.8,380.95098041589364 L 400,383.72209722352324 L 415.2,383.3439999329006 L 430.40000000000003,380.1365913425379 L 445.6,376.81361473882487 L 460.79999999999995,376.18659387843263 L 476,378.7860422903916 L 491.2,382.41260324245826 L 506.40000000000003,383.9978945316528 L 521.6,382.2006235001111 L 536.8000000000001,378.54143588356004 L 552,376.11631884680696 L 567.1999999999999,376.97712979803237 L 582.4,380.39554870131775 L 597.6,383.4792994130086 L 612.8000000000001,383.6192638382371 L 628,380.6970200458409 L 643.1999999999999,377.18503739835677 L 658.4,376.0547550071481 L 673.6,378.26248890257153 L 688.8,381.94030649417306 L 704,383.9764580573423 L 719.2,382.6481843991205 L 734.4,379.0793191755371 L 749.6,376.2894290453674 L 764.8,376.63900079949354 L 780,379.83226669453484"
      stroke="url(#thread-30)"
      stroke-width="7.606"
      stroke-linecap="round"
      fill="none"
      opacity="0.4705882352941177"
      class="thread"
      style="animation-delay: 3s"
    >
      <title>2025-12-26: 3803 stars, Python, Shell, Go, TypeScript</title>
    </path>

    <path
      d="M 20,392.82586992775117 L 35.2,389.5021371748463 L 50.400000000000006,388.00038855758936 L 65.6,389.4160253641616 L 80.80000000000001,392.71645774317466 L 96,395.49429351328627 L 111.2,395.72333145415223 L 126.4,393.23650734970875 L 141.60000000000002,389.8477535027292 L 156.79999999999998,388.02888529340066 L 172,389.1066164983402 L 187.2,392.2948314277194 L 202.4,395.26799123934524 L 217.6,395.8574219952503 L 232.8,393.63318275732263 L 248,390.2176719073229 L 263.20000000000005,388.10222184395883 L 278.40000000000003,388.82987825268265 L 293.59999999999997,391.86987602519986 L 308.8,395.00478846451375 L 324,395.9479564820798 L 339.2,394.01141709292096 L 354.4,390.6077154574736 L 369.6,388.21957013010126 L 384.8,388.58893541521076 L 400,391.4463899166583 L 415.2,394.70765714113685 L 430.40000000000003,395.9939126450972 L 445.6,394.36693952607146 L 460.79999999999995,391.01347997908306 L 476,388.3796051144517 L 491.2,388.38650859033794 L 506.40000000000003,391.0291548926139 L 521.6,394.37995232553493 L 536.8000000000001,395.9947715706 L 552,394.69573567763416 L 567.1999999999999,391.43038378481054 L 582.4,388.580519763071 L 597.6,388.22488347918284 L 612.8000000000001,390.6228821595078 L 628,394.0253742944084 L 643.1999999999999,395.9505235600366 L 658.4,394.994092948096 L 673.6,391.85371940816435 L 688.8,388.8200454495683 L 704,388.10588507059066 L 719.2,390.2321591431475 L 734.4,393.64792676318814 L 749.6,395.8616682395179 L 764.8,395.25864243836344 L 780,392.27870675782765"
      stroke="url(#thread-31)"
      stroke-width="7.022"
      stroke-linecap="round"
      fill="none"
      opacity="0.4529411764705883"
      class="thread"
      style="animation-delay: 3.1s"
    >
      <title>2025-12-25: 3511 stars, Python, TypeScript</title>
    </path>

    <path
      d="M 20,402.84838673333974 L 35.2,400.5960340910292 L 50.400000000000006,400.0596452102726 L 65.6,401.50961759389253 L 80.80000000000001,404.215009707196 L 96,406.8120138766136 L 111.2,407.9914615727014 L 126.4,407.15878470657174 L 141.60000000000002,404.73374169107996 L 156.79999999999998,401.9388141979216 L 172,400.18294533131257 L 187.2,400.3512812489161 L 202.4,402.3589626007562 L 217.6,405.1939027394825 L 232.8,407.4269878977071 L 248,407.93250374383854 L 263.20000000000005,406.4556160944419 L 278.40000000000003,403.74083466378084 L 293.59999999999997,401.1567003480134 L 308.8,400.0058938905508 L 324,400.8685451253506 L 339.2,403.3097853441583 L 354.4,406.0989677482848 L 369.6,407.8300453743243 L 384.8,407.6303695077605 L 400,405.60059819284044 L 415.2,402.76395378659925 L 430.40000000000003,400.55040918996895 L 445.6,400.0758281965295 L 460.79999999999995,401.57945050739505 L 476,404.3032892726649 L 491.2,406.87423772849036 L 506.40000000000003,407.99626221854317 L 521.6,407.1037421061912 L 536.8000000000001,404.6466032162546 L 552,401.8635069821881 L 567.1999999999999,400.1574322851812 L 582.4,400.38842368292256 L 597.6,402.4400367460745 L 612.8000000000001,405.27803853481197 L 628,407.47177188189806 L 643.1999999999999,407.9153599875119 L 658.4,406.3851868887898 L 673.6,403.652623879255 L 688.8,401.095175677203 L 704,400.00207036368107 L 719.2,400.924350209889 L 734.4,403.3970872945647 L 749.6,406.1737570218033 L 764.8,407.85462015885025 L 780,407.5923414771995"
      stroke="url(#thread-32)"
      stroke-width="5.776"
      stroke-linecap="round"
      fill="none"
      opacity="0.43529411764705883"
      class="thread"
      style="animation-delay: 3.2s"
    >
      <title>2025-12-24: 2888 stars, Python, TypeScript</title>
    </path>

    <path
      d="M 20,413.1528586305235 L 35.2,412.0056010212605 L 50.400000000000006,412.871948741781 L 65.6,415.3151696587226 L 80.80000000000001,418.1036184891834 L 96,419.8316180695326 L 111.2,419.62807135028294 L 126.4,417.59558770043395 L 141.60000000000002,414.7587567846179 L 156.79999999999998,412.5476455245884 L 172,412.0768910513976 L 187.2,413.58380408970817 L 202.4,416.3087389101844 L 217.6,418.87803621964383 L 232.8,419.9964947165484 L 248,419.10029140712703 L 263.20000000000005,416.6412088424033 L 278.40000000000003,413.8588882763081 L 293.59999999999997,412.1559175702133 L 308.8,412.39077653760506 L 324,414.44507107939495 L 339.2,417.2832165030396 L 354.4,419.47448323390984 L 369.6,419.9142379112064 L 384.8,418.38079703092416 L 400,415.64717919883566 L 415.2,413.0914208768923 L 430.40000000000003,412.00189826539247 L 445.6,412.9278475696107 L 460.79999999999995,415.4024910680408 L 476,418.17834312785646 L 491.2,419.85607670834753 L 506.40000000000003,419.5899342130358 L 521.6,417.51407999302745 L 536.8000000000001,414.67496713012787 L 552,412.5038128920712 L 567.1999999999999,412.0951117869932 L 582.4,413.6548929892085 L 597.6,416.39685954671165 L 612.8000000000001,418.9387663448649 L 628,419.99921983639933 L 643.1999999999999,419.0436377690395 L 658.4,416.55373595388056 L 673.6,413.7846918512432 L 688.8,412.1324005615303 L 704,412.429794038968 L 719.2,414.5269540870019 L 734.4,417.3666872022773 L 749.6,419.5174634433646 L 764.8,419.89506099735115 L 780,418.3091302143228"
      stroke="url(#thread-33)"
      stroke-width="5.776"
      stroke-linecap="round"
      fill="none"
      opacity="0.4176470588235294"
      class="thread"
      style="animation-delay: 3.3000000000000003s"
    >
      <title>2025-12-23: 2888 stars, Python, TypeScript</title>
    </path>
  </g>

  <!-- Date markers -->
  <g id="dates">
    <text x="785" y="24" class="date-label">01-25</text>
<text x="785" y="108" class="date-label">01-18</text>
<text x="785" y="192" class="date-label">01-11</text>
<text x="785" y="276" class="date-label">01-04</text>
<text x="785" y="360" class="date-label">12-28</text>
  </g>

</svg>