<?xml version="1.0" encoding="UTF-8"?>
<svg xmlns="http://www.w3.org/2000/svg" viewBox="0 0 800 200" width="800" height="200">
  <title>The Data Tapestry - GitHub Trends Woven in Time</title>
  <desc>A living data art piece that weaves daily GitHub trending repositories into an evolving tapestry. Each thread represents one day of open source activity.</desc>

  <style>
    .thread {
      animation: breathe 8s ease-in-out infinite alternate;
    }

    @keyframes breathe {
      0% {
        opacity: 0.85;
      }
      100% {
        opacity: 1;
      }
    }

    .date-label {
      font-family: ui-monospace, monospace;
      font-size: 8px;
      fill: #666;
    }

    .title {
      font-family: system-ui, sans-serif;
      font-size: 14px;
      fill: #333;
      font-weight: 600;
    }

    .subtitle {
      font-family: system-ui, sans-serif;
      font-size: 10px;
      fill: #888;
    }

    .empty-state {
      font-family: system-ui, sans-serif;
      font-size: 12px;
      fill: #999;
      text-anchor: middle;
    }
  </style>

  <defs>
    
    <linearGradient id="thread-0" x1="0%" y1="0%" x2="100%" y2="0%">
      <stop offset="0%" stop-color="#3572A5" />
      <stop offset="50%" stop-color="#3178c6" />
      <stop offset="100%" stop-color="#89e051" />
    </linearGradient>

    <linearGradient id="thread-1" x1="0%" y1="0%" x2="100%" y2="0%">
      <stop offset="0%" stop-color="#3572A5" />
      <stop offset="50%" stop-color="#f1e05a" />
      <stop offset="100%" stop-color="#89e051" />
    </linearGradient>

    <linearGradient id="thread-2" x1="0%" y1="0%" x2="100%" y2="0%">
      <stop offset="0%" stop-color="#3572A5" />
      <stop offset="50%" stop-color="#89e051" />
      <stop offset="100%" stop-color="#dea584" />
    </linearGradient>

    <linearGradient id="thread-3" x1="0%" y1="0%" x2="100%" y2="0%">
      <stop offset="0%" stop-color="#3572A5" />
      <stop offset="50%" stop-color="#89e051" />
      <stop offset="100%" stop-color="#00ADD8" />
    </linearGradient>

    <linearGradient id="thread-4" x1="0%" y1="0%" x2="100%" y2="0%">
      <stop offset="0%" stop-color="#3572A5" />
      <stop offset="50%" stop-color="#3178c6" />
      <stop offset="100%" stop-color="#3572A5" />
    </linearGradient>

    <linearGradient id="thread-5" x1="0%" y1="0%" x2="100%" y2="0%">
      <stop offset="0%" stop-color="#3572A5" />
      <stop offset="50%" stop-color="#3178c6" />
      <stop offset="100%" stop-color="#3572A5" />
    </linearGradient>

    <linearGradient id="thread-6" x1="0%" y1="0%" x2="100%" y2="0%">
      <stop offset="0%" stop-color="#3572A5" />
      <stop offset="50%" stop-color="#3178c6" />
      <stop offset="100%" stop-color="#3572A5" />
    </linearGradient>

    <!-- Background pattern -->
    <pattern id="loom" patternUnits="userSpaceOnUse" width="20" height="20">
      <rect width="20" height="20" fill="#fafafa"/>
      <circle cx="10" cy="10" r="0.5" fill="#eee"/>
    </pattern>
  </defs>

  <!-- Background -->
  <rect width="100%" height="100%" fill="url(#loom)"/>

  <!-- Threads -->
  <g id="tapestry">
    
    <path
      d="M 20,20 L 35.2,22.935071242078273 L 50.400000000000006,23.988176705636263 L 65.6,22.48406584984365 L 80.80000000000001,19.38717358078407 L 96,16.68322521461963 L 111.2,16.10599069160024 L 126.4,18.025592413843057 L 141.60000000000002,21.211183000930987 L 156.79999999999998,23.62016383265788 L 172,23.70789796071881 L 187.2,21.418130319052047 L 202.4,18.21905843574507 L 217.6,16.161925129403905 L 232.8,16.565762943050263 L 248,19.171631332257434 L 263.20000000000005,22.308649174445545 L 278.40000000000003,23.965362661963493 L 293.59999999999997,23.079488180150516 L 308.8,20.21904787270625 L 324,17.218154211223816 L 339.2,16.000978266893114 L 354.4,17.3479724664997 L 369.6,20.395445002096203 L 384.8,23.189358458593496 L 400,23.93825733811682 L 415.2,22.161948164395696 L 430.40000000000003,18.9993992285874 L 445.6,16.478434859028393 L 460.79999999999995,16.215495775917184 L 476,18.379178348962487 L 491.2,21.582130714374898 L 506.40000000000003,23.770621890936876 L 521.6,23.541392754359894 L 536.8000000000001,21.04142487847865 L 552,17.873696045351053 L 567.1999999999999,16.069351930118113 L 582.4,16.785336810268127 L 597.6,19.562561644600777 L 612.8000000000001,22.620271668959226 L 628,23.99786519709396 L 643.1999999999999,22.812030151433483 L 658.4,19.82312319484462 L 673.6,16.947629531106774 L 688.8,16.029313834114095 L 704,17.65699953371782 L 719.2,20.787015614058017 L 734.4,23.412397792643397 L 749.6,23.849752717789542 L 764.8,21.81864869489488 L 780,18.621428307301926"
      stroke="url(#thread-0)"
      stroke-width="6.556"
      stroke-linecap="round"
      fill="none"
      opacity="1"
      class="thread"
      style="animation-delay: 0s"
    >
      <title>2025-12-29: 3278 stars, Shell, Go, JavaScript, TypeScript, Rust, Python</title>
    </path>

    <path
      d="M 20,33.917702154416816 L 35.2,35.97264910936579 L 50.400000000000006,34.679432213672186 L 65.6,31.12797960898675 L 80.80000000000001,28.311469122227223 L 96,28.603666554780844 L 111.2,31.75830679387434 L 126.4,35.11664699070839 L 141.60000000000002,35.84826519367127 L 156.79999999999998,33.33655078546549 L 172,29.698386267711044 L 187.2,28.000030599025244 L 202.4,29.67286442715311 L 217.6,33.30701700910222 L 232.8,35.8396106610834 L 248,35.13616577503381 L 263.20000000000005,31.789548389093586 L 278.40000000000003,28.62030042505502 L 293.59999999999997,28.2994761781238 L 308.8,31.09746754962648 L 324,34.65611671928414 L 339.2,35.97618056771913 L 354.4,33.94510423891607 L 369.6,30.274686624441255 L 384.8,28.058369716081444 L 400,29.16407387374047 L 415.2,32.65990740795319 L 430.40000000000003,35.5995684569416 L 445.6,35.505499454858565 L 460.79999999999995,32.456982116139436 L 476,29.023318503604912 L 491.2,28.09841343146356 L 506.40000000000003,30.46178042899206 L 521.6,34.12156475919104 L 536.8000000000001,35.993286202895945 L 552,34.4994507746675 L 567.1999999999999,30.899068682029963 L 582.4,28.226555711328537 L 597.6,28.734316007137792 L 612.8000000000001,31.9944072517705 L 628,35.25921208598342 L 643.1999999999999,35.777140519222385 L 658.4,33.1116804887174 L 673.6,29.50929189409304 L 688.8,28.006081609236738 L 704,29.86896100666426 L 719.2,33.527888211328296 L 734.4,35.899105392740594 L 749.6,34.98414164892548 L 764.8,31.554131919656026 L 780,28.499901512361816"
      stroke="url(#thread-1)"
      stroke-width="7.59"
      stroke-linecap="round"
      fill="none"
      opacity="0.9142857142857144"
      class="thread"
      style="animation-delay: 0.1s"
    >
      <title>2025-12-28: 3795 stars, Shell, Rust, Python, JavaScript, TypeScript</title>
    </path>

    <path
      d="M 20,47.36588393923159 L 35.2,46.83703417974705 L 50.400000000000006,41.859347223476384 L 65.6,40.2384811915313 L 80.80000000000001,44.51616404242635 L 96,47.98443479388924 L 111.2,45.20459551348646 L 126.4,40.535794384919384 L 141.60000000000002,41.299316528206624 L 156.79999999999998,46.297860290842536 L 172,47.693061376856356 L 187.2,43.2970637030309 L 202.4,40.00336122439624 L 217.6,42.976906202261766 L 232.8,47.554794820282126 L 248,46.55830455477988 L 263.20000000000005,41.550061260265174 L 278.40000000000003,40.38363935549186 L 293.59999999999997,44.888139523894175 L 308.8,47.99992183995514 L 324,44.83930842921655 L 339.2,40.362550649781056 L 354.4,41.58978476660195 L 369.6,46.596548668135526 L 384.8,47.53158781551164 L 400,42.92863966984583 L 415.2,40.00572334120095 L 430.40000000000003,43.34635036384 L 445.6,47.7119847113022 L 460.79999999999995,46.2567460585614 L 476,41.262637172708494 L 491.2,40.56106788827834 L 506.40000000000003,45.25218974767279 L 521.6,47.97971583277253 L 536.8000000000001,44.46653182848739 L 552,40.221765467219726 L 567.1999999999999,41.90176041041874 L 582.4,46.872066905215156 L 597.6,47.338600350397186 L 612.8000000000001,42.569775853795626 L 628,40.04372813683196 L 643.1999999999999,43.72162732720853 L 658.4,47.83605093809593 L 673.6,45.93504962953834 L 688.8,40.99963977173832 L 704,40.76918351743647 L 719.2,45.605066134279255 L 734.4,47.92399707938718 L 749.6,44.0895921600628 L 764.8,40.114695125037755 L 780,42.23245956444288"
      stroke="url(#thread-2)"
      stroke-width="8"
      stroke-linecap="round"
      fill="none"
      opacity="0.8285714285714285"
      class="thread"
      style="animation-delay: 0.2s"
    >
      <title>2025-12-27: 5384 stars, Shell, Python, Rust, C, Go</title>
    </path>

    <path
      d="M 20,59.98997994641622 L 35.2,58.5331523652445 L 50.400000000000006,54.9330602042997 L 65.6,52.23569079475721 L 80.80000000000001,52.723250447360535 L 96,55.9832217990452 L 111.2,59.25738895052151 L 126.4,59.77552513600297 L 141.60000000000002,57.09924261810846 L 156.79999999999998,53.492906385209146 L 172,52.007786789919315 L 187.2,53.90042262910855 L 202.4,57.56948134489422 L 217.6,59.91062397427358 L 232.8,58.94304267379054 L 248,55.485394369822274 L 263.20000000000005,52.46314665006057 L 278.40000000000003,52.43338079312802 L 293.59999999999997,55.42128127182831 L 308.8,58.89882752500296 L 324,59.92371659006157 L 339.2,57.628804247226874 L 354.4,53.95578354487849 L 369.6,52.012345627112566 L 384.8,53.442805975810344 L 400,57.03687221369595 L 415.2,59.75365545832152 L 430.40000000000003,59.29452362619414 L 445.6,56.04794170139697 L 460.79999999999995,52.76079697749308 L 476,52.21429636173103 L 491.2,54.87082633692075 L 506.40000000000003,58.48273426319429 L 521.6,59.99403565655611 L 536.8000000000001,58.12603966911425 L 552,54.459231426822036 L 567.1999999999999,52.09604579871909 L 582.4,53.03594089938 L 597.6,56.48368470660684 L 612.8000000000001,59.522189688063996 L 628,59.58061952471599 L 643.1999999999999,56.60953755376421 L 658.4,53.12273443356435 L 673.6,52.07034523167099 L 688.8,54.34278164676457 L 704,58.017367196735215 L 719.2,59.98508674192791 L 734.4,58.58108045709025 L 749.6,54.9932583082226 L 764.8,52.25722614189675 L 780,52.68790228346183"
      stroke="url(#thread-3)"
      stroke-width="7.606"
      stroke-linecap="round"
      fill="none"
      opacity="0.7428571428571429"
      class="thread"
      style="animation-delay: 0.30000000000000004s"
    >
      <title>2025-12-26: 3803 stars, Python, Shell, Go, TypeScript</title>
    </path>

    <path
      d="M 20,71.63718970730272 L 35.2,69.02516025750421 L 50.400000000000006,65.66536127174068 L 65.6,64.00848795608317 L 80.80000000000001,65.26309222359384 L 96,68.5140441284239 L 111.2,71.3900433987138 L 126.4,71.79328666758695 L 141.60000000000002,69.4296413544648 L 156.79999999999998,66.02319103168773 L 172,64.0586591934655 L 187.2,64.96900917436233 L 202.4,68.09021603018242 L 217.6,71.14561776086983 L 232.8,71.90655175721935 L 248,69.8179796657783 L 263.20000000000005,66.40334191667856 L 278.40000000000003,64.15333405380434 L 293.59999999999997,64.70915053745902 L 308.8,67.66536925824866 L 324,70.86567340143677 L 339.2,71.97570604420939 L 354.4,70.18579027203916 L 369.6,66.80152145557639 L 384.8,64.29144351655698 L 400,64.48645050491812 L 415.2,67.24430096706335 L 430.40000000000003,70.55337131024842 L 445.6,71.99996867339505 L 460.79999999999995,70.52892004228414 L 476,67.2132336068213 L 491.2,64.47142811966248 L 506.40000000000003,64.30342369264505 L 521.6,66.8317656463775 L 536.8000000000001,70.21223784424701 L 552,71.97906568346362 L 567.1999999999999,70.84349452904225 L 582.4,67.63382952545288 L 597.6,64.6912555681969 L 612.8000000000001,64.16213674664786 L 628,66.4324214359636 L 643.1999999999999,69.84612490964764 L 658.4,71.91323310038396 L 673.6,71.12596171663213 L 688.8,68.05856005551162 L 704,64.94844368201765 L 719.2,64.064185007518 L 734.4,66.05077752826213 L 749.6,69.45916646816566 L 764.8,71.80321427232099 L 780,71.37313212872296"
      stroke="url(#thread-4)"
      stroke-width="7.022"
      stroke-linecap="round"
      fill="none"
      opacity="0.6571428571428573"
      class="thread"
      style="animation-delay: 0.4s"
    >
      <title>2025-12-25: 3511 stars, Python, TypeScript</title>
    </path>

    <path
      d="M 20,82.39388857641583 L 35.2,79.66343475175248 L 50.400000000000006,77.10264589578613 L 65.6,76.00243413729248 L 80.80000000000001,76.91742415762785 L 96,79.38636288932138 L 111.2,82.16464051359728 L 126.4,83.8517072452096 L 141.60000000000002,83.59710057889622 L 156.79999999999998,81.52916957117753 L 172,78.69037315540749 L 187.2,76.51176907604027 L 202.4,76.09160735993885 L 217.6,77.64169455808019 L 232.8,80.38062053581831 L 248,82.92767295670141 L 263.20000000000005,83.99886432793608 L 278.40000000000003,83.05419935465645 L 293.59999999999997,80.56989046210604 L 308.8,77.79829567798663 L 324,76.13659591962966 L 339.2,76.42246601815168 L 354.4,78.5117967954076 L 369.6,81.35134153990069 L 384.8,83.50966526927108 L 400,83.89874142733588 L 415.2,82.32243391708998 L 430.40000000000003,79.57537072159248 L 445.6,77.04236620744719 L 460.79999999999995,76.00032621635802 L 476,76.97455062224167 L 491.2,79.47392587671857 L 506.40000000000003,82.2384988903925 L 521.6,83.87462847104932 L 536.8000000000001,83.557529898544 L 552,81.4470548499529 L 567.1999999999999,78.60710901642939 L 582.4,76.46932957220591 L 597.6,76.11138655117288 L 612.8000000000001,77.7137216114489 L 628,80.46858609431361 L 643.1999999999999,82.98723294794434 L 658.4,83.99999413083924 L 673.6,82.99632942742909 L 688.8,80.48219345237781 L 704,77.72498028076643 L 719.2,76.11462095535168 L 734.4,76.46290922477536 L 749.6,78.59427046082796 L 764.8,81.43427009464128 L 780,83.55124383086881"
      stroke="url(#thread-5)"
      stroke-width="5.776"
      stroke-linecap="round"
      fill="none"
      opacity="0.5714285714285714"
      class="thread"
      style="animation-delay: 0.5s"
    >
      <title>2025-12-24: 2888 stars, Python, TypeScript</title>
    </path>

    <path
      d="M 20,92.56448003223947 L 35.2,89.79373454651056 L 50.400000000000006,88.13518338581265 L 65.6,88.42491415047701 L 80.80000000000001,90.51687147271598 L 96,93.35648458076619 L 111.2,95.51228402970568 L 126.4,95.89751577131995 L 141.60000000000002,94.31798170665968 L 156.79999999999998,91.5699363481317 L 172,89.03868917780612 L 187.2,88.00026014769472 L 202.4,88.97812882024573 L 217.6,91.47934454597286 L 232.8,94.2430264406506 L 248,95.8759825315768 L 263.20000000000005,95.55502787766453 L 278.40000000000003,93.44195803443448 L 293.59999999999997,90.60198674772928 L 308.8,88.46676402291378 L 324,88.11267103318771 L 339.2,89.71820860812429 L 354.4,92.47401367826866 L 369.6,94.99086503496767 L 384.8,95.99999975967049 L 400,94.99270576053382 L 415.2,92.47676720636915 L 430.40000000000003,89.72048686538729 L 445.6,88.11332553369785 L 460.79999999999995,88.46546482824414 L 476,90.59938879128164 L 491.2,93.43937096478862 L 506.40000000000003,95.5537558552849 L 521.6,95.87666679211786 L 536.8000000000001,94.2453220434392 L 552,91.48209426108914 L 567.1999999999999,88.97994649647067 L 582.4,88.00022948133561 L 597.6,89.03682562799573 L 612.8000000000001,91.56717934376798 L 628,94.3157210735238 L 643.1999999999999,95.8968911108777 L 658.4,95.5136102377906 L 673.6,93.35909310631907 L 688.8,90.51944733919483 L 704,88.4261588450147 L 719.2,88.13446944891692 L 734.4,89.7914218789189 L 749.6,92.56173446636207 L 764.8,95.04887265850567 L 780,95.99905215732021"
      stroke="url(#thread-6)"
      stroke-width="5.776"
      stroke-linecap="round"
      fill="none"
      opacity="0.48571428571428577"
      class="thread"
      style="animation-delay: 0.6000000000000001s"
    >
      <title>2025-12-23: 2888 stars, Python, TypeScript</title>
    </path>
  </g>

  <!-- Date markers -->
  <g id="dates">
    <text x="785" y="24" class="date-label">12-29</text>
  </g>

</svg>