<?xml version="1.0" encoding="UTF-8"?>
<svg xmlns="http://www.w3.org/2000/svg" viewBox="0 0 800 568" width="800" height="568">
  <title>The Data Tapestry - GitHub Trends Woven in Time</title>
  <desc>A living data art piece that weaves daily GitHub trending repositories into an evolving tapestry. Each thread represents one day of open source activity.</desc>

  <style>
    .thread {
      animation: breathe 8s ease-in-out infinite alternate;
    }

    @keyframes breathe {
      0% {
        opacity: 0.85;
      }
      100% {
        opacity: 1;
      }
    }

    .date-label {
      font-family: ui-monospace, monospace;
      font-size: 8px;
      fill: #666;
    }

    .title {
      font-family: system-ui, sans-serif;
      font-size: 14px;
      fill: #333;
      font-weight: 600;
    }

    .subtitle {
      font-family: system-ui, sans-serif;
      font-size: 10px;
      fill: #888;
    }

    .empty-state {
      font-family: system-ui, sans-serif;
      font-size: 12px;
      fill: #999;
      text-anchor: middle;
    }
  </style>

  <defs>
    
    <linearGradient id="thread-0" x1="0%" y1="0%" x2="100%" y2="0%">
      <stop offset="0%" stop-color="#3178c6" />
      <stop offset="50%" stop-color="#3572A5" />
      <stop offset="100%" stop-color="#8b8b8b" />
    </linearGradient>

    <linearGradient id="thread-1" x1="0%" y1="0%" x2="100%" y2="0%">
      <stop offset="0%" stop-color="#3178c6" />
      <stop offset="50%" stop-color="#f1e05a" />
      <stop offset="100%" stop-color="#3572A5" />
    </linearGradient>

    <linearGradient id="thread-2" x1="0%" y1="0%" x2="100%" y2="0%">
      <stop offset="0%" stop-color="#3572A5" />
      <stop offset="50%" stop-color="#3178c6" />
      <stop offset="100%" stop-color="#f1e05a" />
    </linearGradient>

    <linearGradient id="thread-3" x1="0%" y1="0%" x2="100%" y2="0%">
      <stop offset="0%" stop-color="#3572A5" />
      <stop offset="50%" stop-color="#8b8b8b" />
      <stop offset="100%" stop-color="#3178c6" />
    </linearGradient>

    <linearGradient id="thread-4" x1="0%" y1="0%" x2="100%" y2="0%">
      <stop offset="0%" stop-color="#3572A5" />
      <stop offset="50%" stop-color="#f1e05a" />
      <stop offset="100%" stop-color="#8b8b8b" />
    </linearGradient>

    <linearGradient id="thread-5" x1="0%" y1="0%" x2="100%" y2="0%">
      <stop offset="0%" stop-color="#3572A5" />
      <stop offset="50%" stop-color="#3178c6" />
      <stop offset="100%" stop-color="#dea584" />
    </linearGradient>

    <linearGradient id="thread-6" x1="0%" y1="0%" x2="100%" y2="0%">
      <stop offset="0%" stop-color="#3572A5" />
      <stop offset="50%" stop-color="#3178c6" />
      <stop offset="100%" stop-color="#f1e05a" />
    </linearGradient>

    <linearGradient id="thread-7" x1="0%" y1="0%" x2="100%" y2="0%">
      <stop offset="0%" stop-color="#3572A5" />
      <stop offset="50%" stop-color="#3178c6" />
      <stop offset="100%" stop-color="#f1e05a" />
    </linearGradient>

    <linearGradient id="thread-8" x1="0%" y1="0%" x2="100%" y2="0%">
      <stop offset="0%" stop-color="#3572A5" />
      <stop offset="50%" stop-color="#3178c6" />
      <stop offset="100%" stop-color="#f1e05a" />
    </linearGradient>

    <linearGradient id="thread-9" x1="0%" y1="0%" x2="100%" y2="0%">
      <stop offset="0%" stop-color="#3178c6" />
      <stop offset="50%" stop-color="#3572A5" />
      <stop offset="100%" stop-color="#f1e05a" />
    </linearGradient>

    <linearGradient id="thread-10" x1="0%" y1="0%" x2="100%" y2="0%">
      <stop offset="0%" stop-color="#3572A5" />
      <stop offset="50%" stop-color="#3178c6" />
      <stop offset="100%" stop-color="#89e051" />
    </linearGradient>

    <linearGradient id="thread-11" x1="0%" y1="0%" x2="100%" y2="0%">
      <stop offset="0%" stop-color="#3178c6" />
      <stop offset="50%" stop-color="#3572A5" />
      <stop offset="100%" stop-color="#89e051" />
    </linearGradient>

    <linearGradient id="thread-12" x1="0%" y1="0%" x2="100%" y2="0%">
      <stop offset="0%" stop-color="#3572A5" />
      <stop offset="50%" stop-color="#3178c6" />
      <stop offset="100%" stop-color="#8b8b8b" />
    </linearGradient>

    <linearGradient id="thread-13" x1="0%" y1="0%" x2="100%" y2="0%">
      <stop offset="0%" stop-color="#3178c6" />
      <stop offset="50%" stop-color="#3572A5" />
      <stop offset="100%" stop-color="#dea584" />
    </linearGradient>

    <linearGradient id="thread-14" x1="0%" y1="0%" x2="100%" y2="0%">
      <stop offset="0%" stop-color="#3572A5" />
      <stop offset="50%" stop-color="#3178c6" />
      <stop offset="100%" stop-color="#8b8b8b" />
    </linearGradient>

    <linearGradient id="thread-15" x1="0%" y1="0%" x2="100%" y2="0%">
      <stop offset="0%" stop-color="#3572A5" />
      <stop offset="50%" stop-color="#3178c6" />
      <stop offset="100%" stop-color="#41b883" />
    </linearGradient>

    <linearGradient id="thread-16" x1="0%" y1="0%" x2="100%" y2="0%">
      <stop offset="0%" stop-color="#3178c6" />
      <stop offset="50%" stop-color="#f1e05a" />
      <stop offset="100%" stop-color="#89e051" />
    </linearGradient>

    <linearGradient id="thread-17" x1="0%" y1="0%" x2="100%" y2="0%">
      <stop offset="0%" stop-color="#3178c6" />
      <stop offset="50%" stop-color="#3572A5" />
      <stop offset="100%" stop-color="#f1e05a" />
    </linearGradient>

    <linearGradient id="thread-18" x1="0%" y1="0%" x2="100%" y2="0%">
      <stop offset="0%" stop-color="#3178c6" />
      <stop offset="50%" stop-color="#3572A5" />
      <stop offset="100%" stop-color="#f1e05a" />
    </linearGradient>

    <linearGradient id="thread-19" x1="0%" y1="0%" x2="100%" y2="0%">
      <stop offset="0%" stop-color="#3178c6" />
      <stop offset="50%" stop-color="#f1e05a" />
      <stop offset="100%" stop-color="#3572A5" />
    </linearGradient>

    <linearGradient id="thread-20" x1="0%" y1="0%" x2="100%" y2="0%">
      <stop offset="0%" stop-color="#3572A5" />
      <stop offset="50%" stop-color="#3178c6" />
      <stop offset="100%" stop-color="#89e051" />
    </linearGradient>

    <linearGradient id="thread-21" x1="0%" y1="0%" x2="100%" y2="0%">
      <stop offset="0%" stop-color="#3178c6" />
      <stop offset="50%" stop-color="#89e051" />
      <stop offset="100%" stop-color="#3572A5" />
    </linearGradient>

    <linearGradient id="thread-22" x1="0%" y1="0%" x2="100%" y2="0%">
      <stop offset="0%" stop-color="#3572A5" />
      <stop offset="50%" stop-color="#3178c6" />
      <stop offset="100%" stop-color="#89e051" />
    </linearGradient>

    <linearGradient id="thread-23" x1="0%" y1="0%" x2="100%" y2="0%">
      <stop offset="0%" stop-color="#3178c6" />
      <stop offset="50%" stop-color="#3572A5" />
      <stop offset="100%" stop-color="#8b8b8b" />
    </linearGradient>

    <linearGradient id="thread-24" x1="0%" y1="0%" x2="100%" y2="0%">
      <stop offset="0%" stop-color="#3178c6" />
      <stop offset="50%" stop-color="#89e051" />
      <stop offset="100%" stop-color="#3572A5" />
    </linearGradient>

    <linearGradient id="thread-25" x1="0%" y1="0%" x2="100%" y2="0%">
      <stop offset="0%" stop-color="#3572A5" />
      <stop offset="50%" stop-color="#3178c6" />
      <stop offset="100%" stop-color="#89e051" />
    </linearGradient>

    <linearGradient id="thread-26" x1="0%" y1="0%" x2="100%" y2="0%">
      <stop offset="0%" stop-color="#3572A5" />
      <stop offset="50%" stop-color="#3178c6" />
      <stop offset="100%" stop-color="#8b8b8b" />
    </linearGradient>

    <linearGradient id="thread-27" x1="0%" y1="0%" x2="100%" y2="0%">
      <stop offset="0%" stop-color="#3572A5" />
      <stop offset="50%" stop-color="#3178c6" />
      <stop offset="100%" stop-color="#8b8b8b" />
    </linearGradient>

    <linearGradient id="thread-28" x1="0%" y1="0%" x2="100%" y2="0%">
      <stop offset="0%" stop-color="#3178c6" />
      <stop offset="50%" stop-color="#3572A5" />
      <stop offset="100%" stop-color="#dea584" />
    </linearGradient>

    <linearGradient id="thread-29" x1="0%" y1="0%" x2="100%" y2="0%">
      <stop offset="0%" stop-color="#3572A5" />
      <stop offset="50%" stop-color="#3178c6" />
      <stop offset="100%" stop-color="#00ADD8" />
    </linearGradient>

    <linearGradient id="thread-30" x1="0%" y1="0%" x2="100%" y2="0%">
      <stop offset="0%" stop-color="#3572A5" />
      <stop offset="50%" stop-color="#00ADD8" />
      <stop offset="100%" stop-color="#3178c6" />
    </linearGradient>

    <linearGradient id="thread-31" x1="0%" y1="0%" x2="100%" y2="0%">
      <stop offset="0%" stop-color="#3572A5" />
      <stop offset="50%" stop-color="#3178c6" />
      <stop offset="100%" stop-color="#00ADD8" />
    </linearGradient>

    <linearGradient id="thread-32" x1="0%" y1="0%" x2="100%" y2="0%">
      <stop offset="0%" stop-color="#3572A5" />
      <stop offset="50%" stop-color="#00ADD8" />
      <stop offset="100%" stop-color="#DA5B0B" />
    </linearGradient>

    <linearGradient id="thread-33" x1="0%" y1="0%" x2="100%" y2="0%">
      <stop offset="0%" stop-color="#3572A5" />
      <stop offset="50%" stop-color="#3178c6" />
      <stop offset="100%" stop-color="#dea584" />
    </linearGradient>

    <linearGradient id="thread-34" x1="0%" y1="0%" x2="100%" y2="0%">
      <stop offset="0%" stop-color="#dea584" />
      <stop offset="50%" stop-color="#3572A5" />
      <stop offset="100%" stop-color="#3178c6" />
    </linearGradient>

    <linearGradient id="thread-35" x1="0%" y1="0%" x2="100%" y2="0%">
      <stop offset="0%" stop-color="#3572A5" />
      <stop offset="50%" stop-color="#3178c6" />
      <stop offset="100%" stop-color="#dea584" />
    </linearGradient>

    <linearGradient id="thread-36" x1="0%" y1="0%" x2="100%" y2="0%">
      <stop offset="0%" stop-color="#3572A5" />
      <stop offset="50%" stop-color="#dea584" />
      <stop offset="100%" stop-color="#3178c6" />
    </linearGradient>

    <linearGradient id="thread-37" x1="0%" y1="0%" x2="100%" y2="0%">
      <stop offset="0%" stop-color="#3572A5" />
      <stop offset="50%" stop-color="#3178c6" />
      <stop offset="100%" stop-color="#89e051" />
    </linearGradient>

    <linearGradient id="thread-38" x1="0%" y1="0%" x2="100%" y2="0%">
      <stop offset="0%" stop-color="#3572A5" />
      <stop offset="50%" stop-color="#f1e05a" />
      <stop offset="100%" stop-color="#89e051" />
    </linearGradient>

    <linearGradient id="thread-39" x1="0%" y1="0%" x2="100%" y2="0%">
      <stop offset="0%" stop-color="#3572A5" />
      <stop offset="50%" stop-color="#89e051" />
      <stop offset="100%" stop-color="#dea584" />
    </linearGradient>

    <linearGradient id="thread-40" x1="0%" y1="0%" x2="100%" y2="0%">
      <stop offset="0%" stop-color="#3572A5" />
      <stop offset="50%" stop-color="#89e051" />
      <stop offset="100%" stop-color="#00ADD8" />
    </linearGradient>

    <linearGradient id="thread-41" x1="0%" y1="0%" x2="100%" y2="0%">
      <stop offset="0%" stop-color="#3572A5" />
      <stop offset="50%" stop-color="#3178c6" />
      <stop offset="100%" stop-color="#3572A5" />
    </linearGradient>

    <linearGradient id="thread-42" x1="0%" y1="0%" x2="100%" y2="0%">
      <stop offset="0%" stop-color="#3572A5" />
      <stop offset="50%" stop-color="#3178c6" />
      <stop offset="100%" stop-color="#3572A5" />
    </linearGradient>

    <linearGradient id="thread-43" x1="0%" y1="0%" x2="100%" y2="0%">
      <stop offset="0%" stop-color="#3572A5" />
      <stop offset="50%" stop-color="#3178c6" />
      <stop offset="100%" stop-color="#3572A5" />
    </linearGradient>

    <!-- Background pattern -->
    <pattern id="loom" patternUnits="userSpaceOnUse" width="20" height="20">
      <rect width="20" height="20" fill="#fafafa"/>
      <circle cx="10" cy="10" r="0.5" fill="#eee"/>
    </pattern>
  </defs>

  <!-- Background -->
  <rect width="100%" height="100%" fill="url(#loom)"/>

  <!-- Threads -->
  <g id="tapestry">
    
    <path
      d="M 20,20 L 35.2,23.922403906141724 L 50.400000000000006,21.537696893508723 L 65.6,16.68041818788179 L 80.80000000000001,17.16093008056461 L 96,22.20658348251372 L 111.2,23.70411509263036 L 126.4,19.245537820500978 L 141.60000000000002,16.00011369730407 L 156.79999999999998,19.186389923499846 L 172,23.68092738946348 L 187.2,22.256641122626355 L 202.4,17.20374184069744 L 217.6,16.6471440081514 L 232.8,21.48184068307711 L 248,23.93378081998132 L 263.20000000000005,20.06031629294415 L 278.40000000000003,16.089864928520754 L 293.59999999999997,18.406796555072713 L 308.8,23.285552788110593 L 324,22.88123609955163 L 339.2,17.843975915654084 L 354.4,16.273539488031894 L 369.6,20.695142724304468 L 384.8,23.998976763044247 L 400,20.872572965586176 L 415.2,16.3430973248488 L 430.40000000000003,17.69381437799187 L 445.6,22.752810554178225 L 460.79999999999995,23.385367761040246 L 476,18.574352485146996 L 491.2,16.05573677401407 L 506.40000000000003,19.879381129516567 L 521.6,23.896977105821083 L 536.8000000000001,21.64834771562167 L 552,16.749223342267634 L 567.1999999999999,17.077252888574453 L 582.4,22.10497442489413 L 597.6,23.74795856632106 L 612.8000000000001,19.364334800350964 L 628,16.002842109437644 L 643.1999999999999,19.068662560895405 L 658.4,23.632046412706366 L 673.6,22.355205714667193 L 688.8,17.291263016326937 L 704,16.582890273202807 L 719.2,21.369130166678286 L 734.4,23.953848740546835 L 749.6,20.18089402033174 L 764.8,16.11706699882486 L 780,18.296882833739694"
      stroke="url(#thread-0)"
      stroke-width="8"
      stroke-linecap="round"
      fill="none"
      opacity="1"
      class="thread"
      style="animation-delay: 0s"
    >
      <title>2026-02-04: 5465 stars, TypeScript, Unknown, JavaScript, Python, Shell</title>
    </path>

    <path
      d="M 20,33.917702154416816 L 35.2,34.53305400389658 L 50.400000000000006,28.17951695635885 L 65.6,32.33681853410036 L 80.80000000000001,35.56747151335524 L 96,28.983366267320193 L 111.2,30.698565060481247 L 126.4,35.994246340889404 L 141.60000000000002,30.30103479305235 L 156.79999999999998,29.281983270585172 L 172,35.7406864972821 L 187.2,31.908085804665983 L 202.4,28.328357658137 L 217.6,34.84998049372986 L 232.8,33.53079243902265 L 248,28.00011800639657 L 263.20000000000005,33.47384110012548 L 278.40000000000003,34.89276123156749 L 293.59999999999997,28.353172939034962 L 308.8,31.84666431057885 L 324,35.762009847837234 L 339.2,29.327387078563703 L 354.4,30.245604985237854 L 369.6,35.99048032619936 L 384.8,30.756823825266167 L 400,28.943369431280644 L 415.2,35.53925759369738 L 430.40000000000003,32.39800911770805 L 445.6,28.161765700023587 L 460.79999999999995,34.48519781871168 L 476,33.971402046059865 L 491.2,28.03392331630947 L 506.40000000000003,33.0078376019365 L 521.6,35.20900868377559 L 536.8000000000001,28.581617503461835 L 552,31.358813745776246 L 567.1999999999999,35.90002913695464 L 582.4,29.711560238434163 L 597.6,29.819002292201663 L 612.8000000000001,35.92676281012965 L 628,31.23128987680152 L 643.1999999999999,28.65067727978762 L 658.4,35.284656192276096 L 673.6,32.881952888885806 L 688.8,28.052837955268064 L 704,34.083078450293755 L 719.2,34.382394037466106 L 734.4,28.12731349629755 L 749.6,32.52669272415305 L 764.8,35.477045175696674 L 780,28.86141858294583"
      stroke="url(#thread-1)"
      stroke-width="8"
      stroke-linecap="round"
      fill="none"
      opacity="0.9863636363636363"
      class="thread"
      style="animation-delay: 0.1s"
    >
      <title>2026-02-03: 7782 stars, TypeScript, Unknown, JavaScript, Shell, Python</title>
    </path>

    <path
      d="M 20,47.36588393923159 L 35.2,44.99196121255521 L 50.400000000000006,40.009680493258095 L 65.6,45.519928762781106 L 80.80000000000001,47.0335305037549 L 96,40.57047606585867 L 111.2,43.12534092891876 L 126.4,47.980118278472375 L 141.60000000000002,42.36919072764258 L 156.79999999999998,41.04646955641127 L 172,47.490044729710235 L 187.2,44.75656141511302 L 202.4,40.03370292229161 L 217.6,45.74020653839759 L 232.8,46.87084410672944 L 248,40.45260871856037 L 263.20000000000005,43.362224343901765 L 278.40000000000003,47.94886847502275 L 293.59999999999997,42.15197893742138 L 308.8,41.21445330245861 L 324,47.60151143184942 L 339.2,44.51840983132382 L 354.4,40.07215167802989 L 369.6,45.954154786103054 L 384.8,46.69771579519517 L 400,40.34764404208399 L 415.2,43.60142749434555 L 430.40000000000003,47.9032557366697 L 445.6,41.94148882111509 L 460.79999999999995,41.392568716891546 L 476,47.69987861584136 L 491.2,44.27837267279143 L 506.40000000000003,40.1248869135828 L 521.6,46.1609953273449 L 536.8000000000001,46.51477527629072 L 552,40.255963816887665 L 567.1999999999999,43.84208034385866 L 582.4,47.84344596734135 L 597.6,41.73848597926414 L 612.8000000000001,41.58016795334119 L 628,47.78478849781221 L 643.1999999999999,44.03732300938503 L 658.4,40.19171681887607 L 673.6,46.35997583591921 L 688.8,46.322687946390054 L 704,40.177901504851576 L 719.2,44.083307583163496 L 734.4,47.769656708804185 L 749.6,41.543708779484646 L 764.8,41.77656867061586 L 780,47.85593224116357"
      stroke="url(#thread-2)"
      stroke-width="8"
      stroke-linecap="round"
      fill="none"
      opacity="0.9727272727272728"
      class="thread"
      style="animation-delay: 0.2s"
    >
      <title>2026-02-02: 7524 stars, TypeScript, JavaScript, Lua, Unknown, Python, Shell</title>
    </path>

    <path
      d="M 20,59.98997994641622 L 35.2,55.40276503283572 L 50.400000000000006,52.27146444219059 L 65.6,58.229431259921 L 80.80000000000001,58.752584173953785 L 96,52.56560297950898 L 111.2,54.75085061908693 L 126.4,59.98122216323514 L 141.60000000000002,55.506337503509094 L 156.79999999999998,52.234882547086805 L 172,58.141872806720336 L 187.2,58.82749548297836 L 202.4,52.62036840741065 L 217.6,54.65196530552188 L 232.8,59.96974457306669 L 248,55.61024722406513 L 263.20000000000005,52.20087282513409 L 278.40000000000003,58.052851114246195 L 293.59999999999997,58.90047516355917 L 308.8,52.67744266040255 L 324,54.55400091373181 L 339.2,59.95555501692769 L 354.4,55.71442320766298 L 369.6,52.16945851037355 L 384.8,57.96242699845182 L 400,58.97147335898466 L 415.2,52.73678674770603 L 430.40000000000003,54.4570243689539 L 445.6,59.9386631885384 L 460.79999999999995,55.81879428556188 L 476,52.14066106377101 L 491.2,57.87066223336846 L 506.40000000000003,59.040441566212245 L 521.6,52.79836012788515 L 536.8000000000001,54.36110192156885 L 552,59.91908062770015 L 567.1999999999999,55.92328915574062 L 582.4,52.11450015855577 L 597.6,57.77761950890357 L 612.8000000000001,59.107332669003725 L 628,52.86212073654294 L 643.1999999999999,54.26629910184137 L 658.4,59.896820712411866 L 673.6,56.02783643160834 L 688.8,52.09099366678064 L 704,57.68336238801396 L 719.2,59.172100970113 L 734.4,52.928025015057976 L 749.6,54.17268067515299 L 764.8,59.87189864973077 L 780,56.132364690772576"
      stroke="url(#thread-3)"
      stroke-width="8"
      stroke-linecap="round"
      fill="none"
      opacity="0.9590909090909091"
      class="thread"
      style="animation-delay: 0.30000000000000004s"
    >
      <title>2026-02-01: 7128 stars, TypeScript, Python, JavaScript, Roff, Go, Unknown, Shell</title>
    </path>

    <path
      d="M 20,71.63718970730272 L 35.2,65.2693343457342 L 50.400000000000006,66.09217235513724 L 65.6,71.9389149122977 L 80.80000000000001,67.4132673877821 L 96,64.43266962013337 L 111.2,70.84596409795232 L 126.4,69.76494848284591 L 141.60000000000002,64.03627366571291 L 156.79999999999998,68.74532513402914 L 172,71.49170332811663 L 187.2,65.04333886461635 L 202.4,66.38078427981716 L 217.6,71.98212913181015 L 232.8,67.09728739932397 L 248,64.58956917276143 L 263.20000000000005,71.06257778958647 L 278.40000000000003,69.4708649802414 L 293.59999999999997,64.00590644910919 L 308.8,69.05864054525428 L 324,71.32364428008262 L 339.2,64.83645718740247 L 354.4,66.67986388081735 L 369.6,71.99960024723978 L 384.8,66.78714313935859 L 400,64.76851599529128 L 415.2,71.25939296234054 L 430.40000000000003,69.16727283815669 L 445.6,64.00135968246923 L 460.79999999999995,69.36511220710796 L 476,71.13409900751786 L 491.2,64.65002673344115 L 506.40000000000003,66.98747771071739 L 521.6,71.9912153137955 L 536.8000000000001,66.48483958454544 L 552,64.96835325766413 L 567.1999999999999,71.43513727337742 L 582.4,68.85613467604823 L 597.6,64.02266275908563 L 612.8000000000001,69.66275888502238 L 628,70.92429285583901 L 643.1999999999999,64.48525271191113 L 658.4,67.30163715122328 L 673.6,71.95702853720677 L 688.8,66.1923310240649 L 704,65.18778908026624 L 719.2,71.58867459578079 L 734.4,68.53946189581349 L 749.6,64.06967796184766 L 764.8,69.94965639493529 L 780,70.69558215012272"
      stroke="url(#thread-4)"
      stroke-width="8"
      stroke-linecap="round"
      fill="none"
      opacity="0.9454545454545454"
      class="thread"
      style="animation-delay: 0.4s"
    >
      <title>2026-01-31: 7532 stars, TypeScript, Python, Roff, JavaScript, Unknown, Shell</title>
    </path>

    <path
      d="M 20,82.39388857641583 L 35.2,76.06564042729548 L 50.400000000000006,81.10068694516946 L 65.6,82.9567077886116 L 80.80000000000001,76.27310706841126 L 96,80.35359178356158 L 111.2,83.41282575785083 L 126.4,76.61506928250795 L 141.60000000000002,79.59373625281933 L 156.79999999999998,83.74578216484188 L 172,77.07918638667164 L 187.2,78.84854190941498 L 202.4,83.94356132693494 L 217.6,77.64870938998672 L 232.8,78.14490121901316 L 248,83.99902581833919 L 263.20000000000005,78.30308542869702 L 278.40000000000003,77.50820706506005 L 293.59999999999997,83.91017404451237 L 308.8,79.01869947497998 L 324,76.96143637407894 L 339.2,83.680212475415 L 354.4,79.76972655265442 L 369.6,76.52432092766992 L 384.8,83.31743993088631 L 400,80.52906370518515 L 415.2,76.21263528482957 L 430.40000000000003,82.8349480940344 L 445.6,81.2693080832578 L 460.79999999999995,76.03762751194816 L 476,82.25014906047001 L 491.2,81.96374585484061 L 506.40000000000003,76.0056132642167 L 521.6,81.58414697311916 L 536.8000000000001,82.58731625009044 L 552,76.11774786717613 L 567.1999999999999,80.86097641896585 L 582.4,83.11751595078955 L 597.6,76.36998462349628 L 612.8000000000001,80.10673507235418 L 628,83.53521118683804 L 643.1999999999999,76.75322084960382 L 658.4,79.34864188589181 L 673.6,83.82532823298139 L 688.8,77.25362637201005 L 704,78.61405481682556 L 719.2,83.97739738722687 L 734.4,77.8531426286114 L 749.6,77.92948353703812 L 764.8,83.9859307999345 L 780,78.5301343634658"
      stroke="url(#thread-5)"
      stroke-width="8"
      stroke-linecap="round"
      fill="none"
      opacity="0.9318181818181818"
      class="thread"
      style="animation-delay: 0.5s"
    >
      <title>2026-01-30: 8081 stars, TypeScript, Rust, Roff, Python, JavaScript, Shell, Unknown</title>
    </path>

    <path
      d="M 20,92.56448003223947 L 35.2,88.63547155877714 L 50.400000000000006,95.83711667949028 L 65.6,90.3446748557887 L 80.80000000000001,90.32843901096953 L 96,95.8421211488538 L 111.2,88.64516037738468 L 126.4,92.54680030306807 L 141.60000000000002,94.63949586553225 L 156.79999999999998,88.00011659024601 L 172,94.59329499097083 L 187.2,92.60724194328635 L 202.4,88.61228933162086 L 217.6,95.8246825889996 L 232.8,90.3841238058374 L 248,90.28926457091897 L 263.20000000000005,95.8539216055266 L 278.40000000000003,88.66889703701656 L 293.59999999999997,92.50394669740027 L 308.8,94.67182182896576 L 324,88.00068021179327 L 339.2,94.56023167762561 L 354.4,92.64993293344519 L 369.6,88.58950276133862 L 384.8,95.81180180689164 L 400,90.42376147699794 L 415.2,90.25028993076239 L 430.40000000000003,95.86527195570433 L 445.6,88.6930227422059 L 460.79999999999995,92.46103423488354 L 476,94.70383574548138 L 491.2,88.00171092115306 L 506.40000000000003,94.52686935017871 L 521.6,92.69254801675775 L 536.8000000000001,88.5671145092153 L 552,95.79847583753634 L 567.1999999999999,90.46358323991474 L 582.4,90.21151964241858 L 597.6,95.87617087375904 L 612.8000000000001,88.71753467526783 L 628,92.41806792734226 L 643.1999999999999,94.73553387611574 L 658.4,88.003208597947 L 673.6,94.49321190507679 L 688.8,92.73508221613129 L 704,88.5451271900154 L 719.2,95.7847062372978 L 734.4,90.50358444373195 L 749.6,90.17295823393988 L 764.8,95.88661708678629 L 780,88.74242997340914"
      stroke="url(#thread-6)"
      stroke-width="8"
      stroke-linecap="round"
      fill="none"
      opacity="0.9181818181818182"
      class="thread"
      style="animation-delay: 0.6000000000000001s"
    >
      <title>2026-01-29: 9087 stars, TypeScript, JavaScript, Python, Shell, Unknown</title>
    </path>

    <path
      d="M 20,102.59686708924153 L 35.2,104.38149475738125 L 50.400000000000006,104.66635713877037 L 65.6,102.33157852648908 L 80.80000000000001,106.55584315458547 L 96,100.73235544149878 L 111.2,107.75491550091705 L 126.4,100.01582598587112 L 141.60000000000002,107.93966700172349 L 156.79999999999998,100.37554731504633 L 172,107.06019046243165 L 187.2,101.7143473774368 L 202.4,105.35406017379081 L 217.6,103.67057414360494 L 232.8,103.28215561938136 L 248,105.7157892007519 L 263.20000000000005,101.40416342303335 L 278.40000000000003,107.29751559818747 L 293.59999999999997,100.22738837816343 L 308.8,107.98847925838731 L 324,100.06971445798318 L 339.2,107.60202915182225 L 354.4,100.9737343503961 L 369.6,106.24255761401854 L 384.8,102.69524383258545 L 400,104.2773006904626 L 415.2,104.76920901680398 L 430.40000000000003,102.2371361236465 L 445.6,106.6353866382612 L 460.79999999999995,100.67317656788104 L 476,107.78966339202815 L 491.2,100.00789671762581 L 506.40000000000003,107.92023280135048 L 521.6,100.42100959706379 L 536.8000000000001,106.99182395969751 L 552,101.80092041662749 L 567.1999999999999,105.25522931260585 L 582.4,103.77487183759449 L 597.6,103.1795577255992 L 612.8000000000001,105.80963746010266 L 628,101.3255134165624 L 643.1999999999999,107.35556305460567 L 658.4,100.19393210089929 L 673.6,107.99504546711711 L 688.8,100.09048950329768 L 704,107.55534037324452 L 719.2,101.04312872475053 L 734.4,106.15522595654204 L 749.6,102.79451193159741 L 764.8,104.1729171831347 L 780,104.87153540292256"
      stroke="url(#thread-7)"
      stroke-width="8"
      stroke-linecap="round"
      fill="none"
      opacity="0.9045454545454545"
      class="thread"
      style="animation-delay: 0.7000000000000001s"
    >
      <title>2026-01-28: 11454 stars, TypeScript, JavaScript, Python, Shell</title>
    </path>

    <path
      d="M 20,112.9727900187683 L 35.2,119.0649996392041 L 50.400000000000006,112.8978619688805 L 65.6,119.13861726563142 L 80.80000000000001,112.82557040854562 L 96,119.20956739901092 L 111.2,112.75597677795153 L 126.4,119.27778973922587 L 141.60000000000002,112.68914022433098 L 156.79999999999998,119.34322630449547 L 172,112.62511755169253 L 187.2,119.40582148065333 L 202.4,112.56396317254327 L 217.6,119.46552206841356 L 232.8,112.50572906164385 L 248,119.52227732858454 L 263.20000000000005,112.45046471183552 L 278.40000000000003,119.57603902519193 L 293.59999999999997,112.39821709197633 L 308.8,119.62676146647405 L 324,112.34903060702266 L 339.2,119.67440154371526 L 354.4,112.30294706028967 L 369.6,119.71891876788354 L 384.8,112.26000561792283 L 400,119.76027530404205 L 415.2,112.22024277561094 L 430.40000000000003,119.79843600350482 L 445.6,112.18369232756864 L 460.79999999999995,119.83336843370937 L 476,112.15038533781481 L 491.2,119.86504290578102 L 506.40000000000003,112.1203501137715 L 521.6,119.89343249976528 L 536.8000000000001,112.09361218220558 L 552,119.91851308750685 L 567.1999999999999,112.0701942675338 L 582.4,119.94026335315625 L 597.6,112.05011627250924 L 612.8000000000001,119.95866481128577 L 628,112.03339526130621 L 643.1999999999999,119.97370182260033 L 658.4,112.02004544501752 L 673.6,119.98536160722915 L 688.8,112.01007816957643 L 704,119.99363425558727 L 719.2,112.00350190611394 L 734.4,119.99851273679764 L 749.6,112.00032224375914 L 764.8,119.99999290466673 L 780,112.00054188488906"
      stroke="url(#thread-8)"
      stroke-width="8"
      stroke-linecap="round"
      fill="none"
      opacity="0.8909090909090909"
      class="thread"
      style="animation-delay: 0.8s"
    >
      <title>2026-01-27: 12558 stars, TypeScript, JavaScript, Python, Shell</title>
    </path>

    <path
      d="M 20,124.08987952933961 L 35.2,126.44555002715356 L 50.400000000000006,131.33294419390833 L 65.6,130.79199145315525 L 80.80000000000001,125.70373840109652 L 96,124.35539331749975 L 111.2,128.94299803174016 L 126.4,131.9947473125957 L 141.60000000000002,128.54027477904523 L 156.79999999999998,124.20585984160005 L 172,126.05093900824014 L 187.2,131.0704425251293 L 202.4,131.08913408230143 L 217.6,126.07657084883326 L 232.8,124.19668553527437 L 248,128.5112364653849 L 263.20000000000005,131.99313952489814 L 278.40000000000003,128.97143936451766 L 293.59999999999997,124.36756153676161 L 308.8,125.67981519859718 L 324,130.7709404102659 L 339.2,131.3490510222761 L 354.4,126.47258162869063 L 369.6,124.08380969116286 L 384.8,128.07331423094385 L 400,131.94341230734997 L 415.2,129.39089759511234 L 430.40000000000003,124.57303602441604 L 445.6,125.3366508351733 L 460.79999999999995,130.43804700720415 L 476,131.56861013735437 L 491.2,126.8869986026498 L 506.40000000000003,124.01812599840814 L 521.6,127.63450852149 L 536.8000000000001,131.8461648990566 L 552,129.79359477870622 L 567.1999999999999,124.819807229001 L 582.4,125.02558122889614 L 597.6,130.07577385640153 L 612.8000000000001,131.74516562481136 L 628,127.31482782837968 L 643.1999999999999,124.00042598002763 L 658.4,127.20010717643446 L 673.6,131.70256918239573 L 688.8,130.17467820260143 L 704,125.10490142781171 L 719.2,124.75035493200247 L 734.4,129.68848653971614 L 749.6,131.8765898982353 L 764.8,127.75091373886659 L 780,124.03092293054502"
      stroke="url(#thread-9)"
      stroke-width="8"
      stroke-linecap="round"
      fill="none"
      opacity="0.8772727272727272"
      class="thread"
      style="animation-delay: 0.9s"
    >
      <title>2026-01-26: 5507 stars, TypeScript, JavaScript, Python, Rust, Shell</title>
    </path>

    <path
      d="M 20,136.16430290134744 L 35.2,139.0211866598972 L 50.400000000000006,142.83791385644108 L 65.6,143.87172741552735 L 80.80000000000001,141.10884961249394 L 96,137.2586122684036 L 111.2,136.0966331624917 L 126.4,138.76237165253397 L 141.60000000000002,142.641752620994 L 156.79999999999998,143.9305794825816 L 172,141.36500349809236 L 187.2,137.46087847998928 L 202.4,136.04666551089434 L 217.6,138.50916939075995 L 232.8,142.433610821752 L 248,143.97160605081066 L 263.20000000000005,141.61496698139527 L 278.40000000000003,137.67465981494863 L 293.59999999999997,136.01462655393442 L 308.8,138.26272816750233 L 324,142.21443239876623 L 339.2,143.99462106137833 L 354.4,141.85760645760018 L 369.6,137.89898675747574 L 384.8,136.0006615908972 L 400,138.0241656138268 L 415.2,141.9852113440775 L 430.40000000000003,143.99952013933287 L 445.6,142.09182153687468 L 460.79999999999995,138.1328419665733 L 476,136.00483395403018 L 491.2,137.79456363038926 L 506.40000000000003,141.7469871938812 L 521.6,143.98628106695585 L 536.8000000000001,142.31655003471417 L 552,138.37516488977735 L 567.1999999999999,136.02712472132583 L 582.4,137.5749634809281 L 597.6,141.50084031414582 L 612.8000000000001,143.95496388452128 L 628,142.53077278903538 L 643.1999999999999,138.62485657284924 L 658.4,136.06743280233485 L 673.6,137.36636107004804 L 688.8,141.24788700106515 L 704,143.90571061800802 L 719.2,142.73351828215937 L 734.4,138.8807846436227 L 749.6,136.1255753966193 L 764.8,137.1697024267117 L 780,140.98927441856372"
      stroke="url(#thread-10)"
      stroke-width="8"
      stroke-linecap="round"
      fill="none"
      opacity="0.8636363636363636"
      class="thread"
      style="animation-delay: 1s"
    >
      <title>2026-01-25: 4122 stars, Shell, Python, TypeScript</title>
    </path>

    <path
      d="M 20,149.17783869771844 L 35.2,154.54179025387953 L 50.400000000000006,155.32473042841832 L 65.6,150.1155837617381 L 80.80000000000001,148.30267807993687 L 96,153.15337250104707 L 111.2,155.92536961561026 L 126.4,151.62276139688962 L 141.60000000000002,148.00004182429086 L 156.79999999999998,151.58635686852136 L 172,155.9181716212118 L 187.2,153.18835382396034 L 202.4,148.31679266899172 L 217.6,150.083393210674 L 232.8,155.304251043097 L 248,154.56993156965794 L 263.20000000000005,149.20388225437827 L 278.40000000000003,148.87721303645276 L 293.59999999999997,154.17867249694876 L 308.8,155.55355953860868 L 324,150.5239461826483 L 339.2,148.15459140894293 L 354.4,152.71573001317606 L 369.6,155.9869245193374 L 384.8,152.07257467427738 L 400,148.02742512677347 L 415.2,151.14195788618744 L 430.40000000000003,155.80292064047893 L 445.6,153.6099650941355 L 460.79999999999995,148.5154056845337 L 476,149.70105220267249 L 491.2,155.0300406071997 L 506.40000000000003,154.89805500446033 L 521.6,149.54297007645715 L 536.8000000000001,148.61613489390675 L 552,153.78796365155665 L 567.1999999999999,155.73738575106213 L 582.4,150.9510016065249 L 597.6,148.05520366298452 L 612.8000000000001,152.269023395595 L 628,155.99798831563297 L 643.1999999999999,152.5214688533331 L 658.4,148.10511781026673 L 673.6,150.70842529882515 L 688.8,155.63950880952655 L 704,154.01118748558102 L 719.2,148.75814821019918 L 734.4,149.34782547051225 L 749.6,154.71745720861443 L 764.8,155.18947696526615 L 780,149.9131741539933"
      stroke="url(#thread-11)"
      stroke-width="8"
      stroke-linecap="round"
      fill="none"
      opacity="0.85"
      class="thread"
      style="animation-delay: 1.1s"
    >
      <title>2026-01-24: 5856 stars, Shell, TypeScript, Python, Rust</title>
    </path>

    <path
      d="M 20,162.88233800720428 L 35.2,167.23739195875643 L 50.400000000000006,167.3047913777276 L 65.6,162.99527137808406 L 80.80000000000001,160.01643029673448 L 96,162.3134936815897 L 111.2,166.84419344797715 L 126.4,167.6079971807312 L 141.60000000000002,163.59331080089356 L 156.79999999999998,160.11725020690926 L 172,161.78356655131032 L 187.2,166.3853633823216 L 202.4,167.82794617673767 L 217.6,164.20073483307544 L 232.8,160.30766701363035 L 248,161.30478501860648 L 263.20000000000005,165.87148955449223 L 278.40000000000003,167.95956290415643 L 293.59999999999997,164.80352678257606 L 308.8,160.58328672917216 L 324,160.88819726884685 L 339.2,165.31442992666618 L 354.4,167.99981022411976 L 369.6,165.38777684556655 L 384.8,160.93774925503354 L 400,160.54341632669346 L 415.2,164.7270390005509 L 430.40000000000003,167.9477594043747 L 445.6,165.94000308392557 L 460.79999999999995,161.3628751452157 L 476,160.2783982295043 L 491.2,164.12287119166209 L 506.40000000000003,167.80461155036463 L 521.6,166.44746252945157 L 536.8000000000001,161.8488543520896 L 552,160.09925843676086 L 567.1999999999999,163.51586805265043 L 582.4,167.57366988896487 L 597.6,166.89844523587823 L 612.8000000000001,162.3844725994227 L 628,160.01013071198983 L 643.1999999999999,162.92003656319457 L 658.4,167.26026354444227 L 673.6,167.28254449325897 L 688.8,162.95737015886465 L 704,160.01307173356642 L 719.2,162.34912591012477 L 734.4,166.87162456555706 L 749.6,167.59089696935223 L 764.8,163.5543270584625 L 780,160.1080136355657"
      stroke="url(#thread-12)"
      stroke-width="8"
      stroke-linecap="round"
      fill="none"
      opacity="0.8363636363636364"
      class="thread"
      style="animation-delay: 1.2000000000000002s"
    >
      <title>2026-01-23: 4879 stars, Unknown, Rust, Python, Shell, TypeScript, JavaScript</title>
    </path>

    <path
      d="M 20,176.86047995235126 L 35.2,179.8945423949966 L 50.400000000000006,175.0357697580216 L 65.6,172.1311446194781 L 80.80000000000001,177.06729623164912 L 96,179.840422696545 L 111.2,174.83039522304676 L 126.4,172.1907354786784 L 141.60000000000002,177.27108327102775 L 156.79999999999998,179.77540296734833 L 172,174.62834030391528 L 187.2,172.26113793433026 L 202.4,177.4712626745213 L 217.6,179.69966774882386 L 232.8,174.43017848042464 L 248,172.34215216756172 L 263.20000000000005,177.66726628549063 L 278.40000000000003,179.61343199548975 L 293.59999999999997,174.23647218284347 L 308.8,172.43354824075843 L 324,177.85853779918625 L 339.2,179.51694046487324 L 354.4,174.04777119560072 L 369.6,172.53506675018113 L 384.8,178.04453434167354 L 400,179.4104670228306 L 415.2,173.864611096867 L 430.40000000000003,172.64641956221502 L 445.6,178.22472801063768 L 460.79999999999995,179.29431386625097 L 476,173.687511738457 L 491.2,172.76729063116127 L 506.40000000000003,178.39860737369554 L 521.6,179.16881066534984 L 536.8000000000001,173.51697577036626 L 552,172.89733689624987 L 567.1999999999999,178.5656789199622 L 582.4,179.03431362798668 L 597.6,173.35348721413158 L 612.8000000000001,173.03618925532732 L 628,178.7254684607521 L 643.1999999999999,178.8912044886628 L 658.4,173.19751008906283 L 673.6,173.183453612456 L 688.8,178.8775224754386 L 704,178.73988942506776 L 719.2,173.04948709524615 L 734.4,173.33871199645228 L 749.6,179.02140939865365 L 764.8,178.58079790525133 L 780,172.90983835705626"
      stroke="url(#thread-13)"
      stroke-width="8"
      stroke-linecap="round"
      fill="none"
      opacity="0.8227272727272728"
      class="thread"
      style="animation-delay: 1.3s"
    >
      <title>2026-01-22: 6303 stars, Rust, Unknown, Shell, TypeScript, Python</title>
    </path>

    <path
      d="M 20,190.62794639487515 L 35.2,191.91594776708104 L 50.400000000000006,189.20532265497403 L 65.6,185.26392650683914 L 80.80000000000001,184.11637148823866 L 96,186.93444133136535 L 111.2,190.84056734030952 L 126.4,191.84615215896545 L 141.60000000000002,188.92437971948303 L 156.79999999999998,185.05871082178976 L 172,184.19643152619557 L 187.2,187.21802671996642 L 202.4,191.03810525762978 L 217.6,191.7559340034518 L 232.8,188.6385284527938 L 248,184.86911298418127 L 263.20000000000005,184.2966879979459 L 278.40000000000003,187.50576428084653 L 293.59999999999997,191.2195112472312 L 308.8,191.64577234673519 L 324,188.3492866864433 L 339.2,184.69613973286988 L 354.4,184.41660855519405 L 369.6,187.79612616650192 L 384.8,191.38382206786176 L 400,191.51625213230258 L 415.2,188.05819025506275 L 430.40000000000003,184.54070953240858 L 445.6,184.555556436012 L 460.79999999999995,188.08757059461942 L 476,191.53016525130298 L 491.2,191.36806109496248 L 506.40000000000003,187.76678484130375 L 521.6,184.40364769612478 L 536.8000000000001,184.7127938459588 L 552,188.37855003473194 L 567.1999999999999,191.6577637350579 L 582.4,191.20198610906593 L 597.6,187.47661776847238 L 612.8000000000001,184.2856820038182 L 628,184.88748587566926 L 643.1999999999999,188.66751942539568 L 658.4,191.76593998844788 L 673.6,191.01890901031024 L 688.8,187.1892297844521 L 704,184.18743883734862 L 719.2,185.07870493410974 L 734.4,188.95294437825757 L 749.6,191.85411961020878 L 764.8,190.81980191331076 L 780,186.90614688054086"
      stroke="url(#thread-14)"
      stroke-width="8"
      stroke-linecap="round"
      fill="none"
      opacity="0.8090909090909091"
      class="thread"
      style="animation-delay: 1.4000000000000001s"
    >
      <title>2026-01-21: 4215 stars, Unknown, TypeScript, Python, Shell, JavaScript</title>
    </path>

    <path
      d="M 20,203.75199990709896 L 35.2,201.13858160269325 L 50.400000000000006,196.09930444772078 L 65.6,199.37083857450438 L 80.80000000000001,203.9828623147364 L 96,200.10901049371083 L 111.2,196.0029012127478 L 126.4,200.41299968247142 L 141.60000000000002,203.9431621575903 L 156.79999999999998,199.07203411775302 L 172,196.17802765018422 L 187.2,201.42710502438024 L 202.4,203.635596334396 L 217.6,198.0980960316712 L 232.8,196.61278712531615 L 248,202.34426471135563 L 263.20000000000005,203.08105831105502 L 278.40000000000003,197.25335749480274 L 293.59999999999997,197.2776456926139 L 308.8,203.10217453661994 L 324,202.31721879220353 L 339.2,196.59520302286677 L 354.4,198.12743838653984 L 369.6,203.64934840550222 L 384.8,201.39596668661423 L 400,196.16834216087858 L 415.2,199.1044373539486 L 430.40000000000003,203.9486158728179 L 445.6,200.37988420597395 L 460.79999999999995,196.0017722882349 L 476,200.14227340466388 L 491.2,203.9796471939977 L 506.40000000000003,199.3379955495317 L 521.6,196.10680877774973 L 536.8000000000001,201.17044458267605 L 552,203.74033435897664 L 567.1999999999999,198.3410779736499 L 582.4,196.47631632326556 L 597.6,202.11910548310348 L 612.8000000000001,203.24693429287845 L 628,197.4568537732243 L 643.1999999999999,197.08519365305324 L 658.4,202.92381196852804 L 673.6,202.5329644956313 L 688.8,196.74538979179752 L 704,197.89207870160135 L 719.2,203.5298989681062 L 734.4,201.64692614158065 L 749.6,196.25501697941368 L 764.8,198.8421584045933 L 780,203.89619396817085"
      stroke="url(#thread-15)"
      stroke-width="8"
      stroke-linecap="round"
      fill="none"
      opacity="0.7954545454545455"
      class="thread"
      style="animation-delay: 1.5s"
    >
      <title>2026-01-20: 6510 stars, Python, Vue, TypeScript, Unknown, Shell, JavaScript</title>
    </path>

    <path
      d="M 20,215.95743298649353 L 35.2,213.1092159463967 L 50.400000000000006,208.96132355686527 L 65.6,208.3738676007255 L 80.80000000000001,212.0351739423446 L 96,215.65526675295 L 111.2,214.99246035907717 L 126.4,210.82336921020507 L 141.60000000000002,208.0329438097384 L 156.79999999999998,209.89074327211642 L 172,214.2199722011954 L 187.2,215.94804564229523 L 202.4,213.05016900000282 L 217.6,208.9218026893299 L 232.8,208.40017966283892 L 248,212.0964889242853 L 263.20000000000005,215.67974150204944 L 278.40000000000003,214.95141765680864 L 293.59999999999997,210.764899050754 L 308.8,208.025556049245 L 324,209.94309419634 L 339.2,214.27072190066698 L 354.4,215.93773037272888 L 369.6,212.99087522807955 L 384.8,208.88300530313978 L 400,208.42733780549798 L 415.2,212.15778122803815 L 430.40000000000003,215.70335138640388 L 445.6,214.90968127073714 L 460.79999999999995,210.70671918214728 L 476,208.01910241862242 L 491.2,209.9959285635751 L 506.40000000000003,214.3209379030524 L 521.6,215.9264896022346 L 536.8000000000001,212.93134856668533 L 552,208.84494051700383 L 567.1999999999999,208.455335645613 L 582.4,212.2190364478215 L 597.6,215.7260908568853 L 612.8000000000001,214.86726101033676 L 628,210.64884327863814 L 643.1999999999999,208.01358443469397 L 658.4,210.04923395594355 L 673.6,214.37060840587847 L 688.8,215.91432597277682 L 704,212.87160300661577 L 719.2,208.80761727744493 L 734.4,208.48416660273668 L 749.6,212.28024018656973 L 764.8,215.7479545689427 L 780,214.82416684581534"
      stroke="url(#thread-16)"
      stroke-width="8"
      stroke-linecap="round"
      fill="none"
      opacity="0.7818181818181817"
      class="thread"
      style="animation-delay: 1.6s"
    >
      <title>2026-01-19: 4551 stars, JavaScript, TypeScript, Shell, Python</title>
    </path>

    <path
      d="M 20,227.19394845049396 L 35.2,223.9734344786279 L 50.400000000000006,220.77434849171496 L 65.6,220.17710159598468 L 80.80000000000001,222.663438430127 L 96,226.2278576706719 L 111.2,227.9952671715543 L 126.4,226.54005876719518 L 141.60000000000002,223.03601645210054 L 156.79999999999998,220.30953180922796 L 172,220.55981151267557 L 187.2,223.58497773575095 L 202.4,226.94490459495233 L 217.6,227.9294453111466 L 232.8,225.74446061799458 L 248,222.15237853156586 L 263.20000000000005,220.05060429455392 L 278.40000000000003,221.13444763172367 L 293.59999999999997,224.5296709026719 L 308.8,227.49765692976595 L 324,227.64440188229358 L 339.2,224.85153998114336 L 354.4,221.37181838515224 L 369.6,220.0120113697272 L 384.8,221.86895132364612 L 400,225.44481402452308 L 415.2,227.85527692978116 L 430.40000000000003,227.15603929935668 L 445.6,223.91111240235034 L 460.79999999999995,220.73788302929913 L 476,220.19590611255938 L 491.2,222.72234503598403 L 506.40000000000003,226.27935177551714 L 521.6,227.99781317409676 L 536.8000000000001,226.49160303922233 L 552,222.97564381319305 L 567.1999999999999,220.28593936492993 L 582.4,220.5920291376258 L 597.6,223.6470184081632 L 612.8000000000001,226.98672575867607 L 628,227.91731364491767 L 643.1999999999999,225.68816163129983 L 658.4,222.0973234859753 L 673.6,220.0412010777195 L 688.8,221.17828096167207 L 704,224.59138442703107 L 719.2,227.52747197290404 L 734.4,227.61826936620486 L 749.6,224.79053862488226 L 764.8,221.32515242325175 L 780,220.01732198059375"
      stroke="url(#thread-17)"
      stroke-width="7.412"
      stroke-linecap="round"
      fill="none"
      opacity="0.7681818181818182"
      class="thread"
      style="animation-delay: 1.7000000000000002s"
    >
      <title>2026-01-18: 3706 stars, JavaScript, Shell, Vue, TypeScript, Python, HTML</title>
    </path>

    <path
      d="M 20,237.64847394096702 L 35.2,232.36088438239463 L 50.400000000000006,234.32774625405028 L 65.6,239.6281882736738 L 80.80000000000001,237.69596214619156 L 96,232.38289399282507 L 111.2,234.28040187064914 L 126.4,239.60586929131827 L 141.60000000000002,237.74316068617807 L 156.79999999999998,232.40552139409175 L 172,234.23335118944095 L 187.2,239.5829344373238 L 202.4,237.79006149955777 L 217.6,232.42876272150255 L 232.8,234.18660224654067 L 248,239.55938762889446 L 263.20000000000005,237.8366565758126 L 278.40000000000003,232.45261400550862 L 293.59999999999997,234.1401630265272 L 308.8,239.53523288775443 L 324,237.88293795664367 L 339.2,232.4770711723823 L 354.4,234.09404146107985 L 369.6,239.51047433946093 L 384.8,237.92889773733017 L 400,232.50213004491295 L 415.2,234.04824542762333 L 430.40000000000003,239.48511621269958 L 445.6,237.97452806807962 L 460.79999999999995,232.5277863431205 L 476,234.00278274798254 L 491.2,239.45916283856218 L 506.40000000000003,238.0198211553687 L 521.6,232.55403568498627 L 536.8000000000001,233.9576611870466 L 552,239.43261864980713 L 567.1999999999999,238.06476926327426 L 582.4,232.58087358720164 L 597.6,233.91288845144243 L 612.8000000000001,239.405488180102 L 628,238.10936471479445 L 643.1999999999999,232.60829546593348 L 658.4,233.8684721882188 L 673.6,239.37777606324957 L 688.8,238.1535998931602 L 704,232.6362966376073 L 719.2,233.82441998353997 L 734.4,239.3494870323961 L 749.6,238.19746724313603 L 764.8,232.66487231970717 L 780,233.78073936139012"
      stroke="url(#thread-18)"
      stroke-width="8"
      stroke-linecap="round"
      fill="none"
      opacity="0.7545454545454545"
      class="thread"
      style="animation-delay: 1.8s"
    >
      <title>2026-01-17: 6237 stars, JavaScript, TypeScript, Shell, Python</title>
    </path>

    <path
      d="M 20,247.69939551815276 L 35.2,244.00609626023893 L 50.400000000000006,247.26163552803928 L 65.6,251.8018265609035 L 80.80000000000001,249.7273667168615 L 96,244.64752838293091 L 111.2,245.40052565220557 L 126.4,250.67624772196336 L 141.60000000000002,251.2956699691705 L 156.79999999999998,246.1810836017431 L 172,244.2311594712721 L 187.2,248.83849509710763 L 202.4,251.98696555891883 L 217.6,248.19866896730872 L 232.8,244.06471592931132 L 248,246.7776113237868 L 263.20000000000005,251.6172934612936 L 278.40000000000003,250.16338671922597 L 293.59999999999997,244.94548716207987 L 308.8,245.0420162613184 L 324,250.28502677350565 L 339.2,251.55240764846627 L 354.4,246.63909195807082 L 369.6,244.09356749347927 L 384.8,248.34469374161554 L 400,251.99610069069482 L 415.2,248.69484672416712 L 430.40000000000003,244.18465583753036 L 445.6,246.31263457954213 L 460.79999999999995,251.37639510415062 L 476,250.56569647638153 L 491.2,245.29104185916847 L 506.40000000000003,244.72959865618026 L 521.6,249.8582001646456 L 536.8000000000001,251.75379113156237 L 552,247.11830620578746 L 567.1999999999999,244.01684618504785 L 582.4,247.8455213119422 L 597.6,251.94296792881792 L 612.8000000000001,249.18019726587895 L 628,244.36404706165618 L 643.1999999999999,245.87395063887945 L 658.4,251.08288520702197 L 673.6,250.92802713198222 L 688.8,245.6788079844667 L 704,244.4681409789422 L 719.2,249.40241877731677 L 734.4,251.89668242813286 L 749.6,247.61125915021424 L 764.8,244.00219102993688 L 780,247.34875599441744"
      stroke="url(#thread-19)"
      stroke-width="8"
      stroke-linecap="round"
      fill="none"
      opacity="0.740909090909091"
      class="thread"
      style="animation-delay: 1.9000000000000001s"
    >
      <title>2026-01-16: 5731 stars, JavaScript, TypeScript, Shell, Python, C</title>
    </path>

    <path
      d="M 20,257.8239155564425 L 35.2,256.0057983456317 L 50.400000000000006,257.47574732269675 L 65.6,261.0236859948536 L 80.80000000000001,263.7289162616902 L 96,263.36446589182816 L 111.2,260.2303540235079 L 126.4,256.90661245156235 L 141.60000000000002,256.12937801274825 L 156.79999999999998,258.538477761246 L 172,262.15071702845586 L 187.2,263.99246483006317 L 202.4,262.54757621468906 L 217.6,259.00549773825855 L 232.8,256.28210333027556 L 248,256.6193181222231 L 263.20000000000005,259.73954357216434 L 278.40000000000003,263.0741793218071 L 293.59999999999997,263.87812033988905 L 308.8,261.48955445282843 L 324,257.87477265200977 L 339.2,256.0094989604858 L 354.4,257.42924507419883 L 369.6,260.9652619925163 L 384.8,263.7066657203446 L 400,263.39670567651797 L 415.2,260.29054402556665 L 430.40000000000003,256.9452036677741 L 445.6,256.1146017733874 L 460.79999999999995,258.4824980122599 L 476,262.09961685121465 L 491.2,263.98831039436016 L 506.40000000000003,262.593787492961 L 521.6,259.064033150552 L 536.8000000000001,256.30477594798504 L 552,256.5874636228801 L 567.1999999999999,259.67938489373864 L 582.4,263.0352396815911 L 597.6,263.89245523368436 L 612.8000000000001,261.5453632547093 L 628,257.9261130059487 L 643.1999999999999,256.0141069808637 L 658.4,257.3833273932018 L 673.6,260.9066184979259 L 688.8,263.68357231517905 L 704,263.4281730796289 L 719.2,260.3506679604195 L 734.4,256.98448951832825 L 749.6,256.100709040077 L 764.8,258.42686333013944 L 780,262.0480392392078"
      stroke="url(#thread-20)"
      stroke-width="7.494"
      stroke-linecap="round"
      fill="none"
      opacity="0.7272727272727273"
      class="thread"
      style="animation-delay: 2s"
    >
      <title>2026-01-15: 3747 stars, TypeScript, Shell, Python, JavaScript, C</title>
    </path>

    <path
      d="M 20,268.48121696011333 L 35.2,268.50997793342697 L 50.400000000000006,271.7831329796275 L 65.6,275.25789193035354 L 80.80000000000001,275.7040496094194 L 96,272.70684894597497 L 111.2,269.05254741411125 L 126.4,268.13825655191147 L 141.60000000000002,270.81391936765243 L 156.79999999999998,274.5921863790548 L 172,275.9607052674943 L 187.2,273.64727359826054 L 202.4,269.8025035601931 L 217.6,268.00057001097923 L 232.8,269.91658629239396 L 248,273.7693854810198 L 263.20000000000005,275.97732866078104 L 278.40000000000003,274.487867845148 L 293.59999999999997,270.68563549484963 L 308.8,268.1052625852023 L 324,269.14551520255293 L 339.2,272.83935378048653 L 354.4,275.7529123548786 L 369.6,275.1776888046957 L 384.8,271.6484224069966 L 400,268.4459895470637 L 415.2,268.54743563933664 L 430.40000000000003,271.8584543745115 L 445.6,275.30105674429325 L 460.79999999999995,275.6749309710565 L 476,272.6325161218966 L 491.2,269.00210167911183 L 506.40000000000003,268.1585932666829 L 521.6,270.88613311681115 L 536.8000000000001,274.6491458220871 L 552,275.9494597708959 L 567.1999999999999,273.57827719980384 L 582.4,269.73989668705406 L 597.6,268.00255326024853 L 612.8000000000001,269.9813159960226 L 628,273.8366876163837 L 643.1999999999999,275.98463782144376 L 658.4,274.4283892896783 L 673.6,270.61466167388204 L 688.8,268.08877217729105 L 704,269.1988380195634 L 719.2,272.9129198689462 L 734.4,275.77833321270595 L 749.6,275.1313326957901 L 764.8,271.5733828941226 L 780,268.4120248570051"
      stroke="url(#thread-21)"
      stroke-width="8"
      stroke-linecap="round"
      fill="none"
      opacity="0.7136363636363636"
      class="thread"
      style="animation-delay: 2.1s"
    >
      <title>2026-01-14: 4003 stars, TypeScript, Shell, Python, C, HTML, Jupyter Notebook</title>
    </path>

    <path
      d="M 20,280.0000391737972 L 35.2,282.8277878685823 L 50.400000000000006,287.3030067338256 L 65.6,287.1360580929034 L 80.80000000000001,282.5615777242265 L 96,280.0087090829367 L 111.2,283.0653479285981 L 126.4,287.4355812731744 L 141.60000000000002,286.97732196352916 L 156.79999999999998,282.33462453786467 L 172,280.0325072196273 L 187.2,283.3064506091623 L 202.4,287.55513389646876 L 217.6,286.8073008626776 L 232.8,282.1139836398007 L 248,280.0713433815673 L 263.20000000000005,283.55018205651413 L 278.40000000000003,287.6612114622748 L 293.59999999999997,286.62663922292836 L 308.8,281.90049132730843 L 324,280.12507036768636 L 339.2,283.7956184530533 L 354.4,287.75341190379584 L 369.6,286.436021807796 L 384.8,281.6949568023104 L 400,280.1934845360831 L 415.2,284.04182951889464 L 430.40000000000003,287.83138575283004 L 445.6,286.2361711162643 L 460.79999999999995,281.4981591042524 L 476,280.2763265758906 L 491.2,284.2878820379166 L 506.40000000000003,287.8948374643631 L 521.6,286.02784464429135 L 536.8000000000001,281.3108441573027 L 552,280.3732824901453 L 567.1999999999999,284.53284339493905 L 582.4,287.9435265367752 L 597.6,285.81183201366593 L 612.8000000000001,281.1337219430688 L 628,280.48398478593236 L 643.1999999999999,284.7757851106236 L 658.4,287.9772684234168 L 673.6,285.5889519790961 L 688.8,280.9674638095473 L 704,280.6080138672975 L 719.2,285.01578636069746 L 734.4,287.995935232097 L 749.6,285.3600493248759 L 764.8,280.81269992650755 L 780,280.7448996256455"
      stroke="url(#thread-22)"
      stroke-width="8"
      stroke-linecap="round"
      fill="none"
      opacity="0.7"
      class="thread"
      style="animation-delay: 2.2s"
    >
      <title>2026-01-13: 5049 stars, TypeScript, Shell, C, Rust, Python</title>
    </path>

    <path
      d="M 20,292.49819130124627 L 35.2,295.42101843793967 L 50.400000000000006,298.80131892628197 L 65.6,299.9682004696696 L 80.80000000000001,297.9996696133695 L 96,294.4511306529023 L 111.2,292.12640691888475 L 126.4,292.8623430156153 L 141.60000000000002,296.07745038657987 L 156.79999999999998,299.231361529103 L 172,299.832062196585 L 187.2,297.40491802120107 L 202.4,293.86769953936823 L 217.6,292.0152853801057 L 232.8,293.3113320216338 L 248,296.7317881990327 L 263.20000000000005,299.5740332173105 L 278.40000000000003,299.5923110111239 L 293.59999999999997,296.77217966358904 L 308.8,293.34192246417007 L 324,292.0119042342472 L 339.2,293.83301836536776 L 354.4,297.3663396138085 L 369.6,299.8200686894081 L 384.8,299.25542940686216 L 400,296.11856278686173 L 415.2,292.8880156094124 L 430.40000000000003,292.1163549021558 L 445.6,294.4132964716338 L 460.79999999999995,297.9639473623755 L 476,299.96281553462995 L 491.2,298.8305261305665 L 506.40000000000003,295.4617401595447 L 521.6,292.51825189989535 L 536.8000000000001,292.32581320266047 L 552,295.03647653648466 L 567.1999999999999,298.5084530746157 L 582.4,299.9984141036261 L 597.6,298.3290898960619 L 612.8000000000001,294.81947122859907 L 628,292.24262916260335 L 643.1999999999999,292.63461571397323 L 658.4,295.6857087547391 L 673.6,298.98513417564465 L 688.8,299.92590186728796 L 704,297.7646787475455 L 719.2,294.2091219320106 L 734.4,292.0685998012456 L 749.6,293.03441290367414 L 764.8,296.343438912115 L 780,299.38110196099495"
      stroke="url(#thread-23)"
      stroke-width="7.33"
      stroke-linecap="round"
      fill="none"
      opacity="0.6863636363636364"
      class="thread"
      style="animation-delay: 2.3000000000000003s"
    >
      <title>2026-01-12: 3665 stars, TypeScript, Unknown, Python, Shell, C</title>
    </path>

    <path
      d="M 20,305.8537083279983 L 35.2,309.23079188326676 L 50.400000000000006,311.7163173961091 L 65.6,311.5098259174881 L 80.80000000000001,308.7608952443976 L 96,305.46078911767484 L 111.2,304.0000304178658 L 126.4,305.4367599927977 L 141.60000000000002,308.7302431539038 L 156.79999999999998,311.49475454842536 L 172,311.72774411028405 L 187.2,309.2604394251501 L 202.4,305.8801006830309 L 217.6,304.0353694720249 L 232.8,305.06252771732795 L 248,308.21752501781634 L 263.20000000000005,311.2149520729207 L 278.40000000000003,311.88353993466006 L 293.59999999999997,309.73897854760895 L 308.8,306.3347400934551 L 324,304.13677857579626 L 339.2,304.73724803355145 L 354.4,307.70118185573523 L 369.6,310.88157284128204 L 384.8,311.9746170735638 L 400,310.18853781983853 L 415.2,306.8171308425895 L 430.40000000000003,304.30256775971844 L 445.6,304.4663416848876 L 460.79999999999995,307.1898184589759 L 476,310.50017257483546 L 491.2,311.99945773837834 L 506.40000000000003,310.60162539532 L 521.6,307.31923395164324 L 536.8000000000001,304.5299741687085 L 552,304.25432329023215 L 567.1999999999999,306.69195663171524 L 582.4,310.07710725917616 L 597.6,311.9576479626708 L 612.8000000000001,310.9713572235942 L 628,307.8326819379238 L 643.1999999999999,304.81520810468027 L 658.4,304.1047261084235 L 673.6,306.2158931762392 L 688.8,309.61942722249927 L 704,311.84988450088946 L 719.2,311.29157177206315 L 734.4,308.34891825784206 L 749.6,305.1535161813679 L 764.8,304.0200431569456 L 780,305.7695616278167"
      stroke="url(#thread-24)"
      stroke-width="6.996"
      stroke-linecap="round"
      fill="none"
      opacity="0.6727272727272728"
      class="thread"
      style="animation-delay: 2.4000000000000004s"
    >
      <title>2026-01-11: 3498 stars, TypeScript, Unknown, Shell, Python</title>
    </path>

    <path
      d="M 20,319.7347124105952 L 35.2,323.1438611507867 L 50.400000000000006,323.8164840986443 L 65.6,321.16710691002675 L 80.80000000000001,317.5018393851264 L 96,316.011057509595 L 111.2,317.9923895365489 L 126.4,321.7212153460506 L 141.60000000000002,323.95183561697445 L 156.79999999999998,322.7426410951209 L 172,319.1461566339406 L 187.2,316.2928870546421 L 202.4,316.6664171663949 L 217.6,319.94161340381584 L 232.8,323.2676313597292 L 248,323.74938964040194 L 263.20000000000005,320.9675491282648 L 278.40000000000003,317.3435202948705 L 293.59999999999997,316.0317835383954 L 308.8,318.1741200300431 L 324,321.9057657792713 L 339.2,323.97856689160506 L 354.4,322.5882853825328 L 369.6,318.94507050028994 L 384.8,316.2201028454503 L 400,316.785288781906 L 415.2,320.14867086675645 L 430.40000000000003,323.38264467244494 L 445.6,323.67224722620006 L 460.79999999999995,320.765398420197 L 476,317.1923202809562 L 491.2,316.06314395520786 L 506.40000000000003,318.36074368303406 L 521.6,322.08520896772535 L 536.8000000000001,323.9946360401983 L 552,322.4269933469618 L 567.1999999999999,318.74681146282563 L 582.4,316.1574483490339 L 597.6,316.91277547342673 L 612.8000000000001,320.35532990796315 L 628,323.48859286577976 L 643.1999999999999,323.58526358930845 L 658.4,320.5611965277085 L 673.6,317.04864454295654 L 688.8,316.10505471753015 L 704,318.5517603644534 L 719.2,322.2590640232073 L 734.4,323.9999999991857 L 749.6,322.2591972334999 L 764.8,318.55191083417935 L 780,316.105091472621"
      stroke="url(#thread-25)"
      stroke-width="7.724"
      stroke-linecap="round"
      fill="none"
      opacity="0.6590909090909091"
      class="thread"
      style="animation-delay: 2.5s"
    >
      <title>2026-01-10: 3862 stars, TypeScript, Unknown, Shell, Python</title>
    </path>

    <path
      d="M 20,333.68066814730656 L 35.2,335.9525232492471 L 50.400000000000006,334.70329060024454 L 65.6,331.0458435475509 L 80.80000000000001,328.2384025252688 L 96,328.78196387717327 L 111.2,332.19229839134465 L 126.4,335.43132473916467 L 141.60000000000002,335.61357070982126 L 156.79999999999998,332.5766832912076 L 172,329.0260601284129 L 187.2,328.1247580685064 L 202.4,330.675698041464 L 217.6,334.40638652207156 L 232.8,335.9933562760366 L 248,334.0228623588183 L 263.20000000000005,330.250310509408 L 278.40000000000003,328.0364617579367 L 293.59999999999997,329.3535134147507 L 308.8,333.02817587123087 L 324,335.7868924274065 L 339.2,335.17207271334763 L 354.4,331.7314261358549 L 369.6,328.53003739029145 L 384.8,328.41984939695703 L 400,331.49902263946285 L 415.2,335.02448933464433 L 430.40000000000003,335.8556031626788 L 445.6,333.25197006767064 L 460.79999999999995,329.5330250081694 L 476,328.011773644024 L 491.2,330.04341598460013 L 506.40000000000003,333.818072490021 L 521.6,335.97310720671254 L 536.8000000000001,334.5887170455355 L 552,330.8981798221169 L 567.1999999999999,328.1891942019242 L 582.4,328.8750479718309 L 597.6,332.3447513524304 L 612.8000000000001,335.50733452459224 L 628,335.5454243404268 L 643.1999999999999,332.4250886569679 L 658.4,328.9260646347624 L 673.6,328.1654422560617 L 688.8,330.8208185827543 L 704,334.5266634285618 L 719.2,335.98164140071844 L 734.4,333.88959184624684 L 749.6,330.11420780275756 L 764.8,328.0187733478759 L 780,329.4699969426825"
      stroke="url(#thread-26)"
      stroke-width="7.822"
      stroke-linecap="round"
      fill="none"
      opacity="0.6454545454545455"
      class="thread"
      style="animation-delay: 2.6s"
    >
      <title>2026-01-09: 3911 stars, TypeScript, Unknown, Python, Shell</title>
    </path>

    <path
      d="M 20,347.21513770620646 L 35.2,347.80892235171945 L 50.400000000000006,345.23148418358295 L 65.6,341.62874006877524 L 80.80000000000001,340.0002534726587 L 96,341.70186559346513 L 111.2,345.3168525709541 L 126.4,347.83545780851676 L 141.60000000000002,347.16074740978985 L 156.79999999999998,343.85447003002844 L 172,340.66935761983785 L 187.2,340.2572629098663 L 202.4,342.9612866580109 L 217.6,346.53011969938535 L 232.8,347.9924321632708 L 248,346.1307356847327 L 263.20000000000005,342.4950367484571 L 278.40000000000003,340.11233626063836 L 293.59999999999997,340.9664168892674 L 308.8,344.3461903725996 L 324,347.43773356240587 L 339.2,347.66709734983374 L 354.4,344.84331862034554 L 369.6,341.3174118343986 L 384.8,340.02496743093917 L 400,342.04204546033134 L 415.2,345.6892722643455 L 430.40000000000003,347.9300490941985 L 445.6,346.8987557174591 L 460.79999999999995,343.4540237316986 L 476,340.46385926868294 L 491.2,340.41780579663185 L 506.40000000000003,343.35420639732286 L 521.6,346.82828018129476 L 536.8000000000001,347.9475916975964 L 552,345.7802274315105 L 567.1999999999999,342.1306859712 L 582.4,340.03749319605754 L 597.6,341.24339418433374 L 612.8000000000001,344.74438298056526 L 628,347.6256153018465 L 643.1999999999999,347.4882421234535 L 658.4,344.4466372543213 L 673.6,341.0331722842106 L 688.8,340.0898211330996 L 704,342.40199668564196 L 719.2,346.0446337437837 L 734.4,347.98495487760175 L 749.6,346.6074924883428 L 764.8,343.05909068318334 L 780,340.29406874653637"
      stroke="url(#thread-27)"
      stroke-width="7.54"
      stroke-linecap="round"
      fill="none"
      opacity="0.6318181818181818"
      class="thread"
      style="animation-delay: 2.7s"
    >
      <title>2026-01-08: 3770 stars, TypeScript, Unknown, Python, Rust, JavaScript</title>
    </path>

    <path
      d="M 20,359.9624294227795 L 35.2,358.90329833743544 L 50.400000000000006,355.6663938587684 L 65.6,352.6797284164606 L 80.80000000000001,352.18360933654486 L 96,354.5501771318403 L 111.2,358.0042617098921 L 126.4,359.95494315200756 L 141.60000000000002,358.939009052933 L 156.79999999999998,355.71851483832216 L 172,352.70916354616367 L 187.2,352.16827923121326 L 202.4,354.5015809526445 L 217.6,357.95885160668695 L 232.8,359.94678138883023 L 248,358.9742177945162 L 263.20000000000005,355.7706838946956 L 278.40000000000003,352.7391607408438 L 293.59999999999997,352.1536035722742 L 308.8,354.453240698919 L 324,357.91310693751393 L 339.2,359.93794552725217 L 354.4,359.00891854863806 L 369.6,355.82289211757075 L 384.8,352.7697148770702 L 400,352.13958486628627 L 415.2,354.40516462703397 L 430.40000000000003,357.8670355154251 L 445.6,359.92843707641197 L 460.79999999999995,359.0431053885138 L 476,355.87513058993994 L 491.2,352.8008207362883 L 506.40000000000003,352.12622550760227 L 521.6,354.35736094823807 L 536.8000000000001,357.8206452092808 L 552,359.91825766032446 L 567.1999999999999,359.0767724751341 L 582.4,355.9273903896291 L 597.6,352.83247300571077 L 612.8000000000001,352.1135277779604 L 628,354.3098378272558 L 643.1999999999999,357.773943942406 L 658.4,359.90740901760336 L 673.6,359.1099140582616 L 688.8,355.97966259082165 L 704,352.86466627922516 L 719.2,352.1014938460949 L 734.4,354.2626033808936 L 749.6,357.7269396912367 L 764.8,359.89589300116415 L 780,359.1425244774136"
      stroke="url(#thread-28)"
      stroke-width="7.128"
      stroke-linecap="round"
      fill="none"
      opacity="0.6181818181818182"
      class="thread"
      style="animation-delay: 2.8000000000000003s"
    >
      <title>2026-01-07: 3564 stars, TypeScript, Python, Unknown, Shell, Rust</title>
    </path>

    <path
      d="M 20,371.7395802220987 L 35.2,368.58333736774813 L 50.400000000000006,364.8291382271922 L 65.6,364.3252652864783 L 80.80000000000001,367.5882189603009 L 96,371.2732732483508 L 111.2,371.60302334446317 L 126.4,368.23945534150835 L 141.60000000000002,364.63043104750005 L 156.79999999999998,364.4754198998254 L 172,367.93331775413947 L 187.2,371.45956896672465 L 202.4,371.4395515437179 L 217.6,367.8937845613559 L 232.8,364.4568948646622 L 248,364.65190345787266 L 263.20000000000005,368.27891467062364 L 278.40000000000003,371.6200213796769 L 293.59999999999997,371.2503859695829 L 308.8,367.54890722051573 L 324,364.3098260102788 L 339.2,364.8533976118501 L 354.4,368.62242806829687 L 369.6,371.75343189259854 L 384.8,371.0369397066806 L 400,367.2073995851462 L 415.2,364.1903231025183 L 430.40000000000003,365.07839718148455 L 445.6,368.9612918697845 L 460.79999999999995,371.8588039164157 L 476,370.8008072186614 L 491.2,366.8718127493894 L 506.40000000000003,364.09927883933636 L 521.6,365.32522139883827 L 536.8000000000001,369.292974730632 L 552,371.9353503122044 L 567.1999999999999,370.5437524374101 L 582.4,366.54465357845754 L 597.6,364.0373733299382 L 612.8000000000001,365.5920264638033 L 628,369.61499894868695 L 643.1999999999999,371.9824992711917 L 658.4,370.26769558630866 L 673.6,366.22836598211427 L 688.8,364.0050690142988 L 704,365.87681931746147 L 719.2,369.9249589727663 L 734.4,371.9998985862216 L 749.6,369.9746988359875 L 764.8,365.92531265843894 L 780,364.00260720869306"
      stroke="url(#thread-29)"
      stroke-width="8"
      stroke-linecap="round"
      fill="none"
      opacity="0.6045454545454546"
      class="thread"
      style="animation-delay: 2.9000000000000004s"
    >
      <title>2026-01-06: 4224 stars, TypeScript, Python, Rust, JavaScript, Go</title>
    </path>

    <path
      d="M 20,382.6011513606285 L 35.2,379.05683338095474 L 50.400000000000006,376.2954662584879 L 65.6,376.60934354130455 L 80.80000000000001,379.7379062966808 L 96,383.0840408845823 L 111.2,383.8700207707734 L 126.4,381.44338051254823 L 141.60000000000002,377.818546863298 L 156.79999999999998,376.004602794795 L 172,377.5073576038075 L 187.2,381.0793295176247 L 202.4,383.7553176742046 L 217.6,383.3139041620536 L 232.8,380.12151955742684 L 248,376.8282579288114 L 263.20000000000005,376.1679543834563 L 278.40000000000003,378.68874666967986 L 293.59999999999997,382.2980496159063 L 308.8,383.99967275206984 L 324,382.38104775121775 L 339.2,378.78584370248353 L 354.4,376.1985471588793 L 369.6,376.7669504677573 L 384.8,380.01920501940333 L 400,383.25551690927483 L 415.2,383.78932671383217 L 430.40000000000003,381.17750292733285 L 445.6,377.5881986960186 L 460.79999999999995,376.0010029577685 L 476,377.7334944295605 L 491.2,381.3474800545662 L 506.40000000000003,383.8428821308243 L 521.6,383.14819266045845 L 536.8000000000001,379.8400941779567 L 552,376.66473830732554 L 567.1999999999999,376.2580830549715 L 582.4,378.9577051247231 L 597.6,382.52256738595486 L 612.8000000000001,383.99337091216177 L 628,382.1491576473934 L 643.1999999999999,378.52086425476506 L 658.4,376.1204457426424 L 673.6,376.94056140766634 L 688.8,380.30040867479516 L 704,383.410877704088 L 719.2,383.6898749994181 L 734.4,380.90579655028927 L 749.6,377.36978925721763 L 764.8,376.01719867346617 L 780,377.97085075111346"
      stroke="url(#thread-30)"
      stroke-width="7.528"
      stroke-linecap="round"
      fill="none"
      opacity="0.5909090909090909"
      class="thread"
      style="animation-delay: 3s"
    >
      <title>2026-01-05: 3764 stars, Go, TypeScript, Python, Rust, JavaScript</title>
    </path>

    <path
      d="M 20,392.82586992775117 L 35.2,389.2040722106539 L 50.400000000000006,388.06833802275236 L 65.6,390.42853155086925 L 80.80000000000001,394.18603241058196 L 96,395.9997722510379 L 111.2,394.25702255829304 L 126.4,390.50738932294547 L 141.60000000000002,388.08494521660657 L 156.79999999999998,389.1436621577331 L 172,392.74215761666693 L 187.2,395.680746553429 L 202.4,395.3465149969147 L 217.6,392.0366526263864 L 232.8,388.69419972971656 L 248,388.2911752110161 L 263.20000000000005,391.18593759482593 L 278.40000000000003,394.80454229806344 L 293.59999999999997,395.92942368345626 L 308.8,393.5603675832592 L 324,389.80387474179093 L 339.2,388.00011720728713 L 354.4,389.75294749665795 L 369.6,393.5037962248574 L 384.8,395.91750993683576 L 400,394.84787954517145 L 415.2,391.2459915251908 L 430.40000000000003,388.3145474905915 L 445.6,388.6601083583135 L 460.79999999999995,391.9754107313426 L 476,395.3125772184063 L 491.2,395.70428944813716 L 506.40000000000003,392.8022474780314 L 521.6,389.1868687028326 L 536.8000000000001,388.0728503516677 L 552,390.45074747543583 L 567.1999999999999,394.206198130275 L 582.4,395.99995695217194 L 597.6,394.2370620096047 L 612.8000000000001,390.4850319056003 L 628,388.0800705426892 L 643.1999999999999,389.1606046557252 L 658.4,392.7658524746258 L 673.6,395.69012494317343 L 688.8,395.3332379074033 L 704,392.0125256872688 L 719.2,388.6806759640787 L 734.4,388.3002795862616 L 749.6,391.20957474621025 L 764.8,394.821694708534 L 780,395.92483989256"
      stroke="url(#thread-31)"
      stroke-width="7.814"
      stroke-linecap="round"
      fill="none"
      opacity="0.5772727272727273"
      class="thread"
      style="animation-delay: 3.1s"
    >
      <title>2026-01-04: 3907 stars, Python, Jupyter Notebook, TypeScript, Go, Rust</title>
    </path>

    <path
      d="M 20,402.84838673333974 L 35.2,400.17995185262725 L 50.400000000000006,400.8810945694233 L 65.6,404.3333528382175 L 80.80000000000001,407.4915681493343 L 96,407.5699505991133 L 111.2,404.4993608111321 L 126.4,400.98829620782124 L 141.60000000000002,400.1337870291943 L 156.79999999999998,402.68957638897285 L 172,406.40126061515514 L 187.2,407.99484746076615 L 202.4,406.0646702097076 L 217.6,402.3132943201819 L 232.8,400.0497231527549 L 248,401.2706013574093 L 263.20000000000005,404.8990200343137 L 278.40000000000003,407.7344335839351 L 293.59999999999997,407.2757881954602 L 308.8,403.92764453581907 L 324,400.6433239856665 L 339.2,400.3198510122051 L 354.4,403.2425537690931 L 369.6,406.83338262086716 L 384.8,407.92494909789605 L 400,405.5544072345555 L 415.2,401.81275809902905 L 430.40000000000003,400.0004253033797 L 445.6,401.7160263916429 L 460.79999999999995,405.446268659053 L 476,407.90079023250394 L 491.2,406.9145134513412 L 506.40000000000003,403.3574106349017 L 521.6,400.3671212840259 L 536.8000000000001,400.581311631719 L 552,403.8110492432719 L 567.1999999999999,407.20745602032764 L 582.4,407.7746387839314 L 597.6,405.0122985168452 L 612.8000000000001,401.35703274914755 L 628,400.0330682886196 L 643.1999999999999,402.2082440770716 L 658.4,405.963887018079 L 673.6,407.98722988200285 L 688.8,406.49352794224967 L 704,402.80034171098447 L 719.2,400.1653467745364 L 734.4,400.9128122428407 L 749.6,404.38341582472634 L 764.8,407.51581702703817 L 780,407.54699598444336"
      stroke="url(#thread-32)"
      stroke-width="7.78"
      stroke-linecap="round"
      fill="none"
      opacity="0.5636363636363636"
      class="thread"
      style="animation-delay: 3.2s"
    >
      <title>2026-01-03: 3890 stars, Go, Python, Jupyter Notebook, TypeScript, Rust, JavaScript</title>
    </path>

    <path
      d="M 20,413.1528586305235 L 35.2,412.0277067940708 L 50.400000000000006,412.57581048387317 L 65.6,414.5662910914347 L 80.80000000000001,417.16069523382424 L 96,419.26617783552905 L 111.2,419.9958430366268 L 126.4,419.04233277799165 L 141.60000000000002,416.80729573631766 L 156.79999999999998,414.2322001989366 L 172,412.4017578462769 L 187.2,412.0870088869281 L 202.4,413.4205355368324 L 217.6,415.84061419687816 L 232.8,418.3278311979412 L 248,419.83449207834065 L 263.20000000000005,419.7259436255298 L 278.40000000000003,418.04790988079066 L 293.59999999999997,415.50723172697553 L 308.8,413.17412315406915 L 324,412.0313632799729 L 339.2,412.5603187046295 L 354.4,414.53817667440643 L 369.6,417.13180086061146 L 384.8,419.2486747299437 L 400,419.9971040602953 L 415.2,419.06182674786373 L 430.40000000000003,416.83681117576606 L 445.6,414.25930427140906 L 460.79999999999995,412.4150334592534 L 476,412.08086393236795 L 491.2,413.39755846393683 L 506.40000000000003,415.81048367542473 L 521.6,418.3032391564753 L 536.8000000000001,419.8257974624767 L 552,419.736808882446 L 567.1999999999999,418.0737582206488 L 582.4,415.5371750115467 L 597.6,413.19554832490434 L 612.8000000000001,412.03524537752287 L 628,412.54502246663094 L 643.1999999999999,414.5101453600637 L 658.4,417.10284214604536 L 673.6,419.230986941579 L 688.8,419.998137853986 L 704,419.0811466570125 L 719.2,416.8662790436271 L 734.4,414.2865073000873 L 749.6,412.42851287274533 L 764.8,412.07494177541025 L 780,413.3747293363345"
      stroke="url(#thread-33)"
      stroke-width="5.26"
      stroke-linecap="round"
      fill="none"
      opacity="0.55"
      class="thread"
      style="animation-delay: 3.3000000000000003s"
    >
      <title>2026-01-02: 2630 stars, TypeScript, Rust, Python, JavaScript, Jupyter Notebook, Shell</title>
    </path>

    <path
      d="M 20,424.1544100324818 L 35.2,424.8172369663838 L 50.400000000000006,428.0370459493249 L 65.6,431.22709279590435 L 80.80000000000001,431.8245437556529 L 96,429.3494160704691 L 111.2,425.79018861648973 L 126.4,424.0062890709089 L 141.60000000000002,425.43087443195805 L 156.79999999999998,428.91945509828975 L 172,431.6693599171289 L 187.2,431.4713583601352 L 202.4,428.48452178184164 L 217.6,425.10842798098633 L 232.8,424.05537792169457 L 248,426.1713755539648 L 263.20000000000005,429.75646147008183 L 278.40000000000003,431.9304337087457 L 293.59999999999997,430.9467569700736 L 308.8,427.5957017631408 L 324,424.56945343726966 L 339.2,424.29925257287977 L 354.4,427.0021743190107 L 369.6,430.5067336132129 L 384.8,431.99742232295444 L 400,430.27664445027517 L 415.2,426.7268460284964 L 430.40000000000003,424.19987959779394 L 445.6,424.7258704717979 L 460.79999999999995,427.8822458077986 L 476,431.1332230203694 L 491.2,431.86701785583494 L 506.40000000000003,429.4941110184935 L 521.6,425.9208587538587 L 536.8000000000001,424.0179560526847 L 552,425.3141651874307 L 567.1999999999999,428.76813200940893 L 582.4,431.6049935871053 L 597.6,431.5456596919467 L 612.8000000000001,428.6377982474379 L 628,425.21753966485045 L 643.1999999999999,424.0326662033027 L 658.4,426.0350866727063 L 673.6,429.61608778186906 L 688.8,431.89874923951976 L 704,431.0492165269277 L 719.2,427.7499909403647 L 734.4,424.6516187226616 L 749.6,424.24328366105976 L 764.8,426.85303575849093 L 780,430.38424099128054"
      stroke="url(#thread-34)"
      stroke-width="7.396"
      stroke-linecap="round"
      fill="none"
      opacity="0.5363636363636364"
      class="thread"
      style="animation-delay: 3.4000000000000004s"
    >
      <title>2026-01-01: 3698 stars, Rust, Python, JavaScript, TypeScript, Jupyter Notebook, Go, Shell</title>
    </path>

    <path
      d="M 20,436.09749597812737 L 35.2,438.3730114289745 L 50.400000000000006,441.9589020239925 L 65.6,443.9670946758173 L 80.80000000000001,442.78019281355637 L 96,439.35412613860683 L 111.2,436.4482456956391 L 126.4,436.40294500198274 L 141.60000000000002,439.2547091959098 L 156.79999999999998,442.7067299388078 L 172,443.9787528028262 L 187.2,442.0462917076625 L 202.4,438.46574909601105 L 217.6,436.12089079420184 L 232.8,436.90026358738953 L 248,440.17616132297803 L 263.20000000000005,443.31017888613906 L 278.40000000000003,443.77818132638987 L 293.59999999999997,441.2032398957127 L 308.8,437.6592101260665 L 324,436.000450433392 L 339.2,437.56292439490306 L 354.4,441.0882168753982 L 369.6,443.7370604549091 L 384.8,443.37607887671146 L 400,440.29600638196564 L 415.2,436.9775306111604 L 430.40000000000003,436.0933489907169 L 445.6,438.35558060923563 L 460.79999999999995,441.94222613859824 L 476,443.9646044679928 L 491.2,442.7938938944627 L 506.40000000000003,439.3729836699006 L 521.6,436.45707183843325 L 536.8000000000001,436.3946311887419 L 552,439.23595136440406 L 567.1999999999999,442.69263562980376 L 582.4,443.9806735602266 L 597.6,442.06268055516995 L 612.8000000000001,438.4834064704585 L 628,436.125595461956 L 643.1999999999999,436.88822641323674 L 658.4,440.15707703624633 L 673.6,443.29941795434297 L 688.8,443.7844105944015 L 704,441.22144231663066 L 719.2,437.6747254863162 L 734.4,436.0007826756648 L 749.6,437.5478059315688 L 764.8,441.0698241033437 L 780,443.73020689634467"
      stroke="url(#thread-35)"
      stroke-width="7.406"
      stroke-linecap="round"
      fill="none"
      opacity="0.5227272727272727"
      class="thread"
      style="animation-delay: 3.5s"
    >
      <title>2025-12-31: 3703 stars, Go, Python, TypeScript, Rust, Shell</title>
    </path>

    <path
      d="M 20,448.9960510129133 L 35.2,452.9310679797733 L 50.400000000000006,455.8742637302075 L 65.6,454.6903956688411 L 80.80000000000001,450.640580584373 L 96,448.038888566889 L 111.2,449.65677497475554 L 126.4,453.77078448575276 L 141.60000000000002,455.9984638244731 L 156.79999999999998,453.96677506078174 L 172,449.8399769435334 L 187.2,448.01414582538007 L 202.4,450.4342503658989 L 217.6,454.5222714715331 L 232.8,455.92344004502337 L 248,453.14515968184617 L 263.20000000000005,449.1469966749473 L 278.40000000000003,448.1879986804781 L 293.59999999999997,451.28973939454596 L 308.8,455.14808602030274 L 324,455.65293045943093 L 339.2,452.26648660329016 L 354.4,448.59616759218943 L 369.6,448.55178489569175 L 384.8,452.18061723133974 L 400,455.6170468574257 L 415.2,455.20041323578346 L 430.40000000000003,451.37453580215583 L 445.6,448.2149348112941 L 460.79999999999995,449.08737878521265 L 476,453.06249579589627 L 491.2,455.9057879606758 L 506.40000000000003,454.5884350915644 L 521.6,450.5137488193865 L 536.8000000000001,448.0222932950099 L 552,449.7680943280855 L 567.1999999999999,453.8914353975018 L 582.4,455.9999227747121 L 597.6,453.84748790112167 L 612.8000000000001,449.72701445545135 L 628,448.02784142681537 L 643.1999999999999,450.56001480196323 L 658.4,454.62613403474836 L 673.6,455.8947610226864 L 688.8,453.0144894348737 L 704,449.05353183142495 L 719.2,448.23130277046937 L 734.4,451.42368268730684 L 749.6,455.22998527202697 L 764.8,455.5955423997729 L 780,452.13094392757915"
      stroke="url(#thread-36)"
      stroke-width="8"
      stroke-linecap="round"
      fill="none"
      opacity="0.509090909090909"
      class="thread"
      style="animation-delay: 3.6s"
    >
      <title>2025-12-30: 4315 stars, Go, Shell, Rust, Python, Swift, TypeScript</title>
    </path>

    <path
      d="M 20,462.63007752612157 L 35.2,465.8268467242553 L 50.400000000000006,467.8522429865771 L 65.6,467.4075835421252 L 80.80000000000001,464.7779837385467 L 96,461.6495412659387 L 111.2,460.0282114105342 L 126.4,460.9535898250112 L 141.60000000000002,463.83232446964405 L 156.79999999999998,466.81857255568883 L 172,467.99755374543616 L 187.2,466.6133060639894 L 202.4,463.55340822771194 L 217.6,460.7798647464381 L 232.8,460.07106990312883 L 248,461.8815024920213 L 263.20000000000005,465.05031431026197 L 278.40000000000003,467.54566527335714 L 293.59999999999997,467.7675379607355 L 308.8,465.57366774902175 L 324,462.37076279635806 L 339.2,460.2125236829382 L 354.4,460.48281192976714 L 369.6,463.00831888812246 L 384.8,466.16969113281306 L 400,467.9398588290847 L 415.2,467.18379159714095 L 430.40000000000003,464.38627925617936 L 445.6,461.3410849064611 L 460.79999999999995,460.00078519176645 L 476,461.2247794206551 L 491.2,464.2282432867013 L 506.40000000000003,467.0853577052142 L 521.6,467.96414276242837 L 536.8000000000001,466.30112204910307 L 552,463.1626233689997 L 567.1999999999999,460.56105004208104 L 582.4,460.16452919977075 L 597.6,462.22730974921615 L 612.8000000000001,465.42673813877656 L 628,467.71134295826715 L 643.1999999999999,467.6162370778344 L 658.4,465.202402326384 L 673.6,462.0175879824023 L 688.8,460.10389493951874 L 704,460.688381936774 L 719.2,463.39627629027046 L 734.4,466.49127789523783 L 749.6,467.98887372810486 L 764.8,466.9288063112661 L 780,463.9907901854842"
      stroke="url(#thread-37)"
      stroke-width="6.556"
      stroke-linecap="round"
      fill="none"
      opacity="0.4954545454545455"
      class="thread"
      style="animation-delay: 3.7s"
    >
      <title>2025-12-29: 3278 stars, Shell, Go, JavaScript, TypeScript, Rust, Python</title>
    </path>

    <path
      d="M 20,476.5995088386518 L 35.2,479.57247526462805 L 50.400000000000006,479.53454588554996 L 65.6,476.51768772704963 L 80.80000000000001,473.0645203738755 L 96,472.08538646737975 L 111.2,474.4055038056655 L 126.4,478.06946862981954 L 141.60000000000002,479.9892773843964 L 156.79999999999998,478.5469079145908 L 172,474.9579947214938 L 187.2,472.24728755909 L 202.4,472.6993807826779 L 217.6,475.93324849576715 L 232.8,479.2233746317112 L 248,479.79682831009285 L 263.20000000000005,477.1703005793491 L 278.40000000000003,473.557439048088 L 293.59999999999997,472.00317722121616 L 308.8,473.81745290595086 L 324,477.4711876220388 L 339.2,479.8849997882065 L 354.4,479.02451928655194 L 369.6,475.6149623721504 L 384.8,472.5299166419015 L 400,472.3694704265986 L 415.2,475.2688484096357 L 430.40000000000003,478.7844437470891 L 445.6,479.95329925389086 L 460.79999999999995,477.79029904218874 L 476,474.11842795619657 L 491.2,472.0323529790503 L 506.40000000000003,473.2902260733143 L 521.6,476.83190698824717 L 536.8000000000001,479.67245351439664 L 552,479.41784218452517 L 567.1999999999999,476.2826604004322 L 582.4,472.9092513506831 L 597.6,472.1407370737113 L 612.8000000000001,474.6248243389854 L 628,478.2679149065238 L 643.1999999999999,479.99959812412675 L 658.4,478.3604047584623 L 673.6,474.73185324220356 L 688.8,472.1721006595716 L 704,472.83851626916817 L 719.2,476.1694424485532 L 734.4,479.3575618847822 L 749.6,479.7159153337711 L 764.8,476.9424811392832 L 780,473.37472023896544"
      stroke="url(#thread-38)"
      stroke-width="7.59"
      stroke-linecap="round"
      fill="none"
      opacity="0.4818181818181818"
      class="thread"
      style="animation-delay: 3.8000000000000003s"
    >
      <title>2025-12-28: 3795 stars, Shell, Rust, Python, JavaScript, TypeScript</title>
    </path>

    <path
      d="M 20,490.4221594788784 L 35.2,491.6311889601651 L 50.400000000000006,487.14604364797714 L 65.6,484.00001254542127 L 80.80000000000001,487.1264800618966 L 96,491.6227400258902 L 111.2,490.4380742201057 L 126.4,485.43019212867927 L 141.60000000000002,484.45210175712026 L 156.79999999999998,489.0375755421069 L 172,491.99599643532605 L 187.2,488.68817714483043 L 202.4,484.30120692208465 L 217.6,485.7144235091122 L 232.8,490.7117201827844 L 248,491.4566882442146 L 263.20000000000005,486.7811212453565 L 278.40000000000003,484.0169140675189 L 293.59999999999997,487.498701732083 L 308.8,491.7665900354461 L 324,490.12797711497456 L 339.2,485.15242034990945 L 354.4,484.64223744553703 L 369.6,489.39746130182704 L 384.8,491.96128476364186 L 400,488.3133004406371 L 415.2,484.174020431445 L 430.40000000000003,486.0343721292805 L 445.6,490.977083020644 L 460.79999999999995,491.2513419861508 L 476,486.4270754313377 L 491.2,484.069358408694 L 506.40000000000003,487.87539670612045 L 521.6,491.8768291135688 L 536.8000000000001,489.7988911386814 L 552,484.90005877067523 L 567.1999999999999,484.8623359188401 L 582.4,489.7448769027154 L 597.6,491.89122481425164 L 612.8000000000001,487.93562801948775 L 628,484.08097483103575 L 643.1999999999999,486.37186090724765 L 658.4,491.215880043712 L 673.6,491.01698258050965 L 688.8,486.08706551167677 L 704,484.15687758513656 L 719.2,488.25320356988504 L 734.4,491.9524735487154 L 749.6,489.4537528694261 L 764.8,484.67535932380076 L 780,485.11043314202016"
      stroke="url(#thread-39)"
      stroke-width="8"
      stroke-linecap="round"
      fill="none"
      opacity="0.4681818181818182"
      class="thread"
      style="animation-delay: 3.9000000000000004s"
    >
      <title>2025-12-27: 5384 stars, Shell, Python, Rust, C, Go</title>
    </path>

    <path
      d="M 20,503.6517810029105 L 35.2,503.44016482134896 L 50.400000000000006,500.3178735807817 L 65.6,496.92663397536967 L 80.80000000000001,496.1357261271958 L 96,498.61432604008564 L 111.2,502.2653251967579 L 126.4,503.9996645731133 L 141.60000000000002,502.3499440215537 L 156.79999999999998,498.7119688924376 L 172,496.16377876337134 L 187.2,496.86136145454594 L 202.4,500.21450206457195 L 217.6,503.3861554953848 L 232.8,503.69283039808545 L 248,500.8750534518102 L 263.20000000000005,497.3169060902354 L 278.40000000000003,496.02888673987025 L 293.59999999999997,498.1007704531653 L 308.8,501.7795655676213 L 324,503.9526952902925 L 339.2,502.78150513447815 L 354.4,499.256922614676 L 369.6,496.3610474169625 L 384.8,496.54403880686743 L 400,499.65107034372045 L 415.2,503.0533263539991 L 430.40000000000003,503.8722058904421 L 445.6,501.4148664972858 L 460.79999999999995,497.76042846515855 L 476,496.0008604023039 L 491.2,497.6249080930491 L 506.40000000000003,501.2584876334043 L 521.6,503.82727849157624 L 536.8000000000001,503.1578628602894 L 552,499.81662388781723 L 567.1999999999999,496.63053686412246 L 582.4,496.2953051979894 L 597.6,499.09456368608454 L 612.8000000000001,502.65989910167946 L 628,503.9747313068804 L 643.1999999999999,501.92659926996413 L 658.4,498.24839869418514 L 673.6,496.05220334167853 L 688.8,497.1961832040609 L 704,500.712433013312 L 719.2,503.625903272528 L 734.4,503.47154778216947 L 749.6,500.37996455115143 L 764.8,496.96689865875635 L 780,496.1200971414307"
      stroke="url(#thread-40)"
      stroke-width="7.606"
      stroke-linecap="round"
      fill="none"
      opacity="0.4545454545454546"
      class="thread"
      style="animation-delay: 4s"
    >
      <title>2025-12-26: 3803 stars, Python, Shell, Go, TypeScript</title>
    </path>

    <path
      d="M 20,515.9873191771152 L 35.2,514.2873305339333 L 50.400000000000006,510.91892363181313 L 65.6,508.339072439168 L 80.80000000000001,508.4295648180045 L 96,511.1243940697255 L 111.2,514.4579053571348 L 126.4,515.9985781737814 L 141.60000000000002,514.6226192505206 L 156.79999999999998,511.3336767077533 L 172,508.53076184251125 L 187.2,508.2583689987657 L 202.4,510.71518620492674 L 217.6,514.1091687062801 L 232.8,515.9646872521474 L 248,514.9282946796475 L 263.20000000000005,511.75595356862374 L 278.40000000000003,508.7616241249548 L 293.59999999999997,508.1294217805729 L 308.8,510.3204858063716 L 324,513.736616391299 L 339.2,515.8860290913248 L 354.4,515.2009052892813 L 369.6,512.180986078117 L 384.8,509.02905250660376 L 400,508.0441791700647 L 415.2,509.9447496309304 L 430.40000000000003,513.3444550841266 L 445.6,515.7634918594025 L 460.79999999999995,515.4373728985744 L 476,512.6039749845382 L 491.2,509.33002732170263 L 506.40000000000003,508.0036036835989 L 521.6,509.592220301077 L 536.8000000000001,512.9371128715003 L 552,515.5984591847026 L 567.1999999999999,515.6350274351219 L 582.4,513.0201441115222 L 597.6,509.6611501151703 L 612.8000000000001,508.00815347900544 L 628,509.266878399346 L 643.1999999999999,512.5191892552481 L 658.4,515.3927945325511 L 673.6,515.7916370840665 L 688.8,513.4247942881975 L 704,510.01868201623233 L 719.2,508.0577771823004 L 734.4,508.9723975216117 L 749.6,512.0954032170454 L 764.8,515.1488201639713 L 780,515.9054334886202"
      stroke="url(#thread-41)"
      stroke-width="7.022"
      stroke-linecap="round"
      fill="none"
      opacity="0.440909090909091"
      class="thread"
      style="animation-delay: 4.1000000000000005s"
    >
      <title>2025-12-25: 3511 stars, Python, TypeScript</title>
    </path>

    <path
      d="M 20,527.3466225541442 L 35.2,525.0488530697442 L 50.400000000000006,522.2223491893467 L 65.6,520.2919719016801 L 80.80000000000001,520.2308383178861 L 96,522.0697663184047 L 111.2,524.8817390372091 L 126.4,527.2492207489175 L 141.60000000000002,527.9787468501606 L 156.79999999999998,526.7025579725081 L 172,524.063990132099 L 187.2,521.3931644046501 L 202.4,520.0364632993545 L 217.6,520.6778096268998 L 232.8,522.993896078663 L 248,525.817166772437 L 263.20000000000005,527.7243905921854 L 278.40000000000003,527.7541222569097 L 293.59999999999997,525.8913738200197 L 308.8,523.0751702012925 L 324,520.7251799532706 L 339.2,520.026050106344 L 354.4,521.3302170579469 L 369.6,523.9802408431052 L 384.8,526.6402253617424 L 400,527.9692532362058 L 415.2,527.2973519310291 L 430.40000000000003,524.9632317393987 L 445.6,522.1435394818345 L 460.79999999999995,520.2597023588745 L 476,520.2613762490191 L 491.2,522.1477173321756 L 506.40000000000003,524.9678074654516 L 521.6,527.3000188762941 L 536.8000000000001,527.9686669743427 L 552,526.6366814315841 L 567.1999999999999,523.9755257654007 L 582.4,521.3267077373685 L 597.6,520.0255156167019 L 612.8000000000001,520.7278897346479 L 628,523.0797582333558 L 643.1999999999999,525.8955272427205 L 658.4,527.7557472999132 L 673.6,527.722668059595 L 688.8,525.812965005353 L 704,522.9893332181726 L 719.2,520.6751858438801 L 734.4,520.0371012617464 L 749.6,521.3967425110113 L 764.8,524.0687046332104 L 780,526.706032254362"
      stroke="url(#thread-42)"
      stroke-width="5.776"
      stroke-linecap="round"
      fill="none"
      opacity="0.42727272727272725"
      class="thread"
      style="animation-delay: 4.2s"
    >
      <title>2025-12-24: 2888 stars, Python, TypeScript</title>
    </path>

    <path
      d="M 20,537.8865560123768 L 35.2,535.0698535050548 L 50.400000000000006,532.7220445533515 L 65.6,532.0266765804529 L 80.80000000000001,533.3342895959678 L 96,535.9857064492538 L 111.2,538.6443287845452 L 126.4,539.9699259106372 L 141.60000000000002,539.2942547570574 L 156.79999999999998,536.9579260247574 L 172,534.1386998755353 L 187.2,532.2577685413522 L 202.4,532.263323071632 L 217.6,534.1525633876056 L 232.8,536.9731098222103 L 248,539.3031045781028 L 263.20000000000005,539.9679804966679 L 278.40000000000003,538.632568832772 L 293.59999999999997,535.9700602361694 L 308.8,533.3226444904169 L 324,532.0249029641193 L 339.2,532.7310365190191 L 354.4,535.0850781379871 L 369.6,537.9003384653241 L 384.8,539.7576244684797 L 400,539.7206648799132 L 415.2,537.8080912947461 L 430.40000000000003,534.9840458493029 L 445.6,532.6721502175234 L 460.79999999999995,532.0378476590398 L 476,533.4008946676968 L 491.2,536.0741694171604 L 506.40000000000003,538.7100548285795 L 521.6,539.9797820580346 L 536.8000000000001,539.2432724528397 L 552,536.8718058161269 L 567.1999999999999,534.0608555806967 L 582.4,532.2274420306883 L 597.6,532.2958021578603 L 612.8000000000001,534.2314751291436 L 628,537.0586742410968 L 643.1999999999999,539.3521880337507 L 658.4,539.9558396651322 L 673.6,538.5653239947803 L 688.8,535.8816099994726 L 704,533.2575772571704 L 719.2,532.0160195958186 L 734.4,532.7828151856847 L 749.6,535.1714168403641 L 764.8,537.9777132409346 L 780,539.7870301349695"
      stroke="url(#thread-43)"
      stroke-width="5.776"
      stroke-linecap="round"
      fill="none"
      opacity="0.41363636363636364"
      class="thread"
      style="animation-delay: 4.3s"
    >
      <title>2025-12-23: 2888 stars, Python, TypeScript</title>
    </path>
  </g>

  <!-- Date markers -->
  <g id="dates">
    <text x="785" y="24" class="date-label">02-04</text>
<text x="785" y="108" class="date-label">01-28</text>
<text x="785" y="192" class="date-label">01-21</text>
<text x="785" y="276" class="date-label">01-14</text>
<text x="785" y="360" class="date-label">01-07</text>
<text x="785" y="444" class="date-label">12-31</text>
<text x="785" y="528" class="date-label">12-24</text>
  </g>

</svg>