<?xml version="1.0" encoding="UTF-8"?>
<svg xmlns="http://www.w3.org/2000/svg" viewBox="0 0 800 520" width="800" height="520">
  <title>The Data Tapestry - GitHub Trends Woven in Time</title>
  <desc>A living data art piece that weaves daily GitHub trending repositories into an evolving tapestry. Each thread represents one day of open source activity.</desc>

  <style>
    .thread {
      animation: breathe 8s ease-in-out infinite alternate;
    }

    @keyframes breathe {
      0% {
        opacity: 0.85;
      }
      100% {
        opacity: 1;
      }
    }

    .date-label {
      font-family: ui-monospace, monospace;
      font-size: 8px;
      fill: #666;
    }

    .title {
      font-family: system-ui, sans-serif;
      font-size: 14px;
      fill: #333;
      font-weight: 600;
    }

    .subtitle {
      font-family: system-ui, sans-serif;
      font-size: 10px;
      fill: #888;
    }

    .empty-state {
      font-family: system-ui, sans-serif;
      font-size: 12px;
      fill: #999;
      text-anchor: middle;
    }
  </style>

  <defs>
    
    <linearGradient id="thread-0" x1="0%" y1="0%" x2="100%" y2="0%">
      <stop offset="0%" stop-color="#3572A5" />
      <stop offset="50%" stop-color="#f1e05a" />
      <stop offset="100%" stop-color="#8b8b8b" />
    </linearGradient>

    <linearGradient id="thread-1" x1="0%" y1="0%" x2="100%" y2="0%">
      <stop offset="0%" stop-color="#3572A5" />
      <stop offset="50%" stop-color="#3178c6" />
      <stop offset="100%" stop-color="#dea584" />
    </linearGradient>

    <linearGradient id="thread-2" x1="0%" y1="0%" x2="100%" y2="0%">
      <stop offset="0%" stop-color="#3572A5" />
      <stop offset="50%" stop-color="#3178c6" />
      <stop offset="100%" stop-color="#f1e05a" />
    </linearGradient>

    <linearGradient id="thread-3" x1="0%" y1="0%" x2="100%" y2="0%">
      <stop offset="0%" stop-color="#3572A5" />
      <stop offset="50%" stop-color="#3178c6" />
      <stop offset="100%" stop-color="#f1e05a" />
    </linearGradient>

    <linearGradient id="thread-4" x1="0%" y1="0%" x2="100%" y2="0%">
      <stop offset="0%" stop-color="#3572A5" />
      <stop offset="50%" stop-color="#3178c6" />
      <stop offset="100%" stop-color="#f1e05a" />
    </linearGradient>

    <linearGradient id="thread-5" x1="0%" y1="0%" x2="100%" y2="0%">
      <stop offset="0%" stop-color="#3178c6" />
      <stop offset="50%" stop-color="#3572A5" />
      <stop offset="100%" stop-color="#f1e05a" />
    </linearGradient>

    <linearGradient id="thread-6" x1="0%" y1="0%" x2="100%" y2="0%">
      <stop offset="0%" stop-color="#3572A5" />
      <stop offset="50%" stop-color="#3178c6" />
      <stop offset="100%" stop-color="#89e051" />
    </linearGradient>

    <linearGradient id="thread-7" x1="0%" y1="0%" x2="100%" y2="0%">
      <stop offset="0%" stop-color="#3178c6" />
      <stop offset="50%" stop-color="#3572A5" />
      <stop offset="100%" stop-color="#89e051" />
    </linearGradient>

    <linearGradient id="thread-8" x1="0%" y1="0%" x2="100%" y2="0%">
      <stop offset="0%" stop-color="#3572A5" />
      <stop offset="50%" stop-color="#3178c6" />
      <stop offset="100%" stop-color="#8b8b8b" />
    </linearGradient>

    <linearGradient id="thread-9" x1="0%" y1="0%" x2="100%" y2="0%">
      <stop offset="0%" stop-color="#3178c6" />
      <stop offset="50%" stop-color="#3572A5" />
      <stop offset="100%" stop-color="#dea584" />
    </linearGradient>

    <linearGradient id="thread-10" x1="0%" y1="0%" x2="100%" y2="0%">
      <stop offset="0%" stop-color="#3572A5" />
      <stop offset="50%" stop-color="#3178c6" />
      <stop offset="100%" stop-color="#8b8b8b" />
    </linearGradient>

    <linearGradient id="thread-11" x1="0%" y1="0%" x2="100%" y2="0%">
      <stop offset="0%" stop-color="#3572A5" />
      <stop offset="50%" stop-color="#3178c6" />
      <stop offset="100%" stop-color="#41b883" />
    </linearGradient>

    <linearGradient id="thread-12" x1="0%" y1="0%" x2="100%" y2="0%">
      <stop offset="0%" stop-color="#3178c6" />
      <stop offset="50%" stop-color="#f1e05a" />
      <stop offset="100%" stop-color="#89e051" />
    </linearGradient>

    <linearGradient id="thread-13" x1="0%" y1="0%" x2="100%" y2="0%">
      <stop offset="0%" stop-color="#3178c6" />
      <stop offset="50%" stop-color="#3572A5" />
      <stop offset="100%" stop-color="#f1e05a" />
    </linearGradient>

    <linearGradient id="thread-14" x1="0%" y1="0%" x2="100%" y2="0%">
      <stop offset="0%" stop-color="#3178c6" />
      <stop offset="50%" stop-color="#3572A5" />
      <stop offset="100%" stop-color="#f1e05a" />
    </linearGradient>

    <linearGradient id="thread-15" x1="0%" y1="0%" x2="100%" y2="0%">
      <stop offset="0%" stop-color="#3178c6" />
      <stop offset="50%" stop-color="#f1e05a" />
      <stop offset="100%" stop-color="#3572A5" />
    </linearGradient>

    <linearGradient id="thread-16" x1="0%" y1="0%" x2="100%" y2="0%">
      <stop offset="0%" stop-color="#3572A5" />
      <stop offset="50%" stop-color="#3178c6" />
      <stop offset="100%" stop-color="#89e051" />
    </linearGradient>

    <linearGradient id="thread-17" x1="0%" y1="0%" x2="100%" y2="0%">
      <stop offset="0%" stop-color="#3178c6" />
      <stop offset="50%" stop-color="#89e051" />
      <stop offset="100%" stop-color="#3572A5" />
    </linearGradient>

    <linearGradient id="thread-18" x1="0%" y1="0%" x2="100%" y2="0%">
      <stop offset="0%" stop-color="#3572A5" />
      <stop offset="50%" stop-color="#3178c6" />
      <stop offset="100%" stop-color="#89e051" />
    </linearGradient>

    <linearGradient id="thread-19" x1="0%" y1="0%" x2="100%" y2="0%">
      <stop offset="0%" stop-color="#3178c6" />
      <stop offset="50%" stop-color="#3572A5" />
      <stop offset="100%" stop-color="#8b8b8b" />
    </linearGradient>

    <linearGradient id="thread-20" x1="0%" y1="0%" x2="100%" y2="0%">
      <stop offset="0%" stop-color="#3178c6" />
      <stop offset="50%" stop-color="#89e051" />
      <stop offset="100%" stop-color="#3572A5" />
    </linearGradient>

    <linearGradient id="thread-21" x1="0%" y1="0%" x2="100%" y2="0%">
      <stop offset="0%" stop-color="#3572A5" />
      <stop offset="50%" stop-color="#3178c6" />
      <stop offset="100%" stop-color="#89e051" />
    </linearGradient>

    <linearGradient id="thread-22" x1="0%" y1="0%" x2="100%" y2="0%">
      <stop offset="0%" stop-color="#3572A5" />
      <stop offset="50%" stop-color="#3178c6" />
      <stop offset="100%" stop-color="#8b8b8b" />
    </linearGradient>

    <linearGradient id="thread-23" x1="0%" y1="0%" x2="100%" y2="0%">
      <stop offset="0%" stop-color="#3572A5" />
      <stop offset="50%" stop-color="#3178c6" />
      <stop offset="100%" stop-color="#8b8b8b" />
    </linearGradient>

    <linearGradient id="thread-24" x1="0%" y1="0%" x2="100%" y2="0%">
      <stop offset="0%" stop-color="#3178c6" />
      <stop offset="50%" stop-color="#3572A5" />
      <stop offset="100%" stop-color="#dea584" />
    </linearGradient>

    <linearGradient id="thread-25" x1="0%" y1="0%" x2="100%" y2="0%">
      <stop offset="0%" stop-color="#3572A5" />
      <stop offset="50%" stop-color="#3178c6" />
      <stop offset="100%" stop-color="#00ADD8" />
    </linearGradient>

    <linearGradient id="thread-26" x1="0%" y1="0%" x2="100%" y2="0%">
      <stop offset="0%" stop-color="#3572A5" />
      <stop offset="50%" stop-color="#00ADD8" />
      <stop offset="100%" stop-color="#3178c6" />
    </linearGradient>

    <linearGradient id="thread-27" x1="0%" y1="0%" x2="100%" y2="0%">
      <stop offset="0%" stop-color="#3572A5" />
      <stop offset="50%" stop-color="#3178c6" />
      <stop offset="100%" stop-color="#00ADD8" />
    </linearGradient>

    <linearGradient id="thread-28" x1="0%" y1="0%" x2="100%" y2="0%">
      <stop offset="0%" stop-color="#3572A5" />
      <stop offset="50%" stop-color="#00ADD8" />
      <stop offset="100%" stop-color="#DA5B0B" />
    </linearGradient>

    <linearGradient id="thread-29" x1="0%" y1="0%" x2="100%" y2="0%">
      <stop offset="0%" stop-color="#3572A5" />
      <stop offset="50%" stop-color="#3178c6" />
      <stop offset="100%" stop-color="#dea584" />
    </linearGradient>

    <linearGradient id="thread-30" x1="0%" y1="0%" x2="100%" y2="0%">
      <stop offset="0%" stop-color="#dea584" />
      <stop offset="50%" stop-color="#3572A5" />
      <stop offset="100%" stop-color="#3178c6" />
    </linearGradient>

    <linearGradient id="thread-31" x1="0%" y1="0%" x2="100%" y2="0%">
      <stop offset="0%" stop-color="#3572A5" />
      <stop offset="50%" stop-color="#3178c6" />
      <stop offset="100%" stop-color="#dea584" />
    </linearGradient>

    <linearGradient id="thread-32" x1="0%" y1="0%" x2="100%" y2="0%">
      <stop offset="0%" stop-color="#3572A5" />
      <stop offset="50%" stop-color="#dea584" />
      <stop offset="100%" stop-color="#3178c6" />
    </linearGradient>

    <linearGradient id="thread-33" x1="0%" y1="0%" x2="100%" y2="0%">
      <stop offset="0%" stop-color="#3572A5" />
      <stop offset="50%" stop-color="#3178c6" />
      <stop offset="100%" stop-color="#89e051" />
    </linearGradient>

    <linearGradient id="thread-34" x1="0%" y1="0%" x2="100%" y2="0%">
      <stop offset="0%" stop-color="#3572A5" />
      <stop offset="50%" stop-color="#f1e05a" />
      <stop offset="100%" stop-color="#89e051" />
    </linearGradient>

    <linearGradient id="thread-35" x1="0%" y1="0%" x2="100%" y2="0%">
      <stop offset="0%" stop-color="#3572A5" />
      <stop offset="50%" stop-color="#89e051" />
      <stop offset="100%" stop-color="#dea584" />
    </linearGradient>

    <linearGradient id="thread-36" x1="0%" y1="0%" x2="100%" y2="0%">
      <stop offset="0%" stop-color="#3572A5" />
      <stop offset="50%" stop-color="#89e051" />
      <stop offset="100%" stop-color="#00ADD8" />
    </linearGradient>

    <linearGradient id="thread-37" x1="0%" y1="0%" x2="100%" y2="0%">
      <stop offset="0%" stop-color="#3572A5" />
      <stop offset="50%" stop-color="#3178c6" />
      <stop offset="100%" stop-color="#3572A5" />
    </linearGradient>

    <linearGradient id="thread-38" x1="0%" y1="0%" x2="100%" y2="0%">
      <stop offset="0%" stop-color="#3572A5" />
      <stop offset="50%" stop-color="#3178c6" />
      <stop offset="100%" stop-color="#3572A5" />
    </linearGradient>

    <linearGradient id="thread-39" x1="0%" y1="0%" x2="100%" y2="0%">
      <stop offset="0%" stop-color="#3572A5" />
      <stop offset="50%" stop-color="#3178c6" />
      <stop offset="100%" stop-color="#3572A5" />
    </linearGradient>

    <!-- Background pattern -->
    <pattern id="loom" patternUnits="userSpaceOnUse" width="20" height="20">
      <rect width="20" height="20" fill="#fafafa"/>
      <circle cx="10" cy="10" r="0.5" fill="#eee"/>
    </pattern>
  </defs>

  <!-- Background -->
  <rect width="100%" height="100%" fill="url(#loom)"/>

  <!-- Threads -->
  <g id="tapestry">
    
    <path
      d="M 20,20 L 35.2,23.79416209308318 L 50.400000000000006,17.597113373336057 L 65.6,17.727613729601433 L 80.80000000000001,23.84201506814768 L 96,19.839193802548188 L 111.2,16.259825351913985 L 126.4,22.529501952347808 L 141.60000000000002,22.138211878889265 L 156.79999999999998,16.116343796276528 L 172,20.321352400533574 L 187.2,23.680140021034237 L 202.4,17.34797246649971 L 217.6,17.99941961227971 L 232.8,23.919018173669002 L 248,19.51862096476115 L 263.20000000000005,16.38584472300073 L 278.40000000000003,22.770265268544577 L 293.59999999999997,21.859714321977222 L 308.8,16.05195619588867 L 324,20.640627367608722 L 339.2,23.54232710130936 L 354.4,17.115976011429126 L 369.6,18.2841585635357 L 384.8,23.970686165885905 L 400,19.201160077942387 L 415.2,16.535228372941226 L 430.40000000000003,22.993119766422126 L 445.6,21.569194347466347 L 460.79999999999995,16.013091349587533 L 476,20.955760897664447 L 491.2,23.38161424734178 L 506.40000000000003,16.9026237859296 L 521.6,18.579989843349264 L 536.8000000000001,23.996685028884468 L 552,18.888863418243922 L 567.1999999999999,16.707010587485264 L 582.4,23.19662476780451 L 597.6,21.26853006771685 L 612.8000000000001,16.000000505323733 L 628,21.26471576011484 L 643.1999999999999,23.199040412814398 L 658.4,16.709295039233304 L 673.6,18.88500100358631 L 688.8,23.9968466888996 L 704,18.583749876854117 L 719.2,16.900080853316435 L 734.4,23.3794646823985 L 749.6,20.95966517455564 L 764.8,16.012768290932105 L 780,21.565494667348784"
      stroke="url(#thread-0)"
      stroke-width="8"
      stroke-linecap="round"
      fill="none"
      opacity="1"
      class="thread"
      style="animation-delay: 0s"
    >
      <title>2026-01-31: 7532 stars, TypeScript, Python, Roff, JavaScript, Unknown, Shell</title>
    </path>

    <path
      d="M 20,33.917702154416816 L 35.2,34.293488477162136 L 50.400000000000006,28.04517629041753 L 65.6,33.219263693120986 L 80.80000000000001,34.87184972675218 L 96,28.229902919304124 L 111.2,32.47682462004713 L 126.4,35.346572078846464 L 141.60000000000002,28.55068426625466 L 156.79999999999998,31.71717796906272 L 172,35.7005238218762 L 187.2,28.995944020424798 L 202.4,30.967737758617577 L 217.6,35.92093159654176 L 232.8,29.549613712217525 L 248,30.255549678611864 L 263.20000000000005,35.99984135895534 L 278.40000000000003,30.191712589889583 L 293.59999999999997,29.606315069451316 L 308.8,35.93440542502606 L 324,30.899068682029963 L 339.2,29.043463415792687 L 354.4,35.72698523727158 L 369.6,31.646155024311895 L 384.8,28.587306826690817 L 400,35.385066145422066 L 415.2,32.40601087288909 L 430.40000000000003,28.25430701514538 L 445.6,34.920987276202005 L 460.79999999999995,33.1512146598192 L 476,28.056481230183447 L 491.2,34.351496240709885 L 506.40000000000003,33.85487357864105 L 521.6,28.00096858011519 L 536.8000000000001,33.69714474905175 L 552,34.49159408808392 L 567.1999999999999,28.089772397425772 L 582.4,32.9815469431996 L 597.6,35.038398310511276 L 612.8000000000001,28.319687942802506 L 628,32.23052721325235 L 643.1999999999999,35.475553254245206 L 658.4,28.682418057303508 L 673.6,31.471188250581438 L 688.8,35.787282934915254 L 704,29.164872589029407 L 719.2,30.730932969825467 L 734.4,35.96233769690041 L 749.6,29.749640788631446 L 764.8,30.03647559647043 L 780,35.99440018927365"
      stroke="url(#thread-1)"
      stroke-width="8"
      stroke-linecap="round"
      fill="none"
      opacity="0.985"
      class="thread"
      style="animation-delay: 0.1s"
    >
      <title>2026-01-30: 8081 stars, TypeScript, Rust, Roff, Python, JavaScript, Shell, Unknown</title>
    </path>

    <path
      d="M 20,47.36588393923159 L 35.2,43.43303762009025 L 50.400000000000006,41.37583656950579 L 65.6,47.99998704547228 L 80.80000000000001,41.39123699402953 L 96,43.41289023268452 L 111.2,47.3768410491155 L 126.4,40.169405260582714 L 141.60000000000002,45.63448030052964 L 156.79999999999998,45.692309020666315 L 172,40.15158037610768 L 187.2,47.34233148180005 L 202.4,43.47586177015194 L 217.6,41.343364938751726 L 232.8,47.999643446741516 L 248,41.42415813295985 L 263.20000000000005,43.370165217375174 L 278.40000000000003,47.399814306734214 L 293.59999999999997,40.1820758367756 L 308.8,45.59493094094575 L 324,45.731378334367825 L 339.2,40.14001785902821 L 354.4,47.318388667412 L 369.6,43.51874713526819 L 384.8,41.31120358122537 L 400,47.99883272239754 L 415.2,41.45738010913418 L 430.40000000000003,43.32751376161256 L 445.6,47.42239049387305 L 460.79999999999995,40.19519231525696 L 476,45.55519530648417 L 491.2,45.77024543725304 L 506.40000000000003,40.12890615626473 L 521.6,47.294058292392194 L 536.8000000000001,43.56168870677944 L 552,41.2793562531101 L 567.1999999999999,47.99755496712631 L 582.4,41.49089904249773 L 597.6,43.28494084673754 L 612.8000000000001,47.44456697381816 L 628,40.208753164129455 L 643.1999999999999,45.5152780379417 L 658.4,45.80890578996261 L 673.6,40.11824656557313 L 688.8,47.269343198329175 L 704,43.6046814694618 L 719.2,41.247826673913075 L 734.4,47.99581033015919 L 749.6,41.52471101831347 L 764.8,43.24245144491813 L 780,47.46634115653817"
      stroke="url(#thread-2)"
      stroke-width="8"
      stroke-linecap="round"
      fill="none"
      opacity="0.97"
      class="thread"
      style="animation-delay: 0.2s"
    >
      <title>2026-01-29: 9087 stars, TypeScript, JavaScript, Python, Shell, Unknown</title>
    </path>

    <path
      d="M 20,59.98997994641622 L 35.2,52.220632440370096 L 50.400000000000006,59.30906256333567 L 65.6,53.38861885997689 L 80.80000000000001,57.73426324434512 L 96,55.26202150673705 L 111.2,55.69098484508294 L 126.4,57.33477536901271 L 141.60000000000002,53.73118116399725 L 156.79999999999998,59.046964398190966 L 172,52.384256851173134 L 187.2,59.93607245420131 L 202.4,52.01405855176372 L 217.6,59.76192347052098 L 232.8,52.72058847673145 L 248,58.57156056818184 L 263.20000000000005,54.312990658556714 L 278.40000000000003,56.68653822831334 L 293.59999999999997,56.36110715438016 L 308.8,54.616060307338365 L 324,58.31167724361558 L 339.2,52.919428050499825 L 354.4,59.6377905599216 L 369.6,52.05495522408119 L 384.8,59.98122216323514 L 400,52.25616314381174 L 415.2,59.24920036956817 L 430.40000000000003,53.46869921847669 L 445.6,57.639467302415596 L 460.79999999999995,55.3650192953026 L 476,55.58686252217356 L 491.2,57.43286764356988 L 506.40000000000003,53.645859176297996 L 521.6,59.113653348377774 L 536.8000000000001,52.34078335267944 L 552,59.95334329584384 L 567.1999999999999,52.02417710254751 L 582.4,59.7251108057711 L 597.6,52.78156573779116 L 612.8000000000001,58.49060865629808 L 628,54.40835475270066 L 643.1999999999999,56.583314728285266 L 658.4,56.46509723863308 L 673.6,54.51844913500944 L 688.8,58.39620232361027 L 704,52.853797055379616 L 719.2,59.68001775151252 L 734.4,52.03903340338587 L 749.6,59.96974457306669 L 764.8,52.2942514823774 L 780,59.18711845594931"
      stroke="url(#thread-3)"
      stroke-width="8"
      stroke-linecap="round"
      fill="none"
      opacity="0.9550000000000001"
      class="thread"
      style="animation-delay: 0.30000000000000004s"
    >
      <title>2026-01-28: 11454 stars, TypeScript, JavaScript, Python, Shell</title>
    </path>

    <path
      d="M 20,71.63718970730272 L 35.2,64.38746053022794 L 50.400000000000006,71.58712162225339 L 65.6,64.43905843434517 L 80.80000000000001,71.53400486284234 L 96,64.49368276254222 L 111.2,71.47788457270269 L 126.4,64.55128708991177 L 141.60000000000002,71.4188084481514 L 156.79999999999998,64.61182245886204 L 172,71.35682669765228 L 187.2,64.67523742072564 L 202.4,71.29199199914427 L 217.6,64.74147807948543 L 232.8,71.22435945527062 L 248,64.81048813758049 L 263.20000000000005,71.15398654654753 L 278.40000000000003,64.88220894375313 L 293.59999999999997,71.08093308251175 L 308.8,64.95657954289602 L 324,71.00526115088887 L 339.2,65.03353672785809 L 354.4,70.92703506482528 L 369.6,65.1130150931634 L 384.8,70.84632130822862 L 400,65.19494709059914 L 415.2,70.76318847926379 L 430.40000000000003,65.2792630866245 L 445.6,70.67770723205156 L 460.79999999999995,65.36589142155165 L 476,70.58995021662011 L 491.2,65.45475847044924 L 506.40000000000003,70.49999201716 L 521.6,65.5457887057154 L 536.8000000000001,70.40790908863575 L 552,65.6389047612683 L 567.1999999999999,70.3137796918072 L 582.4,65.73402749829967 L 597.6,70.21768382671587 L 612.8000000000001,65.83107607253352 L 628,70.11970316469328 L 643.1999999999999,65.92996800293602 L 658.4,70.01992097894987 L 673.6,66.03061924181544 L 688.8,69.91842207380019 L 704,66.1329442462536 L 719.2,69.81529271258927 L 734.4,66.23685605080813 L 749.6,69.71062054437745 L 764.8,66.34226634142485 L 780,69.60449452944798"
      stroke="url(#thread-4)"
      stroke-width="8"
      stroke-linecap="round"
      fill="none"
      opacity="0.9400000000000001"
      class="thread"
      style="animation-delay: 0.4s"
    >
      <title>2026-01-27: 12558 stars, TypeScript, JavaScript, Python, Shell</title>
    </path>

    <path
      d="M 20,82.39388857641583 L 35.2,77.29556816448863 L 50.400000000000006,76.60194022166904 L 65.6,81.4427125616215 L 80.80000000000001,83.9337473072228 L 96,80.01791059391734 L 111.2,76.07290300001912 L 126.4,78.52393554813473 L 141.60000000000002,83.37902572110042 L 156.79999999999998,82.73071627007904 L 172,77.63490504358309 L 187.2,76.39111027631661 L 202.4,81.0250933028995 L 217.6,83.98951280337478 L 232.8,80.45623590429905 L 248,76.1798902299578 L 263.20000000000005,78.12533521579329 L 278.40000000000003,83.12403587946515 L 293.59999999999997,83.0346373975728 L 308.8,78.00274255986686 L 324,76.22376934876948 L 339.2,80.59512113114464 L 354.4,83.9972025735765 L 369.6,80.88906333226136 L 384.8,76.33291179026612 L 400,77.74932557932273 L 415.2,82.83139976366003 L 430.40000000000003,83.30198954958644 L 445.6,78.3946480779534 L 460.79999999999995,76.10193398514983 L 476,80.1579774369964 L 491.2,83.95672395205573 L 506.40000000000003,81.31117707982688 L 521.6,76.53012369072258 L 536.8000000000001,77.40043775245266 L 552,82.50464379267407 L 567.1999999999999,83.5295509921826 L 582.4,78.80589893038572 L 597.6,76.02707236561929 L 612.8000000000001,79.71893003170803 L 628,83.86856472747512 L 643.1999999999999,81.71749045449761 L 658.4,76.76914942428294 L 673.6,77.08287601685312 L 688.8,82.14770554768266 L 704,83.71457949038411 L 719.2,79.2315393282611 L 734.4,76.00008661203637 L 749.6,79.28326966725258 L 764.8,83.73378726482252 L 780,82.10310716657258"
      stroke="url(#thread-5)"
      stroke-width="8"
      stroke-linecap="round"
      fill="none"
      opacity="0.925"
      class="thread"
      style="animation-delay: 0.5s"
    >
      <title>2026-01-26: 5507 stars, TypeScript, JavaScript, Python, Rust, Shell</title>
    </path>

    <path
      d="M 20,92.56448003223947 L 35.2,88.88071821631625 L 50.400000000000006,88.25578491105568 L 65.6,91.30250189530207 L 80.80000000000001,95.03319911498059 L 96,95.78948216664432 L 111.2,92.82972515017083 L 126.4,89.05632348042106 L 141.60000000000002,88.16954837687483 L 156.79999999999998,91.03898878896963 L 172,94.85081552433358 L 187.2,95.86707699525607 L 202.4,93.0912073968118 L 217.6,89.24527855784835 L 232.8,88.10068325350267 L 248,90.77983394693108 L 263.20000000000005,94.65550325255819 L 278.40000000000003,95.9271343140066 L 293.59999999999997,93.34774092882782 L 308.8,89.44672652189672 L 324,88.04950184989549 L 339.2,90.5262126575511 L 354.4,94.4481480567512 L 369.6,95.9693817580526 L 384.8,93.59816234570914 L 400,89.65975378960403 L 415.2,88.01623627789685 L 430.40000000000003,90.27927511408139 L 445.6,94.22969030965295 L 460.79999999999995,95.99362773178649 L 476,93.84133596588715 L 491.2,89.88339426492081 L 506.40000000000003,88.00103739959135 L 521.6,90.04014119844017 L 536.8000000000001,94.00112073498033 L 552,95.99976227773804 L 567.1999999999999,94.07615897714292 L 582.4,90.11663372003471 L 597.6,88.00397414313291 L 612.8000000000001,89.80989540245652 L 628,93.76347591441359 L 643.1999999999999,95.9877575752406 L 658.4,94.30156643795071 L 673.6,90.35841439497634 L 688.8,88.0250331901498 L 704,89.58958190961133 L 719.2,93.51783358661416 L 734.4,95.95766806659996 L 749.6,94.51653610707463 L 764.8,90.60763979464711 L 780,88.06411903614465"
      stroke="url(#thread-6)"
      stroke-width="8"
      stroke-linecap="round"
      fill="none"
      opacity="0.91"
      class="thread"
      style="animation-delay: 0.6000000000000001s"
    >
      <title>2026-01-25: 4122 stars, Shell, Python, TypeScript</title>
    </path>

    <path
      d="M 20,102.59686708924153 L 35.2,100.13380772937109 L 50.400000000000006,104.63869970547688 L 65.6,107.9924775738145 L 80.80000000000001,104.15070294579617 L 96,100.03731978954364 L 111.2,103.06578601213856 L 126.4,107.77796508426228 L 141.60000000000002,105.68120269319417 L 156.79999999999998,100.55444651700489 L 172,101.63753385465303 L 187.2,106.97844076809564 L 202.4,106.95137090323848 L 217.6,101.60511166841327 L 232.8,100.57510578610929 L 248,105.71770968179108 L 263.20000000000005,107.76452406824899 L 278.40000000000003,103.02662143223887 L 293.59999999999997,100.04301708686666 L 308.8,104.19099400957177 L 324,107.99474672639107 L 339.2,104.59885730422403 L 354.4,100.12366083757101 L 369.6,102.63470322166985 L 384.8,107.60638926874462 L 400,106.07836108429939 L 415.2,100.80454948292409 L 430.40000000000003,101.28982644748892 L 445.6,106.65958822399901 L 460.79999999999995,107.23603398791825 L 476,101.98024850956887 L 491.2,100.36461569589808 L 506.40000000000003,105.3009542135531 L 521.6,107.8926122249547 L 536.8000000000001,103.46870281117535 L 552,100.00233836607106 L 567.1999999999999,103.74086953222013 L 582.4,107.94642570974173 L 597.6,105.03942762931055 L 612.8000000000001,100.25909252078404 L 628,102.22091078770933 L 643.1999999999999,107.38914151057412 L 658.4,106.44919874816739 L 673.6,101.0951201914774 L 688.8,100.97644115084744 L 704,106.30705419080203 L 719.2,107.47971537381144 L 734.4,102.38096383584353 L 749.6,100.2001647465242 L 764.8,104.86772323426848 L 780,107.97140366157292"
      stroke="url(#thread-7)"
      stroke-width="8"
      stroke-linecap="round"
      fill="none"
      opacity="0.895"
      class="thread"
      style="animation-delay: 0.7000000000000001s"
    >
      <title>2026-01-24: 5856 stars, Shell, TypeScript, Python, Rust</title>
    </path>

    <path
      d="M 20,112.9727900187683 L 35.2,112.51654110605745 L 50.400000000000006,116.6738417745995 L 65.6,119.93869544385582 L 80.80000000000001,117.9870768454812 L 96,113.4037413738779 L 111.2,112.25893302777006 L 126.4,116.06885458910664 L 141.60000000000002,119.78758401342887 L 156.79999999999998,118.48997560482846 L 172,113.89460303171838 L 187.2,112.08765242571619 L 202.4,115.46227854061055 L 217.6,119.54907169674969 L 232.8,118.93541660909047 L 248,114.4340480504264 L 263.20000000000005,112.0066517076482 L 278.40000000000003,114.86811075340741 L 293.59999999999997,119.22866231572323 L 308.8,119.31312102658785 L 324,115.0096283964924 L 339.2,112.01780001614382 L 354.4,114.30006202335011 L 369.6,118.83374951858696 L 384.8,119.61437309003632 L 400,115.60806219097267 L 415.2,112.12084009696412 L 430.40000000000003,113.77124043260017 L 445.6,118.3734461668219 L 460.79999999999995,119.83222121836538 L 476,116.2155401972099 L 491.2,112.3133942353571 L 506.40000000000003,113.29384887237711 L 521.6,117.85837405013524 L 536.8000000000001,119.96163842882906 L 552,116.81804447766513 L 567.1999999999999,112.59101912332287 L 582.4,112.87890345355927 L 597.6,117.30041878197414 L 612.8000000000001,119.99963833779847 L 628,117.40167186665386 L 643.1999999999999,112.94730839174386 L 658.4,112.53597930298801 L 673.6,116.71245553151076 L 688.8,119.9453440734446 L 704,117.95295479464951 L 719.2,113.3740404413864 L 734.4,112.27298961138625 L 749.6,116.10805192100557 L 764.8,119.80000851010794 L 780,118.45917206093111"
      stroke="url(#thread-8)"
      stroke-width="8"
      stroke-linecap="round"
      fill="none"
      opacity="0.88"
      class="thread"
      style="animation-delay: 0.8s"
    >
      <title>2026-01-23: 4879 stars, Unknown, Rust, Python, Shell, TypeScript, JavaScript</title>
    </path>

    <path
      d="M 20,124.08987952933961 L 35.2,127.208974249069 L 50.400000000000006,131.93119333171515 L 65.6,128.68629908335902 L 80.80000000000001,124.05052371705524 L 96,127.41891464053255 L 111.2,131.96495634920885 L 126.4,128.47545924788164 L 141.60000000000002,124.0223774554669 L 156.79999999999998,127.63050429010757 L 172,131.98746587990584 L 187.2,128.2632699462571 L 202.4,124.00552063034259 L 217.6,127.84314265616933 L 232.8,131.9986580364177 L 248,128.05033342206482 L 263.20000000000005,124.00000108535129 L 278.40000000000003,128.05622622058698 L 293.59999999999997,131.99850105274894 L 308.8,127.83725403967927 L 324,124.00583448627117 L 339.2,128.269150201651 L 354.4,131.9869953744564 L 369.6,127.62463656894018 L 384.8,124.02300427652645 L 400,128.48131027058747 L 415.2,131.96417365738483 L 430.40000000000003,127.41308446867266 L 445.6,124.0514617241789 L 460.79999999999995,128.69210426678612 L 476,131.93010067498165 L 491.2,127.20319817392753 L 506.40000000000003,124.09112606024061 L 521.6,128.90093390687537 L 536.8000000000001,131.88487313445466 L 552,126.99557339180438 L 567.1999999999999,124.14188470791557 L 582.4,129.1072064827922 L 597.6,131.82861940229407 L 612.8000000000001,126.79079941069338 L 628,124.20359360211927 L 643.1999999999999,129.31033654402836 L 658.4,131.7614991399378 L 673.6,126.5894574277352 L 688.8,124.27607759836964 L 704,129.50974755927805 L 719.2,131.68370285061448 L 734.4,126.39211889924539 L 749.6,124.35913096988871 L 764.8,129.70487355277004 L 780,131.59545133865035"
      stroke="url(#thread-9)"
      stroke-width="8"
      stroke-linecap="round"
      fill="none"
      opacity="0.865"
      class="thread"
      style="animation-delay: 0.9s"
    >
      <title>2026-01-22: 6303 stars, Rust, Unknown, Shell, TypeScript, Python</title>
    </path>

    <path
      d="M 20,136.16430290134744 L 35.2,139.11209716436647 L 50.400000000000006,142.96654085307668 L 65.6,143.79181011774943 L 80.80000000000001,140.74521150722313 L 96,136.93766748924105 L 111.2,136.25711203434201 L 126.4,139.39846939276228 L 141.60000000000002,143.1540576756717 L 156.79999999999998,143.6889956064463 L 172,140.4570509305498 L 187.2,136.7584054546734 L 202.4,136.36979539584468 L 217.6,139.68803566726697 L 232.8,143.32482687890192 L 248,143.56659302776833 L 263.20000000000005,140.16646347529584 L 278.40000000000003,136.59635584840055 L 293.59999999999997,136.50175465245724 L 308.8,139.979258430155 L 324,143.47794170141128 L 339.2,143.42525232284143 L 354.4,139.87499212151843 L 369.6,136.45237913189885 L 384.8,136.6522891183874 L 400,140.27059132797157 L 415.2,143.612589124216 L 430.40000000000003,143.26572399167867 L 445.6,139.58418454265626 L 460.79999999999995,136.3272398020461 L 476,136.82059947599546 L 491.2,140.56048742246043 L 506.40000000000003,143.72805418772506 L 521.6,143.08885510812686 L 536.8000000000001,139.29558488759315 L 552,136.2216023317465 L 567.1999999999999,137.00579202006293 L 582.4,140.84740740459642 L 597.6,143.82372378807915 L 612.8000000000001,142.89558482201892 L 628,139.01072558143625 L 643.1999999999999,136.13602764166964 L 658.4,137.20688340324608 L 673.6,141.12982776810824 L 688.8,143.89908993264902 L 704,142.68693937241542 L 719.2,138.7311191885464 L 734.4,136.07097012183752 L 749.6,137.42280585751735 L 764.8,141.4062488990905 L 780,143.9537524374076"
      stroke="url(#thread-10)"
      stroke-width="8"
      stroke-linecap="round"
      fill="none"
      opacity="0.85"
      class="thread"
      style="animation-delay: 1s"
    >
      <title>2026-01-21: 4215 stars, Unknown, TypeScript, Python, Shell, JavaScript</title>
    </path>

    <path
      d="M 20,149.17783869771844 L 35.2,155.01291250690545 L 50.400000000000006,154.42868316419617 L 65.6,148.66990811026915 L 80.80000000000001,150.00621773432687 L 96,155.5904744039415 L 111.2,153.5248761225083 L 126.4,148.21038094246492 L 141.60000000000002,150.9700377680857 L 156.79999999999998,155.92412930978537 L 172,152.51748167003882 L 187.2,148.00828899856128 L 202.4,152.0038248760428 L 217.6,155.9912114830822 L 232.8,151.47493381360755 L 248,148.07736072567585 L 263.20000000000005,153.0373521537095 L 278.40000000000003,155.78716391848658 L 293.59999999999997,150.46805459014556 L 308.8,148.41290396471163 L 324,154.00041034730742 L 339.2,155.3258479117331 L 354.4,149.56524300609578 L 369.6,148.99212469665034 L 384.8,154.8275772869736 L 400,154.63860143840307 L 415.2,148.82782857736774 L 430.40000000000003,149.77567547876737 L 445.6,155.46266212526845 L 460.79999999999995,153.77211031230803 L 476,148.30590511172542 L 491.2,150.71032838288065 L 506.40000000000003,155.8625224763584 L 521.6,152.78523673929692 L 536.8000000000001,148.03492775180897 L 552,151.73259085842332 L 567.1999999999999,155.99999515116065 L 582.4,151.74502070818474 L 597.6,148.03330444740513 L 612.8000000000001,152.77301888865364 L 628,155.8657413986607 L 643.1999999999999,150.72212585106976 L 658.4,148.30114547232412 L 673.6,153.76093444001503 L 688.8,155.46888130304373 L 704,149.786039143442 L 719.2,148.82025593331338 L 734.4,154.62922674034328 L 749.6,154.83637424097034 L 764.8,149.0003505365632 L 780,149.55537177989046"
      stroke="url(#thread-11)"
      stroke-width="8"
      stroke-linecap="round"
      fill="none"
      opacity="0.835"
      class="thread"
      style="animation-delay: 1.1s"
    >
      <title>2026-01-20: 6510 stars, Python, Vue, TypeScript, Unknown, Shell, JavaScript</title>
    </path>

    <path
      d="M 20,162.88233800720428 L 35.2,167.0329505412467 L 50.400000000000006,167.6298357174037 L 65.6,163.9736193944955 L 80.80000000000001,160.34831339413427 L 96,161.00171171723832 L 111.2,165.168223410433 L 126.4,167.9659203348674 L 141.60000000000002,166.11672328541624 L 156.79999999999998,161.78734815651487 L 172,160.05055120610118 L 187.2,162.9413484207003 L 202.4,167.07257439556514 L 217.6,167.60364549148835 L 232.8,163.91230234192292 L 248,160.32371509374548 L 263.20000000000005,161.04265415338827 L 278.40000000000003,165.2267340713824 L 293.59999999999997,167.97344190861395 L 308.8,166.06444269636444 L 324,161.73652290196745 L 339.2,160.06073355870498 L 354.4,163.00060765342116 L 369.6,167.11147609011516 L 384.8,167.57660828598563 L 400,163.85100590129082 L 415.2,160.29998084568382 L 430.40000000000003,161.08429166666798 L 445.6,165.2849564079891 L 460.79999999999995,167.98002958800376 L 476,166.01167689287428 L 491.2,161.6862296417305 L 506.40000000000003,160.0718417732652 L 521.6,163.0601017774262 L 536.8000000000001,167.14964648167185 L 552,167.5487304555609 L 567.1999999999999,163.78974447935312 L 582.4,160.27711622830697 L 597.6,161.1266144708418 L 612.8000000000001,165.34287673601844 L 628,167.98568182470748 L 643.1999999999999,165.95843827670913 L 658.4,161.63648019643543 L 673.6,160.0838732389726 L 688.8,163.11981680956737 L 704,167.18707659889137 L 719.2,167.52001855245504 L 734.4,163.72853247463325 L 749.6,160.2551266155798 L 764.8,161.16961261860746 L 780,165.40048144221805"
      stroke="url(#thread-12)"
      stroke-width="8"
      stroke-linecap="round"
      fill="none"
      opacity="0.8200000000000001"
      class="thread"
      style="animation-delay: 1.2000000000000002s"
    >
      <title>2026-01-19: 4551 stars, JavaScript, TypeScript, Shell, Python</title>
    </path>

    <path
      d="M 20,176.86047995235126 L 35.2,179.64816464963872 L 50.400000000000006,179.49320741176336 L 65.6,176.52059811997256 L 80.80000000000001,173.1280697712527 L 96,172.0520657950856 L 111.2,174.16050053382 L 126.4,177.75269184297863 L 141.60000000000002,179.93114637984618 L 156.79999999999998,178.93870341028008 L 172,175.57587622821623 L 187.2,172.55515103891028 L 202.4,172.31307154867068 L 217.6,175.04490121954882 L 232.8,178.54712203049152 L 248,179.9948116399317 L 263.20000000000005,178.2202507799739 L 278.40000000000003,174.65481596580022 L 293.59999999999997,172.17441851416436 L 308.8,172.77976898997392 L 324,175.98258633503588 L 339.2,179.19944969657172 L 354.4,179.83560858044422 L 369.6,177.3779315935034 L 384.8,173.808802772493 L 400,172.0071130528162 L 415.2,173.42612132831098 L 430.40000000000003,176.92124294920623 L 445.6,179.67328184353767 L 460.79999999999995,179.4624190515276 L 476,176.45873836980397 L 491.2,173.08503525381684 L 506.40000000000003,172.06256853350314 L 521.6,174.2160689262118 L 536.8000000000001,177.80850393161367 L 552,179.9421836394442 L 567.1999999999999,178.896063089441 L 582.4,175.5139523875925 L 597.6,172.5238919970965 L 612.8000000000001,172.3376911258006 L 628,175.10554104653934 L 643.1999999999999,178.59486948552305 L 658.4,179.99115320265452 L 673.6,178.16813737831558 L 688.8,174.5962827313492 L 704,172.15667887252994 L 719.2,172.817131893301 L 734.4,176.04491453440377 L 749.6,179.23646871403952 L 764.8,179.81745854847276 L 780,177.31925248872008"
      stroke="url(#thread-13)"
      stroke-width="7.412"
      stroke-linecap="round"
      fill="none"
      opacity="0.805"
      class="thread"
      style="animation-delay: 1.3s"
    >
      <title>2026-01-18: 3706 stars, JavaScript, Shell, Vue, TypeScript, Python, HTML</title>
    </path>

    <path
      d="M 20,190.62794639487515 L 35.2,191.02417908092403 L 50.400000000000006,185.39181510663616 L 65.6,184.95877773203816 L 80.80000000000001,190.5883120231282 L 96,191.05813559570734 L 111.2,185.43167136726612 L 126.4,184.92508165803352 L 141.60000000000002,190.5482355754658 L 156.79999999999998,191.09156979012093 L 172,185.47196629070845 L 187.2,184.89191077084126 L 202.4,190.50772389682484 L 217.6,191.1244759537048 L 232.8,185.51269299471133 L 248,184.8592707359492 L 263.20000000000005,190.46678390647827 L 278.40000000000003,191.15684846618515 L 293.59999999999997,185.55384452327613 L 308.8,184.82716712817725 L 324,190.4254225968534 L 339.2,191.18868179843415 L 354.4,185.59541384784538 L 369.6,184.79560543072512 L 384.8,190.3836470323376 L 400,191.21997051341427 L 415.2,185.6373938685034 L 430.40000000000003,184.7645910342359 L 445.6,190.3414643480718 L 460.79999999999995,191.25070926710703 L 476,185.67977741518885 L 491.2,184.73412923587532 L 506.40000000000003,190.2988817487317 L 521.6,191.28089280942564 L 536.8000000000001,185.72255724891923 L 552,184.70422523842697 L 567.1999999999999,190.25590650729725 L 582.4,191.31051598511186 L 597.6,185.7657260630276 L 612.8000000000001,184.67488414940374 L 628,190.21254596381056 L 643.1999999999999,191.33957373461627 L 658.4,185.8092764844102 L 673.6,184.6461109801755 L 688.8,190.1688075241222 L 704,191.3680610949625 L 719.2,185.8532010747859 L 734.4,184.6179106451131 L 749.6,190.1246986586262 L 764.8,191.3959732005951 L 780,185.89749233196665"
      stroke="url(#thread-14)"
      stroke-width="8"
      stroke-linecap="round"
      fill="none"
      opacity="0.79"
      class="thread"
      style="animation-delay: 1.4000000000000001s"
    >
      <title>2026-01-17: 6237 stars, JavaScript, TypeScript, Shell, Python</title>
    </path>

    <path
      d="M 20,203.75199990709896 L 35.2,201.86278266400802 L 50.400000000000006,196.73258196610158 L 65.6,197.28723543419085 L 80.80000000000001,202.5617229679891 L 96,203.37916786579373 L 111.2,198.31732939056252 L 126.4,196.18310437795463 L 141.60000000000002,200.6897483184591 L 156.79999999999998,203.9963258576031 L 172,200.34985072195195 L 187.2,196.0946838567665 L 202.4,198.63422538703622 L 217.6,203.55002530168375 L 232.8,202.28927360392913 L 248,197.04550337307515 L 263.20000000000005,196.94214746439914 L 278.40000000000003,202.15903082283356 L 293.59999999999997,203.61950002171997 L 308.8,198.78254123195495 L 324,196.06379182882026 L 339.2,200.19349866483392 L 354.4,203.98654466361052 L 369.6,200.84355590842125 L 384.8,196.23289687949074 L 400,198.1764747575566 L 415.2,203.29273362218552 L 430.40000000000003,202.68009270864255 L 445.6,197.40446222905283 L 460.79999999999995,196.64470745226183 L 476,201.7226963067581 L 491.2,203.8034325371282 L 506.40000000000003,199.26672371472083 L 521.6,196.00581391831736 L 536.8000000000001,199.69423388340886 L 552,203.91464447953987 L 567.1999999999999,201.32411666894598 L 582.4,196.4298095183266 L 597.6,197.7471385962444 L 612.8000000000001,202.98413402957817 L 628,203.02915017102544 L 643.1999999999999,197.8038651785114 L 658.4,196.3995501566295 L 673.6,201.25951845545958 L 688.8,203.92809934552128 L 704,199.76233222833133 L 719.2,196.01007406771697 L 734.4,199.1997335995538 L 749.6,203.78174566580293 L 764.8,201.7840448272648 L 780,196.68235344837368"
      stroke="url(#thread-15)"
      stroke-width="8"
      stroke-linecap="round"
      fill="none"
      opacity="0.775"
      class="thread"
      style="animation-delay: 1.5s"
    >
      <title>2026-01-16: 5731 stars, JavaScript, TypeScript, Shell, Python, C</title>
    </path>

    <path
      d="M 20,215.95743298649353 L 35.2,213.85794412182537 L 50.400000000000006,210.22897733526622 L 65.6,208.05793387000568 L 80.80000000000001,209.1320381148587 L 96,212.5670768639415 L 111.2,215.53529234679954 L 126.4,215.5932203089824 L 141.60000000000002,212.69317388080557 L 156.79999999999998,209.22249987870467 L 172,208.03829136481076 L 187.2,210.11540046499755 L 202.4,213.74393048604625 L 217.6,215.9368397344423 L 232.8,214.8889036930796 L 248,211.4627936446895 L 263.20000000000005,208.47891716527218 L 278.40000000000003,208.39363079607548 L 293.59999999999997,211.27714311721343 L 308.8,214.75571835220413 L 324,215.96575906608928 L 339.2,213.91114781123633 L 354.4,210.28326083273868 L 369.6,208.06861046514192 L 384.8,209.09031872926283 L 400,212.50730530722237 L 415.2,215.50667315384328 L 430.40000000000003,215.61931308163864 L 445.6,212.75249879132815 L 460.79999999999995,209.26622007576077 L 476,208.03041595106788 L 491.2,210.0624125587067 L 506.40000000000003,213.68945025416883 L 521.6,215.92571584107822 L 536.8000000000001,214.93029343693655 L 552,211.52262458048867 L 567.1999999999999,208.50793587668318 L 582.4,208.36794879371723 L 597.6,211.21790207867215 L 612.8000000000001,214.7116860845707 L 628,215.97318336627265 L 643.1999999999999,213.96391692211608 L 658.4,210.33793470189326 L 673.6,208.0801810243555 L 688.8,209.04926098009594 L 704,212.44741839365116 L 719.2,215.4772565736521 L 734.4,215.6445828537117 L 749.6,212.81165259011493 L 764.8,209.3105619107965 L 780,208.0234431865055"
      stroke="url(#thread-16)"
      stroke-width="7.494"
      stroke-linecap="round"
      fill="none"
      opacity="0.76"
      class="thread"
      style="animation-delay: 1.6s"
    >
      <title>2026-01-15: 3747 stars, TypeScript, Shell, Python, JavaScript, C</title>
    </path>

    <path
      d="M 20,227.19394845049396 L 35.2,223.67521525506936 L 50.400000000000006,220.45840843183294 L 65.6,220.53393571799947 L 80.80000000000001,223.83158544301054 L 96,227.28579669687778 L 111.2,227.68546585195267 L 126.4,224.65905249585208 L 141.60000000000002,221.01997080399988 L 156.79999999999998,220.15118364785712 L 172,222.86033288361344 L 187.2,226.6289393855238 L 202.4,227.95363143713166 L 217.6,225.60294890476027 L 232.8,221.76213312207065 L 248,220.00168299213843 L 263.20000000000005,221.9581480433663 L 278.40000000000003,225.81275936973213 L 293.59999999999997,227.98219345579926 L 308.8,226.44970113606277 L 324,222.63991781512908 L 339.2,220.094494001116 L 354.4,221.17970640449667 L 369.6,224.88671994566693 L 384.8,227.76942095208656 L 400,227.14799311293305 L 415.2,223.6001281331922 L 430.40000000000003,220.4239920107016 L 445.6,220.57218418865307 L 460.79999999999995,223.90694226479732 L 476,227.32820866632426 L 491.2,227.65550595694637 L 506.40000000000003,224.58457205192298 L 521.6,220.97020831629783 L 536.8000000000001,220.17239931676855 L 552,222.93280420046773 L 567.1999999999999,226.68529556974386 L 582.4,227.94148265662866 L 597.6,225.53358890802775 L 612.8000000000001,221.70004034448866 L 628,220.00458011732138 L 643.1999999999999,222.02334184600133 L 658.4,225.87964439150886 L 673.6,227.9885920473854 L 688.8,226.38966503918914 L 704,222.56925778203183 L 719.2,220.07889700689088 L 734.4,221.23367172583983 L 749.6,224.96008034427228 L 764.8,227.7939791392609 L 780,227.10091930840866"
      stroke="url(#thread-17)"
      stroke-width="8"
      stroke-linecap="round"
      fill="none"
      opacity="0.745"
      class="thread"
      style="animation-delay: 1.7000000000000002s"
    >
      <title>2026-01-14: 4003 stars, TypeScript, Shell, Python, C, HTML, Jupyter Notebook</title>
    </path>

    <path
      d="M 20,237.64847394096702 L 35.2,233.01030915753762 L 50.400000000000006,232.57396616884768 L 65.6,236.95269750717208 L 80.80000000000001,239.99247262548394 L 96,237.42107944023897 L 111.2,232.8524487884156 L 126.4,232.7075027173033 L 141.60000000000002,237.18995378206375 L 156.79999999999998,239.99999990608794 L 172,237.1882986087255 L 187.2,232.70651861229297 L 202.4,232.8535188492167 L 217.6,237.42269976392888 L 232.8,239.99236594937778 L 248,236.95101375780456 L 263.20000000000005,232.57307174969063 L 278.40000000000003,233.01146111826802 L 293.59999999999997,237.65005327348044 L 308.8,239.96959969041148 L 324,236.7101242704812 L 339.2,232.45261400550862 L 354.4,233.1807308743874 L 369.6,237.87115257057013 L 384.8,239.9317874203548 L 400,236.46654319244783 L 415.2,232.34560195186913 L 430.40000000000003,233.36068653282413 L 445.6,238.08515962044993 L 460.79999999999995,239.87907245941102 L 476,236.22119377135846 L 491.2,232.25244119756687 L 506.40000000000003,233.5506460059513 L 521.6,238.29126327018332 L 536.8000000000001,239.81165461359308 L 552,235.97500595743438 L 567.1999999999999,232.1734848506862 L 582.4,233.74988928858897 L 597.6,238.48868232316565 L 612.8000000000001,239.7297894173969 L 628,235.72891287866523 L 643.1999999999999,232.10903218021232 L 658.4,233.95766118704654 L 673.6,238.6766685001013 L 688.8,239.6337871652465 L 704,235.4838473039651 L 719.2,232.05932748170906 L 734.4,234.1731741815407 L 749.6,238.85450927521342 L 764.8,239.52401173538246 L 780,235.2407381076895"
      stroke="url(#thread-18)"
      stroke-width="8"
      stroke-linecap="round"
      fill="none"
      opacity="0.73"
      class="thread"
      style="animation-delay: 1.8s"
    >
      <title>2026-01-13: 5049 stars, TypeScript, Shell, C, Rust, Python</title>
    </path>

    <path
      d="M 20,247.69939551815276 L 35.2,244.6420551219758 L 50.400000000000006,244.23794308169934 L 65.6,246.80636229334152 L 80.80000000000001,250.3179159294659 L 96,251.9980040430618 L 111.2,250.51913092311358 L 126.4,247.0498053567382 L 141.60000000000002,244.33126143291628 L 156.79999999999998,244.5115147050447 L 172,247.4481408301913 L 187.2,250.82080996705693 L 202.4,251.96465961370927 L 217.6,249.9758946134004 L 232.8,246.425906958469 L 248,244.1196646431196 L 263.20000000000005,244.87940946372822 L 278.40000000000003,248.1048407678097 L 293.59999999999997,251.24743375616194 L 308.8,251.82411704714386 L 324,249.37923323255296 L 339.2,245.84456955112788 L 354.4,244.01298599574815 L 369.6,245.33168006424586 L 384.8,248.75870597657158 L 400,251.58625206300587 L 415.2,251.5801763925004 L 430.40000000000003,248.74527956240013 L 445.6,245.32151158049092 L 460.79999999999995,244.01410991302046 L 476,245.85609782352887 L 491.2,249.39205697344514 L 506.40000000000003,251.82810377544138 L 521.6,251.23943341998768 L 536.8000000000001,248.09117470940282 L 552,244.87087570836778 L 567.1999999999999,244.1230060059878 L 582.4,246.43848331322928 L 597.6,249.98776894730358 L 612.8000000000001,251.96644960495922 L 628,250.81110128167447 L 643.1999999999999,247.43460463619468 L 658.4,244.50484641735204 L 673.6,244.3367298962032 L 688.8,247.06308974907844 L 704,250.52973478678425 L 719.2,251.99754889872654 L 734.4,250.30676140240158 L 749.6,246.79332196107205 L 764.8,244.2333205616469 L 780,244.6495028270668"
      stroke="url(#thread-19)"
      stroke-width="7.33"
      stroke-linecap="round"
      fill="none"
      opacity="0.7150000000000001"
      class="thread"
      style="animation-delay: 1.9000000000000001s"
    >
      <title>2026-01-12: 3665 stars, TypeScript, Unknown, Python, Shell, C</title>
    </path>

    <path
      d="M 20,257.8239155564425 L 35.2,256.02708174074644 L 50.400000000000006,257.10814082806326 L 65.6,260.2839978559229 L 80.80000000000001,263.2541332049819 L 96,263.8670474271619 L 111.2,261.6787592031747 L 126.4,258.27441545490603 L 141.60000000000002,256.1200464586494 L 156.79999999999998,256.77622880828693 L 172,259.76763872319316 L 187.2,262.92736593682554 L 202.4,263.9665749055911 L 217.6,262.132485954501 L 232.8,258.75367199429735 L 248,256.2776700952489 L 263.20000000000005,256.4980405141067 L 278.40000000000003,259.2551518607742 L 293.59999999999997,262.5518144979087 L 308.8,263.99999993160924 L 324,262.5506751060896 L 339.2,259.25369842702145 L 354.4,256.4973258732407 L 369.6,256.2782119170887 L 384.8,258.75507779525145 L 400,262.1337374038802 L 415.2,263.9667654815261 L 430.40000000000003,262.92635759038234 L 445.6,259.7661618779252 L 460.79999999999995,256.7753532577913 L 476,256.12040643207285 L 491.2,258.27575019557224 L 506.40000000000003,261.68010185487367 L 521.6,263.86742540310894 L 536.8000000000001,263.25327270787625 L 552,260.2825222105731 L 567.1999999999999,257.1071189588726 L 582.4,256.02725386684347 L 597.6,257.82515699354207 L 612.8000000000001,261.19846762802774 L 628,263.7036351857818 L 643.1999999999999,263.5259724608628 L 658.4,260.7941743475046 L 673.6,257.48709414443437 L 688.8,256.0003065967259 L 704,257.4108072659848 L 719.2,260.6968610947882 L 734.4,263.4781243721107 L 749.6,263.7399123435975 L 764.8,261.29259167272534 L 780,257.90894657766813"
      stroke="url(#thread-20)"
      stroke-width="6.996"
      stroke-linecap="round"
      fill="none"
      opacity="0.7"
      class="thread"
      style="animation-delay: 2s"
    >
      <title>2026-01-11: 3498 stars, TypeScript, Unknown, Shell, Python</title>
    </path>

    <path
      d="M 20,268.48121696011333 L 35.2,268.4429245716318 L 50.400000000000006,271.5008340152735 L 65.6,274.99323484588945 L 80.80000000000001,275.88022024451686 L 96,273.38972735457565 L 111.2,269.689567571694 L 126.4,268.0004883131294 L 141.60000000000002,269.7927227522526 L 156.79999999999998,273.5062478685359 L 172,275.9086825949447 L 187.2,274.9088644157389 L 202.4,271.377069753386 L 217.6,268.38749518439107 L 232.8,268.54237010877483 L 248,271.70688602042503 L 263.20000000000005,275.12653850672956 L 278.40000000000003,275.8247434309337 L 293.59999999999997,273.1937590093582 L 308.8,269.52368533979785 L 324,268.0090818429206 L 339.2,269.96831193732913 L 354.4,273.69599379179226 L 369.6,275.9474238233285 L 384.8,274.7628792403025 L 400,271.1734287344116 L 415.2,268.3034545282036 L 430.40000000000003,268.6510817175199 L 445.6,271.9137235391243 L 460.79999999999995,275.2514633848251 L 476,275.7590167214377 L 491.2,272.9945915199858 L 506.40000000000003,269.3644393615414 L 521.6,268.0283705987956 L 536.8000000000001,270.14934582518015 L 552,273.8811946363658 L 567.1999999999999,275.9755863857067 L 582.4,274.6094898493561 L 597.6,270.9720028364224 L 612.8000000000001,268.22932021135813 L 628,268.7687680625932 L 643.1999999999999,272.12079226934384 L 658.4,275.36767469510613 L 673.6,275.6832162564533 L 688.8,272.79275863364256 L 704,269.21225639880583 L 719.2,268.05830288898915 L 734.4,270.3353392646991 L 749.6,274.0613540841601 L 764.8,275.99309480947886 L 780,274.44910730976477"
      stroke="url(#thread-21)"
      stroke-width="7.724"
      stroke-linecap="round"
      fill="none"
      opacity="0.685"
      class="thread"
      style="animation-delay: 2.1s"
    >
      <title>2026-01-10: 3862 stars, TypeScript, Unknown, Shell, Python</title>
    </path>

    <path
      d="M 20,280.0000391737972 L 35.2,281.79644389077015 L 50.400000000000006,285.5558767635428 L 65.6,287.9292637439527 L 80.80000000000001,286.80228360022426 L 96,283.17890157921454 L 111.2,280.2869914331134 L 126.4,280.7027984488282 L 141.60000000000002,284.05590279642666 L 156.79999999999998,287.35920638655233 L 172,287.66997591306875 L 187.2,284.7113637259611 L 202.4,281.11903632859526 L 217.6,280.09320259985685 L 232.8,282.5477219528317 L 248,286.29599674262073 L 263.20000000000005,287.99889304964256 L 278.40000000000003,286.1393932753485 L 293.59999999999997,282.3740245203433 L 308.8,280.05714878706635 L 324,281.2527445142157 L 339.2,284.89572056772977 L 354.4,287.74074793874036 L 369.6,287.25334665193765 L 384.8,283.8677159751139 L 400,280.5999299332991 L 415.2,280.36108118274234 L 430.40000000000003,283.3639470701862 L 445.6,286.9334378802148 L 460.79999999999995,287.8896886061669 L 476,285.38082754339865 L 491.2,281.6418624072004 L 506.40000000000003,280.0036336536728 L 521.6,281.9255500790546 L 536.8000000000001,285.6954809868248 L 552,287.95500020105146 L 567.1999999999999,286.6912250828406 L 582.4,283.0299840734358 L 597.6,280.2328774363957 L 612.8000000000001,280.79169517438237 L 628,284.2086169918139 L 643.1999999999999,287.43969329027107 L 658.4,287.6065341250452 L 673.6,284.56051008078947 L 688.8,281.01515812489555 L 704,280.12883927321786 L 719.2,282.6911267313452 L 734.4,286.4194181173875 L 749.6,287.9923816380806 L 764.8,286.00874973947697 L 780,282.2356320728315"
      stroke="url(#thread-22)"
      stroke-width="7.822"
      stroke-linecap="round"
      fill="none"
      opacity="0.6699999999999999"
      class="thread"
      style="animation-delay: 2.2s"
    >
      <title>2026-01-09: 3911 stars, TypeScript, Unknown, Python, Shell</title>
    </path>

    <path
      d="M 20,292.49819130124627 L 35.2,295.52565378521643 L 50.400000000000006,298.9480462254801 L 65.6,299.91596189183014 L 80.80000000000001,297.6235360384462 L 96,293.97939070945296 L 111.2,292.017559087055 L 126.4,293.37141791748064 L 141.60000000000002,296.91377488409756 L 156.79999999999998,299.69534349868053 L 172,299.4002524901034 L 187.2,296.2741879743041 L 202.4,292.9198407372912 L 217.6,292.1299646082721 L 232.8,294.5621926311893 L 248,298.1915066297625 L 263.20000000000005,299.9962216528723 L 278.40000000000003,298.4737726900143 L 293.59999999999997,294.891716398376 L 308.8,292.23239202850476 L 324,292.70989305143786 L 339.2,295.92666288879474 L 354.4,299.2044915503192 L 369.6,299.81433284635375 L 384.8,297.2484466729772 L 400,293.6431319669652 L 415.2,292.00009240991943 L 430.40000000000003,293.6872856669995 L 445.6,297.29999269858706 L 460.79999999999995,299.8303551395909 L 476,299.17165031132714 L 491.2,295.87230099219875 L 506.40000000000003,292.6792709858379 L 521.6,292.2510050348285 L 536.8000000000001,294.9440677075024 L 552,298.5162757831079 L 567.1999999999999,299.99348941357243 L 582.4,298.1458138588658 L 597.6,294.5115820988303 L 612.8000000000001,292.11657350182475 L 628,292.9548181898554 L 643.1999999999999,296.32841254803134 L 658.4,299.42857802831594 L 673.6,299.67418679733953 L 688.8,296.8607505354049 L 704,293.3306727978296 L 719.2,292.0230166637812 L 734.4,294.0265071273072 L 749.6,297.67308323095733 L 764.8,299.92668798439047 L 780,298.9110209154245"
      stroke="url(#thread-23)"
      stroke-width="7.54"
      stroke-linecap="round"
      fill="none"
      opacity="0.655"
      class="thread"
      style="animation-delay: 2.3000000000000003s"
    >
      <title>2026-01-08: 3770 stars, TypeScript, Unknown, Python, Rust, JavaScript</title>
    </path>

    <path
      d="M 20,305.8537083279983 L 35.2,309.2937510511662 L 50.400000000000006,311.763346962002 L 65.6,311.4100442481892 L 80.80000000000001,308.498856408344 L 96,305.2134747768474 L 111.2,304.0182746511776 L 126.4,305.80977947841484 L 141.60000000000002,309.2441757425795 L 156.79999999999998,311.745311792363 L 172,311.43707745608 L 187.2,308.55068029783456 L 202.4,305.2512160822399 L 217.6,304.01362349826684 L 232.8,305.7662247119147 L 248,309.19438793251487 L 263.20000000000005,311.72663693472487 L 278.40000000000003,311.4635236214701 L 293.59999999999997,308.6024101327851 L 308.8,305.2894268716652 L 324,304.0096532064831 L 339.2,305.723051467521 L 354.4,309.14439612458057 L 369.6,311.70732557869724 L 384.8,311.4893782274338 L 400,308.6540370778952 L 415.2,305.3281006188353 L 430.40000000000003,304.00636445394036 L 445.6,305.6802671190942 L 460.79999999999995,309.0942088572272 L 476,311.6873810226016 L 491.2,311.5146368580822 L 506.40000000000003,308.70555231543796 L 521.6,305.3672307183904 L 536.8000000000001,304.0037578023476 L 552,305.63787897407246 L 567.1999999999999,309.0438347022893 L 582.4,311.6668066729083 L 597.6,311.5392951993171 L 612.8000000000001,308.7569470467654 L 628,305.40681048702703 L 643.1999999999999,304.0018336969131 L 658.4,305.59589427222346 L 673.6,308.99328226352105 L 688.8,311.64560604365437 L 704,311.5633490395679 L 719.2,308.808212493812 L 734.4,305.4468331646397 L 749.6,304.00059246626824 L 764.8,305.5543201844083 L 780,308.9425601751271"
      stroke="url(#thread-24)"
      stroke-width="7.128"
      stroke-linecap="round"
      fill="none"
      opacity="0.64"
      class="thread"
      style="animation-delay: 2.4000000000000004s"
    >
      <title>2026-01-07: 3564 stars, TypeScript, Python, Unknown, Shell, Rust</title>
    </path>

    <path
      d="M 20,319.7347124105952 L 35.2,323.3555505987357 L 50.400000000000006,323.53674530588387 L 65.6,320.09256093518485 L 80.80000000000001,316.55349597546325 L 96,316.54730729085384 L 111.2,320.08033865953735 L 126.4,323.5310180152149 L 141.60000000000002,323.3621891143706 L 156.79999999999998,319.74691185018895 L 172,316.3910653348513 L 187.2,316.7345963818676 L 202.4,320.42536477114004 L 217.6,323.68010839516324 L 232.8,323.16251705408774 L 248,319.4031533574654 L 263.20000000000005,316.2555937754703 L 278.40000000000003,316.9462783448951 L 293.59999999999997,320.767213367913 L 308.8,323.80170801942626 L 324,322.9392206940971 L 339.2,319.06385336527217 L 354.4,316.14809328260463 L 369.6,317.18077189577195 L 384.8,321.10333080870055 L 400,323.894908527379 L 415.2,322.69396807920026 L 430.40000000000003,318.7315464764491 L 445.6,316.0693668950424 L 460.79999999999995,317.4363253456279 L 476,321.4312062646211 L 491.2,323.95901370246514 L 506.40000000000003,322.4285912694872 L 521.6,318.40871505469653 L 536.8000000000001,316.02000270629986 L 552,317.71102968616754 L 567.1999999999999,321.7483904751947 L 582.4,323.99354467300003 L 597.6,322.14507265467495 L 612.8000000000001,318.0977706810848 L 628,316.0003694715077 L 643.1999999999999,318.00283285014154 L 658.4,322.05251404454935 L 673.6,323.9982434893875 L 688.8,321.84553014547026 L 704,317.8010361393173 L 719.2,316.0106138527757 L 734.4,318.3095550404822 L 749.6,322.34130514103083 L 764.8,323.97307505102737 L 780,321.53220135257743"
      stroke="url(#thread-25)"
      stroke-width="8"
      stroke-linecap="round"
      fill="none"
      opacity="0.625"
      class="thread"
      style="animation-delay: 2.5s"
    >
      <title>2026-01-06: 4224 stars, TypeScript, Python, Rust, JavaScript, Go</title>
    </path>

    <path
      d="M 20,333.68066814730656 L 35.2,335.92712996590154 L 50.400000000000006,334.9135635868508 L 65.6,331.4813608165323 L 80.80000000000001,328.47969596504754 L 96,328.4003409219667 L 111.2,331.30917068514196 L 126.4,334.7914785521112 L 141.60000000000002,335.95649647145405 L 156.79999999999998,333.83710817739956 L 172,330.19268136604376 L 187.2,328.048563879815 L 202.4,329.18465185784356 L 217.6,332.65784464506135 L 232.8,335.58494089073577 L 248,335.53607033822226 L 263.20000000000005,332.55180189677816 L 278.40000000000003,329.1094661749969 L 293.59999999999997,328.0666491494591 L 308.8,330.28902446421444 L 324,333.93173181294213 L 339.2,335.9708507306374 L 354.4,334.7136475344939 L 369.6,331.20376424939616 L 384.8,328.35486010720444 L 400,328.5318957577002 L 415.2,331.5879086053962 L 430.40000000000003,334.9860108614082 L 445.6,335.9053360738312 L 460.79999999999995,333.58272485111763 L 476,329.94624632873257 L 491.2,328.01465023638775 L 506.40000000000003,329.39141233938324 L 521.6,332.93364118360716 L 536.8000000000001,335.70082651985695 L 552,335.39584492654626 L 567.1999999999999,332.27187075812435 L 582.4,328.92220853117215 L 597.6,328.12751317874984 L 612.8000000000001,330.54748511309987 L 628,334.17323315618825 L 643.1999999999999,335.9949152705327 L 658.4,334.50029857576646 L 673.6,330.9301091522375 L 688.8,328.2480681634161 L 704,328.6806181581148 L 719.2,331.8686864313675 L 734.4,335.1657620306299 L 749.6,335.834843757395 L 764.8,333.3205068320597 L 780,329.709977637796"
      stroke="url(#thread-26)"
      stroke-width="7.528"
      stroke-linecap="round"
      fill="none"
      opacity="0.61"
      class="thread"
      style="animation-delay: 2.6s"
    >
      <title>2026-01-05: 3764 stars, Go, TypeScript, Python, Rust, JavaScript</title>
    </path>

    <path
      d="M 20,347.21513770620646 L 35.2,347.7646138540435 L 50.400000000000006,344.9666969684461 L 65.6,341.30921922931185 L 80.80000000000001,340.0443111282631 L 96,342.29669480933535 L 111.2,346.06361149434883 L 126.4,347.99562053472334 L 141.60000000000002,346.37483163599063 L 156.79999999999998,342.6424065423913 L 172,340.1171169103359 L 187.2,341.0443821239843 L 202.4,344.59970298191683 L 217.6,347.6217841340978 L 232.8,347.4234725848971 L 248,344.1811016115062 L 263.20000000000005,340.7776999730317 L 278.40000000000003,340.23948054981247 L 293.59999999999997,343.0450135266254 L 308.8,346.69969470081975 L 324,347.9538802108394 L 339.2,345.692382151193 L 354.4,341.92606355949465 L 369.6,340.00383327589105 L 384.8,341.6348865882549 L 400,345.36893491277766 L 415.2,347.88576325992204 L 430.40000000000003,346.947475791704 L 445.6,343.38837240081995 L 460.79999999999995,340.3731117635167 L 476,340.58278225767845 L 491.2,343.8309505388282 L 506.40000000000003,347.2294330382674 L 521.6,347.75639084132166 L 536.8000000000001,344.9432672919176 L 552,341.2914159249872 L 567.1999999999999,340.047964413843 L 582.4,342.318556281883 L 597.6,346.0842425225082 L 612.8000000000001,347.9966765650792 L 628,346.35537367485244 L 643.1999999999999,342.61973608363974 L 658.4,340.11139191402526 L 673.6,341.06069310231845 L 688.8,344.62354665318844 L 704,347.63195934934436 L 719.2,347.41093181734675 L 734.4,344.1569957731939 L 749.6,340.76346332477675 L 764.8,340.24777193500114 L 780,343.0684604693294"
      stroke="url(#thread-27)"
      stroke-width="7.814"
      stroke-linecap="round"
      fill="none"
      opacity="0.595"
      class="thread"
      style="animation-delay: 2.7s"
    >
      <title>2026-01-04: 3907 stars, Python, Jupyter Notebook, TypeScript, Go, Rust</title>
    </path>

    <path
      d="M 20,359.9624294227795 L 35.2,358.6683715390575 L 50.400000000000006,355.0206038032696 L 65.6,352.2367391797651 L 80.80000000000001,352.77236134392484 L 96,356.1550101655478 L 111.2,359.40092804529115 L 126.4,359.64696463818916 L 141.60000000000002,356.67609666086616 L 156.79999999999998,353.10885919438584 L 172,352.0918312839134 L 187.2,354.5221101206258 L 202.4,358.25600201063145 L 217.6,359.9999258317304 L 232.8,358.2156060406215 L 248,354.47695054709027 L 263.20000000000005,352.08174233967554 L 278.40000000000003,353.142740107721 L 293.59999999999997,356.7240618486212 L 308.8,359.6667050990415 L 324,359.37503116764884 L 339.2,356.1063189962476 L 354.4,352.7438252561004 L 369.6,352.2535292075355 L 384.8,355.06790984496746 L 400,358.70446601110734 L 415.2,359.95547421222534 L 430.40000000000003,357.7174485638083 L 445.6,353.96450059446147 L 460.79999999999995,352.00702036060943 L 476,353.5716566606685 L 491.2,357.2782793963954 L 506.40000000000003,359.8573609464404 L 521.6,359.03395212746506 L 536.8000000000001,355.5343631332082 L 552,352.4455018299086 L 567.1999999999999,352.49198252813903 L 582.4,355.6328056610272 L 597.6,359.0975225698055 L 612.8000000000001,359.82998526179546 L 628,357.1841050536287 L 643.1999999999999,353.49375270587694 L 658.4,352.01410410066876 L 673.6,354.0503236233596 L 688.8,357.80630833949107 L 704,359.96898954735974 L 719.2,358.6307153359291 L 734.4,354.9719469528569 L 749.6,352.22000078329165 L 764.8,352.8023059602651 L 780,356.2052243296109"
      stroke="url(#thread-28)"
      stroke-width="7.78"
      stroke-linecap="round"
      fill="none"
      opacity="0.5800000000000001"
      class="thread"
      style="animation-delay: 2.8000000000000003s"
    >
      <title>2026-01-03: 3890 stars, Go, Python, Jupyter Notebook, TypeScript, Rust, JavaScript</title>
    </path>

    <path
      d="M 20,371.7395802220987 L 35.2,370.08041416288967 L 50.400000000000006,367.54491186300265 L 65.6,365.20110707905616 L 80.80000000000001,364.03628451132045 L 96,364.541104264055 L 111.2,366.50292029195657 L 126.4,369.09535363959395 L 141.60000000000002,371.22638939253255 L 156.79999999999998,371.9983678954052 L 172,371.0861073881762 L 187.2,368.87388084768094 L 202.4,366.29354805674876 L 217.6,364.4320267926374 L 232.8,364.07344868434296 L 248,365.36885817148595 L 263.20000000000005,367.772587809405 L 278.40000000000003,370.2721106541505 L 293.59999999999997,371.8145486334974 L 308.8,371.7501780893342 L 324,370.1061139306481 L 339.2,367.5748879763223 L 354.4,365.22273265098084 L 369.6,364.04045016702423 L 384.8,364.52605529761223 L 400,366.4749958039722 L 415.2,369.0663163075481 L 430.40000000000003,371.2084706590189 L 445.6,371.99911569767823 L 460.79999999999995,371.10520672826857 L 476,368.9032864795091 L 491.2,366.320873398203 L 506.40000000000003,364.44576154570467 L 521.6,364.06780733665545 L 536.8000000000001,365.3462170371032 L 552,367.7424840501784 L 567.1999999999999,370.24722492552917 L 582.4,371.80536359141377 L 597.6,371.7605627640005 L 612.8000000000001,370.1316939686687 L 628,367.6048882566874 L 643.1999999999999,365.2445161068107 L 658.4,364.04484091779864 L 673.6,364.511203820243 L 688.8,366.4471580104207 L 704,369.0372183568575 L 719.2,371.1903695282731 L 734.4,371.99963615561455 L 749.6,371.12412954154416 L 764.8,368.93264076071864 L 780,366.3482941957412"
      stroke="url(#thread-29)"
      stroke-width="5.26"
      stroke-linecap="round"
      fill="none"
      opacity="0.5650000000000001"
      class="thread"
      style="animation-delay: 2.9000000000000004s"
    >
      <title>2026-01-02: 2630 stars, TypeScript, Rust, Python, JavaScript, Jupyter Notebook, Shell</title>
    </path>

    <path
      d="M 20,382.6011513606285 L 35.2,379.1214397720645 L 50.400000000000006,376.34754973166594 L 65.6,376.5079811196922 L 80.80000000000001,379.47384586783505 L 96,382.8624146177411 L 111.2,383.95136422630145 L 126.4,381.8658496070338 L 141.60000000000002,378.28134059170156 L 156.79999999999998,376.07757566853576 L 172,377.025025114249 L 187.2,380.3625228604053 L 202.4,383.4087754096582 L 217.6,383.7164711013498 L 232.8,381.038412028532 L 248,377.526108970718 L 263.20000000000005,376.0012912790281 L 278.40000000000003,377.6889736418095 L 293.59999999999997,381.233298440844 L 308.8,383.7868105588718 L 324,383.2980582921881 L 339.2,380.1596975687202 L 354.4,376.89303831589905 L 369.6,376.1224634933008 L 384.8,378.46704086312286 L 400,382.0431736310393 L 415.2,383.97785265500494 L 430.40000000000003,382.71678706174913 L 445.6,379.27309722830245 L 460.79999999999995,376.4133897143047 L 476,376.4351088162879 L 491.2,379.32080574736284 L 506.40000000000003,382.75215671974127 L 521.6,383.9724680218099 L 536.8000000000001,382.0013606367609 L 552,378.42239141349125 L 567.1999999999999,376.11084825792017 L 582.4,376.92378879323473 L 597.6,380.2081093061578 L 612.8000000000001,383.3252380569349 L 628,383.7709225529684 L 643.1999999999999,381.18710683977594 L 658.4,377.64958805552897 L 673.6,376.0003534716395 L 688.8,377.5643723620119 L 704,381.0851364083073 L 719.2,383.73411883357255 L 734.4,383.3831685822365 L 749.6,380.3142335980493 L 764.8,376.9928482551861 L 780,376.0873615981542"
      stroke="url(#thread-30)"
      stroke-width="7.396"
      stroke-linecap="round"
      fill="none"
      opacity="0.55"
      class="thread"
      style="animation-delay: 3s"
    >
      <title>2026-01-01: 3698 stars, Rust, Python, JavaScript, TypeScript, Jupyter Notebook, Go, Shell</title>
    </path>

    <path
      d="M 20,392.82586992775117 L 35.2,389.354345014488 L 50.400000000000006,388.01362826718605 L 65.6,389.8835317584838 L 80.80000000000001,393.4580368840523 L 96,395.8582404034686 L 111.2,395.1510205426736 L 126.4,391.90597154685963 L 141.60000000000002,388.73665298335123 L 156.79999999999998,388.1956311968297 L 172,390.7186446516814 L 187.2,394.2736605613683 L 202.4,395.9974722825582 L 217.6,394.5017233922837 L 232.8,390.99108871287723 L 248,388.29303028438187 L 263.20000000000005,388.5805619590048 L 278.40000000000003,391.62210598242274 L 293.59999999999997,394.96800551059505 L 308.8,395.9234760473734 L 324,393.7189824745161 L 339.2,390.1300219496558 L 354.4,388.047140078914 L 369.6,389.14788806349173 L 384.8,392.54572445824675 L 400,395.50403486100174 L 415.2,395.64019871157114 L 430.40000000000003,392.8445497661359 L 445.6,389.36870119221635 L 460.79999999999995,388.0120983315183 L 476,389.8673479182424 L 491.2,393.44023358973504 L 506.40000000000003,395.8531564124418 L 521.6,395.1627504967764 L 536.8000000000001,391.9250681515183 L 552,388.7477358502038 L 567.1999999999999,388.18977419479677 L 582.4,390.700565004977 L 597.6,394.2579196013249 L 612.8000000000001,395.9967477643571 L 628,394.516598842238 L 643.1999999999999,391.0095834568595 L 658.4,388.3002486720822 L 673.6,388.57069030740666 L 688.8,391.6030949109198 L 704,394.95516651922196 L 719.2,395.9271496483323 L 734.4,393.73620995287075 L 749.6,390.14692830970273 L 764.8,388.05010895334834 L 780,389.1345283234916"
      stroke="url(#thread-31)"
      stroke-width="7.406"
      stroke-linecap="round"
      fill="none"
      opacity="0.535"
      class="thread"
      style="animation-delay: 3.1s"
    >
      <title>2025-12-31: 3703 stars, Go, Python, TypeScript, Rust, Shell</title>
    </path>

    <path
      d="M 20,402.84838673333974 L 35.2,400.0752536897008 L 50.400000000000006,401.4829610832889 L 65.6,405.5719470240904 L 80.80000000000001,407.9864146230949 L 96,406.1543495450567 L 111.2,402.027361182357 L 126.4,400.00172854682967 L 141.60000000000002,402.23525908996663 L 156.79999999999998,406.3486818795235 L 172,407.9601686457694 L 187.2,405.35308129194453 L 202.4,401.3046225645427 L 217.6,400.1274176927538 L 232.8,403.07548549505805 L 248,407.0083934173265 L 263.20000000000005,407.7366068559692 L 278.40000000000003,404.48439562347824 L 293.59999999999997,400.7161814063002 L 308.8,400.44605865277447 L 324,403.96177593100373 L 339.2,407.51821144187795 L 354.4,407.3268682429998 L 369.6,403.591574892959 L 384.8,400.2913568492163 L 400,400.94177510809357 L 415.2,404.8499708851417 L 430.40000000000003,407.8527342173613 L 445.6,406.75136807564184 L 460.79999999999995,402.71910398565166 L 476,400.0513158207977 L 491.2,401.5898679350405 L 506.40000000000003,405.6958159519938 L 521.6,407.99529411188007 L 536.8000000000001,406.03878070927226 L 552,401.91045385477435 L 567.1999999999999,400.00801839011893 L 582.4,402.3580458414642 L 597.6,406.4571668135971 L 612.8000000000001,407.9387880639414 L 628,405.2246108831412 L 643.1999999999999,401.2059155767568 L 658.4,400.1636218561429 L 673.6,403.2080342837053 L 688.8,407.0960890845068 L 704,407.6860314932295 L 719.2,404.3494246930655 L 734.4,400.6405928441893 L 749.6,400.51037326007696 L 764.8,404.09748249969357 L 780,407.58074839647514"
      stroke="url(#thread-32)"
      stroke-width="8"
      stroke-linecap="round"
      fill="none"
      opacity="0.52"
      class="thread"
      style="animation-delay: 3.2s"
    >
      <title>2025-12-30: 4315 stars, Go, Shell, Rust, Python, Swift, TypeScript</title>
    </path>

    <path
      d="M 20,413.1528586305235 L 35.2,412.0040658271198 L 50.400000000000006,413.41746342603676 L 65.6,416.486781802718 L 80.80000000000001,419.2439760029268 L 96,419.92113489212676 L 111.2,418.08406462935596 L 126.4,414.91069347669765 L 141.60000000000002,412.43578496091976 L 156.79999999999998,412.2462488186202 L 172,414.46361550142365 L 187.2,417.6661109291507 L 202.4,419.8002971087315 L 217.6,419.49773524475273 L 232.8,416.95242780834013 L 248,413.7964242783847 L 263.20000000000005,412.05335207323134 L 278.40000000000003,412.84086796132897 L 293.59999999999997,415.65401726553273 L 308.8,418.68901047488316 L 324,419.9998119101936 L 339.2,418.7459365405308 L 354.4,415.7313684404223 L 369.6,412.8890467222442 L 384.8,412.04146622989276 L 400,413.7320950258391 L 415.2,416.876903021635 L 430.40000000000003,419.45944136818395 L 445.6,419.8237881511409 L 460.79999999999995,417.7363244493673 L 476,414.5355306357824 L 491.2,412.27375362957054 L 506.40000000000003,412.40124338150326 L 521.6,414.8362535452535 L 536.8000000000001,418.0174571816898 L 552,419.905068580521 L 567.1999999999999,419.28875253597226 L 582.4,416.56369049644076 L 597.6,413.4771904758579 L 612.8000000000001,412.0083142873966 L 628,413.09890439127946 L 643.1999999999999,416.0496751195895 L 658.4,418.9685941934078 L 673.6,419.9840525940359 L 688.8,418.44493905299913 L 704,415.3381321754783 L 719.2,412.6557145181563 L 734.4,412.1176505447249 L 749.6,414.0689465262877 L 764.8,417.25843274388916 L 780,419.64101270156226"
      stroke="url(#thread-33)"
      stroke-width="6.556"
      stroke-linecap="round"
      fill="none"
      opacity="0.505"
      class="thread"
      style="animation-delay: 3.3000000000000003s"
    >
      <title>2025-12-29: 3278 stars, Shell, Go, JavaScript, TypeScript, Rust, Python</title>
    </path>

    <path
      d="M 20,424.1544100324818 L 35.2,424.87724202242987 L 50.400000000000006,428.231946369329 L 65.6,431.39116542978684 L 80.80000000000001,431.69229730686044 L 96,428.8815469037926 L 111.2,425.32782540142335 L 126.4,424.0262228623088 L 141.60000000000002,426.0737348804202 L 156.79999999999998,429.74471050243403 L 172,431.94523744567726 L 187.2,430.82070319318683 L 202.4,427.31886951031 L 217.6,424.3910952070482 L 232.8,424.5049196545255 L 248,427.564411173434 L 263.20000000000005,430.99101861995206 L 278.40000000000003,431.8967841435546 L 293.59999999999997,429.5183250996142 L 308.8,425.86021585951966 L 324,424.00552487009423 L 339.2,425.51739278482944 L 354.4,429.12161154766295 L 369.6,431.7805318119468 L 384.8,431.25320541801887 L 400,427.9840650658317 L 415.2,424.72835473705607 L 430.40000000000003,424.22999953830947 L 445.6,426.9090151355336 L 460.79999999999995,430.50751694567117 L 476,431.9926738916533 L 491.2,430.11279002395725 L 506.40000000000003,426.4522386501544 L 521.6,424.0961464566898 L 536.8000000000001,425.0302369478975 L 552,428.4672550882101 L 567.1999999999999,431.5104688545885 L 582.4,431.59504605524813 L 597.6,428.6497047022657 L 612.8000000000001,425.1567897434015 L 628,424.06014325397655 L 643.1999999999999,426.284023086055 L 658.4,429.95413481872157 L 673.6,431.97729425854646 L 688.8,430.6483748982481 L 704,427.0873950530812 L 719.2,424.2955621446491 L 734.4,424.62584361702073 L 749.6,427.79987698312794 L 764.8,431.1425747926145 L 780,431.83669855770165"
      stroke="url(#thread-34)"
      stroke-width="7.59"
      stroke-linecap="round"
      fill="none"
      opacity="0.49000000000000005"
      class="thread"
      style="animation-delay: 3.4000000000000004s"
    >
      <title>2025-12-28: 3795 stars, Shell, Rust, Python, JavaScript, TypeScript</title>
    </path>

    <path
      d="M 20,436.09749597812737 L 35.2,440.01436343399394 L 50.400000000000006,443.9087071642452 L 65.6,441.6736915981665 L 80.80000000000001,436.8141107409726 L 96,436.9504170470649 L 111.2,441.86886456687785 L 126.4,443.8566902914951 L 141.60000000000002,439.7967259162352 L 156.79999999999998,436.0555216431451 L 172,438.49977053137667 L 187.2,443.29657361559657 L 202.4,442.923922123729 L 217.6,437.9661818805827 L 232.8,436.1977319765355 L 248,440.39173100443855 L 263.20000000000005,443.9714450596326 L 278.40000000000003,441.3234186693938 L 293.59999999999997,436.6001003262589 L 308.8,437.2082652066462 L 324,442.194231976379 L 339.2,443.73935869399696 L 354.4,439.4206864596183 L 369.6,436.01045291993375 L 384.8,438.8563461392545 L 400,443.4956367988508 L 415.2,442.6533160178093 L 430.40000000000003,437.6502519228078 L 445.6,436.33189727667923 L 460.79999999999995,440.7656029876793 L 476,443.9987440125458 L 491.2,440.9613362966052 L 506.40000000000003,436.41642870438915 L 521.6,437.49102523766453 L 536.8000000000001,442.50001929359183 L 552,443.5886591622439 L 567.1999999999999,439.04981647127397 L 582.4,436.00098467144767 L 597.6,439.2231270710819 L 612.8000000000001,443.66350688499193 L 628,442.3590332117694 L 643.1999999999999,437.3552897955545 L 658.4,436.4987946628644 L 673.6,441.1326431603747 L 688.8,443.99036042248 L 704,440.590675499288 L 719.2,436.26473485763404 L 734.4,437.79617394860566 L 749.6,442.78349784444896 L 764.8,443.4059364541155 L 780,438.68742538642925"
      stroke="url(#thread-35)"
      stroke-width="8"
      stroke-linecap="round"
      fill="none"
      opacity="0.47500000000000003"
      class="thread"
      style="animation-delay: 3.5s"
    >
      <title>2025-12-27: 5384 stars, Shell, Python, Rust, C, Go</title>
    </path>

    <path
      d="M 20,448.9960510129133 L 35.2,452.42416989418274 L 50.400000000000006,455.4934045952184 L 65.6,455.6069188135561 L 80.80000000000001,452.6686697659815 L 96,449.16466863627545 L 111.2,448.0596014858936 L 126.4,450.2884500846576 L 141.60000000000002,453.9654169886594 L 156.79999999999998,455.97947222809916 L 172,454.6265519986739 L 187.2,451.05134307357974 L 202.4,448.2787794281968 L 217.6,448.6546881583786 L 232.8,451.8610181758131 L 248,455.18493875949184 L 263.20000000000005,455.81412746457454 L 278.40000000000003,453.21623657913557 L 293.59999999999997,449.58930503414115 L 308.8,448.0020285860338 L 324,449.79737950770647 L 339.2,453.4563366413803 L 354.4,455.883107830568 L 369.6,455.0244361119847 L 384.8,451.6068315469053 L 400,448.5218812788842 L 415.2,448.37971833052507 L 430.40000000000003,451.300624772482 L 445.6,454.81326275561116 L 460.79999999999995,455.94563869827897 L 476,453.73966524569164 L 491.2,450.06178550238525 L 506.40000000000003,448.0238017786535 L 521.6,449.3500234327321 L 536.8000000000001,452.9183529804296 L 552,455.7096769908017 L 567.1999999999999,455.3622954870991 L 582.4,452.1701230726315 L 597.6,448.83401191970665 L 612.8000000000001,448.1765987423067 L 628,450.7541115813222 L 643.1999999999999,454.3857530841869 L 658.4,455.998842465364 L 673.6,454.22856749242743 L 688.8,450.5727329156995 L 704,448.12448894016387 L 719.2,448.9552603515546 L 734.4,452.36214314601006 L 749.6,455.4626217192666 L 764.8,455.63342476811357 L 780,452.7300382357837"
      stroke="url(#thread-36)"
      stroke-width="7.606"
      stroke-linecap="round"
      fill="none"
      opacity="0.46"
      class="thread"
      style="animation-delay: 3.6s"
    >
      <title>2025-12-26: 3803 stars, Python, Shell, Go, TypeScript</title>
    </path>

    <path
      d="M 20,462.63007752612157 L 35.2,466.03197706802865 L 50.400000000000006,467.9517175639438 L 65.6,466.98900725529006 L 80.80000000000001,463.8460636105083 L 96,460.8154038176372 L 111.2,460.1076432906027 L 126.4,462.23903473916494 L 141.60000000000002,465.6549045571393 L 156.79999999999998,467.86365850839917 L 172,467.25419344579814 L 187.2,464.27106367556496 L 202.4,461.09021539506915 L 217.6,460.03181408601995 L 232.8,461.8678758794946 L 248,465.25914570267923 L 263.20000000000005,467.73197297904 L 278.40000000000003,467.482634933108 L 293.59999999999997,464.6930030269694 L 308.8,461.3978827856111 L 324,460.0007916257422 L 339.2,461.52079188485453 L 354.4,464.84916921306666 L 369.6,467.55814790212696 L 384.8,467.6717522717166 L 400,465.10711733940013 L 415.2,461.73493196501175 L 430.40000000000003,460.01492619966893 L 445.6,461.20170185181354 L 460.79999999999995,464.4296043350502 L 476,467.34414602233574 L 491.2,467.81941004447924 L 506.40000000000003,465.50873064391 L 521.6,462.0975571447504 L 536.8000000000001,460.0740582073547 L 552,460.9142087833132 L 567.1999999999999,464.0051885826016 L 582.4,467.09238374043906 L 597.6,467.9239409746572 L 612.8000000000001,465.89330812659796 L 628,462.48166374507207 L 643.1999999999999,460.17751996013624 L 658.4,460.6615589053846 L 673.6,463.5807142433076 L 688.8,466.8057038285335 L 704,467.9841647519622 L 719.2,466.2565073334294 L 734.4,462.88291462890726 L 749.6,460.3241432203344 L 764.8,460.4466050124088 L 780,463.1609742662886"
      stroke="url(#thread-37)"
      stroke-width="7.022"
      stroke-linecap="round"
      fill="none"
      opacity="0.445"
      class="thread"
      style="animation-delay: 3.7s"
    >
      <title>2025-12-25: 3511 stars, Python, TypeScript</title>
    </path>

    <path
      d="M 20,476.5995088386518 L 35.2,479.07344736831163 L 50.400000000000006,479.9980389162149 L 65.6,478.90719021560477 L 80.80000000000001,476.35080596283916 L 96,473.61757789445755 L 111.2,472.08534598971613 L 126.4,472.5265194010991 L 141.60000000000002,474.7186994305174 L 156.79999999999998,477.55679231678783 L 172,479.6100949697503 L 187.2,479.8435227151721 L 202.4,478.13940294328086 L 217.6,475.3567947199168 L 232.8,472.89843091655547 L 248,472.00359045434175 L 263.20000000000005,473.12336886319406 L 278.40000000000003,475.6932777722103 L 293.59999999999997,478.4178075681053 L 308.8,479.92350313350886 L 324,479.45133247595714 L 339.2,477.23932022886163 L 354.4,474.4025577173516 L 369.6,472.3710773800769 L 384.8,472.16896310456576 L 400,473.89810215459954 L 415.2,476.686823065806 L 430.40000000000003,479.1293115166883 L 445.6,479.9942914657671 L 460.79999999999995,478.8457202831271 L 476,476.2626009845685 L 491.2,473.5471026360081 L 506.40000000000003,472.06812753708687 L 521.6,472.5712377004269 L 536.8000000000001,474.8028116646364 L 552,477.6378969019245 L 567.1999999999999,479.64730649967197 L 582.4,479.81808258930374 L 597.6,478.06413571252773 L 612.8000000000001,475.26964313807224 L 628,472.8433287244989 L 643.1999999999999,472.00831506444456 L 658.4,473.18553856543303 L 673.6,475.7815523713656 L 688.8,478.48768720217276 L 704,479.9397609750357 L 719.2,479.40577282979035 L 734.4,477.15491004117575 L 749.6,474.3218487724619 L 764.8,472.33475563911446 L 780,472.19533861907485"
      stroke="url(#thread-38)"
      stroke-width="5.776"
      stroke-linecap="round"
      fill="none"
      opacity="0.43000000000000005"
      class="thread"
      style="animation-delay: 3.8000000000000003s"
    >
      <title>2025-12-24: 2888 stars, Python, TypeScript</title>
    </path>

    <path
      d="M 20,490.4221594788784 L 35.2,491.92456327718736 L 50.400000000000006,491.4485664264678 L 65.6,489.2341223716986 L 80.80000000000001,486.3975483297939 L 96,484.3687817305162 L 111.2,484.17053844650013 L 126.4,485.9027543467997 L 141.60000000000002,488.69220690463567 L 156.79999999999998,491.1327129701693 L 172,491.99399583667093 L 187.2,490.84187660021297 L 202.4,488.25714687611116 L 217.6,485.5427875574119 L 232.8,484.0671267505892 L 248,484.57405570971815 L 263.20000000000005,486.80802789091155 L 278.40000000000003,489.6428818079027 L 293.59999999999997,491.64954715830225 L 308.8,491.8164494684126 L 324,490.0594520801332 L 339.2,487.2642700470393 L 354.4,484.8399747887639 L 369.6,484.0086710271976 L 384.8,485.18942498328335 L 400,487.787010073049 L 415.2,490.49196492091374 L 430.40000000000003,491.94070228196927 L 445.6,491.4029032053033 L 460.79999999999995,489.1496760836656 L 476,486.3168889576529 L 491.2,484.3325702454182 L 506.40000000000003,484.1970293192131 L 521.6,485.9785933373567 L 536.8000000000001,488.77916303100324 L 552,491.1869510219833 L 567.1999999999999,491.9881740208879 L 582.4,490.7789297361517 L 597.6,488.16880693187045 L 612.8000000000001,485.4735873359246 L 628,484.051950582527 L 643.1999999999999,484.62055401084035 L 658.4,486.8927605323116 L 673.6,489.72313445402284 L 688.8,491.68486387151154 L 704,491.78902683890465 L 719.2,489.98311405319436 L 734.4,487.1774991725419 L 749.6,484.78651289026834 L 764.8,484.0154686332625 L 780,485.2530553716722"
      stroke="url(#thread-39)"
      stroke-width="5.776"
      stroke-linecap="round"
      fill="none"
      opacity="0.41500000000000004"
      class="thread"
      style="animation-delay: 3.9000000000000004s"
    >
      <title>2025-12-23: 2888 stars, Python, TypeScript</title>
    </path>
  </g>

  <!-- Date markers -->
  <g id="dates">
    <text x="785" y="24" class="date-label">01-31</text>
<text x="785" y="108" class="date-label">01-24</text>
<text x="785" y="192" class="date-label">01-17</text>
<text x="785" y="276" class="date-label">01-10</text>
<text x="785" y="360" class="date-label">01-03</text>
<text x="785" y="444" class="date-label">12-27</text>
  </g>

</svg>