<?xml version="1.0" encoding="UTF-8"?>
<svg xmlns="http://www.w3.org/2000/svg" viewBox="0 0 800 200" width="800" height="200">
  <title>The Data Tapestry - GitHub Trends Woven in Time</title>
  <desc>A living data art piece that weaves daily GitHub trending repositories into an evolving tapestry. Each thread represents one day of open source activity.</desc>

  <style>
    .thread {
      animation: breathe 8s ease-in-out infinite alternate;
    }

    @keyframes breathe {
      0% {
        opacity: 0.85;
      }
      100% {
        opacity: 1;
      }
    }

    .date-label {
      font-family: ui-monospace, monospace;
      font-size: 8px;
      fill: #666;
    }

    .title {
      font-family: system-ui, sans-serif;
      font-size: 14px;
      fill: #333;
      font-weight: 600;
    }

    .subtitle {
      font-family: system-ui, sans-serif;
      font-size: 10px;
      fill: #888;
    }

    .empty-state {
      font-family: system-ui, sans-serif;
      font-size: 12px;
      fill: #999;
      text-anchor: middle;
    }
  </style>

  <defs>
    
    <linearGradient id="thread-0" x1="0%" y1="0%" x2="100%" y2="0%">
      <stop offset="0%" stop-color="#3572A5" />
      <stop offset="50%" stop-color="#3178c6" />
      <stop offset="100%" stop-color="#dea584" />
    </linearGradient>

    <linearGradient id="thread-1" x1="0%" y1="0%" x2="100%" y2="0%">
      <stop offset="0%" stop-color="#3572A5" />
      <stop offset="50%" stop-color="#dea584" />
      <stop offset="100%" stop-color="#3178c6" />
    </linearGradient>

    <linearGradient id="thread-2" x1="0%" y1="0%" x2="100%" y2="0%">
      <stop offset="0%" stop-color="#3572A5" />
      <stop offset="50%" stop-color="#3178c6" />
      <stop offset="100%" stop-color="#89e051" />
    </linearGradient>

    <linearGradient id="thread-3" x1="0%" y1="0%" x2="100%" y2="0%">
      <stop offset="0%" stop-color="#3572A5" />
      <stop offset="50%" stop-color="#f1e05a" />
      <stop offset="100%" stop-color="#89e051" />
    </linearGradient>

    <linearGradient id="thread-4" x1="0%" y1="0%" x2="100%" y2="0%">
      <stop offset="0%" stop-color="#3572A5" />
      <stop offset="50%" stop-color="#89e051" />
      <stop offset="100%" stop-color="#dea584" />
    </linearGradient>

    <linearGradient id="thread-5" x1="0%" y1="0%" x2="100%" y2="0%">
      <stop offset="0%" stop-color="#3572A5" />
      <stop offset="50%" stop-color="#89e051" />
      <stop offset="100%" stop-color="#00ADD8" />
    </linearGradient>

    <linearGradient id="thread-6" x1="0%" y1="0%" x2="100%" y2="0%">
      <stop offset="0%" stop-color="#3572A5" />
      <stop offset="50%" stop-color="#3178c6" />
      <stop offset="100%" stop-color="#3572A5" />
    </linearGradient>

    <linearGradient id="thread-7" x1="0%" y1="0%" x2="100%" y2="0%">
      <stop offset="0%" stop-color="#3572A5" />
      <stop offset="50%" stop-color="#3178c6" />
      <stop offset="100%" stop-color="#3572A5" />
    </linearGradient>

    <linearGradient id="thread-8" x1="0%" y1="0%" x2="100%" y2="0%">
      <stop offset="0%" stop-color="#3572A5" />
      <stop offset="50%" stop-color="#3178c6" />
      <stop offset="100%" stop-color="#3572A5" />
    </linearGradient>

    <!-- Background pattern -->
    <pattern id="loom" patternUnits="userSpaceOnUse" width="20" height="20">
      <rect width="20" height="20" fill="#fafafa"/>
      <circle cx="10" cy="10" r="0.5" fill="#eee"/>
    </pattern>
  </defs>

  <!-- Background -->
  <rect width="100%" height="100%" fill="url(#loom)"/>

  <!-- Threads -->
  <g id="tapestry">
    
    <path
      d="M 20,20 L 35.2,23.208070266894552 L 50.400000000000006,23.83236360175898 L 65.6,21.370074709432377 L 80.80000000000001,17.804328867948616 L 96,16.00697459814027 L 111.2,17.425599426047427 L 126.4,20.917644180389885 L 141.60000000000002,23.670619130192733 L 156.79999999999998,23.46728070596182 L 172,20.47139749323743 L 187.2,17.09585115984744 L 202.4,16.059303712423834 L 217.6,18.19658954073836 L 232.8,21.786340544677806 L 248,23.93737446697536 L 263.20000000000005,22.917250504884308 L 278.40000000000003,19.547575587735864 L 293.59999999999997,16.54228288875715 L 308.8,16.321832467613962 L 324,19.063774896899435 L 339.2,22.559752189305403 L 354.4,23.994107351207614 L 369.6,22.211612014354404 L 384.8,18.647886333434855 L 400,16.17315179376468 L 415.2,16.780557386649367 L 430.40000000000003,19.980899189258153 L 445.6,23.196624767804508 L 460.79999999999995,23.83779160908087 L 476,21.388004510909802 L 491.2,17.82031981746129 L 506.40000000000003,16.008147599211263 L 521.6,17.41100974466024 L 536.8000000000001,20.899042332922825 L 552,23.66298702800681 L 567.1999999999999,23.476765237351355 L 582.4,20.490359825079498 L 597.6,17.10901904698689 L 612.8000000000001,16.05607175030153 L 628,18.17956074876536 L 643.1999999999999,21.769229896723036 L 658.4,23.9339628636425 L 673.6,22.930285648455182 L 688.8,19.566558985203102 L 704,16.551925328729858 L 719.2,16.314367937537163 L 734.4,19.045215322640182 L 749.6,22.545045435420857 L 764.8,23.995098224161037 L 780,22.227502465952767"
      stroke="url(#thread-0)"
      stroke-width="7.406"
      stroke-linecap="round"
      fill="none"
      opacity="1"
      class="thread"
      style="animation-delay: 0s"
    >
      <title>2025-12-31: 3703 stars, Go, Python, TypeScript, Rust, Shell</title>
    </path>

    <path
      d="M 20,33.917702154416816 L 35.2,35.999625641295935 L 50.400000000000006,33.82094339908132 L 65.6,29.70249914554819 L 80.80000000000001,28.031470270596206 L 96,30.587922169494366 L 111.2,34.64859157126592 L 126.4,35.88784581206541 L 141.60000000000002,32.98556791303397 L 156.79999999999998,29.033412682152317 L 172,28.241417940236648 L 187.2,31.453256980101607 L 202.4,35.247514639066715 L 217.6,35.582353663031704 L 232.8,32.10108640375779 L 248,28.51213673877644 L 263.20000000000005,28.638637349848842 L 278.40000000000003,32.34583331823858 L 293.59999999999997,35.684629954004436 L 308.8,35.09837037212511 L 324,31.211568253956504 L 339.2,28.16464394322786 L 354.4,29.203337001254518 L 369.6,33.22117847551613 L 384.8,35.938158200290566 L 400,34.46001045688554 L 415.2,30.361333797469005 L 430.40000000000003,28.008248159994636 L 445.6,29.907380675901432 L 460.79999999999995,34.0356782889141 L 476,35.995467306825134 L 491.2,33.6990802661313 L 506.40000000000003,29.592746054050796 L 521.6,28.0507418251563 L 536.8000000000001,30.715689324863433 L 552,34.74875022096585 L 567.1999999999999,35.85370184144614 L 582.4,32.853493225338745 L 597.6,28.94409998753194 L 612.8000000000001,28.29000768744997 L 628,31.587988886082435 L 643.1999999999999,35.324865388886074 L 658.4,35.51992528313245 L 673.6,31.965380796295587 L 688.8,28.44771445528238 L 704,28.714124300533648 L 719.2,32.48081694367701 L 734.4,35.73531879483118 L 749.6,35.010768083432865 L 764.8,31.078993272658504 L 780,28.128321917799997"
      stroke="url(#thread-1)"
      stroke-width="8"
      stroke-linecap="round"
      fill="none"
      opacity="0.9333333333333333"
      class="thread"
      style="animation-delay: 0.1s"
    >
      <title>2025-12-30: 4315 stars, Go, Shell, Rust, Python, Swift, TypeScript</title>
    </path>

    <path
      d="M 20,47.36588393923159 L 35.2,47.872608398827666 L 50.400000000000006,45.89621886251157 L 65.6,42.703975020286165 L 80.80000000000001,40.34274155524051 L 96,40.32653983510339 L 111.2,42.66575839232815 L 126.4,45.8604918038153 L 141.60000000000002,47.86227907627837 L 156.79999999999998,47.38757550775456 L 172,44.740760718777615 L 187.2,41.618970636926875 L 202.4,40.02389503979258 L 217.6,40.978295366662294 L 232.8,43.87021074639017 L 248,46.845346911430376 L 263.20000000000005,47.996048480621155 L 278.40000000000003,46.584486353441854 L 293.59999999999997,43.51575325116002 L 308.8,40.75751885044677 L 324,40.078361261727814 L 339.2,41.91375589080164 L 354.4,45.08684889082566 L 369.6,47.563055086320766 L 384.8,47.754632669295304 L 400,45.538742217686575 L 415.2,42.33621125318862 L 430.40000000000003,40.20050055502567 L 445.6,40.5010264389381 L 460.79999999999995,43.045091902899365 L 476,46.20144381994954 L 491.2,47.94623138616426 L 506.40000000000003,47.160697944693624 L 521.6,44.34852702918984 L 536.8000000000001,41.31288080841199 L 552,40.000213672050805 L 567.1999999999999,41.25220693734434 L 582.4,44.26608333386699 L 597.6,47.10934726913376 L 612.8000000000001,47.95889975026163 L 628,46.270008276853886 L 643.1999999999999,43.125588967272805 L 658.4,40.541841445265746 L 673.6,40.175462947698016 L 688.8,42.26137512980002 L 704,45.462092452060645 L 719.2,47.72531704148301 L 734.4,47.599870757879096 L 749.6,45.166189677007644 L 764.8,41.984748530919525 L 780,40.095485320940604"
      stroke="url(#thread-2)"
      stroke-width="6.556"
      stroke-linecap="round"
      fill="none"
      opacity="0.8666666666666667"
      class="thread"
      style="animation-delay: 0.2s"
    >
      <title>2025-12-29: 3278 stars, Shell, Go, JavaScript, TypeScript, Rust, Python</title>
    </path>

    <path
      d="M 20,59.98997994641622 L 35.2,58.53937144371838 L 50.400000000000006,54.94857098418062 L 65.6,52.24391891715597 L 80.80000000000001,52.70490634041808 L 96,55.94301129200249 L 111.2,59.229146544466545 L 126.4,59.79374474924096 L 141.60000000000002,57.16096038175957 L 156.79999999999998,53.549714167982344 L 172,52.0035782170677 L 187.2,53.8256418169235 L 202.4,57.48026280267133 L 217.6,59.88731264158151 L 232.8,59.01812053100651 L 248,55.60524490331077 L 263.20000000000005,52.52507037964049 L 278.40000000000003,52.37357981926952 L 293.59999999999997,55.278450045391686 L 308.8,58.79144533062285 L 324,59.951799823843935 L 339.2,57.78156232393471 L 354.4,54.10981728926683 L 369.6,52.031125466438425 L 384.8,53.29741626734047 L 400,56.841454965909186 L 415.2,59.67631220363387 L 430.40000000000003,59.41275946730268 L 445.6,56.27292001024844 L 460.79999999999995,52.9030625256074 L 476,52.143315779167686 L 491.2,54.63399723216083 L 506.40000000000003,58.275951037996386 L 521.6,59.9997246115817 L 536.8000000000001,58.35251499778924 L 552,54.722596753848016 L 567.1999999999999,52.16927884729282 L 582.4,52.844507367138114 L 597.6,56.179197136508094 L 612.8000000000001,59.36285887443666 L 628,59.71229030200213 L 643.1999999999999,56.93298927671858 L 658.4,53.367361323647266 L 673.6,52.02053130749593 L 688.8,54.02761271271678 L 704,57.69702966103395 L 719.2,59.93618352592234 L 734.4,58.85790687324559 L 749.6,55.37097538645703 L 764.8,52.4141882477469 L 780,52.479536956826195"
      stroke="url(#thread-3)"
      stroke-width="7.59"
      stroke-linecap="round"
      fill="none"
      opacity="0.8"
      class="thread"
      style="animation-delay: 0.30000000000000004s"
    >
      <title>2025-12-28: 3795 stars, Shell, Rust, Python, JavaScript, TypeScript</title>
    </path>

    <path
      d="M 20,71.63718970730272 L 35.2,67.16008144502942 L 50.400000000000006,64.00007430769114 L 65.6,67.11246893814221 L 80.80000000000001,71.61662727362135 L 96,70.44944542692741 L 111.2,65.44121576889411 L 126.4,64.44549133450555 L 141.60000000000002,69.02369705585458 L 156.79999999999998,71.9966131501564 L 172,68.70232197197987 L 187.2,64.30669893979555 L 202.4,65.70265052199682 L 217.6,70.70114376010052 L 232.8,71.46389358714903 L 248,66.79480944257033 L 263.20000000000005,64.01562025216049 L 278.40000000000003,67.48445477427788 L 293.59999999999997,71.76173101105327 L 308.8,70.14012560384023 L 324,65.16252594737648 L 339.2,64.6344532653648 L 354.4,69.38399394714494 L 369.6,71.96325279159655 L 384.8,68.32761772839235 L 400,64.17823561666708 L 415.2,66.02187525536705 L 430.40000000000003,70.96747080514835 L 445.6,71.2596876284534 L 460.79999999999995,66.44029188293841 L 476,64.066720560988 L 491.2,67.8610410461045 L 506.40000000000003,71.87326717625342 L 521.6,69.81170850330791 L 536.8000000000001,64.90915614872526 L 552,64.85344744275693 L 567.1999999999999,69.73194085470371 L 582.4,71.89452659375583 L 597.6,67.94999000842392 L 612.8000000000001,64.0838755698264 L 628,66.35875166161178 L 643.1999999999999,71.20731780941047 L 658.4,71.02639405036143 L 673.6,66.09969228148218 L 688.8,64.15291924375262 L 704,68.2388673094958 L 719.2,71.950240483203 L 734.4,69.46712473485893 L 749.6,64.68336730254778 L 764.8,65.10051968578848 L 780,70.06443289598666"
      stroke="url(#thread-4)"
      stroke-width="8"
      stroke-linecap="round"
      fill="none"
      opacity="0.7333333333333334"
      class="thread"
      style="animation-delay: 0.4s"
    >
      <title>2025-12-27: 5384 stars, Shell, Python, Rust, C, Go</title>
    </path>

    <path
      d="M 20,82.39388857641583 L 35.2,78.76375615452856 L 50.400000000000006,76.17959225878073 L 65.6,76.82782160727258 L 80.80000000000001,80.15998646755429 L 96,83.35678902833253 L 111.2,83.71345961564317 L 126.4,80.92822426321476 L 141.60000000000002,77.35763141996595 L 156.79999999999998,76.02270945936681 L 172,78.05291707255975 L 187.2,81.73052415904128 L 202.4,83.94395909962161 L 217.6,82.82046572974208 L 232.8,79.31061598432073 L 248,76.38404435629148 L 263.20000000000005,76.51688192903605 L 278.40000000000003,79.59673670101806 L 293.59999999999997,83.017786877149 L 308.8,83.88553003083673 L 324,81.46578088718167 L 339.2,77.80585515552987 L 354.4,76.00236450949149 L 369.6,77.58121701312137 L 384.8,81.20656777444066 L 400,83.81105851583585 L 415.2,83.19106626106309 L 430.40000000000003,79.87115773481672 L 445.6,76.66026083658525 L 460.79999999999995,76.27507026097243 L 476,79.04149033513218 L 491.2,82.61889195239506 L 506.40000000000003,83.98048593138377 L 521.6,81.97424676141917 L 536.8000000000001,78.297625180378 L 552,76.06135898516112 L 567.1999999999999,77.15752154368437 L 582.4,80.65866513602765 L 597.6,83.602521422898 L 612.8000000000001,83.4983350142293 L 628,80.43425656469874 L 643.1999999999999,77.00275974491043 L 658.4,76.10718573969132 L 673.6,78.50526711589646 L 688.8,82.16802095739644 L 704,83.99644276662443 L 719.2,82.44353057308322 L 734.4,78.82318153731467 L 749.6,76.19852204730819 L 764.8,76.79023957377315 L 780,80.0976902418667"
      stroke="url(#thread-5)"
      stroke-width="7.606"
      stroke-linecap="round"
      fill="none"
      opacity="0.6666666666666667"
      class="thread"
      style="animation-delay: 0.5s"
    >
      <title>2025-12-26: 3803 stars, Python, Shell, Go, TypeScript</title>
    </path>

    <path
      d="M 20,92.56448003223947 L 35.2,89.30043330887491 L 50.400000000000006,88.00549699254438 L 65.6,89.62421991966501 L 80.80000000000001,92.9758777271838 L 96,95.61571352456014 L 111.2,95.61818564669504 L 126.4,92.98149088515537 L 141.60000000000002,89.62887977944011 L 156.79999999999998,88.00580457220173 L 172,89.29616425451866 L 187.2,92.55874826559219 L 202.4,95.41377167506738 L 217.6,95.77873126996367 L 232.8,93.38741924040556 L 248,89.9840997378766 L 263.20000000000005,88.0512125824127 L 278.40000000000003,88.9986389323342 L 293.59999999999997,92.13530970175337 L 308.8,95.17328324588406 L 324,95.89660937475392 L 339.2,93.77768156072287 L 354.4,90.36208222043551 L 369.6,88.14120829893834 L 384.8,88.73500345826697 L 400,91.7103432893359 L 415.2,94.89696371047546 L 430.40000000000003,95.9704889412459 L 445.6,94.14787120176716 L 460.79999999999995,90.75855924048142 L 476,88.2747755357565 L 491.2,88.50823467048241 L 506.40000000000003,91.28864753370023 L 521.6,94.58793312899951 L 536.8000000000001,95.99953575881621 L 552,94.49380816972011 L 567.1999999999999,91.16905398043443 L 582.4,88.45040611931957 L 597.6,88.3208931272081 L 612.8000000000001,90.8749840096079 L 628,94.24968091816872 L 643.1999999999999,95.98342184552143 L 658.4,94.81158631965683 L 673.6,91.58893134172551 L 688.8,88.66611691808568 L 704,88.17509419420792 L 719.2,90.47402359593261 L 734.4,93.88602645052504 L 749.6,95.92232915150416 L 764.8,95.09761746175494 L 780,92.01345028198047"
      stroke="url(#thread-6)"
      stroke-width="7.022"
      stroke-linecap="round"
      fill="none"
      opacity="0.6000000000000001"
      class="thread"
      style="animation-delay: 0.6000000000000001s"
    >
      <title>2025-12-25: 3511 stars, Python, TypeScript</title>
    </path>

    <path
      d="M 20,102.59686708924153 L 35.2,100.46420507048056 L 50.400000000000006,100.11396277318387 L 65.6,101.72269986510271 L 80.80000000000001,104.47944037719893 L 96,106.99449153778579 L 111.2,107.99999792015423 L 126.4,106.9890765059966 L 141.60000000000002,104.47134007019461 L 156.79999999999998,101.71599770605746 L 172,100.11203736880334 L 187.2,100.46802703099753 L 202.4,102.60450973679828 L 217.6,105.44446914750516 L 232.8,107.55626124452967 L 248,107.87531640310559 L 263.20000000000005,106.24079661700898 L 278.40000000000003,103.4766750973384 L 293.59999999999997,100.9763654349251 L 308.8,100.00029176094425 L 324,101.04049985315878 L 339.2,103.57261331108496 L 354.4,106.32017548088456 L 369.6,107.89812045940984 L 384.8,107.51099480403393 L 400,105.35395134929084 L 415.2,102.51437125569151 L 430.40000000000003,100.42370732533514 L 445.6,100.13587832181014 L 460.79999999999995,101.7959809213997 L 476,104.56714543223947 L 491.2,107.05240784086106 L 506.40000000000003,107.99892944523516 L 521.6,106.92956187899493 L 536.8000000000001,104.3833810437566 L 552,101.64393505970487 L 567.1999999999999,100.09219840222408 L 582.4,100.51041271030793 L 597.6,102.68775313540431 L 612.8000000000001,105.52660666788074 L 628,107.59588677033948 L 643.1999999999999,107.8524544210394 L 658.4,106.16697201708978 L 673.6,103.38910339275296 L 688.8,100.91919215345618 L 704,100.00233836607106 L 719.2,101.10073463647831 L 734.4,103.66067148395788 L 749.6,106.39166628335633 L 764.8,107.91700486241655 L 780,107.46775304383976"
      stroke="url(#thread-7)"
      stroke-width="5.776"
      stroke-linecap="round"
      fill="none"
      opacity="0.5333333333333333"
      class="thread"
      style="animation-delay: 0.7000000000000001s"
    >
      <title>2025-12-24: 2888 stars, Python, TypeScript</title>
    </path>

    <path
      d="M 20,112.9727900187683 L 35.2,112.00036150835612 L 50.400000000000006,113.04417960396603 L 65.6,115.57804807637008 L 80.80000000000001,118.32462555627586 L 96,119.89934252981199 L 111.2,119.50837281494454 L 126.4,117.34880706431768 L 141.60000000000002,114.50929794598628 L 156.79999999999998,112.42126248290514 L 172,112.13729440935467 L 187.2,113.80054407897583 L 202.4,116.57255533920701 L 217.6,119.05593732410549 L 232.8,119.99879926680099 L 248,118.92583766276958 L 263.20000000000005,116.37794019399553 L 278.40000000000003,113.6395203480079 L 293.59999999999997,112.09103531659329 L 308.8,112.51308757059708 L 324,114.69291752525257 L 339.2,117.5316571811239 L 354.4,119.59827740683114 L 369.6,119.85098004368467 L 384.8,118.16237587014527 L 400,115.38370242703732 L 415.2,112.91570903473442 L 430.40000000000003,112.00252895960841 L 445.6,113.10450286269818 L 460.79999999999995,115.66611775284925 L 476,118.39604509149663 L 491.2,119.9181088210456 L 506.40000000000003,119.46502563945175 L 521.6,117.26519804585163 L 536.8000000000001,114.42757499368105 L 552,112.38262272634228 L 567.1999999999999,112.16121642845836 L 582.4,113.87496861140829 L 597.6,116.65996444147528 L 612.8000000000001,119.11226743742745 L 628,119.99565397484064 L 643.1999999999999,118.8648025298856 L 658.4,116.2897834708142 L 673.6,113.56868247440495 L 688.8,112.07322617548138 L 704,112.55728487843689 L 719.2,114.77684110044432 L 734.4,117.6130005442197 L 749.6,119.63603478190728 L 764.8,119.82611766568746 L 780,118.08742704311186"
      stroke="url(#thread-8)"
      stroke-width="5.776"
      stroke-linecap="round"
      fill="none"
      opacity="0.46666666666666673"
      class="thread"
      style="animation-delay: 0.8s"
    >
      <title>2025-12-23: 2888 stars, Python, TypeScript</title>
    </path>
  </g>

  <!-- Date markers -->
  <g id="dates">
    <text x="785" y="24" class="date-label">12-31</text>
<text x="785" y="108" class="date-label">12-24</text>
  </g>

</svg>