<?xml version="1.0" encoding="UTF-8"?>
<svg xmlns="http://www.w3.org/2000/svg" viewBox="0 0 800 400" width="800" height="400">
  <title>The Data Tapestry - GitHub Trends Woven in Time</title>
  <desc>A living data art piece that weaves daily GitHub trending repositories into an evolving tapestry. Each thread represents one day of open source activity.</desc>

  <style>
    .thread {
      animation: breathe 8s ease-in-out infinite alternate;
    }

    @keyframes breathe {
      0% {
        opacity: 0.85;
      }
      100% {
        opacity: 1;
      }
    }

    .date-label {
      font-family: ui-monospace, monospace;
      font-size: 8px;
      fill: #666;
    }

    .title {
      font-family: system-ui, sans-serif;
      font-size: 14px;
      fill: #333;
      font-weight: 600;
    }

    .subtitle {
      font-family: system-ui, sans-serif;
      font-size: 10px;
      fill: #888;
    }

    .empty-state {
      font-family: system-ui, sans-serif;
      font-size: 12px;
      fill: #999;
      text-anchor: middle;
    }
  </style>

  <defs>
    
    <linearGradient id="thread-0" x1="0%" y1="0%" x2="100%" y2="0%">
      <stop offset="0%" stop-color="#3572A5" />
      <stop offset="50%" stop-color="#3178c6" />
      <stop offset="100%" stop-color="#8b8b8b" />
    </linearGradient>

    <linearGradient id="thread-1" x1="0%" y1="0%" x2="100%" y2="0%">
      <stop offset="0%" stop-color="#3572A5" />
      <stop offset="50%" stop-color="#3178c6" />
      <stop offset="100%" stop-color="#41b883" />
    </linearGradient>

    <linearGradient id="thread-2" x1="0%" y1="0%" x2="100%" y2="0%">
      <stop offset="0%" stop-color="#3178c6" />
      <stop offset="50%" stop-color="#f1e05a" />
      <stop offset="100%" stop-color="#89e051" />
    </linearGradient>

    <linearGradient id="thread-3" x1="0%" y1="0%" x2="100%" y2="0%">
      <stop offset="0%" stop-color="#3178c6" />
      <stop offset="50%" stop-color="#3572A5" />
      <stop offset="100%" stop-color="#f1e05a" />
    </linearGradient>

    <linearGradient id="thread-4" x1="0%" y1="0%" x2="100%" y2="0%">
      <stop offset="0%" stop-color="#3178c6" />
      <stop offset="50%" stop-color="#3572A5" />
      <stop offset="100%" stop-color="#f1e05a" />
    </linearGradient>

    <linearGradient id="thread-5" x1="0%" y1="0%" x2="100%" y2="0%">
      <stop offset="0%" stop-color="#3178c6" />
      <stop offset="50%" stop-color="#f1e05a" />
      <stop offset="100%" stop-color="#3572A5" />
    </linearGradient>

    <linearGradient id="thread-6" x1="0%" y1="0%" x2="100%" y2="0%">
      <stop offset="0%" stop-color="#3572A5" />
      <stop offset="50%" stop-color="#3178c6" />
      <stop offset="100%" stop-color="#89e051" />
    </linearGradient>

    <linearGradient id="thread-7" x1="0%" y1="0%" x2="100%" y2="0%">
      <stop offset="0%" stop-color="#3178c6" />
      <stop offset="50%" stop-color="#89e051" />
      <stop offset="100%" stop-color="#3572A5" />
    </linearGradient>

    <linearGradient id="thread-8" x1="0%" y1="0%" x2="100%" y2="0%">
      <stop offset="0%" stop-color="#3572A5" />
      <stop offset="50%" stop-color="#3178c6" />
      <stop offset="100%" stop-color="#89e051" />
    </linearGradient>

    <linearGradient id="thread-9" x1="0%" y1="0%" x2="100%" y2="0%">
      <stop offset="0%" stop-color="#3178c6" />
      <stop offset="50%" stop-color="#3572A5" />
      <stop offset="100%" stop-color="#8b8b8b" />
    </linearGradient>

    <linearGradient id="thread-10" x1="0%" y1="0%" x2="100%" y2="0%">
      <stop offset="0%" stop-color="#3178c6" />
      <stop offset="50%" stop-color="#89e051" />
      <stop offset="100%" stop-color="#3572A5" />
    </linearGradient>

    <linearGradient id="thread-11" x1="0%" y1="0%" x2="100%" y2="0%">
      <stop offset="0%" stop-color="#3572A5" />
      <stop offset="50%" stop-color="#3178c6" />
      <stop offset="100%" stop-color="#89e051" />
    </linearGradient>

    <linearGradient id="thread-12" x1="0%" y1="0%" x2="100%" y2="0%">
      <stop offset="0%" stop-color="#3572A5" />
      <stop offset="50%" stop-color="#3178c6" />
      <stop offset="100%" stop-color="#8b8b8b" />
    </linearGradient>

    <linearGradient id="thread-13" x1="0%" y1="0%" x2="100%" y2="0%">
      <stop offset="0%" stop-color="#3572A5" />
      <stop offset="50%" stop-color="#3178c6" />
      <stop offset="100%" stop-color="#8b8b8b" />
    </linearGradient>

    <linearGradient id="thread-14" x1="0%" y1="0%" x2="100%" y2="0%">
      <stop offset="0%" stop-color="#3178c6" />
      <stop offset="50%" stop-color="#3572A5" />
      <stop offset="100%" stop-color="#dea584" />
    </linearGradient>

    <linearGradient id="thread-15" x1="0%" y1="0%" x2="100%" y2="0%">
      <stop offset="0%" stop-color="#3572A5" />
      <stop offset="50%" stop-color="#3178c6" />
      <stop offset="100%" stop-color="#00ADD8" />
    </linearGradient>

    <linearGradient id="thread-16" x1="0%" y1="0%" x2="100%" y2="0%">
      <stop offset="0%" stop-color="#3572A5" />
      <stop offset="50%" stop-color="#00ADD8" />
      <stop offset="100%" stop-color="#3178c6" />
    </linearGradient>

    <linearGradient id="thread-17" x1="0%" y1="0%" x2="100%" y2="0%">
      <stop offset="0%" stop-color="#3572A5" />
      <stop offset="50%" stop-color="#3178c6" />
      <stop offset="100%" stop-color="#00ADD8" />
    </linearGradient>

    <linearGradient id="thread-18" x1="0%" y1="0%" x2="100%" y2="0%">
      <stop offset="0%" stop-color="#3572A5" />
      <stop offset="50%" stop-color="#00ADD8" />
      <stop offset="100%" stop-color="#DA5B0B" />
    </linearGradient>

    <linearGradient id="thread-19" x1="0%" y1="0%" x2="100%" y2="0%">
      <stop offset="0%" stop-color="#3572A5" />
      <stop offset="50%" stop-color="#3178c6" />
      <stop offset="100%" stop-color="#dea584" />
    </linearGradient>

    <linearGradient id="thread-20" x1="0%" y1="0%" x2="100%" y2="0%">
      <stop offset="0%" stop-color="#dea584" />
      <stop offset="50%" stop-color="#3572A5" />
      <stop offset="100%" stop-color="#3178c6" />
    </linearGradient>

    <linearGradient id="thread-21" x1="0%" y1="0%" x2="100%" y2="0%">
      <stop offset="0%" stop-color="#3572A5" />
      <stop offset="50%" stop-color="#3178c6" />
      <stop offset="100%" stop-color="#dea584" />
    </linearGradient>

    <linearGradient id="thread-22" x1="0%" y1="0%" x2="100%" y2="0%">
      <stop offset="0%" stop-color="#3572A5" />
      <stop offset="50%" stop-color="#dea584" />
      <stop offset="100%" stop-color="#3178c6" />
    </linearGradient>

    <linearGradient id="thread-23" x1="0%" y1="0%" x2="100%" y2="0%">
      <stop offset="0%" stop-color="#3572A5" />
      <stop offset="50%" stop-color="#3178c6" />
      <stop offset="100%" stop-color="#89e051" />
    </linearGradient>

    <linearGradient id="thread-24" x1="0%" y1="0%" x2="100%" y2="0%">
      <stop offset="0%" stop-color="#3572A5" />
      <stop offset="50%" stop-color="#f1e05a" />
      <stop offset="100%" stop-color="#89e051" />
    </linearGradient>

    <linearGradient id="thread-25" x1="0%" y1="0%" x2="100%" y2="0%">
      <stop offset="0%" stop-color="#3572A5" />
      <stop offset="50%" stop-color="#89e051" />
      <stop offset="100%" stop-color="#dea584" />
    </linearGradient>

    <linearGradient id="thread-26" x1="0%" y1="0%" x2="100%" y2="0%">
      <stop offset="0%" stop-color="#3572A5" />
      <stop offset="50%" stop-color="#89e051" />
      <stop offset="100%" stop-color="#00ADD8" />
    </linearGradient>

    <linearGradient id="thread-27" x1="0%" y1="0%" x2="100%" y2="0%">
      <stop offset="0%" stop-color="#3572A5" />
      <stop offset="50%" stop-color="#3178c6" />
      <stop offset="100%" stop-color="#3572A5" />
    </linearGradient>

    <linearGradient id="thread-28" x1="0%" y1="0%" x2="100%" y2="0%">
      <stop offset="0%" stop-color="#3572A5" />
      <stop offset="50%" stop-color="#3178c6" />
      <stop offset="100%" stop-color="#3572A5" />
    </linearGradient>

    <linearGradient id="thread-29" x1="0%" y1="0%" x2="100%" y2="0%">
      <stop offset="0%" stop-color="#3572A5" />
      <stop offset="50%" stop-color="#3178c6" />
      <stop offset="100%" stop-color="#3572A5" />
    </linearGradient>

    <!-- Background pattern -->
    <pattern id="loom" patternUnits="userSpaceOnUse" width="20" height="20">
      <rect width="20" height="20" fill="#fafafa"/>
      <circle cx="10" cy="10" r="0.5" fill="#eee"/>
    </pattern>
  </defs>

  <!-- Background -->
  <rect width="100%" height="100%" fill="url(#loom)"/>

  <!-- Threads -->
  <g id="tapestry">
    
    <path
      d="M 20,20 L 35.2,23.48814041986652 L 50.400000000000006,23.41449414249187 L 65.6,19.854262363779846 L 80.80000000000001,16.44284522883041 L 96,16.663686265547316 L 111.2,20.29128174641338 L 126.4,23.62144555176105 L 141.60000000000002,23.253703012059873 L 156.79999999999998,19.563560938462683 L 172,16.31907261053652 L 187.2,16.833228325330236 L 202.4,20.581016826177482 L 217.6,23.735521297928386 L 232.8,23.07563515901356 L 248,19.275176945491456 L 263.20000000000005,16.21484521847731 L 278.40000000000003,17.01958551409185 L 293.59999999999997,20.867666785233613 L 308.8,23.82976193159622 L 324,22.88123609955163 L 339.2,18.990641664836875 L 354.4,16.130716485997738 L 369.6,17.221768300382756 L 384.8,21.14970955109645 L 400,23.903667047754986 L 415.2,22.671538066368424 L 430.40000000000003,18.71146594032812 L 445.6,16.067133125280666 L 460.79999999999995,17.438703120972633 L 476,21.425647514852994 L 491.2,23.956844220240743 L 506.40000000000003,22.447654527638115 L 521.6,18.439132157276706 L 536.8000000000001,16.02443275536568 L 552,17.66923808132569 L 567.1999999999999,21.69401548326311 L 582.4,23.989011085464963 L 597.6,22.210774274649335 L 612.8000000000001,18.175086371211037 L 628,16.002842109437644 L 643.1999999999999,17.912149072004677 L 658.4,21.95338845873742 L 673.6,23.999996841727008 L 688.8,21.962155109484367 L 704,17.920730629517163 L 719.2,16.002475830904203 L 734.4,18.166146268526507 L 749.6,22.202389205881577 L 764.8,23.989743156148016 L 780,21.703117166260316"
      stroke="url(#thread-0)"
      stroke-width="8"
      stroke-linecap="round"
      fill="none"
      opacity="1"
      class="thread"
      style="animation-delay: 0s"
    >
      <title>2026-01-21: 4215 stars, Unknown, TypeScript, Python, Shell, JavaScript</title>
    </path>

    <path
      d="M 20,33.917702154416816 L 35.2,35.37761505427125 L 50.400000000000006,29.641190551668153 L 65.6,28.93043901225095 L 80.80000000000001,34.75968572317581 L 96,34.70915357546368 L 111.2,28.88650622490845 L 126.4,29.697460201323942 L 141.60000000000002,35.41419917917284 L 156.79999999999998,33.85665471804576 L 172,28.34332678952035 L 187.2,30.620896808309062 L 202.4,35.83678031775556 L 217.6,32.878030169419965 L 232.8,28.048551342073807 L 248,31.638018224649628 L 263.20000000000005,35.99872248836742 L 278.40000000000003,31.839759548240597 L 293.59999999999997,28.022204476640603 L 308.8,32.679729674439585 L 324,35.88902468581039 L 339.2,30.812374331623133 L 354.4,28.266075980294023 L 369.6,33.67526593926388 L 384.8,35.51513886711074 L 400,29.865666532763697 L 415.2,28.763599249849733 L 430.40000000000003,34.55699855901995 L 445.6,34.902463727490556 L 460.79999999999995,29.063947611592127 L 476,29.48097668920391 L 491.2,35.265029947448845 L 506.40000000000003,34.09261932409857 L 521.6,28.461679688665487 L 536.8000000000001,30.369475637126715 L 552,35.7512623363471 L 567.1999999999999,33.14061975522452 L 582.4,28.099775841323005 L 597.6,31.36873885925711 L 612.8000000000001,35.98266513820622 L 628,32.11113595967397 L 643.1999999999999,28.0028208092328 L 658.4,32.41088471698756 L 673.6,35.94351876981655 L 688.8,31.074102510654853 L 704,28.177400911498612 L 719.2,33.425118481837664 L 734.4,35.6364825101078 L 749.6,30.099966842088048 L 764.8,28.611656626877497 L 780,34.34254154094482"
      stroke="url(#thread-1)"
      stroke-width="8"
      stroke-linecap="round"
      fill="none"
      opacity="0.98"
      class="thread"
      style="animation-delay: 0.1s"
    >
      <title>2026-01-20: 6510 stars, Python, Vue, TypeScript, Unknown, Shell, JavaScript</title>
    </path>

    <path
      d="M 20,47.36588393923159 L 35.2,47.361124607696816 L 50.400000000000006,43.41811428617916 L 65.6,40.15690314082538 L 80.80000000000001,41.398672925005116 L 96,45.68843411804486 L 111.2,47.999846361544314 L 126.4,45.6246132908358 L 141.60000000000002,41.34581053802684 L 156.79999999999998,40.1769383876958 L 172,43.487571741250164 L 187.2,47.398620530964045 L 202.4,47.3274841199284 L 217.6,43.35751349148476 L 232.8,40.14034837415386 L 248,41.445561511312455 L 263.20000000000005,45.743826403793406 L 278.40000000000003,47.99883885470431 L 293.59999999999997,45.56838649355258 L 308.8,41.30024574478056 L 324,40.19542415531045 L 339.2,43.54844817873501 L 354.4,47.43055833096692 L 369.6,47.29306155991299 L 384.8,43.29706370303091 L 400,40.12470075724199 L 415.2,41.493050477779896 L 430.40000000000003,45.79880883086649 L 445.6,47.99689148435911 L 460.79999999999995,45.51179107195594 L 476,41.25531548585529 L 491.2,40.21480412799791 L 506.40000000000003,43.60943074629738 L 521.6,47.46168983276803 L 536.8000000000001,47.25786501812611 L 552,43.236779128579386 L 567.1999999999999,40.10996396781338 L 582.4,41.54112866288077 L 597.6,45.85336847651866 L 612.8000000000001,47.99400470820716 L 628,45.45484032790002 L 643.1999999999999,41.21103032139417 L 658.4,40.23507375080366 L 673.6,43.67050511095406 L 688.8,47.49200771940273 L 704,47.221902766955445 L 719.2,43.17667393706118 L 734.4,40.09614146951613 L 749.6,41.58978476660194 L 764.8,45.907492517372546 L 780,47.990179204739285"
      stroke="url(#thread-2)"
      stroke-width="8"
      stroke-linecap="round"
      fill="none"
      opacity="0.96"
      class="thread"
      style="animation-delay: 0.2s"
    >
      <title>2026-01-19: 4551 stars, JavaScript, TypeScript, Shell, Python</title>
    </path>

    <path
      d="M 20,59.98997994641622 L 35.2,58.60786063114425 L 50.400000000000006,55.12221782083893 L 65.6,52.3446018948448 L 80.80000000000001,52.51546247333342 L 96,55.49698189958894 L 111.2,58.88424018320718 L 126.4,59.94504477591881 L 141.60000000000002,57.82374129276187 L 156.79999999999998,54.231391921503224 L 172,52.06561749914872 L 187.2,53.07335086710794 L 202.4,56.44174536060294 L 217.6,59.453824131642115 L 232.8,59.68001775151253 L 248,56.93787644197765 L 263.20000000000005,53.439235683209304 L 278.40000000000003,52.0061301149656 L 293.59999999999997,53.7945153882742 L 308.8,57.36186409363711 L 324,59.830721152707184 L 339.2,59.20968458348731 L 354.4,55.99968798611997 L 369.6,52.78994306191321 L 384.8,52.169458510373545 L 400,54.6387226692908 L 415.2,58.20600518632356 L 430.40000000000003,59.99390437121829 L 445.6,58.56028489769918 L 460.79999999999995,55.061516937343114 L 476,52.31973773183602 L 491.2,52.54649068503212 L 506.40000000000003,55.55887485547774 L 521.6,58.92707447659239 L 536.8000000000001,59.934269886173304 L 552,57.76804834143772 L 567.1999999999999,54.17570333667001 L 582.4,52.05485218682576 L 597.6,53.11619222361336 L 612.8000000000001,56.50363716813428 L 628,59.48484390978098 L 643.1999999999999,59.65514467232562 L 658.4,56.87717335155371 L 673.6,53.39166623221392 L 688.8,52.010064244115554 L 704,53.84677979413428 L 719.2,57.42030184329163 L 734.4,59.848195839429806 L 749.6,59.172100970113014 L 764.8,55.93736134824935 L 780,52.75314661796965"
      stroke="url(#thread-3)"
      stroke-width="7.412"
      stroke-linecap="round"
      fill="none"
      opacity="0.9400000000000001"
      class="thread"
      style="animation-delay: 0.30000000000000004s"
    >
      <title>2026-01-18: 3706 stars, JavaScript, Shell, Vue, TypeScript, Python, HTML</title>
    </path>

    <path
      d="M 20,71.63718970730272 L 35.2,66.34730514856848 L 50.400000000000006,64.35201075638334 L 65.6,69.62885706172993 L 80.80000000000001,71.65863301186774 L 96,66.39505027968693 L 111.2,64.33087944242982 L 126.4,69.58097384801736 L 141.60000000000002,71.67945143290888 L 156.79999999999998,66.44306953139456 L 172,64.31037480324147 L 187.2,69.53282060872253 L 202.4,71.6996414147024 L 217.6,66.49135470214749 L 232.8,64.29050034094905 L 248,69.484405568274 L 263.20000000000005,71.71919950886007 L 278.40000000000003,66.53989754498366 L 293.59999999999997,64.27125945005096 L 308.8,69.4357369958152 L 324,71.7381223749182 L 339.2,66.58868976893142 L 354.4,64.25265541683356 L 369.6,69.38682320379206 L 384.8,71.75640678090815 L 400,66.6377230404255 L 415.2,64.23469141880985 L 430.40000000000003,69.33767254653326 L 445.6,71.77404960390825 L 460.79999999999995,66.68698898473052 L 476,64.21737052417664 L 491.2,69.28829341882333 L 506.40000000000003,71.79104783057743 L 521.6,66.73647918737116 L 536.8000000000001,64.20069569129076 L 552,69.23869425446892 L 567.1999999999999,71.80739855766961 L 582.4,66.78618519556964 L 597.6,64.1846697681635 L 612.8000000000001,69.18888352485824 L 628,71.82309899252976 L 643.1999999999999,66.83609851968913 L 658.4,64.1692954919744 L 673.6,69.13886973751421 L 688.8,71.83814645357077 L 704,66.88621063468375 L 719.2,64.15457548860361 L 734.4,69.08866143464147 L 749.6,71.85253837073155 L 764.8,66.93651298155491 L 780,64.14051227218349"
      stroke="url(#thread-4)"
      stroke-width="8"
      stroke-linecap="round"
      fill="none"
      opacity="0.92"
      class="thread"
      style="animation-delay: 0.4s"
    >
      <title>2026-01-17: 6237 stars, JavaScript, TypeScript, Shell, Python</title>
    </path>

    <path
      d="M 20,82.39388857641583 L 35.2,77.1340202630471 L 50.400000000000006,76.86055916119668 L 65.6,82.04928965717929 L 80.80000000000001,83.67254040001019 L 96,78.90608025302399 L 111.2,76.04288873170604 L 126.4,80.06452193911421 L 141.60000000000002,83.97389592209313 L 156.79999999999998,80.96924220688042 L 172,76.27824149214743 L 187.2,78.06258434799271 L 202.4,83.21776170567183 L 217.6,82.77448002080081 L 232.8,77.50398793888643 L 248,76.57621062954962 L 263.20000000000005,81.60535192204661 L 278.40000000000003,83.84140354335534 L 293.59999999999997,79.39394582788688 L 308.8,76.00093830808122 L 324,79.56574343530127 L 339.2,83.88609475077357 L 354.4,81.4451802275338 L 369.6,76.48985256466037 L 384.8,77.64169455808016 L 400,82.8966609075202 L 415.2,83.11183906434076 L 430.40000000000003,77.91284888234026 L 445.6,76.34521214308674 L 460.79999999999995,81.13639933105947 L 476,83.95040930926443 L 491.2,79.89125503784757 L 506.40000000000003,76.02130191691396 L 521.6,79.07373158820742 L 536.8000000000001,83.73773981632444 L 552,81.89859921383776 L 567.1999999999999,76.75615932782962 L 582.4,77.25755226875 L 597.6,82.53042386599057 L 612.8000000000001,83.40070892331775 L 628,78.35423215540771 L 643.1999999999999,76.1711631579535 L 658.4,80.64973918008558 L 673.6,83.99785915208894 L 688.8,80.3902587295701 L 704,76.10366224912543 L 719.2,78.59615300679522 L 734.4,83.53114280956541 L 749.6,82.32243391709002 L 764.8,77.07301214617509 L 780,76.91614324789721"
      stroke="url(#thread-5)"
      stroke-width="8"
      stroke-linecap="round"
      fill="none"
      opacity="0.9"
      class="thread"
      style="animation-delay: 0.5s"
    >
      <title>2026-01-16: 5731 stars, JavaScript, TypeScript, Shell, Python, C</title>
    </path>

    <path
      d="M 20,92.56448003223947 L 35.2,89.13021014017883 L 50.400000000000006,88.05837955912976 L 65.6,90.23132979251244 L 80.80000000000001,93.86026678119154 L 96,95.95781381188615 L 111.2,94.79724948544921 L 126.4,91.33396179948939 L 141.60000000000002,88.41896332785544 L 156.79999999999998,88.45190955659598 L 172,91.40567882533584 L 187.2,94.84869914553794 L 202.4,95.94664223869763 L 217.6,93.79567052393513 L 232.8,90.16648512713202 L 248,88.04666725358638 L 263.20000000000005,89.18127187988843 L 278.40000000000003,92.63628128956383 L 293.59999999999997,95.5674976674315 L 308.8,95.56191478710981 L 324,92.6241285307312 L 339.2,89.17255351345177 L 354.4,88.04856032476631 L 369.6,90.17743124106607 L 384.8,93.80665873169539 L 400,95.94862693930341 L 415.2,94.84004651387983 L 430.40000000000003,91.3935117931166 L 445.6,88.4462441447151 L 460.79999999999995,88.4244633592387 L 476,91.34609959406743 L 491.2,94.8060330910371 L 506.40000000000003,95.9560124777506 L 521.6,93.84936338335552 L 536.8000000000001,90.22030011559073 L 552,88.05630334192568 L 567.1999999999999,89.13879654516793 L 582.4,92.57666064616595 L 597.6,95.53981201690827 L 612.8000000000001,95.58895522997446 L 628,92.6836351077773 L 643.1999999999999,89.21553982367288 L 658.4,88.03963961370926 L 673.6,90.1239471260383 L 688.8,93.75263986358364 L 704,95.93854218300618 L 719.2,94.88219774022471 L 734.4,91.45319969693196 L 749.6,88.47433305500998 L 764.8,88.39783020807941 L 780,91.28666905411232"
      stroke="url(#thread-6)"
      stroke-width="7.494"
      stroke-linecap="round"
      fill="none"
      opacity="0.88"
      class="thread"
      style="animation-delay: 0.6000000000000001s"
    >
      <title>2026-01-15: 3747 stars, TypeScript, Shell, Python, JavaScript, C</title>
    </path>

    <path
      d="M 20,102.59686708924153 L 35.2,100.08483869127113 L 50.400000000000006,101.21242227916676 L 65.6,104.93139367569694 L 80.80000000000001,107.78452294764632 L 96,107.1194842579516 L 111.2,103.55451082747166 L 126.4,100.40367301084056 L 141.60000000000002,100.5960524419013 L 156.79999999999998,103.95280936721596 L 172,107.35343564532546 L 187.2,107.63664131005045 L 202.4,104.53915273087661 L 217.6,100.94045702720041 L 232.8,100.18597345093943 L 248,102.97708497223496 L 263.20000000000005,106.71911869111037 L 278.40000000000003,107.93340547984185 L 293.59999999999997,105.49112013761524 L 308.8,101.66265979587307 L 324,100.00703749352928 L 339.2,102.0633527211318 L 354.4,105.92001385858191 L 369.6,107.99179184520408 L 384.8,106.35272057192591 L 400,102.52651336279655 L 415.2,100.0700886997458 L 430.40000000000003,101.2669879086658 L 445.6,105.00454962948783 L 460.79999999999995,107.80826199301013 L 476,107.07173810517406 L 491.2,103.4796652518057 L 506.40000000000003,100.37130595117605 L 521.6,100.63625296201185 L 536.8000000000001,104.02820626236829 L 552,107.39393845904674 L 567.1999999999999,107.60459781944184 L 582.4,104.46435120346825 L 597.6,100.89243445374404 L 612.8000000000001,100.20937257286033 L 628,103.05015349942643 L 643.1999999999999,106.7739306643628 L 658.4,107.9190065963597 L 673.6,105.42089588646834 L 688.8,101.60189204057056 L 704,100.01221715056549 L 719.2,102.12966467808988 L 734.4,105.98581319860672 L 749.6,107.99591019035873 L 764.8,106.29132942647169 L 780,102.45668315913761"
      stroke="url(#thread-7)"
      stroke-width="8"
      stroke-linecap="round"
      fill="none"
      opacity="0.86"
      class="thread"
      style="animation-delay: 0.7000000000000001s"
    >
      <title>2026-01-14: 4003 stars, TypeScript, Shell, Python, C, HTML, Jupyter Notebook</title>
    </path>

    <path
      d="M 20,112.9727900187683 L 35.2,112.60369710220989 L 50.400000000000006,117.00789356219371 L 65.6,119.99555923034653 L 80.80000000000001,117.36771856660889 L 96,112.81763577648678 L 111.2,112.74016505823485 L 126.4,117.24418661705081 L 141.60000000000002,119.99958240828023 L 156.79999999999998,117.13381754494279 L 172,112.67454367929166 L 187.2,112.88898879733915 L 202.4,117.47576381965615 L 217.6,119.98844593134565 L 232.8,116.89561900395834 L 248,112.5440560905065 L 263.20000000000005,113.04960423150295 L 278.40000000000003,117.70174742075778 L 293.59999999999997,119.9621920102362 L 308.8,116.6540257898287 L 324,112.42666759846794 L 339.2,113.22140257853349 L 354.4,117.92128087258426 L 369.6,119.92092015543628 L 384.8,116.40995361558852 L 400,112.32282314188285 L 415.2,113.40373266953816 L 430.40000000000003,118.1335320754257 L 445.6,119.86478680004585 L 460.79999999999995,116.16432759029847 L 476,112.23291632337302 L 491.2,113.5959034170559 L 506.40000000000003,118.33769653154903 L 521.6,119.79400470685046 L 536.8000000000001,115.9180787125953 L 552,112.1572879175993 L 567.1999999999999,113.79718643449259 L 582.4,118.53300039449353 L 597.6,119.70884216188458 L 612.8000000000001,115.67214034191933 L 628,112.09622457962035 L 643.1999999999999,114.00681879693164 L 658.4,118.71870340218811 L 673.6,119.60962195754436 L 688.8,115.42744466079299 L 704,112.04995775838118 L 719.2,114.2240059328556 L 734.4,118.89410168277398 L 749.6,119.49672016910473 L 764.8,115.18491914156093 L 780,112.01866281945006"
      stroke="url(#thread-8)"
      stroke-width="8"
      stroke-linecap="round"
      fill="none"
      opacity="0.8400000000000001"
      class="thread"
      style="animation-delay: 0.8s"
    >
      <title>2026-01-13: 5049 stars, TypeScript, Shell, C, Rust, Python</title>
    </path>

    <path
      d="M 20,124.08987952933961 L 35.2,124.9632331764316 L 50.400000000000006,128.23604129321413 L 65.6,131.3223450226204 L 80.80000000000001,131.7835490728181 L 96,129.255240176678 L 111.2,125.73512261446257 L 126.4,124.00456298730222 L 141.60000000000002,125.43093629423508 L 156.79999999999998,128.8872156656954 L 172,131.64247526240374 L 187.2,131.51968920829654 L 202.4,128.6158750103015 L 217.6,125.22543667153616 L 232.8,124.02727675476014 L 248,125.96810283903412 L 263.20000000000005,129.5144011271641 L 278.40000000000003,131.86411872122272 L 293.59999999999997,131.1606625038796 L 308.8,127.95985755588694 L 324,124.79077054099464 L 339.2,124.157406687298 L 354.4,126.56020867544612 L 369.6,130.10063957283757 L 384.8,131.9812825098445 L 400,130.71617647488335 L 415.2,127.30492548979102 L 430.40000000000003,124.44287690882966 L 445.6,124.3914342769674 L 460.79999999999995,127.1912441963722 L 476,130.63008004060012 L 491.2,131.99079870438337 L 506.40000000000003,130.19824932185156 L 521.6,126.66878714118371 L 536.8000000000001,124.19116226965863 L 552,124.72303178718727 L 567.1999999999999,127.84414719749994 L 582.4,131.08840729599552 L 597.6,131.89241000196157 L 612.8000000000001,129.62088497738551 L 628,126.06864268678248 L 643.1999999999999,124.04243258995977 L 658.4,125.14323334475196 L 673.6,128.5012642123729 L 688.8,131.46322889356836 L 704,131.68877667777292 L 719.2,128.99969446191315 L 734.4,125.52071908522662 L 749.6,124.00070928548254 L 764.8,125.640677362889 L 780,129.14482783425544"
      stroke="url(#thread-9)"
      stroke-width="7.33"
      stroke-linecap="round"
      fill="none"
      opacity="0.8200000000000001"
      class="thread"
      style="animation-delay: 0.9s"
    >
      <title>2026-01-12: 3665 stars, TypeScript, Unknown, Python, Shell, C</title>
    </path>

    <path
      d="M 20,136.16430290134744 L 35.2,138.42744761171969 L 50.400000000000006,141.82971401111908 L 65.6,143.90657660819306 L 80.80000000000001,143.15360270671619 L 96,140.11622971712774 L 111.2,136.99466252664877 L 126.4,136.05009441375495 L 141.60000000000002,137.96674933955543 L 156.79999999999998,141.35624545258915 L 172,143.76330777060107 L 187.2,143.4443143235239 L 202.4,140.63033681169094 L 217.6,137.35975744739147 L 232.8,136.00171058654507 L 248,137.53993492392246 L 263.20000000000005,140.86017524083914 L 278.40000000000003,143.55732390083776 L 293.59999999999997,143.67762689226666 L 308.8,141.13393942566586 L 324,137.76885166522075 L 339.2,136.01995772987502 L 354.4,137.15411717127705 L 369.6,140.34977032111667 L 384.8,143.29205769317272 L 400,143.84965228947792 L 415.2,141.61864508730633 L 430.40000000000003,138.21512767846093 L 445.6,136.1045317574859 L 460.79999999999995,136.81572568404462 L 476,139.83353652470416 L 491.2,142.97192977428915 L 506.40000000000003,143.9575237343951 L 521.6,142.07637624010712 L 536.8000000000001,138.69114835567504 L 552,136.2540232542605 L 567.1999999999999,136.5303997121356 L 582.4,139.3200768203524 L 597.6,142.6022750341178 L 612.8000000000001,143.99944356348635 L 628,142.49950485422767 L 643.1999999999999,139.18898087448838 L 658.4,136.4659409639421 L 673.6,136.30289417558265 L 688.8,138.81794794693045 L 704,142.1892537205935 L 719.2,143.97471318827837 L 734.4,142.88097954661217 L 749.6,139.70032892103646 L 764.8,136.73675330559433 L 780,136.1370004244198"
      stroke="url(#thread-10)"
      stroke-width="6.996"
      stroke-linecap="round"
      fill="none"
      opacity="0.8"
      class="thread"
      style="animation-delay: 1s"
    >
      <title>2026-01-11: 3498 stars, TypeScript, Unknown, Shell, Python</title>
    </path>

    <path
      d="M 20,149.17783869771844 L 35.2,152.7453819471985 L 50.400000000000006,155.66411889582196 L 65.6,155.3934796653843 L 80.80000000000001,152.16903802934073 L 96,148.79745982937465 L 111.2,148.21348367592665 L 126.4,150.9254226685172 L 141.60000000000002,154.5727110427826 L 156.79999999999998,155.98062248940124 L 172,153.92366205099242 L 187.2,150.19227944004035 L 202.4,148.03439950633722 L 217.6,149.32831579152395 L 232.8,152.94775868072003 L 248,155.74223954064527 L 263.20000000000005,155.2793453025943 L 278.40000000000003,151.9619951671279 L 293.59999999999997,148.67772575641357 L 308.8,148.28527908236995 L 324,151.12625434233038 L 339.2,154.72776812911292 L 354.4,155.95493792205974 L 369.6,153.73959256827763 L 384.8,150.0100455042664 L 400,148.01262385609394 L 415.2,149.48595270808445 L 430.40000000000003,153.14759552418005 L 445.6,155.81033139099776 L 460.79999999999995,155.1564226514862 L 476,151.7550541537288 L 491.2,148.56689501665784 L 506.40000000000003,148.36702953637098 L 521.6,151.32942755936267 L 536.8000000000001,154.875515093888 L 552,155.91865455174627 L 567.1999999999999,153.55086116690666 L 582.4,149.83314442985187 L 597.6,148.00153393972496 L 612.8000000000001,149.6503269976289 L 628,153.34435693659867 L 643.1999999999999,155.86821196813509 L 658.4,155.02504113137974 L 673.6,151.5487695685252 L 688.8,148.4652646244215 L 704,148.4585159556149 L 719.2,151.53439783751617 L 734.4,155.0155559913306 L 749.6,155.8718696139423 L 764.8,153.357973626484 L 780,149.66205029241317"
      stroke="url(#thread-11)"
      stroke-width="7.724"
      stroke-linecap="round"
      fill="none"
      opacity="0.78"
      class="thread"
      style="animation-delay: 1.1s"
    >
      <title>2026-01-10: 3862 stars, TypeScript, Unknown, Shell, Python</title>
    </path>

    <path
      d="M 20,162.88233800720428 L 35.2,166.5761248052378 L 50.400000000000006,167.97498228227332 L 65.6,165.8327444787195 L 80.80000000000001,162.0578144105833 L 96,160.01307173356642 L 111.2,161.52006636397775 L 126.4,165.23629884026715 L 141.60000000000002,167.8511799952711 L 156.79999999999998,167.03525458623795 L 172,163.51538613357255 L 187.2,160.42723378766 L 202.4,160.52186432598475 L 217.6,163.7149765545124 L 232.8,167.16200065132045 L 248,167.79217053633877 L 263.20000000000005,165.04410217126372 L 278.40000000000003,161.3659000323595 L 293.59999999999997,160.03427412993545 L 308.8,162.23549747446833 L 324,166.0086200432098 L 339.2,167.99237238325185 L 354.4,166.4195375486203 L 369.6,162.69126845385713 L 384.8,160.12887703413972 L 400,161.0150582850781 L 415.2,164.56036158208988 L 430.40000000000003,167.6064692568693 L 445.6,167.43976984014475 L 460.79999999999995,164.20876676562278 L 476,160.7917847467952 L 491.2,160.23282701222706 L 506.40000000000003,163.02983857283203 L 521.6,166.69111412436718 L 536.8000000000001,167.95502263157076 L 552,165.69561682420854 L 567.1999999999999,161.9256783131738 L 582.4,160.00364004773297 L 597.6,161.64174126508138 L 612.8000000000001,165.38068678401822 L 628,167.8896536243928 L 643.1999999999999,166.9335398394049 L 658.4,163.3640951404496 L 673.6,160.36114345634365 L 688.8,160.59985093407775 L 704,163.86756607917474 L 719.2,167.25325939341113 L 734.4,167.74080105149662 L 749.6,164.8958667365062 L 764.8,161.25285352520817 L 780,160.0571235283172"
      stroke="url(#thread-12)"
      stroke-width="7.822"
      stroke-linecap="round"
      fill="none"
      opacity="0.76"
      class="thread"
      style="animation-delay: 1.2000000000000002s"
    >
      <title>2026-01-09: 3911 stars, TypeScript, Unknown, Python, Shell</title>
    </path>

    <path
      d="M 20,176.86047995235126 L 35.2,179.67407725849142 L 50.400000000000006,179.42872073324693 L 65.6,176.32868868383557 L 80.80000000000001,172.95499785209242 L 96,172.11650710776956 L 111.2,174.5113249266752 L 126.4,178.14558002434492 L 141.60000000000002,179.99347360203205 L 156.79999999999998,178.5164911588798 L 172,174.9443349535782 L 187.2,172.25110164815504 L 202.4,172.67911652833928 L 217.6,175.87202406170346 L 232.8,179.1714814739175 L 248,179.83043496548487 L 263.20000000000005,177.30025472654634 L 278.40000000000003,173.687511738457 L 293.59999999999997,172.00009430288026 L 308.8,173.64290810539282 L 324,177.24818343896607 L 339.2,179.81424940260248 L 354.4,179.20465737021237 L 369.6,175.9269399144306 L 384.8,172.7100506375221 L 400,172.23229897241916 L 415.2,174.89145017651785 L 430.40000000000003,178.47355495269628 L 445.6,179.9962336832728 L 460.79999999999995,178.19173841164155 L 476,174.5624511881838 L 491.2,172.13003467166192 L 506.40000000000003,172.91966397387884 L 521.6,176.27391155331847 L 536.8000000000001,179.40010655342067 L 552,179.69544954989007 L 567.1999999999999,176.91404462735505 L 582.4,173.37162677063577 L 597.6,172.01753316368303 L 612.8000000000001,173.97915159276843 L 628,177.62328281160575 L 643.1999999999999,179.91590538578788 L 658.4,178.94823348589193 L 673.6,175.52592890328842 L 688.8,172.49832521987886 L 704,172.3861369540843 L 719.2,175.2827695248288 L 734.4,178.7765520071436 L 749.6,179.9586399325024 L 764.8,177.84485356435965 L 780,174.19508374186822"
      stroke="url(#thread-13)"
      stroke-width="7.54"
      stroke-linecap="round"
      fill="none"
      opacity="0.74"
      class="thread"
      style="animation-delay: 1.3s"
    >
      <title>2026-01-08: 3770 stars, TypeScript, Unknown, Python, Rust, JavaScript</title>
    </path>

    <path
      d="M 20,190.62794639487515 L 35.2,191.99651450432094 L 50.400000000000006,190.36728426789375 L 65.6,186.962346510618 L 80.80000000000001,184.33575596331622 L 96,184.45772661857464 L 111.2,187.23676789674352 L 126.4,190.5883120231282 L 141.60000000000002,191.99835500066234 L 156.79999999999998,190.40921907011565 L 172,187.01292018909558 L 187.2,184.35703303964172 L 202.4,184.43374708956412 L 217.6,187.18551888400629 L 232.8,190.5482355754658 L 248,191.99951258998513 L 263.20000000000005,190.45074238496036 L 278.40000000000003,187.06366245783857 L 293.59999999999997,184.37893232377658 L 308.8,184.41037666583378 L 324,187.13440898219608 L 339.2,190.50772389682484 L 354.4,191.99998707457647 L 369.6,190.49184712037044 L 384.8,187.11456465022002 L 400,184.40145007538888 L 415.2,184.38761933898172 L 430.40000000000003,187.08344692073055 L 445.6,190.46678390647827 L 460.79999999999995,191.9997783733958 L 476,190.5325262557806 L 491.2,187.16561807229834 L 506.40000000000003,184.42458244851426 L 521.6,184.365478995891 L 536.8000000000001,187.0326414037766 L 552,190.4254225968534 L 567.1999999999999,191.99888652208872 L 582.4,190.57277284331678 L 597.6,187.21681400430253 L 612.8000000000001,184.448325492213 L 628,184.3439594180657 L 643.1999999999999,186.98200110876382 L 658.4,190.3836470323376 L 673.6,191.99731167298071 L 688.8,190.61258000898275 L 704,187.26814370212122 L 719.2,184.4726751512445 L 734.4,184.32306428098502 L 749.6,186.93153468490254 L 764.8,190.34146434807178 L 780,191.99505409505127"
      stroke="url(#thread-14)"
      stroke-width="7.128"
      stroke-linecap="round"
      fill="none"
      opacity="0.72"
      class="thread"
      style="animation-delay: 1.4000000000000001s"
    >
      <title>2026-01-07: 3564 stars, TypeScript, Python, Unknown, Shell, Rust</title>
    </path>

    <path
      d="M 20,203.75199990709896 L 35.2,203.03963043928619 L 50.400000000000006,199.21145487125963 L 65.6,196.19158602719128 L 80.80000000000001,197.0755731701039 L 96,200.95727570579922 L 111.2,203.857712412213 L 126.4,202.80375923244492 L 141.60000000000002,198.8757822874608 L 156.79999999999998,196.10019688370647 L 172,197.32214689818332 L 187.2,201.28905923514444 L 202.4,203.93460744293753 L 217.6,202.546943680551 L 232.8,198.5485077156643 L 248,196.03793963612765 L 263.20000000000005,197.588724440683 L 278.40000000000003,201.61121337081642 L 293.59999999999997,203.98211058616403 L 308.8,202.27110221992078 L 324,198.23207592768912 L 339.2,196.00527935194717 L 354.4,197.87331443829896 L 369.6,201.9213315911354 L 384.8,203.9998669889467 L 400,201.97829541219744 L 415.2,197.9288506987397 L 430.40000000000003,196.0024600065583 L 445.6,198.1737909769943 L 460.79999999999995,202.21709728384087 L 476,203.98774400928747 L 491.2,201.67071055176197 L 506.40000000000003,197.6410971497831 L 521.6,196.02950266073614 L 536.8000000000001,198.48790946877654 L 552,202.49630105140287 L 567.1999999999999,203.9458322069841 L 582.4,201.35064532643844 L 597.6,197.37096482688216 L 612.8000000000001,196.08620530331166 L 628,198.81332341898127 L 643.1999999999999,202.75685721542925 L 658.4,203.87444466714 L 673.6,201.0204906535499 L 688.8,197.1204716438846 L 704,196.1721443602141 L 719.2,199.1476019548078 L 734.4,202.99681939687946 L 749.6,203.77411466138906 L 764.8,200.68271281954122 L 780,196.8914888084167"
      stroke="url(#thread-15)"
      stroke-width="8"
      stroke-linecap="round"
      fill="none"
      opacity="0.7"
      class="thread"
      style="animation-delay: 1.5s"
    >
      <title>2026-01-06: 4224 stars, TypeScript, Python, Rust, JavaScript, Go</title>
    </path>

    <path
      d="M 20,215.95743298649353 L 35.2,213.8427924060221 L 50.400000000000006,210.19839465983375 L 65.6,208.0495634624909 L 80.80000000000001,209.1801079458898 L 96,212.65152927587556 L 111.2,215.58209664141697 L 126.4,215.53905830531195 L 141.60000000000002,212.5581416793091 L 156.79999999999998,209.11389492962107 L 172,208.065490434327 L 187.2,210.28324016345934 L 202.4,213.92612364785396 L 217.6,215.97007420701377 L 232.8,214.7183472678508 L 248,211.2100388503225 L 263.20000000000005,208.3575008415543 L 278.40000000000003,208.52871047280289 L 293.59999999999997,211.5815415016405 L 308.8,214.98174746230907 L 324,215.9067155546647 L 339.2,213.58860206353003 L 354.4,209.95174242268467 L 369.6,208.0152027396884 L 384.8,209.3865626024957 L 400,212.92741511836576 L 415.2,215.69839256948194 L 430.40000000000003,215.39922358613788 L 445.6,212.27825730116874 L 460.79999999999995,208.9263012970186 L 476,208.1259146398957 L 491.2,210.5415222645223 L 506.40000000000003,214.1678559370719 L 521.6,215.99458747150743 L 536.8000000000001,214.50529231262036 L 552,210.93627897445157 L 567.1999999999999,208.25029231679153 L 582.4,208.6770503063238 L 597.6,211.86228835503476 L 612.8000000000001,215.16184496453417 L 628,215.8366593754139 L 643.1999999999999,213.32654793530008 L 658.4,209.71522932553404 L 673.6,208.00056727885251 L 688.8,209.60595411232939 L 704,213.19871013603688 L 719.2,215.79638097585308 L 734.4,215.2425622704422 L 749.6,211.99699551338844 L 764.8,208.75392287065182 L 780,208.20551606920182"
      stroke="url(#thread-16)"
      stroke-width="7.528"
      stroke-linecap="round"
      fill="none"
      opacity="0.6799999999999999"
      class="thread"
      style="animation-delay: 1.6s"
    >
      <title>2026-01-05: 3764 stars, Go, TypeScript, Python, Rust, JavaScript</title>
    </path>

    <path
      d="M 20,227.19394845049396 L 35.2,223.77149151661305 L 50.400000000000006,220.55221815879761 L 65.6,220.3986193597809 L 80.80000000000001,223.44727102607192 L 96,226.98739437802254 L 111.2,227.87120727774104 L 126.4,225.3128471485917 L 141.60000000000002,221.58713876818948 L 156.79999999999998,220.00688147285175 L 172,221.97719739901373 L 187.2,225.74613480325417 L 202.4,227.96245626799464 L 217.6,226.65546856451138 L 232.8,222.98730988361115 L 248,220.21960792205994 L 263.20000000000005,220.8133285647833 L 278.40000000000003,224.24055144057937 L 293.59999999999997,227.45388246780956 L 308.8,227.5961144237157 L 324,224.5407784918956 L 339.2,221.00459692049998 L 354.4,220.13184692253827 L 369.6,222.69855424098782 L 384.8,226.42247200279556 L 400,227.9923930413702 L 415.2,226.01238594081835 L 430.40000000000003,222.24301957526743 L 445.6,220.0359127831156 L 460.79999999999995,221.35356535492156 L 476,225.02435618680698 L 491.2,227.78431714439063 L 506.40000000000003,227.179365434548 L 521.6,223.74740779024094 L 536.8000000000001,220.54004832147825 L 552,220.40918450239909 L 567.1999999999999,223.47117690896098 L 582.4,227.00338453532873 L 597.6,227.86506369315632 L 612.8000000000001,225.29003253171564 L 628,221.56793926058995 L 643.1999999999999,220.0083687584984 L 658.4,221.99804902365088 L 673.6,225.76781006503234 L 688.8,227.96568210914828 L 704,226.63737665415096 L 719.2,222.96398706013494 L 734.4,220.21179221062835 L 749.6,220.82796948505802 L 764.8,224.2646306814053 L 780,227.46598941813443"
      stroke="url(#thread-17)"
      stroke-width="7.814"
      stroke-linecap="round"
      fill="none"
      opacity="0.66"
      class="thread"
      style="animation-delay: 1.7000000000000002s"
    >
      <title>2026-01-04: 3907 stars, Python, Jupyter Notebook, TypeScript, Go, Rust</title>
    </path>

    <path
      d="M 20,237.64847394096702 L 35.2,233.89941937479998 L 50.400000000000006,232.00323920795233 L 65.6,233.63251084378587 L 80.80000000000001,237.35009082426944 L 96,239.8767863916367 L 111.2,238.983856846538 L 126.4,235.4589350342262 L 141.60000000000002,232.41127432364212 L 156.79999999999998,232.52914691948396 L 172,235.70858008554893 L 187.2,239.14506813085083 L 202.4,239.8073631012195 L 217.6,237.1112696648156 L 232.8,233.4349505289192 L 248,232.0212031986162 L 263.20000000000005,234.11706204335633 L 278.40000000000003,237.8738176389839 L 293.59999999999997,239.9777213085228 L 308.8,238.57296747081307 L 324,234.8986575400126 L 339.2,232.1958167470843 L 354.4,232.84855948905405 L 369.6,236.281116237522 L 384.8,239.46570674585197 L 400,239.5932761487311 L 415.2,236.55129837698806 L 430.40000000000003,233.0230328442074 L 445.6,232.12068233911464 L 460.79999999999995,234.64018972152746 L 476,238.35915482657504 L 491.2,239.99716310961279 L 506.40000000000003,238.10936471479442 L 521.6,234.36094367498805 L 536.8000000000001,232.05829694501946 L 552,233.23253683995583 L 567.1999999999999,236.84789305234708 L 582.4,239.71534208554826 L 597.6,239.30557235721264 L 612.8000000000001,235.9800324259628 L 628,232.67210543768036 L 643.1999999999999,232.29963856179853 L 658.4,235.19117635911002 L 673.6,238.79615909625886 L 688.8,239.93471348320392 L 704,237.60254658755545 L 719.2,233.85680979119658 L 734.4,232.00153233885158 L 749.6,233.67321227960488 L 764.8,237.39729875408045 L 780,239.88885977412835"
      stroke="url(#thread-18)"
      stroke-width="7.78"
      stroke-linecap="round"
      fill="none"
      opacity="0.64"
      class="thread"
      style="animation-delay: 1.8s"
    >
      <title>2026-01-03: 3890 stars, Go, Python, Jupyter Notebook, TypeScript, Rust, JavaScript</title>
    </path>

    <path
      d="M 20,247.69939551815276 L 35.2,245.31405359303858 L 50.400000000000006,244.06011724039442 L 65.6,244.46578410899966 L 80.80000000000001,246.3601744841597 L 96,248.94531122778474 L 111.2,251.13225298581287 L 126.4,251.99979072544747 L 141.60000000000002,251.18249011396813 L 156.79999999999998,249.0246240169147 L 172,246.43515387913303 L 187.2,244.50484641735204 L 202.4,244.04680818246158 L 217.6,245.25397936493462 L 232.8,247.61786128466525 L 248,250.14271211683052 L 263.20000000000005,251.76498483988016 L 278.40000000000003,251.801326876798 L 293.59999999999997,250.23642981227937 L 308.8,247.7294777814022 L 324,245.33647826454583 L 339.2,244.06543833931704 L 354.4,244.4517602201861 L 369.6,246.33271291309836 L 384.8,248.91597965670752 L 400,251.113406800099 L 415.2,251.99936853454994 L 430.40000000000003,251.20066975804522 L 445.6,249.05374765493087 L 460.79999999999995,246.4629537136905 L 476,244.51961227893636 L 491.2,244.0423202231877 L 506.40000000000003,245.23212805518506 L 521.6,247.58785108717703 L 536.8000000000001,250.11718427588946 L 552,251.75469248943526 L 567.1999999999999,251.81060548036297 L 582.4,250.26137092858713 L 597.6,247.7595754234751 L 612.8000000000001,245.35905435367346 L 628,244.07098311276638 L 643.1999999999999,244.43793804402108 L 658.4,246.30534612506045 L 673.6,248.8865960134215 L 688.8,251.0943836214053 L 704,251.99871898494223 L 719.2,251.21866744836095 L 734.4,249.08281138881335 L 749.6,246.49084092725747 L 764.8,244.53457599587122 L 780,244.03805725267426"
      stroke="url(#thread-19)"
      stroke-width="5.26"
      stroke-linecap="round"
      fill="none"
      opacity="0.62"
      class="thread"
      style="animation-delay: 1.9000000000000001s"
    >
      <title>2026-01-02: 2630 stars, TypeScript, Rust, Python, JavaScript, Jupyter Notebook, Shell</title>
    </path>

    <path
      d="M 20,257.8239155564425 L 35.2,256.00875255742716 L 50.400000000000006,257.40009533849707 L 65.6,260.8801608672115 L 80.80000000000001,263.6531189191969 L 96,263.49121835911075 L 111.2,260.5245275651191 L 126.4,257.1364395278926 L 141.60000000000002,256.0488911934907 L 156.79999999999998,258.13560188665014 L 172,261.72014086854693 L 187.2,263.9227455762808 L 202.4,262.9738778320737 L 217.6,259.63584314319206 L 232.8,256.59036637837124 L 248,256.2841359451881 L 263.20000000000005,258.96317258481884 L 278.40000000000003,262.47518015585996 L 293.59999999999997,263.9986666966437 L 308.8,262.30968694464417 L 324,258.76514082028893 L 339.2,256.21266125013926 L 354.4,256.70287040508174 L 369.6,259.84194191594486 L 384.8,263.10799481981957 L 400,263.8771332883913 L 415.2,261.5314435038257 L 430.40000000000003,257.95541595705777 L 445.6,256.02197525710733 L 460.79999999999995,257.28441742709623 L 476,260.7285161697735 L 491.2,263.58733641421804 L 506.40000000000003,263.5641466823817 L 521.6,260.67757724217984 L 536.8000000000001,257.24665284158914 L 552,256.0277244911192 L 567.1999999999999,258.00006016589015 L 582.4,261.5791162282505 L 597.6,263.8895350071134 L 612.8000000000001,263.0751621859563 L 628,259.7902521541039 L 643.1999999999999,256.67385026159974 L 658.4,256.2296250544715 L 673.6,258.81446011731555 L 688.8,262.351739382391 L 704,263.9996680042425 L 719.2,262.4343258984444 L 734.4,258.91328443391615 L 749.6,256.2652932610807 L 764.8,256.61770707880845 L 780,259.6874021369975"
      stroke="url(#thread-20)"
      stroke-width="7.396"
      stroke-linecap="round"
      fill="none"
      opacity="0.6000000000000001"
      class="thread"
      style="animation-delay: 2s"
    >
      <title>2026-01-01: 3698 stars, Rust, Python, JavaScript, TypeScript, Jupyter Notebook, Go, Shell</title>
    </path>

    <path
      d="M 20,268.48121696011333 L 35.2,268.3726734417526 L 50.400000000000006,271.18557549858883 L 65.6,274.6544143225655 L 80.80000000000001,275.98539021832954 L 96,274.1065363863843 L 111.2,270.53108002743437 L 126.4,268.13869050441986 L 141.60000000000002,268.85619620566627 L 156.79999999999998,272.10571867925455 L 172,275.2700954228501 L 187.2,275.8007402291224 L 202.4,273.27027224432373 L 217.6,269.71672812676354 L 232.8,268.0021291397077 L 248,269.5074117782678 L 263.20000000000005,273.0202227477444 L 278.40000000000003,275.7113472260127 L 293.59999999999997,275.41335595819476 L 308.8,272.3662508456453 L 324,269.0241676286322 L 339.2,268.07881714969955 L 354.4,270.29158384152504 L 369.6,273.8803073838369 L 384.8,275.95463303604686 L 400,274.84390076772905 L 415.2,271.4426933572461 L 430.40000000000003,268.49034021983636 L 445.6,268.36466393948893 L 460.79999999999995,271.16688408031877 L 476,274.640095039895 L 491.2,275.98697580875154 L 506.40000000000003,274.122749816787 L 521.6,270.5488630154304 L 536.8000000000001,268.1437206473359 L 552,268.8444222308836 L 567.1999999999999,272.08662333556316 L 582.4,275.2590580830301 L 597.6,275.8066503568217 L 612.8000000000001,273.288369827964 L 628,269.7324373886201 L 643.1999999999999,268.0027978542907 L 658.4,269.4925013634484 L 673.6,273.00174203832125 L 688.8,275.7041805688742 L 704,275.4232753726091 L 719.2,272.3852672440893 L 734.4,269.0369652207576 L 749.6,268.07508876622137 L 764.8,270.27433231917166 L 780,273.86342708332694"
      stroke="url(#thread-21)"
      stroke-width="7.406"
      stroke-linecap="round"
      fill="none"
      opacity="0.5800000000000001"
      class="thread"
      style="animation-delay: 2.1s"
    >
      <title>2025-12-31: 3703 stars, Go, Python, TypeScript, Rust, Shell</title>
    </path>

    <path
      d="M 20,280.0000391737972 L 35.2,282.1461708871693 L 50.400000000000006,286.2670961555523 L 65.6,287.97299468517707 L 80.80000000000001,285.44665614177427 L 96,281.3792655103878 L 111.2,280.10361525229723 L 126.4,282.9785932448639 L 141.60000000000002,286.94162593628425 L 156.79999999999998,287.77108827862503 L 172,284.583394575426 L 187.2,280.7742391422294 L 202.4,280.401329103952 L 217.6,283.8619072998027 L 232.8,287.46958890041503 L 248,287.38128700845266 L 263.20000000000005,283.69106531400206 L 278.40000000000003,280.32993664253047 L 293.59999999999997,280.87834710530274 L 308.8,284.7521018378152 L 324,287.82467923863635 L 339.2,286.8230127632732 L 354.4,282.81412875526877 L 369.6,280.06849542930377 L 384.8,281.51090178508235 L 400,285.60482282394986 L 415.2,287.9892045381105 L 430.40000000000003,286.1240816151088 L 445.6,281.99627835398854 L 460.79999999999995,280.0029418380458 L 476,282.26747604092986 L 491.2,286.37758334685435 L 506.40000000000003,287.9549673087702 L 521.6,285.3193178807249 L 536.8000000000001,281.2782635910158 L 552,280.1365420832227 L 567.1999999999999,283.11037348227626 L 582.4,287.0318805335289 L 597.6,287.7236734241094 L 612.8000000000001,284.44881899644383 L 628,280.6958596261979 L 643.1999999999999,280.462639518797 L 658.4,283.99759665690453 L 673.6,287.5351139589573 L 688.8,287.30684712585975 L 704,283.5559576592324 L 719.2,280.2780847973345 L 734.4,280.96498630630487 L 749.6,284.8849395783512 L 764.8,287.8622099656555 L 780,286.72525682745436"
      stroke="url(#thread-22)"
      stroke-width="8"
      stroke-linecap="round"
      fill="none"
      opacity="0.56"
      class="thread"
      style="animation-delay: 2.2s"
    >
      <title>2025-12-30: 4315 stars, Go, Shell, Rust, Python, Swift, TypeScript</title>
    </path>

    <path
      d="M 20,292.49819130124627 L 35.2,295.0394039340717 L 50.400000000000006,298.1965501419125 L 65.6,299.9452698221042 L 80.80000000000001,299.1642850488627 L 96,296.35436275271934 L 111.2,293.31722328915623 L 126.4,292.0002785141705 L 141.60000000000002,293.2479525641143 L 156.79999999999998,296.2602376466456 L 172,299.10565851877936 L 187.2,299.9597331611112 L 202.4,298.2748294664107 L 217.6,295.13130659191717 L 232.8,292.5447893677806 L 248,292.1737509620771 L 263.20000000000005,294.2561009601141 L 278.40000000000003,297.4566378924947 L 293.59999999999997,299.7231795520962 L 308.8,299.6024208954812 L 324,297.1717922950206 L 339.2,293.9898112343039 L 354.4,292.09676190756693 L 369.6,292.7064663164341 L 384.8,295.42798238902293 L 400,298.5162757831079 L 415.2,299.9911347755886 L 430.40000000000003,298.9068807361821 L 445.6,295.95873665236866 L 460.79999999999995,293.0370506003182 L 476,292.01520578337863 L 491.2,293.5484084360251 L 506.40000000000003,296.65357001088256 L 521.6,299.3396629182697 L 536.8000000000001,299.8843661265345 L 552,297.9384162915004 L 567.1999999999999,294.7495551864329 L 582.4,292.3624784855474 L 597.6,292.307778222647 L 612.8000000000001,294.6205281708582 L 628,297.81779456202946 L 643.1999999999999,299.84949225794236 L 658.4,299.4128980124996 L 673.6,296.78795577297 L 688.8,293.6577768024004 L 704,292.0294298283917 L 719.2,292.94700987552375 L 734.4,295.82216521215923 L 749.6,298.8113480995229 L 764.8,299.99789640720127 L 780,298.6209961291838"
      stroke="url(#thread-23)"
      stroke-width="6.556"
      stroke-linecap="round"
      fill="none"
      opacity="0.54"
      class="thread"
      style="animation-delay: 2.3000000000000003s"
    >
      <title>2025-12-29: 3278 stars, Shell, Go, JavaScript, TypeScript, Rust, Python</title>
    </path>

    <path
      d="M 20,305.8537083279983 L 35.2,309.5111921237661 L 50.400000000000006,311.89503742268283 L 65.6,310.99613029708235 L 80.80000000000001,307.57207310754694 L 96,304.508674338271 L 111.2,304.38777817861717 L 126.4,307.31127637394 L 141.60000000000002,310.8152334732272 L 156.79999999999998,311.94650104301223 L 172,309.7516424524009 L 187.2,306.08049290909685 L 202.4,304.02711127730106 L 217.6,305.32209544318073 L 232.8,308.8740278030187 L 248,311.68932619042135 L 263.20000000000005,311.3952463659714 L 278.40000000000003,308.23963992952577 L 293.59999999999997,304.88206404470446 L 308.8,304.1522964980341 L 324,306.6653881666166 L 339.2,310.30329578852337 L 354.4,311.99997691793925 L 369.6,310.32546221521505 L 384.8,306.69103907087634 L 400,304.15981319972826 L 415.2,304.8651114389205 L 430.40000000000003,308.2125057372019 L 445.6,311.38079938809005 L 460.79999999999995,311.6997423951493 L 476,308.9005283732062 L 491.2,305.34234559700326 L 506.40000000000003,304.0240441077321 L 521.6,306.05669343837013 L 536.8000000000001,309.7271689653934 L 552,311.941979888098 L 567.1999999999999,310.83447509704536 L 582.4,307.33806386240576 L 597.6,304.39953493408467 L 612.8000000000001,304.4954917223044 L 628,307.5450614792596 L 643.1999999999999,310.9780551600183 L 658.4,311.90113257143287 L 673.6,309.5363205436714 L 688.8,305.8766916907357 L 704,304.0065951949587 L 719.2,305.5021555294564 L 734.4,309.1029087291092 L 749.6,311.77412623716117 L 764.8,311.26449572990936 L 780,308.0035357463916"
      stroke="url(#thread-24)"
      stroke-width="7.59"
      stroke-linecap="round"
      fill="none"
      opacity="0.52"
      class="thread"
      style="animation-delay: 2.4000000000000004s"
    >
      <title>2025-12-28: 3795 stars, Shell, Rust, Python, JavaScript, TypeScript</title>
    </path>

    <path
      d="M 20,319.7347124105952 L 35.2,323.83974673240334 L 50.400000000000006,321.92356065041747 L 65.6,316.99098222711183 L 80.80000000000001,316.77693355906246 L 96,321.61707069269227 L 111.2,323.9214314515293 L 126.4,320.0764795828512 L 141.60000000000002,316.1115978185758 L 156.79999999999998,318.2442345065901 L 172,323.1301389880196 L 187.2,323.1075799548313 L 202.4,318.21193289410536 L 217.6,316.1202067405865 L 232.8,320.11249913416106 L 248,323.9283783085242 L 263.20000000000005,321.5840512834793 L 278.40000000000003,316.7557265957105 L 293.59999999999997,317.0148429760059 L 308.8,321.95507236558353 L 324,323.8294949613945 L 339.2,319.69877325870567 L 354.4,316.04041411720965 L 369.6,318.591198695229 L 384.8,323.3511662616976 L 400,322.85607090926106 L 415.2,317.8822863015149 L 430.40000000000003,316.22935117144544 L 445.6,320.4892819787146 L 460.79999999999995,323.9819552456404 L 476,321.23040673363715 L 491.2,316.54942103583693 L 506.40000000000003,317.27939025560664 L 521.6,322.2756280720682 L 536.8000000000001,323.7033862116404 L 552,319.32375491261246 L 567.1999999999999,316.0045635336922 L 582.4,318.95073423450924 L 597.6,323.5422896120967 L 612.8000000000001,322.57907589293325 L 628,317.57153699512895 L 643.1999999999999,316.37214275212483 L 658.4,320.86169874602496 L 673.6,323.9999994532927 L 688.8,320.86578272599104 L 704,316.37390650229685 L 719.2,317.5682147267028 L 734.4,322.5758773532774 L 749.6,323.54423052583576 L 764.8,318.9547709974105 L 780,316.004365978471"
      stroke="url(#thread-25)"
      stroke-width="8"
      stroke-linecap="round"
      fill="none"
      opacity="0.5"
      class="thread"
      style="animation-delay: 2.5s"
    >
      <title>2025-12-27: 5384 stars, Shell, Python, Rust, C, Go</title>
    </path>

    <path
      d="M 20,333.68066814730656 L 35.2,335.9343908676622 L 50.400000000000006,334.8592808240127 L 65.6,331.36497349961087 L 80.80000000000001,328.4079531636172 L 96,328.4901131228689 L 111.2,331.54193899167166 L 126.4,334.9813238356057 L 141.60000000000002,335.8982525235831 L 156.79999999999998,333.51692459208545 L 172,329.85214810336305 L 187.2,328.0046388883429 L 202.4,329.53754850304085 L 217.6,333.15390368747745 L 232.8,335.7939571950896 L 248,335.2239968934353 L 263.20000000000005,331.92625817552636 L 278.40000000000003,328.69091137790247 L 293.59999999999997,328.25533791108137 L 308.8,330.98807035768044 L 324,334.5769822387908 L 339.2,335.9855457007204 L 354.4,334.02199501404203 L 369.6,330.34766279146663 L 384.8,328.07134983590396 L 400,329.1190125158195 L 415.2,332.6042381762854 L 430.40000000000003,335.57822641623625 L 445.6,335.5247276240017 L 460.79999999999995,332.48900637506887 L 476,329.039543711546 L 491.2,328.0948814658999 L 506.40000000000003,330.4542850746361 L 521.6,334.1214963365607 L 536.8000000000001,335.99373939339273 L 552,334.4869357335158 L 567.1999999999999,330.8759707357945 L 582.4,328.21603108564153 L 597.6,328.7576543009437 L 612.8000000000001,332.042580598805 L 628,335.2914800510424 L 643.1999999999999,335.75550453672884 L 658.4,333.0420494664348 L 673.6,329.4469310021721 L 688.8,328.0119283003236 L 704,329.95117695926393 L 719.2,333.62390597006964 L 734.4,335.9226709847553 L 749.6,334.9025192634877 L 764.8,331.42658682610755 L 780,328.43581120836484"
      stroke="url(#thread-26)"
      stroke-width="7.606"
      stroke-linecap="round"
      fill="none"
      opacity="0.48"
      class="thread"
      style="animation-delay: 2.6s"
    >
      <title>2025-12-26: 3803 stars, Python, Shell, Go, TypeScript</title>
    </path>

    <path
      d="M 20,347.21513770620646 L 35.2,347.88031283458366 L 50.400000000000006,345.71512099694155 L 65.6,342.29889038500176 L 80.80000000000001,340.1234784042189 L 96,340.77566799462124 L 111.2,343.7797408440655 L 126.4,346.944474512752 L 141.60000000000002,347.96145779417543 L 156.79999999999998,346.0888855794589 L 172,342.6926442710548 L 187.2,340.2500107323808 L 202.4,340.5426839069695 L 217.6,343.357182944047 L 232.8,346.64056380532884 L 248,347.9978719799813 L 263.20000000000005,346.4390635246387 L 278.40000000000003,343.1011601554447 L 293.59999999999997,340.41888603889686 L 308.8,340.34873808050816 L 324,342.94188340845125 L 339.2,346.3068371896264 L 354.4,347.9891442214696 L 369.6,346.76170080059046 L 384.8,343.5198252838366 L 400,340.62819746939 L 415.2,340.1960204532198 L 430.40000000000003,342.5385315891646 L 445.6,345.94706293746 L 460.79999999999995,347.9353730680662 L 476,347.0531543507035 L 491.2,343.94391230177575 L 506.40000000000003,340.87558158526406 L 521.6,340.08625543515603 L 536.8000000000001,342.15168193051613 L 552,345.5653034373552 L 567.1999999999999,347.8371656763847 L 582.4,347.3101332291955 L 597.6,344.36863263357867 L 612.8000000000001,341.1582450504543 L 628,340.0206824372731 L 643.1999999999999,341.78570254279964 L 658.4,345.1658693241155 L 673.6,347.69563095452145 L 688.8,347.5297357608049 L 704,344.78919055250236 L 719.2,341.4729961723627 L 734.4,340.00004187663137 L 749.6,341.44472587978674 L 764.8,344.7532708053184 L 780,347.51236704082737"
      stroke="url(#thread-27)"
      stroke-width="7.022"
      stroke-linecap="round"
      fill="none"
      opacity="0.46"
      class="thread"
      style="animation-delay: 2.7s"
    >
      <title>2025-12-25: 3511 stars, Python, TypeScript</title>
    </path>

    <path
      d="M 20,359.9624294227795 L 35.2,359.32672711121705 L 50.400000000000006,357.01399767303644 L 65.6,354.1901046956897 L 80.80000000000001,352.27859299284927 L 96,352.24306939830177 L 111.2,354.10144161222803 L 126.4,356.91689080040516 L 141.60000000000002,359.2701287241713 L 156.79999999999998,359.97487117637394 L 172,358.6758524047854 L 187.2,356.0279171397097 L 202.4,353.3659086431889 L 217.6,352.0317645947222 L 232.8,352.6980366299849 L 248,355.0288522113485 L 263.20000000000005,357.8492303961587 L 278.40000000000003,359.7373982030066 L 293.59999999999997,359.74151662441415 L 308.8,357.8595095344509 L 324,355.0401102787869 L 339.2,352.70459835358906 L 354.4,352.03032216230497 L 369.6,353.3571891953336 L 384.8,356.01631621295826 L 400,358.6672181099704 L 415.2,359.97355612377567 L 430.40000000000003,359.27679584128765 L 445.6,356.92817914541956 L 460.79999999999995,354.1116606490157 L 476,352.247067636726 L 491.2,352.2743548920881 L 506.40000000000003,354.1797667128988 L 521.6,357.00277125989055 L 536.8000000000001,359.3202715835394 L 552,359.9639990586248 L 567.1999999999999,358.6094460228778 L 582.4,355.93945242963616 L 597.6,353.2999813032385 L 612.8000000000001,352.02160907238226 L 628,352.7487723973011 L 643.1999999999999,355.1149030021484 L 658.4,357.9272173862666 L 673.6,359.76800758832553 L 688.8,359.70931799307306 L 704,357.78073444870114 L 719.2,354.9544698274215 L 734.4,352.65526450571593 L 749.6,352.0421644663955 L 764.8,353.424237860498 L 780,356.10477152358266"
      stroke="url(#thread-28)"
      stroke-width="5.776"
      stroke-linecap="round"
      fill="none"
      opacity="0.44"
      class="thread"
      style="animation-delay: 2.8000000000000003s"
    >
      <title>2025-12-24: 2888 stars, Python, TypeScript</title>
    </path>

    <path
      d="M 20,371.7395802220987 L 35.2,369.85466864437024 L 50.400000000000006,367.0348052285395 L 65.6,364.7015034572607 L 80.80000000000001,364.0309975794528 L 96,365.3612944433029 L 111.2,368.0217818066437 L 126.4,370.6712888041814 L 141.60000000000002,371.9741798522057 L 156.79999999999998,371.27365817793725 L 172,368.9228618090102 L 187.2,366.1068441471759 L 202.4,364.24518000276623 L 217.6,364.2763476958997 L 232.8,366.1846353677097 L 248,369.0080614417015 L 263.20000000000005,371.32331647355073 L 278.40000000000003,371.96326370582426 L 293.59999999999997,370.60530112391507 L 308.8,367.93398745796816 L 324,365.2959511904923 L 339.2,364.0210454274554 L 354.4,364.7519593576658 L 369.6,367.12023399810283 L 384.8,369.93200502430693 L 400,371.7698383855909 L 415.2,371.7072690314596 L 430.40000000000003,369.7758386245337 L 445.6,366.949195160968 L 460.79999999999995,364.65226999437243 L 476,364.04295966492447 L 491.2,365.4284219035866 L 506.40000000000003,368.1102352049377 L 521.6,370.7364781445463 L 536.8000000000001,371.98324271806706 L 552,371.2220259132598 L 567.1999999999999,368.8365626107509 L 582.4,366.0293820635021 L 597.6,364.2156042286563 L 612.8000000000001,364.30956759236057 L 628,366.26390454537864 L 643.1999999999999,369.0934197364858 L 658.4,371.37173415350986 L 673.6,371.95033306933897 L 688.8,370.5375405980835 L 704,367.8455556125 L 719.2,365.231427156392 L 734.4,364.01295623561174 L 749.6,364.8043828280202 L 764.8,367.2067430812112 L 780,370.0089898675358"
      stroke="url(#thread-29)"
      stroke-width="5.776"
      stroke-linecap="round"
      fill="none"
      opacity="0.42000000000000004"
      class="thread"
      style="animation-delay: 2.9000000000000004s"
    >
      <title>2025-12-23: 2888 stars, Python, TypeScript</title>
    </path>
  </g>

  <!-- Date markers -->
  <g id="dates">
    <text x="785" y="24" class="date-label">01-21</text>
<text x="785" y="108" class="date-label">01-14</text>
<text x="785" y="192" class="date-label">01-07</text>
<text x="785" y="276" class="date-label">12-31</text>
<text x="785" y="360" class="date-label">12-24</text>
  </g>

</svg>