<?xml version="1.0" encoding="UTF-8"?>
<svg xmlns="http://www.w3.org/2000/svg" viewBox="0 0 800 412" width="800" height="412">
  <title>The Data Tapestry - GitHub Trends Woven in Time</title>
  <desc>A living data art piece that weaves daily GitHub trending repositories into an evolving tapestry. Each thread represents one day of open source activity.</desc>

  <style>
    .thread {
      animation: breathe 8s ease-in-out infinite alternate;
    }

    @keyframes breathe {
      0% {
        opacity: 0.85;
      }
      100% {
        opacity: 1;
      }
    }

    .date-label {
      font-family: ui-monospace, monospace;
      font-size: 8px;
      fill: #666;
    }

    .title {
      font-family: system-ui, sans-serif;
      font-size: 14px;
      fill: #333;
      font-weight: 600;
    }

    .subtitle {
      font-family: system-ui, sans-serif;
      font-size: 10px;
      fill: #888;
    }

    .empty-state {
      font-family: system-ui, sans-serif;
      font-size: 12px;
      fill: #999;
      text-anchor: middle;
    }
  </style>

  <defs>
    
    <linearGradient id="thread-0" x1="0%" y1="0%" x2="100%" y2="0%">
      <stop offset="0%" stop-color="#3178c6" />
      <stop offset="50%" stop-color="#3572A5" />
      <stop offset="100%" stop-color="#dea584" />
    </linearGradient>

    <linearGradient id="thread-1" x1="0%" y1="0%" x2="100%" y2="0%">
      <stop offset="0%" stop-color="#3572A5" />
      <stop offset="50%" stop-color="#3178c6" />
      <stop offset="100%" stop-color="#8b8b8b" />
    </linearGradient>

    <linearGradient id="thread-2" x1="0%" y1="0%" x2="100%" y2="0%">
      <stop offset="0%" stop-color="#3572A5" />
      <stop offset="50%" stop-color="#3178c6" />
      <stop offset="100%" stop-color="#41b883" />
    </linearGradient>

    <linearGradient id="thread-3" x1="0%" y1="0%" x2="100%" y2="0%">
      <stop offset="0%" stop-color="#3178c6" />
      <stop offset="50%" stop-color="#f1e05a" />
      <stop offset="100%" stop-color="#89e051" />
    </linearGradient>

    <linearGradient id="thread-4" x1="0%" y1="0%" x2="100%" y2="0%">
      <stop offset="0%" stop-color="#3178c6" />
      <stop offset="50%" stop-color="#3572A5" />
      <stop offset="100%" stop-color="#f1e05a" />
    </linearGradient>

    <linearGradient id="thread-5" x1="0%" y1="0%" x2="100%" y2="0%">
      <stop offset="0%" stop-color="#3178c6" />
      <stop offset="50%" stop-color="#3572A5" />
      <stop offset="100%" stop-color="#f1e05a" />
    </linearGradient>

    <linearGradient id="thread-6" x1="0%" y1="0%" x2="100%" y2="0%">
      <stop offset="0%" stop-color="#3178c6" />
      <stop offset="50%" stop-color="#f1e05a" />
      <stop offset="100%" stop-color="#3572A5" />
    </linearGradient>

    <linearGradient id="thread-7" x1="0%" y1="0%" x2="100%" y2="0%">
      <stop offset="0%" stop-color="#3572A5" />
      <stop offset="50%" stop-color="#3178c6" />
      <stop offset="100%" stop-color="#89e051" />
    </linearGradient>

    <linearGradient id="thread-8" x1="0%" y1="0%" x2="100%" y2="0%">
      <stop offset="0%" stop-color="#3178c6" />
      <stop offset="50%" stop-color="#89e051" />
      <stop offset="100%" stop-color="#3572A5" />
    </linearGradient>

    <linearGradient id="thread-9" x1="0%" y1="0%" x2="100%" y2="0%">
      <stop offset="0%" stop-color="#3572A5" />
      <stop offset="50%" stop-color="#3178c6" />
      <stop offset="100%" stop-color="#89e051" />
    </linearGradient>

    <linearGradient id="thread-10" x1="0%" y1="0%" x2="100%" y2="0%">
      <stop offset="0%" stop-color="#3178c6" />
      <stop offset="50%" stop-color="#3572A5" />
      <stop offset="100%" stop-color="#8b8b8b" />
    </linearGradient>

    <linearGradient id="thread-11" x1="0%" y1="0%" x2="100%" y2="0%">
      <stop offset="0%" stop-color="#3178c6" />
      <stop offset="50%" stop-color="#89e051" />
      <stop offset="100%" stop-color="#3572A5" />
    </linearGradient>

    <linearGradient id="thread-12" x1="0%" y1="0%" x2="100%" y2="0%">
      <stop offset="0%" stop-color="#3572A5" />
      <stop offset="50%" stop-color="#3178c6" />
      <stop offset="100%" stop-color="#89e051" />
    </linearGradient>

    <linearGradient id="thread-13" x1="0%" y1="0%" x2="100%" y2="0%">
      <stop offset="0%" stop-color="#3572A5" />
      <stop offset="50%" stop-color="#3178c6" />
      <stop offset="100%" stop-color="#8b8b8b" />
    </linearGradient>

    <linearGradient id="thread-14" x1="0%" y1="0%" x2="100%" y2="0%">
      <stop offset="0%" stop-color="#3572A5" />
      <stop offset="50%" stop-color="#3178c6" />
      <stop offset="100%" stop-color="#8b8b8b" />
    </linearGradient>

    <linearGradient id="thread-15" x1="0%" y1="0%" x2="100%" y2="0%">
      <stop offset="0%" stop-color="#3178c6" />
      <stop offset="50%" stop-color="#3572A5" />
      <stop offset="100%" stop-color="#dea584" />
    </linearGradient>

    <linearGradient id="thread-16" x1="0%" y1="0%" x2="100%" y2="0%">
      <stop offset="0%" stop-color="#3572A5" />
      <stop offset="50%" stop-color="#3178c6" />
      <stop offset="100%" stop-color="#00ADD8" />
    </linearGradient>

    <linearGradient id="thread-17" x1="0%" y1="0%" x2="100%" y2="0%">
      <stop offset="0%" stop-color="#3572A5" />
      <stop offset="50%" stop-color="#00ADD8" />
      <stop offset="100%" stop-color="#3178c6" />
    </linearGradient>

    <linearGradient id="thread-18" x1="0%" y1="0%" x2="100%" y2="0%">
      <stop offset="0%" stop-color="#3572A5" />
      <stop offset="50%" stop-color="#3178c6" />
      <stop offset="100%" stop-color="#00ADD8" />
    </linearGradient>

    <linearGradient id="thread-19" x1="0%" y1="0%" x2="100%" y2="0%">
      <stop offset="0%" stop-color="#3572A5" />
      <stop offset="50%" stop-color="#00ADD8" />
      <stop offset="100%" stop-color="#DA5B0B" />
    </linearGradient>

    <linearGradient id="thread-20" x1="0%" y1="0%" x2="100%" y2="0%">
      <stop offset="0%" stop-color="#3572A5" />
      <stop offset="50%" stop-color="#3178c6" />
      <stop offset="100%" stop-color="#dea584" />
    </linearGradient>

    <linearGradient id="thread-21" x1="0%" y1="0%" x2="100%" y2="0%">
      <stop offset="0%" stop-color="#dea584" />
      <stop offset="50%" stop-color="#3572A5" />
      <stop offset="100%" stop-color="#3178c6" />
    </linearGradient>

    <linearGradient id="thread-22" x1="0%" y1="0%" x2="100%" y2="0%">
      <stop offset="0%" stop-color="#3572A5" />
      <stop offset="50%" stop-color="#3178c6" />
      <stop offset="100%" stop-color="#dea584" />
    </linearGradient>

    <linearGradient id="thread-23" x1="0%" y1="0%" x2="100%" y2="0%">
      <stop offset="0%" stop-color="#3572A5" />
      <stop offset="50%" stop-color="#dea584" />
      <stop offset="100%" stop-color="#3178c6" />
    </linearGradient>

    <linearGradient id="thread-24" x1="0%" y1="0%" x2="100%" y2="0%">
      <stop offset="0%" stop-color="#3572A5" />
      <stop offset="50%" stop-color="#3178c6" />
      <stop offset="100%" stop-color="#89e051" />
    </linearGradient>

    <linearGradient id="thread-25" x1="0%" y1="0%" x2="100%" y2="0%">
      <stop offset="0%" stop-color="#3572A5" />
      <stop offset="50%" stop-color="#f1e05a" />
      <stop offset="100%" stop-color="#89e051" />
    </linearGradient>

    <linearGradient id="thread-26" x1="0%" y1="0%" x2="100%" y2="0%">
      <stop offset="0%" stop-color="#3572A5" />
      <stop offset="50%" stop-color="#89e051" />
      <stop offset="100%" stop-color="#dea584" />
    </linearGradient>

    <linearGradient id="thread-27" x1="0%" y1="0%" x2="100%" y2="0%">
      <stop offset="0%" stop-color="#3572A5" />
      <stop offset="50%" stop-color="#89e051" />
      <stop offset="100%" stop-color="#00ADD8" />
    </linearGradient>

    <linearGradient id="thread-28" x1="0%" y1="0%" x2="100%" y2="0%">
      <stop offset="0%" stop-color="#3572A5" />
      <stop offset="50%" stop-color="#3178c6" />
      <stop offset="100%" stop-color="#3572A5" />
    </linearGradient>

    <linearGradient id="thread-29" x1="0%" y1="0%" x2="100%" y2="0%">
      <stop offset="0%" stop-color="#3572A5" />
      <stop offset="50%" stop-color="#3178c6" />
      <stop offset="100%" stop-color="#3572A5" />
    </linearGradient>

    <linearGradient id="thread-30" x1="0%" y1="0%" x2="100%" y2="0%">
      <stop offset="0%" stop-color="#3572A5" />
      <stop offset="50%" stop-color="#3178c6" />
      <stop offset="100%" stop-color="#3572A5" />
    </linearGradient>

    <!-- Background pattern -->
    <pattern id="loom" patternUnits="userSpaceOnUse" width="20" height="20">
      <rect width="20" height="20" fill="#fafafa"/>
      <circle cx="10" cy="10" r="0.5" fill="#eee"/>
    </pattern>
  </defs>

  <!-- Background -->
  <rect width="100%" height="100%" fill="url(#loom)"/>

  <!-- Threads -->
  <g id="tapestry">
    
    <path
      d="M 20,20 L 35.2,23.999645141646816 L 50.400000000000006,19.893449781831915 L 65.6,16.00319334741649 L 80.80000000000001,20.21302481922059 L 96,23.991131688890647 L 111.2,19.680651760293724 L 126.4,16.01737572199388 L 141.60000000000002,20.425445023464537 L 156.79999999999998,23.97129045751373 L 172,19.468760124824527 L 187.2,16.042861729141563 L 202.4,20.63665771379594 L 217.6,23.940177761638004 L 232.8,19.258376274156614 L 248,16.07957903352475 L 263.20000000000005,20.846063418489887 L 278.40000000000003,23.89788190647578 L 293.59999999999997,19.050097327571347 L 308.8,16.1274234227225 L 324,21.05306779447535 L 339.2,23.844522937698635 L 354.4,18.844514430132875 L 369.6,16.1862591030073 L 384.8,21.25708331422198 L 400,23.780252300719223 L 415.2,18.64221107487819 L 430.40000000000003,16.255919084759835 L 445.6,21.45753093328246 L 460.79999999999995,23.705252410853394 L 476,18.443761446725624 L 491.2,16.33620565642522 L 506.40000000000003,21.65384173375808 L 521.6,23.619736135582137 L 536.8000000000001,18.249728792801577 L 552,16.426890945665246 L 567.1999999999999,21.845458539022793 L 582.4,23.523946190383256 L 597.6,18.060663823811833 L 612.8000000000001,16.527717566114152 L 628,22.03183749512254 L 643.1999999999999,23.4181544498472 L 658.4,17.877103150993552 L 673.6,16.6383993479022 L 688.8,22.212449614361944 L 704,23.302661176032416 L 719.2,17.699567763085508 L 734.4,16.758622149873634 L 749.6,22.386782276696746 L 764.8,23.177794166250568 L 780,17.52856154763868"
      stroke="url(#thread-0)"
      stroke-width="8"
      stroke-linecap="round"
      fill="none"
      opacity="1"
      class="thread"
      style="animation-delay: 0s"
    >
      <title>2026-01-22: 6303 stars, Rust, Unknown, Shell, TypeScript, Python</title>
    </path>

    <path
      d="M 20,33.917702154416816 L 35.2,35.99973773905522 L 50.400000000000006,33.997587781654715 L 65.6,29.955674302480187 L 80.80000000000001,28.001249054221827 L 96,30.130001720228254 L 111.2,34.16823456622404 L 126.4,35.992454183139216 L 141.60000000000002,33.73992559408787 L 156.79999999999998,29.710735778924313 L 172,28.019144187346484 L 187.2,30.392457550967414 L 202.4,34.40725394594918 L 217.6,35.9639712358784 L 232.8,33.47302463711054 L 248,29.47795293853676 L 263.20000000000005,28.058177126038483 L 278.40000000000003,30.663449214534513 L 293.59999999999997,34.633491133036514 L 308.8,35.914440137867636 L 324,33.19830211867998 L 339.2,29.25856182669347 L 354.4,28.118140610676367 L 369.6,30.941537781873958 L 384.8,34.84574483864317 L 400,35.844123892533474 L 415.2,32.91721677818611 L 430.40000000000003,29.053727380504323 L 445.6,28.198716243272614 L 460.79999999999995,31.225246640331715 L 476,35.04288802432036 L 491.2,35.75339586962151 L 506.40000000000003,32.63126114074284 L 521.6,28.864537243154842 L 536.8000000000001,28.299476178123804 L 552,31.513069334268593 L 567.1999999999999,35.223873886434895 L 582.4,35.64273782265363 L 597.6,32.34195359208168 L 612.8000000000001,28.691995988668005 L 628,28.41988539361347 L 643.1999999999999,31.80347756413574 L 658.4,35.387741414554895 L 673.6,35.51273733088199 L 688.8,32.050830316129044 L 704,28.53701978775209 L 719.2,28.559304533104417 L 734.4,32.09492930153861 L 749.6,35.53362049428506 L 764.8,35.364084679322644 L 780,31.759437138077505"
      stroke="url(#thread-1)"
      stroke-width="8"
      stroke-linecap="round"
      fill="none"
      opacity="0.9806451612903226"
      class="thread"
      style="animation-delay: 0.1s"
    >
      <title>2026-01-21: 4215 stars, Unknown, TypeScript, Python, Shell, JavaScript</title>
    </path>

    <path
      d="M 20,47.36588393923159 L 35.2,45.93680907774613 L 50.400000000000006,40.3811740891739 L 65.6,42.5357996947235 L 80.80000000000001,47.810046468536875 L 96,44.966618650640775 L 111.2,40.063715777787564 L 126.4,43.54744930957419 L 141.60000000000002,47.995386105406816 L 156.79999999999998,43.93076418581125 L 172,40.013655902681165 L 187.2,44.58984145726191 L 202.4,47.909312415238105 L 217.6,42.89961302679084 L 232.8,40.23439511573048 L 248,45.59216467841355 L 263.20000000000005,47.55767252919727 L 278.40000000000003,41.94321301360448 L 293.59999999999997,40.71093822932634 L 308.8,46.48632946351897 L 324,46.964353938723676 L 339.2,41.12653401467306 L 354.4,41.41091286479842 L 369.6,47.21159368832696 L 384.8,46.16966177788592 L 400,40.50505441390605 L 415.2,42.28676856278085 L 430.40000000000003,47.71868892894951 L 445.6,45.22758082754224 L 460.79999999999995,40.12099237037016 L 476,43.27900696623784 L 491.2,47.97316734911956 L 506.40000000000003,44.20210823798724 L 521.6,40.00043786742998 L 536.8000000000001,44.32022364436035 L 552,47.957741799896894 L 567.1999999999999,43.162906094430014 L 582.4,40.15158037610769 L 597.6,45.339686989408186 L 612.8000000000001,47.6734601648966 L 628,42.180569153874586 L 643.1999999999999,40.56415253048289 L 658.4,46.268143134302534 L 673.6,47.13963417578516 L 688.8,41.32182922402988 L 704,41.21012760720328 L 719.2,47.04252048479755 L 734.4,46.392527533727346 L 749.6,40.645021958890645 L 764.8,42.04562342814342 L 780,47.61021427941675"
      stroke="url(#thread-2)"
      stroke-width="8"
      stroke-linecap="round"
      fill="none"
      opacity="0.9612903225806452"
      class="thread"
      style="animation-delay: 0.2s"
    >
      <title>2026-01-20: 6510 stars, Python, Vue, TypeScript, Unknown, Shell, JavaScript</title>
    </path>

    <path
      d="M 20,59.98997994641622 L 35.2,57.90998041747898 L 50.400000000000006,53.592044736826466 L 65.6,52.09552548843349 L 80.80000000000001,55.173903753607135 L 96,59.2202242226276 L 111.2,59.493387575220815 L 126.4,55.67332658111694 L 141.60000000000002,52.23603090085214 L 156.79999999999998,53.2090016525545 L 172,57.45220284429989 L 187.2,59.99384876608491 L 202.4,57.855876794246576 L 217.6,53.54336222869101 L 232.8,52.109305698500165 L 248,55.23400032246607 L 263.20000000000005,59.2562216199348 L 278.40000000000003,59.46310742256767 L 293.59999999999997,55.61224832514165 L 308.8,52.215720320910314 L 324,53.25325678379777 L 339.2,57.50916966916773 L 354.4,59.99677889508941 L 369.6,57.80133697667565 L 384.8,53.49525711421172 L 400,52.12400035441392 L 415.2,55.29427692737249 L 430.40000000000003,59.291453694112796 L 445.6,59.43201332156618 L 460.79999999999995,55.551261204033665 L 476,52.19629917575019 L 491.2,53.29815749337037 L 506.40000000000003,57.56578178769541 L 521.6,59.99876964474947 L 536.8000000000001,57.74637378348332 L 552,53.44774069973103 L 567.1999999999999,52.1396060024295 L 582.4,55.35471940126858 L 597.6,59.32591216442261 L 612.8000000000001,59.40011258039052 L 628,55.49037955184625 L 643.1999999999999,52.17777203000324 L 658.4,53.34369322807426 L 673.6,57.62202589410428 L 688.8,59.99982054717103 L 704,57.69100013289447 L 719.2,53.40082415322688 L 734.4,52.156118974687395 L 749.6,55.41531353811168 L 764.8,59.359588931948615 L 780,59.36741269680277"
      stroke="url(#thread-3)"
      stroke-width="8"
      stroke-linecap="round"
      fill="none"
      opacity="0.9419354838709677"
      class="thread"
      style="animation-delay: 0.30000000000000004s"
    >
      <title>2026-01-19: 4551 stars, JavaScript, TypeScript, Shell, Python</title>
    </path>

    <path
      d="M 20,71.63718970730272 L 35.2,68.834517415703 L 50.400000000000006,65.35871598139462 L 65.6,64.01339764263216 L 80.80000000000001,65.88370809320385 L 96,69.46103834963893 L 111.2,71.85988212604238 L 126.4,71.14531077464933 L 141.60000000000002,67.8937038797758 L 156.79999999999998,64.72783637743429 L 172,64.20132504982836 L 187.2,66.73885859956492 L 202.4,70.29363997868816 L 217.6,71.99835102556308 L 232.8,70.47795670322495 L 248,66.95882054527654 L 263.20000000000005,64.27950896207767 L 278.40000000000003,64.6011784197624 L 293.59999999999997,67.66436748323956 L 308.8,70.99828070899412 L 324,71.91375414515491 L 339.2,69.67235880550798 L 354.4,66.08202403347718 L 369.6,64.03874567247853 L 384.8,65.19065015531454 L 400,68.60860111835348 L 415.2,71.5356490261174 L 430.40000000000003,71.61081109772509 L 445.6,68.77346094015768 L 460.79999999999995,65.31223033411771 L 476,64.0189785586568 L 491.2,65.93685395620845 L 506.40000000000003,69.51888123556385 L 521.6,71.8757654505171 L 536.8000000000001,71.10642290740003 L 552,67.8314121191365 L 567.1999999999999,64.69238580954455 L 582.4,64.22131041689862 L 597.6,66.79815952741292 L 612.8000000000001,70.34442381340754 L 628,71.99965507604055 L 643.1999999999999,70.42872911078935 L 658.4,66.89876872222418 L 673.6,64.25707124104093 L 688.8,64.6344532653648 L 704,67.72651511014813 L 719.2,71.03917229061379 L 734.4,71.90040616938431 L 749.6,69.61553786788879 L 764.8,66.0275624058204 L 780,64.03057258627209"
      stroke="url(#thread-4)"
      stroke-width="7.412"
      stroke-linecap="round"
      fill="none"
      opacity="0.9225806451612903"
      class="thread"
      style="animation-delay: 0.4s"
    >
      <title>2026-01-18: 3706 stars, JavaScript, Shell, Vue, TypeScript, Python, HTML</title>
    </path>

    <path
      d="M 20,82.39388857641583 L 35.2,76.80326407591593 L 50.400000000000006,77.58522234919253 L 65.6,83.18095655688424 L 80.80000000000001,82.43556361490688 L 96,76.83495863622072 L 111.2,77.54375441884045 L 126.4,83.14899102434323 L 141.60000000000002,82.47682266645161 L 156.79999999999998,76.86719377607916 L 172,77.50270600785237 L 187.2,83.1164876535983 L 202.4,82.51765868412804 L 217.6,76.89996398982626 L 232.8,77.46208412717354 L 248,83.08345199612748 L 263.20000000000005,82.55806469326699 L 278.40000000000003,76.93326368040798 L 293.59999999999997,77.42189571489908 L 308.8,83.0498896943218 L 324,82.5980337926436 L 339.2,76.96708716033724 L 354.4,77.38214763508905 L 369.6,83.01580648052156 L 384.8,82.63755915565578 L 400,77.0014286526653 L 415.2,77.34284667659607 L 430.40000000000003,82.98120817603726 L 445.6,82.67663403149027 L 460.79999999999995,77.03628229196849 L 476,77.30399955190569 L 491.2,82.94610069015529 L 506.40000000000003,82.71525174627574 L 521.6,77.07164212534992 L 536.8000000000001,77.26561289599013 L 552,82.91049001912879 L 567.1999999999999,82.75340570422259 L 582.4,77.10750211345636 L 597.6,77.22769326517476 L 612.8000000000001,82.87438224515331 L 628,82.7910893887494 L 643.1999999999999,77.14385613150961 L 658.4,77.1902471360187 L 673.6,82.83778353532817 L 688.8,82.8282963635961 L 704,77.18069797035255 L 719.2,77.1532809042082 L 734.4,82.80070014060304 L 749.6,82.86502027392324 L 764.8,77.21802133750988 L 780,77.1168008834646"
      stroke="url(#thread-5)"
      stroke-width="8"
      stroke-linecap="round"
      fill="none"
      opacity="0.9032258064516129"
      class="thread"
      style="animation-delay: 0.5s"
    >
      <title>2026-01-17: 6237 stars, JavaScript, TypeScript, Shell, Python</title>
    </path>

    <path
      d="M 20,92.56448003223947 L 35.2,88.14709191423707 L 50.400000000000006,90.43322944104321 L 65.6,95.44533041875741 L 80.80000000000001,94.46303435847273 L 96,89.19540015397507 L 111.2,88.80738066458719 L 126.4,93.9740759809156 L 141.60000000000002,95.70615290814534 L 156.79999999999998,90.99003784368512 L 172,88.03111684262865 L 187.2,91.97750202445229 L 202.4,95.96303056310754 L 217.6,93.05343562110727 L 232.8,88.3110088170282 L 248,89.98691498328452 L 263.20000000000005,95.16530985011413 L 278.40000000000003,94.83650462763676 L 293.59999999999997,89.57257479545412 L 308.8,88.5320281188823 L 324,93.52527148429226 L 339.2,95.86475403250802 L 354.4,91.48010063169177 L 369.6,88.00000001817199 L 384.8,91.47934454597284 L 400,95.86455734534691 L 415.2,93.5259764040674 L 430.40000000000003,88.53240818296209 L 445.6,89.57196874505718 L 460.79999999999995,94.83596690639047 L 476,95.16577601840146 L 491.2,89.98757397294621 L 506.40000000000003,88.31071407745922 L 521.6,93.0526999582753 L 536.8000000000001,95.96313392829877 L 552,91.97826457657148 L 567.1999999999999,88.03121184675953 L 582.4,90.98930000581768 L 597.6,95.70586596382581 L 612.8000000000001,93.97473917345883 L 628,88.80784013095725 L 643.1999999999999,89.19485648641913 L 658.4,94.46243346312774 L 673.6,95.4457177701754 L 688.8,90.43393110148516 L 704,88.14688709185901 L 719.2,92.56372508956903 L 734.4,95.99975962391281 L 749.6,92.47676720636919 L 764.8,88.12426598058033 L 780,90.51500435805137"
      stroke="url(#thread-6)"
      stroke-width="8"
      stroke-linecap="round"
      fill="none"
      opacity="0.8838709677419354"
      class="thread"
      style="animation-delay: 0.6000000000000001s"
    >
      <title>2026-01-16: 5731 stars, JavaScript, TypeScript, Shell, Python, C</title>
    </path>

    <path
      d="M 20,102.59686708924153 L 35.2,100.14562695063059 L 50.400000000000006,100.86734471343938 L 65.6,104.16789519861348 L 80.80000000000001,107.33023270070899 L 96,107.75108980484207 L 111.2,105.08401279290514 L 126.4,101.5245657606218 L 141.60000000000002,100.00292060394182 L 156.79999999999998,101.77171062047364 L 172,105.37485042693422 L 187.2,107.84619980482564 L 202.4,107.15131957680046 L 217.6,103.8622419986398 L 232.8,100.68656816560214 L 248,100.23854409170971 L 263.20000000000005,102.88698761246387 L 278.40000000000003,106.45167390582371 L 293.59999999999997,107.998118064458 L 308.8,106.25327200781166 L 324,102.65351021528356 L 339.2,100.16219209099249 L 354.4,100.83019528122978 L 369.6,104.10761297275023 L 384.8,107.29644260395331 L 400,107.77160817804044 L 415.2,105.14194870891319 L 430.40000000000003,101.57222580208757 L 445.6,100.00107055476484 L 460.79999999999995,101.72187345937934 L 476,105.31805259636941 L 491.2,107.82919783898299 L 506.40000000000003,107.1881096616145 L 521.6,103.92253817351217 L 536.8000000000001,100.72073402480974 L 552,100.21845396305035 L 567.1999999999999,102.82917988795455 L 582.4,106.40373647431056 L 597.6,107.9995134922638 L 612.8000000000001,106.30285156500665 L 628,102.71045952149102 L 643.1999999999999,100.17962991577707 L 658.4,100.793766635278 L 673.6,104.04730627662498 L 688.8,107.26190292457682 L 704,107.79126892006407 L 719.2,105.19962495563257 L 734.4,101.62043789846975 L 749.6,100.0001298276584 L 764.8,101.67255432461467 L 780,105.2609550520106"
      stroke="url(#thread-7)"
      stroke-width="7.494"
      stroke-linecap="round"
      fill="none"
      opacity="0.864516129032258"
      class="thread"
      style="animation-delay: 0.7000000000000001s"
    >
      <title>2026-01-15: 3747 stars, TypeScript, Shell, Python, JavaScript, C</title>
    </path>

    <path
      d="M 20,112.9727900187683 L 35.2,112.17125346543081 L 50.400000000000006,114.9289960015634 L 65.6,118.68236520087578 L 80.80000000000001,119.94215424710193 L 96,117.53723813395291 L 111.2,113.70327481271278 L 126.4,112.00439300171696 L 141.60000000000002,114.01990709296369 L 156.79999999999998,117.87615501592 L 172,119.98829184233963 L 187.2,118.39283308128046 L 202.4,114.57294899618971 L 217.6,112.0796799668644 L 232.8,113.2308185764324 L 248,116.95624343003931 L 263.20000000000005,119.79272533214707 L 278.40000000000003,119.1034141724967 L 293.59999999999997,115.52910734379364 L 308.8,112.3925517136846 L 324,112.60955191076268 L 339.2,115.97838022678256 L 354.4,119.36730671489015 L 369.6,119.62591776688092 L 384.8,116.51380339443472 L 400,112.9240471458814 L 415.2,112.19375797748361 L 430.40000000000003,115.00182725561308 L 445.6,118.73781781155445 L 460.79999999999995,119.92867836229401 L 476,117.46736120476434 L 491.2,113.64195582523777 L 506.40000000000003,112.008635308864 L 521.6,114.08576696145526 L 536.8000000000001,117.94240779935011 L 552,119.99334763274415 L 567.1999999999999,118.33199191513215 L 582.4,114.50277003416831 L 597.6,112.06540297080534 L 612.8000000000001,113.28571572642765 L 628,117.02928124129551 L 643.1999999999999,119.81600639960027 L 658.4,119.05529595182632 L 673.6,115.45432149198146 L 688.8,112.3606206491357 L 704,112.65015938750133 L 719.2,116.05377672508294 L 734.4,119.40740214720087 L 749.6,119.59343862018194 L 764.8,116.43894293084088 L 780,112.87639714439707"
      stroke="url(#thread-8)"
      stroke-width="8"
      stroke-linecap="round"
      fill="none"
      opacity="0.8451612903225807"
      class="thread"
      style="animation-delay: 0.8s"
    >
      <title>2026-01-14: 4003 stars, TypeScript, Shell, Python, C, HTML, Jupyter Notebook</title>
    </path>

    <path
      d="M 20,124.08987952933961 L 35.2,126.03253053578369 L 50.400000000000006,130.74033570392683 L 65.6,131.59677198732638 L 80.80000000000001,127.39817224077679 L 96,124.04540342746861 L 111.2,126.25057051571291 L 126.4,130.91445033473005 L 141.60000000000002,131.48225414407247 L 156.79999999999998,127.15596952474833 L 172,124.015916470229 L 187.2,126.4752413746917 L 202.4,131.07751829698265 L 217.6,131.35453748014203 L 232.8,126.91696594537889 L 248,124.0015304223125 L 263.20000000000005,126.70569154064746 L 278.40000000000003,131.22892151265157 L 293.59999999999997,131.2141060812092 L 308.8,126.6820674001862 L 324,124.002299811292 L 339.2,126.94104753614587 L 354.4,131.3680861167026 L 369.6,131.0614922257278 L 384.8,126.45216422733823 L 400,124.01822172094522 L 415.2,127.18041728914079 L 430.40000000000003,131.4944846322265 L 445.6,130.89727436743152 L 460.79999999999995,126.22812783099619 L 476,124.04923580230803 L 491.2,127.4228935142031 L 506.40000000000003,131.60763796973941 L 521.6,130.72207494281523 L 536.8000000000001,126.01080737842294 L 552,124.09522450241579 L 567.1999999999999,127.66755715141343 L 582.4,131.70711724308063 L 597.6,130.536558011908 L 612.8000000000001,125.80102658137658 L 628,124.15601350986537 L 643.1999999999999,127.9134808498835 L 658.4,131.7925453950235 L 673.6,130.3414267412801 L 688.8,125.59958057398768 L 704,124.23137241550937 L 719.2,128.15973248270313 L 734.4,131.8635986264392 L 749.6,130.13742073882423 L 764.8,125.40723289895524 L 780,124.32101558577801"
      stroke="url(#thread-9)"
      stroke-width="8"
      stroke-linecap="round"
      fill="none"
      opacity="0.8258064516129033"
      class="thread"
      style="animation-delay: 0.9s"
    >
      <title>2026-01-13: 5049 stars, TypeScript, Shell, C, Rust, Python</title>
    </path>

    <path
      d="M 20,136.16430290134744 L 35.2,138.58315558953643 L 50.400000000000006,142.12150603670977 L 65.6,143.98358120889276 L 80.80000000000001,142.6980911275074 L 96,139.2807459542903 L 111.2,136.4317082722599 L 126.4,136.40210126526068 L 141.60000000000002,139.2153184532452 L 156.79999999999998,142.64853966328107 L 172,143.9890581067131 L 187.2,142.17768381023404 L 202.4,138.64564623744235 L 217.6,136.1837304019833 L 232.8,136.73718113120017 L 248,139.86869786725416 L 263.20000000000005,143.10396095842893 L 278.40000000000003,143.88667717058595 L 293.59999999999997,141.5983953604951 L 308.8,138.0471661083066 L 324,136.0389384371486 L 339.2,137.16048246855905 L 354.4,140.52562748365472 L 369.6,143.4754560492755 L 384.8,143.67920661940238 L 400,140.97588882348774 L 415.2,137.50148752479458 L 430.40000000000003,136.00124732391157 L 445.6,137.66055987741254 L 460.79999999999995,141.16834496267003 L 476,143.7529802950187 L 491.2,143.3722561293465 L 506.40000000000003,140.3269957932634 L 521.6,137.0233647743783 L 536.8000000000001,136.07167617047375 L 552,138.22389205406375 L 567.1999999999999,141.7794722382825 L 582.4,143.92902987816248 L 597.6,142.97412515710735 L 612.8000000000001,139.66926131299556 L 628,136.62572554144876 L 643.1999999999999,136.24832069200534 L 658.4,138.83524738575076 L 673.6,142.3424853937051 L 688.8,143.9988446958963 L 704,142.4955785356716 L 719.2,139.02046948470934 L 734.4,136.319321363138 L 749.6,136.526404699501 L 764.8,139.47809578941042 L 780,142.84216144200622"
      stroke="url(#thread-10)"
      stroke-width="7.33"
      stroke-linecap="round"
      fill="none"
      opacity="0.8064516129032259"
      class="thread"
      style="animation-delay: 1s"
    >
      <title>2026-01-12: 3665 stars, TypeScript, Unknown, Python, Shell, C</title>
    </path>

    <path
      d="M 20,149.17783869771844 L 35.2,152.38324314529632 L 50.400000000000006,155.31103485180972 L 65.6,155.8403871543768 L 80.80000000000001,153.587849114584 L 96,150.18510878022522 L 111.2,148.09703495051068 L 126.4,148.8361814872033 L 141.60000000000002,151.86712721286514 L 156.79999999999998,154.99432300614626 L 172,155.9524983549102 L 187.2,154.047572521496 L 202.4,150.65943106583924 L 217.6,148.24236768676633 L 232.8,148.5472488987253 L 248,151.35322558806646 L 263.20000000000005,154.6277111589127 L 278.40000000000003,155.99874168691002 L 293.59999999999997,154.47317339993398 L 308.8,151.15609375754246 L 324,148.45032087443803 L 339.2,148.31585595611085 L 354.4,150.85010237431587 L 369.6,154.21730884863075 L 384.8,155.97834651129205 L 400,154.85755916688046 L 415.2,151.66682003648634 L 430.40000000000003,148.71742900083055 L 445.6,148.14585879250802 L 460.79999999999995,150.36614205421748 L 476,153.76995537616588 L 491.2,155.89165271099245 L 506.40000000000003,155.19432408376457 L 521.6,152.18309871597893 L 536.8000000000001,149.03924074392586 L 552,148.04009038843128 L 567.1999999999999,149.9094097632571 L 582.4,153.29310582867222 L 597.6,155.74010502686326 L 612.8000000000001,155.47785600725814 L 628,152.69632607929893 L 643.1999999999999,149.4103931530828 L 658.4,148.00031336051174 L 673.6,149.48751688537328 L 688.8,152.7947068415394 L 704,155.52622898125477 L 719.2,155.70342991491086 L 734.4,153.19794925951007 L 749.6,149.82470102190854 L 764.8,148.02719058772126 L 780,149.10749421023897"
      stroke="url(#thread-11)"
      stroke-width="6.996"
      stroke-linecap="round"
      fill="none"
      opacity="0.7870967741935484"
      class="thread"
      style="animation-delay: 1.1s"
    >
      <title>2026-01-11: 3498 stars, TypeScript, Unknown, Shell, Python</title>
    </path>

    <path
      d="M 20,162.88233800720428 L 35.2,166.53824641836985 L 50.400000000000006,167.9847771064034 L 65.6,165.9628195866655 L 80.80000000000001,162.23235581713212 L 96,160.0405108561541 L 111.2,161.29514258320953 L 126.4,164.90417602542357 L 141.60000000000002,167.72618329322708 L 156.79999999999998,167.3047913777276 L 172,164.0067944184045 L 187.2,160.70288336163367 L 202.4,160.26889698934355 L 217.6,163.08259209305027 L 232.8,166.69483085980355 L 248,167.9613953743767 L 263.20000000000005,165.77982395174368 L 278.40000000000003,162.04903202726328 L 293.59999999999997,160.01643029673448 L 308.8,161.45126580840645 L 324,165.10460796479893 L 339.2,167.79646103464785 L 354.4,167.18374273743598 L 369.6,163.7997843315542 L 384.8,160.59010058808687 L 400,160.34851156713282 L 415.2,163.28530473218893 L 430.40000000000003,166.84419344797718 L 445.6,167.927397534109 L 460.79999999999995,165.5920585824389 L 476,161.87093661911754 L 491.2,160.00302527034273 L 506.40000000000003,161.61421936370138 L 521.6,165.30207967511112 L 536.8000000000001,167.8565646738981 L 552,167.05416201329055 L 567.1999999999999,163.59331080089353 L 582.4,160.48645597365496 L 597.6,160.43791173630606 L 612.8000000000001,163.48993267682107 L 628,166.9859339074187 L 643.1999999999999,167.8828746961101 L 658.4,165.40002666949485 L 673.6,161.6985468689957 L 688.8,160.00033170098988 L 704,161.78356655131032 L 719.2,165.49606195367932 L 734.4,167.90633313976943 L 749.6,166.91639646752182 L 764.8,163.38792715300153 L 780,160.39222727461853"
      stroke="url(#thread-12)"
      stroke-width="7.724"
      stroke-linecap="round"
      fill="none"
      opacity="0.767741935483871"
      class="thread"
      style="animation-delay: 1.2000000000000002s"
    >
      <title>2026-01-10: 3862 stars, TypeScript, Unknown, Shell, Python</title>
    </path>

    <path
      d="M 20,176.86047995235126 L 35.2,179.7278028650927 L 50.400000000000006,179.2742291812844 L 65.6,175.90382299909746 L 80.80000000000001,172.61909567025185 L 96,172.3462319211725 L 111.2,175.32831120869568 L 126.4,178.90876146746058 L 141.60000000000002,179.89795451466026 L 156.79999999999998,177.41467212533516 L 172,173.67113536734388 L 187.2,172.00225730572134 L 202.4,173.89475053645697 L 217.6,177.6626958850702 L 232.8,179.94943600216976 L 248,178.71783862864922 L 263.20000000000005,175.0650668050607 L 278.40000000000003,172.2451760584596 L 293.59999999999997,172.770253514139 L 308.8,176.17253625689239 L 324,179.4211158428451 L 339.2,179.62200960149903 L 354.4,176.59625222177803 L 369.6,173.03932620314384 L 384.8,172.11990326374755 L 400,174.65704723843461 L 415.2,178.39055470566885 L 430.40000000000003,179.99444714946372 L 445.6,178.0399041223362 L 460.79999999999995,174.26812158380935 L 476,172.03917522683645 L 491.2,173.3387119964523 L 506.40000000000003,177.0090453433707 L 521.6,179.78047513561282 L 536.8000000000001,179.18408547346286 L 552,175.75116743397788 L 567.1999999999999,172.53992077882265 L 582.4,172.41107030319682 L 597.6,175.4794018800274 L 612.8000000000001,179.0115059757796 L 628,179.86082337186357 L 643.1999999999999,177.27074344477856 L 658.4,173.5486273737307 L 673.6,172.01030570009678 L 688.8,174.02618544250075 L 704,177.80042910151616 L 719.2,179.9707685059525 L 734.4,178.60376645368692 L 749.6,174.9172106408862 L 764.8,172.1952529110831 L 780,172.8627371972817"
      stroke="url(#thread-13)"
      stroke-width="7.822"
      stroke-linecap="round"
      fill="none"
      opacity="0.7483870967741935"
      class="thread"
      style="animation-delay: 1.3s"
    >
      <title>2026-01-09: 3911 stars, TypeScript, Unknown, Python, Shell</title>
    </path>

    <path
      d="M 20,190.62794639487515 L 35.2,191.98251975178417 L 50.400000000000006,190.02133701643092 L 65.6,186.37723468633027 L 80.80000000000001,184.08421014377902 L 96,185.05138388799503 L 111.2,188.47350888078753 L 126.4,191.50140106267983 L 141.60000000000002,191.61410571792317 L 156.79999999999998,188.71778749338918 L 172,185.22385559648396 L 187.2,184.04127889495075 L 202.4,186.15464406935018 L 217.6,189.80441095693715 L 232.8,191.95186599265477 L 248,190.80908656435528 L 263.20000000000005,187.32752504080557 L 278.40000000000003,184.40585099599187 L 293.59999999999997,184.4765843212105 L 308.8,187.4808340457602 L 324,190.91732963045774 L 339.2,191.92492238523363 L 354.4,189.6647133156332 L 369.6,186.01850149847377 L 384.8,184.02204062738326 L 400,185.3375389797509 L 415.2,188.86974230749166 L 430.40000000000003,191.67781781302347 L 445.6,191.42382518586112 L 460.79999999999995,188.31923295683268 L 476,184.9488545704362 L 491.2,184.11879102916313 L 506.40000000000003,186.5201345096958 L 521.6,190.15358060893024 L 536.8000000000001,191.99400408196445 L 552,190.50910986853626 L 567.1999999999999,186.93518738876298 L 582.4,184.24780386494726 L 597.6,184.68441418663355 L 612.8000000000001,187.88150645072903 L 628,191.17725377051207 L 643.1999999999999,191.8276912857376 L 658.4,189.29127939631226 L 673.6,185.67977741518885 L 688.8,184.00004040963034 L 704,185.6505795124651 L 719.2,189.25719310591344 L 734.4,191.81709608399942 L 749.6,191.1989709833543 L 764.8,187.91745481672 L 780,184.70466390731136"
      stroke="url(#thread-14)"
      stroke-width="7.54"
      stroke-linecap="round"
      fill="none"
      opacity="0.7290322580645161"
      class="thread"
      style="animation-delay: 1.4000000000000001s"
    >
      <title>2026-01-08: 3770 stars, TypeScript, Unknown, Python, Rust, JavaScript</title>
    </path>

    <path
      d="M 20,203.75199990709896 L 35.2,203.42723204112076 L 50.400000000000006,200.53168643051373 L 65.6,197.2373211233451 L 80.80000000000001,196.01525010102395 L 96,197.78215275637936 L 111.2,201.21266974145547 L 126.4,203.73355926462818 L 141.60000000000002,203.4538940104768 L 156.79999999999998,200.58345178298194 L 172,197.2753605020359 L 187.2,196.01103004599517 L 202.4,197.73883874444113 L 217.6,201.16275175186374 L 232.8,203.71448094145475 L 248,203.47996606511518 L 263.20000000000005,200.63511748363896 L 278.40000000000003,197.31386524096513 L 293.59999999999997,196.00749129504726 L 308.8,197.6959109320503 L 324,201.112635167767 L 339.2,203.6947681960989 L 354.4,203.50544375200727 L 369.6,200.68667470813836 L 384.8,197.3528287636391 L 400,196.00463445258825 L 415.2,197.6533766511483 L 430.40000000000003,201.06232854892718 L 445.6,203.6744243954383 L 460.79999999999995,203.5303227196407 L 476,200.73811465066115 L 491.2,197.3922444152052 L 506.40000000000003,196.0024600065583 L 521.6,197.61124316646243 L 536.8000000000001,201.01184048756363 L 552,203.65345301413296 L 567.1999999999999,203.5545987187626 L 582.4,200.78942852541968 L 597.6,197.43210546358867 L 612.8000000000001,196.0009683283462 L 628,197.56951767426526 L 643.1999999999999,200.96117960688542 L 658.4,203.6318576340318 L 673.6,203.57826760310527 L 688.8,200.84060756815842 L 704,197.47240510064213 L 719.2,196.00015967272614 L 734.4,197.52820730114547 L 749.6,200.91035455961884 L 764.8,203.60964194356086 L 780,203.60132533009437"
      stroke="url(#thread-15)"
      stroke-width="7.128"
      stroke-linecap="round"
      fill="none"
      opacity="0.7096774193548387"
      class="thread"
      style="animation-delay: 1.5s"
    >
      <title>2026-01-07: 3564 stars, TypeScript, Python, Unknown, Shell, Rust</title>
    </path>

    <path
      d="M 20,215.95743298649353 L 35.2,213.42096063668842 L 50.400000000000006,209.42791719760405 L 65.6,208.0714150901173 L 80.80000000000001,210.74195149007983 L 96,214.70206413948097 L 111.2,215.8923966800407 L 126.4,213.09278585006004 L 141.60000000000002,209.1730030498829 L 156.79999999999998,208.15106408908025 L 172,211.07451856676153 L 187.2,214.9466478103121 L 202.4,215.79828380445696 L 217.6,212.756447850397 L 232.8,208.93920683515003 L 248,208.25946500114296 L 263.20000000000005,211.41399907675566 L 278.40000000000003,215.16921974498072 L 293.59999999999997,215.67579739177063 L 308.8,212.4144591141765 L 324,208.72827503310913 L 339.2,208.39580806130132 L 354.4,211.75785706873737 L 369.6,215.36811731021044 L 384.8,215.52585242699968 L 400,212.06937432940913 L 415.2,208.54178332415142 L 430.40000000000003,208.55907477407814 L 445.6,212.1035238911799 L 460.79999999999995,215.5418547224903 L 476,215.34956901312748 L 491.2,211.723771311879 L 506.40000000000003,208.3811248188753 L 521.6,208.74804552177997 L 536.8000000000001,212.44841738042285 L 552,215.68913414701723 L 567.1999999999999,215.1482640038284 L 582.4,211.38023174861792 L 597.6,208.24749965141896 L 612.8000000000001,208.96130867515603 L 628,212.7899611496775 L 643.1999999999999,215.808855392644 L 658.4,214.92344116644696 L 673.6,211.04132191246018 L 688.8,208.14190601434564 L 704,209.19727113840133 L 719.2,213.12560383487852 L 734.4,215.9001241304106 L 749.6,214.67677994871434 L 764.8,210.70957349174333 L 780,208.06513270205127"
      stroke="url(#thread-16)"
      stroke-width="8"
      stroke-linecap="round"
      fill="none"
      opacity="0.6903225806451614"
      class="thread"
      style="animation-delay: 1.6s"
    >
      <title>2026-01-06: 4224 stars, TypeScript, Python, Rust, JavaScript, Go</title>
    </path>

    <path
      d="M 20,227.19394845049396 L 35.2,223.9151326921946 L 50.400000000000006,220.70676782778114 L 65.6,220.23221361797965 L 80.80000000000001,222.8854117246901 L 96,226.46386293935097 L 111.2,227.9969877382423 L 126.4,226.21209331050923 L 141.60000000000002,222.59087397611418 L 156.79999999999998,220.1394123558236 L 172,220.89274015905 L 187.2,224.2254974150482 L 202.4,227.37106251343099 L 217.6,227.71820766003387 L 232.8,224.97875727207057 L 248,221.42681115992556 L 263.20000000000005,220.01094616792352 L 278.40000000000003,221.90651422942645 L 293.59999999999997,225.53994752653358 L 308.8,227.89502426223729 L 324,227.01672470643524 L 339.2,223.63415162444352 L 354.4,220.5552802357323 L 369.6,220.3359738886691 L 384.8,223.1582853499197 L 400,226.6793293505716 L 415.2,227.97618181453265 L 430.40000000000003,225.97228667225374 L 445.6,222.3311372956572 L 460.79999999999995,220.07536083042234 L 476,221.07754487820836 L 491.2,224.50574644670755 L 506.40000000000003,227.51411274328007 L 521.6,227.6053088080878 L 536.8000000000001,224.7036300565184 L 552,221.21784692213558 L 567.1999999999999,220.04161237991974 L 582.4,222.15135395021363 L 597.6,225.7957119712229 L 612.8000000000001,227.94939570544608 L 628,226.82456778479474 L 643.1999999999999,223.35498155348262 L 658.4,220.4208444521729 L 673.6,220.45787156263836 L 688.8,223.43532557156294 L 704,226.88153273487205 L 719.2,227.93569327642754 L 734.4,225.72271695980854 L 749.6,222.0796617014937 L 764.8,220.03073677665574 L 780,221.27681612830852"
      stroke="url(#thread-17)"
      stroke-width="7.528"
      stroke-linecap="round"
      fill="none"
      opacity="0.6709677419354839"
      class="thread"
      style="animation-delay: 1.7000000000000002s"
    >
      <title>2026-01-05: 3764 stars, Go, TypeScript, Python, Rust, JavaScript</title>
    </path>

    <path
      d="M 20,237.64847394096702 L 35.2,233.88489456065045 L 50.400000000000006,232.00200985106437 L 65.6,233.67403007758801 L 80.80000000000001,237.41423998202433 L 96,239.89694586427578 L 111.2,238.91459266118792 L 126.4,235.340662327585 L 141.60000000000002,232.3529972570056 L 156.79999999999998,232.6081485941975 L 172,235.879242656573 L 187.2,239.25771088952627 L 202.4,239.73951052396424 L 217.6,236.89623832854443 L 232.8,233.25605520053477 L 248,232.05571373012108 L 263.20000000000005,234.36252515600842 L 278.40000000000003,238.12533501831282 L 293.59999999999997,239.99835434436528 L 308.8,238.31614490156147 L 324,234.57448192421148 L 339.2,232.1003511456298 L 354.4,233.0936828782266 L 369.6,236.67123335504496 L 384.8,239.65194124890544 L 400,239.38544154882703 L 415.2,236.10869859538786 L 430.40000000000003,232.735303784666 L 445.6,232.26478873563624 L 460.79999999999995,235.11552273086298 L 476,238.7527100420813 L 491.2,239.94226187854017 L 506.40000000000003,237.62646085283885 L 521.6,233.86445473438977 L 536.8000000000001,232.0013178285186 L 552,233.6937011865274 L 567.1999999999999,237.43678320329613 L 582.4,239.9023163739586 L 597.6,238.89801514701995 L 612.8000000000001,235.31687706774323 L 628,232.34315346258566 L 643.1999999999999,232.62099910151713 L 658.4,235.90336114135417 L 673.6,239.27165184605084 L 688.8,239.730878029952 L 704,236.8727081646831 L 719.2,233.23854975345915 L 734.4,232.05979837090507 L 749.6,234.38456793230984 L 764.8,238.1457360883711 L 780,239.99897362730218"
      stroke="url(#thread-18)"
      stroke-width="7.814"
      stroke-linecap="round"
      fill="none"
      opacity="0.6516129032258065"
      class="thread"
      style="animation-delay: 1.8s"
    >
      <title>2026-01-04: 3907 stars, Python, Jupyter Notebook, TypeScript, Go, Rust</title>
    </path>

    <path
      d="M 20,247.69939551815276 L 35.2,244.52457824243078 L 50.400000000000006,244.41535146306234 L 65.6,247.46806163815717 L 80.80000000000001,250.9899825452041 L 96,251.8745078455516 L 111.2,249.34141788711744 L 126.4,245.62509371619393 L 141.60000000000002,244.00362036949335 L 156.79999999999998,245.90726261154677 L 172,249.65686091215153 L 187.2,251.94497988150414 L 202.4,250.75332181179496 L 217.6,247.1330211863273 L 232.8,244.27746285607788 L 248,244.7054698847311 L 263.20000000000005,248.0395070057961 L 278.40000000000003,251.3386958954935 L 293.59999999999997,251.69289706243515 L 308.8,248.78967771229654 L 324,245.18990161052741 L 339.2,244.06884939250665 L 354.4,246.41537572543996 L 369.6,250.1596630943691 L 384.8,251.9989607615436 L 400,250.31086608297494 L 415.2,246.5844089849719 L 430.40000000000003,244.10661252878657 L 445.6,245.06308461982985 L 460.79999999999995,248.61014297811838 L 476,251.61900809092157 L 491.2,251.43562846807708 L 506.40000000000003,248.22175910458444 L 521.6,244.81228107805305 L 536.8000000000001,244.21461741934152 L 552,246.95595365008379 L 567.1999999999999,250.6182194229989 L 582.4,251.9710133848934 L 597.6,249.82106674642512 L 612.8000000000001,246.0647985445645 L 628,244.0155275373298 L 643.1999999999999,245.4808690768864 L 658.4,249.16827871512714 L 673.6,251.8251762670619 L 688.8,251.10797282373102 L 704,247.64929723227763 L 719.2,244.499968576756 L 734.4,244.4379380440211 L 749.6,247.51792135633644 L 764.8,251.02313527707835 L 780,251.86171032027445"
      stroke="url(#thread-19)"
      stroke-width="7.78"
      stroke-linecap="round"
      fill="none"
      opacity="0.6322580645161291"
      class="thread"
      style="animation-delay: 1.9000000000000001s"
    >
      <title>2026-01-03: 3890 stars, Go, Python, Jupyter Notebook, TypeScript, Rust, JavaScript</title>
    </path>

    <path
      d="M 20,257.8239155564425 L 35.2,256.221810956788 L 50.400000000000006,256.2111990713053 L 65.6,257.7965499617718 L 80.80000000000001,260.31006369474676 L 96,262.69296879340646 L 111.2,263.9415102683352 L 126.4,263.529762963866 L 141.60000000000002,261.6311678665794 L 156.79999999999998,259.0454732765037 L 172,256.86185553026826 L 187.2,256.00012348177734 L 202.4,256.82326592303053 L 217.6,258.98454922503333 L 232.8,261.5735725081425 L 248,263.4997572849494 L 263.20000000000005,263.95173360985956 L 278.40000000000003,262.7391147605979 L 293.59999999999997,260.3726941468098 L 308.8,257.84928297154414 L 324,256.2318218273344 L 339.2,256.2016365020181 L 354.4,257.771442009261 L 369.6,260.27998662267515 L 384.8,262.6705920157493 L 400,263.9362595915307 L 415.2,263.54385013904226 L 430.40000000000003,261.65865893003064 L 445.6,259.07478812287064 L 460.79999999999995,256.8806458191486 L 476,256.0004741492321 L 491.2,256.8050292568376 L 506.40000000000003,258.95540708574674 L 521.6,261.54580048648035 L 536.8000000000001,263.485053834755 L 552,263.9562922893667 L 567.1999999999999,262.7610153098251 L 582.4,260.40271136179496 L 597.6,257.87477265200977 L 612.8000000000001,256.2420469137306 L 628,256.1922898645758 L 643.1999999999999,257.74646074726803 L 658.4,260.2498936337414 L 673.6,262.64806341853597 L 688.8,263.9307851436743 L 704,263.5577358511152 L 719.2,261.6860557009575 L 734.4,259.10415556628567 L 749.6,256.89961343910926 L 764.8,256.00105218434027 L 780,256.7869742204247"
      stroke="url(#thread-20)"
      stroke-width="5.26"
      stroke-linecap="round"
      fill="none"
      opacity="0.6129032258064516"
      class="thread"
      style="animation-delay: 2s"
    >
      <title>2026-01-02: 2630 stars, TypeScript, Rust, Python, JavaScript, Jupyter Notebook, Shell</title>
    </path>

    <path
      d="M 20,268.48121696011333 L 35.2,268.3705576512628 L 50.400000000000006,271.17573556803166 L 65.6,274.6431146395657 L 80.80000000000001,275.98705674279887 L 96,274.1278598086109 L 111.2,270.5591735797367 L 126.4,268.14802476520424 L 141.60000000000002,268.831492616973 L 156.79999999999998,272.0604897510279 L 172,275.24089036504796 L 187.2,275.81761034095405 L 202.4,273.3273218688719 L 217.6,269.77068376404736 L 232.8,268.005043461056 L 248,269.4488887681715 L 263.20000000000005,272.9422569445645 L 278.40000000000003,275.678630626744 L 293.59999999999997,275.4596499899616 L 308.8,272.4612406533808 L 324,269.0922777887726 L 339.2,268.0593334775951 L 354.4,270.1922590262263 L 369.6,273.77749540366585 L 384.8,275.93471977034034 L 400,274.93085180481927 L 415.2,271.57238333207727 L 430.40000000000003,268.5574554032588 L 445.6,268.30821396882027 L 460.79999999999995,271.0248956995426 L 476,274.5249609765346 L 491.2,275.99651209041355 L 506.40000000000003,274.25732788846074 L 521.6,270.7046417610971 L 536.8000000000001,268.1926261860071 L 552,268.73939519322397 L 567.1999999999999,271.905683112744 L 582.4,275.1477437445545 L 597.6,275.86095627652503 L 612.8000000000001,273.472336913715 L 628,269.9008650988864 L 643.1999999999999,268.01580543726186 L 658.4,269.3315853823566 L 673.6,272.79112790249775 L 688.8,275.6150906374602 L 704,275.5347460872105 L 719.2,272.61464180698835 L 734.4,269.2007439108234 L 749.6,268.0357245818309 L 764.8,270.0555421303072 L 780,273.63750672378933"
      stroke="url(#thread-21)"
      stroke-width="7.396"
      stroke-linecap="round"
      fill="none"
      opacity="0.5935483870967743"
      class="thread"
      style="animation-delay: 2.1s"
    >
      <title>2026-01-01: 3698 stars, Rust, Python, JavaScript, TypeScript, Jupyter Notebook, Go, Shell</title>
    </path>

    <path
      d="M 20,280.0000391737972 L 35.2,281.62501956507117 L 50.400000000000006,285.1628070806517 L 65.6,287.76407081045573 L 80.80000000000001,287.3337552662815 L 96,284.2184362036556 L 111.2,280.92718881740484 L 126.4,280.1107808173122 L 141.60000000000002,282.42674647858746 L 156.79999999999998,286.0098091229957 L 172,287.974173292072 L 187.2,286.73774183584374 L 202.4,283.2963355465192 L 217.6,280.4216599805068 L 232.8,280.42897627506443 L 248,283.3123918930799 L 263.20000000000005,286.7496064672065 L 278.40000000000003,287.972290444718 L 293.59999999999997,285.99569524050474 L 308.8,282.4117688693311 L 324,280.1070024344287 L 339.2,280.937652767099 L 354.4,284.2347148301754 L 369.6,287.34273777834505 L 384.8,287.75852270085755 L 400,285.14719679191444 L 415.2,281.6119196098227 L 430.40000000000003,280.0000002443122 L 445.6,281.60967711487075 L 460.79999999999995,285.14451790544496 L 476,287.7575649956441 L 491.2,287.3442725893124 L 506.40000000000003,284.2375060219392 L 521.6,280.9394523163018 L 536.8000000000001,280.1063609857474 L 552,282.4092030449616 L 567.1999999999999,285.993271553106 L 582.4,287.9719609299596 L 597.6,286.751636515981 L 612.8000000000001,283.3151465059147 L 628,280.43023688923887 L 643.1999999999999,280.42041129848906 L 658.4,283.29358325569274 L 673.6,286.73570262878576 L 688.8,287.97448954432843 L 704,286.01222612528125 L 719.2,282.42931757941676 L 734.4,280.1114352543703 L 749.6,280.92539950766866 L 764.8,284.21564425559103 L 780,287.3322093123699"
      stroke="url(#thread-22)"
      stroke-width="7.406"
      stroke-linecap="round"
      fill="none"
      opacity="0.5741935483870968"
      class="thread"
      style="animation-delay: 2.2s"
    >
      <title>2025-12-31: 3703 stars, Go, Python, TypeScript, Rust, Shell</title>
    </path>

    <path
      d="M 20,292.49819130124627 L 35.2,296.07242472084477 L 50.400000000000006,299.56950762481165 L 65.6,299.26416850225394 L 80.80000000000001,295.48167019813735 L 96,292.251323300536 L 111.2,293.01425848847543 L 126.4,296.957758191816 L 141.60000000000002,299.8810049002249 L 156.79999999999998,298.6700067578629 L 172,294.6147809028333 L 187.2,292.0351612546702 L 202.4,293.6790905554061 L 217.6,297.7953712617952 L 232.8,299.9991307049752 L 248,297.9428116505358 L 263.20000000000005,293.8169102923533 L 278.40000000000003,292.0165477094727 L 293.59999999999997,294.45956217552333 L 308.8,298.54352977291535 L 324,299.9179994086201 L 339.2,297.1188157517272 L 354.4,293.12781235240845 L 369.6,292.1964100867587 L 384.8,295.31678626961104 L 400,299.16495664995915 L 415.2,299.64165338639395 L 430.40000000000003,296.23907474234176 L 445.6,292.58182145914685 L 460.79999999999995,292.5657867249723 L 476,296.20805155849723 L 491.2,299.62868923448826 L 506.40000000000003,299.1838616074435 L 521.6,295.3474218091856 L 536.8000000000001,292.20614166531095 L 552,293.10627339490065 L 567.1999999999999,297.08895065695737 L 582.4,299.91162200250295 L 597.6,298.5674335945159 L 612.8000000000001,294.48828365189934 L 628,292.0194912554944 L 643.1999999999999,293.7909402922985 L 658.4,297.91559267627724 L 673.6,299.99965779956614 L 688.8,297.8230829371277 L 704,293.70446691805176 L 719.2,292.0311701056763 L 734.4,294.5856738181708 L 749.6,298.64679009232395 L 764.8,299.88841023298147 L 780,296.9878969837901"
      stroke="url(#thread-23)"
      stroke-width="8"
      stroke-linecap="round"
      fill="none"
      opacity="0.5548387096774193"
      class="thread"
      style="animation-delay: 2.3000000000000003s"
    >
      <title>2025-12-30: 4315 stars, Go, Shell, Rust, Python, Swift, TypeScript</title>
    </path>

    <path
      d="M 20,305.8537083279983 L 35.2,309.0185802294426 L 50.400000000000006,311.5303391477994 L 65.6,311.77844689221587 L 80.80000000000001,309.60381693774383 L 96,306.4008206020497 L 111.2,304.22321706006716 L 126.4,304.4672842918475 L 141.60000000000002,306.97652654652654 L 156.79999999999998,310.14201931637103 L 172,311.93405068856805 L 187.2,311.2035713084854 L 202.4,308.4189640812879 L 217.6,305.36571735665365 L 232.8,304.00157095594113 L 248,305.20121466733235 L 263.20000000000005,308.1954377204418 L 278.40000000000003,311.064346233846 L 293.59999999999997,311.9683979277774 L 308.8,310.32791544190485 L 324,307.1947750831516 L 339.2,304.5779444193029 L 354.4,304.1553335763353 L 369.6,306.1979203529115 L 384.8,309.39599943146914 L 400,311.69896457916406 L 415.2,311.63015603559546 L 430.40000000000003,309.23369379431216 L 445.6,306.04618789153864 L 460.79999999999995,304.1114650466575 L 476,304.67006829412315 L 491.2,307.3638215936307 L 506.40000000000003,310.4654920750642 L 521.6,311.9862906355837 L 536.8000000000001,310.9510822236481 L 552,308.02364180218467 L 567.1999999999999,305.0810422724801 L 582.4,304.01007654620236 L 597.6,305.49744715306446 L 612.8000000000001,308.5894530237494 L 628,311.3035019975666 L 643.1999999999999,311.8993476311843 L 658.4,309.9949340904295 L 673.6,306.81137010359106 L 688.8,304.3899548361083 L 704,304.2832981884355 L 719.2,306.5597883339478 L 734.4,309.75974126648833 L 749.6,311.83134923925337 L 764.8,311.44629856248974 L 780,308.85148348062876"
      stroke="url(#thread-24)"
      stroke-width="6.556"
      stroke-linecap="round"
      fill="none"
      opacity="0.535483870967742"
      class="thread"
      style="animation-delay: 2.4000000000000004s"
    >
      <title>2025-12-29: 3278 stars, Shell, Go, JavaScript, TypeScript, Rust, Python</title>
    </path>

    <path
      d="M 20,319.7347124105952 L 35.2,323.1017733292148 L 50.400000000000006,323.8546478327089 L 65.6,321.35881041246256 L 80.80000000000001,317.7177623839704 L 96,316.0001929397187 L 111.2,317.65367617092386 L 126.4,321.28465009162716 L 141.60000000000002,323.8329160058845 L 156.79999999999998,323.150785663096 L 172,319.8131611228889 L 187.2,316.63300510230596 L 202.4,316.29056524829303 L 217.6,319.07445117842803 L 232.8,322.6383931923199 L 248,323.9786873412441 L 263.20000000000005,321.9657285946239 L 278.40000000000003,318.2960462765265 L 293.59999999999997,316.06246266814185 L 308.8,317.1474505701386 L 324,320.6365780324897 L 339.2,323.5891950964091 L 354.4,323.51682481715517 L 369.6,320.4804611426422 L 384.8,317.0391629810535 L 400,316.0932695737154 L 415.2,318.4399834990143 L 430.40000000000003,322.10148529286477 L 445.6,323.9918472511735 L 460.79999999999995,322.5178650915595 L 476,318.9218166108904 L 491.2,316.23446521078387 L 506.40000000000003,316.72072092082135 L 521.6,319.97076557038264 L 536.8000000000001,323.2454491089433 L 552,323.7848557361739 L 567.1999999999999,321.1343714853305 L 582.4,317.52783461170975 L 597.6,316.0048481745897 L 612.8000000000001,317.8489909631875 L 628,321.50601238797844 L 643.1999999999999,323.89376081703426 L 658.4,322.99983274969196 L 673.6,319.5776341772066 L 688.8,316.51140713422024 L 704,316.38537948998675 L 719.2,319.3057678246741 L 734.4,322.81125768969775 L 749.6,323.94740883077117 L 764.8,321.75666872445595 L 780,318.08540150415234"
      stroke="url(#thread-25)"
      stroke-width="7.59"
      stroke-linecap="round"
      fill="none"
      opacity="0.5161290322580645"
      class="thread"
      style="animation-delay: 2.5s"
    >
      <title>2025-12-28: 3795 stars, Shell, Rust, Python, JavaScript, TypeScript</title>
    </path>

    <path
      d="M 20,333.68066814730656 L 35.2,335.9070675099635 L 50.400000000000006,332.00667876665904 L 65.6,328.09581685184554 L 80.80000000000001,330.30721998994153 L 96,335.1731215223415 L 111.2,335.06315735693227 L 126.4,330.14976555345896 L 141.60000000000002,328.1377811025332 L 156.79999999999998,332.1822563220061 L 172,335.9409300130806 L 187.2,333.519714805641 L 202.4,328.7153898689964 L 217.6,329.0617592144532 L 232.8,334.0156708282306 L 248,335.808749406888 L 263.20000000000005,331.62921540457495 L 278.40000000000003,328.03111969154935 L 293.59999999999997,330.65674256178085 L 308.8,335.3887671449948 L 324,334.80676575223555 L 339.2,329.82339197899825 L 354.4,328.253221612256 L 369.6,332.55848523869753 L 384.8,335.9879716462706 L 400,333.1638017791636 L 415.2,328.51463992507587 L 430.40000000000003,329.33097427692326 L 445.6,334.3326867961432 L 460.79999999999995,335.67644416585586 L 476,331.2550607157194 L 491.2,328.0018385873299 L 506.40000000000003,331.0182516076532 L 521.6,335.57417331523055 L 536.8000000000001,334.525328148277 L 552,329.5164412305584 L 567.1999999999999,328.40209626540843 L 582.4,332.9297305471683 L 597.6,335.9994268630206 L 612.8000000000001,332.7975036400423 L 628,328.34499137456305 L 643.1999999999999,329.6240062240893 L 658.4,334.62888717881225 L 673.6,335.5113324044397 L 688.8,330.88755344613975 L 704,328.0082348272959 L 719.2,331.3885212241184 L 734.4,335.7276855726439 L 749.6,334.22135593597545 L 764.8,329.2316523640129 L 780,328.5830765883014"
      stroke="url(#thread-26)"
      stroke-width="8"
      stroke-linecap="round"
      fill="none"
      opacity="0.4967741935483871"
      class="thread"
      style="animation-delay: 2.6s"
    >
      <title>2025-12-27: 5384 stars, Shell, Python, Rust, C, Go</title>
    </path>

    <path
      d="M 20,347.21513770620646 L 35.2,347.7986604198832 L 50.400000000000006,345.1681899919608 L 65.6,341.54933044597067 L 80.80000000000001,340.0039479335551 L 96,341.8395688579831 L 111.2,345.5031001786643 L 126.4,347.8948795838341 L 141.60000000000002,346.9912561663998 L 156.79999999999998,343.55677298765244 L 172,340.49729794872195 L 187.2,340.40140983926466 L 202.4,343.35023823973575 L 217.6,346.8488209246993 L 232.8,347.93705630256943 L 248,345.69420372945683 L 263.20000000000005,342.01790921495757 L 278.40000000000003,340.0186338295726 L 293.59999999999997,341.3879363510125 L 308.8,344.9672691792742 L 324,347.72820916252266 L 339.2,347.33476382191435 L 354.4,344.1198217251376 L 369.6,340.80350015237747 L 384.8,340.1916921322389 L 400,342.80203982362855 L 415.2,346.4259647673078 L 430.40000000000003,347.99731504991 L 445.6,346.1865933031264 L 460.79999999999995,342.525825723625 L 476,340.11233626063836 L 491.2,340.98814439576034 L 506.40000000000003,344.4122411867583 L 521.6,347.4875465090609 L 536.8000000000001,347.6120877929516 L 552,344.68049241018093 L 567.1999999999999,341.1731419723429 L 582.4,340.05755634338556 L 597.6,342.277616829879 L 612.8000000000001,345.9549614860759 L 628,347.9782407313583 L 643.1999999999999,346.63558645984347 L 658.4,343.06299956216117 L 673.6,340.2831955531852 L 688.8,340.6481274985474 L 704,343.84903161315 L 719.2,347.17766795603876 L 734.4,347.81772414484726 L 749.6,345.22765764255354 L 764.8,341.5988872796183 L 780,340.0016646104752"
      stroke="url(#thread-27)"
      stroke-width="7.606"
      stroke-linecap="round"
      fill="none"
      opacity="0.4774193548387097"
      class="thread"
      style="animation-delay: 2.7s"
    >
      <title>2025-12-26: 3803 stars, Python, Shell, Go, TypeScript</title>
    </path>

    <path
      d="M 20,359.9624294227795 L 35.2,358.93969089737266 L 50.400000000000006,355.77269123609176 L 65.6,352.7714944994407 L 80.80000000000001,352.1252252410466 L 96,354.3052833809907 L 111.2,357.7214969907868 L 126.4,359.8820210666365 L 141.60000000000002,359.2109321626071 L 156.79999999999998,356.19773407547956 L 172,353.04030535047514 L 187.2,352.04172884245133 L 202.4,353.93038344296633 L 217.6,357.3286519805708 L 232.8,359.7577788959774 L 248,359.4459172091287 L 263.20000000000005,356.62054420189656 L 278.40000000000003,353.3425355735493 L 293.59999999999997,352.00292723575603 L 308.8,353.57885256624365 L 324,356.9208045055373 L 339.2,359.59110579042846 L 354.4,359.6419927048801 L 369.6,357.03634745767124 L 384.8,353.6747725381514 L 400,352.0092585490393 L 415.2,353.25466005933043 L 430.40000000000003,356.50255977268154 L 445.6,359.38388373822943 L 460.79999999999995,359.79694466473245 L 476,357.4404488031641 L 491.2,354.03326479285136 L 506.40000000000003,352.0606512923202 L 521.6,352.96146653971726 L 536.8000000000001,356.0786403895648 L 552,359.13845258577567 L 567.1999999999999,359.909023449683 L 582.4,357.82828533077617 L 597.6,354.41396442478936 L 612.8000000000001,352.1565251647869 L 628,352.70258260004016 L 643.1999999999999,355.65383303902314 L 658.4,358.85758361725874 L 673.6,359.9769635228925 L 688.8,358.1954777869893 L 704,354.8125727666561 L 719.2,352.29579760725943 L 734.4,352.48093142654625 L 749.6,355.232934430371 L 764.8,358.5444482627297 L 780,359.9999977394856"
      stroke="url(#thread-28)"
      stroke-width="7.022"
      stroke-linecap="round"
      fill="none"
      opacity="0.4580645161290323"
      class="thread"
      style="animation-delay: 2.8000000000000003s"
    >
      <title>2025-12-25: 3511 stars, Python, TypeScript</title>
    </path>

    <path
      d="M 20,371.7395802220987 L 35.2,369.85466864437024 L 50.400000000000006,367.0348052285395 L 65.6,364.7015034572607 L 80.80000000000001,364.0309975794528 L 96,365.3612944433029 L 111.2,368.0217818066437 L 126.4,370.6712888041814 L 141.60000000000002,371.9741798522057 L 156.79999999999998,371.27365817793725 L 172,368.9228618090102 L 187.2,366.1068441471759 L 202.4,364.24518000276623 L 217.6,364.2763476958997 L 232.8,366.1846353677097 L 248,369.0080614417015 L 263.20000000000005,371.32331647355073 L 278.40000000000003,371.96326370582426 L 293.59999999999997,370.60530112391507 L 308.8,367.93398745796816 L 324,365.2959511904923 L 339.2,364.0210454274554 L 354.4,364.7519593576658 L 369.6,367.12023399810283 L 384.8,369.93200502430693 L 400,371.7698383855909 L 415.2,371.7072690314596 L 430.40000000000003,369.7758386245337 L 445.6,366.949195160968 L 460.79999999999995,364.65226999437243 L 476,364.04295966492447 L 491.2,365.4284219035866 L 506.40000000000003,368.1102352049377 L 521.6,370.7364781445463 L 536.8000000000001,371.98324271806706 L 552,371.2220259132598 L 567.1999999999999,368.8365626107509 L 582.4,366.0293820635021 L 597.6,364.2156042286563 L 612.8000000000001,364.30956759236057 L 628,366.26390454537864 L 643.1999999999999,369.0934197364858 L 658.4,371.37173415350986 L 673.6,371.95033306933897 L 688.8,370.5375405980835 L 704,367.8455556125 L 719.2,365.231427156392 L 734.4,364.01295623561174 L 749.6,364.8043828280202 L 764.8,367.2067430812112 L 780,370.0089898675358"
      stroke="url(#thread-29)"
      stroke-width="5.776"
      stroke-linecap="round"
      fill="none"
      opacity="0.4387096774193549"
      class="thread"
      style="animation-delay: 2.9000000000000004s"
    >
      <title>2025-12-24: 2888 stars, Python, TypeScript</title>
    </path>

    <path
      d="M 20,382.6011513606285 L 35.2,379.9285226095513 L 50.400000000000006,377.2919261264405 L 65.6,376.0204892115829 L 80.80000000000001,376.7551523824049 L 96,379.1255666366569 L 111.2,381.93678905512587 L 126.4,383.77166214424005 L 141.60000000000002,383.70521314805234 L 156.79999999999998,381.77093948472117 L 172,378.94392245645855 L 187.2,376.64928173353206 L 202.4,376.04376225159194 L 217.6,377.43261074803513 L 232.8,380.11569868047405 L 248,382.7404620737541 L 263.20000000000005,383.98373877350355 L 278.40000000000003,383.21878402980224 L 293.59999999999997,380.8312170452283 L 308.8,378.02462755404264 L 324,376.21383755776435 L 339.2,376.31167935157276 L 354.4,378.2688301816476 L 369.6,381.0986762010485 L 384.8,383.3746716246745 L 400,383.9494707467086 L 415.2,382.5333131847146 L 430.40000000000003,379.84009417795676 L 445.6,377.2274848492114 L 460.79999999999995,376.01252040127247 L 476,376.8076731737557 L 491.2,379.21210092000854 L 506.40000000000003,382.01371427422066 L 521.6,383.80019974140544 L 536.8000000000001,383.67097711476555 L 552,381.69118845224665 L 567.1999999999999,378.8588594953711 L 582.4,376.601787695926 L 597.6,376.0577792243157 L 612.8000000000001,377.50107267405883 L 628,380.2040934091932 L 643.1999999999999,382.8042291849851 L 658.4,383.99073280663436 L 673.6,383.165479242296 L 688.8,380.74448476486083 L 704,377.9481901487952 L 719.2,376.1862276748313 L 734.4,376.34681533204224 L 749.6,378.34899972439075 L 764.8,381.18346526144603 L 780,383.42133742594507"
      stroke="url(#thread-30)"
      stroke-width="5.776"
      stroke-linecap="round"
      fill="none"
      opacity="0.41935483870967744"
      class="thread"
      style="animation-delay: 3s"
    >
      <title>2025-12-23: 2888 stars, Python, TypeScript</title>
    </path>
  </g>

  <!-- Date markers -->
  <g id="dates">
    <text x="785" y="24" class="date-label">01-22</text>
<text x="785" y="108" class="date-label">01-15</text>
<text x="785" y="192" class="date-label">01-08</text>
<text x="785" y="276" class="date-label">01-01</text>
<text x="785" y="360" class="date-label">12-25</text>
  </g>

</svg>