<?xml version="1.0" encoding="UTF-8"?>
<svg xmlns="http://www.w3.org/2000/svg" viewBox="0 0 800 220" width="800" height="220">
  <title>The Data Tapestry - GitHub Trends Woven in Time</title>
  <desc>A living data art piece that weaves daily GitHub trending repositories into an evolving tapestry. Each thread represents one day of open source activity.</desc>

  <style>
    .thread {
      animation: breathe 8s ease-in-out infinite alternate;
    }

    @keyframes breathe {
      0% {
        opacity: 0.85;
      }
      100% {
        opacity: 1;
      }
    }

    .date-label {
      font-family: ui-monospace, monospace;
      font-size: 8px;
      fill: #666;
    }

    .title {
      font-family: system-ui, sans-serif;
      font-size: 14px;
      fill: #333;
      font-weight: 600;
    }

    .subtitle {
      font-family: system-ui, sans-serif;
      font-size: 10px;
      fill: #888;
    }

    .empty-state {
      font-family: system-ui, sans-serif;
      font-size: 12px;
      fill: #999;
      text-anchor: middle;
    }
  </style>

  <defs>
    
    <linearGradient id="thread-0" x1="0%" y1="0%" x2="100%" y2="0%">
      <stop offset="0%" stop-color="#3572A5" />
      <stop offset="50%" stop-color="#3178c6" />
      <stop offset="100%" stop-color="#00ADD8" />
    </linearGradient>

    <linearGradient id="thread-1" x1="0%" y1="0%" x2="100%" y2="0%">
      <stop offset="0%" stop-color="#3572A5" />
      <stop offset="50%" stop-color="#00ADD8" />
      <stop offset="100%" stop-color="#3178c6" />
    </linearGradient>

    <linearGradient id="thread-2" x1="0%" y1="0%" x2="100%" y2="0%">
      <stop offset="0%" stop-color="#3572A5" />
      <stop offset="50%" stop-color="#3178c6" />
      <stop offset="100%" stop-color="#00ADD8" />
    </linearGradient>

    <linearGradient id="thread-3" x1="0%" y1="0%" x2="100%" y2="0%">
      <stop offset="0%" stop-color="#3572A5" />
      <stop offset="50%" stop-color="#00ADD8" />
      <stop offset="100%" stop-color="#DA5B0B" />
    </linearGradient>

    <linearGradient id="thread-4" x1="0%" y1="0%" x2="100%" y2="0%">
      <stop offset="0%" stop-color="#3572A5" />
      <stop offset="50%" stop-color="#3178c6" />
      <stop offset="100%" stop-color="#dea584" />
    </linearGradient>

    <linearGradient id="thread-5" x1="0%" y1="0%" x2="100%" y2="0%">
      <stop offset="0%" stop-color="#dea584" />
      <stop offset="50%" stop-color="#3572A5" />
      <stop offset="100%" stop-color="#3178c6" />
    </linearGradient>

    <linearGradient id="thread-6" x1="0%" y1="0%" x2="100%" y2="0%">
      <stop offset="0%" stop-color="#3572A5" />
      <stop offset="50%" stop-color="#3178c6" />
      <stop offset="100%" stop-color="#dea584" />
    </linearGradient>

    <linearGradient id="thread-7" x1="0%" y1="0%" x2="100%" y2="0%">
      <stop offset="0%" stop-color="#3572A5" />
      <stop offset="50%" stop-color="#dea584" />
      <stop offset="100%" stop-color="#3178c6" />
    </linearGradient>

    <linearGradient id="thread-8" x1="0%" y1="0%" x2="100%" y2="0%">
      <stop offset="0%" stop-color="#3572A5" />
      <stop offset="50%" stop-color="#3178c6" />
      <stop offset="100%" stop-color="#89e051" />
    </linearGradient>

    <linearGradient id="thread-9" x1="0%" y1="0%" x2="100%" y2="0%">
      <stop offset="0%" stop-color="#3572A5" />
      <stop offset="50%" stop-color="#f1e05a" />
      <stop offset="100%" stop-color="#89e051" />
    </linearGradient>

    <linearGradient id="thread-10" x1="0%" y1="0%" x2="100%" y2="0%">
      <stop offset="0%" stop-color="#3572A5" />
      <stop offset="50%" stop-color="#89e051" />
      <stop offset="100%" stop-color="#dea584" />
    </linearGradient>

    <linearGradient id="thread-11" x1="0%" y1="0%" x2="100%" y2="0%">
      <stop offset="0%" stop-color="#3572A5" />
      <stop offset="50%" stop-color="#89e051" />
      <stop offset="100%" stop-color="#00ADD8" />
    </linearGradient>

    <linearGradient id="thread-12" x1="0%" y1="0%" x2="100%" y2="0%">
      <stop offset="0%" stop-color="#3572A5" />
      <stop offset="50%" stop-color="#3178c6" />
      <stop offset="100%" stop-color="#3572A5" />
    </linearGradient>

    <linearGradient id="thread-13" x1="0%" y1="0%" x2="100%" y2="0%">
      <stop offset="0%" stop-color="#3572A5" />
      <stop offset="50%" stop-color="#3178c6" />
      <stop offset="100%" stop-color="#3572A5" />
    </linearGradient>

    <linearGradient id="thread-14" x1="0%" y1="0%" x2="100%" y2="0%">
      <stop offset="0%" stop-color="#3572A5" />
      <stop offset="50%" stop-color="#3178c6" />
      <stop offset="100%" stop-color="#3572A5" />
    </linearGradient>

    <!-- Background pattern -->
    <pattern id="loom" patternUnits="userSpaceOnUse" width="20" height="20">
      <rect width="20" height="20" fill="#fafafa"/>
      <circle cx="10" cy="10" r="0.5" fill="#eee"/>
    </pattern>
  </defs>

  <!-- Background -->
  <rect width="100%" height="100%" fill="url(#loom)"/>

  <!-- Threads -->
  <g id="tapestry">
    
    <path
      d="M 20,20 L 35.2,23.492559871671833 L 50.400000000000006,23.405033423352567 L 65.6,19.827140588781013 L 80.80000000000001,16.426439165702874 L 96,16.68885497657469 L 111.2,20.3453958525659 L 126.4,23.647884969335326 L 141.60000000000002,23.211070092622435 L 156.79999999999998,19.48271304239565 L 172,16.284606590147206 L 187.2,16.895004389432717 L 202.4,20.688211565641865 L 217.6,23.77596002333385 L 232.8,22.993119766422115 L 248,19.142149678214643 L 263.20000000000005,16.170528352653744 L 278.40000000000003,17.124348411407738 L 293.59999999999997,21.025886273622525 L 308.8,23.875828300973485 L 324,22.75281055417822 L 339.2,18.80799453658539 L 354.4,16.085056628381277 L 369.6,17.375173821094563 L 384.8,21.35589751469385 L 400,23.94674377683147 L 415.2,22.491937588298075 L 430.40000000000003,18.482743787830334 L 445.6,16.02882989914545 L 460.79999999999995,17.645606929102286 L 476,21.675780073860146 L 491.2,23.988176705636263 L 506.40000000000003,22.212449614361944 L 521.6,18.168827085620098 L 536.8000000000001,16.002268183899634 L 552,17.933627574690224 L 567.1999999999999,21.983144398331685 L 582.4,23.999817579514502 L 597.6,21.916434433810316 L 612.8000000000001,17.86858941723204 L 628,16.005569901153827 L 643.1999999999999,18.237084216558475 L 658.4,22.2756944477088 L 673.6,23.981579440043944 L 688.8,21.60610330787076 L 704,17.584273586274882 L 719.2,16.038710386769743 L 734.4,18.55371000506385 L 749.6,22.551244845619557 L 764.8,23.933598527841028 L 780,21.283774439228836"
      stroke="url(#thread-0)"
      stroke-width="8"
      stroke-linecap="round"
      fill="none"
      opacity="1"
      class="thread"
      style="animation-delay: 0s"
    >
      <title>2026-01-06: 4224 stars, TypeScript, Python, Rust, JavaScript, Go</title>
    </path>

    <path
      d="M 20,33.917702154416816 L 35.2,35.96889035574343 L 50.400000000000006,34.72538380914171 L 65.6,31.219454540512896 L 80.80000000000001,28.361479434228222 L 96,28.52394921902748 L 111.2,31.57199286076871 L 126.4,34.97533804709923 L 141.60000000000002,35.90876601263694 L 156.79999999999998,33.59741024811278 L 172,29.95999639606098 L 187.2,28.01605063136171 L 202.4,29.379300552194636 L 217.6,32.91807157153514 L 232.8,35.69472388417416 L 248,35.40427524789976 L 263.20000000000005,32.28783577428038 L 278.40000000000003,28.932455204085954 L 293.59999999999997,28.123535438359838 L 308.8,30.532585000832444 L 324,34.159779701477575 L 339.2,35.994076589049314 L 354.4,34.51277088212726 L 369.6,30.94553881140138 L 384.8,28.253646553210938 L 400,28.67171449010558 L 415.2,31.85269190702317 L 430.40000000000003,35.15595418362597 L 445.6,35.83936437526301 L 460.79999999999995,33.33560321452019 L 476,29.723117825649467 L 491.2,28.000740519666113 L 506.40000000000003,29.598268281453425 L 521.6,33.18954547186311 L 536.8000000000001,35.793345340583166 L 552,35.24817563582739 L 567.1999999999999,32.00659805670876 L 582.4,28.759543233112126 L 597.6,28.20248861960052 L 612.8000000000001,30.797861933984304 L 628,34.39116605959724 L 643.1999999999999,35.99949162651079 L 658.4,34.28771941415974 L 673.6,30.676842801593025 L 688.8,28.164358606435012 L 704,28.8359552050504 L 719.2,32.13412014739565 L 734.4,35.32094793864616 L 749.6,35.75095738751861 L 764.8,33.06718477222373 L 780,29.497510116569746"
      stroke="url(#thread-1)"
      stroke-width="7.528"
      stroke-linecap="round"
      fill="none"
      opacity="0.96"
      class="thread"
      style="animation-delay: 0.1s"
    >
      <title>2026-01-05: 3764 stars, Go, TypeScript, Python, Rust, JavaScript</title>
    </path>

    <path
      d="M 20,47.36588393923159 L 35.2,47.66666345235104 L 50.400000000000006,44.70714478557477 L 65.6,41.11885206105019 L 80.80000000000001,40.09239832268765 L 96,42.540478531019936 L 111.2,46.28632583760699 L 126.4,47.99923391651033 L 141.60000000000002,46.15613113474535 L 156.79999999999998,42.39585474117277 L 172,40.06194101644272 L 187.2,41.22964305308868 L 202.4,44.86067171598529 L 217.6,47.726414318249496 L 232.8,47.278729883315556 L 248,43.915687327884 L 263.20000000000005,40.627613324929136 L 278.40000000000003,40.338174533937405 L 293.59999999999997,43.304732116009234 L 308.8,46.889503135494195 L 324,47.90500595355362 L 339.2,45.44828287242683 L 354.4,41.7037857497747 L 369.6,40.00102036442177 L 384.8,41.85403973999527 L 400,45.6151890600653 L 415.2,47.94015586130014 L 430.40000000000003,46.761642414063985 L 445.6,43.12755106798291 L 460.79999999999995,40.26921776516688 L 476,40.72819533308663 L 491.2,44.096373305988294 L 506.40000000000003,47.37885873628622 L 521.6,47.656954172466925 L 536.8000000000001,44.68338465837488 L 552,41.10216795036334 L 567.1999999999999,40.0976252894384 L 582.4,42.5629688974475 L 597.6,46.30608177689091 L 612.8000000000001,47.99868898064509 L 628,46.13576986599471 L 643.1999999999999,42.37378183016645 L 658.4,40.057783099907546 L 673.6,41.24709723818706 L 688.8,44.88421821240996 L 704,47.73511621689114 L 719.2,47.26484969076315 L 734.4,43.89156693673372 L 749.6,40.61469993599108 L 764.8,40.34795038412753 L 780,43.3285047831852"
      stroke="url(#thread-2)"
      stroke-width="7.814"
      stroke-linecap="round"
      fill="none"
      opacity="0.92"
      class="thread"
      style="animation-delay: 0.2s"
    >
      <title>2026-01-04: 3907 stars, Python, Jupyter Notebook, TypeScript, Go, Rust</title>
    </path>

    <path
      d="M 20,59.98997994641622 L 35.2,58.46486402681818 L 50.400000000000006,54.765547603652315 L 65.6,52.15511356611414 L 80.80000000000001,52.936166413759985 L 96,56.419757191926095 L 111.2,59.53308969696546 L 126.4,59.52996412776022 L 141.60000000000002,56.41313747782645 L 156.79999999999998,52.931891654031595 L 172,52.156954429099336 L 187.2,54.77188030597568 L 202.4,58.47010263577485 L 217.6,59.98950360417889 L 232.8,57.98985417028208 L 248,54.23499962487306 L 263.20000000000005,52.03701177176271 L 278.40000000000003,53.3346857108322 L 293.59999999999997,56.9833727713661 L 308.8,59.76464907356336 L 324,59.22521404140622 L 339.2,55.84089104924613 L 354.4,52.59691444418382 L 369.6,52.35472221693608 L 384.8,55.3279466233649 L 400,58.89397402988079 L 415.2,59.90729275769471 L 430.40000000000003,57.47407740130074 L 445.6,53.740611891820976 L 460.79999999999995,52.00010125088996 L 476,53.787810333203275 L 491.2,57.52684161228122 L 506.40000000000003,59.919080627700154 L 521.6,58.8543877468522 L 536.8000000000001,55.271904347313836 L 552,52.33165756508669 L 567.1999999999999,52.627172221409694 L 582.4,55.8977815583609 L 597.6,59.25855545809026 L 612.8000000000001,59.74503169239058 L 628,56.92810063814206 L 643.1999999999999,53.29251311730747 L 658.4,52.04513820362112 L 673.6,54.286256941378866 L 688.8,58.03902945820926 L 704,59.993220460362366 L 719.2,58.425082505901734 L 734.4,54.71783442278575 L 749.6,52.141555437074715 L 764.8,52.96872265384239 L 780,56.46971068212851"
      stroke="url(#thread-3)"
      stroke-width="7.78"
      stroke-linecap="round"
      fill="none"
      opacity="0.88"
      class="thread"
      style="animation-delay: 0.30000000000000004s"
    >
      <title>2026-01-03: 3890 stars, Go, Python, Jupyter Notebook, TypeScript, Rust, JavaScript</title>
    </path>

    <path
      d="M 20,71.63718970730272 L 35.2,69.8492506879148 L 50.400000000000006,67.28234879429448 L 65.6,65.01774428498557 L 80.80000000000001,64.00936019978967 L 96,64.68195980659026 L 111.2,66.75222287933848 L 126.4,69.34808913756282 L 141.60000000000002,71.37609761632001 L 156.79999999999998,71.98198700647316 L 172,70.91053753500557 L 187.2,68.61307760500698 L 202.4,66.05736999856045 L 217.6,64.31995958642115 L 232.8,64.13269858159944 L 248,65.57446724165091 L 263.20000000000005,68.0379470095235 L 278.40000000000003,70.48544229687103 L 293.59999999999997,71.88599068407031 L 308.8,71.64963689662879 L 324,69.875940624752 L 339.2,67.3120388331499 L 354.4,65.03792804251484 L 369.6,64.01153563898907 L 384.8,64.66521056366845 L 400,66.72360426512643 L 415.2,69.31965621746018 L 430.40000000000003,71.35982723549478 L 445.6,71.98473276389669 L 460.79999999999995,70.93114283081364 L 476,68.64286283694123 L 491.2,66.08378868494114 L 506.40000000000003,64.33188334102623 L 521.6,64.12510474188805 L 536.8000000000001,65.5505545730726 L 552,68.00778828434655 L 567.1999999999999,70.46174132394113 L 582.4,71.87873106275352 L 597.6,71.66187660901687 L 612.8000000000001,69.90252391689341 L 628,67.3417679816703 L 643.1999999999999,65.05828018984214 L 658.4,64.01393781701108 L 673.6,64.64865089903093 L 688.8,66.69505821229137 L 704,69.29114827668042 L 719.2,71.34336585302013 L 734.4,71.98725199463388 L 749.6,70.95158149510286 L 764.8,68.67261152298977 L 780,66.11031630535213"
      stroke="url(#thread-4)"
      stroke-width="5.26"
      stroke-linecap="round"
      fill="none"
      opacity="0.8400000000000001"
      class="thread"
      style="animation-delay: 0.4s"
    >
      <title>2026-01-02: 2630 stars, TypeScript, Rust, Python, JavaScript, Jupyter Notebook, Shell</title>
    </path>

    <path
      d="M 20,82.39388857641583 L 35.2,78.86456459038877 L 50.400000000000006,76.24743165646169 L 65.6,76.64505344692827 L 80.80000000000001,79.7379868333522 L 96,83.04141750048919 L 111.2,83.90142090953454 L 126.4,81.62708377042689 L 141.60000000000002,78.04557297455553 L 156.79999999999998,76.03421828752286 L 172,77.20891061125062 L 187.2,80.6259205027387 L 202.4,83.5400756504949 L 217.6,83.61018938047978 L 232.8,80.77993341846465 L 248,77.32309114468318 L 263.20000000000005,76.01683558366179 L 278.40000000000003,77.91059202585144 L 293.59999999999997,81.48294616023148 L 308.8,83.86392453984944 L 324,83.14068636834976 L 339.2,79.89426988268957 L 354.4,76.732795319865 L 369.6,76.19614190439113 L 384.8,78.71544859805333 L 400,82.26674380017631 L 415.2,83.99697248066252 L 430.40000000000003,82.51609597499058 L 445.6,79.01382730981477 L 460.79999999999995,76.30383436212814 L 476,76.56328308713036 L 491.2,79.58373643642359 L 506.40000000000003,82.93860942314885 L 521.6,83.93264955340108 L 536.8000000000001,81.76726053137264 L 552,78.18208203492615 L 567.1999999999999,76.0573904029504 L 582.4,77.10012966656701 L 597.6,80.47257940778222 L 612.8000000000001,83.46536624299978 L 628,83.67413203011907 L 643.1999999999999,80.93115760045573 L 658.4,77.44010571606384 L 673.6,76.0056328676631 L 688.8,77.78017210931824 L 704,81.338086364595 L 719.2,83.82100295960107 L 734.4,83.23418552985176 L 749.6,80.04907402173461 L 764.8,76.82453721197727 L 780,76.15111754811078"
      stroke="url(#thread-5)"
      stroke-width="7.396"
      stroke-linecap="round"
      fill="none"
      opacity="0.8"
      class="thread"
      style="animation-delay: 0.5s"
    >
      <title>2026-01-01: 3698 stars, Rust, Python, JavaScript, TypeScript, Jupyter Notebook, Go, Shell</title>
    </path>

    <path
      d="M 20,92.56448003223947 L 35.2,89.16119868216302 L 50.400000000000006,88.04428538185628 L 65.6,90.11330110733358 L 80.80000000000001,93.70186243842416 L 96,95.91974527931276 L 111.2,94.98066876783467 L 126.4,91.64096428887477 L 141.60000000000002,88.59042685147048 L 156.79999999999998,88.28595658726674 L 172,90.97277357552954 L 187.2,94.48691780999003 L 202.4,95.99810065809436 L 217.6,94.28921680163786 L 232.8,90.73659977464415 L 248,88.20152416246366 L 263.20000000000005,88.72573760239007 L 278.40000000000003,91.88703905739526 L 293.59999999999997,95.1393191548368 L 308.8,95.86319440458794 L 324,93.47565632604424 L 339.2,89.89962595848087 L 354.4,88.01523497086328 L 369.6,89.34017018413661 L 384.8,92.80732995909521 L 400,95.62426690496777 L 415.2,95.52222251766625 L 430.40000000000003,92.5833832557211 L 445.6,89.17468763987384 L 460.79999999999995,88.04149607928532 L 476,90.09648004628401 L 491.2,93.68455728646444 L 506.40000000000003,95.91589359039868 L 521.6,94.99337268878271 L 536.8000000000001,91.65999209308262 L 552,88.60045356239796 L 567.1999999999999,88.27890670087457 L 582.4,90.95432506403095 L 597.6,94.47192908809377 L 612.8000000000001,95.99864362904889 L 628,94.30485415712063 L 643.1999999999999,90.7547372024946 L 658.4,88.2075537944658 L 673.6,88.71480317830658 L 688.8,91.86794715263177 L 704,95.12744637246384 L 719.2,95.86810307294067 L 734.4,93.49339300800887 L 749.6,89.91590554622049 L 764.8,88.0169458989304 L 780,89.32593447259175"
      stroke="url(#thread-6)"
      stroke-width="7.406"
      stroke-linecap="round"
      fill="none"
      opacity="0.76"
      class="thread"
      style="animation-delay: 0.6000000000000001s"
    >
      <title>2025-12-31: 3703 stars, Go, Python, TypeScript, Rust, Shell</title>
    </path>

    <path
      d="M 20,102.59686708924153 L 35.2,100.03267795742092 L 50.400000000000006,101.69468310969722 L 65.6,105.81242968156751 L 80.80000000000001,107.99948348931099 L 96,105.92608299552316 L 111.2,101.80092041662752 L 126.4,100.01832984619966 L 141.60000000000002,102.47721790154304 L 156.79999999999998,106.5582513061559 L 172,107.91410461917954 L 187.2,105.10045356845349 L 202.4,101.11454311176078 L 217.6,100.20236886231511 L 232.8,103.33562546898389 L 248,107.1766077947512 L 263.20000000000005,107.63370508146386 L 278.40000000000003,104.21999392848822 L 293.59999999999997,100.57193399486545 L 308.8,100.57562524274958 L 324,104.22713556616543 L 339.2,107.63668947133715 L 354.4,107.17225581213934 L 369.6,103.32857306827657 L 384.8,100.20012862132646 L 400,101.11950144973267 L 415.2,105.1073286102645 L 430.40000000000003,107.91557271878007 L 445.6,106.55274856878928 L 460.79999999999995,102.4706061244005 L 476,100.0176522323455 L 491.2,101.80689879498476 L 506.40000000000003,105.93234889179848 L 521.6,107.99936215042428 L 536.8000000000001,105.80605036390479 L 552,101.68884138859958 L 567.1999999999999,100.03359673288163 L 582.4,102.60356763466399 L 597.6,106.66108968988746 L 612.8000000000001,107.88388294916965 L 628,104.96936551279383 L 643.1999999999999,101.02223036971257 L 658.4,100.24716768654612 L 673.6,103.46981386141394 L 688.8,107.25724141887483 L 704,107.57488887816561 L 719.2,104.0843819247222 L 734.4,100.50398703071973 L 749.6,100.64772389847765 L 764.8,104.36247666736936 L 780,107.6911007571889"
      stroke="url(#thread-7)"
      stroke-width="8"
      stroke-linecap="round"
      fill="none"
      opacity="0.72"
      class="thread"
      style="animation-delay: 0.7000000000000001s"
    >
      <title>2025-12-30: 4315 stars, Go, Shell, Rust, Python, Swift, TypeScript</title>
    </path>

    <path
      d="M 20,112.9727900187683 L 35.2,112.02482196378378 L 50.400000000000006,113.62573548974076 L 65.6,116.7490258811735 L 80.80000000000001,119.39204136295994 L 96,119.8600821208294 L 111.2,117.85304072412225 L 126.4,114.65783081586197 L 141.60000000000002,112.32321891875719 L 156.79999999999998,112.34615666842356 L 172,114.71193639463844 L 187.2,117.9036216699573 L 202.4,119.8747059640296 L 217.6,119.36133130474146 L 232.8,116.69267319096615 L 248,113.57987347598949 L 263.20000000000005,112.01885731998769 L 278.40000000000003,113.01054727066442 L 293.59999999999997,115.91907237425208 L 308.8,118.87948821902891 L 324,119.99357808364742 L 339.2,118.54698826883461 L 354.4,115.46727122647098 L 369.6,112.72913952849063 L 384.8,112.08828144535332 L 400,113.95561476469629 L 415.2,117.13380657217239 L 430.40000000000003,119.58500234026823 L 445.6,119.737496930834 L 460.79999999999995,117.4935109112141 L 476,114.29188666310563 L 491.2,112.18550357977144 L 506.40000000000003,112.52497312932773 L 521.6,115.0926276565723 L 536.8000000000001,118.24208874245342 L 552,119.95392397952715 L 567.1999999999999,119.130505723036 L 582.4,116.29980922547428 L 597.6,113.27687524681221 L 612.8000000000001,112.00000709533329 L 628,113.2879318023665 L 643.1999999999999,116.31483288032602 L 658.4,119.13986331942942 L 673.6,119.95161543271846 L 688.8,118.22959429116038 L 704,115.07795873486774 L 719.2,112.51753544030328 L 734.4,112.19006616481 L 749.6,114.305523995637 L 764.8,117.50747874245603 L 780,119.74283909644521"
      stroke="url(#thread-8)"
      stroke-width="6.556"
      stroke-linecap="round"
      fill="none"
      opacity="0.6799999999999999"
      class="thread"
      style="animation-delay: 0.8s"
    >
      <title>2025-12-29: 3278 stars, Shell, Go, JavaScript, TypeScript, Rust, Python</title>
    </path>

    <path
      d="M 20,124.08987952933961 L 35.2,125.04990075205123 L 50.400000000000006,128.4962768945828 L 65.6,131.52438897386398 L 80.80000000000001,131.582132557706 L 96,128.62084113298272 L 111.2,125.13630242886994 L 126.4,124.06529898117485 L 141.60000000000002,126.31047658839806 L 156.79999999999998,129.979590983344 L 172,131.98029853262508 L 187.2,130.62639526810878 L 202.4,127.05895603499937 L 217.6,124.2846322517424 L 232.8,124.64163460479887 L 248,127.82908014674713 L 263.20000000000005,131.1605775941781 L 278.40000000000003,131.82832816725517 L 293.59999999999997,129.26954913121534 L 308.8,125.64078923587218 L 324,124.00038118813545 L 339.2,125.73086715937058 L 354.4,129.37378696005965 L 369.6,131.85887386095604 L 384.8,131.0916871253557 L 400,127.71881466578624 L 415.2,124.58292628042706 L 430.40000000000003,124.326960684091 L 445.6,127.16664665952912 L 460.79999999999995,130.70868601493194 L 476,131.96783444584935 L 491.2,129.88287684293482 L 506.40000000000003,126.21102344148026 L 521.6,124.04692632002572 L 536.8000000000001,125.21449480251614 L 552,128.72969771010716 L 567.1999999999999,131.62990859911855 L 582.4,131.47081864928853 L 597.6,128.3865094782877 L 612.8000000000001,124.97644864196037 L 628,124.11464844453094 L 643.1999999999999,126.52743738571692 L 658.4,130.18130772554107 L 673.6,131.99676357852672 L 688.8,130.44373181410882 L 704,126.83111353816771 L 719.2,124.20363723909684 L 734.4,124.77574998251525 L 749.6,128.06527296197123 L 764.8,131.29978363964068 L 780,131.75322405587178"
      stroke="url(#thread-9)"
      stroke-width="7.59"
      stroke-linecap="round"
      fill="none"
      opacity="0.64"
      class="thread"
      style="animation-delay: 0.9s"
    >
      <title>2025-12-28: 3795 stars, Shell, Rust, Python, JavaScript, TypeScript</title>
    </path>

    <path
      d="M 20,136.16430290134744 L 35.2,140.2796176887773 L 50.400000000000006,143.95645570931015 L 65.6,141.4290585279304 L 80.80000000000001,136.660712407399 L 96,137.12880191347477 L 111.2,142.09930204888371 L 126.4,143.77782455884298 L 141.60000000000002,139.53222865659075 L 156.79999999999998,136.02015883132614 L 172,138.74899563837982 L 187.2,143.43956938080373 L 202.4,142.73645265890949 L 217.6,137.74222359754873 L 232.8,136.2884804820241 L 248,140.65488088329036 L 263.20000000000005,143.99434320469672 L 278.40000000000003,141.07015782222908 L 293.59999999999997,136.46782631097958 L 308.8,137.40440081834717 L 324,142.41121116203956 L 339.2,143.63692997586398 L 354.4,139.15947133971744 L 369.6,136.00007055268827 L 384.8,139.11307742177948 L 400,143.61689381471248 L 415.2,142.44895205450499 L 430.40000000000003,137.44073615484422 L 445.6,136.44577757580345 L 460.79999999999995,141.02430028905601 L 476,143.99658742743884 L 491.2,140.7017076298974 L 506.40000000000003,136.30645934633563 L 521.6,137.70316139074944 L 536.8000000000001,142.7016039826668 L 552,143.46358147491262 L 567.1999999999999,138.79421442795925 L 582.4,136.0156753951827 L 597.6,139.4850736035295 L 612.8000000000001,143.7619431220842 L 628,142.1395983790701 L 643.1999999999999,137.16208614355895 L 658.4,136.6347905518724 L 673.6,141.38457941503057 L 688.8,143.96316835135468 L 704,140.32699579326345 L 719.2,136.1780514615192 L 734.4,138.02241765933363 L 749.6,142.9678892085289 L 764.8,143.25932592053348 L 780,138.43971726860406"
      stroke="url(#thread-10)"
      stroke-width="8"
      stroke-linecap="round"
      fill="none"
      opacity="0.6000000000000001"
      class="thread"
      style="animation-delay: 1s"
    >
      <title>2025-12-27: 5384 stars, Shell, Python, Rust, C, Go</title>
    </path>

    <path
      d="M 20,149.17783869771844 L 35.2,152.6870277826557 L 50.400000000000006,155.61493232581458 L 65.6,155.48429348307363 L 80.80000000000001,152.40564294144497 L 96,148.98378361365627 L 111.2,148.1139025381342 L 126.4,150.53199385536595 L 141.60000000000002,154.19214451961994 L 156.79999999999998,155.9975525449756 L 172,154.42068759971156 L 187.2,150.7957129306343 L 202.4,148.18966860900224 L 217.6,148.80749207344184 L 232.8,152.12645158224902 L 248,155.3384221862398 L 263.20000000000005,155.72580074347235 L 278.40000000000003,152.96083170632494 L 293.59999999999997,149.38291647946406 L 308.8,148.01927880212244 L 324,150.02367332940477 L 339.2,153.7002100496573 L 354.4,155.93822296549865 L 369.6,154.84416083326548 L 384.8,151.34369423174275 L 400,148.39851870781405 L 415.2,148.50050583946154 L 430.40000000000003,151.5633657493562 L 445.6,154.99565575613735 L 460.79999999999995,155.89336357062203 L 476,153.496951239954 L 491.2,149.833989524314 L 506.40000000000003,148.00365880065428 L 521.6,149.55457614511806 L 536.8000000000001,153.1745322109044 L 552,155.8007330963974 L 567.1999999999999,155.21118717785106 L 582.4,151.90470096319845 L 597.6,148.67884592291406 L 612.8000000000001,148.26297262516104 L 628,151.00894561665072 L 643.1999999999999,154.59343577971066 L 658.4,155.9836564140865 L 673.6,154.00336139869674 L 688.8,150.32805048721536 L 704,148.0673525374673 L 719.2,149.13401228117058 L 734.4,152.6255439149778 L 749.6,155.5878116424921 L 764.8,155.51448241273116 L 780,152.46759905539798"
      stroke="url(#thread-11)"
      stroke-width="7.606"
      stroke-linecap="round"
      fill="none"
      opacity="0.56"
      class="thread"
      style="animation-delay: 1.1s"
    >
      <title>2025-12-26: 3803 stars, Python, Shell, Go, TypeScript</title>
    </path>

    <path
      d="M 20,162.88233800720428 L 35.2,166.25601145917747 L 50.400000000000006,167.9841113243752 L 65.6,166.80613181861293 L 80.80000000000001,163.58131146772337 L 96,160.66188973836893 L 111.2,160.17734308641639 L 126.4,162.48110817938348 L 141.60000000000002,165.8927791081158 L 156.79999999999998,167.92382437856736 L 172,167.09276461393617 L 187.2,164.00578911000161 L 202.4,160.9145909295949 L 217.6,160.07394322844297 L 232.8,162.09702890824238 L 248,165.5081744546062 L 263.20000000000005,167.81923159643048 L 278.40000000000003,167.34447547862007 L 293.59999999999997,164.4302013845836 L 308.8,161.2021309963904 L 324,160.01487441384887 L 339.2,161.73443702226325 L 354.4,165.10654025948244 L 369.6,167.6715139866539 L 384.8,167.5584222211451 L 400,164.84975604315247 L 415.2,161.52126318204344 L 430.40000000000003,160.00080361775304 L 445.6,161.39742672526478 L 460.79999999999995,164.69241157253182 L 476,167.48233950162546 L 491.2,167.73218906332062 L 506.40000000000003,165.25971568712967 L 521.6,161.86838400764663 L 536.8000000000001,160.03188972045405 L 552,161.0898033667273 L 567.1999999999999,164.27046452501122 L 582.4,167.25384420375843 L 597.6,167.8638139180281 L 612.8000000000001,165.65545125997875 L 628,162.23957396075443 L 643.1999999999999,160.10778171343432 L 658.4,160.8150404737151 L 673.6,163.8454635291428 L 688.8,166.98860814615728 L 704,167.95181054411424 L 719.2,166.03249431616572 L 734.4,162.6306417525317 L 749.6,160.2276226627704 L 764.8,160.57624052956905 L 780,163.42220748078583"
      stroke="url(#thread-12)"
      stroke-width="7.022"
      stroke-linecap="round"
      fill="none"
      opacity="0.52"
      class="thread"
      style="animation-delay: 1.2000000000000002s"
    >
      <title>2025-12-25: 3511 stars, Python, TypeScript</title>
    </path>

    <path
      d="M 20,176.86047995235126 L 35.2,179.23646871403952 L 50.400000000000006,179.98093025800247 L 65.6,178.7185761514317 L 80.80000000000001,176.08576820259782 L 96,173.4097238843386 L 111.2,172.03945643510733 L 126.4,172.66572755739963 L 141.60000000000002,174.9728294622717 L 156.79999999999998,177.7977354423939 L 172,179.71639002208954 L 187.2,179.76158559184034 L 202.4,177.9105387390185 L 217.6,175.0963755304891 L 232.8,172.73773593330012 L 248,172.02362717712924 L 263.20000000000005,173.3140366355774 L 278.40000000000003,175.95845959517848 L 293.59999999999997,178.62382337240822 L 308.8,179.9664988665664 L 324,179.3096336786821 L 339.2,176.98435828678546 L 354.4,174.1628607840687 L 369.6,172.2674784081691 L 384.8,172.2536870828497 L 400,174.12843911465663 L 415.2,176.94665848505454 L 430.40000000000003,179.2876604865475 L 445.6,179.97132912863734 L 460.79999999999995,178.6530221187425 L 476,175.99730752718958 L 491.2,173.34295023059647 L 506.40000000000003,172.02803088340409 L 521.6,172.71540981074136 L 536.8000000000001,175.0585743384778 L 552,177.87631833104132 L 567.1999999999999,179.74819672233045 L 582.4,179.7305821167173 L 597.6,177.83235416391477 L 612.8000000000001,175.01042326352282 L 628,172.6873451320721 L 643.1999999999999,172.03420020791907 L 658.4,173.38024355731918 L 673.6,176.04692502118763 L 688.8,178.68995124348749 L 704,179.9769536460402 L 719.2,179.2591450368257 L 734.4,176.8983779120448 L 749.6,174.08473200337633 L 764.8,172.23658650327806 L 780,172.28560488578475"
      stroke="url(#thread-13)"
      stroke-width="5.776"
      stroke-linecap="round"
      fill="none"
      opacity="0.48"
      class="thread"
      style="animation-delay: 1.3s"
    >
      <title>2025-12-24: 2888 stars, Python, TypeScript</title>
    </path>

    <path
      d="M 20,190.62794639487515 L 35.2,191.9672010677189 L 50.400000000000006,191.30656107385545 L 65.6,188.9790597982301 L 80.80000000000001,186.1580074180741 L 96,184.26551678153197 L 111.2,184.25560606570357 L 126.4,186.13327133390663 L 141.60000000000002,188.95196798413042 L 156.79999999999998,191.29077070867697 L 172,191.97067218841636 L 187.2,190.64892918447384 L 202.4,187.99184187655322 L 217.6,185.33886713749237 L 232.8,184.0273886645102 L 248,184.71853221323332 L 263.20000000000005,187.06388733674297 L 278.40000000000003,189.8811436043409 L 293.59999999999997,191.75010181559784 L 308.8,191.72860665869834 L 324,189.82749399724233 L 339.2,187.00512843326433 L 354.4,184.6842848003432 L 369.6,184.0349171100131 L 384.8,185.3843762977208 L 400,188.0523902556582 L 415.2,190.69399390791915 L 430.40000000000003,191.97753580414036 L 445.6,191.25597321849796 L 460.79999999999995,188.89305105378094 L 476,186.07993541284048 L 491.2,184.2347381763487 L 506.40000000000003,184.28763657739572 L 521.6,186.21196415055022 L 536.8000000000001,189.03765348938202 L 552,191.34025422143984 L 567.1999999999999,191.95900871306884 L 582.4,190.58199836304686 L 597.6,187.90338401878287 L 612.8000000000001,185.2734744873722 L 628,184.01802612852842 L 643.1999999999999,184.76991951329387 L 658.4,187.15011976431882 L 673.6,189.95875077084762 L 688.8,191.7799613887549 L 704,191.69566621235248 L 719.2,189.7483590479382 L 734.4,186.9196914796079 L 749.6,184.63561522677972 L 764.8,184.04754959954428 L 780,185.45194272127796"
      stroke="url(#thread-14)"
      stroke-width="5.776"
      stroke-linecap="round"
      fill="none"
      opacity="0.44"
      class="thread"
      style="animation-delay: 1.4000000000000001s"
    >
      <title>2025-12-23: 2888 stars, Python, TypeScript</title>
    </path>
  </g>

  <!-- Date markers -->
  <g id="dates">
    <text x="785" y="24" class="date-label">01-06</text>
<text x="785" y="108" class="date-label">12-30</text>
<text x="785" y="192" class="date-label">12-23</text>
  </g>

</svg>