<?xml version="1.0" encoding="UTF-8"?>
<svg xmlns="http://www.w3.org/2000/svg" viewBox="0 0 800 472" width="800" height="472">
  <title>The Data Tapestry - GitHub Trends Woven in Time</title>
  <desc>A living data art piece that weaves daily GitHub trending repositories into an evolving tapestry. Each thread represents one day of open source activity.</desc>

  <style>
    .thread {
      animation: breathe 8s ease-in-out infinite alternate;
    }

    @keyframes breathe {
      0% {
        opacity: 0.85;
      }
      100% {
        opacity: 1;
      }
    }

    .date-label {
      font-family: ui-monospace, monospace;
      font-size: 8px;
      fill: #666;
    }

    .title {
      font-family: system-ui, sans-serif;
      font-size: 14px;
      fill: #333;
      font-weight: 600;
    }

    .subtitle {
      font-family: system-ui, sans-serif;
      font-size: 10px;
      fill: #888;
    }

    .empty-state {
      font-family: system-ui, sans-serif;
      font-size: 12px;
      fill: #999;
      text-anchor: middle;
    }
  </style>

  <defs>
    
    <linearGradient id="thread-0" x1="0%" y1="0%" x2="100%" y2="0%">
      <stop offset="0%" stop-color="#3572A5" />
      <stop offset="50%" stop-color="#3178c6" />
      <stop offset="100%" stop-color="#f1e05a" />
    </linearGradient>

    <linearGradient id="thread-1" x1="0%" y1="0%" x2="100%" y2="0%">
      <stop offset="0%" stop-color="#3178c6" />
      <stop offset="50%" stop-color="#3572A5" />
      <stop offset="100%" stop-color="#f1e05a" />
    </linearGradient>

    <linearGradient id="thread-2" x1="0%" y1="0%" x2="100%" y2="0%">
      <stop offset="0%" stop-color="#3572A5" />
      <stop offset="50%" stop-color="#3178c6" />
      <stop offset="100%" stop-color="#89e051" />
    </linearGradient>

    <linearGradient id="thread-3" x1="0%" y1="0%" x2="100%" y2="0%">
      <stop offset="0%" stop-color="#3178c6" />
      <stop offset="50%" stop-color="#3572A5" />
      <stop offset="100%" stop-color="#89e051" />
    </linearGradient>

    <linearGradient id="thread-4" x1="0%" y1="0%" x2="100%" y2="0%">
      <stop offset="0%" stop-color="#3572A5" />
      <stop offset="50%" stop-color="#3178c6" />
      <stop offset="100%" stop-color="#8b8b8b" />
    </linearGradient>

    <linearGradient id="thread-5" x1="0%" y1="0%" x2="100%" y2="0%">
      <stop offset="0%" stop-color="#3178c6" />
      <stop offset="50%" stop-color="#3572A5" />
      <stop offset="100%" stop-color="#dea584" />
    </linearGradient>

    <linearGradient id="thread-6" x1="0%" y1="0%" x2="100%" y2="0%">
      <stop offset="0%" stop-color="#3572A5" />
      <stop offset="50%" stop-color="#3178c6" />
      <stop offset="100%" stop-color="#8b8b8b" />
    </linearGradient>

    <linearGradient id="thread-7" x1="0%" y1="0%" x2="100%" y2="0%">
      <stop offset="0%" stop-color="#3572A5" />
      <stop offset="50%" stop-color="#3178c6" />
      <stop offset="100%" stop-color="#41b883" />
    </linearGradient>

    <linearGradient id="thread-8" x1="0%" y1="0%" x2="100%" y2="0%">
      <stop offset="0%" stop-color="#3178c6" />
      <stop offset="50%" stop-color="#f1e05a" />
      <stop offset="100%" stop-color="#89e051" />
    </linearGradient>

    <linearGradient id="thread-9" x1="0%" y1="0%" x2="100%" y2="0%">
      <stop offset="0%" stop-color="#3178c6" />
      <stop offset="50%" stop-color="#3572A5" />
      <stop offset="100%" stop-color="#f1e05a" />
    </linearGradient>

    <linearGradient id="thread-10" x1="0%" y1="0%" x2="100%" y2="0%">
      <stop offset="0%" stop-color="#3178c6" />
      <stop offset="50%" stop-color="#3572A5" />
      <stop offset="100%" stop-color="#f1e05a" />
    </linearGradient>

    <linearGradient id="thread-11" x1="0%" y1="0%" x2="100%" y2="0%">
      <stop offset="0%" stop-color="#3178c6" />
      <stop offset="50%" stop-color="#f1e05a" />
      <stop offset="100%" stop-color="#3572A5" />
    </linearGradient>

    <linearGradient id="thread-12" x1="0%" y1="0%" x2="100%" y2="0%">
      <stop offset="0%" stop-color="#3572A5" />
      <stop offset="50%" stop-color="#3178c6" />
      <stop offset="100%" stop-color="#89e051" />
    </linearGradient>

    <linearGradient id="thread-13" x1="0%" y1="0%" x2="100%" y2="0%">
      <stop offset="0%" stop-color="#3178c6" />
      <stop offset="50%" stop-color="#89e051" />
      <stop offset="100%" stop-color="#3572A5" />
    </linearGradient>

    <linearGradient id="thread-14" x1="0%" y1="0%" x2="100%" y2="0%">
      <stop offset="0%" stop-color="#3572A5" />
      <stop offset="50%" stop-color="#3178c6" />
      <stop offset="100%" stop-color="#89e051" />
    </linearGradient>

    <linearGradient id="thread-15" x1="0%" y1="0%" x2="100%" y2="0%">
      <stop offset="0%" stop-color="#3178c6" />
      <stop offset="50%" stop-color="#3572A5" />
      <stop offset="100%" stop-color="#8b8b8b" />
    </linearGradient>

    <linearGradient id="thread-16" x1="0%" y1="0%" x2="100%" y2="0%">
      <stop offset="0%" stop-color="#3178c6" />
      <stop offset="50%" stop-color="#89e051" />
      <stop offset="100%" stop-color="#3572A5" />
    </linearGradient>

    <linearGradient id="thread-17" x1="0%" y1="0%" x2="100%" y2="0%">
      <stop offset="0%" stop-color="#3572A5" />
      <stop offset="50%" stop-color="#3178c6" />
      <stop offset="100%" stop-color="#89e051" />
    </linearGradient>

    <linearGradient id="thread-18" x1="0%" y1="0%" x2="100%" y2="0%">
      <stop offset="0%" stop-color="#3572A5" />
      <stop offset="50%" stop-color="#3178c6" />
      <stop offset="100%" stop-color="#8b8b8b" />
    </linearGradient>

    <linearGradient id="thread-19" x1="0%" y1="0%" x2="100%" y2="0%">
      <stop offset="0%" stop-color="#3572A5" />
      <stop offset="50%" stop-color="#3178c6" />
      <stop offset="100%" stop-color="#8b8b8b" />
    </linearGradient>

    <linearGradient id="thread-20" x1="0%" y1="0%" x2="100%" y2="0%">
      <stop offset="0%" stop-color="#3178c6" />
      <stop offset="50%" stop-color="#3572A5" />
      <stop offset="100%" stop-color="#dea584" />
    </linearGradient>

    <linearGradient id="thread-21" x1="0%" y1="0%" x2="100%" y2="0%">
      <stop offset="0%" stop-color="#3572A5" />
      <stop offset="50%" stop-color="#3178c6" />
      <stop offset="100%" stop-color="#00ADD8" />
    </linearGradient>

    <linearGradient id="thread-22" x1="0%" y1="0%" x2="100%" y2="0%">
      <stop offset="0%" stop-color="#3572A5" />
      <stop offset="50%" stop-color="#00ADD8" />
      <stop offset="100%" stop-color="#3178c6" />
    </linearGradient>

    <linearGradient id="thread-23" x1="0%" y1="0%" x2="100%" y2="0%">
      <stop offset="0%" stop-color="#3572A5" />
      <stop offset="50%" stop-color="#3178c6" />
      <stop offset="100%" stop-color="#00ADD8" />
    </linearGradient>

    <linearGradient id="thread-24" x1="0%" y1="0%" x2="100%" y2="0%">
      <stop offset="0%" stop-color="#3572A5" />
      <stop offset="50%" stop-color="#00ADD8" />
      <stop offset="100%" stop-color="#DA5B0B" />
    </linearGradient>

    <linearGradient id="thread-25" x1="0%" y1="0%" x2="100%" y2="0%">
      <stop offset="0%" stop-color="#3572A5" />
      <stop offset="50%" stop-color="#3178c6" />
      <stop offset="100%" stop-color="#dea584" />
    </linearGradient>

    <linearGradient id="thread-26" x1="0%" y1="0%" x2="100%" y2="0%">
      <stop offset="0%" stop-color="#dea584" />
      <stop offset="50%" stop-color="#3572A5" />
      <stop offset="100%" stop-color="#3178c6" />
    </linearGradient>

    <linearGradient id="thread-27" x1="0%" y1="0%" x2="100%" y2="0%">
      <stop offset="0%" stop-color="#3572A5" />
      <stop offset="50%" stop-color="#3178c6" />
      <stop offset="100%" stop-color="#dea584" />
    </linearGradient>

    <linearGradient id="thread-28" x1="0%" y1="0%" x2="100%" y2="0%">
      <stop offset="0%" stop-color="#3572A5" />
      <stop offset="50%" stop-color="#dea584" />
      <stop offset="100%" stop-color="#3178c6" />
    </linearGradient>

    <linearGradient id="thread-29" x1="0%" y1="0%" x2="100%" y2="0%">
      <stop offset="0%" stop-color="#3572A5" />
      <stop offset="50%" stop-color="#3178c6" />
      <stop offset="100%" stop-color="#89e051" />
    </linearGradient>

    <linearGradient id="thread-30" x1="0%" y1="0%" x2="100%" y2="0%">
      <stop offset="0%" stop-color="#3572A5" />
      <stop offset="50%" stop-color="#f1e05a" />
      <stop offset="100%" stop-color="#89e051" />
    </linearGradient>

    <linearGradient id="thread-31" x1="0%" y1="0%" x2="100%" y2="0%">
      <stop offset="0%" stop-color="#3572A5" />
      <stop offset="50%" stop-color="#89e051" />
      <stop offset="100%" stop-color="#dea584" />
    </linearGradient>

    <linearGradient id="thread-32" x1="0%" y1="0%" x2="100%" y2="0%">
      <stop offset="0%" stop-color="#3572A5" />
      <stop offset="50%" stop-color="#89e051" />
      <stop offset="100%" stop-color="#00ADD8" />
    </linearGradient>

    <linearGradient id="thread-33" x1="0%" y1="0%" x2="100%" y2="0%">
      <stop offset="0%" stop-color="#3572A5" />
      <stop offset="50%" stop-color="#3178c6" />
      <stop offset="100%" stop-color="#3572A5" />
    </linearGradient>

    <linearGradient id="thread-34" x1="0%" y1="0%" x2="100%" y2="0%">
      <stop offset="0%" stop-color="#3572A5" />
      <stop offset="50%" stop-color="#3178c6" />
      <stop offset="100%" stop-color="#3572A5" />
    </linearGradient>

    <linearGradient id="thread-35" x1="0%" y1="0%" x2="100%" y2="0%">
      <stop offset="0%" stop-color="#3572A5" />
      <stop offset="50%" stop-color="#3178c6" />
      <stop offset="100%" stop-color="#3572A5" />
    </linearGradient>

    <!-- Background pattern -->
    <pattern id="loom" patternUnits="userSpaceOnUse" width="20" height="20">
      <rect width="20" height="20" fill="#fafafa"/>
      <circle cx="10" cy="10" r="0.5" fill="#eee"/>
    </pattern>
  </defs>

  <!-- Background -->
  <rect width="100%" height="100%" fill="url(#loom)"/>

  <!-- Threads -->
  <g id="tapestry">
    
    <path
      d="M 20,20 L 35.2,19.94169410529056 L 50.400000000000006,20.116599400298288 L 65.6,19.825131869721552 L 80.80000000000001,20.233099703426277 L 96,19.708718253586618 L 111.2,20.34940189643579 L 126.4,19.592552196159147 L 141.60000000000002,20.465407134751324 L 156.79999999999998,19.476732426313795 L 172,20.581016826177486 L 187.2,19.36135737861736 L 202.4,20.696132714691945 L 217.6,19.24652510966975 L 232.8,20.810656963952685 L 248,19.13233321476639 L 263.20000000000005,20.92449224044848 L 278.40000000000003,19.018878744952293 L 293.59999999999997,21.037541796222268 L 308.8,18.9062581245393 L 324,21.149709551096457 L 339.2,18.794567069155015 L 354.4,21.260900174331137 L 369.6,18.68390050439526 L 384.8,21.371019165645052 L 400,18.574352485147 L 415.2,21.47997293553078 L 430.40000000000003,18.466016115651687 L 445.6,21.587668884796035 L 460.79999999999995,18.358983470376568 L 476,21.694015483263104 L 491.2,18.2533455157609 L 506.40000000000003,21.79892234756003 L 521.6,18.149192032904335 L 536.8000000000001,21.90230031793667 L 552,18.0466115412626 L 567.1999999999999,22.004061534041032 L 582.4,17.945691223414574 L 597.6,22.104119509591623 L 612.8000000000001,17.846516850967383 L 628,22.20238920588159 L 643.1999999999999,17.74917271165874 L 658.4,22.298787104052085 L 673.6,17.65374153772148 L 688.8,22.39323127607525 L 704,17.56030443557015 L 719.2,22.485641454383845 L 734.4,17.46894081686923 L 749.6,22.575939100090412 L 764.8,17.379728331040823 L 780,22.664047469737"
      stroke="url(#thread-0)"
      stroke-width="8"
      stroke-linecap="round"
      fill="none"
      opacity="1"
      class="thread"
      style="animation-delay: 0s"
    >
      <title>2026-01-27: 12558 stars, TypeScript, JavaScript, Python, Shell</title>
    </path>

    <path
      d="M 20,33.917702154416816 L 35.2,35.80533147885732 L 50.400000000000006,31.495239460392682 L 65.6,28.00724800971353 L 80.80000000000001,31.022228603550268 L 96,35.62969980850149 L 111.2,34.32549995497148 L 126.4,29.233771791771154 L 141.60000000000002,28.64738349206003 L 156.79999999999998,33.52138228379754 L 172,35.91751456025287 L 187.2,31.933213558787383 L 202.4,28.057687247363987 L 217.6,30.602982886189274 L 232.8,35.42359220813908 L 248,34.66821672674688 L 263.20000000000005,29.567132114169773 L 278.40000000000003,28.428445338483943 L 293.59999999999997,33.10672895710325 L 308.8,35.982489532366124 L 324,32.37199246889799 L 339.2,28.155633425547528 L 354.4,30.200571959245433 L 369.6,35.17622852241589 L 384.8,34.97878008469631 L 400,29.92980977317486 L 415.2,28.252546295592772 L 430.40000000000003,32.67873896483972 L 445.6,35.99947341263582 L 460.79999999999995,32.8062886742595 L 476,28.299906241341883 L 491.2,29.819845085873602 L 506.40000000000003,34.890589613745725 L 521.6,35.253447577141344 L 536.8000000000001,30.317434312391836 L 552,28.12180603929629 L 567.1999999999999,32.24256981134177 L 582.4,35.96826153637893 L 597.6,33.23086867735497 L 612.8000000000001,28.48876713149486 L 628,29.465390224987065 L 643.1999999999999,34.57011758109418 L 658.4,35.48890931644788 L 673.6,30.725334652409007 L 688.8,28.03780005839277 L 704,31.803477564135765 L 719.2,35.889230023107594 L 734.4,33.640616066011134 L 749.6,28.719940223025134 L 764.8,29.141478743941615 L 780,34.21867428087737"
      stroke="url(#thread-1)"
      stroke-width="8"
      stroke-linecap="round"
      fill="none"
      opacity="0.9833333333333333"
      class="thread"
      style="animation-delay: 0.1s"
    >
      <title>2026-01-26: 5507 stars, TypeScript, JavaScript, Python, Rust, Shell</title>
    </path>

    <path
      d="M 20,47.36588393923159 L 35.2,47.57497183326103 L 50.400000000000006,44.278372672791434 L 65.6,40.70879584400801 L 80.80000000000001,40.366637954872516 L 96,43.58742569999471 L 111.2,47.21279184461388 L 126.4,47.687631690347786 L 141.60000000000002,44.54630803002681 L 156.79999999999998,40.869264068131635 L 172,40.262280777845824 L 187.2,43.32057780349064 L 202.4,47.045129476705505 L 217.6,47.78356783668005 L 232.8,44.811765835748304 L 248,41.04393043528304 L 263.20000000000005,40.17487446261925 L 278.40000000000003,43.0568111421122 L 293.59999999999997,46.86365719803198 L 308.8,47.86234519400247 L 324,45.07354221713642 L 339.2,41.232002819228335 L 354.4,40.10481540396774 L 369.6,42.79732191920122 L 384.8,46.66919800019154 L 400,47.92360650056864 L 415.2,45.3304499969315 L 430.40000000000003,41.432628296353066 L 445.6,40.05242132544153 L 460.79999999999995,42.54328693956693 L 476,46.462633771521 L 491.2,47.96707393135222 L 506.40000000000003,45.58132407737958 L 521.6,41.64489701374053 L 536.8000000000001,40.017929838463914 L 552,42.29585827258009 L 567.1999999999999,46.244901297660206 L 582.4,47.992550358006156 L 597.6,45.82502672404583 L 612.8000000000001,41.86784631542887 L 628,40.00149736474403 L 643.1999999999999,42.0561580274442 L 658.4,46.01698801315261 L 673.6,47.999920242855815 L 688.8,46.06045272553296 L 704,42.10046510813447 L 719.2,40.00319842689167 L 734.4,41.82527326433886 L 749.6,45.77992752334918 L 764.8,47.989150162871766 L 780,46.286534405705325"
      stroke="url(#thread-2)"
      stroke-width="8"
      stroke-linecap="round"
      fill="none"
      opacity="0.9666666666666667"
      class="thread"
      style="animation-delay: 0.2s"
    >
      <title>2026-01-25: 4122 stars, Shell, Python, TypeScript</title>
    </path>

    <path
      d="M 20,59.98997994641622 L 35.2,56.676017111930946 L 50.400000000000006,52.143683847706086 L 65.6,54.5615024136053 L 80.80000000000001,59.5718928117603 L 96,58.14474116661169 L 111.2,52.852170775802996 L 126.4,53.232862166307775 L 141.60000000000002,58.60070381097455 L 156.79999999999998,59.28135549568345 L 172,54.04809400445993 L 187.2,52.33270876906758 L 202.4,57.22680000128834 L 217.6,59.909857195472966 L 232.8,55.54626674214148 L 248,52.00042952997455 L 263.20000000000005,55.66292818140695 L 278.40000000000003,59.93292378702041 L 293.59999999999997,57.114699346194314 L 308.8,52.287477355625825 L 324,54.15125139136231 L 339.2,59.34698344566512 L 354.4,58.5105225464812 L 369.6,53.149403351162775 L 384.8,52.92585035463136 L 400,58.24276809235879 L 415.2,59.5175953618607 L 430.40000000000003,54.4527396602635 L 445.6,52.17647645399407 L 460.79999999999995,56.791263701403885 L 476,59.97997418403609 L 491.2,55.9956667483706 L 506.40000000000003,52.01916903461407 L 521.6,55.21723339690357 L 536.8000000000001,59.82606039488478 L 552,57.53926483353417 L 567.1999999999999,52.478286897777004 L 582.4,53.76441324392044 L 597.6,59.079687297500925 L 612.8000000000001,58.84451023098753 L 628,53.482736379626836 L 643.1999999999999,52.65777011019487 L 658.4,57.85642956748313 L 673.6,59.70928778690754 L 688.8,54.87698009085137 L 704,52.06866590792879 L 719.2,56.345706700008655 L 734.4,59.999688085426 L 749.6,56.44512163165411 L 764.8,52.08832247685527 L 780,54.781451705176075"
      stroke="url(#thread-3)"
      stroke-width="8"
      stroke-linecap="round"
      fill="none"
      opacity="0.95"
      class="thread"
      style="animation-delay: 0.30000000000000004s"
    >
      <title>2026-01-24: 5856 stars, Shell, TypeScript, Python, Rust</title>
    </path>

    <path
      d="M 20,71.63718970730272 L 35.2,67.66186883915596 L 50.400000000000006,64.13437437660659 L 65.6,65.72657732374947 L 80.80000000000001,70.32973821681935 L 96,71.84735594664816 L 111.2,68.26947292363182 L 126.4,64.33469558039184 L 141.60000000000002,65.25430698841653 L 156.79999999999998,69.8103588510329 L 172,71.96874202474237 L 187.2,68.87085875070059 L 202.4,64.61959599179919 L 217.6,64.84539524836178 L 232.8,69.24920431472779 L 248,71.9985468813933 L 263.20000000000005,69.45214896369404 L 278.40000000000003,64.98250135442603 L 293.59999999999997,64.50927799948956 L 308.8,68.65922360220311 L 324,71.93608275076478 L 339.2,69.99992992489346 L 354.4,65.41503739849864 L 369.6,64.25371135897956 L 384.8,68.054030889927 L 400,71.78279103200641 L 415.2,70.50156124366691 L 430.40000000000003,65.90722308242054 L 445.6,64.08459268799868 L 460.79999999999995,67.44759138084113 L 476,71.54220902806043 L 491.2,70.94546746144313 L 506.40000000000003,66.44770091159286 L 521.6,64.00582450637827 L 536.8000000000001,66.8538990485088 L 552,71.21988832016875 L 567.1999999999999,71.32140516270736 L 582.4,67.02399901975417 L 597.6,64.01922443951172 L 612.8000000000001,66.28665371736228 L 628,70.82326666163989 L 643.1999999999999,71.62069934826502 L 658.4,67.62281896514845 L 673.6,64.12448327550361 L 688.8,65.75894493062738 L 704,70.36149634700763 L 719.2,71.8364436163108 L 734.4,68.23034260044282 L 749.6,64.31917210042918 L 764.8,65.2829499008702 L 780,69.84523301707114"
      stroke="url(#thread-4)"
      stroke-width="8"
      stroke-linecap="round"
      fill="none"
      opacity="0.9333333333333333"
      class="thread"
      style="animation-delay: 0.4s"
    >
      <title>2026-01-23: 4879 stars, Unknown, Rust, Python, Shell, TypeScript, JavaScript</title>
    </path>

    <path
      d="M 20,82.39388857641583 L 35.2,76.76382333275794 L 50.400000000000006,77.69232290428147 L 65.6,83.29765299559179 L 80.80000000000001,82.21982789068174 L 96,76.64321097166747 L 111.2,77.8695966934117 L 126.4,83.41354279749554 L 141.60000000000002,82.03946680674436 L 156.79999999999998,76.53212597423061 L 172,78.05291707255975 L 187.2,83.51974415508407 L 202.4,81.85331723215018 L 217.6,76.43088362602478 L 232.8,78.24176373499726 L 248,83.61595564370852 L 263.20000000000005,81.6619075035555 L 278.40000000000003,76.33977127685371 L 293.59999999999997,78.43560068909274 L 308.8,83.70190419233816 L 324,81.46578088718165 L 339.2,76.25904752518058 L 354.4,78.63387777958303 L 369.6,83.77734585860091 L 384.8,81.26549403689653 L 400,76.18894148416415 L 415.2,78.83603224904456 L 430.40000000000003,83.8420665211495 L 445.6,81.06161541429883 L 460.79999999999995,76.12965213138136 L 476,79.0414903351322 L 491.2,83.8958824873888 L 506.40000000000003,80.85472367528934 L 521.6,76.08134774408168 L 536.8000000000001,79.24966889905316 L 552,83.93864101483888 L 567.1999999999999,80.64540602770796 L 582.4,76.04416542157638 L 597.6,79.45997708065303 L 612.8000000000001,83.97022074465448 L 628,80.43425656469871 L 643.1999999999999,76.01821069611816 L 658.4,79.67181797541735 L 673.6,83.99053204607014 L 688.8,80.22187457853242 L 704,76.00355723337557 L 719.2,79.88459032862805 L 734.4,83.99951727079365 L 749.6,80.0088628596729 L 764.8,76.00024662335238 L 780,80.0976902418667"
      stroke="url(#thread-5)"
      stroke-width="8"
      stroke-linecap="round"
      fill="none"
      opacity="0.9166666666666667"
      class="thread"
      style="animation-delay: 0.5s"
    >
      <title>2026-01-22: 6303 stars, Rust, Unknown, Shell, TypeScript, Python</title>
    </path>

    <path
      d="M 20,92.56448003223947 L 35.2,88.82304814533923 L 50.400000000000006,88.32564416203451 L 65.6,91.58017392258313 L 80.80000000000001,95.26339368918248 L 96,95.61431864225027 L 111.2,92.27461463260836 L 126.4,88.65449795961109 L 141.60000000000002,88.45051803248096 L 156.79999999999998,91.87096147489238 L 172,95.42316787602597 L 187.2,95.47993191084586 L 202.4,91.98329106644644 L 217.6,88.50371193691295 L 232.8,88.59423917176234 L 248,92.16243420430496 L 263.20000000000005,95.5647655047641 L 278.40000000000003,95.32706721199405 L 293.59999999999997,91.69205622246017 L 308.8,88.37149073061687 L 324,88.75604444008133 L 339.2,92.45304443007768 L 354.4,95.68743471115309 L 369.6,95.15653623655591 L 384.8,91.4024565182533 L 400,88.2585364174325 L 415.2,88.93507467336306 L 430.40000000000003,92.74124905124505 L 445.6,95.79052413830998 L 460.79999999999995,94.96924448093012 L 476,91.11602968905865 L 491.2,88.16544876947478 L 506.40000000000003,89.13037924530003 L 521.6,93.02551774027629 L 536.8000000000001,95.87348639532942 L 552,94.76618643898965 L 567.1999999999999,90.83429662257215 L 582.4,88.09272206955522 L 597.6,89.34092111504923 L 612.8000000000001,93.30434106890762 L 628,95.93588096385537 L 643.1999999999999,94.54844032145387 L 658.4,90.55875328324507 L 673.6,88.04074248660704 L 688.8,89.56558233377851 L 704,93.57623852300208 L 719.2,95.97737653717385 L 734.4,94.31716233073548 L 749.6,90.29086276891518 L 764.8,88.0097860251804 L 780,89.80316998082371"
      stroke="url(#thread-6)"
      stroke-width="8"
      stroke-linecap="round"
      fill="none"
      opacity="0.9"
      class="thread"
      style="animation-delay: 0.6000000000000001s"
    >
      <title>2026-01-21: 4215 stars, Unknown, TypeScript, Python, Shell, JavaScript</title>
    </path>

    <path
      d="M 20,102.59686708924153 L 35.2,100.3537903802227 L 50.400000000000006,105.87931792076813 L 65.6,107.40077583614121 L 80.80000000000001,101.67655005051093 L 96,100.90266037648169 L 111.2,106.72795403823602 L 126.4,106.74107628255256 L 141.60000000000002,100.91406889155806 L 156.79999999999998,101.66193788530877 L 172,107.3912756299002 L 187.2,105.89517078693805 L 202.4,100.36122024547318 L 217.6,102.58004390297825 L 232.8,107.82422213957403 L 248,104.92052313849553 L 263.20000000000005,100.05556005464183 L 278.40000000000003,103.59460993686992 L 293.59999999999997,107.99738277953378 L 308.8,103.88334279833217 L 324,100.01785233214017 L 339.2,104.63671480252394 L 354.4,107.89899445500872 L 369.6,102.85408717893226 L 384.8,100.25065862725255 L 400,105.63556655612108 L 415.2,107.53574085107873 L 430.40000000000003,101.90267535311251 L 445.6,100.73816401510192 L 460.79999999999995,106.523311510806 L 476,106.93229839865697 L 491.2,101.09373833330002 L 506.40000000000003,101.4472514312107 L 521.6,107.23964365225225 L 536.8000000000001,106.12965996285509 L 552,100.4822285776852 L 567.1999999999999,102.3297513696313 L 582.4,107.73590132808235 L 597.6,105.18235012841245 L 612.8000000000001,100.10968697691276 L 628,103.32571411885172 L 643.1999999999999,107.97837291611214 L 658.4,104.15472125255275 L 673.6,100.00142091121037 L 688.8,104.36748224696412 L 704,107.95058691179031 L 719.2,103.11658190065616 L 734.4,100.16478507730132 L 749.6,105.3842866852991 L 764.8,107.65443086532579 L 780,102.13845463249406"
      stroke="url(#thread-7)"
      stroke-width="8"
      stroke-linecap="round"
      fill="none"
      opacity="0.8833333333333333"
      class="thread"
      style="animation-delay: 0.7000000000000001s"
    >
      <title>2026-01-20: 6510 stars, Python, Vue, TypeScript, Unknown, Shell, JavaScript</title>
    </path>

    <path
      d="M 20,112.9727900187683 L 35.2,112.36647850731582 L 50.400000000000006,116.017587141168 L 65.6,119.64808881032829 L 80.80000000000001,119.00410171584058 L 96,114.84018961490526 L 111.2,112.03523468765881 L 126.4,113.87582038708882 L 141.60000000000002,118.20532079211831 L 156.79999999999998,119.95083285797665 L 172,117.06712904217645 L 187.2,112.93306336916717 L 202.4,112.3925467704568 L 217.6,116.0789059680296 L 232.8,119.6728105431238 L 248,118.96325974368234 L 263.20000000000005,114.78163873523717 L 278.40000000000003,112.0275793370106 L 293.59999999999997,113.92803038829891 L 308.8,118.25622135610517 L 324,119.94078347154631 L 339.2,117.00790463505552 L 354.4,112.89405755426755 L 369.6,112.41946290813345 L 384.8,116.14020624929775 L 400,119.69666904018604 L 415.2,118.92172130442688 L 430.40000000000003,114.72337421201665 L 445.6,112.02085764069156 L 460.79999999999995,113.98072737302913 L 476,118.30659163112834 L 491.2,119.9298078666057 L 506.40000000000003,116.94844333597224 L 521.6,112.85578174176611 L 536.8000000000001,112.44722059413552 L 552,116.20147357731582 L 567.1999999999999,119.71965869395454 L 582.4,118.87949616102398 L 597.6,114.66540973939374 L 612.8000000000001,112.01507117852958 L 628,114.03389895569093 L 643.1999999999999,118.35641977845538 L 658.4,119.91790862279629 L 673.6,116.88875912035988 L 688.8,112.81824492778419 L 704,112.47581330446009 L 719.2,116.26269355217224 L 734.4,119.74177410107663 L 749.6,118.8365942378224 L 764.8,114.60775894099622 L 780,112.01022131054062"
      stroke="url(#thread-8)"
      stroke-width="8"
      stroke-linecap="round"
      fill="none"
      opacity="0.8666666666666667"
      class="thread"
      style="animation-delay: 0.8s"
    >
      <title>2026-01-19: 4551 stars, JavaScript, TypeScript, Shell, Python</title>
    </path>

    <path
      d="M 20,124.08987952933961 L 35.2,124.99022116507159 L 50.400000000000006,128.3182770806683 L 65.6,131.38960788253738 L 80.80000000000001,131.7268509288276 L 96,129.05798298987088 L 111.2,125.53573659580763 L 126.4,124.00118690100976 L 141.60000000000002,125.692115287946 L 156.79999999999998,129.24460393529532 L 172,131.79318401918894 L 187.2,131.28214825932943 L 202.4,128.12370262824035 L 217.6,124.865477361003 L 232.8,124.13558583142827 L 248,126.52276501531558 L 263.20000000000005,130.10149502859116 L 278.40000000000003,131.98514052908826 L 293.59999999999997,130.65433636389574 L 308.8,127.18252096578077 L 324,124.37009140088144 L 339.2,124.48557827901656 L 354.4,127.43582886087789 L 369.6,130.8411448830432 L 384.8,131.9547682653097 L 400,129.87844051899876 L 415.2,126.28694600397795 L 430.40000000000003,124.07721602263625 L 445.6,125.03163835978118 L 460.79999999999995,128.38036750051333 L 476,131.42228884464717 L 491.2,131.7037616795571 L 506.40000000000003,128.99774752229055 L 521.6,125.48694137185348 L 536.8000000000001,124.00319058072948 L 552,125.74330168552176 L 567.1999999999999,129.30368564884645 L 582.4,131.81250521500357 L 597.6,131.24612428964576 L 612.8000000000001,128.06139074623712 L 628,124.82713888289018 L 643.1999999999999,124.15214491339393 L 658.4,126.58086495510538 L 673.6,130.15427189990922 L 688.8,131.9900240398392 L 704,130.60738743103184 L 719.2,127.12160901459514 L 734.4,124.34434855098091 L 749.6,124.51576894125505 L 764.8,127.49760097955469 L 780,130.88467251983064"
      stroke="url(#thread-9)"
      stroke-width="7.412"
      stroke-linecap="round"
      fill="none"
      opacity="0.85"
      class="thread"
      style="animation-delay: 0.9s"
    >
      <title>2026-01-18: 3706 stars, JavaScript, Shell, Vue, TypeScript, Python, HTML</title>
    </path>

    <path
      d="M 20,136.16430290134744 L 35.2,141.1221105022482 L 50.400000000000006,143.84302953095656 L 65.6,138.90300177842428 L 80.80000000000001,136.14980213296496 L 96,141.0718390994033 L 111.2,143.85720180080216 L 126.4,138.953365789982 L 141.60000000000002,136.13595896680795 L 156.79999999999998,141.02138462966118 L 172,143.87071527217148 L 187.2,139.00390856351754 L 202.4,136.12277576724756 L 217.6,140.9707557104937 L 232.8,143.88356763700418 L 248,139.0546214664771 L 263.20000000000005,136.1102547859347 L 278.40000000000003,140.9199609891681 L 293.59999999999997,143.895756700155 L 308.8,139.1054958372492 L 324,136.09839816141533 L 339.2,140.86900914127006 L 354.4,143.9072803797686 L 369.6,139.15652298664423 L 384.8,136.08720791876527 L 400,140.8179088692222 L 415.2,143.91813670763506 L 430.40000000000003,139.2076941993784 L 445.6,136.07668596924438 L 460.79999999999995,140.76666890079736 L 476,143.92832382952625 L 491.2,139.2590007355624 L 506.40000000000003,136.06683410997 L 521.6,140.71529798762822 L 536.8000000000001,143.93784000551236 L 552,139.31043383219395 L 567.1999999999999,136.05765402361004 L 582.4,140.66380490371228 L 597.6,143.94668361025916 L 612.8000000000001,139.36198470465482 L 628,136.04914727809572 L 643.1999999999999,140.61219844391357 L 658.4,143.95485313330548 L 673.6,139.41364454821075 L 688.8,136.0413153263536 L 704,140.5604874224604 L 719.2,143.96234717932137 L 734.4,139.46540453951582 L 749.6,136.0341595060575 L 764.8,140.50868067143978 L 780,143.96916446834626"
      stroke="url(#thread-10)"
      stroke-width="8"
      stroke-linecap="round"
      fill="none"
      opacity="0.8333333333333333"
      class="thread"
      style="animation-delay: 1s"
    >
      <title>2026-01-17: 6237 stars, JavaScript, TypeScript, Shell, Python</title>
    </path>

    <path
      d="M 20,149.17783869771844 L 35.2,154.44352151415745 L 50.400000000000006,155.45781582892855 L 65.6,150.45599022381384 L 80.80000000000001,148.14052746466083 L 96,152.54001158204545 L 111.2,155.99995044993094 L 126.4,152.5005303551263 L 141.60000000000002,148.13025686934859 L 156.79999999999998,150.49279967135075 L 172,155.47766198631984 L 187.2,154.4118748203386 L 202.4,149.14976001032372 L 217.6,148.84666743477527 L 232.8,154.0299361341567 L 248,155.68139752598114 L 263.20000000000005,150.92773785734232 L 278.40000000000003,148.0396655869141 L 293.59999999999997,152.04202587007796 L 308.8,155.97126696857868 L 324,152.99105438334925 L 339.2,148.28654463704024 L 354.4,150.04293214089836 L 369.6,155.20434626104043 L 384.8,154.79064235147806 L 400,149.52160783131853 L 415.2,148.56463191490303 L 430.40000000000003,153.5847199577603 L 445.6,155.84761508549445 L 460.79999999999995,151.41619365471226 L 476,148.0005142868408 L 491.2,151.5433853041388 L 506.40000000000003,155.88070255668768 L 521.6,153.4661356403001 L 536.8000000000001,148.50069607272303 L 552,149.62355996147804 L 567.1999999999999,154.8810998889497 L 582.4,155.125925637696 L 597.6,149.93207436388616 L 612.8000000000001,148.33612686163778 L 628,153.11481041614687 L 643.1999999999999,155.95387847830756 L 658.4,151.9137464179086 L 673.6,148.02368362639328 L 688.8,151.05185978297015 L 704,155.72966840371606 L 719.2,153.91837133223723 L 734.4,148.76937423374844 L 749.6,149.24121785888624 L 764.8,154.51295974781405 L 780,155.41250024006422"
      stroke="url(#thread-11)"
      stroke-width="8"
      stroke-linecap="round"
      fill="none"
      opacity="0.8166666666666667"
      class="thread"
      style="animation-delay: 1.1s"
    >
      <title>2026-01-16: 5731 stars, JavaScript, TypeScript, Shell, Python, C</title>
    </path>

    <path
      d="M 20,162.88233800720428 L 35.2,166.44784651681033 L 50.400000000000006,167.99826363606775 L 65.6,166.25727070405992 L 80.80000000000001,162.65807026998846 L 96,160.1635596221552 L 111.2,160.8272445237122 L 126.4,164.10277301923767 L 141.60000000000002,167.2936977519031 L 156.79999999999998,167.7732180167267 L 172,165.14658800325515 L 187.2,161.57607543923578 L 202.4,160.0009614754584 L 217.6,161.71789545877897 L 232.8,165.31348040379555 L 248,167.82779532844788 L 263.20000000000005,167.19103139362056 L 278.40000000000003,163.92737894946137 L 293.59999999999997,160.72350887020684 L 308.8,160.21687859780226 L 324,162.82455116826785 L 339.2,166.3998648078742 L 354.4,167.9995860730659 L 369.6,166.3068086438152 L 384.8,162.7150435920109 L 400,160.1810673259537 L 415.2,160.79087409488002 L 430.40000000000003,164.04246495343074 L 445.6,167.2590982435791 L 460.79999999999995,167.79280972231658 L 476,165.20424283752757 L 491.2,161.6243313740952 L 506.40000000000003,160.00009374948675 L 521.6,161.66861839255256 L 536.8000000000001,165.25635936414298 L 552,167.80985291846994 L 567.1999999999999,167.2270379821375 L 582.4,163.98769355775252 L 597.6,160.75847991797698 L 612.8000000000001,160.1977175736847 L 628,162.76703161625912 L 643.1999999999999,166.3513373903763 L 658.4,167.999999038682 L 673.6,166.35582203517797 L 688.8,162.77230910203951 L 704,160.19944342210925 L 719.2,160.75523339360433 L 734.4,163.98214723145955 L 749.6,167.22375764441975 L 764.8,167.81153897568342 L 780,165.26162383736363"
      stroke="url(#thread-12)"
      stroke-width="7.494"
      stroke-linecap="round"
      fill="none"
      opacity="0.8"
      class="thread"
      style="animation-delay: 1.2000000000000002s"
    >
      <title>2026-01-15: 3747 stars, TypeScript, Shell, Python, JavaScript, C</title>
    </path>

    <path
      d="M 20,176.86047995235126 L 35.2,179.76033835489636 L 50.400000000000006,179.164511275242 L 65.6,175.6268914420936 L 80.80000000000001,172.4361207608199 L 96,172.55840325213956 L 111.2,175.88006267490348 L 126.4,179.31321822555384 L 141.60000000000002,179.6663400778147 L 156.79999999999998,176.61115911973553 L 172,172.98783246290787 L 187.2,172.16467678421964 L 202.4,174.90691400893556 L 217.6,178.66530575729536 L 232.8,179.94597615133392 L 248,177.55838846764865 L 263.20000000000005,173.7220918041204 L 278.40000000000003,172.00338400058155 L 293.59999999999997,174.00001008685118 L 308.8,177.85586665828077 L 324,179.9864725948034 L 339.2,178.41117415261638 L 354.4,174.59440016092717 L 369.6,172.08429979471921 L 384.8,173.21431238335273 L 400,176.93395570209776 L 415.2,179.7853751854559 L 430.40000000000003,179.11783444991616 L 445.6,175.55189266802333 L 460.79999999999995,172.4025203931852 L 476,172.5974368623842 L 491.2,175.95544384096326 L 506.40000000000003,179.35487111303388 L 521.6,179.63554333232784 L 536.8000000000001,176.53654200969777 L 552,172.9387605410076 L 567.1999999999999,172.18676828711023 L 582.4,174.97963223522308 L 597.6,178.7210503944724 L 612.8000000000001,179.9329258736316 L 628,177.48867507332483 L 643.1999999999999,173.66052225399952 L 658.4,172.00719457560172 L 673.6,174.06565840052488 L 688.8,177.9223247297772 L 704,179.99195967628037 L 719.2,178.35058934376963 L 734.4,174.5240643075794 L 749.6,172.06959850800988 L 764.8,173.26891227241887 L 780,177.00709962183046"
      stroke="url(#thread-13)"
      stroke-width="8"
      stroke-linecap="round"
      fill="none"
      opacity="0.7833333333333333"
      class="thread"
      style="animation-delay: 1.3s"
    >
      <title>2026-01-14: 4003 stars, TypeScript, Shell, Python, C, HTML, Jupyter Notebook</title>
    </path>

    <path
      d="M 20,190.62794639487515 L 35.2,191.6605129041071 L 50.400000000000006,187.54845954764946 L 65.6,184.0710177995046 L 80.80000000000001,186.11551256958109 L 96,190.80853548998803 L 111.2,191.55433903054384 L 126.4,187.3047433838942 L 141.60000000000002,184.03228703238455 L 156.79999999999998,186.3362008479206 L 172,190.9784793665837 L 187.2,191.43469311228003 L 202.4,187.06366245783857 L 217.6,184.0085951250917 L 232.8,186.5631954398551 L 248,191.13713388478635 L 263.20000000000005,191.30202864436643 L 278.40000000000003,186.82613054078698 L 293.59999999999997,184.00003187728535 L 308.8,186.79563596564506 L 324,191.28389769488143 L 339.2,191.15684846618518 L 354.4,186.5930479522016 L 369.6,184.00662974632436 L 384.8,187.0326414037766 L 400,191.4182145166174 L 415.2,190.99970285553277 L 430.40000000000003,186.365298147213 L 445.6,184.02836372424355 L 460.79999999999995,187.27331343030548 L 476,191.5395752476799 L 491.2,190.83118744289732 L 506.40000000000003,186.14374436805187 L 521.6,184.06515143254174 L 536.8000000000001,187.51673982378313 L 552,191.6475198933471 L 567.1999999999999,190.6519409538342 L 582.4,185.92922637209384 L 597.6,184.1168534344217 L 612.8000000000001,187.76199792285774 L 628,191.7416393100119 L 643.1999999999999,190.46264278799916 L 658.4,185.72255724891926 L 673.6,184.1832737632988 L 688.8,188.00815812344678 L 704,191.82157675596298 L 719.2,190.26401044401263 L 734.4,185.52452033845196 L 749.6,184.26416066557502 L 764.8,188.25428740222364 L 780,191.88702924354612"
      stroke="url(#thread-14)"
      stroke-width="8"
      stroke-linecap="round"
      fill="none"
      opacity="0.7666666666666667"
      class="thread"
      style="animation-delay: 1.4000000000000001s"
    >
      <title>2026-01-13: 5049 stars, TypeScript, Shell, C, Rust, Python</title>
    </path>

    <path
      d="M 20,203.75199990709896 L 35.2,203.37377783863926 L 50.400000000000006,200.32981724464025 L 65.6,197.025256641549 L 80.80000000000001,196.07114362377155 L 96,198.221355877052 L 111.2,201.77693635211162 L 126.4,203.92849797417955 L 141.60000000000002,202.9760175110409 L 156.79999999999998,199.67208271057075 L 172,196.62724669888584 L 187.2,196.24733969021617 L 202.4,198.83253934816915 L 217.6,202.3401900344601 L 232.8,203.99877565769418 L 248,202.49779036798296 L 263.20000000000005,199.02321454234638 L 278.40000000000003,196.32043068114572 L 293.59999999999997,196.52500176736459 L 308.8,199.47528911232007 L 324,202.8401686725776 L 339.2,203.9609327600233 L 354.4,201.95202691646864 L 369.6,198.4007571109114 L 384.8,196.11310440909853 L 400,196.89662231097716 L 415.2,200.13222623054807 L 430.40000000000003,203.26335363337208 L 445.6,203.8159924933799 L 460.79999999999995,201.35348373866677 L 476,197.82154068258004 L 491.2,196.0108736578483 L 506.40000000000003,197.35215328820706 L 521.6,200.78558816023872 L 536.8000000000001,203.59830266355738 L 552,203.56787381376648 L 567.1999999999999,200.71834449722522 L 582.4,197.30122635520434 L 597.6,196.01650258552408 L 612.8000000000001,197.87927786054604 L 628,201.41770902623173 L 643.1999999999999,203.83595927011876 L 658.4,203.22328545859162 L 673.6,200.0637823545809 L 688.8,196.8538826068112 L 704,196.12983899480747 L 719.2,198.4637434116943 L 734.4,202.01149727819745 L 749.6,203.9698975935874 L 764.8,202.79154455300062 L 780,199.40749563775765"
      stroke="url(#thread-15)"
      stroke-width="7.33"
      stroke-linecap="round"
      fill="none"
      opacity="0.75"
      class="thread"
      style="animation-delay: 1.5s"
    >
      <title>2026-01-12: 3665 stars, TypeScript, Unknown, Python, Shell, C</title>
    </path>

    <path
      d="M 20,215.95743298649353 L 35.2,214.0758428476307 L 50.400000000000006,210.6905586961735 L 65.6,208.25380446385495 L 80.80000000000001,208.53071027768993 L 96,211.32069177514282 L 111.2,214.60274891868312 L 126.4,215.9994331064733 L 141.60000000000002,214.49901763046202 L 156.79999999999998,211.188369817941 L 172,208.46564871027437 L 187.2,208.30313242679827 L 202.4,210.81854411919113 L 217.6,214.18977596008145 L 232.8,215.97478319641857 L 248,214.88054661107765 L 263.20000000000005,211.6997066506208 L 278.40000000000003,208.7363924590336 L 293.59999999999997,208.13716239087137 L 308.8,210.33608527108896 L 324,213.74031067128627 L 339.2,215.88389404385893 L 354.4,215.21407165887757 L 369.6,212.21604783272272 L 384.8,209.061523800943 L 400,208.0355660388673 L 415.2,209.8813553444875 L 430.40000000000003,213.26184333259488 L 445.6,215.72828030464353 L 460.79999999999995,215.49403462252852 L 476,212.72878860592758 L 491.2,209.43562446468098 L 506.40000000000003,208.00003646071465 L 521.6,209.46193235418505 L 536.8000000000001,212.76234753967577 L 552,215.5105352613992 L 567.1999999999999,215.7157699558295 L 582.4,213.22938421225982 L 597.6,209.85246011157747 L 612.8000000000001,208.03116575218996 L 628,209.08480592950067 L 643.1999999999999,212.25014732463893 L 658.4,215.23428760681463 L 673.6,215.87558246842963 L 688.8,213.7094922913627 L 704,210.30508423005307 L 719.2,208.12843514771913 L 734.4,208.75626083301518 L 749.6,211.7337784371287 L 764.8,214.90414097195074 L 780,215.97080890569225"
      stroke="url(#thread-16)"
      stroke-width="6.996"
      stroke-linecap="round"
      fill="none"
      opacity="0.7333333333333334"
      class="thread"
      style="animation-delay: 1.6s"
    >
      <title>2026-01-11: 3498 stars, TypeScript, Unknown, Shell, Python</title>
    </path>

    <path
      d="M 20,227.19394845049396 L 35.2,223.81667022296332 L 50.400000000000006,220.5989685922675 L 65.6,220.34164266565412 L 80.80000000000001,223.2686778551499 L 96,226.83228120586566 L 111.2,227.93056875564204 L 126.4,225.60755292639845 L 141.60000000000002,221.8852672710907 L 156.79999999999998,220.0037183337849 L 172,221.60067157215315 L 187.2,225.28608349624926 L 202.4,227.85204373664098 L 217.6,227.0650514982381 L 232.8,223.6101321226392 L 248,220.49456727029374 L 263.20000000000005,220.4302526538985 L 278.40000000000003,223.47316994635452 L 293.59999999999997,226.9746583909165 L 308.8,227.88690099423374 L 324,225.415850152703 L 339.2,221.71239422865708 L 354.4,220.00014971495133 L 369.6,221.76951362653207 L 384.8,225.4803702433224 L 400,227.9026612528048 L 415.2,226.927940541725 L 430.40000000000003,223.40463882577308 L 445.6,220.39956012632376 L 460.79999999999995,220.52842917631529 L 476,223.67907388473557 L 491.2,227.1090638153947 L 506.40000000000003,227.83281676141138 L 521.6,225.22035305477232 L 536.8000000000001,221.54565172058977 L 552,220.00730025933203 L 567.1999999999999,221.9443331415109 L 582.4,225.67068975934322 L 597.6,227.94282006177775 L 612.8000000000001,226.78298302338797 L 628,223.2007410320241 L 643.1999999999999,220.31420176915793 L 658.4,220.63590913051496 L 673.6,223.88583787015935 L 688.8,227.23513728739826 L 704,227.76846099702962 L 719.2,225.02158554354102 L 734.4,221.38548659865367 L 749.6,220.0251508042466 L 764.8,222.12466161982576 L 780,225.85653200873287"
      stroke="url(#thread-17)"
      stroke-width="7.724"
      stroke-linecap="round"
      fill="none"
      opacity="0.7166666666666667"
      class="thread"
      style="animation-delay: 1.7000000000000002s"
    >
      <title>2026-01-10: 3862 stars, TypeScript, Unknown, Shell, Python</title>
    </path>

    <path
      d="M 20,237.64847394096702 L 35.2,233.88148255877314 L 50.400000000000006,232.00176301334434 L 65.6,233.68385509843856 L 80.80000000000001,237.42927456404868 L 96,239.9014311434342 L 111.2,238.89801514701995 L 126.4,235.31291525079226 L 141.60000000000002,232.33990174640454 L 156.79999999999998,232.627470486647 L 172,235.91944213873154 L 187.2,239.28317840310734 L 202.4,239.72210979466064 L 217.6,236.8452162361288 L 232.8,233.2153655541953 L 248,232.0661940788534 L 263.20000000000005,234.4214361059938 L 278.40000000000003,238.1829347547303 L 293.59999999999997,239.99977568957405 L 308.8,238.25343424724596 L 324,234.49963093178536 L 339.2,232.0824247252705 L 354.4,233.155173022091 L 369.6,236.76222277491837 L 384.8,239.69024976000713 L 400,239.33083416512954 L 415.2,236.00415977386297 L 430.40000000000003,232.67377966655832 L 445.6,232.30654814421146 L 460.79999999999995,235.22961177461102 L 476,238.838972327971 L 491.2,239.91924701417278 L 506.40000000000003,237.50807793539408 L 521.6,233.7534443376413 L 536.8000000000001,232.00014485627858 L 552,233.81009853346137 L 567.1999999999999,237.57091618875492 L 582.4,239.93229014664917 L 597.6,238.7906009230281 L 612.8000000000001,235.16291728312717 L 628,232.28094505718653 L 643.1999999999999,232.71207638015466 L 658.4,236.07223983116384 L 673.6,239.3680487499917 L 688.8,239.663446425082 L 704,236.69527915187004 L 719.2,233.10772553966515 L 734.4,232.09674176208185 L 749.6,234.56295821929018 L 764.8,238.30935695312766 L 780,239.99847532011037"
      stroke="url(#thread-18)"
      stroke-width="7.822"
      stroke-linecap="round"
      fill="none"
      opacity="0.7"
      class="thread"
      style="animation-delay: 1.8s"
    >
      <title>2026-01-09: 3911 stars, TypeScript, Unknown, Python, Shell</title>
    </path>

    <path
      d="M 20,247.69939551815276 L 35.2,244.58587300170115 L 50.400000000000006,244.3148755949605 L 65.6,247.11202962457622 L 80.80000000000001,250.64848775450199 L 96,251.9798747348527 L 111.2,249.9977078043618 L 126.4,246.35229442797313 L 141.60000000000002,244.0787235355433 L 156.79999999999998,245.06991895610966 L 172,248.500633745726 L 187.2,251.5145321738819 L 202.4,251.60231040846438 L 217.6,248.69088627180076 L 232.8,245.20424581291866 L 248,244.0452872127718 L 263.20000000000005,246.17893325357488 L 278.40000000000003,249.82875838078934 L 293.59999999999997,251.9560005403584 L 308.8,250.78956590477543 L 324,247.30060163468593 L 339.2,244.39394066382542 L 354.4,244.4896033368397 L 369.6,247.50794307050546 L 384.8,250.9359583019463 L 400,251.9195608918817 L 415.2,249.63982551584033 L 430.40000000000003,245.99480841283227 L 445.6,244.0192685844381 L 460.79999999999995,245.3579959199157 L 476,248.89639624393197 L 491.2,251.68847727962157 L 506.40000000000003,251.4096153512249 L 521.6,248.2919846086798 L 536.8000000000001,244.93125406866525 L 552,244.1254921544484 L 567.1999999999999,246.54555805631463 L 582.4,250.17655950557042 L 597.6,251.9954066177301 L 612.8000000000001,250.4877683237927 L 628,246.9088702521587 L 643.1999999999999,244.23842219065523 L 658.4,244.69977894500127 L 673.6,247.90882529059718 L 688.8,251.19378164217036 L 704,251.81966745614295 L 719.2,249.2653843249526 L 734.4,245.65757075423716 L 749.6,244.00001092397125 L 764.8,245.67275175119312 L 780,249.28310696331067"
      stroke="url(#thread-19)"
      stroke-width="7.54"
      stroke-linecap="round"
      fill="none"
      opacity="0.6833333333333333"
      class="thread"
      style="animation-delay: 1.9000000000000001s"
    >
      <title>2026-01-08: 3770 stars, TypeScript, Unknown, Python, Rust, JavaScript</title>
    </path>

    <path
      d="M 20,257.8239155564425 L 35.2,256.01992084811985 L 50.400000000000006,257.2013962750988 L 65.6,260.48211333079996 L 80.80000000000001,263.4011956310079 L 96,263.76903018130724 L 111.2,261.309703105932 L 126.4,257.86796353078904 L 141.60000000000002,256.0254713483007 L 156.79999999999998,257.1642858531287 L 172,260.4301786332059 L 187.2,263.37339304100135 L 202.4,263.78621451081057 L 217.6,261.3589843342773 L 232.8,257.9123756505576 L 248,256.03170068603146 L 263.20000000000005,257.1276597626134 L 278.40000000000003,260.3781704623941 L 293.59999999999997,263.3450142856008 L 308.8,263.8027521662534 L 324,261.4080334521822 L 339.2,257.95714433029144 L 354.4,256.03860779735993 L 369.6,257.091524259179 L 384.8,260.3260977012037 L 400,263.31606421181243 L 415.2,263.8186403230539 L 430.40000000000003,261.4568420822048 L 445.6,258.0022619236347 L 460.79999999999995,256.0461915025722 L 476,257.0558855146608 L 491.2,260.2739692435059 L 506.40000000000003,263.2865477642217 L 521.6,263.83387626756263 L 536.8000000000001,261.5054018879777 L 552,258.047720724638 L 567.1999999999999,256.05445050639423 L 582.4,257.0207496160494 L 597.6,260.2217939926846 L 612.8000000000001,263.2564699841493 L 628,263.84845739752603 L 643.1999999999999,261.553704575632 L 658.4,258.09351296907477 L 673.6,256.06338339821303 L 688.8,256.98612256445057 L 704,260.1695808601159 L 719.2,263.22583600878966 L 734.4,263.8623812225309 L 749.6,261.6017418952139 L 764.8,258.1396308357672 L 780,256.07298865231746"
      stroke="url(#thread-20)"
      stroke-width="7.128"
      stroke-linecap="round"
      fill="none"
      opacity="0.6666666666666667"
      class="thread"
      style="animation-delay: 2s"
    >
      <title>2026-01-07: 3564 stars, TypeScript, Python, Unknown, Shell, Rust</title>
    </path>

    <path
      d="M 20,268.48121696011333 L 35.2,268.6238590991764 L 50.400000000000006,272.2272510313748 L 65.6,275.59769683279166 L 80.80000000000001,275.28028453361503 L 96,271.6003810486103 L 111.2,268.330111297499 L 126.4,268.82170070484636 L 141.60000000000002,272.57124022486283 L 156.79999999999998,275.7352237659975 L 172,275.0703757342744 L 187.2,271.2582058047461 L 202.4,268.20642004850504 L 217.6,269.0432845050486 L 232.8,272.91096220016783 L 248,275.84484822651643 L 263.20000000000005,274.8375309395474 L 278.40000000000003,270.9215718332579 L 293.59999999999997,268.1110671983898 L 308.8,269.286955247964 L 324,273.2438792021964 L 339.2,275.92575130932244 L 354.4,274.5834895219407 L 369.6,270.59299382156007 L 384.8,268.0447650419079 L 400,269.55089269023523 L 415.2,273.56750430964536 L 430.40000000000003,275.97732866078104 L 445.6,274.3101491947267 L 460.79999999999995,270.27492627829037 L 476,268.00800886240154 L 491.2,269.8331251943553 L 506.40000000000003,273.8794200125374 L 521.6,275.999194993228 L 536.8000000000001,274.019551835847 L 552,269.969745197899 L 567.1999999999999,268.00107323198705 L 582.4,270.1315444569852 L 597.6,274.1772962712483 L 612.8000000000001,275.99118696310427 L 628,273.71386823489195 L 643.1999999999999,269.67973031174716 L 658.4,268.0240099604757 L 673.6,270.44392125817814 L 688.8,274.4589079221215 L 704,275.9533643911477 L 719.2,273.39538187709843 L 734.4,269.40704805829915 L 749.6,268.07664770834936 L 764.8,270.7679221138622 L 780,274.72215129965025"
      stroke="url(#thread-21)"
      stroke-width="8"
      stroke-linecap="round"
      fill="none"
      opacity="0.65"
      class="thread"
      style="animation-delay: 2.1s"
    >
      <title>2026-01-06: 4224 stars, TypeScript, Python, Rust, JavaScript, Go</title>
    </path>

    <path
      d="M 20,280.0000391737972 L 35.2,281.6746411950065 L 50.400000000000006,285.27959320201825 L 65.6,287.8223165697144 L 80.80000000000001,287.1920204789784 L 96,283.9119325913612 L 111.2,280.704952097171 L 126.4,280.2332895499512 L 141.60000000000002,282.8884861558909 L 156.79999999999998,286.4663836923656 L 172,287.9968622604997 L 187.2,286.20942576484146 L 202.4,282.5878787720699 L 217.6,280.1385759019829 L 232.8,280.8947568207968 L 248,284.22869310106984 L 263.20000000000005,287.37278438905383 L 278.40000000000003,287.71702634473525 L 293.59999999999997,284.9756534110589 L 308.8,281.4243613611836 L 324,280.0111840827556 L 339.2,281.90924235760514 L 354.4,285.54290116715356 L 369.6,287.8957515097618 L 384.8,287.01462185091395 L 400,283.63096430922275 L 415.2,280.55365434663315 L 430.40000000000003,280.3372591249263 L 445.6,283.1614147984248 L 460.79999999999995,286.68170516239724 L 476,287.9758317571295 L 491.2,285.9695013387561 L 506.40000000000003,282.3282288748188 L 521.6,280.07474368948505 L 536.8000000000001,281.0797313243468 L 552,284.50892144550073 L 567.1999999999999,287.51564063314225 L 582.4,287.6039212418859 L 597.6,284.7004788945126 L 612.8000000000001,281.2155480382805 L 628,280.0420741465524 L 643.1999999999999,282.15419304102284 L 658.4,285.79857157190054 L 673.6,287.9499019758279 L 688.8,286.8223004546746 L 704,283.3518228014971 L 719.2,280.41941645294617 L 734.4,280.45935974109534 L 749.6,283.4384945461974 L 764.8,286.88375184493276 L 780,287.9351203721934"
      stroke="url(#thread-22)"
      stroke-width="7.528"
      stroke-linecap="round"
      fill="none"
      opacity="0.6333333333333333"
      class="thread"
      style="animation-delay: 2.2s"
    >
      <title>2026-01-05: 3764 stars, Go, TypeScript, Python, Rust, JavaScript</title>
    </path>

    <path
      d="M 20,292.49819130124627 L 35.2,295.66266349698265 L 50.400000000000006,299.1270862066105 L 65.6,299.8109882602583 L 80.80000000000001,297.1062624100942 L 96,293.417877882501 L 111.2,292.02544665123577 L 126.4,294.1670809859187 L 141.60000000000002,297.9384974380943 L 156.79999999999998,299.98625428766877 L 172,298.4895414122253 L 187.2,294.7791955048632 L 202.4,292.1543560055001 L 217.6,292.9489593534907 L 232.8,296.45646569786186 L 248,299.5580950635401 L 263.20000000000005,299.4959623304313 L 278.40000000000003,296.32531424787567 L 293.59999999999997,292.8654055162241 L 308.8,292.1926935979624 L 324,294.90533577455477 L 339.2,298.59132383581726 L 354.4,299.9731766811743 L 369.6,297.82218805624836 L 384.8,294.05095899191014 L 400,292.01276458804585 L 415.2,293.5199122984339 L 430.40000000000003,297.23228705637473 L 445.6,299.8489454227739 L 460.79999999999995,299.04322540090254 L 476,295.53155148811345 L 491.2,292.43640934883615 L 506.40000000000003,292.50991583653695 L 521.6,295.6867109662661 L 536.8000000000001,299.1420742492325 L 552,299.8035899132413 L 567.1999999999999,297.0830560839269 L 582.4,293.399498016081 L 597.6,292.0282361257176 L 612.8000000000001,294.1885594758801 L 628,297.95956684995826 L 643.1999999999999,299.9881802690618 L 658.4,298.47061143247424 L 673.6,294.75624159104933 L 688.8,292.14778815826884 L 704,292.9646175253362 L 719.2,296.4804270649876 L 734.4,299.5690538250066 L 749.6,299.48417425131566 L 764.8,296.3012609699714 L 780,292.85047456505436"
      stroke="url(#thread-23)"
      stroke-width="7.814"
      stroke-linecap="round"
      fill="none"
      opacity="0.6166666666666667"
      class="thread"
      style="animation-delay: 2.3000000000000003s"
    >
      <title>2026-01-04: 3907 stars, Python, Jupyter Notebook, TypeScript, Go, Rust</title>
    </path>

    <path
      d="M 20,305.8537083279983 L 35.2,309.5991793979503 L 50.400000000000006,311.93405068856805 L 65.6,310.79878533266765 L 80.80000000000001,307.1947750831516 L 96,304.30103542083594 L 111.2,304.6700682941232 L 126.4,307.97635819781533 L 141.60000000000002,311.3035019975666 L 156.79999999999998,311.7167018115645 L 172,308.85148348062876 L 187.2,305.23519093536703 L 202.4,304.0576735903559 L 217.6,306.3575927172224 L 232.8,310.10624195756634 L 248,311.9970230660572 L 263.20000000000005,310.36212102592754 L 278.40000000000003,306.6436457467948 L 293.59999999999997,304.12157970900336 L 308.8,305.0205800091461 L 324,308.54765892700334 L 339.2,311.59166035988824 L 354.4,311.4675398687439 L 369.6,308.28478131613355 L 384.8,304.850823640891 L 400,304.1946828153013 L 415.2,306.89512574004823 L 430.40000000000003,310.5701531230978 L 445.6,311.978106885174 L 460.79999999999995,309.8770630316061 L 476,306.1203045649223 L 491.2,304.0215826945921 L 506.40000000000003,305.43213225453496 L 521.6,309.107739555814 L 536.8000000000001,311.8062349864712 L 552,311.1473370947204 L 567.1999999999999,307.71224472660646 L 582.4,304.53097474119176 L 597.6,304.40965304603895 L 612.8000000000001,307.4552947494157 L 628,310.9814085669663 L 643.1999999999999,311.8776896890367 L 658.4,309.35354892054687 L 673.6,305.63547343085634 L 688.8,304.00309305513446 L 704,305.8962934001707 L 719.2,309.64512549565774 L 734.4,311.9428298039018 L 749.6,310.7626536076414 L 764.8,307.1456034907245 L 780,304.2821971044565"
      stroke="url(#thread-24)"
      stroke-width="7.78"
      stroke-linecap="round"
      fill="none"
      opacity="0.6000000000000001"
      class="thread"
      style="animation-delay: 2.4000000000000004s"
    >
      <title>2026-01-03: 3890 stars, Go, Python, Jupyter Notebook, TypeScript, Rust, JavaScript</title>
    </path>

    <path
      d="M 20,319.7347124105952 L 35.2,322.2407776607404 L 50.400000000000006,323.80295649325 L 65.6,323.76320977833524 L 80.80000000000001,322.13828008934956 L 96,319.6126392013908 L 111.2,317.25016693249563 L 126.4,316.0460113179735 L 141.60000000000002,316.507400785339 L 156.79999999999998,318.4399834990143 L 172,321.0296945000546 L 187.2,323.1856656125088 L 202.4,323.9997336189751 L 217.6,323.1289873293797 L 232.8,320.9402126191602 L 248,318.3553906185453 L 263.20000000000005,316.4633301018869 L 278.40000000000003,316.06102679718975 L 293.59999999999997,317.3179435796541 L 308.8,319.70462734920113 L 324,322.21573142073294 L 339.2,323.7934993430338 L 354.4,323.77332536867357 L 369.6,322.1637074136758 L 384.8,319.64266746653306 L 400,317.27214728350083 L 415.2,316.0506849358467 L 430.40000000000003,316.4927989944239 L 445.6,318.4122570354413 L 460.79999999999995,321.0005226271589 L 476,323.16733644574504 L 491.2,323.9999679830632 L 506.40000000000003,323.1476865027537 L 521.6,320.9694999186142 L 536.8000000000001,318.38292930730773 L 552,316.47752001331133 L 567.1999999999999,316.0558906918135 L 582.4,317.29564494749627 L 597.6,319.67455907934414 L 612.8000000000001,322.19055921938093 L 628,323.7838265374934 L 643.1999999999999,323.78322645055096 L 658.4,322.18901173415225 L 673.6,319.67271604554827 L 688.8,317.2942827092559 L 704,316.05558306695775 L 719.2,316.4783965831584 L 734.4,318.3846208329156 L 749.6,320.97129387590047 L 764.8,323.14882722017376 L 780,323.9999749543632"
      stroke="url(#thread-25)"
      stroke-width="5.26"
      stroke-linecap="round"
      fill="none"
      opacity="0.5833333333333334"
      class="thread"
      style="animation-delay: 2.5s"
    >
      <title>2026-01-02: 2630 stars, TypeScript, Rust, Python, JavaScript, Jupyter Notebook, Shell</title>
    </path>

    <path
      d="M 20,333.68066814730656 L 35.2,335.9139831527592 L 50.400000000000006,335.00286530030104 L 65.6,331.67929242450157 L 80.80000000000001,328.61337099962043 L 96,328.2682143534124 L 111.2,330.9211159378685 L 126.4,334.4407761062114 L 141.60000000000002,335.9995549197727 L 156.79999999999998,334.34515385597905 L 172,330.80669285789605 L 187.2,328.2269161567974 L 202.4,328.6783760117005 L 217.6,331.79837663512245 L 232.8,335.08035831689324 L 248,335.88762829763135 L 263.20000000000005,333.57163849893004 L 278.40000000000003,329.99301890753037 L 293.59999999999997,328.02677654057493 L 308.8,329.25255976750356 L 324,332.68559351264605 L 339.2,335.56783215106583 L 354.4,335.58373023321286 L 369.6,332.720515488505 L 384.8,329.2784498677805 L 400,328.02283506357776 L 415.2,329.9624123742417 L 430.40000000000003,333.5389557195678 L 445.6,335.87912610604064 L 460.79999999999995,335.1028672408405 L 476,331.8338133571038 L 491.2,328.6982712234369 L 506.40000000000003,328.21528635630193 L 521.6,330.77288124501956 L 536.8000000000001,334.31632415175915 L 552,335.9988684577398 L 567.1999999999999,334.4687843792277 L 582.4,330.9553175373872 L 597.6,328.2811322492261 L 612.8000000000001,328.5946271562429 L 628,331.6439453525854 L 643.1999999999999,334.9793122846648 L 658.4,335.92114631784216 L 673.6,333.7127927182989 L 688.8,330.12840823359124 L 704,328.04763130599395 L 719.2,329.14212557987065 L 734.4,332.53259147133156 L 749.6,335.49518170341014 L 764.8,335.6497976127521 L 780,332.87222319568144"
      stroke="url(#thread-26)"
      stroke-width="7.396"
      stroke-linecap="round"
      fill="none"
      opacity="0.5666666666666667"
      class="thread"
      style="animation-delay: 2.6s"
    >
      <title>2026-01-01: 3698 stars, Rust, Python, JavaScript, TypeScript, Jupyter Notebook, Go, Shell</title>
    </path>

    <path
      d="M 20,347.21513770620646 L 35.2,347.8289504766575 L 50.400000000000006,345.3589299478304 L 65.6,341.7944284509016 L 80.80000000000001,340.00629231270875 L 96,341.4346847843095 L 111.2,344.9291798429035 L 126.4,347.6753142846568 L 141.60000000000002,347.4613538791581 L 156.79999999999998,344.4596221461881 L 172,341.0877111465649 L 187.2,340.06135499234665 L 202.4,342.207180014846 L 217.6,345.79694065456846 L 232.8,347.93944689359614 L 248,346.90912611768306 L 263.20000000000005,343.5357977609192 L 278.40000000000003,340.53633747353985 L 293.59999999999997,340.32650789611 L 308.8,343.0753055831676 L 324,346.5688513289083 L 339.2,347.9934465052236 L 354.4,346.20172342754967 L 369.6,342.6367342648034 L 384.8,340.169718109437 L 400,340.7876075729208 L 415.2,343.992755032393 L 430.40000000000003,347.2037375823149 L 445.6,347.83443274050325 L 460.79999999999995,345.37687918900116 L 476,341.8103883665654 L 491.2,340.0074088010229 L 506.40000000000003,341.42005862658146 L 521.6,344.91059093352396 L 536.8000000000001,347.66773411466266 L 552,347.4708875107027 L 567.1999999999999,344.4785912009275 L 582.4,341.1008379647284 L 597.6,340.0580672462917 L 612.8000000000001,342.1901256523134 L 628,345.77985524393296 L 643.1999999999999,347.936091009347 L 658.4,346.9222025860018 L 673.6,343.55477480588337 L 688.8,340.54593100005883 L 704,340.31899128648087 L 719.2,343.0567327080824 L 734.4,346.5541807653975 L 749.6,347.99449391205576 L 764.8,346.21764522419625 L 780,342.65470705044413"
      stroke="url(#thread-27)"
      stroke-width="7.406"
      stroke-linecap="round"
      fill="none"
      opacity="0.55"
      class="thread"
      style="animation-delay: 2.7s"
    >
      <title>2025-12-31: 3703 stars, Go, Python, TypeScript, Rust, Shell</title>
    </path>

    <path
      d="M 20,359.9624294227795 L 35.2,358.3354735427889 L 50.400000000000006,354.22065183510324 L 65.6,352.00128276856907 L 80.80000000000001,354.0415517464945 L 96,358.16805993712677 L 111.2,359.9850398324689 L 126.4,357.5569515480344 L 141.60000000000002,353.47031886959826 L 156.79999999999998,352.0784318707797 L 172,354.8639997482064 L 187.2,358.85969317615223 L 202.4,359.8090952202333 L 217.6,356.7008542813248 L 232.8,352.8460275281237 L 248,352.3509735107345 L 263.20000000000005,355.7430490799888 L 278.40000000000003,359.40884190682647 L 293.59999999999997,359.4433620445797 L 308.8,355.8098368775413 L 324,352.3788831913546 L 339.2,352.80532827302693 L 354.4,356.63490101794355 L 369.6,359.7881447368313 L 384.8,358.906062998822 L 400,354.92829437100755 L 415.2,352.0921613741987 L 430.40000000000003,353.41885788462054 L 445.6,357.49511894699566 L 460.79999999999995,359.9787028634211 L 476,358.2239690635013 L 491.2,354.1001497083116 L 506.40000000000003,352.00014802085883 L 521.6,354.1609931691449 L 536.8000000000001,358.2808424198362 L 552,359.9710217082243 L 567.1999999999999,357.4310656395109 L 582.4,353.36666528294813 L 597.6,352.10742770618424 L 612.8000000000001,354.994757159271 L 628,358.9529226831438 L 643.1999999999999,359.76548398559333 L 658.4,356.5668592219811 L 673.6,352.7643870322933 L 688.8,352.408655208755 L 704,355.8786074779338 L 719.2,359.47787326826926 L 734.4,359.372330633822 L 749.6,355.67440898507164 L 764.8,352.3233235324947 L 780,352.88882183709205"
      stroke="url(#thread-28)"
      stroke-width="8"
      stroke-linecap="round"
      fill="none"
      opacity="0.5333333333333333"
      class="thread"
      style="animation-delay: 2.8000000000000003s"
    >
      <title>2025-12-30: 4315 stars, Go, Shell, Rust, Python, Swift, TypeScript</title>
    </path>

    <path
      d="M 20,371.7395802220987 L 35.2,369.49894400593416 L 50.400000000000006,366.2971858644671 L 65.6,364.1872710432952 L 80.80000000000001,364.5220755585476 L 96,367.0869229719949 L 111.2,370.23723478413325 L 126.4,371.9530331023937 L 141.60000000000002,371.13414915693 L 156.79999999999998,368.3056508029438 L 172,365.28116935216906 L 187.2,364.0000003510052 L 202.4,365.2836285328123 L 217.6,368.30899233919536 L 232.8,371.13623045791064 L 248,371.95251963926336 L 263.20000000000005,370.2344557891183 L 278.40000000000003,367.08366033489824 L 293.59999999999997,364.52042128016143 L 308.8,364.1882858458487 L 324,366.30021905722066 L 339.2,369.50205070765963 L 354.4,371.7407684176629 L 369.6,371.5809078422456 L 384.8,369.12497147877724 L 400,365.94770413208846 L 415.2,364.08636756603494 L 430.40000000000003,364.7344495806405 L 445.6,367.4764004080914 L 460.79999999999995,370.55408295458625 L 476,371.9940891656236 L 491.2,370.8730879917977 L 506.40000000000003,367.90986465936686 L 521.6,365.00443604894303 L 536.8000000000001,364.01976110283795 L 552,365.5872127584334 L 567.1999999999999,368.7017420298565 L 582.4,371.3663147664583 L 597.6,371.87240865614933 L 612.8000000000001,369.8955166248041 L 628,366.7032205619126 L 643.1999999999999,364.34241863442105 L 658.4,364.32685550845827 L 673.6,366.6665102503067 L 688.8,369.861197755569 L 704,371.86248646600006 L 719.2,371.38715135728916 L 734.4,368.73997699312866 L 749.6,365.61832986047267 L 764.8,364.0238080779803 L 780,364.9788179793496"
      stroke="url(#thread-29)"
      stroke-width="6.556"
      stroke-linecap="round"
      fill="none"
      opacity="0.5166666666666666"
      class="thread"
      style="animation-delay: 2.9000000000000004s"
    >
      <title>2025-12-29: 3278 stars, Shell, Go, JavaScript, TypeScript, Rust, Python</title>
    </path>

    <path
      d="M 20,382.6011513606285 L 35.2,379.02657644270823 L 50.400000000000006,376.27240661876033 L 65.6,376.65986674132273 L 80.80000000000001,379.8624039384415 L 96,383.1809076220578 L 111.2,383.8185302061331 L 126.4,381.23788094016754 L 141.60000000000002,377.61394088733203 L 156.79999999999998,376.0009805728522 L 172,377.75840911361433 L 187.2,381.4050590195437 L 202.4,383.8675198144427 L 217.6,383.07042013020634 L 232.8,379.68555862678346 L 248,376.5657095143286 L 263.20000000000005,376.3402935471576 L 278.40000000000003,379.19929216381746 L 293.59999999999997,382.7331304046747 L 308.8,383.96347589595837 L 324,381.85338875591424 L 339.2,378.1812584897582 L 354.4,376.0419705186587 L 369.6,377.2385249198346 L 384.8,380.76246107140537 L 400,383.6437921182909 L 415.2,383.4541212433214 L 430.40000000000003,380.35330378473844 L 445.6,376.95472054624616 L 460.79999999999995,376.1227104687525 L 476,378.5584948250517 L 491.2,382.2091852514333 L 506.40000000000003,383.99796590562204 L 521.6,382.4172456165366 L 536.8000000000001,378.7992614844574 L 552,376.19326436183644 L 567.1999999999999,376.79559858229925 L 582.4,380.0986145630512 L 597.6,383.3185178132133 L 612.8000000000001,383.7415615688584 L 628,381.0112029360893 L 643.1999999999999,377.4285986045255 L 658.4,376.0131811955424 L 673.6,377.957869910374 L 688.8,381.6236736686348 L 704,383.9210390541869 L 719.2,382.91373774082626 L 734.4,379.45072712480214 L 749.6,376.45064578701204 L 764.8,376.4419737435982 L 780,379.4320198258895"
      stroke="url(#thread-30)"
      stroke-width="7.59"
      stroke-linecap="round"
      fill="none"
      opacity="0.5"
      class="thread"
      style="animation-delay: 3s"
    >
      <title>2025-12-28: 3795 stars, Shell, Rust, Python, JavaScript, TypeScript</title>
    </path>

    <path
      d="M 20,392.82586992775117 L 35.2,388.3568564445979 L 50.400000000000006,389.60076410924324 L 65.6,394.6069845267137 L 80.80000000000001,395.52511541157094 L 96,390.9154085714138 L 111.2,388.00648162501176 L 126.4,391.35990894262517 L 141.60000000000002,395.71708197670125 L 156.79999999999998,394.24538883796083 L 172,389.2526350595988 L 187.2,388.568105492019 L 202.4,393.26523119371524 L 217.6,395.9783104439033 L 232.8,392.4528834365538 L 248,388.2172765192363 L 263.20000000000005,389.9134701584698 L 278.40000000000003,394.8816129470898 L 293.59999999999997,395.331013255527 L 308.8,390.5569531700195 L 324,388.04577749378404 L 339.2,391.73533506764676 L 354.4,395.8399215488605 L 369.6,393.9230134914239 L 384.8,388.99057110886645 L 400,388.7773031682438 L 415.2,393.6176414342126 L 430.40000000000003,395.9213083287321 L 445.6,392.0758556682358 L 460.79999999999995,388.1114514911016 L 476,390.2447952266968 L 491.2,395.1305274739256 L 506.40000000000003,395.10718701029873 L 521.6,390.21137470707623 L 536.8000000000001,388.1203586206484 L 552,392.11312291369734 L 567.1999999999999,395.928495820397 L 582.4,393.5834782538457 L 597.6,388.75536160928516 L 612.8000000000001,389.01525837879615 L 628,393.9556167521893 L 643.1999999999999,395.82931466308025 L 658.4,391.6981510065899 L 673.6,388.04032568323703 L 688.8,390.5917827553273 L 704,395.3515069339542 L 719.2,394.85563397543575 L 734.4,389.88175693046054 L 749.6,388.22955948556745 L 764.8,392.4899013144777 L 780,395.982014404319"
      stroke="url(#thread-31)"
      stroke-width="8"
      stroke-linecap="round"
      fill="none"
      opacity="0.48333333333333334"
      class="thread"
      style="animation-delay: 3.1s"
    >
      <title>2025-12-27: 5384 stars, Shell, Python, Rust, C, Go</title>
    </path>

    <path
      d="M 20,402.84838673333974 L 35.2,400.20680125940567 L 50.400000000000006,400.7745878770595 L 65.6,404.07135031674284 L 80.80000000000001,407.30774425718835 L 96,407.7455023150681 L 111.2,405.01424355600295 L 126.4,401.42484759261123 L 141.60000000000002,400.01425185379304 L 156.79999999999998,401.97594154986103 L 172,405.6501586260792 L 187.2,407.9281997032507 L 202.4,406.88264627352817 L 217.6,403.39812638492407 L 232.8,400.4228432948604 L 248,400.47414216947203 L 263.20000000000005,403.508619752624 L 278.40000000000003,406.95884725032937 L 293.59999999999997,407.90563571467925 L 308.8,405.54792074543457 L 324,401.8805318096712 L 339.2,400.0063950930056 L 354.4,401.5111913059994 L 369.6,405.1217335423548 L 384.8,407.7831928091035 L 400,407.243745862135 L 415.2,403.95981117432405 L 430.40000000000003,400.70987968654 L 445.6,400.2436727104673 L 460.79999999999995,402.9556414099479 L 476,406.55122722040494 L 491.2,407.9882555704152 L 506.40000000000003,406.0508769891912 L 521.6,402.37828023920895 L 536.8000000000001,400.07779776443175 L 552,401.0958354235151 L 567.1999999999999,404.5710458748915 L 582.4,407.563102445012 L 597.6,407.5404681622355 L 612.8000000000001,404.5222935747994 L 628,401.0622137413666 L 643.1999999999999,400.08775353250195 L 658.4,402.42339002219165 L 673.6,406.09297403431054 L 688.8,407.9917221600181 L 704,406.5131303217965 L 719.2,402.9082142730925 L 734.4,400.22704276865187 L 749.6,400.73811729958413 L 764.8,404.00902489507865 L 780,407.27229665380963"
      stroke="url(#thread-32)"
      stroke-width="7.606"
      stroke-linecap="round"
      fill="none"
      opacity="0.46666666666666673"
      class="thread"
      style="animation-delay: 3.2s"
    >
      <title>2025-12-26: 3803 stars, Python, Shell, Go, TypeScript</title>
    </path>

    <path
      d="M 20,413.1528586305235 L 35.2,412.02146780847374 L 50.400000000000006,413.7920868418609 L 65.6,417.1731957334212 L 80.80000000000001,419.69855546502845 L 96,419.5261251842153 L 111.2,416.7816785055226 L 126.4,413.4670620713505 L 141.60000000000002,412.00001415699745 L 156.79999999999998,413.45062476070916 L 172,416.7607935415261 L 187.2,419.5160264190559 L 202.4,419.7066091118244 L 217.6,417.1935273235874 L 232.8,413.80986616360093 L 248,412.0237263185087 L 263.20000000000005,413.1379489327624 L 278.40000000000003,416.33980085452237 L 293.59999999999997,419.29379618464526 L 308.8,419.84523988781405 L 324,417.5918994359815 L 339.2,414.1774001371948 L 354.4,412.0923365472969 L 369.6,412.85758993500895 L 384.8,415.9149713084769 L 400,419.03437407297963 L 415.2,419.9404521637184 L 430.40000000000003,417.97229662670276 L 445.6,414.56551398476455 L 460.79999999999995,412.2050701314294 L 476,412.6127134391683 L 491.2,415.4911018633245 L 506.40000000000003,418.7406893470714 L 521.6,419.99117085077063 L 536.8000000000001,418.3304236434548 L 552,414.96982532143574 L 567.1999999999999,412.3606541404065 L 582.4,412.4060844665307 L 597.6,415.0729786380271 L 612.8000000000001,418.41605814600905 L 628,419.99682325926017 L 643.1999999999999,418.6622366974598 L 658.4,415.3857688684953 L 673.6,412.5573317984472 L 688.8,412.2400361667377 L 704,414.66532286814424 L 719.2,418.06414604079544 L 734.4,419.957345565055 L 749.6,418.96398912387104 L 764.8,415.8086480022058 L 780,412.79288232111105"
      stroke="url(#thread-33)"
      stroke-width="7.022"
      stroke-linecap="round"
      fill="none"
      opacity="0.45000000000000007"
      class="thread"
      style="animation-delay: 3.3000000000000003s"
    >
      <title>2025-12-25: 3511 stars, Python, TypeScript</title>
    </path>

    <path
      d="M 20,424.1544100324818 L 35.2,424.3931361310218 L 50.400000000000006,426.450108315903 L 65.6,429.2883920753905 L 80.80000000000001,431.47718809875914 L 96,431.9131085266782 L 111.2,430.3764027279033 L 126.4,427.64173517716347 L 141.60000000000002,425.08767150715187 L 156.79999999999998,424.0017336319076 L 172,424.93135066530834 L 187.2,427.407895957118 L 202.4,430.1829251667535 L 217.6,431.8575260582142 L 232.8,431.5875202461527 L 248,429.509019607508 L 263.20000000000005,426.6698113028042 L 278.40000000000003,424.5011607126771 L 293.59999999999997,424.09630023828674 L 308.8,425.6593229643225 L 324,428.4022978632454 L 339.2,430.94247150823674 L 354.4,431.9993240470347 L 369.6,431.04008849360554 L 384.8,428.54832240771833 L 400,425.7801430420115 L 415.2,424.1310095767654 L 430.40000000000003,424.4322620841206 L 445.6,426.53203700271297 L 460.79999999999995,429.3718226540827 L 476,431.5200626129762 L 491.2,431.8938136246245 L 506.40000000000003,430.3046651088446 L 521.6,427.55371829218484 L 536.8000000000001,425.02774530268266 L 552,424.0001073397635 L 567.1999999999999,424.98884411108673 L 582.4,427.49552628020257 L 597.6,430.25651728935327 L 612.8000000000001,431.8799816606356 L 628,431.5475192972822 L 643.1999999999999,429.426726874128 L 658.4,426.5867111452448 L 673.6,424.4591445196199 L 688.8,424.11654867564096 L 704,425.7316286488014 L 719.2,428.49021097788903 L 734.4,431.00167441798993 L 749.6,431.99997213816397 L 764.8,430.9818550586992 L 780,428.46056334124825"
      stroke="url(#thread-34)"
      stroke-width="5.776"
      stroke-linecap="round"
      fill="none"
      opacity="0.43333333333333335"
      class="thread"
      style="animation-delay: 3.4000000000000004s"
    >
      <title>2025-12-24: 2888 stars, Python, TypeScript</title>
    </path>

    <path
      d="M 20,436.09749597812737 L 35.2,437.66375730968406 L 50.400000000000006,440.407735428654 L 65.6,442.9461711777583 L 80.80000000000001,443.99942079058405 L 96,443.03653354206193 L 111.2,440.54290783779044 L 126.4,437.7755983774458 L 141.60000000000002,436.12962581574214 L 156.79999999999998,436.4347367905503 L 172,438.5371226592386 L 187.2,441.3769555445758 L 202.4,443.5226552103247 L 217.6,443.8925589818091 L 232.8,442.3001957003561 L 248,439.5482871790723 L 263.20000000000005,437.02409034823125 L 278.40000000000003,436.0000710328689 L 293.59999999999997,436.99244475431635 L 308.8,439.50094876333924 L 324,442.26102809954494 L 339.2,443.88130686593604 L 354.4,443.5449908521431 L 369.6,441.4216193859772 L 384.8,438.5815993356905 L 400,436.45660528872094 L 415.2,436.11786206800457 L 430.40000000000003,437.7361325738658 L 445.6,440.4956349745504 L 460.79999999999995,443.00528421041747 L 476,443.9999480039639 L 491.2,442.9782091640957 L 506.40000000000003,440.45513360800254 L 521.6,437.702621918034 L 536.8000000000001,436.1082350861473 L 552,436.475715011815 L 567.1999999999999,438.61981241451923 L 582.4,441.45967233193903 L 597.6,443.56370090076945 L 612.8000000000001,443.8712421467916 L 628,442.22726231012956 L 643.1999999999999,439.4605034815907 L 658.4,436.96570873842506 L 673.6,436.0005221012456 L 688.8,437.0515011140546 L 704,439.58883967762483 L 719.2,442.33344712468335 L 734.4,443.9017470491235 L 749.6,443.50314814963554 L 764.8,441.3385870058468 L 780,438.49923449952803"
      stroke="url(#thread-35)"
      stroke-width="5.776"
      stroke-linecap="round"
      fill="none"
      opacity="0.4166666666666667"
      class="thread"
      style="animation-delay: 3.5s"
    >
      <title>2025-12-23: 2888 stars, Python, TypeScript</title>
    </path>
  </g>

  <!-- Date markers -->
  <g id="dates">
    <text x="785" y="24" class="date-label">01-27</text>
<text x="785" y="108" class="date-label">01-20</text>
<text x="785" y="192" class="date-label">01-13</text>
<text x="785" y="276" class="date-label">01-06</text>
<text x="785" y="360" class="date-label">12-30</text>
<text x="785" y="444" class="date-label">12-23</text>
  </g>

</svg>