<?xml version="1.0" encoding="UTF-8"?>
<svg xmlns="http://www.w3.org/2000/svg" viewBox="0 0 800 556" width="800" height="556">
  <title>The Data Tapestry - GitHub Trends Woven in Time</title>
  <desc>A living data art piece that weaves daily GitHub trending repositories into an evolving tapestry. Each thread represents one day of open source activity.</desc>

  <style>
    .thread {
      animation: breathe 8s ease-in-out infinite alternate;
    }

    @keyframes breathe {
      0% {
        opacity: 0.85;
      }
      100% {
        opacity: 1;
      }
    }

    .date-label {
      font-family: ui-monospace, monospace;
      font-size: 8px;
      fill: #666;
    }

    .title {
      font-family: system-ui, sans-serif;
      font-size: 14px;
      fill: #333;
      font-weight: 600;
    }

    .subtitle {
      font-family: system-ui, sans-serif;
      font-size: 10px;
      fill: #888;
    }

    .empty-state {
      font-family: system-ui, sans-serif;
      font-size: 12px;
      fill: #999;
      text-anchor: middle;
    }
  </style>

  <defs>
    
    <linearGradient id="thread-0" x1="0%" y1="0%" x2="100%" y2="0%">
      <stop offset="0%" stop-color="#3178c6" />
      <stop offset="50%" stop-color="#f1e05a" />
      <stop offset="100%" stop-color="#3572A5" />
    </linearGradient>

    <linearGradient id="thread-1" x1="0%" y1="0%" x2="100%" y2="0%">
      <stop offset="0%" stop-color="#3572A5" />
      <stop offset="50%" stop-color="#3178c6" />
      <stop offset="100%" stop-color="#f1e05a" />
    </linearGradient>

    <linearGradient id="thread-2" x1="0%" y1="0%" x2="100%" y2="0%">
      <stop offset="0%" stop-color="#3572A5" />
      <stop offset="50%" stop-color="#8b8b8b" />
      <stop offset="100%" stop-color="#3178c6" />
    </linearGradient>

    <linearGradient id="thread-3" x1="0%" y1="0%" x2="100%" y2="0%">
      <stop offset="0%" stop-color="#3572A5" />
      <stop offset="50%" stop-color="#f1e05a" />
      <stop offset="100%" stop-color="#8b8b8b" />
    </linearGradient>

    <linearGradient id="thread-4" x1="0%" y1="0%" x2="100%" y2="0%">
      <stop offset="0%" stop-color="#3572A5" />
      <stop offset="50%" stop-color="#3178c6" />
      <stop offset="100%" stop-color="#dea584" />
    </linearGradient>

    <linearGradient id="thread-5" x1="0%" y1="0%" x2="100%" y2="0%">
      <stop offset="0%" stop-color="#3572A5" />
      <stop offset="50%" stop-color="#3178c6" />
      <stop offset="100%" stop-color="#f1e05a" />
    </linearGradient>

    <linearGradient id="thread-6" x1="0%" y1="0%" x2="100%" y2="0%">
      <stop offset="0%" stop-color="#3572A5" />
      <stop offset="50%" stop-color="#3178c6" />
      <stop offset="100%" stop-color="#f1e05a" />
    </linearGradient>

    <linearGradient id="thread-7" x1="0%" y1="0%" x2="100%" y2="0%">
      <stop offset="0%" stop-color="#3572A5" />
      <stop offset="50%" stop-color="#3178c6" />
      <stop offset="100%" stop-color="#f1e05a" />
    </linearGradient>

    <linearGradient id="thread-8" x1="0%" y1="0%" x2="100%" y2="0%">
      <stop offset="0%" stop-color="#3178c6" />
      <stop offset="50%" stop-color="#3572A5" />
      <stop offset="100%" stop-color="#f1e05a" />
    </linearGradient>

    <linearGradient id="thread-9" x1="0%" y1="0%" x2="100%" y2="0%">
      <stop offset="0%" stop-color="#3572A5" />
      <stop offset="50%" stop-color="#3178c6" />
      <stop offset="100%" stop-color="#89e051" />
    </linearGradient>

    <linearGradient id="thread-10" x1="0%" y1="0%" x2="100%" y2="0%">
      <stop offset="0%" stop-color="#3178c6" />
      <stop offset="50%" stop-color="#3572A5" />
      <stop offset="100%" stop-color="#89e051" />
    </linearGradient>

    <linearGradient id="thread-11" x1="0%" y1="0%" x2="100%" y2="0%">
      <stop offset="0%" stop-color="#3572A5" />
      <stop offset="50%" stop-color="#3178c6" />
      <stop offset="100%" stop-color="#8b8b8b" />
    </linearGradient>

    <linearGradient id="thread-12" x1="0%" y1="0%" x2="100%" y2="0%">
      <stop offset="0%" stop-color="#3178c6" />
      <stop offset="50%" stop-color="#3572A5" />
      <stop offset="100%" stop-color="#dea584" />
    </linearGradient>

    <linearGradient id="thread-13" x1="0%" y1="0%" x2="100%" y2="0%">
      <stop offset="0%" stop-color="#3572A5" />
      <stop offset="50%" stop-color="#3178c6" />
      <stop offset="100%" stop-color="#8b8b8b" />
    </linearGradient>

    <linearGradient id="thread-14" x1="0%" y1="0%" x2="100%" y2="0%">
      <stop offset="0%" stop-color="#3572A5" />
      <stop offset="50%" stop-color="#3178c6" />
      <stop offset="100%" stop-color="#41b883" />
    </linearGradient>

    <linearGradient id="thread-15" x1="0%" y1="0%" x2="100%" y2="0%">
      <stop offset="0%" stop-color="#3178c6" />
      <stop offset="50%" stop-color="#f1e05a" />
      <stop offset="100%" stop-color="#89e051" />
    </linearGradient>

    <linearGradient id="thread-16" x1="0%" y1="0%" x2="100%" y2="0%">
      <stop offset="0%" stop-color="#3178c6" />
      <stop offset="50%" stop-color="#3572A5" />
      <stop offset="100%" stop-color="#f1e05a" />
    </linearGradient>

    <linearGradient id="thread-17" x1="0%" y1="0%" x2="100%" y2="0%">
      <stop offset="0%" stop-color="#3178c6" />
      <stop offset="50%" stop-color="#3572A5" />
      <stop offset="100%" stop-color="#f1e05a" />
    </linearGradient>

    <linearGradient id="thread-18" x1="0%" y1="0%" x2="100%" y2="0%">
      <stop offset="0%" stop-color="#3178c6" />
      <stop offset="50%" stop-color="#f1e05a" />
      <stop offset="100%" stop-color="#3572A5" />
    </linearGradient>

    <linearGradient id="thread-19" x1="0%" y1="0%" x2="100%" y2="0%">
      <stop offset="0%" stop-color="#3572A5" />
      <stop offset="50%" stop-color="#3178c6" />
      <stop offset="100%" stop-color="#89e051" />
    </linearGradient>

    <linearGradient id="thread-20" x1="0%" y1="0%" x2="100%" y2="0%">
      <stop offset="0%" stop-color="#3178c6" />
      <stop offset="50%" stop-color="#89e051" />
      <stop offset="100%" stop-color="#3572A5" />
    </linearGradient>

    <linearGradient id="thread-21" x1="0%" y1="0%" x2="100%" y2="0%">
      <stop offset="0%" stop-color="#3572A5" />
      <stop offset="50%" stop-color="#3178c6" />
      <stop offset="100%" stop-color="#89e051" />
    </linearGradient>

    <linearGradient id="thread-22" x1="0%" y1="0%" x2="100%" y2="0%">
      <stop offset="0%" stop-color="#3178c6" />
      <stop offset="50%" stop-color="#3572A5" />
      <stop offset="100%" stop-color="#8b8b8b" />
    </linearGradient>

    <linearGradient id="thread-23" x1="0%" y1="0%" x2="100%" y2="0%">
      <stop offset="0%" stop-color="#3178c6" />
      <stop offset="50%" stop-color="#89e051" />
      <stop offset="100%" stop-color="#3572A5" />
    </linearGradient>

    <linearGradient id="thread-24" x1="0%" y1="0%" x2="100%" y2="0%">
      <stop offset="0%" stop-color="#3572A5" />
      <stop offset="50%" stop-color="#3178c6" />
      <stop offset="100%" stop-color="#89e051" />
    </linearGradient>

    <linearGradient id="thread-25" x1="0%" y1="0%" x2="100%" y2="0%">
      <stop offset="0%" stop-color="#3572A5" />
      <stop offset="50%" stop-color="#3178c6" />
      <stop offset="100%" stop-color="#8b8b8b" />
    </linearGradient>

    <linearGradient id="thread-26" x1="0%" y1="0%" x2="100%" y2="0%">
      <stop offset="0%" stop-color="#3572A5" />
      <stop offset="50%" stop-color="#3178c6" />
      <stop offset="100%" stop-color="#8b8b8b" />
    </linearGradient>

    <linearGradient id="thread-27" x1="0%" y1="0%" x2="100%" y2="0%">
      <stop offset="0%" stop-color="#3178c6" />
      <stop offset="50%" stop-color="#3572A5" />
      <stop offset="100%" stop-color="#dea584" />
    </linearGradient>

    <linearGradient id="thread-28" x1="0%" y1="0%" x2="100%" y2="0%">
      <stop offset="0%" stop-color="#3572A5" />
      <stop offset="50%" stop-color="#3178c6" />
      <stop offset="100%" stop-color="#00ADD8" />
    </linearGradient>

    <linearGradient id="thread-29" x1="0%" y1="0%" x2="100%" y2="0%">
      <stop offset="0%" stop-color="#3572A5" />
      <stop offset="50%" stop-color="#00ADD8" />
      <stop offset="100%" stop-color="#3178c6" />
    </linearGradient>

    <linearGradient id="thread-30" x1="0%" y1="0%" x2="100%" y2="0%">
      <stop offset="0%" stop-color="#3572A5" />
      <stop offset="50%" stop-color="#3178c6" />
      <stop offset="100%" stop-color="#00ADD8" />
    </linearGradient>

    <linearGradient id="thread-31" x1="0%" y1="0%" x2="100%" y2="0%">
      <stop offset="0%" stop-color="#3572A5" />
      <stop offset="50%" stop-color="#00ADD8" />
      <stop offset="100%" stop-color="#DA5B0B" />
    </linearGradient>

    <linearGradient id="thread-32" x1="0%" y1="0%" x2="100%" y2="0%">
      <stop offset="0%" stop-color="#3572A5" />
      <stop offset="50%" stop-color="#3178c6" />
      <stop offset="100%" stop-color="#dea584" />
    </linearGradient>

    <linearGradient id="thread-33" x1="0%" y1="0%" x2="100%" y2="0%">
      <stop offset="0%" stop-color="#dea584" />
      <stop offset="50%" stop-color="#3572A5" />
      <stop offset="100%" stop-color="#3178c6" />
    </linearGradient>

    <linearGradient id="thread-34" x1="0%" y1="0%" x2="100%" y2="0%">
      <stop offset="0%" stop-color="#3572A5" />
      <stop offset="50%" stop-color="#3178c6" />
      <stop offset="100%" stop-color="#dea584" />
    </linearGradient>

    <linearGradient id="thread-35" x1="0%" y1="0%" x2="100%" y2="0%">
      <stop offset="0%" stop-color="#3572A5" />
      <stop offset="50%" stop-color="#dea584" />
      <stop offset="100%" stop-color="#3178c6" />
    </linearGradient>

    <linearGradient id="thread-36" x1="0%" y1="0%" x2="100%" y2="0%">
      <stop offset="0%" stop-color="#3572A5" />
      <stop offset="50%" stop-color="#3178c6" />
      <stop offset="100%" stop-color="#89e051" />
    </linearGradient>

    <linearGradient id="thread-37" x1="0%" y1="0%" x2="100%" y2="0%">
      <stop offset="0%" stop-color="#3572A5" />
      <stop offset="50%" stop-color="#f1e05a" />
      <stop offset="100%" stop-color="#89e051" />
    </linearGradient>

    <linearGradient id="thread-38" x1="0%" y1="0%" x2="100%" y2="0%">
      <stop offset="0%" stop-color="#3572A5" />
      <stop offset="50%" stop-color="#89e051" />
      <stop offset="100%" stop-color="#dea584" />
    </linearGradient>

    <linearGradient id="thread-39" x1="0%" y1="0%" x2="100%" y2="0%">
      <stop offset="0%" stop-color="#3572A5" />
      <stop offset="50%" stop-color="#89e051" />
      <stop offset="100%" stop-color="#00ADD8" />
    </linearGradient>

    <linearGradient id="thread-40" x1="0%" y1="0%" x2="100%" y2="0%">
      <stop offset="0%" stop-color="#3572A5" />
      <stop offset="50%" stop-color="#3178c6" />
      <stop offset="100%" stop-color="#3572A5" />
    </linearGradient>

    <linearGradient id="thread-41" x1="0%" y1="0%" x2="100%" y2="0%">
      <stop offset="0%" stop-color="#3572A5" />
      <stop offset="50%" stop-color="#3178c6" />
      <stop offset="100%" stop-color="#3572A5" />
    </linearGradient>

    <linearGradient id="thread-42" x1="0%" y1="0%" x2="100%" y2="0%">
      <stop offset="0%" stop-color="#3572A5" />
      <stop offset="50%" stop-color="#3178c6" />
      <stop offset="100%" stop-color="#3572A5" />
    </linearGradient>

    <!-- Background pattern -->
    <pattern id="loom" patternUnits="userSpaceOnUse" width="20" height="20">
      <rect width="20" height="20" fill="#fafafa"/>
      <circle cx="10" cy="10" r="0.5" fill="#eee"/>
    </pattern>
  </defs>

  <!-- Background -->
  <rect width="100%" height="100%" fill="url(#loom)"/>

  <!-- Threads -->
  <g id="tapestry">
    
    <path
      d="M 20,20 L 35.2,23.707143260026516 L 50.400000000000006,17.215266102521177 L 65.6,18.38469466902943 L 80.80000000000001,23.998119837654173 L 96,18.611995489090205 L 111.2,17.044522148443868 L 126.4,23.608101976584045 L 141.60000000000002,20.245141839431774 L 156.79999999999998,16.207752242669653 L 172,22.603520900782993 L 187.2,21.836533506041036 L 202.4,16.016910857742708 L 217.6,21.15548556986714 L 232.8,23.11511086120385 L 248,16.504503753141446 L 263.20000000000005,19.510637917403482 L 278.40000000000003,23.863095523164272 L 293.59999999999997,17.587479878972893 L 308.8,17.949142658137028 L 324,23.953084258475155 L 339.2,19.081377350931376 L 354.4,16.736967204449677 L 369.6,23.36974940544036 L 384.8,20.73174259791396 L 400,16.080579790463013 L 415.2,22.21244961436197 L 430.40000000000003,22.257471100633737 L 445.6,16.091782012103778 L 460.79999999999995,20.678306220675694 L 476,23.39868755081975 L 491.2,16.76866580984697 L 506.40000000000003,19.02862782984809 L 521.6,23.961010067116643 L 536.8000000000001,17.99593846595895 L 552,17.544401969869902 L 567.1999999999999,23.848659002614877 L 582.4,19.5645602598924 L 597.6,16.47843485902838 L 612.8000000000001,23.080770964823515 L 628,21.207349926086394 L 643.1999999999999,16.012291258709965 L 658.4,21.788139302744597 L 673.6,22.64449328386217 L 688.8,16.22536878888132 L 704,20.19093624955398 L 719.2,23.63120361496299 L 734.4,17.081374236994996 L 749.6,18.561211278719 L 764.8,23.99941585996843 L 780,18.434505332651206"
      stroke="url(#thread-0)"
      stroke-width="8"
      stroke-linecap="round"
      fill="none"
      opacity="1"
      class="thread"
      style="animation-delay: 0s"
    >
      <title>2026-02-03: 7782 stars, TypeScript, Unknown, JavaScript, Shell, Python</title>
    </path>

    <path
      d="M 20,33.917702154416816 L 35.2,34.728325823433245 L 50.400000000000006,28.364827784914077 L 65.6,31.560000369561518 L 80.80000000000001,35.912150201180204 L 96,29.977316916497575 L 111.2,29.361120611382002 L 126.4,35.68384697556465 L 141.60000000000002,32.31991263095371 L 156.79999999999998,28.114769318364104 L 172,34.12582435441333 L 187.2,34.547032856585886 L 202.4,28.270828773612955 L 217.6,31.80046533348327 L 232.8,35.85477749117577 L 248,29.77296784125956 L 263.20000000000005,29.54713023697487 L 278.40000000000003,35.7711037445216 L 293.59999999999997,32.078975222547236 L 308.8,28.17918167260322 L 324,34.32621444658918 L 339.2,34.356475750568684 L 354.4,28.19039360823558 L 369.6,32.04165605047688 L 384.8,35.78338407662695 L 400,29.576718989699827 L 415.2,29.742061509099074 L 430.40000000000003,35.84464414942659 L 445.6,31.837750563251646 L 460.79999999999995,28.257491214166087 L 476,34.518143566494324 L 491.2,34.15734760501924 L 506.40000000000003,28.123814849815965 L 521.6,32.28269525491823 L 536.8000000000001,35.69822963165864 L 552,29.38928416363219 L 567.1999999999999,29.94520541827766 L 582.4,35.904200707061335 L 597.6,31.597116042147082 L 612.8000000000001,28.349413113397095 L 628,34.70091362416384 L 643.1999999999999,33.950372694400116 L 658.4,28.071334660477074 L 673.6,32.522706232268746 L 688.8,35.59962388240068 L 704,29.21134510625022 L 719.2,30.155823083800293 L 734.4,35.94955679664802 L 749.6,31.3579469018463 L 764.8,28.454613029392476 L 780,34.873859843230235"
      stroke="url(#thread-1)"
      stroke-width="8"
      stroke-linecap="round"
      fill="none"
      opacity="0.9860465116279069"
      class="thread"
      style="animation-delay: 0.1s"
    >
      <title>2026-02-02: 7524 stars, TypeScript, JavaScript, Lua, Unknown, Python, Shell</title>
    </path>

    <path
      d="M 20,47.36588393923159 L 35.2,45.372082918846004 L 50.400000000000006,40.033475777533184 L 65.6,44.364294817308334 L 80.80000000000001,47.80705124948262 L 96,41.96913801727321 L 111.2,41.081974843446666 L 126.4,47.30825085802437 L 141.60000000000002,45.46981185611506 L 156.79999999999998,40.04832723398923 L 172,44.26006453606823 L 187.2,47.83782743315375 L 202.4,42.05989577770337 L 217.6,41.011468723499966 L 232.8,47.24835771610447 L 248,45.56653667846853 L 263.20000000000005,40.06587831050165 L 278.40000000000003,44.15565658944969 L 293.59999999999997,47.86598177121038 L 308.8,42.151978937421404 L 324,40.94300424501774 L 339.2,47.18624542999929 L 354.4,45.66219130749207 L 369.6,40.08611701689796 L 384.8,44.05114230466099 L 400,47.891495029768485 L 415.2,42.24532458900566 L 430.40000000000003,40.87662818011153 L 445.6,47.12195643226424 L 460.79999999999995,45.75671039588334 L 476,40.10902952692761 L 491.2,43.94659308155646 L 506.40000000000003,47.914349779220764 L 521.6,42.3398689625521 L 536.8000000000001,40.8123858741747 L 552,47.055534642494294 L 567.1999999999999,45.850029372094546 L 582.4,40.13460018770755 L 597.6,43.842080343858605 L 612.8000000000001,47.93453040614383 L 628,42.435547469239246 L 643.1999999999999,40.75032121490433 L 658.4,46.987025437320206 L 673.6,45.942084484445225 L 688.8,40.16281153041567 L 704,43.737675490364865 L 719.2,47.95202312396463 L 734.4,42.532294745452454 L 749.6,40.690476602319194 L 764.8,46.91647561940896 L 780,46.032812844674446"
      stroke="url(#thread-2)"
      stroke-width="8"
      stroke-linecap="round"
      fill="none"
      opacity="0.9720930232558139"
      class="thread"
      style="animation-delay: 0.2s"
    >
      <title>2026-02-01: 7128 stars, TypeScript, Python, JavaScript, Roff, Go, Unknown, Shell</title>
    </path>

    <path
      d="M 20,59.98997994641622 L 35.2,55.004938242976664 L 50.400000000000006,52.64020414429909 L 65.6,59.122859234285116 L 80.80000000000001,57.38205307431121 L 96,52.00187060905598 L 111.2,57.15000839525153 L 126.4,59.26981580662489 L 141.60000000000002,52.779179530663185 L 156.79999999999998,54.76996695509837 L 172,59.999814587520916 L 187.2,54.69690432090469 L 202.4,52.82545093981907 L 217.6,59.31357422356853 L 232.8,57.076024275805906 L 248,52.004967188509426 L 263.20000000000005,57.454076094263826 L 278.40000000000003,59.074149645368614 L 293.59999999999997,52.5990294689681 L 308.8,55.07972422881104 L 324,59.983791794115014 L 339.2,54.39729446711038 L 354.4,53.031220110221234 L 369.6,59.48286808779548 L 384.8,56.76303934805149 L 400,52.03389028992544 L 415.2,57.748743688206716 L 430.40000000000003,58.85861015713894 L 445.6,52.440865519592535 L 460.79999999999995,55.39543077091215 L 476,59.94201514808266 L 491.2,54.108045556917226 L 506.40000000000003,53.256181428133395 L 521.6,59.629646399984075 L 536.8000000000001,56.445121631654025 L 552,52.08845293533682 L 567.1999999999999,58.03210625177775 L 582.4,58.62459073107409 L 597.6,52.305710158422244 L 612.8000000000001,55.71504564648877 L 628,59.874754721164734 L 643.1999999999999,53.83102748568892 L 658.4,53.49888059550795 L 673.6,59.75296028850234 L 688.8,56.12432635601292 L 704,52.16830239588589 L 719.2,58.30233194283278 L 734.4,58.37360422279565 L 749.6,52.19443711868247 L 764.8,56.03650265458764 L 780,59.78244532903735"
      stroke="url(#thread-3)"
      stroke-width="8"
      stroke-linecap="round"
      fill="none"
      opacity="0.958139534883721"
      class="thread"
      style="animation-delay: 0.30000000000000004s"
    >
      <title>2026-01-31: 7532 stars, TypeScript, Python, Roff, JavaScript, Unknown, Shell</title>
    </path>

    <path
      d="M 20,71.63718970730272 L 35.2,64.89326405477006 L 50.400000000000006,67.12227423736327 L 65.6,71.88634922360312 L 80.80000000000001,65.42579397700189 L 96,66.40011117465245 L 111.2,71.99525873132342 L 126.4,66.05122147380568 L 141.60000000000002,65.73568466843004 L 156.79999999999998,71.95998791990394 L 172,66.74697620815147 L 187.2,65.15297244633626 L 202.4,71.78180963728485 L 217.6,67.4879498838344 L 232.8,64.67300334274664 L 248,71.467153955554 L 263.20000000000005,68.24740235003608 L 278.40000000000003,64.3130984132389 L 293.59999999999997,71.02737612343542 L 308.8,68.99792659601903 L 324,64.08624585484509 L 339.2,70.47834677971608 L 354.4,69.71243781136542 L 369.6,64.00063228987591 L 384.8,69.83987921592929 L 400,70.36515081869739 L 415.2,64.05934732827909 L 430.40000000000003,69.13501435715597 L 445.6,70.93251060542813 L 460.79999999999995,64.26027207024246 L 476,68.38918926445331 L 491.2,71.39404237364872 L 506.40000000000003,64.59615557274392 L 521.6,67.62931916587544 L 536.8000000000001,71.733090431673 L 552,65.05487652053434 L 567.1999999999999,66.88282614361651 L 582.4,71.93741926222991 L 597.6,65.61988065840858 L 612.8000000000001,66.17664952987579 L 628,71.99965507604055 L 643.1999999999999,66.2707781987729 L 658.4,65.53627372413415 L 673.6,71.91755191605921 L 688.8,66.98407964534975 L 704,64.98480851583201 L 719.2,71.69407270924627 L 734.4,67.7340434787217 L 749.6,64.54215510163134 L 764.8,71.33728234088848 L 780,68.49360511256002"
      stroke="url(#thread-4)"
      stroke-width="8"
      stroke-linecap="round"
      fill="none"
      opacity="0.944186046511628"
      class="thread"
      style="animation-delay: 0.4s"
    >
      <title>2026-01-30: 8081 stars, TypeScript, Rust, Roff, Python, JavaScript, Shell, Unknown</title>
    </path>

    <path
      d="M 20,82.39388857641583 L 35.2,76.01019821487013 L 50.400000000000006,82.82571313736796 L 65.6,80.29310256828218 L 80.80000000000001,76.79083957624755 L 96,83.90523613366919 L 111.2,78.10019052655076 L 126.4,78.58016272008753 L 141.60000000000002,83.75729149853285 L 156.79999999999998,76.5044138576211 L 172,80.81575959574496 L 187.2,82.42838019749827 L 202.4,76.00734638214563 L 217.6,82.79495238608253 L 232.8,80.33619671848845 L 248,76.76522301547972 L 263.20000000000005,83.89565448651086 L 278.40000000000003,78.1383421415949 L 293.59999999999997,78.53983305686187 L 308.8,83.77190059457801 L 324,76.52563137772268 L 339.2,80.77339297933948 L 354.4,82.46258820365253 L 369.6,76.00496085867955 L 384.8,82.76386520723807 L 400,80.3792516036702 L 415.2,76.73998425018358 L 430.40000000000003,83.88561785879861 L 445.6,78.17671118303727 L 460.79999999999995,78.49967392918212 L 476,83.78606916351079 L 491.2,76.54725467563787 L 506.40000000000003,80.73093603696509 L 521.6,82.4965085996635 L 536.8000000000001,76.00304192308151 L 552,82.73245523156265 L 567.1999999999999,80.42226219536917 L 582.4,76.71512622804029 L 597.6,83.87512742272841 L 612.8000000000001,78.21529316968794 L 628,78.4596900273057 L 643.1999999999999,83.7997955505583 L 658.4,76.56928122594258 L 673.6,80.68839372724501 L 688.8,82.5301374239067 L 704,76.00158979946747 L 719.2,82.70072612748423 L 734.4,80.46522347030046 L 749.6,76.69065185226333 L 764.8,83.86418440349729 L 780,78.2540835954866"
      stroke="url(#thread-5)"
      stroke-width="8"
      stroke-linecap="round"
      fill="none"
      opacity="0.9302325581395349"
      class="thread"
      style="animation-delay: 0.5s"
    >
      <title>2026-01-29: 9087 stars, TypeScript, JavaScript, Python, Shell, Unknown</title>
    </path>

    <path
      d="M 20,92.56448003223947 L 35.2,90.42583276084679 L 50.400000000000006,94.4756883067096 L 65.6,88.79290320318351 L 80.80000000000001,95.71813525861332 L 96,88.026311418989 L 111.2,95.95619686592742 L 126.4,88.33313797413135 L 141.60000000000002,95.12556519662017 L 156.79999999999998,89.63049936010938 L 172,93.45062000489 L 187.2,91.56793743807668 L 202.4,91.38381669823382 L 217.6,93.6220892112051 L 232.8,89.4834638929254 L 248,95.23806364057572 L 263.20000000000005,88.26290668655892 L 278.40000000000003,95.97933517743897 L 293.59999999999997,88.0518559920088 L 308.8,95.64566305156946 L 324,88.90732324372473 L 339.2,94.32718260496287 L 354.4,90.5982198151138 L 369.6,92.3800568993669 L 384.8,92.66778132903664 L 400,90.33026586470578 L 415.2,94.556954090635 L 430.40000000000003,88.73152256720415 L 445.6,95.75541308396122 L 460.79999999999995,88.01569788462305 L 476,95.93941681892298 L 491.2,88.37615859102334 L 506.40000000000003,95.05926009603421 L 521.6,89.7155329057603 L 536.8000000000001,93.35270094503944 L 552,91.67201367576581 L 567.1999999999999,91.28073469873718 L 582.4,93.71709387381077 L 597.6,89.40306464587937 L 612.8000000000001,95.29833297889257 L 628,88.22690855878795 L 643.1999999999999,95.98858854648684 L 658.4,88.06998321069959 L 673.6,95.60140082516118 L 688.8,88.97467907663795 L 704,94.24136140340177 L 719.2,90.69660933206384 L 734.4,92.27585973002287 L 749.6,92.77062642513708 L 764.8,90.2358396621462 L 780,94.63647306885173"
      stroke="url(#thread-6)"
      stroke-width="8"
      stroke-linecap="round"
      fill="none"
      opacity="0.9162790697674419"
      class="thread"
      style="animation-delay: 0.6000000000000001s"
    >
      <title>2026-01-28: 11454 stars, TypeScript, JavaScript, Python, Shell</title>
    </path>

    <path
      d="M 20,102.59686708924153 L 35.2,105.4575847835089 L 50.400000000000006,102.48827305845728 L 65.6,105.56554788047038 L 80.80000000000001,102.38096383584347 L 96,105.67218042715005 L 111.2,102.27503062290099 L 126.4,105.77739179715014 L 141.60000000000002,102.17056345166783 L 156.79999999999998,105.8810925719228 L 172,102.06765110820152 L 187.2,105.98319461676657 L 202.4,101.96638105712024 L 217.6,106.0836111557315 L 232.8,101.86683936726713 L 248,106.18225684536951 L 263.20000000000005,101.76911063856099 L 278.40000000000003,106.27904784726742 L 293.59999999999997,101.67327793009507 L 308.8,106.37390189930046 L 324,101.57942268954588 L 339.2,106.46673838554692 L 354.4,101.48762468395114 L 369.6,106.55747840480255 L 384.8,101.39796193191607 L 400,106.64604483763864 L 415.2,101.31051063730615 L 430.40000000000003,106.73236241194523 L 445.6,101.22534512448163 L 460.79999999999995,106.8163577669045 L 476,101.14253777512984 L 491.2,106.89795951533979 L 506.40000000000003,101.06215896674817 L 521.6,106.97709830438704 L 536.8000000000001,100.98427701283087 L 552,107.05370687443724 L 567.1999999999999,100.90895810480984 L 582.4,107.12772011630058 L 597.6,100.83626625579863 L 612.8000000000001,107.19907512654156 L 628,100.76626324618806 L 643.1999999999999,107.26771126094093 L 658.4,100.69900857114001 L 673.6,107.3335701860367 L 688.8,100.6345593900219 L 704,107.39659592870117 L 719.2,100.57297047782805 L 734.4,107.45673492371228 L 749.6,100.51429417862626 L 764.8,107.51393605927873 L 780,100.45858036107111"
      stroke="url(#thread-7)"
      stroke-width="8"
      stroke-linecap="round"
      fill="none"
      opacity="0.9023255813953488"
      class="thread"
      style="animation-delay: 0.7000000000000001s"
    >
      <title>2026-01-27: 12558 stars, TypeScript, JavaScript, Python, Shell</title>
    </path>

    <path
      d="M 20,112.9727900187683 L 35.2,112.8688685789657 L 50.400000000000006,117.86460275219068 L 65.6,119.82346922085446 L 80.80000000000001,115.55507351125819 L 96,112.01132699730229 L 111.2,114.96390910439791 L 126.4,119.60396645314871 L 141.60000000000002,118.37426451025924 L 156.79999999999998,113.27761170889828 L 172,112.61489695187893 L 187.2,117.46547992617133 L 202.4,119.92924423131629 L 217.6,115.99347121120607 L 232.8,112.06833159159625 L 248,114.54667754042552 L 263.20000000000005,119.39204136295994 L 278.40000000000003,118.71280706098439 L 293.59999999999997,113.61523960867433 L 308.8,112.40171759554691 L 324,117.04869729686557 L 339.2,119.98766978379501 L 354.4,116.4319475864901 L 369.6,112.17271485648122 L 384.8,114.14695927587773 L 400,119.13924039167621 L 415.2,119.01865886092178 L 430.40000000000003,113.98160512446539 L 445.6,112.23189943324886 L 460.79999999999995,116.61927731399467 L 476,119.99804181967802 L 491.2,116.86521876634889 L 506.40000000000003,112.32321891875719 L 521.6,113.76957112591245 L 536.8000000000001,118.84860992385987 L 552,119.28813423514315 L 567.1999999999999,114.37229335926455 L 582.4,112.10748886308758 L 597.6,116.18239471403189 L 612.8000000000001,119.96023535048194 L 628,117.28806360536159 L 643.1999999999999,112.51803012537708 L 658.4,113.41906081607118 L 673.6,118.52365220938749 L 688.8,119.51798586376765 L 704,114.78259631451805 L 719.2,112.0299850978169 L 734.4,115.74331416190832 L 749.6,119.8747059640296 L 764.8,117.69538660099393 L 780,112.75480089891892"
      stroke="url(#thread-8)"
      stroke-width="8"
      stroke-linecap="round"
      fill="none"
      opacity="0.8883720930232558"
      class="thread"
      style="animation-delay: 0.8s"
    >
      <title>2026-01-26: 5507 stars, TypeScript, JavaScript, Python, Rust, Shell</title>
    </path>

    <path
      d="M 20,124.08987952933961 L 35.2,125.28161031159672 L 50.400000000000006,129.13904700265428 L 65.6,131.8795120033283 L 80.80000000000001,130.8156519233665 L 96,126.99070869139638 L 111.2,124.15549618733597 L 126.4,125.09027904985007 L 141.60000000000002,128.87839098540485 L 156.79999999999998,131.80513560117475 L 172,131.00049008582758 L 187.2,127.25350551393925 L 202.4,124.23854798396775 L 217.6,124.9121436101466 L 232.8,128.61375139332944 L 248,131.71350259843874 L 263.20000000000005,131.1717207808053 L 278.40000000000003,127.51968774991624 L 293.59999999999997,124.3386582725573 L 308.8,124.74801185124738 L 324,128.34632838858184 L 339.2,131.60502855826803 L 354.4,131.32856746311953 L 369.6,127.78804824115755 L 384.8,124.4553730447734 L 400,124.59862812407792 L 415.2,128.0773347563196 L 430.40000000000003,131.48020541929012 L 445.6,131.47031882026184 L 460.79999999999995,128.05736995092784 L 476,124.58816298959609 L 491.2,124.46466989603579 L 506.40000000000003,127.80799040462426 L 521.6,131.33959926463015 L 536.8000000000001,131.59633199825575 L 552,128.32643148328725 L 567.1999999999999,124.73642589378528 L 582.4,124.3467446786208 L 597.6,127.53951683211858 L 612.8000000000001,131.1838477546778 L 628,131.70603551705207 L 643.1999999999999,128.59401262222187 L 658.4,124.89948937296714 L 673.6,124.24538727232071 L 688.8,127.27313158837067 L 704,131.0136572352455 L 719.2,131.79893186223737 L 734.4,128.85889986542261 L 749.6,125.07661392095187 L 764.8,124.16105734124741 L 780,127.0100427522072"
      stroke="url(#thread-9)"
      stroke-width="8"
      stroke-linecap="round"
      fill="none"
      opacity="0.8744186046511628"
      class="thread"
      style="animation-delay: 0.9s"
    >
      <title>2026-01-25: 4122 stars, Shell, Python, TypeScript</title>
    </path>

    <path
      d="M 20,136.16430290134744 L 35.2,140.7498885440934 L 50.400000000000006,143.98396693709802 L 65.6,140.03783136280256 L 80.80000000000001,136.02351317457337 L 96,139.17592771668924 L 111.2,143.813549192526 L 126.4,141.57809676752697 L 141.60000000000002,136.49847604724533 L 156.79999999999998,137.72957315905455 L 172,143.05260947931617 L 187.2,142.873996421919 L 202.4,137.51564428122893 L 217.6,136.63479055187244 L 232.8,141.81897809013657 L 248,143.72486234546108 L 263.20000000000005,138.91751100886788 L 278.40000000000003,136.06110522385524 L 293.59999999999997,140.30368086462747 L 308.8,143.99893931621935 L 324,140.48699941851504 L 339.2,136.09735142681842 L 354.4,138.74135914488372 L 369.6,143.65378695538666 L 384.8,141.9810767502323 L 400,136.7379164944375 L 415.2,137.37393594042015 L 430.40000000000003,142.74285155178984 L 445.6,143.1683875284034 L 460.79999999999995,137.8836099546157 L 476,136.4131545386299 L 491.2,141.40718998988916 L 506.40000000000003,143.86507858562084 L 521.6,139.35702301480723 L 536.8000000000001,136.0077903967505 L 552,139.85362731772997 L 567.1999999999999,143.96326843042598 L 582.4,140.93000002865884 L 597.6,136.22061350121527 L 612.8000000000001,138.322730220374 L 628,143.4477525230247 L 643.1999999999999,142.35896803147338 L 658.4,137.01866853605077 L 673.6,137.0515556550212 L 688.8,142.39835767385892 L 704,143.4226536226621 L 719.2,138.27837796063517 L 734.4,136.23694296185516 L 749.6,140.97758099019615 L 764.8,143.9563467965035 L 780,139.80467779342217"
      stroke="url(#thread-10)"
      stroke-width="8"
      stroke-linecap="round"
      fill="none"
      opacity="0.8604651162790697"
      class="thread"
      style="animation-delay: 1s"
    >
      <title>2026-01-24: 5856 stars, Shell, TypeScript, Python, Rust</title>
    </path>

    <path
      d="M 20,149.17783869771844 L 35.2,153.71475586106186 L 50.400000000000006,155.98062248940124 L 65.6,152.97448798948335 L 80.80000000000001,148.67772575641357 L 96,148.78103753367836 L 111.2,153.14759552418005 L 126.4,155.99425934878954 L 141.60000000000002,153.55086116690669 L 156.79999999999998,149.05347724699612 L 172,148.4585159556149 L 187.2,152.55395369790637 L 202.4,155.91572615841324 L 217.6,154.09144724628513 L 232.8,149.49722160560796 L 248,148.2177163520423 L 263.20000000000005,151.9475290412141 L 278.40000000000003,155.74683512109468 L 293.59999999999997,154.5837718634156 L 308.8,149.9987191517365 L 324,148.06419532545087 L 339.2,151.34231518493817 L 354.4,155.49148350387514 L 369.6,155.01647431772793 L 384.8,150.54639751369848 L 400,148.0014954702055 L 415.2,150.75227781993144 L 430.40000000000003,155.15556370612373 L 445.6,155.3795697276046 L 460.79999999999995,151.12761866840398 L 476,148.03106362494975 L 491.2,150.19103242995362 L 506.40000000000003,154.74682728871116 L 521.6,155.6646794378119 L 536.8000000000001,151.72897057169774 L 552,148.15221748589303 L 567.1999999999999,149.67153010580958 L 582.4,154.2747061018614 L 597.6,155.86522436224567 L 612.8000000000001,152.3365766497241 L 628,148.3621613514003 L 643.1999999999999,149.20575869077334 L 658.4,153.75009463926827 L 673.6,155.97657680048601 L 688.8,152.93641600960675 L 704,148.6560506345677 L 719.2,148.8044661535556 L 734.4,153.18509864079292 L 749.6,155.99616722489904 L 764.8,153.51464698038166 L 780,149.02710365511626"
      stroke="url(#thread-11)"
      stroke-width="8"
      stroke-linecap="round"
      fill="none"
      opacity="0.8465116279069768"
      class="thread"
      style="animation-delay: 1.1s"
    >
      <title>2026-01-23: 4879 stars, Unknown, Rust, Python, Shell, TypeScript, JavaScript</title>
    </path>

    <path
      d="M 20,162.88233800720428 L 35.2,167.85522763401394 L 50.400000000000006,165.01495904517304 L 65.6,160.11773394035953 L 80.80000000000001,163.08846420388824 L 96,167.90654929840392 L 111.2,164.8074656435637 L 126.4,160.07193988315143 L 141.60000000000002,163.2971775554215 L 156.79999999999998,167.94678324906434 L 172,164.59768046288838 L 187.2,160.03729459247904 L 202.4,163.50788568379565 L 217.6,167.97581529249783 L 232.8,164.38619892326093 L 248,160.01389639989677 L 263.20000000000005,163.7199905493523 L 278.40000000000003,167.9935630288773 L 293.59999999999997,164.1736212594644 L 308.8,160.00181171502638 L 324,163.93289014816153 L 339.2,167.9999760859163 L 354.4,163.96055081734224 L 369.6,160.00107483707058 L 384.8,164.14598022065195 L 400,167.99503626183747 L 415.2,163.74759234135965 L 430.40000000000003,160.01168785746384 L 445.6,164.3586559666427 L 460.79999999999995,167.97875757703355 L 476,163.5353502581955 L 491.2,160.03362065393637 L 506.40000000000003,164.57031376190966 L 521.6,167.95118623427402 L 536.8000000000001,163.32442696123576 L 552,160.06681097600827 L 567.1999999999999,164.7803528714146 L 582.4,167.91240048757095 L 597.6,163.1154211008384 L 612.8000000000001,160.11116462167115 L 628,164.98817715433339 L 643.1999999999999,167.8625104200753 L 658.4,162.90892588522132 L 673.6,160.1665557047558 L 688.8,165.19319675604515 L 704,167.8016576316349 L 719.2,162.70552739679695 L 734.4,160.23282701222706 L 749.6,165.39482978227988 L 764.8,167.73001483690055 L 780,162.50580292873153"
      stroke="url(#thread-12)"
      stroke-width="8"
      stroke-linecap="round"
      fill="none"
      opacity="0.8325581395348838"
      class="thread"
      style="animation-delay: 1.2000000000000002s"
    >
      <title>2026-01-22: 6303 stars, Rust, Unknown, Shell, TypeScript, Python</title>
    </path>

    <path
      d="M 20,176.86047995235126 L 35.2,179.82763094625153 L 50.400000000000006,178.88633693929685 L 65.6,174.99776579418824 L 80.80000000000001,172.13258936147395 L 96,173.21647750386018 L 111.2,177.1426575854573 L 126.4,179.9020547691517 L 141.60000000000002,178.67701179398262 L 156.79999999999998,174.71843637790056 L 172,172.068482666055 L 187.2,173.43305373086804 L 202.4,177.41876786144013 L 217.6,179.95575920936002 L 232.8,178.4534720783685 L 248,174.44591189099012 L 263.20000000000005,172.02525179555926 L 278.40000000000003,173.66326009513588 L 293.59999999999997,177.68734467210504 L 308.8,179.98845910356772 L 324,178.2169047580889 L 339.2,174.18163940159698 L 354.4,172.00312630005791 L 369.6,173.90587423202726 L 384.8,177.9469619109385 L 400,179.9999808197624 L 415.2,177.9685659735958 L 430.40000000000003,173.92702216087125 L 445.6,172.00222366293744 L 460.79999999999995,174.15960789331243 L 476,178.1962410455408 L 491.2,179.99026317919055 L 506.40000000000003,177.70977437022287 L 521.6,173.68341215189952 L 536.8000000000001,172.02254867707876 L 552,174.4231137875921 L 567.1999999999999,178.43385843744645 L 582.4,179.95935778120827 L 597.6,177.44190409635732 L 612.8000000000001,173.45210291085743 L 628,172.06399341940772 L 643.1999999999999,174.69499273423244 L 658.4,178.6585523704653 L 673.6,179.90742872929593 L 688.8,177.16637750689785 L 704,173.2343226585078 L 719.2,172.126337823952 L 734.4,174.9738010928249 L 749.6,178.86912975022466 L 764.8,179.83475175969073 L 780,176.88465761074272"
      stroke="url(#thread-13)"
      stroke-width="8"
      stroke-linecap="round"
      fill="none"
      opacity="0.8186046511627907"
      class="thread"
      style="animation-delay: 1.3s"
    >
      <title>2026-01-21: 4215 stars, Unknown, TypeScript, Python, Shell, JavaScript</title>
    </path>

    <path
      d="M 20,190.62794639487515 L 35.2,190.8375716963414 L 50.400000000000006,185.00147449763296 L 65.6,185.55402753827585 L 80.80000000000001,191.31796282019207 L 96,190.01265558652997 L 111.2,184.4191898614806 L 126.4,186.45498842998649 L 141.60000000000002,191.78258442652012 L 156.79999999999998,189.05101638300206 L 172,184.08015570664568 L 187.2,187.46090456743994 L 202.4,191.99024868331514 L 217.6,188.01797986122833 L 232.8,184.00740319595351 L 248,188.50344236825265 L 263.20000000000005,191.9268486068322 L 278.40000000000003,186.98372193711026 L 293.59999999999997,184.20587453034696 L 308.8,189.51178047858872 L 324,191.5966910713605 L 339.2,186.01850149847377 L 354.4,184.66208721682827 L 369.6,190.4174207873555 L 384.8,191.0222042359778 L 400,185.18788760013973 L 415.2,185.3450499569826 L 430.40000000000003,191.15884161859526 L 445.6,190.2424139618193 L 460.79999999999995,184.54830524727257 L 476,186.20836793822903 L 491.2,191.68567700285385 L 506.40000000000003,189.3102927194093 L 521.6,184.14320234946774 L 536.8000000000001,187.19339451180812 L 552,191.96213812256246 L 567.1999999999999,188.28916107925875 L 582.4,184.00009823086208 L 597.6,188.2332151586962 L 612.8000000000001,191.96944450686868 L 628,187.24838623855106 L 643.1999999999999,184.12871419596004 L 658.4,189.25719310591342 L 673.6,191.7070998207448 L 688.8,186.25866979026424 L 704,184.52031314499794 L 719.2,190.19576780182925 L 734.4,191.19292558186476 L 749.6,185.3872448445328 L 764.8,185.1482930998892 L 780,190.98518028193507"
      stroke="url(#thread-14)"
      stroke-width="8"
      stroke-linecap="round"
      fill="none"
      opacity="0.8046511627906976"
      class="thread"
      style="animation-delay: 1.4000000000000001s"
    >
      <title>2026-01-20: 6510 stars, Python, Vue, TypeScript, Unknown, Shell, JavaScript</title>
    </path>

    <path
      d="M 20,203.75199990709896 L 35.2,202.81592272984616 L 50.400000000000006,198.5804110558369 L 65.6,196.00824073844282 L 80.80000000000001,198.11324002898343 L 96,202.42896792705633 L 111.2,203.8986587215179 L 126.4,200.80026640044616 L 141.60000000000002,196.76419686961256 L 156.79999999999998,196.51953836009494 L 172,200.35295879700058 L 187.2,203.77281517605263 L 202.4,202.77204011880298 L 217.6,198.52324809807965 L 232.8,196.0047756336081 L 248,198.16753286235175 L 263.20000000000005,202.47740344191507 L 278.40000000000003,203.88448471834846 L 293.59999999999997,200.74009064853098 L 308.8,196.72852767858413 L 324,196.55016954698638 L 339.2,200.41399960613347 L 354.4,203.79274370477378 L 369.6,202.72750598379568 L 384.8,198.46643222738174 L 400,196.00224954275058 L 415.2,198.22225638799094 L 430.40000000000003,202.52525668247685 L 445.6,203.86939772879575 L 460.79999999999995,200.67974095007375 L 476,196.69362739511985 L 491.2,196.58161156168552 L 506.40000000000003,200.47494311124012 L 521.6,203.81178080937852 L 536.8000000000001,202.68233079186467 L 552,198.40997679741042 L 567.1999999999999,196.00066305958774 L 582.4,198.27739774400624 L 597.6,202.5725164015982 L 612.8000000000001,203.85340129881683 L 628,200.6192314893117 L 643.1999999999999,196.65950422197653 L 658.4,196.6138570142466 L 673.6,200.53577498851834 L 688.8,203.82992201549803 L 704,202.63652516072082 L 719.2,198.35389507711707 L 734.4,196.00001655699722 L 749.6,198.33294397029837 L 764.8,202.6191714916334 L 780,203.83649918811827"
      stroke="url(#thread-15)"
      stroke-width="8"
      stroke-linecap="round"
      fill="none"
      opacity="0.7906976744186047"
      class="thread"
      style="animation-delay: 1.5s"
    >
      <title>2026-01-19: 4551 stars, JavaScript, TypeScript, Shell, Python</title>
    </path>

    <path
      d="M 20,215.95743298649353 L 35.2,213.89434642270783 L 50.400000000000006,210.30326324732792 L 65.6,208.08078297254332 L 80.80000000000001,209.01957788284122 L 96,212.3624076843019 L 111.2,215.412916236074 L 126.4,215.71053630775413 L 141.60000000000002,213.01520491211966 L 156.79999999999998,209.50100023797722 L 172,208.00251091714767 L 187.2,209.72843171490243 L 202.4,213.28661962126367 L 217.6,215.8070087395388 L 232.8,215.25663087211674 L 248,212.07942568411707 L 263.20000000000005,208.83815503546583 L 278.40000000000003,208.1472565543764 L 293.59999999999997,210.5640150781972 L 308.8,214.13905176514223 L 324,215.988710342792 L 339.2,214.62103981138424 L 354.4,211.13921534137225 L 369.6,208.3517074049832 L 384.8,208.50694460563267 L 400,211.47971124161887 L 415.2,214.872147400733 L 430.40000000000003,215.9478840144462 L 445.6,213.8392223973343 L 460.79999999999995,210.24702769598443 L 476,208.06879598928336 L 491.2,209.06150827458674 L 506.40000000000003,212.42443402549844 L 521.6,215.44500753025665 L 536.8000000000001,215.68680743265324 L 552,212.95479578866866 L 567.1999999999999,209.4526374004763 L 582.4,208.00520425889965 L 597.6,209.7800087625827 L 612.8000000000001,213.3454778711555 L 628,215.82567260569812 L 643.1999999999999,215.22004591470676 L 658.4,212.01710165398782 L 673.6,208.80036304761342 L 688.8,208.16447996110202 L 704,210.62236132700815 L 719.2,214.19145825470346 L 734.4,215.99290553421537 L 749.6,214.57363982609135 L 764.8,211.0784534275425 L 780,208.32659466076254"
      stroke="url(#thread-16)"
      stroke-width="7.412"
      stroke-linecap="round"
      fill="none"
      opacity="0.7767441860465116"
      class="thread"
      style="animation-delay: 1.6s"
    >
      <title>2026-01-18: 3706 stars, JavaScript, Shell, Vue, TypeScript, Python, HTML</title>
    </path>

    <path
      d="M 20,227.19394845049396 L 35.2,221.6024006719814 L 50.400000000000006,220.79038443407526 L 65.6,226.37662609159327 L 80.80000000000001,227.22514563171916 L 96,221.644448626064 L 111.2,220.759462015252 L 126.4,226.33437607493107 L 141.60000000000002,227.25579196776232 L 156.79999999999998,221.68689890124256 L 172,220.72909307057841 L 187.2,226.29172735385032 L 202.4,227.2858822243214 L 217.6,221.7297442471377 L 232.8,220.69928278697896 L 248,226.24868721262442 L 263.20000000000005,227.31541126207094 L 278.40000000000003,221.77297734589308 L 293.59999999999997,220.6700362559605 L 308.8,226.2052630023801 L 324,227.34437403754006 L 339.2,221.81659081342536 L 354.4,220.64135847274267 L 369.6,226.161462139842 L 384.8,227.37276560397376 L 400,221.86057720068536 L 415.2,220.6132543354046 L 430.40000000000003,226.11729210606586 L 445.6,227.40058111217778 L 460.79999999999995,221.90492899493032 L 476,220.58572864404857 L 491.2,226.07276044516064 L 506.40000000000003,227.42781581134693 L 521.6,221.94963862100698 L 536.8000000000001,220.55878609997993 L 552,226.02787476300026 L 567.1999999999999,227.45446504987646 L 582.4,221.9946984426457 L 597.6,220.53243130490415 L 612.8000000000001,225.98264272592428 L 628,227.48052427615644 L 643.1999999999999,222.0401007637643 L 658.4,220.50666876014117 L 673.6,225.9370720594288 L 688.8,227.5059890393494 L 704,222.0858378297827 L 719.2,220.48150286585613 L 734.4,225.89117054684667 L 749.6,227.53085499015032 L 764.8,222.13190182894752 L 780,220.45693792030818"
      stroke="url(#thread-17)"
      stroke-width="8"
      stroke-linecap="round"
      fill="none"
      opacity="0.7627906976744185"
      class="thread"
      style="animation-delay: 1.7000000000000002s"
    >
      <title>2026-01-17: 6237 stars, JavaScript, TypeScript, Shell, Python</title>
    </path>

    <path
      d="M 20,237.64847394096702 L 35.2,232.60085546905572 L 50.400000000000006,233.46727699664356 L 65.6,238.7402852442555 L 80.80000000000001,239.24557726296607 L 96,234.10401502764051 L 111.2,232.2612036582772 L 126.4,236.92337932716353 L 141.60000000000002,239.97900304574526 L 156.79999999999998,236.11171337937324 L 172,232.0500579282933 L 187.2,234.8607537982937 L 202.4,239.6535800381071 L 217.6,238.0896837878843 L 232.8,232.89002760002228 L 248,233.1012920139086 L 263.20000000000005,238.35590625318463 L 278.40000000000003,239.51157039205597 L 293.59999999999997,234.5575891273214 L 308.8,232.1132027089007 L 324,236.43130445191176 L 339.2,239.99899627344192 L 354.4,236.60898926702214 L 369.6,232.15942540691537 L 384.8,234.3919286250958 L 400,239.42225298523016 L 415.2,238.49833184070687 L 430.40000000000003,233.2276598288828 L 445.6,232.7804751724642 L 460.79999999999995,237.9348171460821 L 476,239.7228456577456 L 491.2,235.03363910881194 L 506.40000000000003,232.02576646975183 L 521.6,235.93250892024457 L 536.8000000000001,239.95667648804238 L 552,237.09677578444487 L 567.1999999999999,232.328637346135 L 582.4,233.94816068271095 L 597.6,239.13759982737446 L 612.8000000000001,238.8680504787304 L 628,233.60849111510106 L 643.1999999999999,232.5098254927334 L 658.4,237.48357940219213 L 673.6,239.87611093433702 L 688.8,235.52474708354657 L 704,232.00025738659016 L 719.2,235.43476504560556 L 734.4,239.8527031233549 L 749.6,237.56747216245606 L 764.8,232.55505705787758 L 780,233.53636483569878"
      stroke="url(#thread-18)"
      stroke-width="8"
      stroke-linecap="round"
      fill="none"
      opacity="0.7488372093023256"
      class="thread"
      style="animation-delay: 1.8s"
    >
      <title>2026-01-16: 5731 stars, JavaScript, TypeScript, Shell, Python, C</title>
    </path>

    <path
      d="M 20,247.69939551815276 L 35.2,244.5979775449113 L 50.400000000000006,244.29713800334162 L 65.6,247.04453097058067 L 80.80000000000001,250.57847546452103 L 96,251.98979353025217 L 111.2,250.11667421934743 L 126.4,246.50108781898734 L 141.60000000000002,244.1194207065012 L 156.79999999999998,244.93228473401646 L 172,248.2705222185978 L 187.2,251.38606314526558 L 202.4,251.7141635014794 L 217.6,248.98472783867405 L 232.8,245.44465450887378 L 248,244.00816678510427 L 263.20000000000005,245.85779552648208 L 278.40000000000003,249.470908114297 L 293.59999999999997,251.87315463810063 L 308.8,251.08698207143962 L 324,247.7595754234751 L 339.2,244.6300886576831 L 354.4,244.27474613888808 L 369.6,246.9860693325215 L 384.8,250.5320702497847 L 400,251.9936459692019 L 415.2,250.16761294625167 L 430.40000000000003,246.55717957156224 L 445.6,244.13449020091784 L 460.79999999999995,244.8939266138739 L 476,248.2103132666389 L 491.2,251.35356796445097 L 506.40000000000003,251.73613244508397 L 521.6,249.04307585569123 L 536.8000000000001,245.4913489363373 L 552,244.004768309882 L 567.1999999999999,245.80710180688868 L 582.4,249.41465072018207 L 597.6,251.85764521104215 L 612.8000000000001,251.12498812472745 L 628,247.8198099992728 L 643.1999999999999,244.66296605923327 L 658.4,244.25320136503734 L 673.6,246.92783825355235 L 688.8,250.48508926410923 L 704,251.99659028749798 L 719.2,250.21805877666466 L 734.4,246.61359940906024 L 749.6,244.15043867892808 L 764.8,244.85627478803372 L 780,248.15005649125686"
      stroke="url(#thread-19)"
      stroke-width="7.494"
      stroke-linecap="round"
      fill="none"
      opacity="0.7348837209302326"
      class="thread"
      style="animation-delay: 1.9000000000000001s"
    >
      <title>2026-01-15: 3747 stars, TypeScript, Shell, Python, JavaScript, C</title>
    </path>

    <path
      d="M 20,257.8239155564425 L 35.2,256.00022005065 L 50.400000000000006,257.8947997055831 L 65.6,261.7464155130563 L 80.80000000000001,263.9745286516993 L 96,262.50784073919755 L 111.2,258.70981409164125 L 126.4,256.11116997925376 L 141.60000000000002,257.1276597626134 L 156.79999999999998,260.8143342794015 L 172,263.74398741952155 L 187.2,263.1931552328579 L 202.4,259.6739022987963 L 217.6,256.4577962872429 L 232.8,256.53459344690407 L 248,259.8329016075108 L 263.20000000000005,263.2865477642217 L 278.40000000000003,263.6849536149678 L 293.59999999999997,260.65775314024893 L 308.8,257.01909223664467 L 324,256.15154260247397 L 339.2,258.86159566883623 L 354.4,262.62993209104076 L 369.6,263.95343122410856 L 384.8,261.6017418952138 L 400,257.7610413761322 L 415.2,256.001721418592 L 430.40000000000003,257.9592809202147 L 445.6,261.8139335520777 L 460.79999999999995,263.9823174003308 L 476,262.44865962147344 L 491.2,258.6386790541396 L 506.40000000000003,256.09420957063196 L 521.6,257.1806407167651 L 536.8000000000001,260.8880044453813 L 552,263.76986154271094 L 567.1999999999999,263.1471802126417 L 582.4,259.59881743029786 L 597.6,256.4234019607386 L 612.8000000000001,256.57286331382727 L 628,259.90825923681115 L 643.1999999999999,263.328939201745 L 658.4,263.6549709354866 L 673.6,260.5832688401952 L 688.8,256.9693484058986 L 704,256.1727820975439 L 719.2,258.9340738317797 L 734.4,262.6862717770197 L 749.6,263.94125793812793 L 764.8,261.5323721665476 L 780,257.6989626871599"
      stroke="url(#thread-20)"
      stroke-width="8"
      stroke-linecap="round"
      fill="none"
      opacity="0.7209302325581396"
      class="thread"
      style="animation-delay: 2s"
    >
      <title>2026-01-14: 4003 stars, TypeScript, Shell, Python, C, HTML, Jupyter Notebook</title>
    </path>

    <path
      d="M 20,268.48121696011333 L 35.2,269.1377793558497 L 50.400000000000006,273.8170122274533 L 65.6,275.9425490880228 L 80.80000000000001,272.52708202618 L 96,268.370834441561 L 111.2,269.315150006678 L 126.4,274.03285279207864 L 141.60000000000002,275.89350927491984 L 156.79999999999998,272.28208419768106 L 172,268.27420758340253 L 187.2,269.5026970697206 L 202.4,274.2409882156217 L 217.6,275.8297118569449 L 232.8,272.03601718279117 L 248,268.1917026313285 L 263.20000000000005,269.69970968357836 L 278.40000000000003,274.4406296004266 L 293.59999999999997,275.75139864605217 L 308.8,271.7898136516341 L 324,268.1236323046357 L 339.2,269.9054411094854 L 354.4,274.63102024387223 L 369.6,275.65886647354245 L 384.8,271.5444067917727 L 400,268.0702546109244 L 415.2,270.11911156168077 L 430.40000000000003,274.81143850650983 L 445.6,275.55246606498054 L 460.79999999999995,271.30072677113907 L 476,268.0317718681698 L 491.2,270.33991116303724 L 506.40000000000003,274.9812005472994 L 521.6,275.4326007108371 L 536.8000000000001,271.05969721241013 L 552,268.0083299378742 L 567.1999999999999,270.5670030147464 L 582.4,275.13966291557904 L 597.6,275.2997247378928 L 612.8000000000001,270.82223169219236 L 628,268.00001767220675 L 643.1999999999999,270.7995263684239 L 658.4,275.28622498994184 L 673.6,275.1543417871992 L 688.8,270.5892302782833 L 704,268.0068665772262 L 719.2,271.03659988861284 L 734.4,275.4203312547772 L 749.6,274.9970029051234 L 764.8,270.3615761181365 L 780,268.02885069346354"
      stroke="url(#thread-21)"
      stroke-width="8"
      stroke-linecap="round"
      fill="none"
      opacity="0.7069767441860466"
      class="thread"
      style="animation-delay: 2.1s"
    >
      <title>2026-01-13: 5049 stars, TypeScript, Shell, C, Rust, Python</title>
    </path>

    <path
      d="M 20,280.0000391737972 L 35.2,281.5943891704637 L 50.400000000000006,285.08949546243383 L 65.6,287.72375371801354 L 80.80000000000001,287.41574540463256 L 96,284.408838540707 L 111.2,281.0788942093448 L 126.4,280.05701656635296 L 141.60000000000002,282.1506264709572 L 156.79999999999998,285.70549034670915 L 172,287.9127873287288 L 187.2,287.0284557497401 L 202.4,283.75123656786485 L 217.6,280.6705739752212 L 232.8,280.2206060064315 L 248,282.7568679121942 L 263.20000000000005,286.27537146435253 L 278.40000000000003,287.99602534692986 L 293.59999999999997,286.5592814321943 L 308.8,283.1003607655215 L 324,280.35227616486634 L 339.2,280.48638429382066 L 354.4,283.3967216826364 L 369.6,286.7837301295759 L 384.8,287.97121714800664 L 400,286.02090818488773 L 415.2,282.4738097878784 L 430.40000000000003,280.1326070485969 L 445.6,280.84716520319586 L 460.79999999999995,284.0528871464251 L 476,287.2168211265833 L 491.2,287.83903350649507 L 506.40000000000003,285.42789277053373 L 521.6,281.8885245842771 L 536.8000000000001,280.01750613253995 L 552,281.2931937883081 L 567.1999999999999,284.7076226252639 L 582.4,287.5629343585073 L 597.6,287.60304845939226 L 612.8000000000001,284.796269389783 L 628,281.36033034267257 L 643.1999999999999,280.01008556376354 L 658.4,281.81241014033134 L 673.6,285.34322510539187 L 688.8,287.81271146994237 L 704,287.26964266983805 L 719.2,284.14311614174943 L 734.4,280.903508601533 L 749.6,280.1105459827331 L 764.8,282.3907754687588 L 780,285.9425088991293"
      stroke="url(#thread-22)"
      stroke-width="7.33"
      stroke-linecap="round"
      fill="none"
      opacity="0.6930232558139535"
      class="thread"
      style="animation-delay: 2.2s"
    >
      <title>2026-01-12: 3665 stars, TypeScript, Unknown, Python, Shell, C</title>
    </path>

    <path
      d="M 20,292.49819130124627 L 35.2,295.255458419667 L 50.400000000000006,298.5520547641667 L 65.6,299.9999998617426 L 80.80000000000001,298.5504347507082 L 96,295.25339189417406 L 111.2,292.4971752084487 L 126.4,292.2783262585491 L 141.60000000000002,294.75537431657415 L 156.79999999999998,298.13400131166793 L 172,299.966805606895 L 187.2,298.92614486741485 L 202.4,295.7658503983692 L 217.6,292.7751686504529 L 232.8,292.1204824223686 L 248,294.27603173783575 L 263.20000000000005,297.6803850062023 L 278.40000000000003,299.86750505502926 L 293.59999999999997,299.2530911623232 L 308.8,296.2822109750746 L 324,293.10690348544495 L 339.2,292.0272902396062 L 354.4,293.8254188648814 L 369.6,297.19876530421743 L 384.8,299.70375303686467 L 400,299.52582511815706 L 415.2,296.79386854276237 L 430.40000000000003,293.48685139575394 L 445.6,292.0003027458083 L 460.79999999999995,293.41104510234834 L 476,296.69716833510404 L 491.2,299.47827845838333 L 506.40000000000003,299.739801659186 L 521.6,297.29229639493553 L 536.8000000000001,293.90868059911 L 552,292.0399696840321 L 567.1999999999999,293.0398159348348 L 582.4,296.18395314679896 L 597.6,299.1948388239684 L 612.8000000000001,299.8914548943184 L 628,297.769188296577 L 643.1999999999999,294.36536136696793 L 658.4,292.14563000993616 L 673.6,292.7179178479015 L 688.8,295.6676724033432 L 704,298.85815761808465 L 719.2,299.97825754221014 L 734.4,298.2165969064708 L 749.6,294.8492831740148 L 764.8,292.315522907998 L 780,292.45071523109846"
      stroke="url(#thread-23)"
      stroke-width="6.996"
      stroke-linecap="round"
      fill="none"
      opacity="0.6790697674418604"
      class="thread"
      style="animation-delay: 2.3000000000000003s"
    >
      <title>2026-01-11: 3498 stars, TypeScript, Unknown, Shell, Python</title>
    </path>

    <path
      d="M 20,305.8537083279983 L 35.2,309.57333881212224 L 50.400000000000006,311.92348062198494 L 65.6,310.8584888102189 L 80.80000000000001,307.3053691896581 L 96,304.35688032010063 L 111.2,304.579489183695 L 126.4,307.77942930424814 L 141.60000000000002,311.17136180900917 L 156.79999999999998,311.80283099464276 L 172,309.1241841790902 L 187.2,305.46700846106233 L 202.4,304.0146364368401 L 217.6,306.03126309269174 L 232.8,309.76154663947216 L 248,311.95851889096576 L 263.20000000000005,310.7098589961866 L 278.40000000000003,307.1024438380597 L 293.59999999999997,304.2762926955536 L 308.8,304.69138554983465 L 324,307.9864111827947 L 339.2,311.29326499358643 L 354.4,311.73354672511044 L 369.6,308.92401988681524 L 384.8,305.31019408885805 L 400,304.0376686534726 L 415.2,306.2140938579181 L 430.40000000000003,309.94503371364567 L 445.6,311.98294876036783 L 460.79999999999995,310.5539670551251 L 476,306.90192383923903 L 491.2,304.2056842011024 L 506.40000000000003,304.8121486424207 L 521.6,308.19342947789164 L 536.8000000000001,311.4063425865895 L 552,311.65425695690635 L 567.1999999999999,308.72137932186143 L 582.4,305.1605881035986 L 597.6,304.07131948664966 L 612.8000000000001,306.4017106571352 L 628,310.1233083092643 L 643.1999999999999,311.9967047608014 L 658.4,310.3912307604612 L 673.6,306.7043465649581 L 688.8,304.1452440598234 L 704,304.9414548295152 L 719.2,308.39992940305063 L 734.4,311.5102915523822 L 749.6,311.56517417797534 L 764.8,308.51680553887724 L 780,305.0185914330337"
      stroke="url(#thread-24)"
      stroke-width="7.724"
      stroke-linecap="round"
      fill="none"
      opacity="0.6651162790697674"
      class="thread"
      style="animation-delay: 2.4000000000000004s"
    >
      <title>2026-01-10: 3862 stars, TypeScript, Unknown, Shell, Python</title>
    </path>

    <path
      d="M 20,319.7347124105952 L 35.2,323.174078102391 L 50.400000000000006,323.7858304388461 L 65.6,321.0249925728507 L 80.80000000000001,317.35104463374955 L 96,316.03690679688526 L 111.2,318.253272907339 L 126.4,322.0257030767153 L 141.60000000000002,323.993544673 L 156.79999999999998,322.4037547655047 L 172,318.6725906199953 L 187.2,316.1239432147256 L 202.4,317.02826375118514 L 217.6,320.5799423029907 L 232.8,323.6149818344683 L 248,323.42963088256226 L 263.20000000000005,320.18900851811065 L 278.40000000000003,316.7800087562408 L 293.59999999999997,316.23952386742184 L 308.8,319.04904241012144 L 324,322.7057172907441 L 339.2,323.952015961241 L 354.4,321.67767879605805 L 369.6,317.90878893977015 L 384.8,316.0028451522283 L 400,317.65774897659935 L 415.2,321.3992367039749 L 430.40000000000003,323.89422063912747 L 445.6,322.9200554441608 L 460.79999999999995,319.3445718487349 L 476,316.352973505719 L 491.2,316.6103124887071 L 506.40000000000003,319.88733950966235 L 521.6,323.26472962718344 L 536.8000000000001,323.73374988183116 L 552,320.87657566652723 L 567.1999999999999,317.23850791877624 L 582.4,316.0605031050954 L 597.6,318.39198157254873 L 612.8000000000001,322.15595610166804 L 628,323.9993067299411 L 643.1999999999999,322.27989275164487 L 658.4,318.529446459292 L 673.6,316.0890362458615 L 688.8,317.132690692064 L 704,320.73067487794907 L 719.2,323.67774059974704 L 734.4,323.34850747134044 L 749.6,320.03627136033924 L 764.8,316.69172306935917 L 780,316.2943385627859"
      stroke="url(#thread-25)"
      stroke-width="7.822"
      stroke-linecap="round"
      fill="none"
      opacity="0.6511627906976745"
      class="thread"
      style="animation-delay: 2.5s"
    >
      <title>2026-01-09: 3911 stars, TypeScript, Unknown, Python, Shell</title>
    </path>

    <path
      d="M 20,333.68066814730656 L 35.2,335.9282716032381 L 50.400000000000006,334.9052847514474 L 65.6,331.46342336424414 L 80.80000000000001,328.4683035778015 L 96,328.4135945508233 L 111.2,331.34484578483375 L 126.4,334.8215636368907 L 141.60000000000002,335.94911126461045 L 156.79999999999998,333.78871795273096 L 172,330.1390784302208 L 187.2,328.0388002208474 L 202.4,329.23652757554163 L 217.6,332.7350597217479 L 232.8,335.62159772794513 L 248,335.49287517585446 L 263.20000000000005,332.4560635581258 L 278.40000000000003,329.039543711546 L 293.59999999999997,328.0878329773177 L 308.8,330.39330424039025 L 324,334.036474142861 L 339.2,335.9841216206404 L 354.4,334.61467932628904 L 369.6,331.06831401691153 L 384.8,328.29764943648007 L 400,328.60947840330147 L 415.2,331.74417915504335 L 430.40000000000003,335.09187057050076 L 445.6,335.8653403073258 L 460.79999999999995,333.42061491355787 L 476,329.7931175944836 L 491.2,328.00302077485924 L 506.40000000000003,329.5407186787812 L 521.6,333.12595872477664 L 536.8000000000001,335.77375094025183 L 552,335.2796032657328 L 567.1999999999999,332.054931906131 L 582.4,328.78452548085073 L 597.6,328.191250593112 L 612.8000000000001,330.769054529058 L 628,334.37171589168474 L 643.1999999999999,335.99974011322865 L 658.4,334.2976709580951 L 673.6,330.6826128029937 L 688.8,328.16438150540756 L 704,328.83959962771223 L 719.2,332.146095795457 L 734.4,335.3309559000979 L 749.6,335.7425372748948 L 764.8,333.0381665532353 L 780,329.46944178232576"
      stroke="url(#thread-26)"
      stroke-width="7.54"
      stroke-linecap="round"
      fill="none"
      opacity="0.6372093023255814"
      class="thread"
      style="animation-delay: 2.6s"
    >
      <title>2026-01-08: 3770 stars, TypeScript, Unknown, Python, Rust, JavaScript</title>
    </path>

    <path
      d="M 20,347.21513770620646 L 35.2,347.8670326419025 L 50.400000000000006,345.6182539919532 L 65.6,342.1556178331585 L 80.80000000000001,340.07645865234974 L 96,340.9403604185821 L 111.2,344.09930764661004 L 126.4,347.1837638904521 L 141.60000000000002,347.8800686302452 L 156.79999999999998,345.66592144773284 L 172,342.2021612449328 L 187.2,340.0869656576896 L 202.4,340.90694967908775 L 217.6,344.0470406651191 L 232.8,347.15184629739275 L 248,347.8924419145259 L 263.20000000000005,345.71330436913547 L 278.40000000000003,342.24901172216386 L 293.59999999999997,340.09814099753606 L 308.8,340.8740672232933 L 324,343.9947656492239 L 339.2,347.11939037845735 L 354.4,347.9041503814247 L 369.6,345.7603946633005 L 384.8,342.29616126293087 L 400,340.1099827631747 L 415.2,340.8417186674234 L 430.40000000000003,343.9424915273401 L 445.6,347.0864016770195 L 460.79999999999995,347.91519203117076 L 476,345.8071842873472 L 491.2,342.3436018142339 L 506.40000000000003,340.1224889320675 L 521.6,340.8099095365141 L 536.8000000000001,343.89022722773063 L 552,347.0528858274501 L 567.1999999999999,347.9255649778834 L 582.4,345.8536652497483 L 597.6,342.3913252733695 L 612.8000000000001,340.13565736819834 L 628,340.77864526346946 L 643.1999999999999,343.83798167698075 L 658.4,347.01884855415557 L 673.6,347.9352674498946 L 688.8,345.89982961169534 L 704,342.4393234893141 L 719.2,340.149485822438 L 734.4,340.7479311881333 L 749.6,343.78576379847357 L 764.8,346.9842956706 L 780,347.94429779005117"
      stroke="url(#thread-27)"
      stroke-width="7.128"
      stroke-linecap="round"
      fill="none"
      opacity="0.6232558139534884"
      class="thread"
      style="animation-delay: 2.7s"
    >
      <title>2026-01-07: 3564 stars, TypeScript, Python, Unknown, Shell, Rust</title>
    </path>

    <path
      d="M 20,359.9624294227795 L 35.2,358.4091267480954 L 50.400000000000006,354.38632261004705 L 65.6,352.0176359562851 L 80.80000000000001,353.7311146935214 L 96,357.7703388856136 L 111.2,359.9948580306883 L 126.4,358.1244046881109 L 141.60000000000002,354.0763073132237 L 156.79999999999998,352.0001119600184 L 172,354.02404515996494 L 187.2,358.0734522677771 L 202.4,359.99744467354435 L 217.6,357.8238131253873 L 232.8,353.78066218162036 L 248,352.01246750344677 L 263.20000000000005,354.3317361948265 L 278.40000000000003,358.3610767665714 L 293.59999999999997,359.9701700288823 L 308.8,357.5095975071572 L 324,353.5015957121641 L 339.2,352.0546102894993 L 354.4,354.65188931714897 L 369.6,358.6310637999505 L 384.8,359.9132378408618 L 400,357.1841050536287 L 415.2,353.24119255761724 L 430.40000000000003,352.12622550760227 L 445.6,354.9821129530107 L 460.79999999999995,358.881396539393 L 476,359.8270733982799 L 491.2,356.8497672240298 L 506.40000000000003,353.0013979540253 L 521.6,352.2267781853437 L 536.8000000000001,355.3199403008067 L 552,359.11020497580114 L 567.1999999999999,359.7123203576229 L 582.4,356.5090815533793 L 597.6,352.7840031896207 L 612.8000000000001,352.3555171847678 L 628,355.6628477584893 L 643.1999999999999,359.3157798886443 L 658.4,359.56983593489275 L 673.6,356.16459299566543 L 688.8,352.59063222373106 L 704,352.51148081344587 L 719.2,356.0082737751123 L 734.4,359.49658561399696 L 749.6,359.40068450212243 L 764.8,355.81887491280025 L 780,352.42272955565073"
      stroke="url(#thread-28)"
      stroke-width="8"
      stroke-linecap="round"
      fill="none"
      opacity="0.6093023255813953"
      class="thread"
      style="animation-delay: 2.8000000000000003s"
    >
      <title>2026-01-06: 4224 stars, TypeScript, Python, Rust, JavaScript, Go</title>
    </path>

    <path
      d="M 20,371.7395802220987 L 35.2,369.0359233373501 L 50.400000000000006,365.47231546557435 L 65.6,364.0070142270218 L 80.80000000000001,365.85641006387374 L 96,369.4852641047164 L 111.2,371.88115593031057 L 126.4,371.0551839820717 L 141.60000000000002,367.69301231112695 L 156.79999999999998,364.58568031463807 L 172,364.3126773438507 L 187.2,367.10063134093514 L 202.4,370.63517819694914 L 217.6,371.98218471116974 L 232.8,370.0234604348722 L 248,366.38500105131305 L 263.20000000000005,364.0872006623892 L 278.40000000000003,365.0375321873814 L 293.59999999999997,368.44709696607555 L 308.8,371.48551316319896 L 324,371.630500496507 L 339.2,368.7617006384195 L 354.4,365.2605902683364 L 369.6,364.03354595862584 L 384.8,366.0991739393209 L 400,369.7427345605038 L 415.2,371.93959903014996 L 430.40000000000003,370.86608435848393 L 445.6,367.41334722496487 L 460.79999999999995,364.44760812956713 L 476,364.4308159157988 L 491.2,367.3769103032161 L 506.40000000000003,370.8402501087416 L 521.6,371.94581323683076 L 536.8000000000001,369.7758386245337 L 552,366.13168718572075 L 567.1999999999999,364.0384781678253 L 582.4,365.23384706576513 L 597.6,368.7254823574595 L 612.8000000000001,371.61487301687833 L 628,371.5034493237662 L 643.1999999999999,368.4837074227847 L 658.4,365.06242550367784 L 673.6,364.07971215088963 L 688.8,366.35134714968535 L 704,369.9915782547526 L 719.2,371.97854060510946 L 734.4,370.6627972465256 L 749.6,367.13658614593663 L 764.8,364.3271207438411 L 780,364.56662241072246"
      stroke="url(#thread-29)"
      stroke-width="7.528"
      stroke-linecap="round"
      fill="none"
      opacity="0.5953488372093023"
      class="thread"
      style="animation-delay: 2.9000000000000004s"
    >
      <title>2026-01-05: 3764 stars, Go, TypeScript, Python, Rust, JavaScript</title>
    </path>

    <path
      d="M 20,382.6011513606285 L 35.2,378.917766729415 L 50.400000000000006,376.19667471331695 L 65.6,376.8573968917486 L 80.80000000000001,380.3124369363038 L 96,383.4896664896588 L 111.2,383.56397878525934 L 126.4,380.4692973355196 L 141.60000000000002,376.9573293612031 L 156.79999999999998,376.1508219983127 L 172,378.7668998265855 L 187.2,382.47941704812587 L 202.4,383.98730354905183 L 217.6,381.94978735005725 L 232.8,378.1785728634548 L 248,376.02692222700153 L 263.20000000000005,377.40802511435083 L 278.40000000000003,381.0938421135445 L 293.59999999999997,383.8070442277817 L 308.8,383.1351253654372 L 324,379.6755376440579 L 339.2,376.50445309245947 L 354.4,376.4415145074855 L 369.6,379.54268518020507 L 384.8,383.0504878479229 L 400,383.8458790528434 L 415.2,381.22161840287527 L 430.40000000000003,377.5111276401141 L 445.6,376.01367500598894 L 460.79999999999995,378.0607549670529 L 476,381.83215927188377 L 491.2,383.97445700147887 L 506.40000000000003,382.58277483453156 L 521.6,378.89455899288754 L 536.8000000000001,376.18927145931065 L 552,376.8723808939147 L 567.1999999999999,380.33648482432903 L 582.4,383.50139553055504 L 597.6,383.5529598324242 L 612.8000000000001,380.44532814441664 L 628,376.94172268964104 L 643.1999999999999,376.1574548774261 L 658.4,378.78987447928574 L 673.6,382.4983050333096 L 688.8,383.9853101800736 L 704,381.9286850768122 L 719.2,378.1571252577696 L 734.4,376.0241999209883 L 749.6,377.4264487090424 L 764.8,381.1170298457874 L 780,383.81437819189415"
      stroke="url(#thread-30)"
      stroke-width="7.814"
      stroke-linecap="round"
      fill="none"
      opacity="0.5813953488372093"
      class="thread"
      style="animation-delay: 3s"
    >
      <title>2026-01-04: 3907 stars, Python, Jupyter Notebook, TypeScript, Go, Rust</title>
    </path>

    <path
      d="M 20,392.82586992775117 L 35.2,389.2163196126949 L 50.400000000000006,388.06219046245775 L 65.6,390.3815135539373 L 80.80000000000001,394.1284667328216 L 96,395.997947811023 L 111.2,394.34093004409954 L 126.4,390.61903112133064 L 141.60000000000002,388.1152534412536 L 156.79999999999998,389.03812235602464 L 172,392.5735961832663 L 187.2,395.60311386163596 L 202.4,395.45440674255354 L 217.6,392.25864599395175 L 232.8,388.83473949606025 L 248,388.20283730620065 L 263.20000000000005,390.92032597569994 L 278.40000000000003,394.5901705487225 L 293.59999999999997,395.97528458485266 L 308.8,393.8538904922691 L 324,390.0972217565426 L 339.2,388.01895043750574 L 354.4,389.45227240285664 L 369.6,393.13288694272455 L 384.8,395.81420767386396 L 400,395.1311025563563 L 415.2,391.6861230795802 L 430.40000000000003,388.518007296302 L 445.6,388.421278091525 L 460.79999999999995,391.48125809702424 L 476,394.99880853821503 L 491.2,395.871178164987 L 506.40000000000003,393.3288695684817 L 521.6,389.6143953459891 L 536.8000000000001,388.0042087367811 L 552,389.91861873092284 L 567.1999999999999,393.66896780896843 L 582.4,395.94715833740764 L 597.6,394.7436502603738 L 612.8000000000001,391.1200306831453 L 628,388.27261202856954 L 643.1999999999999,388.7130375375268 L 658.4,392.05281788446393 L 673.6,395.3460087766687 L 688.8,395.68776141993834 L 704,392.77662357958235 L 719.2,389.18044374119364 L 734.4,388.0713303580073 L 749.6,390.42760712252755 L 764.8,394.17085588583194 L 780,395.99924204057214"
      stroke="url(#thread-31)"
      stroke-width="7.78"
      stroke-linecap="round"
      fill="none"
      opacity="0.5674418604651164"
      class="thread"
      style="animation-delay: 3.1s"
    >
      <title>2026-01-03: 3890 stars, Go, Python, Jupyter Notebook, TypeScript, Rust, JavaScript</title>
    </path>

    <path
      d="M 20,402.84838673333974 L 35.2,400.7393079643665 L 50.400000000000006,400.0037358035902 L 65.6,400.951516508367 L 80.80000000000001,403.1834148712911 L 96,405.7592847157842 L 111.2,407.59408819877405 L 126.4,407.9149480656506 L 141.60000000000002,406.5867079929573 L 156.79999999999998,404.16886470629095 L 172,401.6798902648123 L 187.2,400.16821941968607 L 202.4,400.2706157390474 L 217.6,401.94394665479075 L 232.8,404.4833522643688 L 248,406.8191546136749 L 263.20000000000005,407.9674398809948 L 278.40000000000003,407.4445139960134 L 293.59999999999997,405.47064987956173 L 308.8,402.8773015230016 L 324,400.75686927146404 L 339.2,400.0025462501793 L 354.4,400.9320771719652 L 369.6,403.1539142151801 L 384.8,405.732149349307 L 400,407.58074839647514 L 415.2,407.9210229741434 L 430.40000000000003,406.6096386686594 L 445.6,404.19899202338996 L 460.79999999999995,401.70452364453837 L 476,400.1769825034422 L 491.2,400.2598172388138 L 506.40000000000003,401.91813524037974 L 521.6,404.4534005198431 L 536.8000000000001,406.79767916108403 L 552,407.9634868601535 L 567.1999999999999,407.45974854431853 L 582.4,405.4986547234587 L 597.6,402.90628013655856 L 612.8000000000001,400.77461494617194 L 628,400.00158394662566 L 643.1999999999999,400.91281224284063 L 658.4,403.12446165790544 L 673.6,405.70491551247414 L 688.8,407.5672050334566 L 704,407.9268749777656 L 719.2,406.63242098992083 L 734.4,404.2291080280608 L 749.6,401.72928751900105 L 764.8,400.1859629205897 L 780,400.2492313629286"
      stroke="url(#thread-32)"
      stroke-width="5.26"
      stroke-linecap="round"
      fill="none"
      opacity="0.5534883720930233"
      class="thread"
      style="animation-delay: 3.2s"
    >
      <title>2026-01-02: 2630 stars, TypeScript, Rust, Python, JavaScript, Jupyter Notebook, Shell</title>
    </path>

    <path
      d="M 20,413.1528586305235 L 35.2,412.0453045681559 L 50.400000000000006,414.11489097205583 L 65.6,417.69894448960014 L 80.80000000000001,419.9180925723576 L 96,418.9895063537621 L 111.2,415.65919748056706 L 126.4,412.60268402200177 L 141.60000000000002,412.27552109280515 L 156.79999999999998,414.9405462741075 L 172,418.4567200110146 L 187.2,419.99920330935265 L 202.4,418.32878920864863 L 217.6,414.7874622754096 L 232.8,412.22026918839595 L 248,412.68965272785226 L 263.20000000000005,415.8185174984168 L 278.40000000000003,419.09318247272313 L 293.59999999999997,419.88283301974764 L 308.8,417.55307623859585 L 324,413.97560229442087 L 339.2,412.0244978093006 L 354.4,413.26724961513537 L 369.6,416.70545034531693 L 384.8,419.57690329993 L 400,419.5747280791277 L 415.2,416.7006722212865 L 430.40000000000003,413.2637072580023 L 445.6,412.02503709339015 L 460.79999999999995,413.97978996732877 L 476,417.55754798939495 L 491.2,419.8839963137753 L 506.40000000000003,419.09010273774913 L 521.6,415.81366894535824 L 536.8000000000001,412.6869306084145 L 552,412.2218604107667 L 567.1999999999999,414.7920884764198 L 582.4,418.33273377075136 L 597.6,419.9992972330398 L 612.8000000000001,418.4528878394648 L 628,414.93586671401613 L 643.1999999999999,412.27375362957054 L 658.4,412.605248607947 L 673.6,415.6640337674487 L 688.8,418.9927289443296 L 704,419.91711248774396 L 719.2,417.69454911445735 L 734.4,414.11061148203856 L 749.6,412.04457903862124 L 764.8,413.15626994055367 L 780,416.5525691018876"
      stroke="url(#thread-33)"
      stroke-width="7.396"
      stroke-linecap="round"
      fill="none"
      opacity="0.5395348837209302"
      class="thread"
      style="animation-delay: 3.3000000000000003s"
    >
      <title>2026-01-01: 3698 stars, Rust, Python, JavaScript, TypeScript, Jupyter Notebook, Go, Shell</title>
    </path>

    <path
      d="M 20,424.1544100324818 L 35.2,424.8202840743282 L 50.400000000000006,428.04709848707006 L 65.6,431.2359798203277 L 80.80000000000001,431.81860589210964 L 96,429.32573018378315 L 111.2,425.76511256771136 L 126.4,424.00447129655333 L 141.60000000000002,425.46182527997655 L 156.79999999999998,428.9634229193864 L 172,431.6890805986939 L 187.2,431.44355605370055 L 202.4,428.42459453398754 L 217.6,425.0636649552503 L 232.8,424.0676570029587 L 248,426.23875459365775 L 263.20000000000005,429.8283576639629 L 278.40000000000003,431.94540310222436 L 293.59999999999997,430.8848244004276 L 308.8,427.5008106991856 L 324,424.5188436156472 L 339.2,424.3405967796042 L 354.4,427.10963003384677 L 369.6,430.59576646480565 L 384.8,431.9912748998901 L 400,430.17221408998427 L 415.2,426.60365398916514 L 430.40000000000003,424.1597097202242 L 445.6,424.8087318178802 L 460.79999999999995,428.02799846347256 L 476,431.22471517155293 L 491.2,431.8242491562351 L 506.40000000000003,429.34373628091475 L 521.6,425.780979403277 L 536.8000000000001,424.00541973533836 L 552,425.44709145022927 L 567.1999999999999,428.9448734344458 L 582.4,431.6816551971889 L 597.6,431.4532351473814 L 612.8000000000001,428.4435825894354 L 628,425.07666900954086 L 643.1999999999999,424.0642036023632 L 658.4,426.22162510393616 L 673.6,429.81134816086103 L 688.8,431.9422130243716 L 704,430.8980230336816 L 719.2,427.519767876094 L 734.4,424.52829124283386 L 749.6,424.33292574655826 L 764.8,427.0910185837424 L 780,430.5812042429595"
      stroke="url(#thread-34)"
      stroke-width="7.406"
      stroke-linecap="round"
      fill="none"
      opacity="0.5255813953488373"
      class="thread"
      style="animation-delay: 3.4000000000000004s"
    >
      <title>2025-12-31: 3703 stars, Go, Python, TypeScript, Rust, Shell</title>
    </path>

    <path
      d="M 20,436.09749597812737 L 35.2,438.9520612908637 L 50.400000000000006,442.92294449640127 L 65.6,443.7801577777818 L 80.80000000000001,440.6105537194083 L 96,436.7905566222534 L 111.2,436.3894227060032 L 126.4,439.83446032773577 L 141.60000000000002,443.45583927220594 L 156.79999999999998,443.39588153107144 L 172,439.718457155755 L 187.2,436.34094661307086 L 202.4,436.8612468210846 L 217.6,440.72510739590433 L 232.8,443.8165464987492 L 248,442.8424051357546 L 263.20000000000005,438.8403884934432 L 278.40000000000003,436.0736493174394 L 293.59999999999997,437.48945963802515 L 308.8,441.57962591305596 L 324,443.9870939011515 L 339.2,442.14730561048776 L 354.4,438.0200975944132 L 369.6,436.0019828507671 L 384.8,438.24276038822893 L 400,442.3554394056694 L 415.2,443.9589839374442 L 430.40000000000003,441.3452163610289 L 445.6,437.29845553757224 L 460.79999999999995,436.1295180021701 L 476,439.08361578388445 L 491.2,443.01389288621345 L 506.40000000000003,443.7336171894772 L 521.6,440.4761015672125 L 536.8000000000001,436.7114182130601 L 552,436.4499003195356 L 567.1999999999999,439.97013011791245 L 582.4,443.5221788418997 L 597.6,443.3222225787831 L 612.8000000000001,439.5832649635546 L 628,436.28823481630235 L 643.1999999999999,436.94716672075566 L 658.4,440.85813272190563 L 673.6,443.8549718724013 L 688.8,442.7452978844007 L 704,438.7111922262009 L 719.2,436.0499905038229 L 734.4,437.596540855945 L 749.6,441.70337877425175 L 764.8,443.9956905305445 L 780,442.03158843891333"
      stroke="url(#thread-35)"
      stroke-width="8"
      stroke-linecap="round"
      fill="none"
      opacity="0.5116279069767442"
      class="thread"
      style="animation-delay: 3.5s"
    >
      <title>2025-12-30: 4315 stars, Go, Shell, Rust, Python, Swift, TypeScript</title>
    </path>

    <path
      d="M 20,448.9960510129133 L 35.2,451.89719266593806 L 50.400000000000006,454.8642543149451 L 65.6,455.99475795322087 L 80.80000000000001,454.56382538045943 L 96,451.48896963508366 L 111.2,448.7417862285491 L 126.4,448.083767380975 L 141.60000000000002,449.93683435103554 L 156.79999999999998,453.1128017982989 L 172,455.5752414535788 L 187.2,455.74523860554893 L 202.4,453.5137911905227 L 217.6,450.31170184505663 L 232.8,448.19214818253795 L 248,448.5141866379215 L 263.20000000000005,451.07132636229346 L 278.40000000000003,454.22393102139046 L 293.59999999999997,455.95055255065967 L 308.8,455.1440823443691 L 324,452.32162857620676 L 339.2,449.2929467733931 L 354.4,448.0000257453332 L 369.6,449.2718856174175 L 384.8,452.2930106638197 L 400,455.126257462449 L 415.2,455.9549500019433 L 430.40000000000003,454.24773116296427 L 445.6,451.0992685588026 L 460.79999999999995,448.52835437107063 L 476,448.1834571110124 L 491.2,450.28572467828684 L 506.40000000000003,453.48718447100845 L 521.6,455.7350625446019 L 536.8000000000001,455.5880209348842 L 552,453.14034262672476 L 567.1999999999999,449.9614773652413 L 582.4,448.0897114962205 L 597.6,448.7252200819905 L 612.8000000000001,451.4605154291598 L 628,454.5417279335705 L 643.1999999999999,455.9931861339931 L 658.4,454.8842159728488 L 673.6,451.92588839886037 L 688.8,449.01508113549903 L 704,448.01820191385457 L 719.2,449.5744490448765 L 734.4,452.68595787658796 L 749.6,455.3576309623259 L 764.8,455.87639325073576 L 780,453.9096146986425"
      stroke="url(#thread-36)"
      stroke-width="6.556"
      stroke-linecap="round"
      fill="none"
      opacity="0.49767441860465117"
      class="thread"
      style="animation-delay: 3.6s"
    >
      <title>2025-12-29: 3278 stars, Shell, Go, JavaScript, TypeScript, Rust, Python</title>
    </path>

    <path
      d="M 20,462.63007752612157 L 35.2,466.2725196178329 L 50.400000000000006,467.99967349132083 L 65.6,466.3558872617822 L 80.80000000000001,462.7265502451146 L 96,460.17048154828547 L 111.2,460.84194563686424 L 126.4,464.175030011032 L 141.60000000000002,467.36059842303405 L 156.79999999999998,467.71384164175333 L 172,464.9370449325529 L 187.2,461.3705031733291 L 202.4,460.02011138810695 L 217.6,462.0239849339228 L 232.8,465.6932515286658 L 248,467.9354392643779 L 263.20000000000005,466.86082374899865 L 278.40000000000003,463.3750950454762 L 293.59999999999997,460.41603862566774 L 308.8,460.47755854806593 L 324,463.5078055869784 L 339.2,466.9528759580805 L 354.4,467.9092511874525 L 369.6,465.57089457704234 L 384.8,461.90858201401005 L 400,460.00892452181364 L 415.2,461.4729606943172 L 430.40000000000003,465.0667952505977 L 445.6,467.7615306929726 L 460.79999999999995,467.28603369281905 L 476,464.0410549389531 L 491.2,460.7614749256482 L 506.40000000000003,460.2113362208598 L 521.6,462.8542978273096 L 536.8000000000001,466.4628616031433 L 552,467.9957162081521 L 567.1999999999999,466.1609659235115 L 582.4,462.5049453005181 L 597.6,460.10896249152074 L 612.8000000000001,460.99236096406435 L 628,464.4106091096285 L 643.1999999999999,467.4827943284767 L 658.4,467.61966717796986 L 673.6,464.70587069750275 L 688.8,461.1971636957327 L 704,460.05069784209024 L 719.2,462.2327189391841 L 734.4,465.904211267905 L 749.6,467.9708270631926 L 764.8,466.69081463531523 L 780,463.142973349988"
      stroke="url(#thread-37)"
      stroke-width="7.59"
      stroke-linecap="round"
      fill="none"
      opacity="0.4837209302325582"
      class="thread"
      style="animation-delay: 3.7s"
    >
      <title>2025-12-28: 3795 stars, Shell, Rust, Python, JavaScript, TypeScript</title>
    </path>

    <path
      d="M 20,476.5995088386518 L 35.2,479.99097025153145 L 50.400000000000006,477.12407318814377 L 65.6,472.4944837162459 L 80.80000000000001,473.3619979974284 L 96,478.3662412323957 L 111.2,479.65991161406396 L 126.4,475.2143663592646 L 141.60000000000002,472.000796450022 L 156.79999999999998,475.05849589582385 L 172,479.5925957704563 L 187.2,478.4930399737117 L 202.4,473.48407446759506 L 217.6,472.4204061922312 L 232.8,476.97000482604744 L 248,479.9985102062157 L 263.20000000000005,476.75683348419744 L 278.40000000000003,472.32834379379574 L 293.59999999999997,473.65748678211935 L 308.8,478.65999402247314 L 324,479.4912859722652 L 339.2,474.8477891412552 L 354.4,472.01110823213935 L 369.6,475.4295264675797 L 384.8,479.7425211198046 L 400,478.1867577266016 L 415.2,473.20187487339547 L 430.40000000000003,472.60481478008643 L 445.6,477.33184503583226 L 460.79999999999995,479.9703697042771 L 476,476.38284022382356 L 491.2,472.19496766667004 L 506.40000000000003,473.9738788375157 L 521.6,478.930010521672 L 536.8000000000001,479.2915060576831 L 552,474.49149360503367 L 567.1999999999999,472.05701464134427 L 582.4,475.805647624348 L 597.6,479.8590503151884 L 612.8000000000001,477.86096208320527 L 628,472.9446441743733 L 643.1999999999999,472.81952009165065 L 658.4,477.6818006094454 L 673.6,479.906799855731 L 688.8,476.00543071257243 L 704,472.09554550842677 L 719.2,474.30835085883 L 734.4,479.17388125459007 L 749.6,479.06235459393446 L 764.8,474.1486591316118 L 780,472.1381060346554"
      stroke="url(#thread-38)"
      stroke-width="8"
      stroke-linecap="round"
      fill="none"
      opacity="0.46976744186046515"
      class="thread"
      style="animation-delay: 3.8000000000000003s"
    >
      <title>2025-12-27: 5384 stars, Shell, Python, Rust, C, Go</title>
    </path>

    <path
      d="M 20,490.4221594788784 L 35.2,491.9974874393462 L 50.400000000000006,490.1905975141514 L 65.6,486.5302738496219 L 80.80000000000001,484.11346480477755 L 96,484.9849985127221 L 111.2,488.4074825639249 L 126.4,491.48520135026723 L 141.60000000000002,491.61414030406127 L 156.79999999999998,488.6852059904188 L 172,485.17652852778053 L 187.2,484.05675055710935 L 202.4,486.2733004663214 L 217.6,489.95078655972026 L 232.8,491.9777395886612 L 248,490.6391831105908 L 263.20000000000005,487.06765093075336 L 278.40000000000003,484.28496618209203 L 293.59999999999997,484.6455192835601 L 308.8,487.84425132827675 L 324,491.17476013306174 L 339.2,491.81914905187995 L 354.4,489.23220968580125 L 369.6,485.60271503932734 L 384.8,484.00152947300484 L 400,485.78339356897465 L 415.2,489.44069718295196 L 430.40000000000003,491.87904717820305 L 445.6,491.0353899265237 L 460.79999999999995,487.6235319599655 L 476,484.53019830591717 L 491.2,484.37261505196244 L 506.40000000000003,487.28411117238653 L 521.6,490.8013107587098 L 536.8000000000001,491.94836072100895 L 552,489.75475822291463 L 567.1999999999999,486.0764794784013 L 582.4,484.02566438707066 L 597.6,485.33747874677186 L 612.8000000000001,488.9020148824039 L 628,491.7033689156052 L 643.1999999999999,491.3713546084134 L 658.4,488.18688459535656 L 673.6,484.84429415526637 L 688.8,484.1717020358448 L 704,486.7381789672891 L 719.2,490.3722649231756 L 734.4,491.9992109006543 L 749.6,490.2424807961034 L 764.8,486.5884192372537 L 780,484.1286763036049"
      stroke="url(#thread-39)"
      stroke-width="7.606"
      stroke-linecap="round"
      fill="none"
      opacity="0.45581395348837217"
      class="thread"
      style="animation-delay: 3.9000000000000004s"
    >
      <title>2025-12-26: 3803 stars, Python, Shell, Go, TypeScript</title>
    </path>

    <path
      d="M 20,503.6517810029105 L 35.2,503.58054729346554 L 50.400000000000006,500.89760076298927 L 65.6,497.5599287872871 L 80.80000000000001,496.00208675046105 L 96,497.3603914463558 L 111.2,500.6440720518601 L 126.4,503.45795541754563 L 141.60000000000002,503.74954658643753 L 156.79999999999998,501.3061539413397 L 172,497.91003013107525 L 187.2,496.03836631389663 L 202.4,497.0563862914575 L 217.6,500.22152877087564 L 232.8,503.22508435206197 L 248,503.87620789958703 L 263.20000000000005,501.69995869132987 L 278.40000000000003,498.28373035544814 L 293.59999999999997,496.1193786372006 L 308.8,496.785618930763 L 324,499.79648409927887 L 339.2,502.95579726851435 L 354.4,503.9591010375566 L 369.6,502.074568369299 L 384.8,498.67680982685954 L 400,496.2442089702744 L 415.2,496.5511467320872 L 430.40000000000003,499.37373742609327 L 445.6,502.65313482017825 L 460.79999999999995,503.99729001304166 L 476,502.425753072612 L 491.2,499.08483009112683 L 506.40000000000003,496.41144779225976 L 521.6,496.35561723666933 L 536.8000000000001,498.95806219250886 L 552,502.32051451803403 L 567.1999999999999,503.9903436154848 L 582.4,502.7495474015756 L 597.6,499.50318399020654 L 612.8000000000001,496.61920672713364 L 628,496.2012382644794 L 643.1999999999999,498.55415199260324 L 658.4,501.96169214196505 L 673.6,503.9383402800869 L 688.8,503.042295234723 L 704,499.9271476838876 L 719.2,496.8651398662935 L 734.4,496.0897529846337 L 749.6,498.16656757565636 L 764.8,501.5807193323943 L 780,503.8418672021565"
      stroke="url(#thread-40)"
      stroke-width="7.022"
      stroke-linecap="round"
      fill="none"
      opacity="0.4418604651162791"
      class="thread"
      style="animation-delay: 4s"
    >
      <title>2025-12-25: 3511 stars, Python, TypeScript</title>
    </path>

    <path
      d="M 20,515.9873191771152 L 35.2,514.7710568229306 L 50.400000000000006,512.1578847415292 L 65.6,509.46512182337693 L 80.80000000000001,508.0502092736951 L 96,508.62641471206337 L 111.2,510.9032688218401 L 126.4,513.7329930273276 L 141.60000000000002,515.689102950697 L 156.79999999999998,515.7855094735844 L 172,513.973613372591 L 187.2,511.16680453825927 L 202.4,508.78001554457 L 217.6,508.01644393496895 L 232.8,509.26101166416004 L 248,511.88632316497177 L 263.20000000000005,514.5689399780731 L 278.40000000000003,515.9565356229649 L 293.59999999999997,515.3496131287611 L 308.8,513.0541265014585 L 324,510.22724710320324 L 339.2,508.2940252239837 L 354.4,508.2290119540565 L 369.6,510.0649809516188 L 384.8,512.876407005372 L 400,515.2460299677291 L 415.2,515.9793058154273 L 430.40000000000003,514.7065849058083 L 445.6,512.0694550273167 L 460.79999999999995,509.3973123686974 L 476,508.03720331364326 L 491.2,508.67476864489055 L 506.40000000000003,510.98860708131593 L 521.6,513.8122959814549 L 536.8000000000001,515.722393408427 L 552,515.7560054751096 L 567.1999999999999,513.8961880963033 L 582.4,511.080488624268 L 597.6,508.7283214675637 L 612.8000000000001,508.02543105194525 L 628,509.3261495046429 L 643.1999999999999,511.97477527384865 L 658.4,514.6361170094091 L 673.6,515.9685731508333 L 688.8,515.3004429485579 L 704,512.9685356556024 L 719.2,510.14838255430715 L 734.4,508.2616431598579 L 749.6,508.25943640674194 L 764.8,510.1428747351185 L 780,512.9625033017123"
      stroke="url(#thread-41)"
      stroke-width="5.776"
      stroke-linecap="round"
      fill="none"
      opacity="0.42790697674418604"
      class="thread"
      style="animation-delay: 4.1000000000000005s"
    >
      <title>2025-12-24: 2888 stars, Python, TypeScript</title>
    </path>

    <path
      d="M 20,527.3466225541442 L 35.2,525.0488530697442 L 50.400000000000006,522.2223491893467 L 65.6,520.2919719016801 L 80.80000000000001,520.2308383178861 L 96,522.0697663184047 L 111.2,524.8817390372091 L 126.4,527.2492207489175 L 141.60000000000002,527.9787468501606 L 156.79999999999998,526.7025579725081 L 172,524.063990132099 L 187.2,521.3931644046501 L 202.4,520.0364632993545 L 217.6,520.6778096268998 L 232.8,522.993896078663 L 248,525.817166772437 L 263.20000000000005,527.7243905921854 L 278.40000000000003,527.7541222569097 L 293.59999999999997,525.8913738200197 L 308.8,523.0751702012925 L 324,520.7251799532706 L 339.2,520.026050106344 L 354.4,521.3302170579469 L 369.6,523.9802408431052 L 384.8,526.6402253617424 L 400,527.9692532362058 L 415.2,527.2973519310291 L 430.40000000000003,524.9632317393987 L 445.6,522.1435394818345 L 460.79999999999995,520.2597023588745 L 476,520.2613762490191 L 491.2,522.1477173321756 L 506.40000000000003,524.9678074654516 L 521.6,527.3000188762941 L 536.8000000000001,527.9686669743427 L 552,526.6366814315841 L 567.1999999999999,523.9755257654007 L 582.4,521.3267077373685 L 597.6,520.0255156167019 L 612.8000000000001,520.7278897346479 L 628,523.0797582333558 L 643.1999999999999,525.8955272427205 L 658.4,527.7557472999132 L 673.6,527.722668059595 L 688.8,525.812965005353 L 704,522.9893332181726 L 719.2,520.6751858438801 L 734.4,520.0371012617464 L 749.6,521.3967425110113 L 764.8,524.0687046332104 L 780,526.706032254362"
      stroke="url(#thread-42)"
      stroke-width="5.776"
      stroke-linecap="round"
      fill="none"
      opacity="0.41395348837209306"
      class="thread"
      style="animation-delay: 4.2s"
    >
      <title>2025-12-23: 2888 stars, Python, TypeScript</title>
    </path>
  </g>

  <!-- Date markers -->
  <g id="dates">
    <text x="785" y="24" class="date-label">02-03</text>
<text x="785" y="108" class="date-label">01-27</text>
<text x="785" y="192" class="date-label">01-20</text>
<text x="785" y="276" class="date-label">01-13</text>
<text x="785" y="360" class="date-label">01-06</text>
<text x="785" y="444" class="date-label">12-30</text>
<text x="785" y="528" class="date-label">12-23</text>
  </g>

</svg>