<?xml version="1.0" encoding="UTF-8"?>
<svg xmlns="http://www.w3.org/2000/svg" viewBox="0 0 800 532" width="800" height="532">
  <title>The Data Tapestry - GitHub Trends Woven in Time</title>
  <desc>A living data art piece that weaves daily GitHub trending repositories into an evolving tapestry. Each thread represents one day of open source activity.</desc>

  <style>
    .thread {
      animation: breathe 8s ease-in-out infinite alternate;
    }

    @keyframes breathe {
      0% {
        opacity: 0.85;
      }
      100% {
        opacity: 1;
      }
    }

    .date-label {
      font-family: ui-monospace, monospace;
      font-size: 8px;
      fill: #666;
    }

    .title {
      font-family: system-ui, sans-serif;
      font-size: 14px;
      fill: #333;
      font-weight: 600;
    }

    .subtitle {
      font-family: system-ui, sans-serif;
      font-size: 10px;
      fill: #888;
    }

    .empty-state {
      font-family: system-ui, sans-serif;
      font-size: 12px;
      fill: #999;
      text-anchor: middle;
    }
  </style>

  <defs>
    
    <linearGradient id="thread-0" x1="0%" y1="0%" x2="100%" y2="0%">
      <stop offset="0%" stop-color="#3572A5" />
      <stop offset="50%" stop-color="#8b8b8b" />
      <stop offset="100%" stop-color="#3178c6" />
    </linearGradient>

    <linearGradient id="thread-1" x1="0%" y1="0%" x2="100%" y2="0%">
      <stop offset="0%" stop-color="#3572A5" />
      <stop offset="50%" stop-color="#f1e05a" />
      <stop offset="100%" stop-color="#8b8b8b" />
    </linearGradient>

    <linearGradient id="thread-2" x1="0%" y1="0%" x2="100%" y2="0%">
      <stop offset="0%" stop-color="#3572A5" />
      <stop offset="50%" stop-color="#3178c6" />
      <stop offset="100%" stop-color="#dea584" />
    </linearGradient>

    <linearGradient id="thread-3" x1="0%" y1="0%" x2="100%" y2="0%">
      <stop offset="0%" stop-color="#3572A5" />
      <stop offset="50%" stop-color="#3178c6" />
      <stop offset="100%" stop-color="#f1e05a" />
    </linearGradient>

    <linearGradient id="thread-4" x1="0%" y1="0%" x2="100%" y2="0%">
      <stop offset="0%" stop-color="#3572A5" />
      <stop offset="50%" stop-color="#3178c6" />
      <stop offset="100%" stop-color="#f1e05a" />
    </linearGradient>

    <linearGradient id="thread-5" x1="0%" y1="0%" x2="100%" y2="0%">
      <stop offset="0%" stop-color="#3572A5" />
      <stop offset="50%" stop-color="#3178c6" />
      <stop offset="100%" stop-color="#f1e05a" />
    </linearGradient>

    <linearGradient id="thread-6" x1="0%" y1="0%" x2="100%" y2="0%">
      <stop offset="0%" stop-color="#3178c6" />
      <stop offset="50%" stop-color="#3572A5" />
      <stop offset="100%" stop-color="#f1e05a" />
    </linearGradient>

    <linearGradient id="thread-7" x1="0%" y1="0%" x2="100%" y2="0%">
      <stop offset="0%" stop-color="#3572A5" />
      <stop offset="50%" stop-color="#3178c6" />
      <stop offset="100%" stop-color="#89e051" />
    </linearGradient>

    <linearGradient id="thread-8" x1="0%" y1="0%" x2="100%" y2="0%">
      <stop offset="0%" stop-color="#3178c6" />
      <stop offset="50%" stop-color="#3572A5" />
      <stop offset="100%" stop-color="#89e051" />
    </linearGradient>

    <linearGradient id="thread-9" x1="0%" y1="0%" x2="100%" y2="0%">
      <stop offset="0%" stop-color="#3572A5" />
      <stop offset="50%" stop-color="#3178c6" />
      <stop offset="100%" stop-color="#8b8b8b" />
    </linearGradient>

    <linearGradient id="thread-10" x1="0%" y1="0%" x2="100%" y2="0%">
      <stop offset="0%" stop-color="#3178c6" />
      <stop offset="50%" stop-color="#3572A5" />
      <stop offset="100%" stop-color="#dea584" />
    </linearGradient>

    <linearGradient id="thread-11" x1="0%" y1="0%" x2="100%" y2="0%">
      <stop offset="0%" stop-color="#3572A5" />
      <stop offset="50%" stop-color="#3178c6" />
      <stop offset="100%" stop-color="#8b8b8b" />
    </linearGradient>

    <linearGradient id="thread-12" x1="0%" y1="0%" x2="100%" y2="0%">
      <stop offset="0%" stop-color="#3572A5" />
      <stop offset="50%" stop-color="#3178c6" />
      <stop offset="100%" stop-color="#41b883" />
    </linearGradient>

    <linearGradient id="thread-13" x1="0%" y1="0%" x2="100%" y2="0%">
      <stop offset="0%" stop-color="#3178c6" />
      <stop offset="50%" stop-color="#f1e05a" />
      <stop offset="100%" stop-color="#89e051" />
    </linearGradient>

    <linearGradient id="thread-14" x1="0%" y1="0%" x2="100%" y2="0%">
      <stop offset="0%" stop-color="#3178c6" />
      <stop offset="50%" stop-color="#3572A5" />
      <stop offset="100%" stop-color="#f1e05a" />
    </linearGradient>

    <linearGradient id="thread-15" x1="0%" y1="0%" x2="100%" y2="0%">
      <stop offset="0%" stop-color="#3178c6" />
      <stop offset="50%" stop-color="#3572A5" />
      <stop offset="100%" stop-color="#f1e05a" />
    </linearGradient>

    <linearGradient id="thread-16" x1="0%" y1="0%" x2="100%" y2="0%">
      <stop offset="0%" stop-color="#3178c6" />
      <stop offset="50%" stop-color="#f1e05a" />
      <stop offset="100%" stop-color="#3572A5" />
    </linearGradient>

    <linearGradient id="thread-17" x1="0%" y1="0%" x2="100%" y2="0%">
      <stop offset="0%" stop-color="#3572A5" />
      <stop offset="50%" stop-color="#3178c6" />
      <stop offset="100%" stop-color="#89e051" />
    </linearGradient>

    <linearGradient id="thread-18" x1="0%" y1="0%" x2="100%" y2="0%">
      <stop offset="0%" stop-color="#3178c6" />
      <stop offset="50%" stop-color="#89e051" />
      <stop offset="100%" stop-color="#3572A5" />
    </linearGradient>

    <linearGradient id="thread-19" x1="0%" y1="0%" x2="100%" y2="0%">
      <stop offset="0%" stop-color="#3572A5" />
      <stop offset="50%" stop-color="#3178c6" />
      <stop offset="100%" stop-color="#89e051" />
    </linearGradient>

    <linearGradient id="thread-20" x1="0%" y1="0%" x2="100%" y2="0%">
      <stop offset="0%" stop-color="#3178c6" />
      <stop offset="50%" stop-color="#3572A5" />
      <stop offset="100%" stop-color="#8b8b8b" />
    </linearGradient>

    <linearGradient id="thread-21" x1="0%" y1="0%" x2="100%" y2="0%">
      <stop offset="0%" stop-color="#3178c6" />
      <stop offset="50%" stop-color="#89e051" />
      <stop offset="100%" stop-color="#3572A5" />
    </linearGradient>

    <linearGradient id="thread-22" x1="0%" y1="0%" x2="100%" y2="0%">
      <stop offset="0%" stop-color="#3572A5" />
      <stop offset="50%" stop-color="#3178c6" />
      <stop offset="100%" stop-color="#89e051" />
    </linearGradient>

    <linearGradient id="thread-23" x1="0%" y1="0%" x2="100%" y2="0%">
      <stop offset="0%" stop-color="#3572A5" />
      <stop offset="50%" stop-color="#3178c6" />
      <stop offset="100%" stop-color="#8b8b8b" />
    </linearGradient>

    <linearGradient id="thread-24" x1="0%" y1="0%" x2="100%" y2="0%">
      <stop offset="0%" stop-color="#3572A5" />
      <stop offset="50%" stop-color="#3178c6" />
      <stop offset="100%" stop-color="#8b8b8b" />
    </linearGradient>

    <linearGradient id="thread-25" x1="0%" y1="0%" x2="100%" y2="0%">
      <stop offset="0%" stop-color="#3178c6" />
      <stop offset="50%" stop-color="#3572A5" />
      <stop offset="100%" stop-color="#dea584" />
    </linearGradient>

    <linearGradient id="thread-26" x1="0%" y1="0%" x2="100%" y2="0%">
      <stop offset="0%" stop-color="#3572A5" />
      <stop offset="50%" stop-color="#3178c6" />
      <stop offset="100%" stop-color="#00ADD8" />
    </linearGradient>

    <linearGradient id="thread-27" x1="0%" y1="0%" x2="100%" y2="0%">
      <stop offset="0%" stop-color="#3572A5" />
      <stop offset="50%" stop-color="#00ADD8" />
      <stop offset="100%" stop-color="#3178c6" />
    </linearGradient>

    <linearGradient id="thread-28" x1="0%" y1="0%" x2="100%" y2="0%">
      <stop offset="0%" stop-color="#3572A5" />
      <stop offset="50%" stop-color="#3178c6" />
      <stop offset="100%" stop-color="#00ADD8" />
    </linearGradient>

    <linearGradient id="thread-29" x1="0%" y1="0%" x2="100%" y2="0%">
      <stop offset="0%" stop-color="#3572A5" />
      <stop offset="50%" stop-color="#00ADD8" />
      <stop offset="100%" stop-color="#DA5B0B" />
    </linearGradient>

    <linearGradient id="thread-30" x1="0%" y1="0%" x2="100%" y2="0%">
      <stop offset="0%" stop-color="#3572A5" />
      <stop offset="50%" stop-color="#3178c6" />
      <stop offset="100%" stop-color="#dea584" />
    </linearGradient>

    <linearGradient id="thread-31" x1="0%" y1="0%" x2="100%" y2="0%">
      <stop offset="0%" stop-color="#dea584" />
      <stop offset="50%" stop-color="#3572A5" />
      <stop offset="100%" stop-color="#3178c6" />
    </linearGradient>

    <linearGradient id="thread-32" x1="0%" y1="0%" x2="100%" y2="0%">
      <stop offset="0%" stop-color="#3572A5" />
      <stop offset="50%" stop-color="#3178c6" />
      <stop offset="100%" stop-color="#dea584" />
    </linearGradient>

    <linearGradient id="thread-33" x1="0%" y1="0%" x2="100%" y2="0%">
      <stop offset="0%" stop-color="#3572A5" />
      <stop offset="50%" stop-color="#dea584" />
      <stop offset="100%" stop-color="#3178c6" />
    </linearGradient>

    <linearGradient id="thread-34" x1="0%" y1="0%" x2="100%" y2="0%">
      <stop offset="0%" stop-color="#3572A5" />
      <stop offset="50%" stop-color="#3178c6" />
      <stop offset="100%" stop-color="#89e051" />
    </linearGradient>

    <linearGradient id="thread-35" x1="0%" y1="0%" x2="100%" y2="0%">
      <stop offset="0%" stop-color="#3572A5" />
      <stop offset="50%" stop-color="#f1e05a" />
      <stop offset="100%" stop-color="#89e051" />
    </linearGradient>

    <linearGradient id="thread-36" x1="0%" y1="0%" x2="100%" y2="0%">
      <stop offset="0%" stop-color="#3572A5" />
      <stop offset="50%" stop-color="#89e051" />
      <stop offset="100%" stop-color="#dea584" />
    </linearGradient>

    <linearGradient id="thread-37" x1="0%" y1="0%" x2="100%" y2="0%">
      <stop offset="0%" stop-color="#3572A5" />
      <stop offset="50%" stop-color="#89e051" />
      <stop offset="100%" stop-color="#00ADD8" />
    </linearGradient>

    <linearGradient id="thread-38" x1="0%" y1="0%" x2="100%" y2="0%">
      <stop offset="0%" stop-color="#3572A5" />
      <stop offset="50%" stop-color="#3178c6" />
      <stop offset="100%" stop-color="#3572A5" />
    </linearGradient>

    <linearGradient id="thread-39" x1="0%" y1="0%" x2="100%" y2="0%">
      <stop offset="0%" stop-color="#3572A5" />
      <stop offset="50%" stop-color="#3178c6" />
      <stop offset="100%" stop-color="#3572A5" />
    </linearGradient>

    <linearGradient id="thread-40" x1="0%" y1="0%" x2="100%" y2="0%">
      <stop offset="0%" stop-color="#3572A5" />
      <stop offset="50%" stop-color="#3178c6" />
      <stop offset="100%" stop-color="#3572A5" />
    </linearGradient>

    <!-- Background pattern -->
    <pattern id="loom" patternUnits="userSpaceOnUse" width="20" height="20">
      <rect width="20" height="20" fill="#fafafa"/>
      <circle cx="10" cy="10" r="0.5" fill="#eee"/>
    </pattern>
  </defs>

  <!-- Background -->
  <rect width="100%" height="100%" fill="url(#loom)"/>

  <!-- Threads -->
  <g id="tapestry">
    
    <path
      d="M 20,20 L 35.2,23.903008033704655 L 50.400000000000006,18.291426984015352 L 65.6,16.84493348364344 L 80.80000000000001,23.089728644395382 L 96,21.802513064521094 L 111.2,16.121206829883587 L 126.4,19.895459701052765 L 141.60000000000002,23.924556522977024 L 156.79999999999998,18.38653425925676 L 172,16.781751023162705 L 187.2,23.022279997096494 L 202.4,21.895221710381005 L 217.6,16.148071525190357 L 232.8,19.790990819731544 L 248,23.943423916893277 L 263.20000000000005,18.482743787830334 L 278.40000000000003,16.720767137816804 L 293.59999999999997,22.95276665259739 L 308.8,21.98663561883638 L 324,16.177567699362434 L 339.2,19.686664724872735 L 354.4,23.959597326027072 L 369.6,18.57998984334924 L 384.8,16.662023489284113 L 400,22.88123609955162 L 415.2,22.07669233967046 L 430.40000000000003,16.209675201828624 L 445.6,19.582552687767063 L 460.79999999999995,23.973065701371507 L 476,18.678205991314094 L 491.2,16.605560208805606 L 506.40000000000003,22.80773720468657 L 521.6,22.165330349841213 L 536.8000000000001,16.244372098065814 L 552,19.478725833469532 L 567.1999999999999,23.983819841887332 L 582.4,18.7773251344983 L 597.6,16.55141586976861 L 612.8000000000001,22.732320179419585 L 628,22.252489095511315 L 643.1999999999999,16.28163468458378 L 658.4,19.375255092210242 L 673.6,23.99185240078874 L 688.8,18.877279558786235 L 704,16.4996274613553 L 719.2,22.655036545555827 L 734.4,22.338109033415922 L 749.6,16.321437505118247 L 764.8,19.27221115093751 L 780,23.997157890562356"
      stroke="url(#thread-0)"
      stroke-width="8"
      stroke-linecap="round"
      fill="none"
      opacity="1"
      class="thread"
      style="animation-delay: 0s"
    >
      <title>2026-02-01: 7128 stars, TypeScript, Python, JavaScript, Roff, Go, Unknown, Shell</title>
    </path>

    <path
      d="M 20,33.917702154416816 L 35.2,34.7224390404481 L 50.400000000000006,28.358145792584132 L 65.6,31.583989245052024 L 80.80000000000001,35.905318618025845 L 96,29.942727418628934 L 111.2,29.39757584243773 L 126.4,35.70541782443106 L 141.60000000000002,32.25574030007522 L 156.79999999999998,28.132618893064482 L 172,34.193516772786595 L 187.2,34.47820162820406 L 202.4,28.237009545146922 L 217.6,31.904943640342676 L 232.8,35.823190744085935 L 248,29.673785553410813 L 263.20000000000005,29.650027702393093 L 278.40000000000003,35.81447901421124 L 293.59999999999997,31.93421873039697 L 308.8,28.22718102274456 L 324,34.45515105477849 L 339.2,34.217943489273026 L 354.4,28.14019974512903 L 369.6,32.22651254251628 L 384.8,35.716347248428185 L 400,29.419881869686904 L 415.2,29.91767133023107 L 430.40000000000003,35.89888090063027 L 445.6,31.6131224141482 L 460.79999999999995,28.346133137882724 L 476,34.70091362416386 L 491.2,33.94334710358899 L 506.40000000000003,28.06834223480618 L 521.6,32.546617118505374 L 536.8000000000001,35.585478837741924 L 552,29.182657768009697 L 567.1999999999999,30.198776501355567 L 582.4,35.95807785433387 L 597.6,31.294527129290067 L 612.8000000000001,28.488706253702365 L 628,34.92921570991243 L 643.1999999999999,33.656187642951686 L 658.4,28.021901548427813 L 673.6,32.86318800161063 L 688.8,35.431431531582604 L 704,28.963646821133405 L 719.2,30.491525966893224 L 734.4,35.99168718724486 L 749.6,30.98049248547019 L 764.8,28.65397868372915 L 780,35.13858141705416"
      stroke="url(#thread-1)"
      stroke-width="8"
      stroke-linecap="round"
      fill="none"
      opacity="0.9853658536585366"
      class="thread"
      style="animation-delay: 0.1s"
    >
      <title>2026-01-31: 7532 stars, TypeScript, Python, Roff, JavaScript, Unknown, Shell</title>
    </path>

    <path
      d="M 20,47.36588393923159 L 35.2,44.441561571331604 L 50.400000000000006,40.24191239205609 L 65.6,46.8964457256644 L 80.80000000000001,45.18540757058035 L 96,40.05065196515383 L 111.2,46.32248099775078 L 126.4,45.88647475290366 L 141.60000000000002,40.00191503881836 L 156.79999999999998,45.66470291156165 L 172,46.519463107242615 L 187.2,40.09746042419697 L 202.4,44.94684926751685 L 217.6,47.06152944143424 L 232.8,40.33384009324374 L 248,44.194825864077636 L 263.20000000000005,47.49311174402582 L 278.40000000000003,40.70252361065692 L 293.59999999999997,43.43577161303919 L 308.8,47.79863513531436 L 324,41.1902059789941 L 339.2,42.69707915440781 L 354.4,47.96707393135222 L 369.6,41.77928778749504 L 384.8,42.005406314770944 L 400,47.99234953723441 L 415.2,42.4485103370715 L 430.40000000000003,41.385714083507715 L 445.6,47.873549810552255 L 460.79999999999995,43.17372282116442 L 476,40.86036582421483 L 491.2,47.614961978656616 L 506.40000000000003,43.928753876557444 L 521.6,40.44832022887662 L 536.8000000000001,47.225917921817526 L 552,44.68635605174681 L 567.1999999999999,40.164447139330825 L 582.4,46.72045740567881 L 597.6,45.41918910902932 L 612.8000000000001,40.018990926567795 L 628,46.11682141622673 L 643.1999999999999,46.10080667504586 L 658.4,40.01720079335196 L 673.6,45.43679388172633 L 688.8,46.70661063367708 L 704,40.15914134175183 L 719.2,44.70491553746965 L 734.4,47.2147388192999 L 749.6,40.439690241789954 L 764.8,43.94759830327011 L 780,47.60685397545756"
      stroke="url(#thread-2)"
      stroke-width="8"
      stroke-linecap="round"
      fill="none"
      opacity="0.9707317073170731"
      class="thread"
      style="animation-delay: 0.2s"
    >
      <title>2026-01-30: 8081 stars, TypeScript, Rust, Roff, Python, JavaScript, Shell, Unknown</title>
    </path>

    <path
      d="M 20,59.98997994641622 L 35.2,53.604102983947904 L 50.400000000000006,55.14441841333285 L 65.6,59.515199516916645 L 80.80000000000001,52.256871572757824 L 96,57.381695267822664 L 111.2,57.935545149613425 L 126.4,52.08615518588121 L 141.60000000000002,59.18468693193929 L 156.79999999999998,55.747523211434455 L 172,53.14561225314778 L 187.2,59.9866891574109 L 202.4,53.63885808422569 L 217.6,55.102241334323104 L 232.8,59.53562198327944 L 248,52.27233124920782 L 263.20000000000005,57.34104789856027 L 278.40000000000003,57.97326181867851 L 293.59999999999997,52.07746025668051 L 308.8,59.15834528093305 L 324,55.79067923272463 L 339.2,53.11549565013103 L 354.4,59.98293275574731 L 369.6,53.67388894655073 L 384.8,55.060169106176346 L 400,59.55563151793747 L 415.2,52.28822628685292 L 430.40000000000003,57.30024390588123 L 445.6,58.01074802691646 L 460.79999999999995,52.069223448011634 L 476,59.13163476105242 L 491.2,55.833859700966855 L 506.40000000000003,53.08571593360961 L 521.6,59.97871118014243 L 536.8000000000001,53.709191479605074 L 552,55.01820664258454 L 567.1999999999999,59.57522578394084 L 582.4,52.3045548292829 L 597.6,57.25928805535785 L 612.8000000000001,58.04799939624505 L 628,52.06144572186642 L 643.1999999999999,59.10455849186747 L 658.4,55.877059573036064 L 673.6,53.05627658161056 L 688.8,59.974024923641714 L 704,53.74476156034197 L 719.2,54.97635884441981 L 734.4,59.59440249283972 L 749.6,52.32131496945765 L 764.8,57.21818513029825 L 780,58.08501157600917"
      stroke="url(#thread-3)"
      stroke-width="8"
      stroke-linecap="round"
      fill="none"
      opacity="0.9560975609756098"
      class="thread"
      style="animation-delay: 0.30000000000000004s"
    >
      <title>2026-01-29: 9087 stars, TypeScript, JavaScript, Python, Shell, Unknown</title>
    </path>

    <path
      d="M 20,71.63718970730272 L 35.2,64.05519408951291 L 50.400000000000006,71.9813616982095 L 65.6,64.2556547963322 L 80.80000000000001,71.25004259934796 L 96,65.467580978738 L 111.2,69.6407847142319 L 126.4,67.3635932350496 L 141.60000000000002,67.58829924163541 L 156.79999999999998,69.43151898655566 L 172,65.64702710026454 L 187.2,71.1127464093047 L 202.4,64.34136698813225 L 217.6,71.9531230674972 L 232.8,64.02401879118358 L 248,71.72563677875804 L 263.20000000000005,64.78070824449193 L 278.40000000000003,70.49173874876227 L 293.59999999999997,66.40702971339202 L 308.8,68.58474366668766 L 324,68.4636625881317 L 339.2,66.51979091811825 L 354.4,70.39504560616567 L 369.6,64.85468922535067 L 384.8,71.67945143290889 L 400,64.03923495703309 L 415.2,71.96992163378108 L 430.40000000000003,64.29370797371763 L 445.6,71.18799106631064 L 460.79999999999995,65.54936710522786 L 476,69.54488378444616 L 491.2,67.4670193040361 L 506.40000000000003,67.48445477427789 L 521.6,69.52864636194474 L 536.8000000000001,65.5632907539964 L 552,71.17733793036562 L 567.1999999999999,64.3003585852976 L 582.4,71.96773053166979 L 597.6,64.03681599193928 L 612.8000000000001,71.68631425026638 L 628,64.84385412218073 L 643.1999999999999,70.40910848004796 L 658.4,66.50346657922357 L 673.6,68.48112669373889 L 688.8,68.56733980973733 L 704,66.42317744619704 L 719.2,70.47795670322495 L 734.4,64.79117759368833 L 749.6,71.71919950886009 L 764.8,64.02598165607871 L 780,71.95576948242154"
      stroke="url(#thread-4)"
      stroke-width="8"
      stroke-linecap="round"
      fill="none"
      opacity="0.9414634146341464"
      class="thread"
      style="animation-delay: 0.4s"
    >
      <title>2026-01-28: 11454 stars, TypeScript, JavaScript, Python, Shell</title>
    </path>

    <path
      d="M 20,82.39388857641583 L 35.2,77.65307715143365 L 50.400000000000006,82.29945843511504 L 65.6,77.74849457846825 L 80.80000000000001,82.20307399710643 L 96,77.8458255472159 L 111.2,82.10481717897824 L 126.4,77.94498733663718 L 141.60000000000002,82.00477148864401 L 156.79999999999998,78.04589566968859 L 172,81.90302195436966 L 187.2,78.14846478494906 L 202.4,81.79965505250843 L 217.6,78.25260750950814 L 232.8,81.69475863400505 L 248,78.35823533305368 L 263.20000000000005,81.5884218497319 L 278.40000000000003,78.46525848309646 L 293.59999999999997,81.48073507471995 L 308.8,78.5735860012669 L 324,81.37178983134974 L 339.2,78.68312582062067 L 354.4,81.26167871156699 L 369.6,78.79378484388529 L 384.8,81.15049529818899 L 400,78.90546902258328 L 415.2,81.03833408536948 L 430.40000000000003,79.01808343696332 L 445.6,80.92529039828834 L 460.79999999999995,79.13153237667208 L 476,80.81146031213538 L 491.2,79.24571942209798 L 506.40000000000003,80.69694057045639 L 521.6,79.36054752631745 L 536.8000000000001,80.58182850293156 L 552,79.47591909757449 L 567.1999999999999,80.46622194265565 L 582.4,79.5917360822241 L 597.6,80.35021914298981 L 612.8000000000001,79.70790004806632 L 628,80.23391869405656 L 643.1999999999999,79.82431226800419 L 658.4,80.11741943894954 L 673.6,79.94087380395112 L 688.8,80.0008203897259 L 704,80.0574855909175 L 719.2,79.88422064325768 L 734.4,80.17404852120531 L 749.6,79.76771929700938 L 764.8,80.29046352864029 L 780,79.65141536481573"
      stroke="url(#thread-5)"
      stroke-width="8"
      stroke-linecap="round"
      fill="none"
      opacity="0.926829268292683"
      class="thread"
      style="animation-delay: 0.5s"
    >
      <title>2026-01-27: 12558 stars, TypeScript, JavaScript, Python, Shell</title>
    </path>

    <path
      d="M 20,92.56448003223947 L 35.2,88.21366990444567 L 50.400000000000006,90.02963367660863 L 65.6,95.05472166926953 L 80.80000000000001,95.10460216911257 L 96,90.09803509490183 L 111.2,88.18918724732814 L 126.4,92.48698806157923 L 141.60000000000002,95.9916342400886 L 156.79999999999998,92.99512884735645 L 172,88.3778628637352 L 187.2,89.65995065811879 L 202.4,94.75326326437693 L 217.6,95.36235193611738 L 232.8,90.49519748091458 L 248,88.07890617422092 L 263.20000000000005,92.04887767448304 L 278.40000000000003,95.9392423893657 L 293.59999999999997,93.41378583687754 L 308.8,88.58570447911377 L 324,89.31846646400048 L 339.2,94.41862659018409 L 354.4,95.57958359522382 L 369.6,90.91049352812419 L 384.8,88.01587634242664 L 400,91.61017828572189 L 415.2,95.83938059760075 L 430.40000000000003,93.81540596405577 L 445.6,88.83469014988587 L 460.79999999999995,89.00929615825822 L 476,94.05484419448182 L 491.2,95.75367939077458 L 506.40000000000003,91.33891870090484 L 521.6,88.00085729454348 L 536.8000000000001,91.1761764534868 L 552,95.69325225186638 L 567.1999999999999,94.19514949528916 L 582.4,89.12181946786548 L 597.6,88.73616540555923 L 612.8000000000001,93.66629984632233 L 628,95.88254137693806 L 643.1999999999999,91.7753102507678 L 658.4,88.0340300179916 L 673.6,90.75210212794367 L 688.8,95.50261827552578 L 704,94.54844032145382 L 719.2,89.44363237387148 L 734.4,88.50236557501607 L 749.6,93.2576757092987 L 764.8,95.96461669905818 L 780,92.21440943019357"
      stroke="url(#thread-6)"
      stroke-width="8"
      stroke-linecap="round"
      fill="none"
      opacity="0.9121951219512195"
      class="thread"
      style="animation-delay: 0.6000000000000001s"
    >
      <title>2026-01-26: 5507 stars, TypeScript, JavaScript, Python, Rust, Shell</title>
    </path>

    <path
      d="M 20,102.59686708924153 L 35.2,100.06208491505156 L 50.400000000000006,101.38889902158738 L 65.6,105.27620963689179 L 80.80000000000001,107.91204420943326 L 96,106.71165198599239 L 111.2,102.85216097605038 L 126.4,100.11826328392716 L 141.60000000000002,101.19087226911587 L 156.79999999999998,105.01816665601069 L 172,107.8470269763514 L 187.2,106.90341766663028 L 202.4,103.11266040653638 L 217.6,100.19204564569465 L 232.8,101.00558514022626 L 248,104.75550620622684 L 263.20000000000005,107.76456316188083 L 278.40000000000003,107.08201611113032 L 293.59999999999997,103.37718399451644 L 308.8,100.28309739132017 L 324,100.83387792717393 L 339.2,104.48941947412222 L 354.4,107.66502674615207 L 369.6,107.24663736096687 L 384.8,103.64453210392479 L 400,100.39100559370436 L 415.2,100.67652933618736 L 430.40000000000003,104.22111318474886 L 445.6,107.5488691349361 L 460.79999999999995,107.39653484533314 L 476,103.91349228926036 L 491.2,100.51528088034033 L 506.40000000000003,100.53425295597177 L 521.6,103.95180412903211 L 536.8000000000001,107.41661711248227 L 552,107.53102876690063 L 567.1999999999999,104.18284479412615 L 582.4,100.655359652658 L 597.6,100.4076940215261 L 612.8000000000001,103.68271364552466 L 628,107.26887045250875 L 643.1999999999999,107.6495091847557 L 658.4,104.45136808292413 L 673.6,100.81060664198968 L 688.8,100.2974264879497 L 704,103.41506208153635 L 719.2,107.10629919817978 L 734.4,107.75143878053126 L 749.6,104.71784438061869 L 764.8,100.98031779056514 L 780,100.20395042750901"
      stroke="url(#thread-7)"
      stroke-width="8"
      stroke-linecap="round"
      fill="none"
      opacity="0.897560975609756"
      class="thread"
      style="animation-delay: 0.7000000000000001s"
    >
      <title>2026-01-25: 4122 stars, Shell, Python, TypeScript</title>
    </path>

    <path
      d="M 20,112.9727900187683 L 35.2,113.09895995755382 L 50.400000000000006,118.45360908839857 L 65.6,119.38617376799871 L 80.80000000000001,114.21591365799362 L 96,112.26107221837403 L 111.2,117.04481618978505 L 126.4,119.94551145180581 L 141.60000000000002,115.73530020237992 L 156.79999999999998,112.00215144218181 L 172,115.4742351819567 L 187.2,119.89389302303157 L 202.4,117.29567508537086 L 217.6,112.36229109539367 L 232.8,113.98506801192545 L 248,119.2393115124824 L 263.20000000000005,118.65541676199649 L 278.40000000000003,113.2857241310246 L 293.59999999999997,112.80790982465517 L 308.8,118.08312781593513 L 324,119.6039714171144 L 339.2,114.62945842636263 L 354.4,112.12504167515561 L 369.6,116.60437512219201 L 384.8,119.99445688557545 L 400,116.18541888355279 L 415.2,112.04220459982216 L 430.40000000000003,115.03203591128738 L 445.6,119.76640711963283 L 460.79999999999995,117.71266752437181 L 476,112.57222578674983 L 491.2,113.60958438515618 L 506.40000000000003,118.95513525933883 L 521.6,118.97471234925571 L 536.8000000000001,113.63303230625468 L 552,112.55728487843689 L 567.1999999999999,117.6862654495137 L 582.4,119.77612774367196 L 597.6,115.06035997224227 L 612.8000000000001,112.03808427995486 L 628,116.15628014264864 L 643.1999999999999,119.99281582071377 L 658.4,116.63318938764739 L 673.6,112.13237996864898 L 688.8,114.60209510665021 L 704,119.59122277961052 L 719.2,118.1079704431553 L 734.4,112.82557040854566 L 749.6,113.2643733986212 L 764.8,118.63353465789602 L 780,119.25633566053484"
      stroke="url(#thread-8)"
      stroke-width="8"
      stroke-linecap="round"
      fill="none"
      opacity="0.8829268292682927"
      class="thread"
      style="animation-delay: 0.8s"
    >
      <title>2026-01-24: 5856 stars, Shell, TypeScript, Python, Rust</title>
    </path>

    <path
      d="M 20,124.08987952933961 L 35.2,125.88557149450962 L 50.400000000000006,130.48164694147053 L 65.6,131.7909888410518 L 80.80000000000001,128.07948349866265 L 96,124.26270891867482 L 111.2,125.39566339484169 L 126.4,129.97784360324363 L 141.60000000000002,131.94053559451868 L 156.79999999999998,128.68431819271407 L 172,124.52177865318315 L 187.2,124.96585200235778 L 202.4,129.42840027837113 L 217.6,131.999152007682 L 232.8,129.27336181353525 L 248,124.86111053559775 L 263.20000000000005,124.60605548560314 L 278.40000000000003,128.84599571757366 L 293.59999999999997,131.9654854698957 L 308.8,129.83302180863933 L 324,125.27287426904556 L 339.2,124.32457637577528 L 354.4,128.24406927284713 L 369.6,131.84031285771994 L 384.8,130.3503836712065 L 400,125.74756814607872 L 415.2,124.12790998058838 L 430.40000000000003,127.63651077595277 L 445.6,131.6265226080052 L 460.79999999999995,130.81350895046148 L 476,126.27423830655734 L 491.2,124.02059450095744 L 506.40000000000003,127.03734002180212 L 521.6,131.329048065393 L 536.8000000000001,131.21171073894317 L 552,126.84073150487016 L 567.1999999999999,124.00510630915433 L 582.4,126.46038325286096 L 597.6,130.95475364228182 L 612.8000000000001,131.5358002796241 L 628,127.4339755537303 L 643.1999999999999,124.08180280495827 L 658.4,125.91895410989763 L 673.6,130.51227641818807 L 688.8,131.7782990022653 L 704,128.04028097312874 L 719.2,124.24891416843072 L 734.4,125.42554641133835 L 749.6,130.01182683369737 L 764.8,131.9336110961339 L 780,128.6456568837063"
      stroke="url(#thread-9)"
      stroke-width="8"
      stroke-linecap="round"
      fill="none"
      opacity="0.8682926829268293"
      class="thread"
      style="animation-delay: 0.9s"
    >
      <title>2026-01-23: 4879 stars, Unknown, Rust, Python, Shell, TypeScript, JavaScript</title>
    </path>

    <path
      d="M 20,136.16430290134744 L 35.2,141.18563940983904 L 50.400000000000006,143.80411176212567 L 65.6,138.71301936516832 L 80.80000000000001,136.23017329631404 L 96,141.38740850868254 L 111.2,143.73286625493287 L 126.4,138.51314824078656 L 141.60000000000002,136.3067433538492 L 156.79999999999998,141.58523981301863 L 172,143.65102598769386 L 187.2,138.31749715444994 L 202.4,136.3937957499636 L 217.6,141.77857183067053 L 232.8,143.55882324250342 L 248,138.1266214103593 L 263.20000000000005,136.49108340930405 L 278.40000000000003,141.96685583950455 L 293.59999999999997,143.4565197126274 L 308.8,137.94106275916118 L 324,136.59833020641202 L 339.2,142.14955744483353 L 354.4,143.34440575975484 L 369.6,137.76134786033114 L 384.8,136.7152317494333 L 400,142.32615809615612 L 415.2,143.22279958988275 L 430.40000000000003,137.58798678738907 L 445.6,136.8414562440541 L 460.79999999999995,142.4961565589256 L 476,143.09204635017213 L 491.2,137.4214715801895 L 506.40000000000003,136.9766454352122 L 521.6,142.65907033717298 L 536.8000000000001,142.95251714933812 L 552,137.2622748483958 L 567.1999999999999,137.12041562390974 L 582.4,142.81443704294452 L 597.6,142.80460800435583 L 612.8000000000001,137.11084843010195 L 628,137.272358756242 L 643.1999999999999,142.9618157086688 L 658.4,142.64873871646975 L 673.6,136.96762210940872 L 688.8,137.43204358155123 L 704,143.10078803872736 L 719.2,142.4853516796985 L 734.4,136.8330023965943 L 749.6,137.59901687641837 L 764.8,143.23095959667648 L 780,142.31491062521584"
      stroke="url(#thread-10)"
      stroke-width="8"
      stroke-linecap="round"
      fill="none"
      opacity="0.8536585365853658"
      class="thread"
      style="animation-delay: 1s"
    >
      <title>2026-01-22: 6303 stars, Rust, Unknown, Shell, TypeScript, Python</title>
    </path>

    <path
      d="M 20,149.17783869771844 L 35.2,153.09065165146774 L 50.400000000000006,155.8897856600126 L 65.6,154.7170076606451 L 80.80000000000001,150.7698569075688 L 96,148.0788216701896 L 111.2,149.39175391447606 L 126.4,153.36800101777442 L 141.60000000000002,155.94736403946584 L 156.79999999999998,154.49602100217479 L 172,150.4959576350064 L 187.2,148.03169198320816 L 202.4,149.61951856492888 L 217.6,153.6380864838319 L 232.8,155.98398245013433 L 248,154.2617808100125 L 263.20000000000005,150.23004462383412 L 278.40000000000003,148.00563347469637 L 293.59999999999997,149.85992324961038 L 308.8,153.89947393237068 L 324,155.99944645321366 L 339.2,154.01553086787484 L 354.4,149.97352983615073 L 369.6,148.0007845118074 L 384.8,150.11169145218292 L 400,154.15077543141715 L 415.2,155.99367393694047 L 430.40000000000003,153.7585787296253 L 445.6,149.7277753307602 L 460.79999999999995,148.017170841878 L 476,150.37348631756706 L 491.2,154.39065660402434 L 506.40000000000003,155.96669555259484 L 521.6,153.49228877634022 L 536.8000000000001,149.49408603082404 L 552,148.05470545571328 L 567.1999999999999,150.64391775046076 L 582.4,154.6178437136329 L 597.6,155.91865455174627 L 612.8000000000001,153.21807497163 L 628,149.27370279489566 L 643.1999999999999,148.11318904959398 L 658.4,150.9215497965575 L 673.6,154.83113042744 L 688.8,155.849806025607 L 704,152.93739335368343 L 719.2,149.06779582812956 L 734.4,148.19231108355223 L 749.6,151.20490826726927 L 764.8,155.0293842218631 L 780,155.76051555053235"
      stroke="url(#thread-11)"
      stroke-width="8"
      stroke-linecap="round"
      fill="none"
      opacity="0.8390243902439025"
      class="thread"
      style="animation-delay: 1.1s"
    >
      <title>2026-01-21: 4215 stars, Unknown, TypeScript, Python, Shell, JavaScript</title>
    </path>

    <path
      d="M 20,162.88233800720428 L 35.2,167.90546603791466 L 50.400000000000006,164.60761880321343 L 65.6,160.0151806072149 L 80.80000000000001,163.91278771761517 L 96,167.9962090784837 L 111.2,163.5653182997359 L 126.4,160.0605591634376 L 141.60000000000002,164.94916190568506 L 156.79999999999998,167.81548288606282 L 172,162.55254645840992 L 187.2,160.37355059008513 L 202.4,165.9210579222031 L 217.6,167.375564496181 L 232.8,161.63810258116357 L 248,160.93289285084862 L 263.20000000000005,166.76245322906672 L 278.40000000000003,166.70633830816118 L 293.59999999999997,160.88410638523217 L 308.8,161.70058888112854 L 324,167.41619042181836 L 339.2,165.8532659873944 L 354.4,160.34177810583532 L 369.6,162.62448779281664 L 384.8,167.83786002867927 L 400,164.874298177617 L 415.2,160.04795901907875 L 430.40000000000003,163.64182757221678 L 445.6,167.99881732098245 L 460.79999999999995,163.83593781579322 L 476,160.0226087518371 L 491.2,164.6834986096514 L 506.40000000000003,167.888128197977 L 521.6,162.80872247527194 L 536.8000000000001,160.2674493905851 L 552,165.678738431985 L 567.1999999999999,167.5133119587618 L 582.4,161.86243262927934 L 597.6,160.76584849715434 L 612.8000000000001,166.55993871695426 L 628,166.89983050359618 L 643.1999999999999,161.06135134550095 L 658.4,161.48394897835337 L 673.6,167.26723804070141 L 688.8,166.08935866400583 L 704,160.45989742870856 L 719.2,162.37296905549832 L 734.4,167.7525883654134 L 749.6,165.13695316108135 L 764.8,160.09892865942976 L 780,163.37251609303996"
      stroke="url(#thread-12)"
      stroke-width="8"
      stroke-linecap="round"
      fill="none"
      opacity="0.8243902439024391"
      class="thread"
      style="animation-delay: 1.2000000000000002s"
    >
      <title>2026-01-20: 6510 stars, Python, Vue, TypeScript, Unknown, Shell, JavaScript</title>
    </path>

    <path
      d="M 20,176.86047995235126 L 35.2,179.911964674154 L 50.400000000000006,178.37977561144862 L 65.6,174.05918839288108 L 80.80000000000001,172.01266242619434 L 96,174.63812514789976 L 111.2,178.85930525902734 L 126.4,179.73021928920056 L 141.60000000000002,176.2304117534709 L 156.79999999999998,172.4606293069234 L 172,172.83794991749136 L 187.2,176.92026463607257 L 202.4,179.92429945221883 L 217.6,178.33020774627806 L 232.8,174.00579686602563 L 248,172.01800642781723 L 263.20000000000005,174.69594307745407 L 278.40000000000003,178.9018514822737 L 293.59999999999997,179.70764212690153 L 308.8,176.16916500968108 L 324,172.43247617923782 L 339.2,172.87587760392248 L 354.4,176.97983302622015 L 369.6,179.93571188608007 L 384.8,178.2800922028189 L 400,173.95287404491594 L 415.2,172.0242863337294 L 430.40000000000003,174.75406750485806 L 445.6,178.94371567145848 L 460.79999999999995,179.68419354225915 L 476,176.1078785063449 L 491.2,172.4051615413151 L 506.40000000000003,172.9145395656602 L 521.6,177.03917112219088 L 536.8000000000001,179.94619929342662 L 552,178.22944075993303 L 567.1999999999999,173.90043236821984 L 582.4,172.0315006679389 L 597.6,174.81248476888902 L 612.8000000000001,178.98488798706947 L 628,179.6598790464905 L 643.1999999999999,176.0465666478807 L 658.4,172.37869181302668 L 673.6,172.95392671582488 L 688.8,177.0982649775085 L 704,179.95575920936002 L 719.2,178.17826532243686 L 734.4,173.8484841615198 L 749.6,172.03964773483105 L 764.8,174.87118113949774 L 780,179.02535875220843"
      stroke="url(#thread-13)"
      stroke-width="8"
      stroke-linecap="round"
      fill="none"
      opacity="0.8097560975609757"
      class="thread"
      style="animation-delay: 1.3s"
    >
      <title>2026-01-19: 4551 stars, JavaScript, TypeScript, Shell, Python</title>
    </path>

    <path
      d="M 20,190.62794639487515 L 35.2,191.9880127799194 L 50.400000000000006,190.1313127163007 L 65.6,186.55547692876308 L 80.80000000000001,184.1448062513454 L 96,184.84376901497646 L 111.2,188.08857566054695 L 126.4,191.26193639339363 L 141.60000000000002,191.80419032518506 L 156.79999999999998,189.27795062927285 L 172,185.7209046310359 L 187.2,184.00219715395454 L 202.4,185.50815287962956 L 217.6,189.02405457447645 L 232.8,191.71394477473575 L 248,191.40813420800845 L 263.20000000000005,188.35329238740349 L 278.40000000000003,185.0134817963648 L 293.59999999999997,184.08262325386218 L 308.8,186.3115555092223 L 324,189.9024020532506 L 339.2,191.9587542427027 L 354.4,190.82194017888986 L 369.6,187.40892415973366 L 384.8,184.4726751512445 L 400,184.38159762368548 L 415.2,187.20915551788306 L 430.40000000000003,190.67461557954445 L 445.6,191.98270701323378 L 460.79999999999995,190.0783116766867 L 476,186.49753172445003 L 491.2,184.12865599762245 L 506.40000000000003,184.88244064961444 L 521.6,188.15087630035237 L 536.8000000000001,191.2976137902128 L 552,191.78446677458302 L 567.1999999999999,189.21873532194843 L 582.4,185.66996115862239 L 597.6,184.000616972744 L 612.8000000000001,185.5572105777894 L 628,189.08417977793872 L 643.1999999999999,191.73663996157916 L 658.4,191.3750932394083 L 673.6,188.2911664014302 L 688.8,184.9723821638433 L 704,184.0957013025949 L 719.2,186.3682623692084 L 734.4,189.95699746870878 L 749.6,191.9672010677189 L 764.8,190.77742512955317 L 780,187.34735346931592"
      stroke="url(#thread-14)"
      stroke-width="7.412"
      stroke-linecap="round"
      fill="none"
      opacity="0.7951219512195122"
      class="thread"
      style="animation-delay: 1.4000000000000001s"
    >
      <title>2026-01-18: 3706 stars, JavaScript, Shell, Vue, TypeScript, Python, HTML</title>
    </path>

    <path
      d="M 20,203.75199990709896 L 35.2,201.39879259445544 L 50.400000000000006,196.25714050463912 L 65.6,198.5767496860792 L 80.80000000000001,203.73355926462818 L 96,201.44764726101823 L 111.2,196.27590038798198 L 126.4,198.52801760599462 L 141.60000000000002,203.71448094145475 L 156.79999999999998,201.4962546737792 L 172,196.29529633634723 L 187.2,198.47953693607948 L 202.4,203.6947681960989 L 217.6,201.54460653073824 L 232.8,196.31532503696528 L 248,198.43131595668652 L 263.20000000000005,203.6744243954383 L 278.40000000000003,201.59269457354353 L 293.59999999999997,196.33598306899418 L 308.8,198.3833629038141 L 324,203.65345301413296 L 339.2,201.6405105889019 L 354.4,196.35726690410414 L 369.6,198.33568596769956 L 384.8,203.6318576340318 L 400,201.68804640998152 L 415.2,196.37917290708012 L 430.40000000000003,198.28829329142033 L 445.6,203.60964194356086 L 460.79999999999995,201.73529391780713 L 476,196.40169733644262 L 491.2,198.24119296950303 L 506.40000000000003,203.5868097370933 L 521.6,201.78224504264625 L 536.8000000000001,196.42483634508682 L 552,198.19439304654117 L 567.1999999999999,203.56336491430133 L 582.4,201.82889176538797 L 597.6,196.44858598093955 L 612.8000000000001,198.14790151582088 L 628,203.53931147949027 L 643.1999999999999,201.87522611891217 L 658.4,196.47294218763437 L 673.6,198.101726317956 L 688.8,203.5146535409145 L 704,201.92124018945046 L 719.2,196.49790080520438 L 734.4,198.05587533953153 L 749.6,203.48939531007582 L 764.8,201.9669261179379 L 780,196.5234575707927"
      stroke="url(#thread-15)"
      stroke-width="8"
      stroke-linecap="round"
      fill="none"
      opacity="0.7804878048780488"
      class="thread"
      style="animation-delay: 1.5s"
    >
      <title>2026-01-17: 6237 stars, JavaScript, TypeScript, Shell, Python</title>
    </path>

    <path
      d="M 20,215.95743298649353 L 35.2,211.93768476472528 L 50.400000000000006,208.02635640879032 L 65.6,211.02861673030978 L 80.80000000000001,215.72094920365868 L 96,213.9393461834707 L 111.2,208.78354980448032 L 126.4,209.22393062229065 L 141.60000000000002,214.49428709771064 L 156.79999999999998,215.42492999761006 L 172,210.39666976263055 L 187.2,208.15798174792238 L 202.4,212.6038725779039 L 217.6,215.99910888354478 L 232.8,212.43645043527647 L 248,208.11442876825535 L 263.20000000000005,210.55276208945162 L 278.40000000000003,215.50908863331236 L 293.59999999999997,214.36008768954434 L 308.8,209.10486152609926 L 324,208.8867747319476 L 339.2,214.08526807879943 L 354.4,215.65568420933099 L 369.6,210.86571688375955 L 384.8,208.0492448477041 L 400,212.10653878017445 L 415.2,215.97847001279084 L 430.40000000000003,212.92841526385894 L 445.6,208.2630467332909 L 460.79999999999995,210.09945854609563 L 476,215.24254887073587 L 491.2,214.744053923762 L 506.40000000000003,209.47128576828678 L 521.6,208.59812962622019 L 536.8000000000001,213.64375607209374 L 552,215.82947495261246 L 567.1999999999999,211.35243858967038 L 582.4,208.00206925955302 L 597.6,211.60754487777106 L 612.8000000000001,215.8958379724868 L 628,213.40591337416018 L 643.1999999999999,208.4698945144918 L 658.4,209.67576955009338 L 673.6,214.9254831820441 L 688.8,215.0852618615483 L 704,209.87711284865247 L 719.2,208.36249302029074 L 734.4,213.1766307897949 L 749.6,215.94359419170718 L 764.8,211.84925070324437 L 780,208.01719008118897"
      stroke="url(#thread-16)"
      stroke-width="8"
      stroke-linecap="round"
      fill="none"
      opacity="0.7658536585365854"
      class="thread"
      style="animation-delay: 1.6s"
    >
      <title>2026-01-16: 5731 stars, JavaScript, TypeScript, Shell, Python, C</title>
    </path>

    <path
      d="M 20,227.19394845049396 L 35.2,223.93221983180663 L 50.400000000000006,220.72628851594234 L 65.6,220.21530877514905 L 80.80000000000001,222.81992417071376 L 96,226.3959896254316 L 111.2,227.99965279413394 L 126.4,226.31076234295273 L 141.60000000000002,222.7196295451013 L 156.79999999999998,220.18251033119182 L 172,220.78798625612467 L 187.2,224.03762356802167 L 202.4,227.256288787725 L 217.6,227.79434496778 L 232.8,225.20885895510423 L 248,221.62822833027747 L 263.20000000000005,220.00006353151826 L 278.40000000000003,221.66468587616293 L 293.59999999999997,225.2517618356019 L 308.8,227.80837510860772 L 324,227.22989643860507 L 339.2,223.99253517099916 L 354.4,220.76131902423586 L 369.6,220.1962169926877 L 384.8,222.76242664107986 L 400,226.34741888199108 L 415.2,227.9999927518331 L 430.40000000000003,226.3597331452614 L 445.6,222.77691794466793 L 460.79999999999995,220.2009559525841 L 476,220.75240448192395 L 491.2,223.97730566561458 L 506.40000000000003,227.2208890491554 L 521.6,227.81300480690797 L 536.8000000000001,225.26621740835876 L 552,221.67706735333954 L 567.1999999999999,220.00017835901164 L 582.4,221.61598198096277 L 597.6,225.19433274449602 L 612.8000000000001,227.78949701569096 L 628,227.26510997611948 L 643.1999999999999,224.05285220762943 L 658.4,220.7970859806541 L 673.6,220.1779901576798 L 688.8,222.70521052495542 L 704,226.29831435574008 L 719.2,227.99942314567497 L 734.4,226.4081673646023 L 749.6,222.83448446254658 L 764.8,220.2202654438312 L 780,220.717561182938"
      stroke="url(#thread-17)"
      stroke-width="7.494"
      stroke-linecap="round"
      fill="none"
      opacity="0.751219512195122"
      class="thread"
      style="animation-delay: 1.7000000000000002s"
    >
      <title>2026-01-15: 3747 stars, TypeScript, Shell, Python, JavaScript, C</title>
    </path>

    <path
      d="M 20,237.64847394096702 L 35.2,233.80360440392627 L 50.400000000000006,232.00054798946377 L 65.6,233.9154618772695 L 80.80000000000001,237.76820395099685 L 96,239.97718838971804 L 111.2,238.4888992318209 L 126.4,234.68687974165064 L 141.60000000000002,232.10556301550608 L 156.79999999999998,233.1445925303612 L 172,236.83806574025854 L 187.2,239.75245633448228 L 202.4,239.17848872978044 L 217.6,235.64973465126025 L 232.8,232.44659422208434 L 248,232.5467706271633 L 263.20000000000005,235.85713788371487 L 278.40000000000003,239.30031261095692 L 293.59999999999997,239.67545095636126 L 308.8,236.63381683713928 L 324,233.00297395347823 L 339.2,232.15822621653663 L 354.4,234.88486795928387 L 369.6,238.6481586728321 L 384.8,239.9496683035355 L 400,237.57948755824003 L 415.2,233.74098369796081 L 430.40000000000003,232.00250641662169 L 445.6,233.9801788446313 L 460.79999999999995,237.83551727582596 L 476,239.98452226362815 L 491.2,238.4294359394534 L 506.40000000000003,234.61589754475614 L 521.6,232.08904837906735 L 536.8000000000001,233.19789778956573 L 552,236.91163726372005 L 567.1999999999999,239.77790056763334 L 582.4,239.13215220635354 L 597.6,235.5746927269686 L 612.8000000000001,232.41260736541372 L 628,232.5854336974684 L 643.1999999999999,235.93250892024454 L 658.4,239.34232519592936 L 673.6,239.6450493534312 L 688.8,236.55926298232632 L 704,232.95357459615303 L 719.2,232.1799039838497 L 734.4,234.95747076668033 L 749.6,238.7041935035061 L 764.8,239.93704406205953 L 780,237.50993999110452"
      stroke="url(#thread-18)"
      stroke-width="8"
      stroke-linecap="round"
      fill="none"
      opacity="0.7365853658536585"
      class="thread"
      style="animation-delay: 1.8s"
    >
      <title>2026-01-14: 4003 stars, TypeScript, Shell, Python, C, HTML, Jupyter Notebook</title>
    </path>

    <path
      d="M 20,247.69939551815276 L 35.2,244.10227637871117 L 50.400000000000006,245.9831617971968 L 65.6,250.6985860237225 L 80.80000000000001,251.62131790614032 L 96,247.45451601884963 L 111.2,244.05435744066816 L 126.4,246.1995504635898 L 141.60000000000002,250.87516168058335 L 156.79999999999998,251.5099146117333 L 172,247.21170407261735 L 187.2,244.02139370877595 L 202.4,246.42276339081644 L 217.6,251.04083958504938 L 232.8,251.3852076549187 L 248,246.97188001186245 L 263.20000000000005,244.00351012577798 L 278.40000000000003,246.65195453281652 L 293.59999999999997,251.194991766599 L 308.8,251.2476697136494 L 324,246.7359528439809 L 339.2,244.00077447598736 L 354.4,246.88625518424615 L 369.6,251.33703394076676 L 384.8,251.09782209927943 L 400,246.50481680593902 L 415.2,244.0131971283632 L 430.40000000000003,247.12477727313964 L 445.6,251.46642772376222 L 460.79999999999995,250.93623278063274 L 476,246.27934797483854 L 491.2,244.04073099720927 L 506.40000000000003,247.36661672697716 L 521.6,251.58268267311112 L 536.8000000000001,250.76351423122554 L 552,246.0604009473133 L 567.1999999999999,244.0832717206431 L 582.4,247.61085689939935 L 597.6,251.68535814658412 L 612.8000000000001,250.5803211078023 L 628,245.8488056003437 L 643.1999999999999,244.14065805616008 L 658.4,247.85657204458045 L 673.6,251.77406497236714 L 688.8,250.38734776898383 L 704,245.64536394576606 L 719.2,244.21267249179226 L 734.4,248.10283082609178 L 749.6,251.84846692414308 L 764.8,250.18532564343377 L 780,245.45084709039955"
      stroke="url(#thread-19)"
      stroke-width="8"
      stroke-linecap="round"
      fill="none"
      opacity="0.7219512195121951"
      class="thread"
      style="animation-delay: 1.9000000000000001s"
    >
      <title>2026-01-13: 5049 stars, TypeScript, Shell, C, Rust, Python</title>
    </path>

    <path
      d="M 20,257.8239155564425 L 35.2,256.01108325906443 L 50.400000000000006,257.3500320036086 L 65.6,260.7828120901346 L 80.80000000000001,263.59706527692515 L 96,263.5691528125694 L 111.2,260.7211293002851 L 126.4,257.3033165933333 L 141.60000000000002,256.0162466893022 L 156.79999999999998,257.87687802242635 L 172,261.41506144129187 L 187.2,263.83515588676534 L 202.4,263.2249610577908 L 217.6,260.06661298746815 L 232.8,256.85563169246745 L 248,256.12912452017747 L 263.20000000000005,258.46112990788765 L 278.40000000000003,262.009049764939 L 293.59999999999997,263.96954993573036 L 308.8,262.79357144703886 L 324,259.4102955646275 L 339.2,256.4929655468342 L 354.4,256.34666471333605 L 369.6,259.0869904113288 L 384.8,262.54871655449415 L 400,263.9966136208951 L 415.2,262.2866480743826 L 430.40000000000003,258.76992281879257 L 445.6,256.22512407649486 L 460.79999999999995,256.662985325371 L 476,259.73753725274076 L 491.2,263.01947007190336 L 506.40000000000003,263.9156151829363 L 521.6,261.7178973475727 L 536.8000000000001,258.1628094180972 L 552,256.059349291984 L 567.1999999999999,257.069533546287 L 582.4,260.3951806725063 L 597.6,263.40858188520286 L 612.8000000000001,263.72874469174957 L 628,261.1026973884136 L 643.1999999999999,257.6053707504872 L 658.4,256.00012348177734 L 673.6,257.5553169539808 L 688.8,261.0421390307324 L 704,263.7055310252258 L 719.2,263.4410548304167 L 734.4,260.45768223262615 L 749.6,257.11267907754365 L 764.8,256.04904801828707 L 780,258.1072007319821"
      stroke="url(#thread-20)"
      stroke-width="7.33"
      stroke-linecap="round"
      fill="none"
      opacity="0.7073170731707317"
      class="thread"
      style="animation-delay: 2s"
    >
      <title>2026-01-12: 3665 stars, TypeScript, Unknown, Python, Shell, C</title>
    </path>

    <path
      d="M 20,268.48121696011333 L 35.2,268.29066036618747 L 50.400000000000006,270.7870662291784 L 65.6,274.1620941183692 L 80.80000000000001,275.9709495084386 L 96,274.9033381144405 L 111.2,271.73261369134 L 126.4,268.7555779146805 L 141.60000000000002,268.1287287475671 L 156.79999999999998,270.3061416709372 L 172,273.7105475868173 L 187.2,275.8758711860901 L 202.4,275.23360060608155 L 217.6,272.24898225343884 L 232.8,269.08400673928674 L 248,268.03131135843313 L 263.20000000000005,269.85344504038 L 278.40000000000003,273.2304950032821 L 293.59999999999997,275.716201976962 L 308.8,275.5099755662207 L 324,272.7612015588236 L 339.2,269.4610302104924 L 354.4,268.0000316468439 L 369.6,269.43652046769216 L 384.8,272.7299363813302 L 400,275.49460274755734 L 415.2,275.7278572422666 L 430.40000000000003,273.26073553971173 L 445.6,269.88036528142294 L 460.79999999999995,268.0354108851052 L 476,269.0623159463897 L 491.2,272.2172134649787 L 506.40000000000003,275.2147664200734 L 521.6,275.8836146645628 L 536.8000000000001,273.73925952759583 L 552,270.335023787924 L 567.1999999999999,268.1368594828351 L 582.4,268.73706754591547 L 597.6,271.7008707146209 L 612.8000000000001,274.88135643033587 L 628,275.9746521560227 L 643.1999999999999,274.18879898275594 L 658.4,270.81742890540403 L 673.6,268.3026868124107 L 688.8,268.46619548835673 L 704,271.1895129147108 L 719.2,274.4999290122506 L 734.4,275.9994525887488 L 749.6,274.601862388922 L 764.8,271.3195414156255 L 780,268.53012938305653"
      stroke="url(#thread-21)"
      stroke-width="6.996"
      stroke-linecap="round"
      fill="none"
      opacity="0.6926829268292682"
      class="thread"
      style="animation-delay: 2.1s"
    >
      <title>2026-01-11: 3498 stars, TypeScript, Unknown, Shell, Python</title>
    </path>

    <path
      d="M 20,280.0000391737972 L 35.2,281.7555005424553 L 50.400000000000006,285.4646520907556 L 65.6,287.8989196569355 L 80.80000000000001,286.9394323173774 L 96,283.4213611328202 L 111.2,280.4069572886887 L 126.4,280.52006244730063 L 141.60000000000002,283.6622259554806 L 156.79999999999998,287.0983997079034 L 172,287.83761888473504 L 187.2,285.2364414742056 L 202.4,281.5590225178215 L 217.6,280.0063150286777 L 232.8,281.92984946190535 L 248,285.65531472789013 L 263.20000000000005,287.93993663914597 L 278.40000000000003,286.7951010406494 L 293.59999999999997,283.21731254663376 L 308.8,280.3208023600068 L 324,280.62679341438275 L 339.2,283.8689404825516 L 354.4,287.22516630058465 L 369.6,287.77409550378235 L 384.8,285.0379210737463 L 400,281.39830414021327 L 415.2,280.023293524403 L 430.40000000000003,282.1097461593757 L 445.6,285.84154130180366 L 460.79999999999995,287.97039502018913 L 476,286.64327919749525 L 491.2,283.01536147759435 L 506.40000000000003,280.24450728036663 L 521.6,280.7425642078008 L 536.8000000000001,284.0760062348581 L 552,287.3432897987735 L 567.1999999999999,287.7004579578464 L 582.4,284.8366191578301 L 597.6,281.2445580242067 L 612.8000000000001,280.05092916045334 L 628,282.2947085313063 L 643.1999999999999,286.0228327455565 L 658.4,287.9902131749205 L 673.6,286.48437365392243 L 688.8,282.8160491325762 L 704,280.1782765122739 L 719.2,280.86706457443483 L 734.4,284.28286829873156 L 749.6,287.4524536443576 L 764.8,287.6169035875319 L 780,284.63307519367174"
      stroke="url(#thread-22)"
      stroke-width="7.724"
      stroke-linecap="round"
      fill="none"
      opacity="0.6780487804878048"
      class="thread"
      style="animation-delay: 2.2s"
    >
      <title>2026-01-10: 3862 stars, TypeScript, Unknown, Shell, Python</title>
    </path>

    <path
      d="M 20,292.49819130124627 L 35.2,295.6666705798347 L 50.400000000000006,299.1320948893212 L 65.6,299.8073064020376 L 80.80000000000001,297.0907959460457 L 96,293.40255477471095 L 111.2,292.0282361257176 L 126.4,294.1921456528743 L 141.60000000000002,297.9665741816247 L 156.79999999999998,299.98908885039754 L 172,298.4579414651308 L 187.2,294.7371478615766 L 202.4,292.14136046682887 L 217.6,292.98302493226737 L 232.8,296.51234821360725 L 248,299.5852483684054 L 263.20000000000005,299.4642459657713 L 278.40000000000003,296.257135457725 L 293.59999999999997,292.82095697121684 L 308.8,292.2168148226358 L 324,294.98290635708344 L 339.2,298.6550712380491 L 354.4,299.9619777195969 L 369.6,297.7393739773555 L 384.8,293.9672566662458 L 400,292.00599970988713 L 415.2,293.6027801417863 L 430.40000000000003,297.3351132186147 L 445.6,299.8780666248537 L 460.79999999999995,298.9662616327165 L 476,295.4119756626268 L 491.2,292.38152855723587 L 506.40000000000003,292.57458063725295 L 521.6,295.8191523161262 L 536.8000000000001,299.2248313495471 L 552,299.75768372321073 L 567.1999999999999,296.9430202708167 L 582.4,293.288271405871 L 597.6,292.0492538939259 L 612.8000000000001,294.3297409728351 L 628,298.098170874743 L 643.1999999999999,299.99745458811157 L 658.4,298.33562366721907 L 673.6,294.5931127940899 L 688.8,292.1039211287939 L 704,293.0855339913967 L 719.2,296.66348593066095 L 734.4,299.6503743805913 L 749.6,299.38534305489355 L 764.8,296.1044939308826 L 780,292.7305568534615"
      stroke="url(#thread-23)"
      stroke-width="7.822"
      stroke-linecap="round"
      fill="none"
      opacity="0.6634146341463414"
      class="thread"
      style="animation-delay: 2.3000000000000003s"
    >
      <title>2026-01-09: 3911 stars, TypeScript, Unknown, Python, Shell</title>
    </path>

    <path
      d="M 20,305.8537083279983 L 35.2,309.4878923429229 L 50.400000000000006,311.88329076275625 L 65.6,311.0455489078009 L 80.80000000000001,307.67215174547397 L 96,304.5717136429974 L 111.2,304.325589412827 L 126.4,307.138696535981 L 141.60000000000002,310.6689054906647 L 156.79999999999998,311.9770439493065 L 172,309.97398534528463 L 187.2,306.32743107956975 L 202.4,304.0734199607308 L 217.6,305.08859079161846 L 232.8,308.5277352425829 L 248,311.5274992372641 L 263.20000000000005,311.59034695396105 L 278.40000000000003,308.6639528017135 L 293.59999999999997,305.1847665267728 L 308.8,304.04948012472335 L 324,306.2033074397329 L 339.2,309.85302044368575 L 354.4,311.95995043382305 L 369.6,310.7699150366266 L 384.8,307.27371087438416 L 400,304.3821986516922 L 415.2,304.5027862072555 L 430.40000000000003,307.53507506299223 L 445.6,310.9544499317079 L 460.79999999999995,311.9140164451843 L 476,309.6148611739111 L 491.2,305.9712089235194 L 506.40000000000003,304.016682350095 L 521.6,305.3785761809062 L 536.8000000000001,308.9230083392844 L 552,311.69896457916406 L 567.1999999999999,311.3952463659714 L 582.4,308.26472263156126 L 597.6,304.91379680674953 L 612.8000000000001,304.13237413013815 L 628,306.57104949192075 L 643.1999999999999,310.1994368069416 L 658.4,311.99662265989934 L 673.6,310.466310657486 L 688.8,306.8826040462181 L 704,304.22921609553225 L 719.2,304.71529774778867 L 734.4,307.9361483862272 L 749.6,311.2101604376815 L 764.8,311.8114653359288 L 780,309.2394301892483"
      stroke="url(#thread-24)"
      stroke-width="7.54"
      stroke-linecap="round"
      fill="none"
      opacity="0.6487804878048781"
      class="thread"
      style="animation-delay: 2.4000000000000004s"
    >
      <title>2026-01-08: 3770 stars, TypeScript, Unknown, Python, Rust, JavaScript</title>
    </path>

    <path
      d="M 20,319.7347124105952 L 35.2,322.94999796267973 L 50.400000000000006,323.9524805827873 L 65.6,321.990194842774 L 80.80000000000001,318.53505756895987 L 96,316.17877831050464 L 111.2,316.68880969538577 L 126.4,319.68257554621493 L 141.60000000000002,322.91444249775765 L 156.79999999999998,323.9601767855821 L 172,322.03536976688883 L 187.2,318.5838253589474 L 202.4,316.1945580907048 L 217.6,316.6597650020671 L 232.8,319.6304928969775 L 248,322.87838925481515 L 263.20000000000005,323.96719660208265 L 278.40000000000003,322.08019705596394 L 293.59999999999997,318.6328350273079 L 308.8,316.2109878289473 L 324,316.6312908108484 L 339.2,319.57847335844286 L 354.4,322.8418443916378 L 369.6,323.97353883332545 L 384.8,322.12466905363317 L 400,318.6820782033373 L 415.2,316.2280647190823 L 430.40000000000003,316.60339198503584 L 445.6,319.52652581539184 L 460.79999999999995,322.8048141499783 L 476,323.97920239607635 L 491.2,322.1687781642128 L 506.40000000000003,318.7315464764491 L 521.6,316.24578584442816 L 536.8000000000001,316.5760732896651 L 552,319.47465914030875 L 567.1999999999999,322.76730485449076 L 582.4,323.9841863230159 L 597.6,322.2125168539995 L 612.8000000000001,318.7812313976109 L 628,316.2641481782701 L 643.1999999999999,316.54933939068724 L 658.4,319.42288219186577 L 673.6,322.7293229116501 L 688.8,323.98848976290435 L 704,322.25587765255625 L 719.2,318.8311244807874 L 734.4,316.28314858437653 L 749.6,316.5231948541719 L 764.8,319.3712038134101 L 780,322.69087480865807"
      stroke="url(#thread-25)"
      stroke-width="7.128"
      stroke-linecap="round"
      fill="none"
      opacity="0.6341463414634146"
      class="thread"
      style="animation-delay: 2.5s"
    >
      <title>2026-01-07: 3564 stars, TypeScript, Python, Unknown, Shell, Rust</title>
    </path>

    <path
      d="M 20,333.68066814730656 L 35.2,335.988586819075 L 50.400000000000006,334.2079613765712 L 65.6,330.16404121335376 L 80.80000000000001,328.0020904873541 L 96,329.9382402036339 L 111.2,333.9878191275123 L 126.4,335.9997625271593 L 141.60000000000002,333.9117060319322 L 156.79999999999998,329.8640345653836 L 172,328.00585759955015 L 187.2,330.24191955684273 L 202.4,334.2801209119571 L 217.6,335.9810596331411 L 232.8,333.6011700635119 L 248,329.5799837800158 L 263.20000000000005,328.03946133097384 L 278.40000000000003,330.55873193624217 L 293.59999999999997,334.5553899788315 L 308.8,335.932617849397 L 324,333.27867320418835 L 339.2,329.3140107433213 L 354.4,328.1026506585923 L 369.6,330.886310723574 L 384.8,334.8115700423274 L 400,335.8547990406056 L 415.2,332.9466245358192 L 430.40000000000003,329.06810229888873 L 445.6,328.1949535521877 L 460.79999999999995,331.2222088745006 L 476,335.0467474132864 L 491.2,335.7481845205845 L 506.40000000000003,332.6075044931737 L 521.6,328.8440954059163 L 536.8000000000001,328.31568050046735 L 552,331.5639171982562 L 567.1999999999999,335.2591652946382 L 582.4,335.61357070982126 L 597.6,332.2638463348516 L 612.8000000000001,328.6436634169537 L 628,328.46392966177774 L 643.1999999999999,331.90888310153764 L 658.4,335.4472369048392 L 673.6,335.4519631861376 L 688.8,331.9182172196035 L 704,328.4683035778015 L 719.2,328.6385936009469 L 734.4,332.25452965661674 L 749.6,335.6095573312803 L 764.8,335.2645691729284 L 780,331.57319902941356"
      stroke="url(#thread-26)"
      stroke-width="8"
      stroke-linecap="round"
      fill="none"
      opacity="0.6195121951219512"
      class="thread"
      style="animation-delay: 2.6s"
    >
      <title>2026-01-06: 4224 stars, TypeScript, Python, Rust, JavaScript, Go</title>
    </path>

    <path
      d="M 20,347.21513770620646 L 35.2,347.81076002875824 L 50.400000000000006,345.2429563236305 L 65.6,341.6433373491684 L 80.80000000000001,340.0000546204526 L 96,341.6772463449865 L 111.2,345.28262544230324 L 126.4,347.82325874683175 L 141.60000000000002,347.1900904634859 L 156.79999999999998,343.90873254692093 L 172,340.7031384765104 L 187.2,340.2343678938965 L 202.4,342.8915612988379 L 217.6,346.46890286605714 L 232.8,347.9967342234081 L 248,346.206756804391 L 263.20000000000005,342.5848844722628 L 278.40000000000003,340.1377419207647 L 293.59999999999997,340.89677547095357 L 308.8,344.2318886406502 L 324,347.37450410494944 L 339.2,347.71584264927765 L 354.4,344.97254892529776 L 369.6,341.421913211725 L 384.8,340.0114245517843 L 400,341.9119718245787 L 415.2,345.54585381979285 L 430.40000000000003,347.8964762626825 L 445.6,347.0125170650111 L 460.79999999999995,343.62777723031013 L 476,340.5520306643655 L 491.2,340.33854670658127 L 506.40000000000003,343.16454478390915 L 521.6,346.6840792570209 L 536.8000000000001,347.9754791538441 L 552,345.9667147441088 L 567.1999999999999,342.32532152448164 L 582.4,340.0741290620446 L 597.6,341.08191964044875 L 612.8000000000001,344.51209611841136 L 628,347.51716627180065 L 643.1999999999999,347.6025313679507 L 658.4,344.69732728396247 L 673.6,341.2132509374202 L 688.8,340.04253844760154 L 704,342.1570333137753 L 719.2,345.80143002088164 L 734.4,347.95040571693124 L 749.6,346.8200313173238 L 764.8,343.34866446456516 L 780,340.4179907465087"
      stroke="url(#thread-27)"
      stroke-width="7.528"
      stroke-linecap="round"
      fill="none"
      opacity="0.6048780487804878"
      class="thread"
      style="animation-delay: 2.7s"
    >
      <title>2026-01-05: 3764 stars, Go, TypeScript, Python, Rust, JavaScript</title>
    </path>

    <path
      d="M 20,359.9624294227795 L 35.2,358.6556154107161 L 50.400000000000006,354.9874998495539 L 65.6,352.2196720951515 L 80.80000000000001,352.81320988404264 L 96,356.240355433718 L 111.2,359.45378341883844 L 126.4,359.5962004043066 L 141.60000000000002,356.54097305042774 L 156.79999999999998,353.0047270607776 L 172,352.13179692733894 L 187.2,354.6983685646934 L 202.4,358.42231574375575 L 217.6,359.99240514090576 L 232.8,358.01255564034886 L 248,354.24319598255045 L 263.20000000000005,352.0359390415563 L 278.40000000000003,353.3534181162231 L 293.59999999999997,357.0241663716461 L 308.8,359.7842535312854 L 324,359.1794845865546 L 339.2,355.74760376061107 L 354.4,352.5401468586479 L 369.6,352.4090979897765 L 384.8,355.4709822712353 L 400,359.0032548391124 L 415.2,359.86511426082444 L 430.40000000000003,357.29021839986257 L 445.6,353.5680951602759 L 460.79999999999995,352.0083560679303 L 476,353.9978790269394 L 491.2,357.7676339186651 L 506.40000000000003,359.96565643772095 L 521.6,358.6375242840038 L 536.8000000000001,354.96417672278733 L 552,352.2118552631687 L 567.1999999999999,352.8278498628692 L 582.4,356.2644347493091 L 597.6,359.4658913936626 L 612.8000000000001,359.58557095394013 L 628,356.5170575952514 L 643.1999999999999,352.98879057806465 L 658.4,352.13800970739777 L 673.6,354.72120637117644 L 688.8,358.44147181552245 L 704,359.99084641595675 L 719.2,357.9916680948393 L 734.4,354.2215522582001 L 749.6,352.03278415390105 L 764.8,353.37155730621674 L 780,357.0474707611166"
      stroke="url(#thread-28)"
      stroke-width="7.814"
      stroke-linecap="round"
      fill="none"
      opacity="0.5902439024390244"
      class="thread"
      style="animation-delay: 2.8000000000000003s"
    >
      <title>2026-01-04: 3907 stars, Python, Jupyter Notebook, TypeScript, Go, Rust</title>
    </path>

    <path
      d="M 20,371.7395802220987 L 35.2,368.9130770280051 L 50.400000000000006,365.28116935216906 L 65.6,364.04748036073664 L 80.80000000000001,366.30021905722066 L 96,370.05229586791154 L 111.2,371.9940891656236 L 126.4,370.4127872415666 L 141.60000000000002,366.7032205619126 L 156.79999999999998,364.13751353399994 L 172,364.9788179793496 L 187.2,368.48503837916985 L 202.4,371.56341745518193 L 217.6,371.4985870311227 L 232.8,368.34773254971947 L 248,364.8901510941378 L 263.20000000000005,364.17569663606184 L 278.40000000000003,366.8345732052571 L 293.59999999999997,370.5214462466441 L 308.8,371.9842088951144 L 324,369.9325914837405 L 339.2,366.1762790744184 L 354.4,364.0286294195627 L 369.6,365.384035439136 L 384.8,369.0469243071194 L 400,371.78634505232986 L 415.2,371.18591693371314 L 430.40000000000003,367.77526394011784 L 445.6,364.56284551412926 L 460.79999999999995,364.3822628943808 L 476,367.39280390304884 L 491.2,370.93893878034083 L 506.40000000000003,371.892702595112 L 521.6,369.41280197628856 L 536.8000000000001,365.6867008632929 L 552,364.00110831109765 L 567.1999999999999,365.8428471772395 L 582.4,369.5873614916372 L 597.6,371.93170033310344 L 612.8000000000001,370.8079757231565 L 628,367.2073995851462 L 643.1999999999999,364.3059582482258 L 658.4,364.66294713281974 L 673.6,367.96347446225917 L 688.8,371.2962201378974 L 704,371.72144499059675 L 719.2,368.86406784800465 L 734.4,365.24451610681064 L 749.6,364.0555140442043 L 764.8,366.3458533400249 L 780,370.0952777869787"
      stroke="url(#thread-29)"
      stroke-width="7.78"
      stroke-linecap="round"
      fill="none"
      opacity="0.575609756097561"
      class="thread"
      style="animation-delay: 2.9000000000000004s"
    >
      <title>2026-01-03: 3890 stars, Go, Python, Jupyter Notebook, TypeScript, Rust, JavaScript</title>
    </path>

    <path
      d="M 20,382.6011513606285 L 35.2,380.1878196096873 L 50.400000000000006,377.6953722991547 L 65.6,376.173707062474 L 80.80000000000001,376.26379742158616 L 96,377.9276944680314 L 111.2,380.46451214336673 L 126.4,382.80566261323474 L 141.60000000000002,383.96497925840043 L 156.79999999999998,383.45412124332137 L 172,381.4882781203667 L 187.2,378.89552518476506 L 202.4,376.7680119715088 L 217.6,376.0019143308471 L 232.8,376.91993681766377 L 248,379.13537932709266 L 263.20000000000005,381.7150274084811 L 278.40000000000003,383.5722517058859 L 293.59999999999997,383.92473060858373 L 308.8,382.6239888552452 L 324,380.21794000969174 L 339.2,377.7200879394759 L 354.4,376.1826069337508 L 369.6,376.25313261656896 L 384.8,377.9019573398791 L 400,380.43454398442066 L 415.2,382.7840869598172 L 430.40000000000003,383.9608844580835 L 445.6,383.4692321555009 L 460.79999999999995,381.51622955093427 L 476,378.9245431071724 L 491.2,376.785873119116 L 506.40000000000003,376.00109502340445 L 521.6,376.90078217337765 L 536.8000000000001,379.105957887922 L 552,381.68773241508825 L 567.1999999999999,383.5585806727206 L 582.4,383.93044220717593 L 597.6,382.6466771796326 L 612.8000000000001,380.2480480201004 L 628,377.7449331897244 L 643.1999999999999,376.1917238186776 L 658.4,376.24268081591185 L 673.6,377.87633948262396 L 688.8,380.40455112223475 L 704,382.7623530348089 L 719.2,383.9565644868243 L 734.4,383.48414584650874 L 749.6,381.54409478589565 L 764.8,378.95362216785446 L 780,376.8039169855038"
      stroke="url(#thread-30)"
      stroke-width="5.26"
      stroke-linecap="round"
      fill="none"
      opacity="0.5609756097560976"
      class="thread"
      style="animation-delay: 3s"
    >
      <title>2026-01-02: 2630 stars, TypeScript, Rust, Python, JavaScript, Jupyter Notebook, Shell</title>
    </path>

    <path
      d="M 20,392.82586992775117 L 35.2,389.35811712035456 L 50.400000000000006,388.0128117046012 L 65.6,389.8707510135705 L 80.80000000000001,393.43929566096153 L 96,395.85153268209575 L 111.2,395.16950857684736 L 126.4,391.9411508458542 L 141.60000000000002,388.7600716050165 L 156.79999999999998,388.18190017058635 L 172,390.67113043151824 L 187.2,394.22795372285606 L 202.4,395.99487383407546 L 217.6,394.55237477898606 L 232.8,391.0593377405921 L 248,388.3220140512946 L 263.20000000000005,388.53952675670433 L 278.40000000000003,391.5371295507669 L 293.59999999999997,394.9065952253579 L 308.8,395.94094774934183 L 324,393.8092044801939 L 339.2,390.22397462406593 L 354.4,388.0655757814117 L 369.6,389.0680318292973 L 384.8,392.4259852552968 L 400,395.44170878876434 L 415.2,395.6924173029102 L 430.40000000000003,392.9766954980588 L 445.6,389.4763118036679 L 460.79999999999995,388.00341974067925 L 476,389.7413177593563 L 491.2,393.2938057688086 L 506.40000000000003,395.8068704561834 L 521.6,395.26155495104393 L 536.8000000000001,392.09595720255487 L 552,388.8532689381156 L 567.1999999999999,388.13861520009544 L 582.4,390.52613762583775 L 597.6,394.0977380346667 L 612.8000000000001,395.9840485109508 L 628,394.6696367162376 L 643.1999999999999,391.2104805315786 L 658.4,388.38561194131415 L 673.6,388.4644861954614 L 688.8,391.38373695167695 L 704,394.79808380377057 L 719.2,395.9644938844547 L 734.4,393.9458915752726 L 749.6,390.3639904044421 L 764.8,388.09643375870326 L 780,388.9649411871064"
      stroke="url(#thread-31)"
      stroke-width="7.396"
      stroke-linecap="round"
      fill="none"
      opacity="0.5463414634146342"
      class="thread"
      style="animation-delay: 3.1s"
    >
      <title>2026-01-01: 3698 stars, Rust, Python, JavaScript, TypeScript, Jupyter Notebook, Go, Shell</title>
    </path>

    <path
      d="M 20,402.84838673333974 L 35.2,400.2399019776898 L 50.400000000000006,400.65979681598856 L 65.6,403.76988831992855 L 80.80000000000001,407.06531156578666 L 96,407.89193561017606 L 111.2,405.5839981849211 L 126.4,402.0003100341253 L 141.60000000000002,400.02717039854036 L 156.79999999999998,401.2537441810391 L 172,404.692149951044 L 187.2,407.5730987677308 L 202.4,407.576277023343 L 217.6,404.69912495364474 L 232.8,401.25889826975407 L 248,400.02635247491486 L 263.20000000000005,401.9941788531179 L 278.40000000000003,405.57749179424746 L 293.59999999999997,407.89029425108237 L 308.8,407.0698571874232 L 324,403.77695988268306 L 339.2,400.6636988895249 L 354.4,400.2374918354616 L 369.6,402.8416055017483 L 384.8,406.37868906388167 L 400,407.99997857525716 L 415.2,406.39968890926366 L 430.40000000000003,402.86669193576904 L 445.6,400.24646026653267 L 460.79999999999995,400.6493261512596 L 476,403.75082176566275 L 491.2,407.05300530778635 L 506.40000000000003,407.8963010976601 L 521.6,405.60151945816295 L 536.8000000000001,402.0168754752812 L 552,400.0294382160763 L 567.1999999999999,401.23988787673403 L 582.4,404.67332938002824 L 597.6,407.5644720011165 L 612.8000000000001,407.5847920512679 L 628,404.7179237802119 L 643.1999999999999,401.2728403368108 L 658.4,400.0242088540871 L 673.6,401.97767601470866 L 688.8,405.5599211095944 L 704,407.88580713393577 L 719.2,407.08206755793134 L 734.4,403.7960335193277 L 749.6,400.6742739023622 L 764.8,400.231051118583 L 780,402.8233364027841"
      stroke="url(#thread-32)"
      stroke-width="7.406"
      stroke-linecap="round"
      fill="none"
      opacity="0.5317073170731708"
      class="thread"
      style="animation-delay: 3.2s"
    >
      <title>2025-12-31: 3703 stars, Go, Python, TypeScript, Rust, Shell</title>
    </path>

    <path
      d="M 20,413.1528586305235 L 35.2,412.18547584298705 L 50.400000000000006,415.2815192194727 L 65.6,419.1429250584229 L 80.80000000000001,419.65632643121256 L 96,416.27482194595956 L 111.2,412.6005630725592 L 126.4,412.5475582233365 L 141.60000000000002,416.1722708737568 L 156.79999999999998,419.6134717814515 L 172,419.205417795135 L 187.2,415.38278888433484 L 202.4,412.2176448111934 L 217.6,413.0816588723806 L 232.8,417.0544391139337 L 248,419.9039768991376 L 263.20000000000005,418.59479888579847 L 278.40000000000003,414.52150843040164 L 293.59999999999997,412.02318278841335 L 308.8,413.7611661700252 L 324,417.88406981617186 L 339.2,419.99996596393834 L 354.4,417.85489385353213 L 369.6,413.733893971881 L 384.8,412.0268660946221 L 400,414.55222359486686 L 415.2,418.6198265449028 L 430.40000000000003,419.89665631076946 L 445.6,417.0225685431155 L 460.79999999999995,413.0591884806514 L 476,412.2285112087069 L 491.2,415.41541662887397 L 506.40000000000003,419.22505014499995 L 521.6,419.59919535378793 L 536.8000000000001,416.1392936492484 L 552,412.5310092276149 L 567.1999999999999,412.6180711419971 L 582.4,416.3077365898255 L 597.6,419.6695852879749 L 612.8000000000001,419.1224041159493 L 628,415.24907843489683 L 643.1999999999999,412.1756727986969 L 658.4,413.17613603051467 L 673.6,417.184723543352 L 688.8,419.93128296433963 L 704,418.4900387700052 L 719.2,414.3962779652131 L 734.4,412.0108838682295 L 749.6,413.8749002334547 L 764.8,418.00268152376555 L 780,419.9971040602953"
      stroke="url(#thread-33)"
      stroke-width="8"
      stroke-linecap="round"
      fill="none"
      opacity="0.5170731707317073"
      class="thread"
      style="animation-delay: 3.3000000000000003s"
    >
      <title>2025-12-30: 4315 stars, Go, Shell, Rust, Python, Swift, TypeScript</title>
    </path>

    <path
      d="M 20,424.1544100324818 L 35.2,424.5796809297244 L 50.400000000000006,427.19805819849114 L 65.6,430.3306400307341 L 80.80000000000001,431.9688169855046 L 96,431.06219106092794 L 111.2,428.19209021235713 L 126.4,425.1988212440957 L 141.60000000000002,424.0016662789809 L 156.79999999999998,425.36824030489856 L 172,428.4222969419581 L 187.2,431.20557705347886 L 202.4,431.9334432354946 L 217.6,430.1391881637478 L 232.8,426.97328702758097 L 248,424.46571358402826 L 263.20000000000005,424.2243223002102 L 278.40000000000003,426.40389311089143 L 293.59999999999997,429.6068866246059 L 308.8,431.77954547587143 L 324,431.5287622171204 L 339.2,429.0153389113586 L 354.4,425.8508809535643 L 369.6,424.0644367357344 L 384.8,424.8014731327413 L 400,427.58940288441727 L 415.2,430.64060724054156 L 430.40000000000003,431.99865594512084 L 445.6,430.7927690487825 L 460.79999999999995,427.79616044805454 L 476,424.9302536359478 L 491.2,424.0326662033027 L 506.40000000000003,425.6789306303026 L 521.6,428.81346323312 L 536.8000000000001,431.4264037379778 L 552,431.8423363863237 L 567.1999999999999,429.79456543355894 L 582.4,426.5961202876588 L 597.6,424.29784190361016 L 612.8000000000001,424.37338489200084 L 628,426.77431113762594 L 643.1999999999999,429.9611482875697 L 658.4,431.8904984263306 L 673.6,431.32526349513705 L 688.8,428.627871765603 L 704,425.52788906681974 L 719.2,424.01302229648553 L 734.4,425.05460304611836 L 749.6,427.9847704139888 L 764.8,430.924702982541 L 780,431.98931789386967"
      stroke="url(#thread-34)"
      stroke-width="6.556"
      stroke-linecap="round"
      fill="none"
      opacity="0.5024390243902439"
      class="thread"
      style="animation-delay: 3.4000000000000004s"
    >
      <title>2025-12-29: 3278 stars, Shell, Go, JavaScript, TypeScript, Rust, Python</title>
    </path>

    <path
      d="M 20,436.09749597812737 L 35.2,438.4579308070798 L 50.400000000000006,442.1180274447615 L 65.6,443.993042458068 L 80.80000000000001,442.5027060285136 L 96,438.90307939416886 L 111.2,436.22794163824284 L 126.4,436.73190908432787 L 141.60000000000002,439.9902360429785 L 156.79999999999998,443.2567921019193 L 172,443.7785113317032 L 187.2,441.11568677174586 L 202.4,437.5125571370229 L 217.6,436.0058538528488 L 232.8,437.8654322049126 L 248,441.5240324518143 L 263.20000000000005,443.8981723243173 L 278.40000000000003,442.98691766522563 L 293.59999999999997,439.5582773835335 L 308.8,436.501922611019 L 324,436.393760829656 L 339.2,439.3249512021117 L 354.4,442.82507528109113 L 369.6,443.9442151172907 L 384.8,441.73915538002757 L 400,438.0683288423866 L 415.2,436.0255221381617 L 430.40000000000003,437.3324205641517 L 445.6,440.88756513268874 L 460.79999999999995,443.6946664156124 L 476,443.38788872448504 L 491.2,440.2257854697236 L 506.40000000000003,436.8733893582518 L 521.6,436.1561126438231 L 536.8000000000001,438.6784788823932 L 552,442.3146281690055 L 567.1999999999999,443.9999999895505 L 582.4,442.3141565331133 L 597.6,438.6779331071411 L 612.8000000000001,436.15595271067923 L 628,436.873750059481 L 643.1999999999999,440.22636280495146 L 658.4,443.38819611337533 L 673.6,443.6944447896337 L 688.8,440.8870012790628 L 704,437.3319897008692 L 719.2,436.0255873984437 L 734.4,438.068835224618 L 749.6,441.73967610332863 L 764.8,443.9443113140734 L 780,442.8246658763394"
      stroke="url(#thread-35)"
      stroke-width="7.59"
      stroke-linecap="round"
      fill="none"
      opacity="0.48780487804878053"
      class="thread"
      style="animation-delay: 3.5s"
    >
      <title>2025-12-28: 3795 stars, Shell, Rust, Python, JavaScript, TypeScript</title>
    </path>

    <path
      d="M 20,448.9960510129133 L 35.2,453.93029488989924 L 50.400000000000006,455.8375862654826 L 65.6,451.7270451293418 L 80.80000000000001,448.0445325979661 L 96,450.56470547463596 L 111.2,455.3356061424501 L 126.4,454.8758441745101 L 141.60000000000002,449.9063859092692 L 156.79999999999998,448.21998581408855 L 172,452.4611377500792 L 187.2,455.9791659429581 L 202.4,453.257346344932 L 217.6,448.56384475995316 L 232.8,449.2586798242053 L 248,454.2522601250986 L 263.20000000000005,455.7140047178052 L 278.40000000000003,451.3517086783738 L 293.59999999999997,448.00601743228384 L 308.8,450.9234083645535 L 324,455.52903447837826 L 339.2,454.6006772626297 L 354.4,449.5941211216026 L 369.6,448.36029479877277 L 384.8,452.8339978388777 L 400,455.999884204046 L 415.2,452.8934338603969 L 430.40000000000003,448.38596345876726 L 445.6,449.5457706352365 L 460.79999999999995,454.5541274574411 L 476,455.55728148049934 L 491.2,450.9821572146105 L 506.40000000000003,448.00314232112436 L 521.6,451.2917181528327 L 536.8000000000001,455.69097169508143 L 552,454.30230336928025 L 567.1999999999999,449.3033250441638 L 582.4,448.5330824659799 L 597.6,453.1994157999388 L 612.8000000000001,455.98490974772704 L 628,452.52154887449075 L 643.1999999999999,448.24033178741666 L 658.4,449.8547616090473 L 673.6,454.83320319259997 L 688.8,455.36881506360555 L 704,450.6216884075067 L 719.2,448.03593292036305 L 734.4,451.6663482500323 L 749.6,455.8199727558989 L 764.8,453.9833850153033 L 780,449.03659257762644"
      stroke="url(#thread-36)"
      stroke-width="8"
      stroke-linecap="round"
      fill="none"
      opacity="0.4731707317073171"
      class="thread"
      style="animation-delay: 3.6s"
    >
      <title>2025-12-27: 5384 stars, Shell, Python, Rust, C, Go</title>
    </path>

    <path
      d="M 20,462.63007752612157 L 35.2,466.27913348717243 L 50.400000000000006,467.9998466676421 L 65.6,466.3363458525777 L 80.80000000000001,462.69609567942797 L 96,460.1590606085507 L 111.2,460.87179032233297 L 126.4,464.2312542366456 L 141.60000000000002,467.39505719462363 L 156.79999999999998,467.68635002199284 L 172,464.858673955432 L 187.2,461.30448593503 L 202.4,460.03093444442976 L 217.6,462.11555348346917 L 232.8,465.79457620969754 L 248,467.9552332510505 L 263.20000000000005,466.76942308102474 L 278.40000000000003,463.24044300246743 L 293.59999999999997,460.3541134140528 L 308.8,460.55251717557076 L 324,463.66778765555085 L 339.2,467.06413832659655 L 354.4,467.867964665895 L 369.6,465.3991605160178 L 384.8,461.7465463369683 L 400,460.000547600559 L 415.2,461.63842927490543 L 430.40000000000003,465.2744027171095 L 445.6,467.8321219487013 L 460.79999999999995,467.14753670989865 L 476,463.7998649404877 L 491.2,460.62152462942436 L 506.40000000000003,460.3016648009164 L 521.6,463.1109143560672 L 536.8000000000001,466.67240676686714 L 552,467.97281340771605 L 567.1999999999999,465.9118785139496 L 582.4,462.2333301058923 L 597.6,460.04953624167666 L 612.8000000000001,461.2081741881407 L 628,464.72893667853305 L 643.1999999999999,467.63295609992076 L 658.4,467.46318247369635 L 673.6,464.36325887662804 L 688.8,460.95598705438107 L 704,460.12421176216066 L 719.2,462.5716863732757 L 734.4,466.22763705040506 L 749.6,467.99881535764877 L 764.8,466.3866522462352 L 780,462.7551762447745"
      stroke="url(#thread-37)"
      stroke-width="7.606"
      stroke-linecap="round"
      fill="none"
      opacity="0.4585365853658537"
      class="thread"
      style="animation-delay: 3.7s"
    >
      <title>2025-12-26: 3803 stars, Python, Shell, Go, TypeScript</title>
    </path>

    <path
      d="M 20,476.5995088386518 L 35.2,479.43506043160573 L 50.400000000000006,479.76501982455864 L 65.6,477.34870895732473 L 80.80000000000001,473.9486265638459 L 96,472.0448512611027 L 111.2,473.02602952099375 L 126.4,476.17647303359195 L 141.60000000000002,479.19819407819216 L 156.79999999999998,479.887097317703 L 172,477.740684872439 L 187.2,474.3245869221068 L 202.4,472.1305641065013 L 217.6,472.7589744288835 L 232.8,475.7514445844714 L 248,478.9252153380594 L 263.20000000000005,479.96528367787676 L 278.40000000000003,478.11300585613475 L 293.59999999999997,474.71946519576113 L 308.8,472.2599686610191 L 324,472.528515355004 L 339.2,475.32922269713777 L 354.4,478.6192065487982 L 369.6,479.9986960643248 L 384.8,478.4614678485527 L 400,475.12880261946316 L 415.2,472.4316037540073 L 430.40000000000003,472.3372545264231 L 445.6,474.91457488716503 L 460.79999999999995,478.28362300657494 L 476,479.9869572013124 L 491.2,478.7821361934712 L 506.40000000000003,475.54797716247236 L 521.6,472.6435313689789 L 536.8000000000001,472.1873515634883 L 552,474.5121831474841 L 567.1999999999999,477.922253950678 L 582.4,479.9301996381316 L 597.6,479.0713900664511 L 612.8000000000001,475.9722557182824 L 628,472.89335852670825 L 643.1999999999999,472.08049909448755 L 658.4,474.1265910816916 L 673.6,477.53917977734847 L 688.8,479.8290642524217 L 704,479.3259633593494 L 719.2,476.39684754846104 L 734.4,473.1782643055402 L 749.6,472.01790364334926 L 764.8,473.76215259998025 L 780,477.13872596601357"
      stroke="url(#thread-38)"
      stroke-width="7.022"
      stroke-linecap="round"
      fill="none"
      opacity="0.44390243902439025"
      class="thread"
      style="animation-delay: 3.8000000000000003s"
    >
      <title>2025-12-25: 3511 stars, Python, TypeScript</title>
    </path>

    <path
      d="M 20,490.4221594788784 L 35.2,491.92456327718736 L 50.400000000000006,491.4485664264678 L 65.6,489.2341223716986 L 80.80000000000001,486.3975483297939 L 96,484.3687817305162 L 111.2,484.17053844650013 L 126.4,485.9027543467997 L 141.60000000000002,488.69220690463567 L 156.79999999999998,491.1327129701693 L 172,491.99399583667093 L 187.2,490.84187660021297 L 202.4,488.25714687611116 L 217.6,485.5427875574119 L 232.8,484.0671267505892 L 248,484.57405570971815 L 263.20000000000005,486.80802789091155 L 278.40000000000003,489.6428818079027 L 293.59999999999997,491.64954715830225 L 308.8,491.8164494684126 L 324,490.0594520801332 L 339.2,487.2642700470393 L 354.4,484.8399747887639 L 369.6,484.0086710271976 L 384.8,485.18942498328335 L 400,487.787010073049 L 415.2,490.49196492091374 L 430.40000000000003,491.94070228196927 L 445.6,491.4029032053033 L 460.79999999999995,489.1496760836656 L 476,486.3168889576529 L 491.2,484.3325702454182 L 506.40000000000003,484.1970293192131 L 521.6,485.9785933373567 L 536.8000000000001,488.77916303100324 L 552,491.1869510219833 L 567.1999999999999,491.9881740208879 L 582.4,490.7789297361517 L 597.6,488.16880693187045 L 612.8000000000001,485.4735873359246 L 628,484.051950582527 L 643.1999999999999,484.62055401084035 L 658.4,486.8927605323116 L 673.6,489.72313445402284 L 688.8,491.68486387151154 L 704,491.78902683890465 L 719.2,489.98311405319436 L 734.4,487.1774991725419 L 749.6,484.78651289026834 L 764.8,484.0154686332625 L 780,485.2530553716722"
      stroke="url(#thread-39)"
      stroke-width="5.776"
      stroke-linecap="round"
      fill="none"
      opacity="0.4292682926829269"
      class="thread"
      style="animation-delay: 3.9000000000000004s"
    >
      <title>2025-12-24: 2888 stars, Python, TypeScript</title>
    </path>

    <path
      d="M 20,503.6517810029105 L 35.2,503.8148092218783 L 50.400000000000006,502.05476460256256 L 65.6,499.25889832967823 L 80.80000000000001,496.8366267530709 L 96,496.009034442109 L 111.2,497.1933166487217 L 126.4,499.792468172403 L 141.60000000000002,502.4962379869394 L 156.79999999999998,503.9416362312689 L 172,503.4000272273 L 187.2,501.14443997961024 L 202.4,498.31193228535864 L 217.6,496.33039169913235 L 232.8,496.1987271198284 L 248,497.98331161133973 L 263.20000000000005,500.7845232624145 L 278.40000000000003,503.19025107951444 L 293.59999999999997,503.98775032173995 L 308.8,502.77499587012056 L 324,500.16334598919036 L 339.2,497.469352217181 L 354.4,496.05107624161894 L 369.6,496.6234812093247 L 384.8,498.8980136483237 L 400,501.72806535389935 L 415.2,503.68698685306686 L 430.40000000000003,503.7872716918274 L 445.6,501.97836555978296 L 460.79999999999995,499.1721510825676 L 476,496.7832612144536 L 491.2,496.01595256483415 L 506.40000000000003,497.2570309572352 L 521.6,499.8808598243236 L 536.8000000000001,502.5647481131198 L 552,503.955728383058 L 567.1999999999999,503.352597449359 L 582.4,501.059397965027 L 597.6,498.2321483269437 L 612.8000000000001,496.2960854656646 L 628,496.2271926309896 L 643.1999999999999,498.0601991976817 L 658.4,500.87107333720684 L 673.6,503.24283312592024 L 688.8,503.97985735098393 L 704,502.7106067856789 L 719.2,500.0749197928559 L 734.4,497.401465192189 L 749.6,496.0379507268181 L 764.8,496.67173387137746 L 780,498.9833199723273"
      stroke="url(#thread-40)"
      stroke-width="5.776"
      stroke-linecap="round"
      fill="none"
      opacity="0.41463414634146345"
      class="thread"
      style="animation-delay: 4s"
    >
      <title>2025-12-23: 2888 stars, Python, TypeScript</title>
    </path>
  </g>

  <!-- Date markers -->
  <g id="dates">
    <text x="785" y="24" class="date-label">02-01</text>
<text x="785" y="108" class="date-label">01-25</text>
<text x="785" y="192" class="date-label">01-18</text>
<text x="785" y="276" class="date-label">01-11</text>
<text x="785" y="360" class="date-label">01-04</text>
<text x="785" y="444" class="date-label">12-28</text>
  </g>

</svg>