<?xml version="1.0" encoding="UTF-8"?>
<svg xmlns="http://www.w3.org/2000/svg" viewBox="0 0 800 200" width="800" height="200">
  <title>The Data Tapestry - GitHub Trends Woven in Time</title>
  <desc>A living data art piece that weaves daily GitHub trending repositories into an evolving tapestry. Each thread represents one day of open source activity.</desc>

  <style>
    .thread {
      animation: breathe 8s ease-in-out infinite alternate;
    }

    @keyframes breathe {
      0% {
        opacity: 0.85;
      }
      100% {
        opacity: 1;
      }
    }

    .date-label {
      font-family: ui-monospace, monospace;
      font-size: 8px;
      fill: #666;
    }

    .title {
      font-family: system-ui, sans-serif;
      font-size: 14px;
      fill: #333;
      font-weight: 600;
    }

    .subtitle {
      font-family: system-ui, sans-serif;
      font-size: 10px;
      fill: #888;
    }

    .empty-state {
      font-family: system-ui, sans-serif;
      font-size: 12px;
      fill: #999;
      text-anchor: middle;
    }
  </style>

  <defs>
    
    <linearGradient id="thread-0" x1="0%" y1="0%" x2="100%" y2="0%">
      <stop offset="0%" stop-color="#3572A5" />
      <stop offset="50%" stop-color="#3178c6" />
      <stop offset="100%" stop-color="#00ADD8" />
    </linearGradient>

    <linearGradient id="thread-1" x1="0%" y1="0%" x2="100%" y2="0%">
      <stop offset="0%" stop-color="#3572A5" />
      <stop offset="50%" stop-color="#00ADD8" />
      <stop offset="100%" stop-color="#DA5B0B" />
    </linearGradient>

    <linearGradient id="thread-2" x1="0%" y1="0%" x2="100%" y2="0%">
      <stop offset="0%" stop-color="#3572A5" />
      <stop offset="50%" stop-color="#3178c6" />
      <stop offset="100%" stop-color="#dea584" />
    </linearGradient>

    <linearGradient id="thread-3" x1="0%" y1="0%" x2="100%" y2="0%">
      <stop offset="0%" stop-color="#dea584" />
      <stop offset="50%" stop-color="#3572A5" />
      <stop offset="100%" stop-color="#3178c6" />
    </linearGradient>

    <linearGradient id="thread-4" x1="0%" y1="0%" x2="100%" y2="0%">
      <stop offset="0%" stop-color="#3572A5" />
      <stop offset="50%" stop-color="#3178c6" />
      <stop offset="100%" stop-color="#dea584" />
    </linearGradient>

    <linearGradient id="thread-5" x1="0%" y1="0%" x2="100%" y2="0%">
      <stop offset="0%" stop-color="#3572A5" />
      <stop offset="50%" stop-color="#dea584" />
      <stop offset="100%" stop-color="#3178c6" />
    </linearGradient>

    <linearGradient id="thread-6" x1="0%" y1="0%" x2="100%" y2="0%">
      <stop offset="0%" stop-color="#3572A5" />
      <stop offset="50%" stop-color="#3178c6" />
      <stop offset="100%" stop-color="#89e051" />
    </linearGradient>

    <linearGradient id="thread-7" x1="0%" y1="0%" x2="100%" y2="0%">
      <stop offset="0%" stop-color="#3572A5" />
      <stop offset="50%" stop-color="#f1e05a" />
      <stop offset="100%" stop-color="#89e051" />
    </linearGradient>

    <linearGradient id="thread-8" x1="0%" y1="0%" x2="100%" y2="0%">
      <stop offset="0%" stop-color="#3572A5" />
      <stop offset="50%" stop-color="#89e051" />
      <stop offset="100%" stop-color="#dea584" />
    </linearGradient>

    <linearGradient id="thread-9" x1="0%" y1="0%" x2="100%" y2="0%">
      <stop offset="0%" stop-color="#3572A5" />
      <stop offset="50%" stop-color="#89e051" />
      <stop offset="100%" stop-color="#00ADD8" />
    </linearGradient>

    <linearGradient id="thread-10" x1="0%" y1="0%" x2="100%" y2="0%">
      <stop offset="0%" stop-color="#3572A5" />
      <stop offset="50%" stop-color="#3178c6" />
      <stop offset="100%" stop-color="#3572A5" />
    </linearGradient>

    <linearGradient id="thread-11" x1="0%" y1="0%" x2="100%" y2="0%">
      <stop offset="0%" stop-color="#3572A5" />
      <stop offset="50%" stop-color="#3178c6" />
      <stop offset="100%" stop-color="#3572A5" />
    </linearGradient>

    <linearGradient id="thread-12" x1="0%" y1="0%" x2="100%" y2="0%">
      <stop offset="0%" stop-color="#3572A5" />
      <stop offset="50%" stop-color="#3178c6" />
      <stop offset="100%" stop-color="#3572A5" />
    </linearGradient>

    <!-- Background pattern -->
    <pattern id="loom" patternUnits="userSpaceOnUse" width="20" height="20">
      <rect width="20" height="20" fill="#fafafa"/>
      <circle cx="10" cy="10" r="0.5" fill="#eee"/>
    </pattern>
  </defs>

  <!-- Background -->
  <rect width="100%" height="100%" fill="url(#loom)"/>

  <!-- Threads -->
  <g id="tapestry">
    
    <path
      d="M 20,20 L 35.2,23.326297280209538 L 50.400000000000006,23.694940794430355 L 65.6,20.778142679373868 L 80.80000000000001,17.16944109561067 L 96,16.077596093858276 L 111.2,18.473446781168924 L 126.4,22.22666738953892 L 141.60000000000002,23.999995452087155 L 156.79999999999998,22.216635517085734 L 172,18.46230310649128 L 187.2,16.075249271715737 L 202.4,17.17797785691249 L 217.6,20.78997236637461 L 232.8,23.699544768727975 L 248,23.31958181211821 L 263.20000000000005,19.987936302498447 L 278.40000000000003,16.66701750710219 L 293.59999999999997,16.309696788385565 L 308.8,19.233694085473026 L 324,22.839069919435385 L 339.2,23.920021406517243 L 354.4,21.515395658899337 L 369.6,17.763320991374826 L 384.8,16.000040931153563 L 400,17.79341651748628 L 415.2,21.548826581571408 L 430.40000000000003,23.927061851598587 L 445.6,22.813459713178748 L 460.79999999999995,19.19820513207152 L 476,16.29588490736964 L 491.2,16.68716385029349 L 506.40000000000003,20.024127285273877 L 521.6,23.33963738937553 L 536.8000000000001,23.68563206246283 L 552,20.75446217949903 L 567.1999999999999,17.15244488918899 L 582.4,16.082396748918395 L 597.6,18.495775684799344 L 612.8000000000001,22.24667028328058 L 628,23.99988630269593 L 643.1999999999999,22.196511377254406 L 658.4,18.440057818214516 L 673.6,16.07066274493688 L 688.8,17.19512830745458 L 704,20.81361007650015 L 719.2,23.70865172456668 L 734.4,23.306060354331777 L 749.6,19.963809346411296 L 764.8,16.653738090889078 L 780,16.31907261053652"
      stroke="url(#thread-0)"
      stroke-width="7.814"
      stroke-linecap="round"
      fill="none"
      opacity="1"
      class="thread"
      style="animation-delay: 0s"
    >
      <title>2026-01-04: 3907 stars, Python, Jupyter Notebook, TypeScript, Go, Rust</title>
    </path>

    <path
      d="M 20,33.917702154416816 L 35.2,35.98266513820622 L 50.400000000000006,34.53460977501291 L 65.6,30.850832769886004 L 80.80000000000001,28.180710044757152 L 96,28.879496133101387 L 111.2,32.33080771777263 L 126.4,35.49032133763126 L 141.60000000000002,35.571101880401095 L 156.79999999999998,32.50189466636848 L 172,28.989977580925647 L 187.2,28.13313281918817 L 202.4,30.687163659624886 L 217.6,34.39921758015432 L 232.8,35.994976234825224 L 248,34.0668572041575 L 263.20000000000005,30.31561043695378 L 278.40000000000003,28.050125397916023 L 293.59999999999997,29.26873491965064 L 308.8,32.8965312559368 L 324,35.73351775974782 L 339.2,35.27725315315109 L 354.4,31.930198069524135 L 369.6,28.64471368137548 L 384.8,28.318851050936786 L 400,31.240046193941662 L 415.2,34.831579306847956 L 430.40000000000003,35.925440707295444 L 445.6,33.55676012990224 L 460.79999999999995,29.81489684484587 L 476,28.000463360619708 L 491.2,29.713930190880163 L 506.40000000000003,33.443887211309715 L 521.6,35.900224158677 L 536.8000000000001,34.91626207227999 L 552,31.35993153184226 L 567.1999999999999,28.36819083110569 L 582.4,28.579986405781966 L 597.6,31.808498195979585 L 612.8000000000001,35.205929372482174 L 628,35.775483156879126 L 643.1999999999999,33.01476910841118 L 658.4,29.358950306696173 L 673.6,28.032741378245134 L 688.8,30.20596105898103 L 704,33.96166169061095 L 719.2,35.987025155909784 L 734.4,34.49552440176254 L 749.6,30.80277832456928 L 764.8,28.16607426076201 L 780,28.91118890265156"
      stroke="url(#thread-1)"
      stroke-width="7.78"
      stroke-linecap="round"
      fill="none"
      opacity="0.9538461538461539"
      class="thread"
      style="animation-delay: 0.1s"
    >
      <title>2026-01-03: 3890 stars, Go, Python, Jupyter Notebook, TypeScript, Rust, JavaScript</title>
    </path>

    <path
      d="M 20,47.36588393923159 L 35.2,47.98374083479805 L 50.400000000000006,46.923520100786675 L 65.6,44.631820240950105 L 80.80000000000001,42.073977713650926 L 96,40.32743668582657 L 111.2,40.12789547457916 L 126.4,41.559407148785134 L 141.60000000000002,44.018973718218454 L 156.79999999999998,46.47054795747454 L 172,47.881449263385186 L 187.2,47.657361384674786 L 202.4,45.89267722286916 L 217.6,43.330737556898875 L 232.8,41.050712398085906 L 248,40.013020451497134 L 263.20000000000005,40.65477038312636 L 278.40000000000003,42.70563682576012 L 293.59999999999997,45.301729972969746 L 308.8,47.34949328699578 L 324,47.986344097318835 L 339.2,46.9440207015594 L 354.4,44.6615826785764 L 369.6,42.10046510813444 L 384.8,40.33949170891938 L 400,40.12044016930187 L 415.2,41.53558192550235 L 430.40000000000003,43.988814514474456 L 445.6,46.446758783702556 L 460.79999999999995,47.87405087193544 L 476,47.66947021200776 L 491.2,45.9191926479579 L 506.40000000000003,43.36049044411802 L 521.6,41.07116989037265 L 536.8000000000001,40.01556520611076 L 552,40.63833046894309 L 567.1999999999999,42.67713725456338 L 582.4,45.273175665476295 L 597.6,47.33291222058162 L 612.8000000000001,47.98872074155114 L 628,46.96435393872367 L 643.1999999999999,44.69130750611922 L 658.4,42.12706048861608 L 673.6,40.3517548269743 L 688.8,40.11320541177145 L 704,41.511896801065156 L 719.2,43.95865594661021 L 734.4,46.42283051499185 L 749.6,47.8664322459157 L 764.8,47.681370434905496 L 780,45.94559896953161"
      stroke="url(#thread-2)"
      stroke-width="5.26"
      stroke-linecap="round"
      fill="none"
      opacity="0.9076923076923077"
      class="thread"
      style="animation-delay: 0.2s"
    >
      <title>2026-01-02: 2630 stars, TypeScript, Rust, Python, JavaScript, Jupyter Notebook, Shell</title>
    </path>

    <path
      d="M 20,59.98997994641622 L 35.2,58.61395355547182 L 50.400000000000006,55.13791775516546 L 65.6,52.35446534908458 L 80.80000000000001,52.49977847254104 L 96,55.45711483456202 L 111.2,58.850596648837225 L 126.4,59.953953693174306 L 141.60000000000002,57.880766172491846 L 156.79999999999998,54.29660052032165 L 172,52.080919372299846 L 187.2,53.01376631384196 L 202.4,56.34570670000864 L 217.6,59.399911729562774 L 232.8,59.72268084353378 L 248,57.054706383232926 L 263.20000000000005,53.53939730818085 L 278.40000000000003,52.00089795673877 L 293.59999999999997,53.67521464874446 L 308.8,57.217227536868 L 324,59.78133885692184 L 339.2,59.30758167204407 L 354.4,56.176565095932794 L 369.6,52.903698882880725 L 384.8,52.118352567248856 L 400,54.45146109774059 L 415.2,58.02864156619789 L 430.40000000000003,59.976043124344976 L 445.6,58.72915381390536 L 460.79999999999995,55.28970500798428 L 476,52.42089609102879 L 491.2,52.42748328437911 L 506.40000000000003,55.304174539908374 L 521.6,58.73988108873053 L 536.8000000000001,59.97441001723016 L 552,58.01596008986057 L 567.1999999999999,54.437919351956765 L 582.4,52.11482977881492 L 597.6,52.91302520493498 L 612.8000000000001,56.19124790718223 L 628,59.315825031541245 L 643.1999999999999,59.776520178556694 L 658.4,57.20321807148442 L 673.6,53.663269381751064 L 688.8,52.000613528837526 L 704,53.55100222429974 L 719.2,57.06887743524013 L 734.4,59.72803322985418 L 749.6,59.39214542672735 L 764.8,56.33106103426565 L 780,53.004007384019836"
      stroke="url(#thread-3)"
      stroke-width="7.396"
      stroke-linecap="round"
      fill="none"
      opacity="0.8615384615384615"
      class="thread"
      style="animation-delay: 0.30000000000000004s"
    >
      <title>2026-01-01: 3698 stars, Rust, Python, JavaScript, TypeScript, Jupyter Notebook, Go, Shell</title>
    </path>

    <path
      d="M 20,71.63718970730272 L 35.2,68.83746674098852 L 50.400000000000006,65.36324880832707 L 65.6,64.01266793400922 L 80.80000000000001,65.87348074977527 L 96,69.44699027326254 L 111.2,71.85509512107643 L 126.4,71.15830979631275 L 141.60000000000002,67.91782457814962 L 156.79999999999998,64.74352337146152 L 172,64.19198553730322 L 187.2,66.7074191554496 L 202.4,70.26389623308548 L 217.6,71.99703330351558 L 232.8,70.51096331581077 L 248,67.00256571280532 L 263.20000000000005,64.297500795204 L 278.40000000000003,64.57442543529157 L 293.59999999999997,67.61030477490027 L 308.8,70.96004430127779 L 324,71.9257667871457 L 339.2,69.72968020360821 L 354.4,66.14051072659711 L 369.6,64.04897225210975 L 384.8,65.13958800228397 L 400,68.5339770245303 L 415.2,71.4983014274156 L 430.40000000000003,71.64509698041252 L 445.6,68.85613467604823 L 460.79999999999995,65.37764226708755 L 476,64.01119443762067 L 491.2,65.857327050915 L 506.40000000000003,69.42916654658691 L 521.6,71.84995658015494 L 536.8000000000001,71.16999501742106 L 552,67.93692229462789 L 567.1999999999999,64.75465229948931 L 582.4,64.1861824481716 L 597.6,66.68935785197004 L 612.8000000000001,70.24812327297353 L 628,71.99625221477922 L 643.1999999999999,70.52580318662172 L 658.4,67.02107452444649 L 673.6,64.30477156728557 L 688.8,64.56460229446307 L 704,67.59129927002479 L 719.2,70.9471634490331 L 734.4,71.92938481444267 L 749.6,69.74688315448834 L 764.8,66.15744335976302 L 780,64.05199703990995"
      stroke="url(#thread-4)"
      stroke-width="7.406"
      stroke-linecap="round"
      fill="none"
      opacity="0.8153846153846154"
      class="thread"
      style="animation-delay: 0.4s"
    >
      <title>2025-12-31: 3703 stars, Go, Python, TypeScript, Rust, Shell</title>
    </path>

    <path
      d="M 20,82.39388857641583 L 35.2,78.2858079390193 L 50.400000000000006,76.00377232953068 L 65.6,77.97872275687718 L 80.80000000000001,82.10684104904053 L 96,83.99064453555036 L 111.2,81.62340942599964 L 126.4,77.52683559292834 L 141.60000000000002,76.06480293615225 L 156.79999999999998,78.79474339361744 L 172,82.80858481150295 L 187.2,83.83057808865651 L 202.4,80.77204373298322 L 217.6,76.8910889192809 L 232.8,76.32190514359579 L 248,79.6708160654605 L 263.20000000000005,83.37039054517015 L 278.40000000000003,83.47965269220295 L 293.59999999999997,79.88221088109913 L 308.8,76.41024406186264 L 324,76.76226880777689 L 339.2,80.56329036089772 L 354.4,83.76426622124055 L 369.6,82.95535324037297 L 384.8,78.99824688425016 L 400,76.1082591654402 L 415.2,77.36395276356994 L 430.40000000000003,81.42769865582804 L 445.6,83.97058694340555 L 460.79999999999995,82.28380300759541 L 476,78.16419534002979 L 491.2,76.00018065871969 L 506.40000000000003,78.09697804563035 L 521.6,82.22097171752918 L 536.8000000000001,83.97907276033835 L 552,81.4984620536936 L 567.1999999999999,77.42161295291555 L 582.4,76.0913935644797 L 597.6,78.92482159344429 L 612.8000000000001,82.9035846336338 L 628,83.78930086533242 L 643.1999999999999,80.63846007294316 L 658.4,76.8074989671693 L 673.6,76.37735319025431 L 688.8,79.80623601659744 L 704,83.44152614497736 L 719.2,83.41072666268923 L 734.4,79.74664675300642 L 749.6,76.35245167566396 L 764.8,76.84381156810537 L 780,80.6973047502695"
      stroke="url(#thread-5)"
      stroke-width="8"
      stroke-linecap="round"
      fill="none"
      opacity="0.7692307692307693"
      class="thread"
      style="animation-delay: 0.5s"
    >
      <title>2025-12-30: 4315 stars, Go, Shell, Rust, Python, Swift, TypeScript</title>
    </path>

    <path
      d="M 20,92.56448003223947 L 35.2,89.4778094101473 L 50.400000000000006,88.0083657599114 L 65.6,89.09835539787649 L 80.80000000000001,92.04887767448304 L 96,94.96805961788337 L 111.2,95.98412365757336 L 126.4,94.44557018970434 L 141.60000000000002,91.33891870090484 L 156.79999999999998,88.65615211271029 L 172,88.11745862306194 L 187.2,90.06824814845366 L 202.4,93.25767570929872 L 217.6,95.64068242030422 L 232.8,95.68928592254078 L 248,93.37232168186897 L 263.20000000000005,90.17542566803513 L 278.40000000000003,88.14844553354908 L 293.59999999999997,88.591079627178 L 308.8,91.21951125491 L 324,94.3483917602439 L 339.2,95.97148499064657 L 354.4,95.04806461853393 L 369.6,92.17022718813637 L 384.8,89.18324019501148 L 400,88.0023577636097 L 415.2,89.38476094374442 L 430.40000000000003,92.44405371209838 L 445.6,95.21861952799775 L 460.79999999999995,95.92940858818204 L 476,94.12066340784617 L 491.2,90.95215022457053 L 506.40000000000003,88.45551763830285 L 521.6,88.23160484556205 L 536.8000000000001,90.42398458395999 L 552,93.62690438587869 L 567.1999999999999,95.78665414979169 L 582.4,95.51840372657678 L 597.6,92.99415511377549 L 612.8000000000001,89.83245488622508 L 628,88.06058318107704 L 643.1999999999999,88.814662987515 L 658.4,91.61117882228803 L 673.6,94.65700654425727 L 688.8,95.99916339176559 L 704,94.77705926389643 L 719.2,91.77430653552683 L 734.4,88.91626831033004 L 749.6,88.03551684631866 L 764.8,89.69678941149759 L 780,92.83487911356413"
      stroke="url(#thread-6)"
      stroke-width="6.556"
      stroke-linecap="round"
      fill="none"
      opacity="0.7230769230769231"
      class="thread"
      style="animation-delay: 0.6000000000000001s"
    >
      <title>2025-12-29: 3278 stars, Shell, Go, JavaScript, TypeScript, Rust, Python</title>
    </path>

    <path
      d="M 20,102.59686708924153 L 35.2,100.13300570908459 L 50.400000000000006,100.92826189482592 L 65.6,104.31239069409318 L 80.80000000000001,107.43323542259414 L 96,107.66053621700462 L 111.2,104.80272309917748 L 126.4,101.26837188579957 L 141.60000000000002,100.03624728584258 L 156.79999999999998,102.14478862064945 L 172,105.81690919556543 L 187.2,107.95773175723617 L 202.4,106.76296286964507 L 217.6,103.23955831700017 L 232.8,100.35705692077534 L 248,100.54484187303592 L 263.20000000000005,103.64464729840644 L 278.40000000000003,107.04394533864162 L 293.59999999999997,107.87779461519304 L 308.8,105.44342377127214 L 324,101.79252985695524 L 339.2,100.00210021492722 L 354.4,101.58111578952176 L 369.6,105.19877622034582 L 384.8,107.8061034716023 L 400,107.20563217216865 L 415.2,103.90344182787693 L 430.40000000000003,100.68263108004251 L 445.6,100.25771153509866 L 460.79999999999995,102.98680700933168 L 476,106.56982540796358 L 491.2,107.98698513231146 L 506.40000000000003,106.0438985510938 L 521.6,102.37820646036374 L 536.8000000000001,100.07936816243762 L 552,101.0848533596969 L 567.1999999999999,104.54723528548277 L 582.4,107.548405221433 L 597.6,107.55896567671604 L 612.8000000000001,104.57001625926314 L 628,101.10065496021618 L 643.1999999999999,100.07487274039322 L 658.4,102.35720277463369 L 673.6,106.02408858827584 L 688.8,107.98506480477133 L 704,106.58741317509049 L 719.2,103.00907983378038 L 734.4,100.26589779530933 L 749.6,100.66983136462625 L 764.8,103.88044378589998 L 780,107.191818641295"
      stroke="url(#thread-7)"
      stroke-width="7.59"
      stroke-linecap="round"
      fill="none"
      opacity="0.676923076923077"
      class="thread"
      style="animation-delay: 0.7000000000000001s"
    >
      <title>2025-12-28: 3795 stars, Shell, Rust, Python, JavaScript, TypeScript</title>
    </path>

    <path
      d="M 20,112.9727900187683 L 35.2,112.7934281259578 L 50.400000000000006,117.64238641668457 L 65.6,119.91586999716513 L 80.80000000000001,116.04876203118772 L 96,112.1051888820668 L 111.2,114.26918422810667 L 126.4,119.14732297141421 L 141.60000000000002,119.09005148756142 L 156.79999999999998,114.1871788840657 L 172,112.12704468296981 L 187.2,116.14020624929778 L 202.4,119.93350624978679 L 217.6,117.55855877452547 L 232.8,112.73958919371992 L 248,113.03336621827094 L 263.20000000000005,117.97920940812114 L 278.40000000000003,119.82139579399745 L 293.59999999999997,115.67113842528576 L 308.8,112.03657861729673 L 324,114.6171770896637 L 339.2,119.36622106190853 L 354.4,118.83659423782237 L 369.6,113.85882010289254 L 384.8,112.23869348566434 L 400,116.51678284656805 L 415.2,119.98448974296514 L 430.40000000000003,117.20400044022561 L 445.6,112.5354824413002 L 460.79999999999995,113.29977688224345 L 476,118.29837104775619 L 491.2,119.69282160362594 L 506.40000000000003,115.29644939514984 L 521.6,112.00333569621974 L 536.8000000000001,114.97750948527838 L 552,119.55508088855261 L 567.1999999999999,118.55782481618945 L 582.4,113.54956800708477 L 597.6,112.38390607262063 L 612.8000000000001,116.88874796431489 L 628,119.99991789025067 L 643.1999999999999,116.83869828303533 L 658.4,112.36229109539369 L 673.6,113.59028281891909 L 688.8,118.59702331658977 L 704,119.53129474982515 L 719.2,114.92803845498833 L 734.4,112.00575675997024 L 749.6,115.34696601127563 L 764.8,119.7122171724538 L 780,118.25623080422262"
      stroke="url(#thread-8)"
      stroke-width="8"
      stroke-linecap="round"
      fill="none"
      opacity="0.6307692307692307"
      class="thread"
      style="animation-delay: 0.8s"
    >
      <title>2025-12-27: 5384 stars, Shell, Python, Rust, C, Go</title>
    </path>

    <path
      d="M 20,124.08987952933961 L 35.2,125.05533795740233 L 50.400000000000006,128.51223351411667 L 65.6,131.5357355006527 L 80.80000000000001,131.56770142091514 L 96,128.58108535946744 L 111.2,125.10282115009989 L 126.4,124.07581920803746 L 141.60000000000002,126.36901142856635 L 156.79999999999998,130.04216013459114 L 172,131.98746587990584 L 187.2,130.55903284001684 L 202.4,126.96543811473715 L 217.6,124.247171646332 L 232.8,124.70412045306819 L 248,127.94966657793516 L 263.20000000000005,131.23779910311916 L 278.40000000000003,131.7864753566049 L 293.59999999999997,129.13146807911141 L 308.8,125.51914157740723 L 324,124.00583448627117 L 339.2,125.8719346462658 L 354.4,129.5385609643704 L 369.6,131.90343249504105 L 384.8,130.96566470525804 L 400,127.51868972941253 L 415.2,124.47894460242435 L 430.40000000000003,124.41831491301639 L 445.6,127.38809858845649 L 460.79999999999995,130.87560343995688 L 476,131.93010067498165 L 491.2,129.65939501767372 L 506.40000000000003,125.98469858032882 L 521.6,124.01512032284944 L 536.8000000000001,125.41709270080528 L 552,129.00442660819562 L 567.1999999999999,131.74192929269404 L 582.4,131.3134382442129 L 597.6,128.08149371084772 L 612.8000000000001,124.78059849519012 L 628,124.20359360211926 L 643.1999999999999,126.83867475434093 L 658.4,130.4563368593578 L 673.6,131.99572690348958 L 688.8,130.15438862657976 L 704,126.49025244072193 L 719.2,124.1034924255972 L 734.4,125.0135126529941 L 749.6,128.45035781070283 L 764.8,131.50616156042253 L 780,131.59545133865035"
      stroke="url(#thread-9)"
      stroke-width="7.606"
      stroke-linecap="round"
      fill="none"
      opacity="0.5846153846153846"
      class="thread"
      style="animation-delay: 0.9s"
    >
      <title>2025-12-26: 3803 stars, Python, Shell, Go, TypeScript</title>
    </path>

    <path
      d="M 20,136.16430290134744 L 35.2,138.43947268396659 L 50.400000000000006,141.85291794930092 L 65.6,143.91481297164867 L 80.80000000000001,143.12117603421646 L 96,140.05089957853647 L 111.2,136.94349609423395 L 126.4,136.06555916460866 L 141.60000000000002,138.05747109639447 L 156.79999999999998,141.46629704354024 L 172,143.8055806905345 L 187.2,143.36900828360183 L 202.4,140.47502325025266 L 217.6,137.2345480824939 L 232.8,136.01124113984903 L 248,137.6974035607482 L 263.20000000000005,141.06311945466808 L 278.40000000000003,143.65337772089188 L 293.59999999999997,143.5787993988274 L 308.8,140.89378320016388 L 324,137.55682615230378 L 339.2,136.00196215867638 L 354.4,137.36333577716186 L 369.6,140.64793765969182 L 384.8,143.4599226615191 L 400,143.74818052494007 L 415.2,141.30245100313897 L 430.40000000000003,137.90669130302658 L 445.6,136.0378269946436 L 460.79999999999995,137.05903986974553 L 476,140.22543968103042 L 491.2,143.22739990890557 L 506.40000000000003,143.87523909610437 L 521.6,141.69641218945537 L 536.8000000000001,138.2801930346883 L 552,136.11843068019888 L 567.1999999999999,136.7879517936718 L 582.4,139.80039615174135 L 597.6,142.95843499213368 L 612.8000000000001,143.95854043132667 L 628,142.07121834905263 L 643.1999999999999,138.67311395502193 L 658.4,136.24286307937402 L 673.6,136.553132538111 L 688.8,139.37760644794966 L 704,142.65606492673498 L 719.2,143.9971439341459 L 734.4,142.4226373607245 L 749.6,139.08101740012322 L 764.8,136.40971916457863 L 780,136.35723356309296"
      stroke="url(#thread-10)"
      stroke-width="7.022"
      stroke-linecap="round"
      fill="none"
      opacity="0.5384615384615384"
      class="thread"
      style="animation-delay: 1s"
    >
      <title>2025-12-25: 3511 stars, Python, TypeScript</title>
    </path>

    <path
      d="M 20,149.17783869771844 L 35.2,151.7707187790849 L 50.400000000000006,154.47918117731834 L 65.6,155.93787046607574 L 80.80000000000001,155.4114508559245 L 96,153.16529426848413 L 111.2,150.33170443707516 L 126.4,148.33911442942934 L 141.60000000000002,148.19200323746134 L 156.79999999999998,149.96453067389746 L 172,152.76315287589563 L 187.2,155.1770642098703 L 202.4,155.98939456505198 L 217.6,154.79064235147803 L 232.8,152.18510720451042 L 248,149.48625818089516 L 263.20000000000005,148.05460453550592 L 278.40000000000003,148.61185319499262 L 293.59999999999997,150.87709109164982 L 308.8,153.70839546658078 L 324,155.6784853671453 L 339.2,155.79422426766223 L 354.4,153.9972673537591 L 369.6,151.19347356403617 L 384.8,148.7962555667446 L 400,148.01406824125218 L 415.2,149.24121785888627 L 430.40000000000003,151.85908944811754 L 445.6,154.54799506269367 L 460.79999999999995,155.95243799194205 L 476,155.36442842744253 L 491.2,153.08038623094205 L 506.40000000000003,150.25171354449083 L 521.6,148.30436466758866 L 536.8000000000001,148.22001221189734 L 552,150.04117885861731 L 567.1999999999999,152.849801368253 L 582.4,155.23003288002405 L 597.6,155.98198152440742 L 612.8000000000001,154.72658456728135 L 628,152.0966966677117 L 643.1999999999999,149.418063280645 L 658.4,148.04100281279065 L 673.6,148.65970137631842 L 688.8,150.96226856376532 L 704,153.78796365155665 L 719.2,155.7123333691493 L 734.4,155.7652890647978 L 749.6,153.92013539044916 L 764.8,151.1070276192029 L 780,148.74407366456163"
      stroke="url(#thread-11)"
      stroke-width="5.776"
      stroke-linecap="round"
      fill="none"
      opacity="0.49230769230769234"
      class="thread"
      style="animation-delay: 1.1s"
    >
      <title>2025-12-24: 2888 stars, Python, TypeScript</title>
    </path>

    <path
      d="M 20,162.88233800720428 L 35.2,165.7133359433708 L 50.400000000000006,167.68062887519397 L 65.6,167.79249024910487 L 80.80000000000001,165.99252993985493 L 96,163.1881209192969 L 111.2,160.79298599798256 L 126.4,160.01452996165798 L 141.60000000000002,161.24517811187377 L 156.79999999999998,163.86455184159735 L 172,166.55220596472196 L 187.2,167.9532746564405 L 202.4,167.3614690858041 L 217.6,165.0751227086272 L 232.8,162.24679922105503 L 248,160.30227688891435 L 263.20000000000005,160.2218034422697 L 278.40000000000003,162.04594612588866 L 293.59999999999997,164.85514145861387 L 308.8,167.23325381541486 L 324,167.98145960807068 L 339.2,166.7225829010061 L 354.4,164.0912325203243 L 369.6,161.41389116824672 L 384.8,160.04022592732767 L 400,160.66271135135494 L 415.2,162.9675480491797 L 430.40000000000003,165.7928512206799 L 445.6,167.71436516314085 L 460.79999999999995,167.76344084165478 L 476,165.91533885278596 L 491.2,163.10170073624457 L 506.40000000000003,160.74090175642093 L 521.6,160.0230377033506 L 536.8000000000001,161.309989022882 L 552,163.9529942743144 L 567.1999999999999,166.61969545103483 L 582.4,167.9657892596155 L 597.6,167.31270010413476 L 612.8000000000001,164.98965493745828 L 628,162.16771758016205 L 643.1999999999999,160.26944700374875 L 658.4,160.25177509468793 L 673.6,162.1236103897736 L 688.8,164.94134721848496 L 704,167.28454412606993 L 719.2,167.97197865404135 L 734.4,166.6571100995881 L 749.6,164.00277318285302 L 764.8,161.34703828464365 L 780,160.0286805183098"
      stroke="url(#thread-12)"
      stroke-width="5.776"
      stroke-linecap="round"
      fill="none"
      opacity="0.4461538461538461"
      class="thread"
      style="animation-delay: 1.2000000000000002s"
    >
      <title>2025-12-23: 2888 stars, Python, TypeScript</title>
    </path>
  </g>

  <!-- Date markers -->
  <g id="dates">
    <text x="785" y="24" class="date-label">01-04</text>
<text x="785" y="108" class="date-label">12-28</text>
  </g>

</svg>