<?xml version="1.0" encoding="UTF-8"?>
<svg xmlns="http://www.w3.org/2000/svg" viewBox="0 0 800 200" width="800" height="200">
  <title>The Data Tapestry - GitHub Trends Woven in Time</title>
  <desc>A living data art piece that weaves daily GitHub trending repositories into an evolving tapestry. Each thread represents one day of open source activity.</desc>

  <style>
    .thread {
      animation: breathe 8s ease-in-out infinite alternate;
    }

    @keyframes breathe {
      0% {
        opacity: 0.85;
      }
      100% {
        opacity: 1;
      }
    }

    .date-label {
      font-family: ui-monospace, monospace;
      font-size: 8px;
      fill: #666;
    }

    .title {
      font-family: system-ui, sans-serif;
      font-size: 14px;
      fill: #333;
      font-weight: 600;
    }

    .subtitle {
      font-family: system-ui, sans-serif;
      font-size: 10px;
      fill: #888;
    }

    .empty-state {
      font-family: system-ui, sans-serif;
      font-size: 12px;
      fill: #999;
      text-anchor: middle;
    }
  </style>

  <defs>
    
    <linearGradient id="thread-0" x1="0%" y1="0%" x2="100%" y2="0%">
      <stop offset="0%" stop-color="#3572A5" />
      <stop offset="50%" stop-color="#00ADD8" />
      <stop offset="100%" stop-color="#DA5B0B" />
    </linearGradient>

    <linearGradient id="thread-1" x1="0%" y1="0%" x2="100%" y2="0%">
      <stop offset="0%" stop-color="#3572A5" />
      <stop offset="50%" stop-color="#3178c6" />
      <stop offset="100%" stop-color="#dea584" />
    </linearGradient>

    <linearGradient id="thread-2" x1="0%" y1="0%" x2="100%" y2="0%">
      <stop offset="0%" stop-color="#dea584" />
      <stop offset="50%" stop-color="#3572A5" />
      <stop offset="100%" stop-color="#3178c6" />
    </linearGradient>

    <linearGradient id="thread-3" x1="0%" y1="0%" x2="100%" y2="0%">
      <stop offset="0%" stop-color="#3572A5" />
      <stop offset="50%" stop-color="#3178c6" />
      <stop offset="100%" stop-color="#dea584" />
    </linearGradient>

    <linearGradient id="thread-4" x1="0%" y1="0%" x2="100%" y2="0%">
      <stop offset="0%" stop-color="#3572A5" />
      <stop offset="50%" stop-color="#dea584" />
      <stop offset="100%" stop-color="#3178c6" />
    </linearGradient>

    <linearGradient id="thread-5" x1="0%" y1="0%" x2="100%" y2="0%">
      <stop offset="0%" stop-color="#3572A5" />
      <stop offset="50%" stop-color="#3178c6" />
      <stop offset="100%" stop-color="#89e051" />
    </linearGradient>

    <linearGradient id="thread-6" x1="0%" y1="0%" x2="100%" y2="0%">
      <stop offset="0%" stop-color="#3572A5" />
      <stop offset="50%" stop-color="#f1e05a" />
      <stop offset="100%" stop-color="#89e051" />
    </linearGradient>

    <linearGradient id="thread-7" x1="0%" y1="0%" x2="100%" y2="0%">
      <stop offset="0%" stop-color="#3572A5" />
      <stop offset="50%" stop-color="#89e051" />
      <stop offset="100%" stop-color="#dea584" />
    </linearGradient>

    <linearGradient id="thread-8" x1="0%" y1="0%" x2="100%" y2="0%">
      <stop offset="0%" stop-color="#3572A5" />
      <stop offset="50%" stop-color="#89e051" />
      <stop offset="100%" stop-color="#00ADD8" />
    </linearGradient>

    <linearGradient id="thread-9" x1="0%" y1="0%" x2="100%" y2="0%">
      <stop offset="0%" stop-color="#3572A5" />
      <stop offset="50%" stop-color="#3178c6" />
      <stop offset="100%" stop-color="#3572A5" />
    </linearGradient>

    <linearGradient id="thread-10" x1="0%" y1="0%" x2="100%" y2="0%">
      <stop offset="0%" stop-color="#3572A5" />
      <stop offset="50%" stop-color="#3178c6" />
      <stop offset="100%" stop-color="#3572A5" />
    </linearGradient>

    <linearGradient id="thread-11" x1="0%" y1="0%" x2="100%" y2="0%">
      <stop offset="0%" stop-color="#3572A5" />
      <stop offset="50%" stop-color="#3178c6" />
      <stop offset="100%" stop-color="#3572A5" />
    </linearGradient>

    <!-- Background pattern -->
    <pattern id="loom" patternUnits="userSpaceOnUse" width="20" height="20">
      <rect width="20" height="20" fill="#fafafa"/>
      <circle cx="10" cy="10" r="0.5" fill="#eee"/>
    </pattern>
  </defs>

  <!-- Background -->
  <rect width="100%" height="100%" fill="url(#loom)"/>

  <!-- Threads -->
  <g id="tapestry">
    
    <path
      d="M 20,20 L 35.2,23.316774785380375 L 50.400000000000006,23.707897960718807 L 65.6,20.828368667742566 L 80.80000000000001,17.218154211223812 L 96,16.06174266188318 L 111.2,18.379178348962483 L 126.4,22.126303954648954 L 141.60000000000002,23.997865197093965 L 156.79999999999998,22.343000466282177 L 172,18.621428307301937 L 187.2,16.11586288778374 L 202.4,17.036406484188962 L 217.6,20.571068524589798 L 232.8,23.6020040063546 L 248,23.45569366877134 L 263.20000000000005,20.261194533318537 L 278.40000000000003,16.836301639957963 L 293.59999999999997,16.202035123022444 L 308.8,18.917867052984583 L 324,22.58822384627777 L 339.2,23.975567244634323 L 354.4,21.856153186511797 L 369.6,18.099468614111657 L 384.8,16.019199556436266 L 400,17.45030404100524 L 415.2,21.13043734731708 L 430.40000000000003,23.81343757730204 L 445.6,23.132691243304155 L 460.79999999999995,19.6886692054101 L 476,16.519264981321896 L 491.2,16.42013796038034 L 506.40000000000003,19.47872583346955 L 521.6,22.997117794344657 L 536.8000000000001,23.871820307519073 L 552,21.33127817809194 L 567.1999999999999,17.616445842915518 L 582.4,16.00409242431607 L 597.6,17.9164382056467 L 612.8000000000001,21.66664646263906 L 628,23.946743776831468 L 643.1999999999999,22.74550816000735 L 658.4,19.12252223197312 L 673.6,16.273539488031897 L 688.8,16.711582816723748 L 704,20.050264159533402 L 719.2,23.34460863029662 L 734.4,23.688749889398206 L 749.6,20.77912875844286 L 764.8,17.182255868153188 L 780,16.070850997085245"
      stroke="url(#thread-0)"
      stroke-width="7.78"
      stroke-linecap="round"
      fill="none"
      opacity="1"
      class="thread"
      style="animation-delay: 0s"
    >
      <title>2026-01-03: 3890 stars, Go, Python, Jupyter Notebook, TypeScript, Rust, JavaScript</title>
    </path>

    <path
      d="M 20,33.917702154416816 L 35.2,35.6687937662853 L 50.400000000000006,35.8744734143632 L 65.6,34.44810232604662 L 80.80000000000001,31.99051311420857 L 96,29.53692007869853 L 111.2,28.12085420351338 L 126.4,28.338807219842064 L 141.60000000000002,30.098970424215363 L 156.79999999999998,32.65990740795319 L 172,34.94287052120075 L 187.2,35.986203499567466 L 202.4,35.35042149607112 L 217.6,33.30333599785367 L 232.8,30.707244157979304 L 248,28.65570196351654 L 263.20000000000005,28.012883868935752 L 278.40000000000003,29.049565185467397 L 293.59999999999997,31.329062956459925 L 308.8,33.89118062927565 L 324,35.65667321047965 L 339.2,35.88185938932363 L 354.4,34.47188362553063 L 369.6,32.02067230276507 L 384.8,29.56075315229173 L 400,28.128321917799997 L 415.2,28.326763937390314 L 430.40000000000003,30.072489156475314 L 445.6,32.63014290239467 L 460.79999999999995,34.922360528898544 L 476,35.983587477929184 L 491.2,35.36680139614522 L 506.40000000000003,33.331812087697514 L 521.6,30.735821407964593 L 536.8000000000001,28.67234273216413 L 552,28.010578538209607 L 567.1999999999999,29.029284833577847 L 582.4,31.29935030901015 L 597.6,33.86455159306496 L 612.8000000000001,35.64434477773106 L 628,35.889024685810384 L 643.1999999999999,34.49552440176255 L 658.4,32.050830316129044 L 673.6,29.584724893780205 L 688.8,28.1360097317667 L 704,28.31492947345733 L 719.2,30.046117465128486 L 734.4,32.60034257406153 L 749.6,34.90168440433951 L 764.8,35.98074499471252 L 780,35.382989898098295"
      stroke="url(#thread-1)"
      stroke-width="5.26"
      stroke-linecap="round"
      fill="none"
      opacity="0.95"
      class="thread"
      style="animation-delay: 0.1s"
    >
      <title>2026-01-02: 2630 stars, TypeScript, Rust, Python, JavaScript, Jupyter Notebook, Shell</title>
    </path>

    <path
      d="M 20,47.36588393923159 L 35.2,47.745538891423166 L 50.400000000000006,45.11608647112356 L 65.6,41.589987633325535 L 80.80000000000001,40.00005504304966 L 96,41.623615679897874 L 111.2,45.15632631752868 L 126.4,47.76006247433143 L 141.60000000000002,47.34302323925482 L 156.79999999999998,44.240251412084156 L 172,40.944465357505706 L 187.2,40.1034480521414 L 202.4,42.39285964726066 L 217.6,45.973422669249366 L 232.8,47.96856877922112 L 248,46.775428792594596 L 263.20000000000005,43.352552716257506 L 278.40000000000003,40.44982566287414 L 293.59999999999997,40.399253154177764 L 308.8,43.241464352800236 L 324,46.693071228373995 L 339.2,47.98110679342133 L 354.4,46.07078341733188 L 369.6,42.496825026747025 L 384.8,40.13049390296679 L 400,40.872863466061034 L 415.2,44.12752561824301 L 430.40000000000003,47.279735682978966 L 445.6,47.79705738863969 L 460.79999999999995,45.26388256679369 L 476,41.71532425542878 L 491.2,40.002238709407095 L 506.40000000000003,41.5008920671062 L 521.6,45.00728965694825 L 536.8000000000001,47.70444648843166 L 552,47.4255089413827 L 567.1999999999999,44.39457107906467 L 582.4,41.046640982143465 L 597.6,40.0713933354287 L 612.8000000000001,42.252326847331595 L 628,45.83731363990974 L 643.1999999999999,47.94623138616425 L 658.4,46.884808548089396 L 673.6,43.50577563522419 L 688.8,40.52379484832065 L 704,40.33454291924928 L 719.2,43.090061888297235 L 734.4,46.57661090664075 L 749.6,47.993151015727435 L 764.8,46.2016560438246 L 780,42.641385035893165"
      stroke="url(#thread-2)"
      stroke-width="7.396"
      stroke-linecap="round"
      fill="none"
      opacity="0.9"
      class="thread"
      style="animation-delay: 0.2s"
    >
      <title>2026-01-01: 3698 stars, Rust, Python, JavaScript, TypeScript, Jupyter Notebook, Go, Shell</title>
    </path>

    <path
      d="M 20,59.98997994641622 L 35.2,58.610146714541095 L 50.400000000000006,55.128103646478756 L 65.6,52.34828512399349 L 80.80000000000001,52.50955450607905 L 96,55.48202557622223 L 111.2,58.87167278535133 L 126.4,59.94847729408912 L 141.60000000000002,57.84518171138228 L 156.79999999999998,54.255778423843765 L 172,52.07116963826116 L 187.2,53.05083732232922 L 202.4,56.405757996957924 L 217.6,59.43388154268786 L 232.8,59.6963599562401 L 248,56.981793357415455 L 263.20000000000005,53.47649126408244 L 278.40000000000003,52.00362085621618 L 293.59999999999997,53.749430646820244 L 308.8,57.3078469874388 L 324,59.81292453069973 L 339.2,59.247076057265176 L 354.4,56.06603542302098 L 369.6,52.83180991796546 L 384.8,52.14924187961858 L 400,54.56807099735719 L 415.2,58.140174456843575 L 430.40000000000003,59.98858331737549 L 445.6,58.62459073107409 L 460.79999999999995,55.14675511055087 L 476,52.35612216307421 L 491.2,52.50026517588177 L 506.40000000000003,55.46309149500372 L 521.6,58.858343445239726 L 536.8000000000001,59.95148813372334 L 552,57.86210780320596 L 567.1999999999999,54.27298750859666 L 582.4,52.074801534430165 L 597.6,53.03796690397872 L 612.8000000000001,56.3867510875497 L 628,59.42404629010909 L 643.1999999999999,59.703617664146776 L 658.4,57.00029867433188 L 673.6,53.49134002426699 L 688.8,52.002853881458215 L 704,53.733665657905846 L 719.2,57.28978109238057 L 734.4,59.80710798526656 L 749.6,59.2581935019618 L 764.8,56.08513287780319 L 780,52.843506309782576"
      stroke="url(#thread-3)"
      stroke-width="7.406"
      stroke-linecap="round"
      fill="none"
      opacity="0.85"
      class="thread"
      style="animation-delay: 0.30000000000000004s"
    >
      <title>2025-12-31: 3703 stars, Go, Python, TypeScript, Rust, Shell</title>
    </path>

    <path
      d="M 20,71.63718970730272 L 35.2,68.22833528861241 L 50.400000000000006,64.57624644598708 L 65.6,64.57131494144353 L 80.80000000000001,68.21879406576336 L 96,71.63320256455809 L 111.2,71.17733793036564 L 126.4,67.33681047933106 L 141.60000000000002,64.2027464137851 L 156.79999999999998,65.11371101722398 L 172,69.09929821755448 L 187.2,71.91385675076762 L 202.4,70.55917496233666 L 217.6,66.47832915652732 L 232.8,64.01844493436109 L 248,65.79991674017222 L 263.20000000000005,69.92502972192808 L 278.40000000000003,71.99950261946219 L 293.59999999999997,69.81350083704983 L 308.8,65.69566524092403 L 324,64.03252484799424 L 339.2,66.59574183915095 L 354.4,70.65484642125269 L 369.6,71.8858728563736 L 384.8,68.97746884494133 L 400,65.0278150430866 L 415.2,64.24428462153114 L 430.40000000000003,67.46153424627151 L 445.6,71.25238512298131 L 460.79999999999995,71.57862907620327 L 476,68.09273436650959 L 491.2,64.50805426821472 L 506.40000000000003,64.64317330234772 L 521.6,68.35415576527855 L 536.8000000000001,71.68787339948193 L 552,71.09307973208412 L 567.1999999999999,67.20337938867266 L 582.4,64.16228005068822 L 597.6,65.20931622065527 L 612.8000000000001,69.22913143664135 L 628,71.93961300232448 L 643.1999999999999,70.45341737031937 L 658.4,66.35371611520952 L 673.6,64.00772062666745 L 688.8,65.91450524697879 L 704,70.04286550701377 L 719.2,71.99506097975363 L 734.4,69.6915132342602 L 749.6,65.58607910662231 L 764.8,64.05207693544415 L 780,66.72360426512644"
      stroke="url(#thread-4)"
      stroke-width="8"
      stroke-linecap="round"
      fill="none"
      opacity="0.8"
      class="thread"
      style="animation-delay: 0.4s"
    >
      <title>2025-12-30: 4315 stars, Go, Shell, Rust, Python, Swift, TypeScript</title>
    </path>

    <path
      d="M 20,82.39388857641583 L 35.2,79.27499508765985 L 50.400000000000006,76.62097427889958 L 65.6,76.13358257293001 L 80.80000000000001,78.12533521579329 L 96,81.31912170352365 L 111.2,83.66708820973389 L 126.4,83.6637201321036 L 141.60000000000002,81.31117707982686 L 156.79999999999998,78.11790813359633 L 172,76.13143527252488 L 187.2,76.62548360791462 L 202.4,79.28326966725261 L 217.6,82.4006227515133 L 232.8,83.97869808308604 L 248,83.00563478194532 L 263.20000000000005,80.10536040624612 L 278.40000000000003,77.13752900633452 L 293.59999999999997,76.00511215270524 L 308.8,77.43421479810922 L 324,80.50849725235938 L 339.2,83.25673159789842 L 354.4,83.91675175319838 L 369.6,82.06535322236817 L 384.8,78.88965154368617 L 400,76.42590457569658 L 415.2,76.25386527778801 L 430.40000000000003,78.48384513629948 L 445.6,81.68598251096073 L 460.79999999999995,83.80706899209576 L 476,83.48706530244618 L 491.2,80.93115760045568 L 506.40000000000003,77.77819224843493 L 521.6,76.04984858700585 L 536.8000000000001,76.85433945192531 L 552,79.67582582190992 L 567.1999999999999,82.7051724648239 L 582.4,83.99996427622071 L 597.6,82.72998158564643 L 612.8000000000001,79.70953647135966 L 628,76.87533638341928 L 643.1999999999999,76.04466858167596 L 658.4,77.75015672234211 L 673.6,80.89824291476387 L 688.8,83.47037633229255 L 704,83.81730669432851 L 719.2,81.71658247754215 L 734.4,78.51518668848608 L 749.6,76.2658522326268 L 764.8,76.41085090551236 L 780,78.85720965204642"
      stroke="url(#thread-5)"
      stroke-width="6.556"
      stroke-linecap="round"
      fill="none"
      opacity="0.75"
      class="thread"
      style="animation-delay: 0.5s"
    >
      <title>2025-12-29: 3278 stars, Shell, Go, JavaScript, TypeScript, Rust, Python</title>
    </path>

    <path
      d="M 20,92.56448003223947 L 35.2,89.09680483149559 L 50.400000000000006,88.07595361317448 L 65.6,90.36230368520627 L 80.80000000000001,94.02891046971632 L 96,95.98554375697509 L 111.2,94.58314553530994 L 126.4,91.00366238513112 L 141.60000000000002,88.26389638421544 L 156.79999999999998,88.67293278800595 L 172,91.88603415227696 L 187.2,95.19518636852342 L 202.4,95.81142330314212 L 217.6,93.21537811271946 L 232.8,89.59500760439347 L 248,88.00157387763629 L 263.20000000000005,89.77802896658183 L 278.40000000000003,93.42716973363736 L 293.59999999999997,95.87348639532942 L 308.8,95.05521392071387 L 324,91.66199547838175 L 339.2,88.55364853853597 L 354.4,88.34989978046245 L 369.6,91.22246943608069 L 384.8,94.75034482226218 L 400,95.96021908194339 L 415.2,93.83240556559431 L 430.40000000000003,90.16023363612109 L 445.6,88.03862382869518 L 460.79999999999995,89.2556769966351 L 476,92.78565607909661 L 491.2,95.65348121575222 L 506.40000000000003,95.44213842218603 L 521.6,92.32974821245097 L 536.8000000000001,88.93944494914682 L 552,88.12858917845148 L 567.1999999999999,90.58057324254952 L 582.4,94.22885560209134 L 597.6,95.99864994273642 L 612.8000000000001,94.39836683101335 L 628,90.77673098887983 L 643.1999999999999,88.18607094397643 L 658.4,88.80980488221846 L 673.6,92.12224745688917 L 688.8,95.3316594077315 L 704,95.73313607797695 L 719.2,92.98831139572074 L 734.4,89.41053409237124 L 749.6,88.01516855147865 L 764.8,89.97823418322311 L 780,93.64525177141861"
      stroke="url(#thread-6)"
      stroke-width="7.59"
      stroke-linecap="round"
      fill="none"
      opacity="0.7"
      class="thread"
      style="animation-delay: 0.6000000000000001s"
    >
      <title>2025-12-28: 3795 stars, Shell, Rust, Python, JavaScript, TypeScript</title>
    </path>

    <path
      d="M 20,102.59686708924153 L 35.2,100.03956013961813 L 50.400000000000006,103.69273605702608 L 65.6,107.82774165011858 L 80.80000000000001,105.96035236397373 L 96,101.01887656244133 L 111.2,100.75218858401668 L 126.4,105.57848973442287 L 141.60000000000002,107.92951445165205 L 156.79999999999998,104.1185513498353 L 172,100.12168437042638 L 187.2,102.20651882306102 L 202.4,107.10376414781751 L 217.6,107.13390512485942 L 232.8,102.24967679672912 L 248,100.11018204590229 L 263.20000000000005,104.07042586236314 L 278.40000000000003,107.92023280135048 L 293.59999999999997,105.62260675161573 L 308.8,100.78052306937268 L 324,100.98699637153885 L 339.2,105.91824976695884 L 354.4,107.84143897446916 L 369.6,103.74075412335738 L 384.8,100.04660039807926 L 400,102.5518895023382 L 415.2,107.32800350290795 L 430.40000000000003,106.8853767916222 L 445.6,101.91810540423431 L 460.79999999999995,100.21551450027162 L 476,104.44748722690662 L 491.2,107.97774199950331 L 506.40000000000003,105.27038190903671 L 521.6,100.57089837804442 L 536.8000000000001,101.24869050915777 L 552,106.24089241725201 L 567.1999999999999,107.71908465601066 L 582.4,103.36527026130254 L 597.6,100.00679434068901 L 612.8000000000001,102.91018230538953 L 628,107.522545626154 L 643.1999999999999,106.61110097841264 L 658.4,101.60511166841329 L 673.6,100.35461757513424 L 688.8,104.82055546706987 L 704,107.99975606483156 L 719.2,104.90682089266741 L 734.4,100.39187306132507 L 749.6,101.53493578554614 L 764.8,106.54353860372069 L 780,107.56354331741174"
      stroke="url(#thread-7)"
      stroke-width="8"
      stroke-linecap="round"
      fill="none"
      opacity="0.65"
      class="thread"
      style="animation-delay: 0.7000000000000001s"
    >
      <title>2025-12-27: 5384 stars, Shell, Python, Rust, C, Go</title>
    </path>

    <path
      d="M 20,112.9727900187683 L 35.2,112.11791214617345 L 50.400000000000006,114.54761419337774 L 65.6,118.20615943935982 L 80.80000000000001,119.99810422001399 L 96,118.4073092655594 L 111.2,114.77972380761098 L 126.4,112.18459686916233 L 141.60000000000002,112.81762884451452 L 156.79999999999998,116.14322028483406 L 172,119.3476350569826 L 187.2,119.71966290204438 L 202.4,116.94453629401104 L 217.6,113.37025081537871 L 232.8,112.02095912646732 L 248,114.03827794339054 L 263.20000000000005,117.71538219484874 L 278.40000000000003,119.94112570329145 L 293.59999999999997,118.83233819804896 L 308.8,115.32714918885245 L 324,112.39124978528332 L 339.2,112.50866317038421 L 354.4,115.58004753079614 L 369.6,119.00674776749804 L 384.8,119.88948101713389 L 400,117.48137909550351 L 415.2,113.81990316125132 L 430.40000000000003,112.00297649259939 L 445.6,113.56787518331753 L 460.79999999999995,117.19056046622885 L 476,119.80592928750283 L 491.2,119.2011548805433 L 506.40000000000003,115.88792836309493 L 521.6,112.66952408100498 L 536.8000000000001,112.26898862074572 L 552,115.02520940049814 L 567.1999999999999,118.60618679310693 L 582.4,119.98210620397866 L 597.6,117.98882157604862 L 612.8000000000001,114.31282299142293 L 628,112.06432113849965 L 643.1999999999999,113.14574180304844 L 658.4,116.64211017425157 L 673.6,119.59519816024485 L 688.8,119.50643956020602 L 704,116.4509317769694 L 719.2,113.01389696096018 L 734.4,112.10336191769916 L 749.6,114.48971753785631 L 764.8,118.15390190253615 L 780,119.99570016863403"
      stroke="url(#thread-8)"
      stroke-width="7.606"
      stroke-linecap="round"
      fill="none"
      opacity="0.6000000000000001"
      class="thread"
      style="animation-delay: 0.8s"
    >
      <title>2025-12-26: 3803 stars, Python, Shell, Go, TypeScript</title>
    </path>

    <path
      d="M 20,124.08987952933961 L 35.2,124.8647669013594 L 50.400000000000006,127.92654725635555 L 65.6,131.04190530676888 L 80.80000000000001,131.93844527187156 L 96,129.96221547067367 L 111.2,126.55471193326876 L 126.4,124.20142638674312 L 141.60000000000002,124.6188858113786 L 156.79999999999998,127.50258811790785 L 172,130.74911121224352 L 187.2,131.99038527312544 L 202.4,130.32100363684737 L 217.6,126.95864200081415 L 232.8,124.35586481230959 L 248,124.41118254930191 L 263.20000000000005,127.08424550234952 L 278.40000000000003,130.42527554713075 L 293.59999999999997,131.99726786616128 L 308.8,130.65358420621445 L 324,127.37433055513685 L 339.2,124.55145096560531 L 354.4,124.24400239510283 L 369.6,126.67624312248371 L 384.8,130.07405489964438 L 400,131.95901533622654 L 415.2,130.9562018475341 L 430.40000000000003,127.79708385174811 L 445.6,124.78597638690832 L 460.79999999999995,124.11923306235737 L 476,126.28318793441248 L 491.2,129.69941507534088 L 506.40000000000003,131.87605961150334 L 521.6,131.225439555764 L 536.8000000000001,128.2221283746696 L 552,125.05679293401634 L 567.1999999999999,124.0382833831391 L 582.4,125.90951811812322 L 597.6,129.30558631725265 L 612.8000000000001,131.74933738599404 L 628,131.45825723514974 L 643.1999999999999,128.6446647365568 L 658.4,125.36084268372645 L 673.6,124.00206740020128 L 688.8,125.55945296380943 L 704,128.8970155401277 L 719.2,131.58027954284768 L 734.4,131.65202602644527 L 749.6,129.05992187094813 L 764.8,125.69469246035419 L 780,124.01099404606938"
      stroke="url(#thread-9)"
      stroke-width="7.022"
      stroke-linecap="round"
      fill="none"
      opacity="0.55"
      class="thread"
      style="animation-delay: 0.9s"
    >
      <title>2025-12-25: 3511 stars, Python, TypeScript</title>
    </path>

    <path
      d="M 20,136.16430290134744 L 35.2,137.88423765414112 L 50.400000000000006,140.67074346276888 L 65.6,143.1191226549175 L 80.80000000000001,143.99512962395573 L 96,142.85716293968807 L 111.2,140.27887981381357 L 126.4,137.56001136272423 L 141.60000000000002,136.07115877904835 L 156.79999999999998,136.56286338670193 L 172,138.78725334716302 L 187.2,141.62299764073592 L 202.4,143.6405771197756 L 217.6,143.82291541963255 L 232.8,142.0780944884622 L 248,139.2856911400037 L 263.20000000000005,136.85337603892754 L 278.40000000000003,136.00729676771323 L 293.59999999999997,137.17396798826718 L 308.8,139.76526232515286 L 324,142.47488961668054 L 339.2,143.93690720539718 L 354.4,143.41430148185955 L 369.6,141.17052175994237 L 384.8,138.33667357791575 L 400,136.34132023992083 L 415.2,136.19033375262833 L 430.40000000000003,137.95982749308334 L 445.6,140.75778690646462 L 460.79999999999995,143.1737404757079 L 476,143.9897885845177 L 491.2,142.79455549651786 L 506.40000000000003,140.19056683049112 L 521.6,137.49051205098914 L 536.8000000000001,136.05550824312309 L 552,136.6089511746063 L 567.1999999999999,138.87184627266396 L 582.4,141.70345180006782 L 597.6,143.67633499104443 L 612.8000000000001,143.79595120207279 L 628,142.00200103859137 L 643.1999999999999,139.19882771463045 L 658.4,136.79953111717617 L 673.6,136.0136139629277 L 688.8,137.23726275678504 L 704,139.85362731772997 L 719.2,142.54377940333694 L 734.4,143.95159394789803 L 749.6,143.36738148740045 L 764.8,141.08564773608185 L 780,138.2566311321295"
      stroke="url(#thread-10)"
      stroke-width="5.776"
      stroke-linecap="round"
      fill="none"
      opacity="0.5"
      class="thread"
      style="animation-delay: 1s"
    >
      <title>2025-12-24: 2888 stars, Python, TypeScript</title>
    </path>

    <path
      d="M 20,149.17783869771844 L 35.2,151.7707187790849 L 50.400000000000006,154.47918117731834 L 65.6,155.93787046607574 L 80.80000000000001,155.4114508559245 L 96,153.16529426848413 L 111.2,150.33170443707516 L 126.4,148.33911442942934 L 141.60000000000002,148.19200323746134 L 156.79999999999998,149.96453067389746 L 172,152.76315287589563 L 187.2,155.1770642098703 L 202.4,155.98939456505198 L 217.6,154.79064235147803 L 232.8,152.18510720451042 L 248,149.48625818089516 L 263.20000000000005,148.05460453550592 L 278.40000000000003,148.61185319499262 L 293.59999999999997,150.87709109164982 L 308.8,153.70839546658078 L 324,155.6784853671453 L 339.2,155.79422426766223 L 354.4,153.9972673537591 L 369.6,151.19347356403617 L 384.8,148.7962555667446 L 400,148.01406824125218 L 415.2,149.24121785888627 L 430.40000000000003,151.85908944811754 L 445.6,154.54799506269367 L 460.79999999999995,155.95243799194205 L 476,155.36442842744253 L 491.2,153.08038623094205 L 506.40000000000003,150.25171354449083 L 521.6,148.30436466758866 L 536.8000000000001,148.22001221189734 L 552,150.04117885861731 L 567.1999999999999,152.849801368253 L 582.4,155.23003288002405 L 597.6,155.98198152440742 L 612.8000000000001,154.72658456728135 L 628,152.0966966677117 L 643.1999999999999,149.418063280645 L 658.4,148.04100281279065 L 673.6,148.65970137631842 L 688.8,150.96226856376532 L 704,153.78796365155665 L 719.2,155.7123333691493 L 734.4,155.7652890647978 L 749.6,153.92013539044916 L 764.8,151.1070276192029 L 780,148.74407366456163"
      stroke="url(#thread-11)"
      stroke-width="5.776"
      stroke-linecap="round"
      fill="none"
      opacity="0.45000000000000007"
      class="thread"
      style="animation-delay: 1.1s"
    >
      <title>2025-12-23: 2888 stars, Python, TypeScript</title>
    </path>
  </g>

  <!-- Date markers -->
  <g id="dates">
    <text x="785" y="24" class="date-label">01-03</text>
<text x="785" y="108" class="date-label">12-27</text>
  </g>

</svg>