<?xml version="1.0" encoding="UTF-8"?>
<svg xmlns="http://www.w3.org/2000/svg" viewBox="0 0 800 200" width="800" height="200">
  <title>The Data Tapestry - GitHub Trends Woven in Time</title>
  <desc>A living data art piece that weaves daily GitHub trending repositories into an evolving tapestry. Each thread represents one day of open source activity.</desc>

  <style>
    .thread {
      animation: breathe 8s ease-in-out infinite alternate;
    }

    @keyframes breathe {
      0% {
        opacity: 0.85;
      }
      100% {
        opacity: 1;
      }
    }

    .date-label {
      font-family: ui-monospace, monospace;
      font-size: 8px;
      fill: #666;
    }

    .title {
      font-family: system-ui, sans-serif;
      font-size: 14px;
      fill: #333;
      font-weight: 600;
    }

    .subtitle {
      font-family: system-ui, sans-serif;
      font-size: 10px;
      fill: #888;
    }

    .empty-state {
      font-family: system-ui, sans-serif;
      font-size: 12px;
      fill: #999;
      text-anchor: middle;
    }
  </style>

  <defs>
    
    <linearGradient id="thread-0" x1="0%" y1="0%" x2="100%" y2="0%">
      <stop offset="0%" stop-color="#3572A5" />
      <stop offset="50%" stop-color="#3178c6" />
      <stop offset="100%" stop-color="#dea584" />
    </linearGradient>

    <linearGradient id="thread-1" x1="0%" y1="0%" x2="100%" y2="0%">
      <stop offset="0%" stop-color="#dea584" />
      <stop offset="50%" stop-color="#3572A5" />
      <stop offset="100%" stop-color="#3178c6" />
    </linearGradient>

    <linearGradient id="thread-2" x1="0%" y1="0%" x2="100%" y2="0%">
      <stop offset="0%" stop-color="#3572A5" />
      <stop offset="50%" stop-color="#3178c6" />
      <stop offset="100%" stop-color="#dea584" />
    </linearGradient>

    <linearGradient id="thread-3" x1="0%" y1="0%" x2="100%" y2="0%">
      <stop offset="0%" stop-color="#3572A5" />
      <stop offset="50%" stop-color="#dea584" />
      <stop offset="100%" stop-color="#3178c6" />
    </linearGradient>

    <linearGradient id="thread-4" x1="0%" y1="0%" x2="100%" y2="0%">
      <stop offset="0%" stop-color="#3572A5" />
      <stop offset="50%" stop-color="#3178c6" />
      <stop offset="100%" stop-color="#89e051" />
    </linearGradient>

    <linearGradient id="thread-5" x1="0%" y1="0%" x2="100%" y2="0%">
      <stop offset="0%" stop-color="#3572A5" />
      <stop offset="50%" stop-color="#f1e05a" />
      <stop offset="100%" stop-color="#89e051" />
    </linearGradient>

    <linearGradient id="thread-6" x1="0%" y1="0%" x2="100%" y2="0%">
      <stop offset="0%" stop-color="#3572A5" />
      <stop offset="50%" stop-color="#89e051" />
      <stop offset="100%" stop-color="#dea584" />
    </linearGradient>

    <linearGradient id="thread-7" x1="0%" y1="0%" x2="100%" y2="0%">
      <stop offset="0%" stop-color="#3572A5" />
      <stop offset="50%" stop-color="#89e051" />
      <stop offset="100%" stop-color="#00ADD8" />
    </linearGradient>

    <linearGradient id="thread-8" x1="0%" y1="0%" x2="100%" y2="0%">
      <stop offset="0%" stop-color="#3572A5" />
      <stop offset="50%" stop-color="#3178c6" />
      <stop offset="100%" stop-color="#3572A5" />
    </linearGradient>

    <linearGradient id="thread-9" x1="0%" y1="0%" x2="100%" y2="0%">
      <stop offset="0%" stop-color="#3572A5" />
      <stop offset="50%" stop-color="#3178c6" />
      <stop offset="100%" stop-color="#3572A5" />
    </linearGradient>

    <linearGradient id="thread-10" x1="0%" y1="0%" x2="100%" y2="0%">
      <stop offset="0%" stop-color="#3572A5" />
      <stop offset="50%" stop-color="#3178c6" />
      <stop offset="100%" stop-color="#3572A5" />
    </linearGradient>

    <!-- Background pattern -->
    <pattern id="loom" patternUnits="userSpaceOnUse" width="20" height="20">
      <rect width="20" height="20" fill="#fafafa"/>
      <circle cx="10" cy="10" r="0.5" fill="#eee"/>
    </pattern>
  </defs>

  <!-- Background -->
  <rect width="100%" height="100%" fill="url(#loom)"/>

  <!-- Threads -->
  <g id="tapestry">
    
    <path
      d="M 20,20 L 35.2,22.455598030130112 L 50.400000000000006,23.876820509119323 L 65.6,23.665003581173448 L 80.80000000000001,21.909371235274666 L 96,19.349451339220465 L 111.2,17.063563113366847 L 126.4,16.014594972043795 L 141.60000000000002,16.64440547108864 L 156.79999999999998,18.687698509889458 L 172,21.283774439228836 L 187.2,23.33908397405878 L 202.4,23.987865737000185 L 217.6,22.956832331101875 L 232.8,20.68028763443555 L 248,18.117184271338672 L 263.20000000000005,16.347182439166055 L 278.40000000000003,16.11586288778374 L 293.59999999999997,17.52066472795615 L 308.8,19.969840996278563 L 324,22.431721190778422 L 339.2,23.869283514002262 L 354.4,23.676981250999663 L 369.6,21.93581819670704 L 384.8,19.379227295690942 L 400,17.08412549031436 L 415.2,16.017282245991424 L 430.40000000000003,16.628085677261808 L 445.6,18.659246061578543 L 460.79999999999995,21.255174407500746 L 476,23.322383596783247 L 491.2,23.99009974125252 L 506.40000000000003,22.977059683638284 L 521.6,20.709987934656557 L 536.8000000000001,18.1438468134882 L 552,16.35957611726002 L 567.1999999999999,16.108767092645948 L 582.4,17.497068432910567 L 597.6,19.939683707055835 L 612.8000000000001,22.4077061113549 L 628,23.861526555333096 L 643.1999999999999,23.68874988939821 L 658.4,21.962155109484364 L 673.6,19.40903854225288 L 688.8,17.104853630797248 L 704,16.020195932074802 L 719.2,16.61195757221899 L 734.4,18.6308698333217 L 749.6,21.226503020799512 L 764.8,23.305494346478696 L 780,23.992106913713087"
      stroke="url(#thread-0)"
      stroke-width="5.26"
      stroke-linecap="round"
      fill="none"
      opacity="1"
      class="thread"
      style="animation-delay: 0s"
    >
      <title>2026-01-02: 2630 stars, TypeScript, Rust, Python, JavaScript, Jupyter Notebook, Shell</title>
    </path>

    <path
      d="M 20,33.917702154416816 L 35.2,35.960085676518524 L 50.400000000000006,34.82099829407414 L 65.6,31.415564997048108 L 80.80000000000001,28.47965764197705 L 96,28.371938286095315 L 111.2,31.178946975398944 L 126.4,34.64557682500896 L 141.60000000000002,35.98679162503675 L 156.79999999999998,34.12508037910754 L 172,30.556112788690296 L 187.2,28.147141604276705 L 202.4,28.833496603842576 L 217.6,32.06377091398202 L 232.8,35.24281266908026 L 248,35.81662943706601 L 263.20000000000005,33.324225799907744 L 278.40000000000003,29.767959863396495 L 293.59999999999997,28.004880067904832 L 308.8,29.451417150022518 L 324,32.94544583897757 L 339.2,35.679918125815654 L 354.4,35.45800173707163 L 369.6,32.457980829125596 L 384.8,29.0900252849815 L 400,28.059897920589137 L 415.2,30.195186951330825 L 430.40000000000003,33.780434561638934 L 445.6,35.93530888762902 L 460.79999999999995,34.92861759380649 L 476,31.569120722952007 L 491.2,28.555785525171526 L 506.40000000000003,28.309478375712633 L 521.6,31.02807858669013 L 536.8000000000001,34.52750526217714 L 552,35.99637373525346 L 567.1999999999999,34.25461804487008 L 582.4,30.701537475039935 L 597.6,28.191621392356872 L 612.8000000000001,28.74129712748625 L 628,31.908963790674985 L 643.1999999999999,35.14976752080775 L 658.4,35.86009728090666 L 673.6,33.46928524987174 L 688.8,29.89807242582791 L 704,28.015515344851412 L 719.2,29.334030926300265 L 734.4,32.794344371034754 L 749.6,35.6164939700671 L 764.8,35.533208868416374 L 780,32.611399014333216"
      stroke="url(#thread-1)"
      stroke-width="7.396"
      stroke-linecap="round"
      fill="none"
      opacity="0.9454545454545454"
      class="thread"
      style="animation-delay: 0.1s"
    >
      <title>2026-01-01: 3698 stars, Rust, Python, JavaScript, TypeScript, Jupyter Notebook, Go, Shell</title>
    </path>

    <path
      d="M 20,47.36588393923159 L 35.2,47.74377174032492 L 50.400000000000006,45.10642912042083 L 65.6,41.577969473632834 L 80.80000000000001,40.000211052837024 L 96,41.64387908311228 L 111.2,45.185164798682536 L 126.4,47.77191984231265 L 141.60000000000002,47.32077400870663 L 156.79999999999998,44.195079749923174 L 172,40.91226843452188 L 187.2,40.11631336834682 L 202.4,42.4482760518702 L 217.6,46.02999581940457 L 232.8,47.97675876432159 L 248,46.72064374688989 L 263.20000000000005,43.273324681957455 L 278.40000000000003,40.41126927013431 L 293.59999999999997,40.439574387748834 L 308.8,43.33544311831652 L 324,46.76654536874653 L 339.2,47.96947444636711 L 354.4,45.97539234482341 L 369.6,42.39033101039517 L 384.8,40.101695644707064 L 400,40.95275113030089 L 415.2,44.25805813804264 L 430.40000000000003,47.35552535153865 L 445.6,47.75045543933123 L 460.79999999999995,45.124772060907176 L 476,41.593198267689566 L 491.2,40.00006044331174 L 506.40000000000003,41.62847037078235 L 521.6,45.166908146717134 L 536.8000000000001,47.765519141923605 L 552,47.331384378279196 L 567.1999999999999,44.21415560726585 L 582.4,40.92444610114252 L 597.6,40.11178496240911 L 612.8000000000001,42.43068874747797 L 628,46.01351441583111 L 643.1999999999999,47.97465736930702 L 658.4,46.734614822104945 L 673.6,43.292115935883196 L 688.8,40.4197462436168 L 704,40.43090973390497 L 719.2,43.31661534162511 L 734.4,46.752718343764386 L 749.6,47.97178444668405 L 764.8,45.99197889824423 L 780,42.407835321586454"
      stroke="url(#thread-2)"
      stroke-width="7.406"
      stroke-linecap="round"
      fill="none"
      opacity="0.8909090909090909"
      class="thread"
      style="animation-delay: 0.2s"
    >
      <title>2025-12-31: 3703 stars, Go, Python, TypeScript, Rust, Shell</title>
    </path>

    <path
      d="M 20,59.98997994641622 L 35.2,58.114958196081616 L 50.400000000000006,53.986974840045484 L 65.6,52.00336880791637 L 80.80000000000001,54.2771786644775 L 96,58.38622589339275 L 111.2,59.95334329584384 L 126.4,57.30915728993668 L 141.60000000000002,53.27039000317201 L 156.79999999999998,52.13934284666149 L 172,55.12086508058301 L 187.2,59.03888677976467 L 202.4,59.71973090656298 L 217.6,56.43812748638181 L 232.8,52.68980826678224 L 248,52.46767452747592 L 263.20000000000005,56.008354484999366 L 278.40000000000003,59.54013481794684 L 293.59999999999997,59.30078254003792 L 308.8,55.5452679354915 L 324,52.27415717595588 L 339.2,52.97200469039553 L 354.4,56.895427626336286 L 369.6,59.864995272580224 L 384.8,58.71737234197309 L 400,54.675065456759626 L 415.2,52.044146589294506 L 430.40000000000003,53.6272050328774 L 445.6,57.73788599355459 L 460.79999999999995,59.99728193790428 L 476,57.99856878584374 L 491.2,53.87087797871576 L 506.40000000000003,52.01123680807428 L 521.6,54.4006301300736 L 536.8000000000001,58.49375401135105 L 552,59.930403617133535 L 567.1999999999999,57.18018633319782 L 582.4,53.17277422565067 L 597.6,52.17706756554918 L 612.8000000000001,55.25374399650162 L 628,59.12537047754066 L 643.1999999999999,59.66769252951928 L 658.4,56.30300097440418 L 673.6,52.61553728928315 L 688.8,52.533376327071984 L 704,56.1440401455079 L 719.2,59.60126503635168 L 734.4,59.222238282180655 L 749.6,55.41071856071387 L 764.8,52.2269315576166 L 780,53.06240997173793"
      stroke="url(#thread-3)"
      stroke-width="8"
      stroke-linecap="round"
      fill="none"
      opacity="0.8363636363636364"
      class="thread"
      style="animation-delay: 0.30000000000000004s"
    >
      <title>2025-12-30: 4315 stars, Go, Shell, Rust, Python, Swift, TypeScript</title>
    </path>

    <path
      d="M 20,71.63718970730272 L 35.2,69.24968725314355 L 50.400000000000006,66.06088614205505 L 65.6,64.11544358015217 L 80.80000000000001,64.66077607749737 L 96,67.34721679016359 L 111.2,70.45222167397912 L 126.4,71.9848636094573 L 141.60000000000002,70.96241358070796 L 156.79999999999998,68.04046588362657 L 172,65.09257148818537 L 187.2,64.00891837053163 L 202.4,65.48434420750729 L 217.6,68.5728069085065 L 232.8,71.29398619094515 L 248,71.90306366222381 L 263.20000000000005,70.00949924243542 L 278.40000000000003,66.82744521053525 L 293.59999999999997,64.3972325498347 L 308.8,64.27711204361857 L 324,66.54410488263562 L 339.2,69.74461672749949 L 354.4,71.82648145718697 L 369.6,71.45480875605243 L 384.8,68.86791491922271 L 400,65.7245145985886 L 415.2,64.040154042845 L 430.40000000000003,64.8948441488839 L 445.6,67.7405581745448 L 460.79999999999995,70.75262613057156 L 476,71.99971199535332 L 491.2,70.68218512049265 L 506.40000000000003,67.64484288440443 L 521.6,64.8352271606974 L 536.8000000000001,64.05486173080628 L 552,65.80411640270732 L 567.1999999999999,68.96137021427923 L 582.4,71.50219406741469 L 597.6,71.79741335391478 L 612.8000000000001,69.6577336585751 L 628,66.45511621555387 L 643.1999999999999,64.24307725404843 L 658.4,64.43997472279429 L 673.6,66.91955809241942 L 688.8,70.09192011306843 L 704,71.92294431276372 L 719.2,71.23857916114828 L 734.4,68.47763914997533 L 749.6,65.41043722534415 L 764.8,64.00366127380845 L 780,65.15933512391449"
      stroke="url(#thread-4)"
      stroke-width="6.556"
      stroke-linecap="round"
      fill="none"
      opacity="0.7818181818181817"
      class="thread"
      style="animation-delay: 0.4s"
    >
      <title>2025-12-29: 3278 stars, Shell, Go, JavaScript, TypeScript, Rust, Python</title>
    </path>

    <path
      d="M 20,82.39388857641583 L 35.2,78.7714073836277 L 50.400000000000006,76.18438874292005 L 65.6,76.8131818508366 L 80.80000000000001,80.12783747312558 L 96,83.33475118454015 L 111.2,83.73112385404848 L 126.4,80.98289108107168 L 141.60000000000002,77.40627394890123 L 156.79999999999998,76.01565904438417 L 172,77.98306192320898 L 187.2,81.65034792077577 L 202.4,83.92671438399519 L 217.6,82.8936309586515 L 232.8,79.42178430349819 L 248,76.4372600469774 L 263.20000000000005,76.45542663768693 L 278.40000000000003,79.46097320355412 L 293.59999999999997,82.92081361332836 L 308.8,83.91898114805427 L 324,81.61421639502024 L 339.2,77.94898389562032 L 354.4,76.01235560684148 L 369.6,77.43652925118943 L 384.8,81.02120583880323 L 400,83.7452062429894 L 415.2,83.31273251347594 L 430.40000000000003,80.08827516217232 L 445.6,76.78941916685102 L 460.79999999999995,76.19645296677302 L 476,78.80913074135314 L 491.2,82.42547767796492 L 506.40000000000003,83.99762275875281 L 521.6,82.20055610175925 L 536.8000000000001,78.54885235289387 L 552,76.12018138649377 L 567.1999999999999,76.96143637407894 L 582.4,80.36360439730106 L 597.6,83.4593252449828 L 612.8000000000001,83.63951355656403 L 628,80.75230593446395 L 643.1999999999999,77.2310519959002 L 658.4,76.04347801658055 L 673.6,78.19047588452692 L 688.8,81.86254759199501 L 704,83.96485707130229 L 719.2,82.72556985942376 L 734.4,79.1891619544014 L 749.6,76.33613145278436 L 764.8,76.57102336404112 L 780,79.69586988773743"
      stroke="url(#thread-5)"
      stroke-width="7.59"
      stroke-linecap="round"
      fill="none"
      opacity="0.7272727272727273"
      class="thread"
      style="animation-delay: 0.5s"
    >
      <title>2025-12-28: 3795 stars, Shell, Rust, Python, JavaScript, TypeScript</title>
    </path>

    <path
      d="M 20,92.56448003223947 L 35.2,88.25534595626885 L 50.400000000000006,89.81831462681224 L 65.6,94.80244864996597 L 80.80000000000001,95.3919800683801 L 96,90.66244723064486 L 111.2,88.03037044594245 L 126.4,91.62318715869074 L 141.60000000000002,95.80689523137067 L 156.79999999999998,94.02089831054235 L 172,89.0658709849888 L 187.2,88.71193813878169 L 202.4,93.51411233490359 L 217.6,95.94196220186552 L 232.8,92.18830456455483 L 248,88.1393609708406 L 263.20000000000005,90.14439960931082 L 278.40000000000003,95.0592600960342 L 293.59999999999997,95.17680435476136 L 308.8,90.3127077572495 L 324,88.09450402383645 L 339.2,92.00062402775818 L 354.4,95.90576547529797 L 369.6,93.68616057594038 L 384.8,88.8224374126757 L 400,88.94154411255516 L 415.2,93.85670593715903 L 430.40000000000003,95.86031227339608 L 445.6,91.81044877282424 L 460.79999999999995,88.05782615717935 L 476,90.48704292624765 L 491.2,95.28877242530015 L 506.40000000000003,94.93328062547343 L 521.6,89.97802473102384 L 536.8000000000001,88.1934880516684 L 552,92.37805532835284 L 567.1999999999999,95.96978286442857 L 582.4,93.33637649252697 L 597.6,88.60735862207281 L 612.8000000000001,89.19844202682569 L 628,94.18273133970123 L 643.1999999999999,95.74421508894432 L 658.4,91.43428442965586 L 673.6,88.01146908611327 L 688.8,90.84318702133886 L 704,95.48893759879773 L 719.2,94.66358194933724 L 734.4,89.66138467509374 L 749.6,88.326439251635 L 764.8,92.75211307578672 L 780,95.99837614358039"
      stroke="url(#thread-6)"
      stroke-width="8"
      stroke-linecap="round"
      fill="none"
      opacity="0.6727272727272728"
      class="thread"
      style="animation-delay: 0.6000000000000001s"
    >
      <title>2025-12-27: 5384 stars, Shell, Python, Rust, C, Go</title>
    </path>

    <path
      d="M 20,102.59686708924153 L 35.2,100.13095683410849 L 50.400000000000006,100.93858957182577 L 65.6,104.33643860481136 L 80.80000000000001,107.44963166729403 L 96,107.64413990559667 L 111.2,104.75539263563894 L 126.4,101.2275182835524 L 141.60000000000002,100.0454017083997 L 156.79999999999998,102.20921511436755 L 172,105.88818641925577 L 187.2,107.96958975787251 L 202.4,106.69237904665614 L 217.6,103.13718430052984 L 232.8,100.31200577960918 L 248,100.60718728575247 L 263.20000000000005,103.77297989923382 L 278.40000000000003,107.13085102624811 L 293.59999999999997,107.83975314485613 L 308.8,105.29989414535902 L 324,101.66021299642183 L 339.2,100.00019271502131 L 354.4,101.72435310803739 L 369.6,105.37390632247714 L 384.8,107.8610167256226 L 400,107.0813751941131 L 415.2,103.6946254597393 L 430.40000000000003,100.56624882786227 L 445.6,100.34312075662078 L 460.79999999999995,103.2140267681201 L 476,106.74993367401902 L 491.2,107.95916038447639 L 506.40000000000003,105.81859719121039 L 521.6,102.13934449853886 L 536.8000000000001,100.0343662498985 L 552,101.28465492856941 L 567.1999999999999,104.83235887262522 L 582.4,107.67581568420138 L 597.6,107.40921655685547 L 612.8000000000001,104.25812726171068 L 628,100.88864012177422 L 643.1999999999999,100.15163080410439 L 658.4,102.67067252411333 L 673.6,106.31443952045285 L 688.8,107.99999179813892 L 704,106.30120728741925 L 719.2,102.65540366426441 L 734.4,100.14724408495557 L 749.6,100.89884708468483 L 764.8,104.27429193895391 L 780,107.41766224242096"
      stroke="url(#thread-7)"
      stroke-width="7.606"
      stroke-linecap="round"
      fill="none"
      opacity="0.6181818181818182"
      class="thread"
      style="animation-delay: 0.7000000000000001s"
    >
      <title>2025-12-26: 3803 stars, Python, Shell, Go, TypeScript</title>
    </path>

    <path
      d="M 20,112.9727900187683 L 35.2,112.05767552637639 L 50.400000000000006,114.01816035680834 L 65.6,117.42423313263565 L 80.80000000000001,119.79144574889169 L 96,119.393112580933 L 111.2,116.51978469722287 L 126.4,113.26731690928906 L 141.60000000000002,112.00811520021703 L 156.79999999999998,113.6606629688575 L 172,117.01956343058994 L 187.2,119.63477677823623 L 202.4,119.59872138531009 L 217.6,116.937696675965 L 232.8,113.59269987237454 L 248,112.00362921417079 L 263.20000000000005,113.32958018911043 L 278.40000000000003,116.60338133499026 L 293.59999999999997,119.43706575026833 L 308.8,119.76369525159913 L 324,117.34502065905714 L 339.2,113.9452648485063 L 354.4,112.0442682217186 L 369.6,113.02865043652669 L 384.8,116.1803861631433 L 400,119.20054511771788 L 415.2,119.88617137850908 L 430.40000000000003,117.7371573505098 L 445.6,114.3210308526501 L 460.79999999999995,112.1295733477827 L 476,112.76127165736438 L 491.2,115.75535416215997 L 506.40000000000003,118.92788555170144 L 521.6,119.96476682768449 L 536.8000000000001,118.10967894153394 L 552,114.71575492552155 L 567.1999999999999,112.25858137011129 L 582.4,112.53046295729297 L 597.6,115.33308457799353 L 612.8000000000001,118.62216578585736 L 628,119.99859413914463 L 643.1999999999999,118.45837910711386 L 658.4,115.12498004293184 L 673.6,112.42983559549621 L 688.8,112.33883051118221 L 704,114.91834546478655 L 719.2,118.28683785284602 L 734.4,119.98727135203183 L 749.6,118.77932050169737 L 764.8,115.54408544224624 L 780,112.64140230801429"
      stroke="url(#thread-8)"
      stroke-width="7.022"
      stroke-linecap="round"
      fill="none"
      opacity="0.5636363636363636"
      class="thread"
      style="animation-delay: 0.8s"
    >
      <title>2025-12-25: 3511 stars, Python, TypeScript</title>
    </path>

    <path
      d="M 20,124.08987952933961 L 35.2,124.51576894125506 L 50.400000000000006,126.6980843555375 L 65.6,129.53670483462986 L 80.80000000000001,131.6006613250259 L 96,131.84949847621522 L 111.2,130.1577756858569 L 126.4,127.3783026120029 L 141.60000000000002,124.91223167465218 L 156.79999999999998,124.00272701677193 L 172,125.10827649506308 L 187.2,127.67156464512779 L 202.4,130.40041942601232 L 217.6,131.91920546422466 L 232.8,131.46229176555946 L 248,129.26001182043174 L 263.20000000000005,126.42255083036689 L 278.40000000000003,124.38029334209098 L 293.59999999999997,124.1627560826688 L 308.8,125.87960115329014 L 324,128.66535457325952 L 339.2,131.11569795481202 L 354.4,131.99539552927368 L 369.6,130.86098540564115 L 384.8,128.2843319077501 L 400,125.56434464477437 L 415.2,124.07218881048227 L 430.40000000000003,124.56007092124601 L 445.6,126.78204608679071 L 460.79999999999995,129.61800060295175 L 476,131.63830934736146 L 491.2,131.82452011301586 L 506.40000000000003,130.08276271013662 L 521.6,127.29106960575942 L 536.8000000000001,124.85675342539164 L 552,124.006970510014 L 567.1999999999999,125.17010255526354 L 582.4,127.75980630949654 L 597.6,130.47059343520854 L 612.8000000000001,131.93593659417039 L 628,131.41714573299672 L 643.1999999999999,129.17574706593464 L 658.4,126.34164582433144 L 673.6,124.34353288148571 L 688.8,124.18867138077361 L 704,125.95512812144877 L 719.2,128.7524195221795 L 734.4,131.1704108158959 L 749.6,131.99017515470106 L 764.8,130.79846342387947 L 780,128.19602610066696"
      stroke="url(#thread-9)"
      stroke-width="5.776"
      stroke-linecap="round"
      fill="none"
      opacity="0.509090909090909"
      class="thread"
      style="animation-delay: 0.9s"
    >
      <title>2025-12-24: 2888 stars, Python, TypeScript</title>
    </path>

    <path
      d="M 20,136.16430290134744 L 35.2,137.88423765414112 L 50.400000000000006,140.67074346276888 L 65.6,143.1191226549175 L 80.80000000000001,143.99512962395573 L 96,142.85716293968807 L 111.2,140.27887981381357 L 126.4,137.56001136272423 L 141.60000000000002,136.07115877904835 L 156.79999999999998,136.56286338670193 L 172,138.78725334716302 L 187.2,141.62299764073592 L 202.4,143.6405771197756 L 217.6,143.82291541963255 L 232.8,142.0780944884622 L 248,139.2856911400037 L 263.20000000000005,136.85337603892754 L 278.40000000000003,136.00729676771323 L 293.59999999999997,137.17396798826718 L 308.8,139.76526232515286 L 324,142.47488961668054 L 339.2,143.93690720539718 L 354.4,143.41430148185955 L 369.6,141.17052175994237 L 384.8,138.33667357791575 L 400,136.34132023992083 L 415.2,136.19033375262833 L 430.40000000000003,137.95982749308334 L 445.6,140.75778690646462 L 460.79999999999995,143.1737404757079 L 476,143.9897885845177 L 491.2,142.79455549651786 L 506.40000000000003,140.19056683049112 L 521.6,137.49051205098914 L 536.8000000000001,136.05550824312309 L 552,136.6089511746063 L 567.1999999999999,138.87184627266396 L 582.4,141.70345180006782 L 597.6,143.67633499104443 L 612.8000000000001,143.79595120207279 L 628,142.00200103859137 L 643.1999999999999,139.19882771463045 L 658.4,136.79953111717617 L 673.6,136.0136139629277 L 688.8,137.23726275678504 L 704,139.85362731772997 L 719.2,142.54377940333694 L 734.4,143.95159394789803 L 749.6,143.36738148740045 L 764.8,141.08564773608185 L 780,138.2566311321295"
      stroke="url(#thread-10)"
      stroke-width="5.776"
      stroke-linecap="round"
      fill="none"
      opacity="0.4545454545454546"
      class="thread"
      style="animation-delay: 1s"
    >
      <title>2025-12-23: 2888 stars, Python, TypeScript</title>
    </path>
  </g>

  <!-- Date markers -->
  <g id="dates">
    <text x="785" y="24" class="date-label">01-02</text>
<text x="785" y="108" class="date-label">12-26</text>
  </g>

</svg>