<?xml version="1.0" encoding="UTF-8"?>
<svg xmlns="http://www.w3.org/2000/svg" viewBox="0 0 800 580" width="800" height="580">
  <title>The Data Tapestry - GitHub Trends Woven in Time</title>
  <desc>A living data art piece that weaves daily GitHub trending repositories into an evolving tapestry. Each thread represents one day of open source activity.</desc>

  <style>
    .thread {
      animation: breathe 8s ease-in-out infinite alternate;
    }

    @keyframes breathe {
      0% {
        opacity: 0.85;
      }
      100% {
        opacity: 1;
      }
    }

    .date-label {
      font-family: ui-monospace, monospace;
      font-size: 8px;
      fill: #666;
    }

    .title {
      font-family: system-ui, sans-serif;
      font-size: 14px;
      fill: #333;
      font-weight: 600;
    }

    .subtitle {
      font-family: system-ui, sans-serif;
      font-size: 10px;
      fill: #888;
    }

    .empty-state {
      font-family: system-ui, sans-serif;
      font-size: 12px;
      fill: #999;
      text-anchor: middle;
    }
  </style>

  <defs>
    
    <linearGradient id="thread-0" x1="0%" y1="0%" x2="100%" y2="0%">
      <stop offset="0%" stop-color="#3572A5" />
      <stop offset="50%" stop-color="#3178c6" />
      <stop offset="100%" stop-color="#89e051" />
    </linearGradient>

    <linearGradient id="thread-1" x1="0%" y1="0%" x2="100%" y2="0%">
      <stop offset="0%" stop-color="#3178c6" />
      <stop offset="50%" stop-color="#3572A5" />
      <stop offset="100%" stop-color="#8b8b8b" />
    </linearGradient>

    <linearGradient id="thread-2" x1="0%" y1="0%" x2="100%" y2="0%">
      <stop offset="0%" stop-color="#3178c6" />
      <stop offset="50%" stop-color="#f1e05a" />
      <stop offset="100%" stop-color="#3572A5" />
    </linearGradient>

    <linearGradient id="thread-3" x1="0%" y1="0%" x2="100%" y2="0%">
      <stop offset="0%" stop-color="#3572A5" />
      <stop offset="50%" stop-color="#3178c6" />
      <stop offset="100%" stop-color="#f1e05a" />
    </linearGradient>

    <linearGradient id="thread-4" x1="0%" y1="0%" x2="100%" y2="0%">
      <stop offset="0%" stop-color="#3572A5" />
      <stop offset="50%" stop-color="#8b8b8b" />
      <stop offset="100%" stop-color="#3178c6" />
    </linearGradient>

    <linearGradient id="thread-5" x1="0%" y1="0%" x2="100%" y2="0%">
      <stop offset="0%" stop-color="#3572A5" />
      <stop offset="50%" stop-color="#f1e05a" />
      <stop offset="100%" stop-color="#8b8b8b" />
    </linearGradient>

    <linearGradient id="thread-6" x1="0%" y1="0%" x2="100%" y2="0%">
      <stop offset="0%" stop-color="#3572A5" />
      <stop offset="50%" stop-color="#3178c6" />
      <stop offset="100%" stop-color="#dea584" />
    </linearGradient>

    <linearGradient id="thread-7" x1="0%" y1="0%" x2="100%" y2="0%">
      <stop offset="0%" stop-color="#3572A5" />
      <stop offset="50%" stop-color="#3178c6" />
      <stop offset="100%" stop-color="#f1e05a" />
    </linearGradient>

    <linearGradient id="thread-8" x1="0%" y1="0%" x2="100%" y2="0%">
      <stop offset="0%" stop-color="#3572A5" />
      <stop offset="50%" stop-color="#3178c6" />
      <stop offset="100%" stop-color="#f1e05a" />
    </linearGradient>

    <linearGradient id="thread-9" x1="0%" y1="0%" x2="100%" y2="0%">
      <stop offset="0%" stop-color="#3572A5" />
      <stop offset="50%" stop-color="#3178c6" />
      <stop offset="100%" stop-color="#f1e05a" />
    </linearGradient>

    <linearGradient id="thread-10" x1="0%" y1="0%" x2="100%" y2="0%">
      <stop offset="0%" stop-color="#3178c6" />
      <stop offset="50%" stop-color="#3572A5" />
      <stop offset="100%" stop-color="#f1e05a" />
    </linearGradient>

    <linearGradient id="thread-11" x1="0%" y1="0%" x2="100%" y2="0%">
      <stop offset="0%" stop-color="#3572A5" />
      <stop offset="50%" stop-color="#3178c6" />
      <stop offset="100%" stop-color="#89e051" />
    </linearGradient>

    <linearGradient id="thread-12" x1="0%" y1="0%" x2="100%" y2="0%">
      <stop offset="0%" stop-color="#3178c6" />
      <stop offset="50%" stop-color="#3572A5" />
      <stop offset="100%" stop-color="#89e051" />
    </linearGradient>

    <linearGradient id="thread-13" x1="0%" y1="0%" x2="100%" y2="0%">
      <stop offset="0%" stop-color="#3572A5" />
      <stop offset="50%" stop-color="#3178c6" />
      <stop offset="100%" stop-color="#8b8b8b" />
    </linearGradient>

    <linearGradient id="thread-14" x1="0%" y1="0%" x2="100%" y2="0%">
      <stop offset="0%" stop-color="#3178c6" />
      <stop offset="50%" stop-color="#3572A5" />
      <stop offset="100%" stop-color="#dea584" />
    </linearGradient>

    <linearGradient id="thread-15" x1="0%" y1="0%" x2="100%" y2="0%">
      <stop offset="0%" stop-color="#3572A5" />
      <stop offset="50%" stop-color="#3178c6" />
      <stop offset="100%" stop-color="#8b8b8b" />
    </linearGradient>

    <linearGradient id="thread-16" x1="0%" y1="0%" x2="100%" y2="0%">
      <stop offset="0%" stop-color="#3572A5" />
      <stop offset="50%" stop-color="#3178c6" />
      <stop offset="100%" stop-color="#41b883" />
    </linearGradient>

    <linearGradient id="thread-17" x1="0%" y1="0%" x2="100%" y2="0%">
      <stop offset="0%" stop-color="#3178c6" />
      <stop offset="50%" stop-color="#f1e05a" />
      <stop offset="100%" stop-color="#89e051" />
    </linearGradient>

    <linearGradient id="thread-18" x1="0%" y1="0%" x2="100%" y2="0%">
      <stop offset="0%" stop-color="#3178c6" />
      <stop offset="50%" stop-color="#3572A5" />
      <stop offset="100%" stop-color="#f1e05a" />
    </linearGradient>

    <linearGradient id="thread-19" x1="0%" y1="0%" x2="100%" y2="0%">
      <stop offset="0%" stop-color="#3178c6" />
      <stop offset="50%" stop-color="#3572A5" />
      <stop offset="100%" stop-color="#f1e05a" />
    </linearGradient>

    <linearGradient id="thread-20" x1="0%" y1="0%" x2="100%" y2="0%">
      <stop offset="0%" stop-color="#3178c6" />
      <stop offset="50%" stop-color="#f1e05a" />
      <stop offset="100%" stop-color="#3572A5" />
    </linearGradient>

    <linearGradient id="thread-21" x1="0%" y1="0%" x2="100%" y2="0%">
      <stop offset="0%" stop-color="#3572A5" />
      <stop offset="50%" stop-color="#3178c6" />
      <stop offset="100%" stop-color="#89e051" />
    </linearGradient>

    <linearGradient id="thread-22" x1="0%" y1="0%" x2="100%" y2="0%">
      <stop offset="0%" stop-color="#3178c6" />
      <stop offset="50%" stop-color="#89e051" />
      <stop offset="100%" stop-color="#3572A5" />
    </linearGradient>

    <linearGradient id="thread-23" x1="0%" y1="0%" x2="100%" y2="0%">
      <stop offset="0%" stop-color="#3572A5" />
      <stop offset="50%" stop-color="#3178c6" />
      <stop offset="100%" stop-color="#89e051" />
    </linearGradient>

    <linearGradient id="thread-24" x1="0%" y1="0%" x2="100%" y2="0%">
      <stop offset="0%" stop-color="#3178c6" />
      <stop offset="50%" stop-color="#3572A5" />
      <stop offset="100%" stop-color="#8b8b8b" />
    </linearGradient>

    <linearGradient id="thread-25" x1="0%" y1="0%" x2="100%" y2="0%">
      <stop offset="0%" stop-color="#3178c6" />
      <stop offset="50%" stop-color="#89e051" />
      <stop offset="100%" stop-color="#3572A5" />
    </linearGradient>

    <linearGradient id="thread-26" x1="0%" y1="0%" x2="100%" y2="0%">
      <stop offset="0%" stop-color="#3572A5" />
      <stop offset="50%" stop-color="#3178c6" />
      <stop offset="100%" stop-color="#89e051" />
    </linearGradient>

    <linearGradient id="thread-27" x1="0%" y1="0%" x2="100%" y2="0%">
      <stop offset="0%" stop-color="#3572A5" />
      <stop offset="50%" stop-color="#3178c6" />
      <stop offset="100%" stop-color="#8b8b8b" />
    </linearGradient>

    <linearGradient id="thread-28" x1="0%" y1="0%" x2="100%" y2="0%">
      <stop offset="0%" stop-color="#3572A5" />
      <stop offset="50%" stop-color="#3178c6" />
      <stop offset="100%" stop-color="#8b8b8b" />
    </linearGradient>

    <linearGradient id="thread-29" x1="0%" y1="0%" x2="100%" y2="0%">
      <stop offset="0%" stop-color="#3178c6" />
      <stop offset="50%" stop-color="#3572A5" />
      <stop offset="100%" stop-color="#dea584" />
    </linearGradient>

    <linearGradient id="thread-30" x1="0%" y1="0%" x2="100%" y2="0%">
      <stop offset="0%" stop-color="#3572A5" />
      <stop offset="50%" stop-color="#3178c6" />
      <stop offset="100%" stop-color="#00ADD8" />
    </linearGradient>

    <linearGradient id="thread-31" x1="0%" y1="0%" x2="100%" y2="0%">
      <stop offset="0%" stop-color="#3572A5" />
      <stop offset="50%" stop-color="#00ADD8" />
      <stop offset="100%" stop-color="#3178c6" />
    </linearGradient>

    <linearGradient id="thread-32" x1="0%" y1="0%" x2="100%" y2="0%">
      <stop offset="0%" stop-color="#3572A5" />
      <stop offset="50%" stop-color="#3178c6" />
      <stop offset="100%" stop-color="#00ADD8" />
    </linearGradient>

    <linearGradient id="thread-33" x1="0%" y1="0%" x2="100%" y2="0%">
      <stop offset="0%" stop-color="#3572A5" />
      <stop offset="50%" stop-color="#00ADD8" />
      <stop offset="100%" stop-color="#DA5B0B" />
    </linearGradient>

    <linearGradient id="thread-34" x1="0%" y1="0%" x2="100%" y2="0%">
      <stop offset="0%" stop-color="#3572A5" />
      <stop offset="50%" stop-color="#3178c6" />
      <stop offset="100%" stop-color="#dea584" />
    </linearGradient>

    <linearGradient id="thread-35" x1="0%" y1="0%" x2="100%" y2="0%">
      <stop offset="0%" stop-color="#dea584" />
      <stop offset="50%" stop-color="#3572A5" />
      <stop offset="100%" stop-color="#3178c6" />
    </linearGradient>

    <linearGradient id="thread-36" x1="0%" y1="0%" x2="100%" y2="0%">
      <stop offset="0%" stop-color="#3572A5" />
      <stop offset="50%" stop-color="#3178c6" />
      <stop offset="100%" stop-color="#dea584" />
    </linearGradient>

    <linearGradient id="thread-37" x1="0%" y1="0%" x2="100%" y2="0%">
      <stop offset="0%" stop-color="#3572A5" />
      <stop offset="50%" stop-color="#dea584" />
      <stop offset="100%" stop-color="#3178c6" />
    </linearGradient>

    <linearGradient id="thread-38" x1="0%" y1="0%" x2="100%" y2="0%">
      <stop offset="0%" stop-color="#3572A5" />
      <stop offset="50%" stop-color="#3178c6" />
      <stop offset="100%" stop-color="#89e051" />
    </linearGradient>

    <linearGradient id="thread-39" x1="0%" y1="0%" x2="100%" y2="0%">
      <stop offset="0%" stop-color="#3572A5" />
      <stop offset="50%" stop-color="#f1e05a" />
      <stop offset="100%" stop-color="#89e051" />
    </linearGradient>

    <linearGradient id="thread-40" x1="0%" y1="0%" x2="100%" y2="0%">
      <stop offset="0%" stop-color="#3572A5" />
      <stop offset="50%" stop-color="#89e051" />
      <stop offset="100%" stop-color="#dea584" />
    </linearGradient>

    <linearGradient id="thread-41" x1="0%" y1="0%" x2="100%" y2="0%">
      <stop offset="0%" stop-color="#3572A5" />
      <stop offset="50%" stop-color="#89e051" />
      <stop offset="100%" stop-color="#00ADD8" />
    </linearGradient>

    <linearGradient id="thread-42" x1="0%" y1="0%" x2="100%" y2="0%">
      <stop offset="0%" stop-color="#3572A5" />
      <stop offset="50%" stop-color="#3178c6" />
      <stop offset="100%" stop-color="#3572A5" />
    </linearGradient>

    <linearGradient id="thread-43" x1="0%" y1="0%" x2="100%" y2="0%">
      <stop offset="0%" stop-color="#3572A5" />
      <stop offset="50%" stop-color="#3178c6" />
      <stop offset="100%" stop-color="#3572A5" />
    </linearGradient>

    <linearGradient id="thread-44" x1="0%" y1="0%" x2="100%" y2="0%">
      <stop offset="0%" stop-color="#3572A5" />
      <stop offset="50%" stop-color="#3178c6" />
      <stop offset="100%" stop-color="#3572A5" />
    </linearGradient>

    <!-- Background pattern -->
    <pattern id="loom" patternUnits="userSpaceOnUse" width="20" height="20">
      <rect width="20" height="20" fill="#fafafa"/>
      <circle cx="10" cy="10" r="0.5" fill="#eee"/>
    </pattern>
  </defs>

  <!-- Background -->
  <rect width="100%" height="100%" fill="url(#loom)"/>

  <!-- Threads -->
  <g id="tapestry">
    
    <path
      d="M 20,20 L 35.2,23.513427999023126 L 50.400000000000006,23.35887377840355 L 65.6,19.697690333950764 L 80.80000000000001,16.352115030664677 L 96,16.814893622931347 L 111.2,20.60289008276403 L 126.4,23.761475578549003 L 141.60000000000002,22.99311976642212 L 156.79999999999998,19.099978107666253 L 172,16.146449925915537 L 187.2,17.215987865962298 L 202.4,21.192005463414617 L 217.6,23.92358177823999 L 232.8,22.55897960188812 L 248,18.522829386765082 L 263.20000000000005,16.02882989914545 L 278.40000000000003,17.68069061562314 L 293.59999999999997,21.753886161250623 L 308.8,23.99604283073397 L 324,22.066372425309773 L 339.2,17.97943074029665 L 354.4,16.001942307266816 L 369.6,18.19838444407604 L 384.8,22.275694447708815 L 400,23.977203161587994 L 415.2,21.526553218831065 L 430.40000000000003,17.48219762291501 L 445.6,16.066401472158976 L 460.79999999999995,18.757241194785063 L 476,22.745508160007333 L 491.2,23.867493215484807 L 506.40000000000003,20.951855654835995 L 521.6,17.042490709258402 L 536.8000000000001,16.220734644774865 L 552,19.344492229676394 L 567.1999999999999,23.152593096140308 L 582.4,23.669419621525886 L 597.6,20.355410298871544 L 612.8000000000001,16.67035632771402 L 628,16.461415654192475 L 643.1999999999999,19.94672016421724 L 658.4,23.487648267601834 L 673.6,23.387507922312338 L 688.8,19.75084460532818 L 704,16.374296924081655 L 719.2,16.782945472804847 L 734.4,20.550165424913487 L 749.6,23.743018406358182 L 764.8,23.02819917532705 L 780,19.15197156031177"
      stroke="url(#thread-0)"
      stroke-width="8"
      stroke-linecap="round"
      fill="none"
      opacity="1"
      class="thread"
      style="animation-delay: 0s"
    >
      <title>2026-02-05: 4267 stars, TypeScript, Python, Shell, JavaScript, Unknown</title>
    </path>

    <path
      d="M 20,33.917702154416816 L 35.2,35.81813089630873 L 50.400000000000006,31.579116673718293 L 65.6,28.016870546979753 L 80.80000000000001,30.859380244775487 L 96,35.53597319470195 L 111.2,34.52682452330299 L 126.4,29.454615819815583 L 141.60000000000002,28.47531053460698 L 156.79999999999998,33.16360296356079 L 172,35.980855812653516 L 187.2,32.39700878451508 L 202.4,28.174783226377784 L 217.6,30.103394516484535 L 232.8,35.08169202961337 L 248,35.104718766613914 L 263.20000000000005,30.135448406935023 L 278.40000000000003,28.164322550637124 L 293.59999999999997,32.36085400364757 L 308.8,35.97714275831543 L 324,33.19830211867998 L 339.2,28.492626671215774 L 354.4,29.4267050960023 L 369.6,34.49856656776627 L 384.8,35.55280597461004 L 400,30.894237141673983 L 415.2,28.013702688727037 L 430.40000000000003,31.543017883860593 L 445.6,35.807146974593884 L 460.79999999999995,33.9494949261531 L 476,28.95711197567963 L 491.2,28.85760409417834 L 506.40000000000003,33.81097704876009 L 521.6,35.85235180244251 L 536.8000000000001,31.69925737407512 L 552,28.029748304355206 L 567.1999999999999,30.744288001432626 L 582.4,35.47797591641786 L 597.6,34.619180139622394 L 612.8000000000001,29.5488191971427 L 628,28.41988539361347 L 643.1999999999999,33.04767131215293 L 658.4,35.9908323602602 L 673.6,32.51685153397142 L 688.8,28.21178853682504 L 704,29.998058929543753 L 719.2,35.003392092531385 L 734.4,35.17935849129932 L 749.6,30.243009296108493 L 764.8,28.131849836056446 L 780,32.240562861922506"
      stroke="url(#thread-1)"
      stroke-width="8"
      stroke-linecap="round"
      fill="none"
      opacity="0.9866666666666667"
      class="thread"
      style="animation-delay: 0.1s"
    >
      <title>2026-02-04: 5465 stars, TypeScript, Unknown, JavaScript, Python, Shell</title>
    </path>

    <path
      d="M 20,47.36588393923159 L 35.2,44.73878478426594 L 50.400000000000006,40.07915530328417 L 65.6,46.20647747506648 L 80.80000000000001,46.26338174266826 L 96,40.09331419208967 L 111.2,44.67124463484311 L 126.4,47.402459896733895 L 141.60000000000002,40.772893682816765 L 156.79999999999998,43.02167958800884 L 172,47.962001578244106 L 187.2,42.002141903928326 L 202.4,41.53875055682269 L 217.6,47.846700796182944 L 232.8,43.57168263951597 L 248,40.47504287244721 L 263.20000000000005,47.07619657953141 L 278.40000000000003,45.21417810190803 L 293.59999999999997,40.01173645116143 L 308.8,45.781727887560095 L 324,46.64986422176847 L 339.2,40.227745659997865 L 354.4,44.183779852305 L 369.6,47.634202490237975 L 384.8,41.08627793747806 L 400,42.55452883903867 L 415.2,47.99953187817184 L 430.40000000000003,42.44110062171418 L 445.6,41.17148300767862 L 460.79999999999995,47.68362631642304 L 476,44.061448565374526 L 491.2,40.270214716699414 L 506.40000000000003,46.740293579505675 L 521.6,45.67133005655583 L 536.8000000000001,40.00423579637471 L 552,45.33021027886895 L 567.1999999999999,46.99653612029663 L 582.4,40.418850082734124 L 597.6,43.69355402919823 L 612.8000000000001,47.811346168875325 L 628,41.44343687537843 L 643.1999999999999,42.1090943144868 L 658.4,47.976974689548875 L 673.6,42.90347966752787 L 688.8,40.84671005229409 L 704,47.46521039650086 L 719.2,44.55029131070072 L 734.4,40.121421476370074 L 749.6,46.36322142166352 L 764.8,46.103372566224465 L 780,40.05676602598897"
      stroke="url(#thread-2)"
      stroke-width="8"
      stroke-linecap="round"
      fill="none"
      opacity="0.9733333333333334"
      class="thread"
      style="animation-delay: 0.2s"
    >
      <title>2026-02-03: 7782 stars, TypeScript, Unknown, JavaScript, Shell, Python</title>
    </path>

    <path
      d="M 20,59.98997994641622 L 35.2,55.01272990098692 L 50.400000000000006,52.63150258411054 L 65.6,59.1077255855031 L 80.80000000000001,57.41219674093543 L 96,52.00330228312623 L 111.2,57.10370829185775 L 126.4,59.301917815332324 L 141.60000000000002,52.81774781066629 L 156.79999999999998,54.70129705502427 L 172,59.99978043560887 L 187.2,54.78085735321869 L 202.4,52.767664925039796 L 217.6,59.25388449088739 L 232.8,57.18402796076724 L 248,52.00077470115371 L 263.20000000000005,57.33346817464513 L 278.40000000000003,59.1598124812356 L 293.59999999999997,52.677442660402534 L 308.8,54.93172391320949 L 324,59.995032811490574 L 339.2,54.55341910519595 L 354.4,52.91558400554176 L 369.6,59.38820827656042 L 384.8,56.95155260097206 L 400,52.01279321333318 L 415.2,57.558377929678336 L 430.40000000000003,59.006214188773185 L 445.6,52.54922240865676 L 460.79999999999995,55.166036335067076 L 476,59.9757543422526 L 491.2,54.3312424016779 L 506.40000000000003,53.0747218101982 L 521.6,59.51020837629069 L 536.8000000000001,56.71561622743292 L 552,52.039314105595864 L 567.1999999999999,57.77761950890362 L 582.4,58.841681609951955 L 597.6,52.43355342171618 L 612.8000000000001,55.40338207290038 L 628,59.94201514808267 L 643.1999999999999,54.11513534998703 L 658.4,53.24449951853342 L 673.6,59.61944104790196 L 688.8,56.477076994529064 L 704,52.0802409154104 L 719.2,57.99039548071474 L 734.4,58.66681318727119 L 749.6,52.33085641405631 L 764.8,55.64289784615103 L 780,59.89393794612179"
      stroke="url(#thread-3)"
      stroke-width="8"
      stroke-linecap="round"
      fill="none"
      opacity="0.96"
      class="thread"
      style="animation-delay: 0.30000000000000004s"
    >
      <title>2026-02-02: 7524 stars, TypeScript, JavaScript, Lua, Unknown, Python, Shell</title>
    </path>

    <path
      d="M 20,71.63718970730272 L 35.2,65.57967109608491 L 50.400000000000006,65.42232864862335 L 65.6,71.54872517597157 L 80.80000000000001,69.0241884929119 L 96,64.00292811114446 L 111.2,68.7255617287824 L 126.4,71.67945143290888 L 141.60000000000002,65.66372894712556 L 156.79999999999998,65.34326992571934 L 172,71.49927591386168 L 187.2,69.12489402621746 L 202.4,64.00829271975623 L 217.6,68.62250779510559 L 232.8,71.71919950886007 L 248,65.74938284231385 L 263.20000000000005,65.26602617136604 L 278.40000000000003,71.44743609058968 L 293.59999999999997,69.22483107826093 L 308.8,64.0163842983554 L 324,68.5190285897455 L 339.2,71.75640678090815 L 354.4,65.83657426643681 L 369.6,65.19065015531456 L 384.8,71.39324112098737 L 400,69.32393137616502 L 415.2,64.02719731910881 L 430.40000000000003,68.41519480543276 L 445.6,71.79104783057743 L 460.79999999999995,65.9252436539051 L 476,65.11719337135419 L 491.2,71.33672802882568 L 506.40000000000003,69.42212721868827 L 521.6,64.04072439500605 L 536.8000000000001,68.31107737713167 L 552,71.82309899252976 L 567.1999999999999,66.01533042944561 L 582.4,65.04570600213393 L 597.6,71.27793542152119 L 612.8000000000001,69.51935152247606 L 628,64.05695628490612 L 643.1999999999999,68.20674743358029 L 658.4,71.85253837073155 L 673.6,66.10677304948425 L 688.8,64.97623688487965 L 704,71.21690346376151 L 719.2,69.61553786788878 L 734.4,64.07588189985043 L 749.6,68.10227624869876 L 764.8,71.87934585341225 L 780,66.1995090441896"
      stroke="url(#thread-4)"
      stroke-width="8"
      stroke-linecap="round"
      fill="none"
      opacity="0.9466666666666667"
      class="thread"
      style="animation-delay: 0.4s"
    >
      <title>2026-02-01: 7128 stars, TypeScript, Python, JavaScript, Roff, Go, Unknown, Shell</title>
    </path>

    <path
      d="M 20,82.39388857641583 L 35.2,76.20229263595007 L 50.400000000000006,80.01124331125303 L 65.6,83.7905868453197 L 80.80000000000001,77.58813430773915 L 96,77.73687552319859 L 111.2,83.84512853300652 L 126.4,79.82796021573598 L 141.60000000000002,76.26382624718481 L 156.79999999999998,82.5382017260268 L 172,82.12870131657856 L 187.2,76.11366717143193 L 202.4,80.3325581002385 L 217.6,83.67571994697595 L 232.8,77.33956605069012 L 248,78.00916356645472 L 263.20000000000005,83.92125363088387 L 278.40000000000003,79.50746126974154 L 293.59999999999997,76.39067682939077 L 308.8,82.77836473483949 L 324,81.84975273013934 L 339.2,76.0501655206312 L 354.4,80.65172301474611 L 369.6,83.53709077522463 L 384.8,77.1081965900125 L 400,78.29432168695449 L 415.2,83.97202916398982 L 430.40000000000003,79.19014641833024 L 445.6,76.54086045253389 L 460.79999999999995,83.0005665650511 L 476,81.55884612438854 L 491.2,76.01219820002082 L 506.40000000000003,80.96667476266711 L 521.6,83.37559552028941 L 536.8000000000001,76.895521650207 L 552,78.59050643489176 L 567.1999999999999,83.99712688585359 L 582.4,78.87806699358508 L 597.6,76.71340623081052 L 612.8000000000001,83.20337075775907 L 628,81.2578621111251 L 643.1999999999999,76.00001065535453 L 658.4,81.27537728857497 L 673.6,83.19227819380812 L 688.8,76.70291610208533 L 704,78.89580307708204 L 719.2,83.99638454827962 L 734.4,78.57324048234483 L 749.6,76.90719871472568 L 764.8,83.38546625315888 L 780,80.94874644914395"
      stroke="url(#thread-5)"
      stroke-width="8"
      stroke-linecap="round"
      fill="none"
      opacity="0.9333333333333333"
      class="thread"
      style="animation-delay: 0.5s"
    >
      <title>2026-01-31: 7532 stars, TypeScript, Python, Roff, JavaScript, Unknown, Shell</title>
    </path>

    <path
      d="M 20,92.56448003223947 L 35.2,88.20128523880605 L 50.400000000000006,94.80961310099893 L 65.6,93.30316116817883 L 80.80000000000001,88.03289352940858 L 96,94.22050079191027 L 111.2,93.99481401239694 L 126.4,88.00766618443812 L 141.60000000000002,93.55125537146198 L 156.79999999999998,94.6144782971065 L 172,88.12651360467058 L 187.2,92.82602847157375 L 202.4,95.13979166724187 L 217.6,88.38514684159712 L 232.8,92.0709919756971 L 248,95.5517966898937 L 263.20000000000005,88.77423237637757 L 278.40000000000003,91.31339353167124 L 293.59999999999997,95.83562498740541 L 308.8,89.27972894651809 L 324,90.58057324254952 L 339.2,95.98103380523514 L 354.4,89.88339426492084 L 369.6,89.89897702091571 L 384.8,95.98277565099997 L 400,90.56344334490181 L 415.2,89.293202212616 L 430.40000000000003,95.84078766522192 L 445.6,91.29533467363893 L 460.79999999999995,88.78510993130062 L 476,95.56019388979166 L 491.2,92.05265586273653 L 506.40000000000003,88.3930361377168 L 521.6,95.15112035228614 L 536.8000000000001,92.80807681467691 L 552,88.1311299342098 L 567.1999999999999,94.62832963934997 L 582.4,93.53433600742609 L 597.6,88.00884295396428 L 612.8000000000001,94.01068814660448 L 628,94.20522430429712 L 643.1999999999999,88.03058827183322 L 658.4,93.32048523089155 L 673.6,94.79653078548355 L 688.8,88.1955811459311 L 704,92.58262883518829 L 719.2,95.286916468231 L 734.4,88.49786733728543 L 749.6,91.8237466143641 L 764.8,95.65868438496003 L 780,88.92653798555139"
      stroke="url(#thread-6)"
      stroke-width="8"
      stroke-linecap="round"
      fill="none"
      opacity="0.92"
      class="thread"
      style="animation-delay: 0.6000000000000001s"
    >
      <title>2026-01-30: 8081 stars, TypeScript, Rust, Roff, Python, JavaScript, Shell, Unknown</title>
    </path>

    <path
      d="M 20,102.59686708924153 L 35.2,102.08449880712712 L 50.400000000000006,107.90906023435075 L 65.6,100.80152847008083 L 80.80000000000001,104.27529487353372 L 96,106.83832090813942 L 111.2,100.01151197195706 L 126.4,106.37956210153028 L 141.60000000000002,104.87545958901282 L 156.79999999999998,100.47513028238947 L 172,107.73590132808235 L 187.2,102.63742968305479 L 202.4,102.04666200325534 L 217.6,107.91799710366101 L 232.8,100.82767374116979 L 248,104.23215382338118 L 263.20000000000005,106.8686143052945 L 278.40000000000003,100.01502211405386 L 293.59999999999997,106.34467661065956 L 308.8,104.91758789657877 L 324,100.45490201117067 L 339.2,107.72023637002766 L 354.4,102.67815141392697 L 369.6,102.00905333327145 L 384.8,107.92647638298257 L 400,100.85418951399693 L 415.2,104.18898565956256 L 430.40000000000003,106.89857267178142 L 445.6,100.01899766894643 L 460.79999999999995,106.30951728075439 L 476,104.95960903738985 L 491.2,100.43508777837654 L 506.40000000000003,107.7041369188191 L 521.6,102.71902752589322 L 536.8000000000001,101.97167718956024 L 552,107.934497082005 L 567.1999999999999,100.88107269173697 L 582.4,104.14579542376589 L 597.6,106.9281925087082 L 612.8000000000001,100.0234381723225 L 628,106.27408821813674 L 643.1999999999999,105.00151810372081 L 658.4,100.41568989814725 L 673.6,107.68760485474073 L 688.8,102.76005324495841 L 704,101.93453793734919 L 719.2,107.94205826397632 L 734.4,100.90832013465491 L 749.6,104.10258816025718 L 764.8,106.95747035672032 L 780,100.02834310556763"
      stroke="url(#thread-7)"
      stroke-width="8"
      stroke-linecap="round"
      fill="none"
      opacity="0.9066666666666666"
      class="thread"
      style="animation-delay: 0.7000000000000001s"
    >
      <title>2026-01-29: 9087 stars, TypeScript, JavaScript, Python, Shell, Unknown</title>
    </path>

    <path
      d="M 20,112.9727900187683 L 35.2,118.24375353221396 L 50.400000000000006,114.69387850324247 L 65.6,116.27874161474325 L 80.80000000000001,116.76779150816886 L 96,114.23843281501772 L 111.2,118.63429986402589 L 126.4,112.6739787491961 L 141.60000000000002,119.78920092411475 L 156.79999999999998,112.00798769446646 L 172,119.9205195668965 L 187.2,112.42036479372237 L 202.4,118.99278249430432 L 217.6,113.79971401477869 L 232.8,117.25660068591075 L 248,115.77342972434364 L 263.20000000000005,115.18097148651482 L 278.40000000000003,117.80834919562268 L 293.59999999999997,113.32658766377374 L 308.8,119.35477663967485 L 324,112.19437664642764 L 339.2,119.99497333715708 L 354.4,112.09018426140575 L 369.6,119.5560020128274 L 384.8,113.04215615087949 L 400,118.1564426359945 L 415.2,114.79313474855704 L 430.40000000000003,116.17436023904723 L 445.6,116.87012563119262 L 460.79999999999995,114.14517765434519 L 476,118.71206819763347 L 491.2,112.61704095722284 L 506.40000000000003,119.82139579399744 L 521.6,112.00274796066007 L 536.8000000000001,119.89844412551325 L 552,112.46823853508047 L 567.1999999999999,118.92240001309591 L 582.4,113.88776902715423 L 597.6,117.15692368801697 L 612.8000000000001,115.8778795777668 L 628,115.07892586594285 L 643.1999999999999,117.90097869760422 L 658.4,113.2497391540574 L 673.6,119.41056364664112 L 688.8,112.16348444849538 L 704,119.99884802288662 L 719.2,112.1135933301092 L 734.4,119.50691770276671 L 749.6,113.11354296006887 L 764.8,118.06765854699424 L 780,114.89321547449815"
      stroke="url(#thread-8)"
      stroke-width="8"
      stroke-linecap="round"
      fill="none"
      opacity="0.8933333333333333"
      class="thread"
      style="animation-delay: 0.8s"
    >
      <title>2026-01-28: 11454 stars, TypeScript, JavaScript, Python, Shell</title>
    </path>

    <path
      d="M 20,124.08987952933961 L 35.2,131.9219956876227 L 50.400000000000006,124.06696246016791 L 65.6,131.943243681062 L 80.80000000000001,124.04738805733822 L 96,131.96114033401759 L 111.2,124.03117295702471 L 126.4,131.9756704362255 L 141.60000000000002,124.01833094034934 L 156.79999999999998,131.98682163863404 L 172,124.00887292166942 L 187.2,131.99458446389946 L 202.4,124.00280693930145 L 217.6,131.9989523144405 L 232.8,124.00013814868953 L 248,131.99992147804568 L 263.20000000000005,124.00086881802369 L 278.40000000000003,131.99749113102834 L 293.59999999999997,124.00499832631219 L 308.8,131.9916633389267 L 324,124.01252316390934 L 339.2,131.98244305474825 L 354.4,124.02343693549821 L 369.6,131.9698381147603 L 384.8,124.03773036552616 L 400,131.95385923183002 L 415.2,124.05539130608787 L 430.40000000000003,131.93451998631954 L 445.6,124.07640474724997 L 460.79999999999995,131.91183681454422 L 476,124.10075282980772 L 491.2,131.88582899480326 L 506.40000000000003,124.12841486046361 L 521.6,131.85651863099545 L 536.8000000000001,124.15936732941438 L 552,131.82393063383319 L 567.1999999999999,124.19358393033181 L 582.4,131.78809269967064 L 597.6,124.2310355827205 L 612.8000000000001,131.74903528696532 L 628,124.27169045663317 L 643.1999999999999,131.70679159039116 L 658.4,124.31551399972243 L 673.6,131.6613975126267 L 688.8,124.36246896660722 L 704,131.61289163384166 L 719.2,124.41251545052693 L 734.4,131.56131517890802 L 749.6,124.46561091725816 L 764.8,131.50671198236273 L 780,124.52171024126429"
      stroke="url(#thread-9)"
      stroke-width="8"
      stroke-linecap="round"
      fill="none"
      opacity="0.88"
      class="thread"
      style="animation-delay: 0.9s"
    >
      <title>2026-01-27: 12558 stars, TypeScript, JavaScript, Python, Shell</title>
    </path>

    <path
      d="M 20,136.16430290134744 L 35.2,140.4028150420323 L 50.400000000000006,143.98526465646478 L 65.6,141.07693680361754 L 80.80000000000001,136.4146082152694 L 96,137.59178646367502 L 111.2,142.69120815270628 L 126.4,143.40747470823612 L 141.60000000000002,138.5740069391793 L 156.79999999999998,136.06304581034217 L 172,139.96417917126263 L 187.2,143.92365370850888 L 202.4,141.4926961726216 L 217.6,136.63059302460286 L 232.8,137.2562235051465 L 248,142.35062687362299 L 263.20000000000005,143.6165778655317 L 278.40000000000003,138.99222943148476 L 293.59999999999997,136.00923108636994 L 308.8,139.5259749603047 L 324,143.81476067130782 L 339.2,141.8904677682662 L 354.4,136.88718095876573 L 369.6,136.95372449535967 L 384.8,141.9817193053517 L 400,143.78209935887222 L 415.2,139.4225960887699 L 430.40000000000003,136.00350722513664 L 445.6,139.09348300019676 L 460.79999999999995,143.65989776318807 L 476,142.26545823377677 L 491.2,137.1812799983028 L 506.40000000000003,136.68793470635947 L 521.6,141.58893097796775 L 536.8000000000001,143.90204456727392 L 552,139.85992076663723 L 567.1999999999999,136.04594320217834 L 582.4,138.67191504635213 L 597.6,143.46093116357994 L 612.8000000000001,142.6131487369695 L 628,137.5093460952253 L 643.1999999999999,136.46205704478788 L 658.4,141.17699519724405 L 673.6,143.9749680879389 L 688.8,140.29893347288458 L 704,136.13602764166964 L 719.2,138.2663512141677 L 734.4,143.22025852457466 L 749.6,142.92934942455375 L 764.8,137.86742588065175 L 780,136.2788134551758"
      stroke="url(#thread-10)"
      stroke-width="8"
      stroke-linecap="round"
      fill="none"
      opacity="0.8666666666666667"
      class="thread"
      style="animation-delay: 1s"
    >
      <title>2026-01-26: 5507 stars, TypeScript, JavaScript, Python, Rust, Shell</title>
    </path>

    <path
      d="M 20,149.17783869771844 L 35.2,153.00041065116352 L 50.400000000000006,155.8419604224652 L 65.6,154.91600892519102 L 80.80000000000001,151.13056224400069 L 96,148.1977031713452 L 111.2,148.99345047414715 L 126.4,152.73747883847517 L 141.60000000000002,155.7583210806202 L 156.79999999999998,155.09368042290066 L 172,151.39531644786288 L 187.2,148.28991694909678 L 202.4,148.82269719811444 L 217.6,152.47120249905043 L 232.8,155.6576374458651 L 248,155.25732182734072 L 263.20000000000005,151.66281294099716 L 278.40000000000003,148.39895625635575 L 293.59999999999997,148.66635324966649 L 308.8,152.20278921782602 L 324,155.5403661267028 L 339.2,155.4061910113832 L 354.4,151.9318386049702 L 369.6,148.52432659096235 L 384.8,148.52512766137264 L 400,151.93345627094416 L 415.2,155.4070389581391 L 430.40000000000003,155.53961284112566 L 445.6,152.20117338643405 L 460.79999999999995,148.66545938821457 L 476,148.39966090280464 L 491.2,151.66442510530584 L 506.40000000000003,155.25826058976762 L 521.6,155.6569822376783 L 536.8000000000001,152.46959583016763 L 552,148.8217145993555 L 567.1999999999999,148.29052197595513 L 582.4,151.39691579920952 L 597.6,155.0947057436343 L 612.8000000000001,155.75776692124637 L 628,152.73588861847617 L 643.1999999999999,148.9923835942468 L 658.4,148.1982058347668 L 673.6,151.13214152919636 L 688.8,154.9171161543182 L 704,155.84150982506233 L 719.2,152.9988440918258 L 734.4,149.1766923750641 L 749.6,148.12313114047626 L 764.8,150.8713030681957 L 780,154.72629720510432"
      stroke="url(#thread-11)"
      stroke-width="8"
      stroke-linecap="round"
      fill="none"
      opacity="0.8533333333333333"
      class="thread"
      style="animation-delay: 1.1s"
    >
      <title>2026-01-25: 4122 stars, Shell, Python, TypeScript</title>
    </path>

    <path
      d="M 20,162.88233800720428 L 35.2,167.71137306148174 L 50.400000000000006,165.85148395683441 L 65.6,160.65470697711402 L 80.80000000000001,161.48707633994178 L 96,166.84843147187632 L 111.2,167.07612265474174 L 126.4,161.75978719294994 L 141.60000000000002,160.48093686616835 L 156.79999999999998,165.5444148428827 L 172,167.82442869922224 L 187.2,163.21176076460767 L 202.4,160.01971866773175 L 217.6,164.00124805550118 L 232.8,167.9805281009234 L 248,164.78579191610567 L 263.20000000000005,160.1748406420324 L 278.40000000000003,162.45788800872944 L 293.59999999999997,167.52024911815732 L 308.8,166.238144451225 L 324,160.92228240044582 L 339.2,161.15332152747135 L 354.4,166.51486521228603 L 369.6,167.34392391210068 L 384.8,162.14630378692908 L 400,160.28955863646755 L 415.2,165.12005846668094 L 430.40000000000003,167.93190212488472 L 445.6,163.6573670553276 L 460.79999999999995,160.0003516323532 L 476,163.5518124661083 L 491.2,167.91103160750717 L 506.40000000000003,165.22148648500618 L 521.6,160.3304837553047 L 536.8000000000001,162.05296758545603 L 552,167.2845441260699 L 567.1999999999999,166.59646069395342 L 582.4,161.22883457621163 L 597.6,160.85561754763714 L 612.8000000000001,166.1494502610554 L 628,167.56937713385724 L 643.1999999999999,162.5562959130348 L 658.4,160.1451700832946 L 673.6,164.6815174747192 L 688.8,167.98958125631484 L 704,164.10731250941402 L 719.2,160.03163684144025 L 734.4,163.10805280180836 L 749.6,167.79200512773048 L 764.8,165.64171193603372 L 780,160.53259826226264"
      stroke="url(#thread-12)"
      stroke-width="8"
      stroke-linecap="round"
      fill="none"
      opacity="0.8400000000000001"
      class="thread"
      style="animation-delay: 1.2000000000000002s"
    >
      <title>2026-01-24: 5856 stars, Shell, TypeScript, Python, Rust</title>
    </path>

    <path
      d="M 20,176.86047995235126 L 35.2,179.96740159695565 L 50.400000000000006,177.81983207815762 L 65.6,173.2620473744655 L 80.80000000000001,172.3304516322652 L 96,176.25886539521204 L 111.2,179.84443362099518 L 126.4,178.3383714695291 L 141.60000000000002,173.7353321346034 L 156.79999999999998,172.13165573180407 L 172,175.65127735606387 L 187.2,179.6327529182882 L 202.4,178.8029514667066 L 217.6,174.26087553185687 L 232.8,172.0221243113308 L 248,175.05173631152442 L 263.20000000000005,179.3372441543506 L 278.40000000000003,179.20285159369672 L 293.59999999999997,174.82655032138564 L 308.8,172.00438487734763 L 324,174.47407704874345 L 339.2,178.96472638 L 354.4,179.5288439032415 L 369.6,175.4193032012009 L 384.8,172.07884677846477 L 400,173.93162941897694 L 415.2,178.52379567746388 L 430.40000000000003,179.77340591751218 L 445.6,176.02545602532865 L 460.79999999999995,172.24379175942323 L 476,173.43691074287548 L 491.2,178.02462680036905 L 506.40000000000003,179.93089421402223 L 521.6,176.63102143564166 L 536.8000000000001,172.49541361091718 L 552,173.00133696542764 L 567.1999999999999,177.4787383848944 L 582.4,179.99767465115514 L 597.6,177.22202562895626 L 612.8000000000001,172.82790600027047 L 628,172.63495922584036 L 643.1999999999999,176.8987271499874 L 658.4,179.9722062282706 L 673.6,177.78483081134064 L 688.8,173.23359645621943 L 704,172.3462319211725 L 719.2,176.29797722014212 L 734.4,179.8550766452649 L 749.6,178.30644989879795 L 764.8,173.70312341601897 L 780,172.14181761579843"
      stroke="url(#thread-13)"
      stroke-width="8"
      stroke-linecap="round"
      fill="none"
      opacity="0.8266666666666667"
      class="thread"
      style="animation-delay: 1.3s"
    >
      <title>2026-01-23: 4879 stars, Unknown, Rust, Python, Shell, TypeScript, JavaScript</title>
    </path>

    <path
      d="M 20,190.62794639487515 L 35.2,190.9803373507696 L 50.400000000000006,185.29265766281176 L 65.6,185.09178602679694 L 80.80000000000001,190.7848169186449 L 96,190.83402667914785 L 111.2,185.13968484332065 L 126.4,185.2421718817695 L 141.60000000000002,190.93378347130752 L 156.79999999999998,190.6796723674438 L 172,184.994830276848 L 187.2,185.4003851072306 L 202.4,191.07442325044454 L 217.6,190.51771250981423 L 232.8,184.85850509501992 L 248,185.56597665651057 L 263.20000000000005,191.2063370869963 L 278.40000000000003,190.34860678675977 L 293.59999999999997,184.73109622104528 L 308.8,185.73847654150634 L 324,191.32915057819838 L 339.2,190.17283516044247 L 354.4,184.61296527153596 L 369.6,185.91739516661906 L 384.8,191.4425151502255 L 400,189.99089651243915 L 415.2,184.50444753015293 L 430.40000000000003,186.10222471834257 L 445.6,191.5461090475267 L 460.79999999999995,189.8033072277975 L 476,184.40585099599187 L 491.2,186.29244060655864 L 506.40000000000003,191.63963824604406 L 521.6,189.61059972941246 L 536.8000000000001,184.31745550940852 L 552,186.4875029534482 L 567.1999999999999,191.72283728772254 L 582.4,189.4133209668839 L 597.6,184.23951195776553 L 612.8000000000001,186.6868581257927 L 628,191.79547003394308 L 643.1999999999999,189.212030864144 L 658.4,184.17224156335433 L 673.6,186.88994030631628 L 688.8,191.85733033573993 L 704,189.00730073025974 L 719.2,184.11583525551404 L 734.4,187.0961730996099 L 749.6,191.90824261890037 L 764.8,188.799711637923 L 780,184.0704531287286"
      stroke="url(#thread-14)"
      stroke-width="8"
      stroke-linecap="round"
      fill="none"
      opacity="0.8133333333333334"
      class="thread"
      style="animation-delay: 1.4000000000000001s"
    >
      <title>2026-01-22: 6303 stars, Rust, Unknown, Shell, TypeScript, Python</title>
    </path>

    <path
      d="M 20,203.75199990709896 L 35.2,203.04550400107618 L 50.400000000000006,199.22920334761636 L 65.6,196.19997343451485 L 80.80000000000001,197.051001320962 L 96,200.91329108361003 L 111.2,203.84300714200458 L 126.4,202.84857736101844 L 141.60000000000002,198.9454272507842 L 156.79999999999998,196.11911543755107 L 172,197.2556266028115 L 187.2,201.19445404028858 L 202.4,203.91360852912655 L 217.6,202.6365251607208 L 232.8,198.66725079251685 L 248,196.05886441234688 L 263.20000000000005,197.4748241359567 L 278.40000000000003,201.46927460767927 L 293.59999999999997,203.96342918465498 L 308.8,202.41047336866615 L 324,198.3961510521573 L 339.2,196.0195402836913 L 354.4,197.7074300111644 L 369.6,201.73629352576543 L 384.8,203.9922045676521 L 400,202.17162228927478 L 415.2,198.13356753263426 L 430.40000000000003,196.0013518573851 L 445.6,197.9522091227198 L 460.79999999999995,201.99409296023234 L 476,203.99978188472886 L 491.2,201.92124018945043 L 506.40000000000003,197.88089451689646 L 521.6,196.00439571151017 L 536.8000000000001,198.2078617266707 L 552,202.24130403097539 L 567.1999999999999,203.98612090135714 L 582.4,201.66065656425465 L 597.6,197.63947366445888 L 612.8000000000001,196.0286556836131 L 628,198.473030342292 L 643.1999999999999,202.47661408066824 L 658.4,203.9512941555097 L 673.6,201.39125507746803 L 688.8,197.4105868873723 L 704,196.07400295652556 L 719.2,198.7463069601246 L 734.4,202.69877364479566 L 749.6,203.89548657249324 L 764.8,201.1144662145225 L 780,197.19544954344383"
      stroke="url(#thread-15)"
      stroke-width="8"
      stroke-linecap="round"
      fill="none"
      opacity="0.8"
      class="thread"
      style="animation-delay: 1.5s"
    >
      <title>2026-01-21: 4215 stars, Unknown, TypeScript, Python, Shell, JavaScript</title>
    </path>

    <path
      d="M 20,215.95743298649353 L 35.2,211.16082702328418 L 50.400000000000006,208.1521607105199 L 65.6,213.34169027046607 L 80.80000000000001,215.67261820745392 L 96,210.17867583015737 L 111.2,208.565241750828 L 126.4,214.26989420881986 L 141.60000000000002,215.1383162698944 L 156.79999999999998,209.3202502644196 L 172,209.2116517209033 L 187.2,215.0439003993245 L 202.4,214.39082320696187 L 217.6,208.64386462478072 L 232.8,210.04747889958028 L 248,215.61112929402867 L 263.20000000000005,213.48091748506636 L 278.40000000000003,208.19546693027374 L 293.59999999999997,211.01594413475468 L 308.8,215.9330480759673 L 324,212.4704105368845 L 339.2,208.00551759370785 L 354.4,212.05125794709582 L 369.6,215.98778825850687 L 384.8,211.42794780632724 L 400,208.08692019437325 L 415.2,213.08308972050722 L 430.40000000000003,215.77163124858177 L 445.6,210.4243455475813 L 460.79999999999995,208.4341449161036 L 476,214.0413453796786 L 491.2,215.29926095700282 L 506.40000000000003,209.52778015734114 L 521.6,209.02360419702927 L 536.8000000000001,214.86092899902297 L 552,214.60276629559212 L 567.1999999999999,208.79915683701986 L 582.4,209.8152550724981 L 597.6,215.48616487885957 L 612.8000000000001,213.72946132319925 L 628,208.28797219953765 L 643.1999999999999,210.75531936130426 L 658.4,215.87457968973973 L 673.6,212.73867112176214 L 688.8,208.028951880798 L 704,211.7799369083781 L 719.2,215.9997877574604 L 734.4,211.6977017432804 L 749.6,208.03969156858304 L 764.8,212.81950371299035 L 780,215.8532834864833"
      stroke="url(#thread-16)"
      stroke-width="8"
      stroke-linecap="round"
      fill="none"
      opacity="0.7866666666666666"
      class="thread"
      style="animation-delay: 1.6s"
    >
      <title>2026-01-20: 6510 stars, Python, Vue, TypeScript, Unknown, Shell, JavaScript</title>
    </path>

    <path
      d="M 20,227.19394845049396 L 35.2,223.13093441401077 L 50.400000000000006,220.08621002871888 L 65.6,221.6272981401392 L 80.80000000000001,225.94849604788575 L 96,227.98662879583682 L 111.2,225.35360333503075 L 126.4,221.13455227373916 L 141.60000000000002,220.27296446116176 L 156.79999999999998,223.77836779402395 L 172,227.54345898630035 L 187.2,227.15665684239852 L 202.4,223.07117988407768 L 217.6,220.0740073381165 L 232.8,221.67694525873014 L 248,226.00182113238492 L 263.20000000000005,227.98115050701068 L 278.40000000000003,225.29574061859276 L 293.59999999999997,221.09210324100397 L 308.8,220.29566691262934 L 324,223.8396211235274 L 339.2,227.57149227972235 L 354.4,227.1186233122921 L 369.6,223.01164365854785 L 384.8,220.06272738967968 L 400,221.7271383744095 L 415.2,226.0546757206489 L 430.40000000000003,227.9747365120443 L 445.6,225.23757335892012 L 460.79999999999995,221.05033766317655 L 476,220.31924000870313 L 491.2,223.9009121475363 L 506.40000000000003,227.59868615065827 L 521.6,227.0798567993514 L 536.8000000000001,222.95233973046462 L 552,220.052372834581 L 567.1999999999999,221.7778656900834 L 582.4,226.10704739004692 L 597.6,227.9673883184452 L 612.8000000000001,225.1791152273026 L 628,221.00926535659204 L 643.1999999999999,220.3436782089016 L 658.4,223.96222646056975 L 673.6,227.625034207621 L 688.8,227.04036641502898 L 704,222.89328203827364 L 719.2,220.04294610649407 L 734.4,221.82911528310262 L 749.6,226.1589238314506 L 764.8,227.9591076532895 L 780,225.12037996339467"
      stroke="url(#thread-17)"
      stroke-width="8"
      stroke-linecap="round"
      fill="none"
      opacity="0.7733333333333334"
      class="thread"
      style="animation-delay: 1.7000000000000002s"
    >
      <title>2026-01-19: 4551 stars, JavaScript, TypeScript, Shell, Python</title>
    </path>

    <path
      d="M 20,237.64847394096702 L 35.2,234.05902670068483 L 50.400000000000006,232.03518572385943 L 65.6,233.2093990769719 L 80.80000000000001,236.63453586393203 L 96,239.54785040000883 L 111.2,239.59943736362425 L 126.4,236.74768625278037 L 141.60000000000002,233.29284478470876 L 156.79999999999998,232.02161870315746 L 172,233.95939023066845 L 187.2,237.54313568129513 L 202.4,239.88217421665834 L 217.6,239.08981662638948 L 232.8,235.80518556439634 L 248,232.67769355253876 L 263.20000000000005,232.23000336232576 L 278.40000000000003,234.82322586845763 L 293.59999999999997,238.36564481725398 L 308.8,239.99991369293303 L 324,238.40781673805063 L 339.2,234.8735534650235 L 354.4,232.24789194928516 L 369.6,232.64871403712783 L 384.8,235.75271308055187 L 400,239.0561759445733 L 415.2,239.8945002089354 L 430.40000000000003,237.59148609306607 L 445.6,234.00476519133431 L 460.79999999999995,232.0274183673481 L 476,233.25439109189338 L 491.2,236.6959962923471 L 506.40000000000003,239.57620471571695 L 521.6,239.57181472430918 L 536.8000000000001,236.68636732409587 L 552,233.2472899579187 L 567.1999999999999,232.02857290524173 L 582.4,234.01324414060014 L 597.6,237.60045025808873 L 612.8000000000001,239.89671901477035 L 628,239.0498596827718 L 643.1999999999999,235.7429565038555 L 658.4,232.64338688675926 L 673.6,232.25129115193906 L 688.8,234.88293719371666 L 704,238.41561599406384 L 719.2,239.99983752725174 L 734.4,238.35775466579167 L 749.6,234.81388599730357 L 764.8,232.22674739431952 L 780,232.68314778032743"
      stroke="url(#thread-18)"
      stroke-width="7.412"
      stroke-linecap="round"
      fill="none"
      opacity="0.76"
      class="thread"
      style="animation-delay: 1.8s"
    >
      <title>2026-01-18: 3706 stars, JavaScript, Shell, Vue, TypeScript, Python, HTML</title>
    </path>

    <path
      d="M 20,247.69939551815276 L 35.2,244.01035051459186 L 50.400000000000006,248.27453411292205 L 65.6,251.99144342886925 L 80.80000000000001,247.75154797852863 L 96,244.00693306112476 L 111.2,248.22235932119276 L 126.4,251.99451994610274 L 141.60000000000002,247.80374287376313 L 156.79999999999998,244.00419761149126 L 172,248.17014655115963 L 187.2,251.99691421133335 L 202.4,247.85597128912505 L 217.6,244.00214463289794 L 232.8,248.11790472060687 L 248,251.9986258156278 L 263.20000000000005,247.90822430415793 L 278.40000000000003,244.00077447598736 L 293.59999999999997,248.06564275228212 L 308.8,251.99965446664922 L 324,247.96049299420392 L 339.2,244.00008737477822 L 354.4,248.0133695723726 L 369.6,251.99999998870706 L 384.8,248.01276843192775 L 400,244.00008344662533 L 415.2,247.96109410898026 L 430.40000000000003,251.99966232278726 L 445.6,248.06504168884172 L 460.79999999999995,244.0007626921996 L 476,247.90882529059718 L 491.2,251.9986415265621 L 506.40000000000003,248.11730383683073 L 521.6,244.00212499548795 L 536.8000000000001,247.8565720445805 L 552,251.99693777438054 L 567.1999999999999,248.16954594967697 L 582.4,244.00417012381303 L 597.6,247.80434329562755 L 612.8000000000001,251.9945513572383 L 628,248.22175910458446 L 643.1999999999999,244.0068977278731 L 658.4,247.75214796425178 L 673.6,251.99148268272825 L 688.8,248.2739343837033 L 704,244.01030734180162 L 719.2,247.69999496525887 L 734.4,251.9877322749708 L 749.6,248.32606287565267 L 764.8,244.01439838324671 L 780,247.64789320622438"
      stroke="url(#thread-19)"
      stroke-width="8"
      stroke-linecap="round"
      fill="none"
      opacity="0.7466666666666666"
      class="thread"
      style="animation-delay: 1.9000000000000001s"
    >
      <title>2026-01-17: 6237 stars, JavaScript, TypeScript, Shell, Python</title>
    </path>

    <path
      d="M 20,257.8239155564425 L 35.2,256.3891839791782 L 50.400000000000006,261.23677143353217 L 65.6,263.9325481421056 L 80.80000000000001,259.78623655444886 L 96,256.011843711615 L 111.2,259.1762896263113 L 126.4,263.7738773370242 L 141.60000000000002,261.8054419436344 L 156.79999999999998,256.6957879953333 L 172,257.33500461859205 L 187.2,262.61094355261076 L 202.4,263.34420286062226 L 217.6,258.25901305471353 L 232.8,256.20289904693504 L 248,260.7532140138975 L 263.20000000000005,263.993041072558 L 278.40000000000003,260.2855305267799 L 293.59999999999997,256.0812364694206 L 308.8,258.6950473962548 L 324,263.57929484785063 L 339.2,262.2360657365981 L 354.4,257.002392401111 L 369.6,256.98414049923605 L 384.8,262.21306580857333 L 400,263.59156357819353 L 415.2,258.72123889592456 L 430.40000000000003,256.0757811619301 L 445.6,260.25791989047445 L 460.79999999999995,263.9913137848271 L 476,260.7803753158064 L 491.2,256.21169204061863 L 506.40000000000003,258.2341391508101 L 521.6,263.328939201745 L 536.8000000000001,262.6318467880334 L 552,257.35570601809934 L 567.1999999999999,256.68026999520674 L 582.4,261.7807037116426 L 597.6,263.78295996547274 L 612.8000000000001,259.20339060152173 L 628,256.00981109580977 L 643.1999999999999,259.7586068171915 L 658.4,263.9273931937924 L 673.6,261.26306016920194 L 688.8,256.401177645191 L 704,257.8007468375387 L 719.2,263.02671148127604 L 734.4,262.9866179729532 L 749.6,257.75022345581107 L 764.8,256.4281280663298 L 780,261.32059439863144"
      stroke="url(#thread-20)"
      stroke-width="8"
      stroke-linecap="round"
      fill="none"
      opacity="0.7333333333333334"
      class="thread"
      style="animation-delay: 2s"
    >
      <title>2026-01-16: 5731 stars, JavaScript, TypeScript, Shell, Python, C</title>
    </path>

    <path
      d="M 20,268.48121696011333 L 35.2,268.39153901399413 L 50.400000000000006,271.2723817338456 L 65.6,274.7522069852892 L 80.80000000000001,275.9663883074965 L 96,273.91539966323444 L 111.2,270.2876351288362 L 126.4,268.06950624165734 L 141.60000000000002,269.0869985741356 L 156.79999999999998,272.50250240489254 L 172,275.50434130086927 L 187.2,275.62137188238256 L 202.4,272.7572534207162 L 217.6,269.26975647599625 L 232.8,268.02982292260526 L 248,270.05817828842413 L 263.20000000000005,273.6850604351162 L 278.40000000000003,275.9247842155867 L 293.59999999999997,274.9335869282974 L 308.8,271.52743195413717 L 324,268.51029965522736 L 339.2,268.3659230913508 L 354.4,271.2131544735582 L 369.6,274.7081248520542 L 384.8,275.9737401480777 L 400,273.96813336997053 L 415.2,270.3423397943457 L 430.40000000000003,268.08114844586146 L 445.6,269.04599433973215 L 460.79999999999995,272.4426068219767 L 476,275.47486100391535 L 491.2,275.6465753425422 L 506.40000000000003,272.8163929010598 L 521.6,269.31414777314274 L 536.8000000000001,268.0229226830102 L 552,270.005666857364 L 567.1999999999999,273.6301657404441 L 582.4,275.912696111262 L 597.6,274.9742564609985 L 612.8000000000001,271.58737956351064 L 628,268.5401758781059 L 643.1999999999999,268.34113352645755 L 658.4,271.15410613515803 L 673.6,274.66342691458163 L 688.8,275.9801883944173 L 704,274.02041954015067 L 719.2,270.397421397491 L 734.4,268.09368176311426 L 749.6,269.0056618207415 L 764.8,272.38261059408643 L 780,275.44459055353514"
      stroke="url(#thread-21)"
      stroke-width="7.494"
      stroke-linecap="round"
      fill="none"
      opacity="0.72"
      class="thread"
      style="animation-delay: 2.1s"
    >
      <title>2026-01-15: 3747 stars, TypeScript, Shell, Python, JavaScript, C</title>
    </path>

    <path
      d="M 20,280.0000391737972 L 35.2,281.87421493687583 L 50.400000000000006,285.7245628637608 L 65.6,287.97172278014693 L 80.80000000000001,286.52669003950734 L 96,282.73279587855893 L 111.2,280.11691992560947 L 126.4,281.11083260367246 L 141.60000000000002,284.79057287749833 L 156.79999999999998,287.735380847455 L 172,287.20770433155906 L 187.2,283.6980819361338 L 202.4,280.46912859042226 L 217.6,280.52254368102507 L 232.8,283.80867147509906 L 248,287.27266207929915 L 263.20000000000005,287.6943207869947 L 278.40000000000003,284.68166525941155 L 293.59999999999997,281.0353201203758 L 308.8,280.14500048661847 L 324,282.83836523468455 L 339.2,286.6116088131873 L 354.4,287.957048786848 L 369.6,285.6239373401218 L 384.8,281.78118137524376 L 400,280.0010834273217 L 415.2,281.9384580279633 L 430.40000000000003,285.79228313450415 L 445.6,287.97996611712705 L 460.79999999999995,286.4677932723692 L 476,282.66151061590847 L 491.2,280.0995143683966 L 506.40000000000003,281.1634873047933 L 521.6,284.86433897732746 L 536.8000000000001,287.76168390935555 L 552,287.16209250494063 L 567.1999999999999,283.6229568841124 L 582.4,280.4343280586781 L 597.6,280.5604189374786 L 612.8000000000001,283.88401292645744 L 628,287.3154308107455 L 643.1999999999999,287.6647581333508 L 658.4,284.6072532527195 L 673.6,280.9852336451658 L 688.8,280.1658009285218 L 704,282.91071608833323 L 719.2,286.6682512830011 L 734.4,287.9453269039442 L 749.6,285.55474800047716 L 764.8,281.7188443680081 L 780,280.0035484768632"
      stroke="url(#thread-22)"
      stroke-width="8"
      stroke-linecap="round"
      fill="none"
      opacity="0.7066666666666667"
      class="thread"
      style="animation-delay: 2.2s"
    >
      <title>2026-01-14: 4003 stars, TypeScript, Shell, Python, C, HTML, Jupyter Notebook</title>
    </path>

    <path
      d="M 20,292.49819130124627 L 35.2,296.80479479341324 L 50.400000000000006,299.9803099953704 L 65.6,297.5617507027916 L 80.80000000000001,292.9482493621131 L 96,292.6237909419467 L 111.2,297.044381274728 L 126.4,299.99715963851133 L 141.60000000000002,297.332182397733 L 156.79999999999998,292.7949068731788 L 172,292.7621874596354 L 187.2,297.2800092278617 L 202.4,299.99885880983106 L 217.6,297.0975647091864 L 232.8,292.65371267890714 L 248,292.91285628868803 L 263.20000000000005,297.51078554996445 L 278.40000000000003,299.9854010689445 L 293.59999999999997,296.85878691078625 L 308.8,292.52520194898244 L 324,293.0752263476229 L 339.2,297.7358355273693 L 354.4,299.9568374248537 L 369.6,296.61675404427046 L 384.8,292.40986177883445 L 400,293.24868220367654 L 415.2,297.9543061510276 L 430.40000000000003,299.91327614260786 L 445.6,296.3723834890924 L 460.79999999999995,292.30812934339644 L 476,293.4325664054841 L 491.2,298.1653693496769 L 506.40000000000003,299.8548823329453 L 521.6,296.1266014852687 L 536.8000000000001,292.22039024007637 L 552,293.62618197502394 L 567.1999999999999,298.3682251284876 L 582.4,299.78187732647274 L 597.6,295.88033962264313 L 612.8000000000001,292.14697702722395 L 628,293.82879504937927 L 643.1999999999999,298.562104601291 L 658.4,299.6945378347537 L 673.6,295.6345313098727 L 688.8,292.0881679636312 L 704,294.03963766230635 L 719.2,298.74627290489553 L 734.4,299.5931949014862 L 749.6,295.3901082365203 L 764.8,292.04418595384567 L 780,294.25791065506377"
      stroke="url(#thread-23)"
      stroke-width="8"
      stroke-linecap="round"
      fill="none"
      opacity="0.6933333333333334"
      class="thread"
      style="animation-delay: 2.3000000000000003s"
    >
      <title>2026-01-13: 5049 stars, TypeScript, Shell, C, Rust, Python</title>
    </path>

    <path
      d="M 20,305.8537083279983 L 35.2,309.3894025844959 L 50.400000000000006,311.8272818175632 L 65.6,311.241093350521 L 80.80000000000001,308.0940049598378 L 96,304.87263999997407 L 111.2,304.1223103109633 L 126.4,306.43587732426795 L 141.60000000000002,309.9853117463911 L 156.79999999999998,311.96608271149927 L 172,310.81311459087584 L 187.2,307.43740736284303 L 202.4,304.50622403021265 L 217.6,304.33559389572105 L 232.8,307.06033772851407 L 248,310.5275412127422 L 263.20000000000005,311.9976469899048 L 278.40000000000003,310.3090736535684 L 293.59999999999997,306.7960213826299 L 308.8,304.23427424728476 L 324,304.6479572367867 L 339.2,307.7102051171994 L 354.4,311.00142995476034 L 369.6,311.9211212045201 L 384.8,309.74259900984805 L 400,306.18718908359017 L 415.2,304.0641437440121 L 430.40000000000003,305.0509545225249 L 445.6,308.367908102036 L 460.79999999999995,311.3941647689576 L 476,311.7385744917758 L 491.2,309.12900723982534 L 506.40000000000003,305.6273723299674 L 521.6,304.00043258062937 L 536.8000000000001,305.533689342514 L 552,309.0156634325853 L 567.1999999999999,311.69512672594215 L 582.4,311.4549426266103 L 597.6,308.4848888963257 L 612.8000000000001,305.13170768303434 L 628,304.044863406418 L 643.1999999999999,306.0831093092825 L 658.4,309.63595682727714 L 673.6,311.89617828950554 L 688.8,311.07789456690716 L 704,307.82765992253087 L 719.2,304.71359713237166 L 734.4,304.19623488198863 L 749.6,306.68435897426156 L 764.8,310.2120165319346 L 780,311.9918833427557"
      stroke="url(#thread-24)"
      stroke-width="7.33"
      stroke-linecap="round"
      fill="none"
      opacity="0.6799999999999999"
      class="thread"
      style="animation-delay: 2.4000000000000004s"
    >
      <title>2026-01-12: 3665 stars, TypeScript, Unknown, Python, Shell, C</title>
    </path>

    <path
      d="M 20,319.7347124105952 L 35.2,322.9047845684753 L 50.400000000000006,323.9706959183837 L 65.6,322.16032417917427 L 80.80000000000001,318.7850620451091 L 96,316.2898737232443 L 111.2,316.4822176848055 L 126.4,319.22276427692987 L 141.60000000000002,322.5263229990375 L 156.79999999999998,323.9998699879024 L 172,322.5760008458547 L 187.2,319.28613445224687 L 202.4,316.51337625455994 L 217.6,316.26625011816884 L 232.8,318.7237686750128 L 248,322.10576058698524 L 263.20000000000005,323.9623867468147 L 278.40000000000003,322.94874879509587 L 293.59999999999997,319.7991033354429 L 308.8,316.79498291492746 L 324,316.11250500535004 L 339.2,318.2460413013363 L 354.4,321.6501059499522 L 369.6,323.85887084843466 L 384.8,323.27235623103803 L 400,320.3154201352987 L 415.2,317.1300007661548 L 430.40000000000003,316.0235444885614 L 445.6,317.7975434201486 L 460.79999999999995,321.1669525129152 L 476,323.69104737168027 L 491.2,323.54143027805327 L 506.40000000000003,320.82648049982197 L 521.6,317.51284677953464 L 536.8000000000001,316.0008510831889 L 552,317.3857491900256 L 567.1999999999999,320.66435196475913 L 582.4,323.46171307285886 L 597.6,323.7514868523134 L 612.8000000000001,321.3237676748282 L 628,317.93714087628825 L 643.1999999999999,316.0448029718673 L 658.4,317.0175211079951 L 673.6,320.15068007793434 L 688.8,323.1746897780887 L 704,323.8990253884606 L 719.2,321.79899443453627 L 734.4,318.3958122507439 L 749.6,316.1546677021159 L 764.8,316.6989956469204 L 780,319.6344971273031"
      stroke="url(#thread-25)"
      stroke-width="6.996"
      stroke-linecap="round"
      fill="none"
      opacity="0.6666666666666667"
      class="thread"
      style="animation-delay: 2.5s"
    >
      <title>2026-01-11: 3498 stars, TypeScript, Unknown, Shell, Python</title>
    </path>

    <path
      d="M 20,333.68066814730656 L 35.2,335.9446566337477 L 50.400000000000006,334.77507916341926 L 65.6,331.1899765339836 L 80.80000000000001,328.30994642551303 L 96,328.64186693997334 L 111.2,331.8968229487183 L 126.4,335.24158784165604 L 141.60000000000002,335.764762240819 L 156.79999999999998,333.01095700256127 L 172,329.37717972363083 L 187.2,328.0263961873294 L 202.4,330.1343752363821 L 217.6,333.86625878998956 L 232.8,335.97368596049677 L 248,334.6222790413326 L 263.20000000000005,330.9883494892883 L 278.40000000000003,328.23499563146555 L 293.59999999999997,328.7588321674254 L 308.8,332.1038936066872 L 324,335.3585224470772 L 339.2,335.68977685718755 L 354.4,332.8093215087026 L 369.6,329.2244046472462 L 384.8,328.0554622539982 L 400,330.319982333502 L 415.2,334.04684806233513 L 430.40000000000003,335.9920662415724 L 445.6,334.4624514969591 L 460.79999999999995,330.7894335578016 L 476,328.1701346391488 L 491.2,328.88448337173304 L 506.40000000000003,332.3106858411034 L 521.6,335.4664565780547 L 536.8000000000001,335.6049032733642 L 552,332.60551712132883 L 567.1999999999999,329.0790678641683 L 582.4,328.09509925229963 L 597.6,330.51009169502845 L 612.8000000000001,334.22195200475795 L 628,335.99974821982266 L 643.1999999999999,334.2960248507138 L 658.4,330.5937618125596 L 673.6,328.1155372689593 L 688.8,329.0184838213512 L 704,332.5166454712965 L 719.2,335.56510098287066 L 734.4,335.5103689413116 L 749.6,332.4000900140056 L 764.8,328.94155886114964 L 780,328.1452009593944"
      stroke="url(#thread-26)"
      stroke-width="7.724"
      stroke-linecap="round"
      fill="none"
      opacity="0.6533333333333333"
      class="thread"
      style="animation-delay: 2.6s"
    >
      <title>2026-01-10: 3862 stars, TypeScript, Unknown, Shell, Python</title>
    </path>

    <path
      d="M 20,347.21513770620646 L 35.2,347.7632528556201 L 50.400000000000006,344.9588909421475 L 65.6,341.30030529918025 L 80.80000000000001,340.0467306689005 L 96,342.3149084332626 L 111.2,346.08424252250825 L 126.4,347.99683843383264 L 141.60000000000002,346.3488686091939 L 156.79999999999998,342.60841963468994 L 172,340.1076538371741 L 187.2,341.0743673009042 L 202.4,344.64736763783793 L 217.6,347.6436633948853 L 232.8,347.3940178280621 L 248,344.1208265798445 L 263.20000000000005,340.7399975105566 L 278.40000000000003,340.26332715451844 L 293.59999999999997,343.115455177595 L 308.8,346.7555760201758 L 324,347.9409042253492 L 339.2,345.6154954353233 L 354.4,341.85092972443556 L 369.6,340.0008537068462 L 384.8,341.71339937142807 L 400,345.46295303238213 L 415.2,347.90924149343965 L 430.40000000000003,346.8729995631451 L 445.6,343.27735875463213 L 460.79999999999995,340.32547968436467 L 476,340.64703068852873 L 491.2,343.95555948571615 L 506.40000000000003,347.30367791732766 L 521.6,347.7087295750803 L 536.8000000000001,344.8098759918295 L 552,341.1895479845744 L 567.1999999999999,340.0728986509397 L 582.4,342.4546900815743 L 597.6,346.2131139776134 L 612.8000000000001,347.99999513332835 L 628,346.2234984213793 L 643.1999999999999,342.46620803357996 L 658.4,340.07528939488674 L 673.6,341.1806817368546 L 688.8,344.79765120977606 L 704,347.7040366513949 L 719.2,347.3106975221955 L 734.4,343.96803823537255 L 749.6,340.653851944363 L 764.8,340.32056676096613 L 780,343.2650883079517"
      stroke="url(#thread-27)"
      stroke-width="7.822"
      stroke-linecap="round"
      fill="none"
      opacity="0.64"
      class="thread"
      style="animation-delay: 2.7s"
    >
      <title>2026-01-09: 3911 stars, TypeScript, Unknown, Python, Shell</title>
    </path>

    <path
      d="M 20,359.9624294227795 L 35.2,358.7570160676888 L 50.400000000000006,355.2561733380649 L 65.6,352.3746239050514 L 80.80000000000001,352.5114808134458 L 96,355.5528000890661 L 111.2,358.9664479208659 L 126.4,359.9102981423504 L 141.60000000000002,357.598522354133 L 156.79999999999998,353.95585291951005 L 172,352.0150942243325 L 187.2,353.3920781710693 L 202.4,356.9403589929934 L 217.6,359.7057181336039 L 232.8,359.3857799640883 L 248,356.2469177859834 L 263.20000000000005,352.9024774301945 L 278.40000000000003,352.1369644801394 L 293.59999999999997,354.58772774663413 L 308.8,358.2143170277853 L 324,359.99731591072435 L 339.2,358.4522397532965 L 354.4,354.8654841043764 L 369.6,352.22330079335796 L 384.8,352.7255120324118 L 400,355.95398807472395 L 415.2,359.22077260790604 L 430.40000000000003,359.80601453438254 L 445.6,357.22245463031845 L 460.79999999999995,353.62110658190767 L 476,352.0003715211282 L 491.2,353.70963689277943 L 506.40000000000003,357.32580691263917 L 521.6,359.83814000971216 L 536.8000000000001,359.1549243302958 L 552,355.8449898344522 L 567.1999999999999,352.6641133051252 L 582.4,352.2606207741255 L 597.6,354.9704510192194 L 612.8000000000001,358.53746051716604 L 628,359.991837638362 L 643.1999999999999,358.12270080515987 L 658.4,354.4862511736708 L 673.6,352.11011466198664 L 688.8,352.97260891966437 L 704,356.3556406872405 L 719.2,359.44257404253744 L 734.4,359.6632979209087 L 749.6,356.83404260116475 L 764.8,353.3103822292477 L 780,352.0260369304658"
      stroke="url(#thread-28)"
      stroke-width="7.54"
      stroke-linecap="round"
      fill="none"
      opacity="0.6266666666666667"
      class="thread"
      style="animation-delay: 2.8000000000000003s"
    >
      <title>2026-01-08: 3770 stars, TypeScript, Unknown, Python, Rust, JavaScript</title>
    </path>

    <path
      d="M 20,371.7395802220987 L 35.2,369.2287353438948 L 50.400000000000006,365.796212143878 L 65.6,364.01675728193294 L 80.80000000000001,365.2251455564313 L 96,368.51496104756427 L 111.2,371.4185026055217 L 126.4,371.757814396487 L 141.60000000000002,369.2783775579386 L 156.79999999999998,365.84002561362837 L 172,364.0218773832274 L 187.2,365.1877316848695 L 202.4,368.463077468185 L 217.6,371.3910673575997 L 232.8,371.775406747469 L 248,369.3278014289371 L 263.20000000000005,365.884208000513 L 278.40000000000003,364.0276769359101 L 293.59999999999997,365.1507981402848 L 308.8,368.4111147965658 L 324,371.3630529255635 L 339.2,371.792354270324 L 354.4,369.37699851544176 L 369.6,365.928751758313 L 384.8,364.034154949435 L 400,365.1143512308156 L 415.2,368.3590819077748 L 430.40000000000003,371.33446409419395 L 445.6,371.808654070466 L 460.79999999999995,369.425960414738 L 476,365.97364927908836 L 491.2,364.0413103173767 L 506.40000000000003,365.07839718148455 L 521.6,368.30698768887305 L 536.8000000000001,371.30530574637754 L 552,371.82430336393816 L 567.1999999999999,369.4746787642805 L 582.4,366.01889289447746 L 597.6,364.04914181762 L 612.8000000000001,365.0429421331351 L 628,368.2548410373965 L 643.1999999999999,371.27558286227236 L 658.4,371.8392994778882 L 673.6,369.52314524312163 L 688.8,366.0644748770068 L 704,364.05764811256813 L 719.2,365.00799214138317 L 734.4,368.2026508598366 L 749.6,371.2453005184578 L 764.8,371.85363985102487 L 780,369.5713515733325"
      stroke="url(#thread-29)"
      stroke-width="7.128"
      stroke-linecap="round"
      fill="none"
      opacity="0.6133333333333333"
      class="thread"
      style="animation-delay: 2.9000000000000004s"
    >
      <title>2026-01-07: 3564 stars, TypeScript, Python, Unknown, Shell, Rust</title>
    </path>

    <path
      d="M 20,382.6011513606285 L 35.2,378.61472665517414 L 50.400000000000006,376.04829139399106 L 65.6,377.53259783539517 L 80.80000000000001,381.5461415869645 L 96,383.9747961604962 L 111.2,382.32904288368127 L 126.4,378.29587897600754 L 141.60000000000002,376.00954277917396 L 156.79999999999998,377.8136679721835 L 172,381.8589164877253 L 187.2,383.9986625259322 L 202.4,382.0395362374355 L 217.6,377.98976124109754 L 232.8,376.0006032549463 L 248,378.11107021476045 L 263.20000000000005,382.1578051075629 L 278.40000000000003,383.99265850637823 L 293.59999999999997,381.7347940637558 L 308.8,377.69866017870265 L 324,376.0215396003944 L 339.2,378.42258294041477 L 354.4,382.44057472038793 L 369.6,383.9568289524248 L 384.8,381.4170928153289 L 400,377.4247503411258 L 415.2,376.07219541904965 L 430.40000000000003,378.7458791197999 L 445.6,382.705113010609 L 460.79999999999995,383.8914415142084 L 476,381.088805750348 L 491.2,377.1700778606044 L 506.40000000000003,376.1521923071843 L 521.6,379.0785437000622 L 536.8000000000001,382.94944385232844 L 552,383.79698464203966 L 567.1999999999999,380.75238520405156 L 582.4,376.9365451645103 L 597.6,376.26093268052335 L 612.8000000000001,379.41809164551273 L 628,383.17174207118853 L 643.1999999999999,383.67416393763375 L 658.4,380.4103442695478 L 673.6,376.72589676403794 L 688.8,376.39760423825516 L 704,379.76198650107756 L 719.2,383.37034707859596 L 734.4,383.52389688319914 L 749.6,380.0652380247733 L 764.8,376.5397062225424 L 780,376.56118603099475"
      stroke="url(#thread-30)"
      stroke-width="8"
      stroke-linecap="round"
      fill="none"
      opacity="0.6000000000000001"
      class="thread"
      style="animation-delay: 3s"
    >
      <title>2026-01-06: 4224 stars, TypeScript, Python, Rust, JavaScript, Go</title>
    </path>

    <path
      d="M 20,392.82586992775117 L 35.2,389.30866350698744 L 50.400000000000006,388.02561611145467 L 65.6,390.041823809954 L 80.80000000000001,393.6835722088979 L 96,395.9277368962164 L 111.2,394.91136955485797 L 126.4,391.47818715389775 L 141.60000000000002,388.47817722417165 L 156.79999999999998,388.401737855135 L 172,391.312323656295 L 187.2,394.79377018546694 L 202.4,395.9560244135322 L 217.6,393.8342642976186 L 232.8,390.1898264541807 L 248,388.04806788370865 L 263.20000000000005,389.18692651871635 L 278.40000000000003,392.6610016987993 L 293.59999999999997,395.58635957248094 L 308.8,395.53457295777014 L 324,392.5486314744869 L 339.2,389.1072545733609 L 354.4,388.06723228523134 L 369.6,390.2919182589261 L 384.8,393.93453404093736 L 400,395.97123517853385 L 415.2,394.71129506057895 L 430.40000000000003,391.20062771272046 L 445.6,388.3535432407981 L 460.79999999999995,388.5334917318057 L 476,391.59109255411096 L 491.2,394.98813969354865 L 506.40000000000003,395.9046425820815 L 521.6,393.57978472374845 L 536.8000000000001,389.94350025352645 L 552,388.01437781261507 L 567.1999999999999,389.3938397141764 L 582.4,392.93675332045336 L 597.6,395.70203994075524 L 612.8000000000001,395.39415233446846 L 628,392.2686772244454 L 643.1999999999999,388.9201651038415 L 658.4,388.1283161679929 L 673.6,390.55046793349743 L 688.8,394.1759196791963 L 704,395.995075332944 L 719.2,394.4977993049797 L 734.4,390.92702526778305 L 749.6,388.24695969013834 L 764.8,388.682405272879 L 780,391.871885596686"
      stroke="url(#thread-31)"
      stroke-width="7.528"
      stroke-linecap="round"
      fill="none"
      opacity="0.5866666666666667"
      class="thread"
      style="animation-delay: 3.1s"
    >
      <title>2026-01-05: 3764 stars, Go, TypeScript, Python, Rust, JavaScript</title>
    </path>

    <path
      d="M 20,402.84838673333974 L 35.2,400.1749183261153 L 50.400000000000006,400.90260930572316 L 65.6,404.38441649321527 L 80.80000000000001,407.524410910204 L 96,407.5305942684289 L 111.2,404.39746849264304 L 126.4,400.91092446073145 L 141.60000000000002,400.17110302529375 L 156.79999999999998,402.8358334392053 L 172,406.5357093385365 L 187.2,407.98090093192894 L 202.4,405.8863828597421 L 217.6,402.1145440614712 L 232.8,400.0192017959588 L 248,401.46347785316044 L 263.20000000000005,405.16316094350657 L 278.40000000000003,407.8285927161844 L 293.59999999999997,407.0897431779788 L 308.8,403.6035773969774 L 324,400.4698998952795 L 339.2,400.47509213056014 L 354.4,403.61453730734434 L 369.6,407.09672550693773 L 384.8,407.8253889652757 L 400,405.1526198015701 L 415.2,401.4549722191045 L 430.40000000000003,400.0202946500218 L 445.6,402.1242636673161 L 460.79999999999995,405.89608680618034 L 476,407.98196073169356 L 491.2,406.5271826462805 L 506.40000000000003,402.82530195955025 L 521.6,400.1679310657081 L 536.8000000000001,400.9179324420687 L 552,404.408425107041 L 567.1999999999999,407.53575719008 L 582.4,407.51918940852147 L 597.6,404.3734533865688 L 612.8000000000001,400.89565269265245 L 628,400.1781538392063 L 643.1999999999999,402.8589374416773 L 658.4,406.5543230741386 L 673.6,407.9784735693418 L 688.8,405.86507274426464 L 704,402.09329957263344 L 719.2,400.0169129598542 L 734.4,401.48217984107833 L 749.6,405.1862244525503 L 764.8,407.83551029658815 L 780,407.0743639039505"
      stroke="url(#thread-32)"
      stroke-width="7.814"
      stroke-linecap="round"
      fill="none"
      opacity="0.5733333333333334"
      class="thread"
      style="animation-delay: 3.2s"
    >
      <title>2026-01-04: 3907 stars, Python, Jupyter Notebook, TypeScript, Go, Rust</title>
    </path>

    <path
      d="M 20,413.1528586305235 L 35.2,412.07886510787324 L 50.400000000000006,414.46361550142365 L 65.6,418.2035757216153 L 80.80000000000001,419.9998119101936 L 96,418.2679049741609 L 111.2,414.5355306357824 L 126.4,412.094931419479 L 141.60000000000002,413.09890439127946 L 156.79999999999998,416.6618678245217 L 172,419.64101270156226 L 187.2,419.4085030763249 L 202.4,416.16943040163426 L 217.6,412.78090702274864 L 232.8,412.23187235237657 L 248,415.0066173874296 L 263.20000000000005,418.65760263410766 L 278.40000000000003,419.9643770348759 L 293.59999999999997,417.7742646087118 L 308.8,414.01911372048556 L 324,412.0112575712679 L 339.2,413.52178040879966 L 354.4,417.2182843895164 L 369.6,419.84016741574794 L 384.8,419.07472609537786 L 400,415.59713880988807 L 415.2,412.47490621856366 L 430.40000000000003,412.46207868623407 L 445.6,415.569971087451 L 460.79999999999995,419.0571822129627 L 476,419.8477224330605 L 491.2,417.2442741975969 L 506.40000000000003,413.5432799889853 L 521.6,412.00930263280776 L 536.8000000000001,413.9954286701372 L 552,417.74974149075604 L 567.1999999999999,419.9606471339712 L 582.4,418.67795601101886 L 597.6,415.0331007912479 L 612.8000000000001,412.2411253748638 L 628,412.7647677831957 L 643.1999999999999,416.14213495622164 L 658.4,419.3941281167141 L 673.6,419.6522380527191 L 688.8,416.68879185947105 L 704,413.11777803108305 L 719.2,412.0891066556793 L 734.4,414.51014536006375 L 749.6,418.2453509609377 L 764.8,419.99998354161994 L 780,418.22632160551314"
      stroke="url(#thread-33)"
      stroke-width="7.78"
      stroke-linecap="round"
      fill="none"
      opacity="0.56"
      class="thread"
      style="animation-delay: 3.3000000000000003s"
    >
      <title>2026-01-03: 3890 stars, Go, Python, Jupyter Notebook, TypeScript, Rust, JavaScript</title>
    </path>

    <path
      d="M 20,424.1544100324818 L 35.2,424.2886615391554 L 50.400000000000006,425.9862461804883 L 65.6,428.5320876176654 L 80.80000000000001,430.85379692245573 L 96,431.9733967092021 L 111.2,431.4192761392154 L 126.4,429.42484832121534 L 141.60000000000002,426.83022932800435 L 156.79999999999998,424.72835473705607 L 172,424.00460060005514 L 187.2,424.9638350489862 L 202.4,427.201998197169 L 217.6,429.776304942344 L 232.8,431.6023758683063 L 248,431.9110121496421 L 263.20000000000005,430.57220642370834 L 278.40000000000003,428.1499060033964 L 293.59999999999997,425.66446043352005 L 308.8,424.162817992921 L 324,424.2775179685887 L 339.2,425.9602451032654 L 354.4,428.5021815098238 L 369.6,430.83258318243014 L 384.8,431.969811235198 L 400,431.4348292462777 L 415.2,429.45298854876603 L 430.40000000000003,426.8591031222351 L 445.6,424.74579954267307 L 460.79999999999995,424.0032681132223 L 476,424.94428655529873 L 491.2,427.1724681404097 L 506.40000000000003,429.74923231633863 L 521.6,431.58916451932845 L 536.8000000000001,431.91722711570395 L 552,430.5952297645498 L 567.1999999999999,428.1800395597179 L 582.4,425.6890109983939 L 597.6,424.171444091985 L 612.8000000000001,424.26658601610774 L 628,425.9343599833589 L 643.1999999999999,428.47224685364023 L 658.4,430.8112084138689 L 673.6,431.9660000827763 L 688.8,431.4501870879273 L 704,429.4810461758764 L 719.2,426.88804177491556 L 734.4,424.76342934519954 L 749.6,424.00216283520973 L 764.8,424.9249117748016 L 780,427.14298512772103"
      stroke="url(#thread-34)"
      stroke-width="5.26"
      stroke-linecap="round"
      fill="none"
      opacity="0.5466666666666666"
      class="thread"
      style="animation-delay: 3.4000000000000004s"
    >
      <title>2026-01-02: 2630 stars, TypeScript, Rust, Python, JavaScript, Jupyter Notebook, Shell</title>
    </path>

    <path
      d="M 20,436.09749597812737 L 35.2,438.36842075798234 L 50.400000000000006,441.95013078617666 L 65.6,443.9651362369753 L 80.80000000000001,442.7946132419378 L 96,439.3789416705945 L 111.2,436.46221864896205 L 126.4,436.3876938407956 L 141.60000000000002,439.2152393115542 L 156.79999999999998,442.67324924729303 L 172,443.983612542129 L 187.2,442.0936038165014 L 202.4,438.5216265245519 L 217.6,436.13735136391733 L 232.8,436.85626771326685 L 248,440.10080941997387 L 263.20000000000005,443.26436241513545 L 278.40000000000003,443.80537769419954 L 293.59999999999997,441.2892120423833 L 308.8,437.73731359646285 L 324,436.0032220231689 L 339.2,437.48007937469663 L 354.4,440.98140154997947 L 369.6,443.6942810672032 L 384.8,443.43923294634226 L 400,440.42115885924426 L 415.2,437.0647323307275 L 430.40000000000003,436.066453945878 L 445.6,438.2283249479688 L 460.79999999999995,441.81353198134036 L 476,443.9417757809844 L 491.2,442.90325855982366 L 506.40000000000003,439.5323088129672 L 521.6,436.5370948520005 L 536.8000000000001,436.3239247338955 L 552,439.0640559979755 L 567.1999999999999,442.5561100369544 L 582.4,443.9946252447891 L 597.6,442.2239209990602 L 612.8000000000001,438.6665534004467 L 628,436.18045594742614 L 643.1999999999999,436.76292045606976 L 658.4,439.9460040487352 L 673.6,443.172467144256 L 688.8,443.85021974724225 L 704,441.43476601517534 L 719.2,437.8666437034415 L 734.4,436.01242647885675 L 749.6,437.3617634633336 L 764.8,440.830618424526 L 780,443.63216753269637"
      stroke="url(#thread-35)"
      stroke-width="7.396"
      stroke-linecap="round"
      fill="none"
      opacity="0.5333333333333333"
      class="thread"
      style="animation-delay: 3.5s"
    >
      <title>2026-01-01: 3698 stars, Rust, Python, JavaScript, TypeScript, Jupyter Notebook, Go, Shell</title>
    </path>

    <path
      d="M 20,448.9960510129133 L 35.2,452.324082329018 L 50.400000000000006,455.3910980263451 L 65.6,455.7269263974031 L 80.80000000000001,453.06109157163036 L 96,449.540654540338 L 111.2,448.00097214903633 L 126.4,449.6821032226056 L 141.60000000000002,453.23006629360987 L 156.79999999999998,455.78733506870225 L 172,455.2942875569715 L 187.2,452.1480237846704 L 202.4,448.882541788202 L 217.6,448.1278578553959 L 232.8,450.4917937527142 L 248,454.07043761659236 L 263.20000000000005,455.98155287046376 L 278.40000000000003,454.68592899317485 L 293.59999999999997,451.227060300069 L 308.8,448.3907165519873 L 324,448.4612864742101 L 339.2,451.38193311431286 L 354.4,454.8003702729618 L 369.6,455.96339171111106 L 384.8,453.9343009996468 L 400,450.34732598805834 L 415.2,448.0914131518486 L 430.40000000000003,448.98347267749926 L 445.6,452.3050406185814 L 460.79999999999995,455.38092911749044 L 476,455.73382032025336 L 491.2,453.07949596686984 L 506.40000000000003,449.5557465244537 L 521.6,448.0005966514804 L 536.8000000000001,449.66656266877465 L 552,453.21187703170045 L 567.1999999999999,455.7811467140352 L 582.4,455.3050842048769 L 597.6,452.1671098245537 L 612.8000000000001,448.8945453405618 L 628,448.1231112698664 L 643.1999999999999,450.4741199250478 L 658.4,454.0540710318303 L 673.6,455.97967516137777 L 688.8,454.7000524649883 L 704,451.24580992117853 L 719.2,448.39899139427195 L 734.4,448.4524219870733 L 749.6,451.36306874778927 L 764.8,454.7866993710265 L 780,455.9659248059911"
      stroke="url(#thread-36)"
      stroke-width="7.406"
      stroke-linecap="round"
      fill="none"
      opacity="0.52"
      class="thread"
      style="animation-delay: 3.6s"
    >
      <title>2025-12-31: 3703 stars, Go, Python, TypeScript, Rust, Shell</title>
    </path>

    <path
      d="M 20,462.63007752612157 L 35.2,466.6821167551033 L 50.400000000000006,467.8770280831876 L 65.6,464.94193086933893 L 80.80000000000001,461.00344073369286 L 96,460.257038738941 L 111.2,463.4978304525175 L 126.4,467.2735588433894 L 141.60000000000002,467.5621249812083 L 156.79999999999998,464.0561334619344 L 172,460.4903457089725 L 187.2,460.6632211511603 L 202.4,464.3906040285687 L 217.6,467.7018955236377 L 232.8,467.0697386335206 L 248,463.1675391989817 L 263.20000000000005,460.1521195723938 L 278.40000000000003,461.2356589147295 L 293.59999999999997,465.26391571848654 L 308.8,467.94578487644117 L 324,466.42440224083805 L 339.2,462.3204223815619 L 354.4,460.005614476203 L 369.6,461.94583025885714 L 384.8,466.0742526769724 L 400,467.99307508956485 L 415.2,465.6582697556892 L 430.40000000000003,461.5569906927415 L 445.6,460.0581300519745 L 460.79999999999995,462.7583508228513 L 476,466.78123978123637 L 491.2,467.84140992324745 L 506.40000000000003,464.8095138084069 L 521.6,460.91528219539674 L 536.8000000000001,460.3070497057124 L 552,463.6327366855517 L 567.1999999999999,467.3496513256671 L 582.4,467.4983461100913 L 597.6,463.92042375187253 L 612.8000000000001,460.42727008179577 L 628,460.7399709899173 L 643.1999999999999,464.5254214808897 L 658.4,467.75116614625836 L 673.6,466.9809768400785 L 688.8,463.03529859013366 L 704,460.117269605986 L 719.2,461.33532355681587 L 734.4,465.39192709658494 L 749.6,467.9657787255355 L 764.8,466.3150800906118 L 780,462.1982397759445"
      stroke="url(#thread-37)"
      stroke-width="8"
      stroke-linecap="round"
      fill="none"
      opacity="0.5066666666666667"
      class="thread"
      style="animation-delay: 3.7s"
    >
      <title>2025-12-30: 4315 stars, Go, Shell, Rust, Python, Swift, TypeScript</title>
    </path>

    <path
      d="M 20,476.5995088386518 L 35.2,479.30922499096795 L 50.400000000000006,479.89706822342407 L 65.6,477.98611383628656 L 80.80000000000001,474.8016645443064 L 96,472.38558717000615 L 111.2,472.2870689601903 L 126.4,474.56927972715386 L 141.60000000000002,477.76886740597223 L 156.79999999999998,479.8342584502917 L 172,479.44112546084983 L 187.2,476.84154505573 L 202.4,473.70236650618995 L 217.6,472.03642906403456 L 232.8,472.9119307376612 L 248,475.7675004212578 L 263.20000000000005,478.77214868408623 L 278.40000000000003,479.9992970070065 L 293.59999999999997,478.6620986805434 L 308.8,475.6179644051324 L 324,472.8187911055948 L 339.2,472.05940688775445 L 354.4,473.82672842001637 L 369.6,476.9875502811029 L 384.8,479.5151555418702 L 400,479.78884534698005 L 415.2,477.63312997074473 L 430.40000000000003,474.4302527155217 L 445.6,472.23389640192374 L 460.79999999999995,472.4523632750103 L 476,474.94557251732294 L 491.2,478.11487997826833 L 506.40000000000003,479.9281277675717 L 521.6,479.22266257770025 L 536.8000000000001,476.4508282312644 L 552,473.3899231150745 L 567.1999999999999,472.002597606192 L 582.4,473.1784039219377 L 597.6,476.1634158145675 L 612.8000000000001,479.04364559278866 L 628,479.9722917891692 L 643.1999999999999,478.3539070643446 L 658.4,475.2261986551732 L 673.6,472.59465116688835 L 688.8,472.1466111437586 L 704,474.1693615582888 L 719.2,477.3659161554067 L 734.4,479.6866461987794 L 749.6,479.64350108840904 L 764.8,477.2641454411074 L 780,474.0742205561228"
      stroke="url(#thread-38)"
      stroke-width="6.556"
      stroke-linecap="round"
      fill="none"
      opacity="0.49333333333333335"
      class="thread"
      style="animation-delay: 3.8000000000000003s"
    >
      <title>2025-12-29: 3278 stars, Shell, Go, JavaScript, TypeScript, Rust, Python</title>
    </path>

    <path
      d="M 20,490.4221594788784 L 35.2,491.99776437221163 L 50.400000000000006,490.20403817539915 L 65.6,486.5527401817446 L 80.80000000000001,484.12119829354276 L 96,484.95872530617925 L 111.2,488.35945025283877 L 126.4,491.45722915278554 L 141.60000000000002,491.6412421111458 L 156.79999999999998,488.7564023034176 L 172,485.23406374381756 L 187.2,484.0428668308076 L 202.4,486.1867568747688 L 217.6,489.85885515388776 L 232.8,491.9643032057932 L 248,490.72862136648047 L 263.20000000000005,487.1932470122153 L 278.40000000000003,484.3378071590191 L 293.59999999999997,484.5688774270784 L 308.8,487.69171091145 L 324,491.07437161776204 L 339.2,491.8659401760752 L 354.4,489.3992795805056 L 369.6,485.7533008072128 L 384.8,484.0008486992435 L 400,485.6188965900976 L 415.2,489.2437475340786 L 430.40000000000003,491.8203633034225 L 445.6,491.177162281325 L 460.79999999999995,487.8562367471687 L 476,484.65647543188226 L 491.2,484.2746493997083 L 506.40000000000003,487.03256308969105 L 521.6,490.60583630469137 L 536.8000000000001,491.9829007240317 L 552,490.00316119271304 L 567.1999999999999,486.335149753201 L 582.4,484.0702804638285 L 597.6,485.1173938167574 L 612.8000000000001,488.59397867665064 L 628,491.56995603800453 L 643.1999999999999,491.53716080812944 L 658.4,488.52323293208934 L 673.6,485.0683223413773 L 688.8,484.084240884604 L 704,486.40037617415345 L 719.2,490.0646805370045 L 734.4,491.9888642532003 L 749.6,490.5512179335645 L 764.8,486.9633953901758 L 780,484.2492271732767"
      stroke="url(#thread-39)"
      stroke-width="7.59"
      stroke-linecap="round"
      fill="none"
      opacity="0.48"
      class="thread"
      style="animation-delay: 3.9000000000000004s"
    >
      <title>2025-12-28: 3795 stars, Shell, Rust, Python, JavaScript, TypeScript</title>
    </path>

    <path
      d="M 20,503.6517810029105 L 35.2,502.38236596920797 L 50.400000000000006,497.37709240555466 L 65.6,496.4848778079169 L 80.80000000000001,501.1048302722854 L 96,503.9922657135714 L 111.2,500.6193112262545 L 126.4,496.27519649017603 L 141.60000000000002,497.77205629135244 L 156.79999999999998,502.76262050897003 L 172,503.42103780758015 L 187.2,498.7148245498777 L 202.4,496.0239329219662 L 217.6,499.5680296632293 L 232.8,503.789511864228 L 248,502.0685484438127 L 263.20000000000005,497.103833035535 L 278.40000000000003,496.6806826924917 L 293.59999999999997,501.4626519814211 L 308.8,503.9509934433219 L 324,500.2436652441417 L 339.2,496.1542383697181 L 354.4,498.0954640383303 L 369.6,503.02324887122035 L 384.8,503.2101877427036 L 400,498.3631362800697 L 415.2,496.0828992235791 L 430.40000000000003,499.94518373489524 L 445.6,503.8934272526019 L 460.79999999999995,501.7362723552988 L 476,496.85641743092253 L 491.2,496.9061072981875 L 506.40000000000003,501.80742180675867 L 521.6,503.87446472932186 L 536.8000000000001,499.86584493040885 L 552,496.06759766348546 L 567.1999999999999,498.4358667932642 L 582.4,503.25689946058867 L 597.6,502.9706917675762 L 612.8000000000001,498.0260544616509 L 628,496.17681952984174 L 643.1999999999999,500.32282695608643 L 658.4,503.9625998855404 L 673.6,501.3885027486336 L 688.8,496.63705338944527 L 704,497.15914006258487 L 719.2,502.136063216249 L 734.4,503.7633624707811 L 749.6,499.4892217410785 L 764.8,496.0160475044205 L 780,498.79022699338566"
      stroke="url(#thread-40)"
      stroke-width="8"
      stroke-linecap="round"
      fill="none"
      opacity="0.46666666666666673"
      class="thread"
      style="animation-delay: 4s"
    >
      <title>2025-12-27: 5384 stars, Shell, Python, Rust, C, Go</title>
    </path>

    <path
      d="M 20,515.9873191771152 L 35.2,514.040569875143 L 50.400000000000006,510.36732310860793 L 65.6,508.0754612913343 L 80.80000000000001,509.10409646493935 L 96,512.582914879905 L 111.2,515.5685372154463 L 126.4,515.5348704152826 L 141.60000000000002,512.5103994854069 L 156.79999999999998,509.054086731243 L 172,508.09026975058185 L 187.2,510.43442053175585 L 202.4,514.1031860763942 L 217.6,515.9924754694777 L 232.8,514.5037875340957 L 248,510.8966801894704 L 263.20000000000005,508.22307621499937 L 278.40000000000003,508.74507432114495 L 293.59999999999997,512.0210192537818 L 308.8,515.2791800914933 L 324,515.7628727853921 L 339.2,513.0628517517732 L 354.4,509.4635668032079 L 369.6,508.0103222998333 L 384.8,509.93268797166917 L 400,513.6041772676707 L 415.2,515.918394745108 L 430.40000000000003,514.9173135527993 L 445.6,511.4479344043181 L 460.79999999999995,508.4456501898687 L 476,508.4506513470761 L 491.2,511.4587064671835 L 506.40000000000003,514.924742430474 L 521.6,515.916194968701 L 536.8000000000001,513.5942100370535 L 552,509.9233864204477 L 567.1999999999999,508.0095563396415 L 582.4,509.47198450218855 L 597.6,513.0733310132391 L 612.8000000000001,515.7665472536397 L 628,515.2729408506307 L 643.1999999999999,512.0101452377291 L 658.4,508.73876588190836 L 673.6,508.2266708342696 L 688.8,510.9071365104522 L 704,514.5122586107061 L 719.2,515.991794042968 L 734.4,514.093928692148 L 749.6,510.4244197323506 L 764.8,508.08798707170286 L 780,509.061453515377"
      stroke="url(#thread-41)"
      stroke-width="7.606"
      stroke-linecap="round"
      fill="none"
      opacity="0.45333333333333337"
      class="thread"
      style="animation-delay: 4.1000000000000005s"
    >
      <title>2025-12-26: 3803 stars, Python, Shell, Go, TypeScript</title>
    </path>

    <path
      d="M 20,527.3466225541442 L 35.2,524.434095486253 L 50.400000000000006,521.2049316994255 L 65.6,520.0145388372528 L 80.80000000000001,521.7312099413807 L 96,525.1027755626509 L 111.2,527.6699577085368 L 126.4,527.5602095377864 L 141.60000000000002,524.8535832550323 L 156.79999999999998,521.5243386549462 L 172,520.0008840488111 L 187.2,521.3944534466801 L 202.4,524.6885533448775 L 217.6,527.4804105825569 L 232.8,527.7335964396052 L 248,525.263432794283 L 263.20000000000005,521.8716995237354 L 278.40000000000003,520.0323852509795 L 293.59999999999997,521.0871174631956 L 308.8,524.2665563316856 L 324,527.2515644241151 L 339.2,527.8648254625764 L 354.4,525.6590162907153 L 369.6,522.243092082902 L 384.8,520.1086867481476 L 400,520.8126722730976 L 415.2,523.8415494994844 L 430.40000000000003,526.9860032480555 L 445.6,527.9524148350777 L 460.79999999999995,526.0358670159652 L 476,522.6343227558856 L 491.2,520.2289269824781 L 506.40000000000003,520.5742167723871 L 521.6,523.4183318100338 L 536.8000000000001,526.6867256365945 L 552,527.9953755423045 L 567.1999999999999,526.3897297626273 L 582.4,523.0409739641985 L 597.6,520.3917482621816 L 612.8000000000001,520.3744434797312 L 628,523.0016820230009 L 643.1999999999999,526.3571108808497 L 658.4,527.9932224937227 L 673.6,526.7166088919003 L 688.8,523.4584540084833 L 704,520.5953120918839 L 719.2,520.2156081339075 L 734.4,522.596304736627 L 749.6,526.0008808235982 L 764.8,527.9459800004657 L 780,527.0128134503151"
      stroke="url(#thread-42)"
      stroke-width="7.022"
      stroke-linecap="round"
      fill="none"
      opacity="0.44"
      class="thread"
      style="animation-delay: 4.2s"
    >
      <title>2025-12-25: 3511 stars, Python, TypeScript</title>
    </path>

    <path
      d="M 20,537.8865560123768 L 35.2,535.0698535050548 L 50.400000000000006,532.7220445533515 L 65.6,532.0266765804529 L 80.80000000000001,533.3342895959678 L 96,535.9857064492538 L 111.2,538.6443287845452 L 126.4,539.9699259106372 L 141.60000000000002,539.2942547570574 L 156.79999999999998,536.9579260247574 L 172,534.1386998755353 L 187.2,532.2577685413522 L 202.4,532.263323071632 L 217.6,534.1525633876056 L 232.8,536.9731098222103 L 248,539.3031045781028 L 263.20000000000005,539.9679804966679 L 278.40000000000003,538.632568832772 L 293.59999999999997,535.9700602361694 L 308.8,533.3226444904169 L 324,532.0249029641193 L 339.2,532.7310365190191 L 354.4,535.0850781379871 L 369.6,537.9003384653241 L 384.8,539.7576244684797 L 400,539.7206648799132 L 415.2,537.8080912947461 L 430.40000000000003,534.9840458493029 L 445.6,532.6721502175234 L 460.79999999999995,532.0378476590398 L 476,533.4008946676968 L 491.2,536.0741694171604 L 506.40000000000003,538.7100548285795 L 521.6,539.9797820580346 L 536.8000000000001,539.2432724528397 L 552,536.8718058161269 L 567.1999999999999,534.0608555806967 L 582.4,532.2274420306883 L 597.6,532.2958021578603 L 612.8000000000001,534.2314751291436 L 628,537.0586742410968 L 643.1999999999999,539.3521880337507 L 658.4,539.9558396651322 L 673.6,538.5653239947803 L 688.8,535.8816099994726 L 704,533.2575772571704 L 719.2,532.0160195958186 L 734.4,532.7828151856847 L 749.6,535.1714168403641 L 764.8,537.9777132409346 L 780,539.7870301349695"
      stroke="url(#thread-43)"
      stroke-width="5.776"
      stroke-linecap="round"
      fill="none"
      opacity="0.42666666666666664"
      class="thread"
      style="animation-delay: 4.3s"
    >
      <title>2025-12-24: 2888 stars, Python, TypeScript</title>
    </path>

    <path
      d="M 20,547.9645947628384 L 35.2,545.318586242321 L 50.400000000000006,544.0242977333887 L 65.6,544.7341894068295 L 80.80000000000001,547.0903997508572 L 96,549.9051461398305 L 111.2,551.7594946212344 L 126.4,551.7186547534264 L 141.60000000000002,549.8032142082753 L 156.79999999999998,546.978760377308 L 172,544.6691208045518 L 187.2,544.0386014540163 L 202.4,545.4050516771379 L 217.6,548.0796340626298 L 232.8,550.7140723428889 L 248,551.9803271832495 L 263.20000000000005,551.2400703874083 L 278.40000000000003,548.8664707443239 L 293.59999999999997,546.0560769506907 L 308.8,544.2256287843251 L 324,544.2978683657075 L 339.2,546.2363792009254 L 354.4,549.0639439988636 L 369.6,551.3551669546108 L 384.8,551.9550260535982 L 400,550.5611279982937 L 415.2,547.8761468501207 L 430.40000000000003,545.2536009679376 L 445.6,544.0155346427812 L 460.79999999999995,544.7860660371659 L 476,547.1767647186897 L 491.2,549.9824622420756 L 506.40000000000003,551.7887862532046 L 521.6,551.6851557922166 L 536.8000000000001,549.7238117218004 L 552,546.8934817315911 L 567.1999999999999,544.6209555798642 L 582.4,544.0518300874545 L 597.6,545.4730055191906 L 612.8000000000001,548.1680570914863 L 628,550.7783898720623 L 643.1999999999999,551.9881162824738 L 658.4,551.1874045155954 L 673.6,548.7798991472414 L 688.8,545.979240994717 L 704,544.1972620289497 L 719.2,544.3322706968748 L 734.4,546.3162081554103 L 749.6,549.1489572250438 L 764.8,551.4025086721173 L 780,551.9408309612433"
      stroke="url(#thread-44)"
      stroke-width="5.776"
      stroke-linecap="round"
      fill="none"
      opacity="0.4133333333333334"
      class="thread"
      style="animation-delay: 4.4s"
    >
      <title>2025-12-23: 2888 stars, Python, TypeScript</title>
    </path>
  </g>

  <!-- Date markers -->
  <g id="dates">
    <text x="785" y="24" class="date-label">02-05</text>
<text x="785" y="108" class="date-label">01-29</text>
<text x="785" y="192" class="date-label">01-22</text>
<text x="785" y="276" class="date-label">01-15</text>
<text x="785" y="360" class="date-label">01-08</text>
<text x="785" y="444" class="date-label">01-01</text>
<text x="785" y="528" class="date-label">12-25</text>
  </g>

</svg>