<?xml version="1.0" encoding="UTF-8"?>
<svg xmlns="http://www.w3.org/2000/svg" viewBox="0 0 800 200" width="800" height="200">
  <title>The Data Tapestry - GitHub Trends Woven in Time</title>
  <desc>A living data art piece that weaves daily GitHub trending repositories into an evolving tapestry. Each thread represents one day of open source activity.</desc>

  <style>
    .thread {
      animation: breathe 8s ease-in-out infinite alternate;
    }

    @keyframes breathe {
      0% {
        opacity: var(--base-opacity, 0.7);
        stroke-width: var(--base-width, 4);
      }
      100% {
        opacity: calc(var(--base-opacity, 0.7) + 0.15);
        stroke-width: calc(var(--base-width, 4) + 0.5);
      }
    }

    .date-label {
      font-family: ui-monospace, monospace;
      font-size: 8px;
      fill: #666;
    }

    .title {
      font-family: system-ui, sans-serif;
      font-size: 14px;
      fill: #333;
      font-weight: 600;
    }

    .subtitle {
      font-family: system-ui, sans-serif;
      font-size: 10px;
      fill: #888;
    }

    .empty-state {
      font-family: system-ui, sans-serif;
      font-size: 12px;
      fill: #999;
      text-anchor: middle;
    }
  </style>

  <defs>
    
    <linearGradient id="thread-0" x1="0%" y1="0%" x2="100%" y2="0%">
      <stop offset="0%" stop-color="#3572A5" />
      <stop offset="50%" stop-color="#89e051" />
      <stop offset="100%" stop-color="#dea584" />
    </linearGradient>

    <linearGradient id="thread-1" x1="0%" y1="0%" x2="100%" y2="0%">
      <stop offset="0%" stop-color="#3572A5" />
      <stop offset="50%" stop-color="#89e051" />
      <stop offset="100%" stop-color="#00ADD8" />
    </linearGradient>

    <linearGradient id="thread-2" x1="0%" y1="0%" x2="100%" y2="0%">
      <stop offset="0%" stop-color="#3572A5" />
      <stop offset="50%" stop-color="#3178c6" />
      <stop offset="100%" stop-color="#3572A5" />
    </linearGradient>

    <linearGradient id="thread-3" x1="0%" y1="0%" x2="100%" y2="0%">
      <stop offset="0%" stop-color="#3572A5" />
      <stop offset="50%" stop-color="#3178c6" />
      <stop offset="100%" stop-color="#3572A5" />
    </linearGradient>

    <linearGradient id="thread-4" x1="0%" y1="0%" x2="100%" y2="0%">
      <stop offset="0%" stop-color="#3572A5" />
      <stop offset="50%" stop-color="#3178c6" />
      <stop offset="100%" stop-color="#3572A5" />
    </linearGradient>

    <!-- Background pattern -->
    <pattern id="loom" patternUnits="userSpaceOnUse" width="20" height="20">
      <rect width="20" height="20" fill="#fafafa"/>
      <circle cx="10" cy="10" r="0.5" fill="#eee"/>
    </pattern>
  </defs>

  <!-- Background -->
  <rect width="100%" height="100%" fill="url(#loom)"/>

  <!-- Threads -->
  <g id="tapestry">
    
    <path
      d="M 20,20 L 35.2,23.905630773258704 L 50.400000000000006,21.686726429871364 L 65.6,16.82281649029376 L 80.80000000000001,16.941141971037 L 96,21.856153186511794 L 111.2,23.860475698256188 L 126.4,19.811072101835627 L 141.60000000000002,16.05793192968556 L 156.79999999999998,18.486465277253696 L 172,23.288417183276252 L 187.2,22.93370485594281 L 202.4,17.97856318564172 L 217.6,16.193296363824764 L 232.8,20.37743408942408 L 248,23.969706257550744 L 263.20000000000005,21.33696464721069 L 278.40000000000003,16.60768923556504 L 293.59999999999997,17.197996654332044 L 308.8,22.18220838299996 L 324,23.744434611904058 L 339.2,19.434902191831476 L 354.4,16.011516356368098 L 369.6,18.842589673788392 L 384.8,23.488632351801186 L 400,22.664047469737014 L 415.2,17.661890966584114 L 430.40000000000003,16.326192383557412 L 445.6,20.751500169274316 L 460.79999999999995,23.998358315460703 L 476,20.975272543845335 L 491.2,16.422833054521078 L 506.40000000000003,17.479854839850674 L 521.6,22.48879077898597 L 536.8000000000001,23.594980296659976 L 552,19.06377489689943 L 567.1999999999999,16.00069176826714 L 582.4,19.20904214923482 L 597.6,23.657716926959633 L 612.8000000000001,22.37061762196856 L 628,17.36608271776635 L 643.1999999999999,16.49187139658972 L 658.4,21.11886028420032 L 673.6,23.991331272135525 L 688.8,20.604877656717697 L 704,16.269897499772455 L 719.2,17.78420138364088 L 734.4,22.773164605566535 L 749.6,23.413446398791496 L 764.8,18.701001948325867 L 780,16.025554757919963"
      stroke="url(#thread-0)"
      stroke-width="8"
      stroke-linecap="round"
      fill="none"
      opacity="1"
      class="thread"
      style="animation-delay: 0s"
    >
      <title>2025-12-27: 5384 stars, Shell, Python, Rust, C, Go</title>
    </path>

    <path
      d="M 20,33.917702154416816 L 35.2,35.973579973585295 L 50.400000000000006,34.667467677540564 L 65.6,31.10444850554073 L 80.80000000000001,28.299142854358713 L 96,28.625080370339077 L 111.2,31.80648990650917 L 126.4,35.1516256104763 L 141.60000000000002,35.83021522257912 L 156.79999999999998,33.268113618435606 L 172,29.633078921592567 L 187.2,28.00066285127628 L 202.4,29.75202967970515 L 217.6,33.40537257162441 L 232.8,35.86964950151399 L 248,35.059870426513015 L 263.20000000000005,31.661178029984498 L 278.40000000000003,28.549158135728888 L 293.59999999999997,28.35684699629051 L 308.8,31.246956361309532 L 324,34.77420535518501 L 339.2,35.95423822563913 L 354.4,33.78864576171702 L 369.6,30.10970528152613 L 384.8,28.030116569915542 L 400,29.309390380065196 L 415.2,32.86515113806821 L 430.40000000000003,35.68891968912279 L 445.6,35.3915451870388 L 460.79999999999995,32.2246320145565 L 476,28.867660854687557 L 491.2,28.160917779830342 L 506.40000000000003,30.702368163139646 L 521.6,34.3417265884945 L 536.8000000000001,35.99978309080113 L 552,34.273679389044446 L 567.1999999999999,30.623847542404256 L 582.4,28.138358930383493 L 597.6,28.92015050168767 L 612.8000000000001,32.307759406102626 L 628,35.43497740658233 L 643.1999999999999,35.65590934671363 L 658.4,32.78362782002832 L 673.6,29.248329818915753 L 688.8,28.04118124744336 L 704,30.183533529733136 L 719.2,33.86277253841318 L 734.4,35.96594590787945 L 749.6,34.71358823772997 L 764.8,31.165301734474497 L 780,28.323241691120955"
      stroke="url(#thread-1)"
      stroke-width="7.606"
      stroke-linecap="round"
      fill="none"
      opacity="0.88"
      class="thread"
      style="animation-delay: 0.1s"
    >
      <title>2025-12-26: 3803 stars, Python, Shell, Go, TypeScript</title>
    </path>

    <path
      d="M 20,47.36588393923159 L 35.2,47.80735959315288 L 50.400000000000006,45.47168163096048 L 65.6,42.06253375787756 L 80.80000000000001,40.066607107734825 L 96,40.9397649312507 L 111.2,44.04511088394122 L 126.4,47.117552181476825 L 141.60000000000002,47.915997261323454 L 156.79999999999998,45.8580465401184 L 172,42.444804693515785 L 187.2,40.1659490700934 L 202.4,40.683716183200275 L 217.6,43.62043778919181 L 232.8,46.83401860443214 L 248,47.980417473006206 L 263.20000000000005,46.22343132938413 L 278.40000000000003,42.84463610639788 L 293.59999999999997,40.30858319249499 L 308.8,40.4651132313507 L 324,43.20005051856864 L 339.2,46.5184847255576 L 354.4,47.99989282781831 L 369.6,46.563710258890524 L 384.8,43.25751330284003 L 400,40.49289892271496 L 415.2,40.28642442944855 L 430.40000000000003,42.78869587208364 L 445.6,46.17451339350417 L 460.79999999999995,47.97420341992313 L 476,46.87504107141547 L 491.2,43.6787742827819 L 506.40000000000003,40.71681506093695 L 521.6,40.14966744088726 L 536.8000000000001,42.391018657934644 L 552,45.80598855823225 L 567.1999999999999,47.903639321095504 L 582.4,47.15390837720315 L 597.6,44.10366238072873 L 612.8000000000001,40.97780325960659 L 628,40.056386456274616 L 643.1999999999999,42.011509245685026 L 658.4,45.41707141541715 L 673.6,47.78899730537822 L 688.8,47.397163347963705 L 704,44.52737997560738 L 719.2,41.272916572250566 L 734.4,40.00763475721504 L 749.6,41.6544528632866 L 764.8,45.01215342033635 L 780,47.63157185231338"
      stroke="url(#thread-2)"
      stroke-width="7.022"
      stroke-linecap="round"
      fill="none"
      opacity="0.76"
      class="thread"
      style="animation-delay: 0.2s"
    >
      <title>2025-12-25: 3511 stars, Python, TypeScript</title>
    </path>

    <path
      d="M 20,59.98997994641622 L 35.2,59.172100970113 L 50.400000000000006,56.75514301996957 L 65.6,53.957512027936026 L 80.80000000000001,52.18951395150688 L 96,52.34240937048237 L 111.2,54.339122601590184 L 126.4,57.17309610623492 L 141.60000000000002,59.415703404239885 L 156.79999999999998,59.936429984683755 L 172,58.47277382327636 L 187.2,55.76257454577048 L 202.4,53.1720631518755 L 217.6,52.00713511607353 L 232.8,52.855039061797136 L 248,55.28834049556154 L 263.20000000000005,58.08039461746644 L 278.40000000000003,59.82370681046533 L 293.59999999999997,59.639460826611206 L 308.8,57.62053639500839 L 324,54.78468788059227 L 339.2,52.56148696948649 L 354.4,52.07166527303219 L 369.6,53.56214544063764 L 384.8,56.28156567159106 L 400,58.8590466170556 L 415.2,59.99526154556868 L 430.40000000000003,59.11743631813944 L 445.6,56.66808896213023 L 460.79999999999995,53.881953142556085 L 476,52.163540017580225 L 491.2,52.3791140354059 L 506.40000000000003,54.420002779089515 L 521.6,57.25737951558565 L 536.8000000000001,59.460902170999745 L 552,59.9197590845896 L 567.1999999999999,58.402637177283644 L 582.4,55.67432854289687 L 597.6,53.11019323853339 L 612.8000000000001,52.00283036173794 L 628,52.9104695241713 L 643.1999999999999,55.37556327883982 L 658.4,58.155440087613144 L 673.6,59.84874400480803 L 688.8,59.601868314932325 L 704,57.53926483353417 L 719.2,54.70070684953123 L 734.4,52.517131912204526 L 749.6,52.08929589376044 L 764.8,53.632874016328245 L 780,56.36973741719709"
      stroke="url(#thread-3)"
      stroke-width="5.776"
      stroke-linecap="round"
      fill="none"
      opacity="0.64"
      class="thread"
      style="animation-delay: 0.30000000000000004s"
    >
      <title>2025-12-24: 2888 stars, Python, TypeScript</title>
    </path>

    <path
      d="M 20,71.63718970730272 L 35.2,69.61553786788878 L 50.400000000000006,66.77948173922815 L 65.6,64.55869766728226 L 80.80000000000001,64.07269891734337 L 96,65.56648096391311 L 111.2,68.2870175052831 L 126.4,70.86286645248553 L 141.60000000000002,71.9955237761505 L 156.79999999999998,71.11400875154584 L 172,68.66269945939807 L 187.2,65.87731859087769 L 202.4,64.16199672787758 L 217.6,64.38143999114715 L 232.8,66.42502544921246 L 248,69.26256693586157 L 263.20000000000005,71.4636393254598 L 278.40000000000003,71.91866615393216 L 293.59999999999997,70.39826511573453 L 308.8,67.66888133821101 L 324,65.10641686587404 L 339.2,64.00262851779507 L 354.4,64.91394395993204 L 369.6,67.38096250618219 L 384.8,70.16004231709867 L 400,71.85022921936526 L 415.2,71.5994878071927 L 430.40000000000003,69.53421863461566 L 445.6,66.69553878469807 L 460.79999999999995,64.51444724020729 L 476,64.09044797711279 L 491.2,65.63728208150427 L 506.40000000000003,68.37517932675391 L 521.6,70.92394596787581 L 536.8000000000001,71.99873036129249 L 552,71.05772594374598 L 567.1999999999999,68.57529982793754 L 582.4,65.80286092023616 L 597.6,64.13801566675815 L 612.8000000000001,64.42002456539349 L 628,66.50672489670407 L 643.1999999999999,69.34619597596296 L 658.4,71.50703995598612 L 673.6,71.8999598040624 L 688.8,70.32688179133413 L 704,67.58080588787308 L 719.2,65.04604875924782 L 734.4,64.00039975276022 L 749.6,64.97097807301479 L 764.8,67.46850818969041 L 780,70.23396716066226"
      stroke="url(#thread-4)"
      stroke-width="5.776"
      stroke-linecap="round"
      fill="none"
      opacity="0.52"
      class="thread"
      style="animation-delay: 0.4s"
    >
      <title>2025-12-23: 2888 stars, Python, TypeScript</title>
    </path>
  </g>

  <!-- Date markers -->
  <g id="dates">
    <text x="785" y="24" class="date-label">12-27</text>
  </g>

</svg>