<?xml version="1.0" encoding="UTF-8"?>
<svg xmlns="http://www.w3.org/2000/svg" viewBox="0 0 800 328" width="800" height="328">
  <title>The Data Tapestry - GitHub Trends Woven in Time</title>
  <desc>A living data art piece that weaves daily GitHub trending repositories into an evolving tapestry. Each thread represents one day of open source activity.</desc>

  <style>
    .thread {
      animation: breathe 8s ease-in-out infinite alternate;
    }

    @keyframes breathe {
      0% {
        opacity: 0.85;
      }
      100% {
        opacity: 1;
      }
    }

    .date-label {
      font-family: ui-monospace, monospace;
      font-size: 8px;
      fill: #666;
    }

    .title {
      font-family: system-ui, sans-serif;
      font-size: 14px;
      fill: #333;
      font-weight: 600;
    }

    .subtitle {
      font-family: system-ui, sans-serif;
      font-size: 10px;
      fill: #888;
    }

    .empty-state {
      font-family: system-ui, sans-serif;
      font-size: 12px;
      fill: #999;
      text-anchor: middle;
    }
  </style>

  <defs>
    
    <linearGradient id="thread-0" x1="0%" y1="0%" x2="100%" y2="0%">
      <stop offset="0%" stop-color="#3572A5" />
      <stop offset="50%" stop-color="#3178c6" />
      <stop offset="100%" stop-color="#89e051" />
    </linearGradient>

    <linearGradient id="thread-1" x1="0%" y1="0%" x2="100%" y2="0%">
      <stop offset="0%" stop-color="#3178c6" />
      <stop offset="50%" stop-color="#89e051" />
      <stop offset="100%" stop-color="#3572A5" />
    </linearGradient>

    <linearGradient id="thread-2" x1="0%" y1="0%" x2="100%" y2="0%">
      <stop offset="0%" stop-color="#3572A5" />
      <stop offset="50%" stop-color="#3178c6" />
      <stop offset="100%" stop-color="#89e051" />
    </linearGradient>

    <linearGradient id="thread-3" x1="0%" y1="0%" x2="100%" y2="0%">
      <stop offset="0%" stop-color="#3178c6" />
      <stop offset="50%" stop-color="#3572A5" />
      <stop offset="100%" stop-color="#8b8b8b" />
    </linearGradient>

    <linearGradient id="thread-4" x1="0%" y1="0%" x2="100%" y2="0%">
      <stop offset="0%" stop-color="#3178c6" />
      <stop offset="50%" stop-color="#89e051" />
      <stop offset="100%" stop-color="#3572A5" />
    </linearGradient>

    <linearGradient id="thread-5" x1="0%" y1="0%" x2="100%" y2="0%">
      <stop offset="0%" stop-color="#3572A5" />
      <stop offset="50%" stop-color="#3178c6" />
      <stop offset="100%" stop-color="#89e051" />
    </linearGradient>

    <linearGradient id="thread-6" x1="0%" y1="0%" x2="100%" y2="0%">
      <stop offset="0%" stop-color="#3572A5" />
      <stop offset="50%" stop-color="#3178c6" />
      <stop offset="100%" stop-color="#8b8b8b" />
    </linearGradient>

    <linearGradient id="thread-7" x1="0%" y1="0%" x2="100%" y2="0%">
      <stop offset="0%" stop-color="#3572A5" />
      <stop offset="50%" stop-color="#3178c6" />
      <stop offset="100%" stop-color="#8b8b8b" />
    </linearGradient>

    <linearGradient id="thread-8" x1="0%" y1="0%" x2="100%" y2="0%">
      <stop offset="0%" stop-color="#3178c6" />
      <stop offset="50%" stop-color="#3572A5" />
      <stop offset="100%" stop-color="#dea584" />
    </linearGradient>

    <linearGradient id="thread-9" x1="0%" y1="0%" x2="100%" y2="0%">
      <stop offset="0%" stop-color="#3572A5" />
      <stop offset="50%" stop-color="#3178c6" />
      <stop offset="100%" stop-color="#00ADD8" />
    </linearGradient>

    <linearGradient id="thread-10" x1="0%" y1="0%" x2="100%" y2="0%">
      <stop offset="0%" stop-color="#3572A5" />
      <stop offset="50%" stop-color="#00ADD8" />
      <stop offset="100%" stop-color="#3178c6" />
    </linearGradient>

    <linearGradient id="thread-11" x1="0%" y1="0%" x2="100%" y2="0%">
      <stop offset="0%" stop-color="#3572A5" />
      <stop offset="50%" stop-color="#3178c6" />
      <stop offset="100%" stop-color="#00ADD8" />
    </linearGradient>

    <linearGradient id="thread-12" x1="0%" y1="0%" x2="100%" y2="0%">
      <stop offset="0%" stop-color="#3572A5" />
      <stop offset="50%" stop-color="#00ADD8" />
      <stop offset="100%" stop-color="#DA5B0B" />
    </linearGradient>

    <linearGradient id="thread-13" x1="0%" y1="0%" x2="100%" y2="0%">
      <stop offset="0%" stop-color="#3572A5" />
      <stop offset="50%" stop-color="#3178c6" />
      <stop offset="100%" stop-color="#dea584" />
    </linearGradient>

    <linearGradient id="thread-14" x1="0%" y1="0%" x2="100%" y2="0%">
      <stop offset="0%" stop-color="#dea584" />
      <stop offset="50%" stop-color="#3572A5" />
      <stop offset="100%" stop-color="#3178c6" />
    </linearGradient>

    <linearGradient id="thread-15" x1="0%" y1="0%" x2="100%" y2="0%">
      <stop offset="0%" stop-color="#3572A5" />
      <stop offset="50%" stop-color="#3178c6" />
      <stop offset="100%" stop-color="#dea584" />
    </linearGradient>

    <linearGradient id="thread-16" x1="0%" y1="0%" x2="100%" y2="0%">
      <stop offset="0%" stop-color="#3572A5" />
      <stop offset="50%" stop-color="#dea584" />
      <stop offset="100%" stop-color="#3178c6" />
    </linearGradient>

    <linearGradient id="thread-17" x1="0%" y1="0%" x2="100%" y2="0%">
      <stop offset="0%" stop-color="#3572A5" />
      <stop offset="50%" stop-color="#3178c6" />
      <stop offset="100%" stop-color="#89e051" />
    </linearGradient>

    <linearGradient id="thread-18" x1="0%" y1="0%" x2="100%" y2="0%">
      <stop offset="0%" stop-color="#3572A5" />
      <stop offset="50%" stop-color="#f1e05a" />
      <stop offset="100%" stop-color="#89e051" />
    </linearGradient>

    <linearGradient id="thread-19" x1="0%" y1="0%" x2="100%" y2="0%">
      <stop offset="0%" stop-color="#3572A5" />
      <stop offset="50%" stop-color="#89e051" />
      <stop offset="100%" stop-color="#dea584" />
    </linearGradient>

    <linearGradient id="thread-20" x1="0%" y1="0%" x2="100%" y2="0%">
      <stop offset="0%" stop-color="#3572A5" />
      <stop offset="50%" stop-color="#89e051" />
      <stop offset="100%" stop-color="#00ADD8" />
    </linearGradient>

    <linearGradient id="thread-21" x1="0%" y1="0%" x2="100%" y2="0%">
      <stop offset="0%" stop-color="#3572A5" />
      <stop offset="50%" stop-color="#3178c6" />
      <stop offset="100%" stop-color="#3572A5" />
    </linearGradient>

    <linearGradient id="thread-22" x1="0%" y1="0%" x2="100%" y2="0%">
      <stop offset="0%" stop-color="#3572A5" />
      <stop offset="50%" stop-color="#3178c6" />
      <stop offset="100%" stop-color="#3572A5" />
    </linearGradient>

    <linearGradient id="thread-23" x1="0%" y1="0%" x2="100%" y2="0%">
      <stop offset="0%" stop-color="#3572A5" />
      <stop offset="50%" stop-color="#3178c6" />
      <stop offset="100%" stop-color="#3572A5" />
    </linearGradient>

    <!-- Background pattern -->
    <pattern id="loom" patternUnits="userSpaceOnUse" width="20" height="20">
      <rect width="20" height="20" fill="#fafafa"/>
      <circle cx="10" cy="10" r="0.5" fill="#eee"/>
    </pattern>
  </defs>

  <!-- Background -->
  <rect width="100%" height="100%" fill="url(#loom)"/>

  <!-- Threads -->
  <g id="tapestry">
    
    <path
      d="M 20,20 L 35.2,23.234294339275653 L 50.400000000000006,23.80608568574922 L 65.6,21.244669764686954 L 80.80000000000001,17.658629419902176 L 96,16.00002842442701 L 111.2,17.63424347285943 L 126.4,21.215972622671853 L 141.60000000000002,23.796701119045203 L 156.79999999999998,23.251947815732745 L 172,20.03015900372143 L 187.2,16.78354300245491 L 202.4,16.18474611838752 L 217.6,18.726703851096296 L 232.8,22.31685152929369 L 248,23.99974418258074 L 263.20000000000005,22.390007984113705 L 278.40000000000003,18.81279364574775 L 293.59999999999997,16.21289928499961 L 308.8,16.730583576659967 L 324,19.93968370705585 L 339.2,23.19843680456989 L 354.4,23.8242051854354 L 369.6,21.301850147950752 L 384.8,17.707799231396862 L 400,16.000710590476764 L 415.2,17.585876427645406 L 430.40000000000003,21.158372594751707 L 445.6,23.777285019384813 L 460.79999999999995,23.28669916903071 L 476,20.090470153266928 L 491.2,16.819765215226262 L 506.40000000000003,16.167060911651575 L 521.6,18.66966986142827 L 536.8000000000001,22.26741969938874 L 552,23.9986072822537 L 567.1999999999999,22.438101920924545 L 582.4,18.87052701666939 L 597.6,16.23274540979247 L 612.8000000000001,16.696204929696016 L 628,19.87938112951657 L 643.1999999999999,23.161851972916907 L 658.4,23.841455093840953 L 673.6,21.358734501717596 L 688.8,17.757490269579222 L 704,16.00230216044984 L 719.2,17.538058333313217 L 734.4,21.100509162892866 L 749.6,23.757009997684925 L 764.8,23.32070315528092 L 780,20.15076073067975"
      stroke="url(#thread-0)"
      stroke-width="7.494"
      stroke-linecap="round"
      fill="none"
      opacity="1"
      class="thread"
      style="animation-delay: 0s"
    >
      <title>2026-01-15: 3747 stars, TypeScript, Shell, Python, JavaScript, C</title>
    </path>

    <path
      d="M 20,33.917702154416816 L 35.2,35.99162228234757 L 50.400000000000006,34.35485077938897 L 65.6,30.52896305726425 L 80.80000000000001,28.070580596415983 L 96,29.265064730589856 L 111.2,33.0019992013361 L 126.4,35.807455243625185 L 141.60000000000002,35.073425004863495 L 156.79999999999998,31.482277624996517 L 172,28.37241528368277 L 187.2,28.63482799622603 L 202.4,32.02557167488547 L 217.6,35.39254341490108 L 232.8,35.605739179475805 L 248,32.46696793664577 L 263.20000000000005,28.894093992749028 L 278.40000000000003,28.208532177157426 L 293.59999999999997,31.047594417611013 L 308.8,34.77203186989566 L 324,35.91953324642246 L 339.2,33.42335839666598 L 354.4,29.60400121234294 L 369.6,28.012012255795003 L 384.8,30.127336191038935 L 400,33.983525727247105 L 415.2,35.99579021365801 L 430.40000000000003,34.293488477162136 L 445.6,30.459114140665243 L 460.79999999999995,28.057178010477426 L 476,29.320567786327814 L 491.2,33.07481115190246 L 506.40000000000003,35.8298886485549 L 521.6,35.024625323812614 L 536.8000000000001,31.40761001409875 L 552,28.341292242232512 L 567.1999999999999,28.676182123870287 L 582.4,32.100959350335 L 597.6,35.43188275250253 L 612.8000000000001,35.57245954692064 L 628,32.39200674365525 L 643.1999999999999,28.84713665838235 L 658.4,28.233231175350774 L 673.6,31.120989067366924 L 688.8,34.82589304196869 L 704,35.90379052174385 L 719.2,33.35264652586597 L 734.4,29.544055359879014 L 749.6,28.01855928090131 L 764.8,30.194289848687582 L 780,34.0486445628313"
      stroke="url(#thread-1)"
      stroke-width="8"
      stroke-linecap="round"
      fill="none"
      opacity="0.975"
      class="thread"
      style="animation-delay: 0.1s"
    >
      <title>2026-01-14: 4003 stars, TypeScript, Shell, Python, C, HTML, Jupyter Notebook</title>
    </path>

    <path
      d="M 20,47.36588393923159 L 35.2,47.064115865882016 L 50.400000000000006,42.455926324463206 L 65.6,40.017834884963975 L 80.80000000000001,43.176425193611095 L 96,47.49249791546755 L 111.2,46.900085234463056 L 126.4,42.231785785603805 L 141.60000000000002,40.04859982015032 L 156.79999999999998,43.418857428064804 L 172,47.60587424396383 L 187.2,46.72506238266829 L 202.4,42.01434732573343 L 217.6,40.09434178465078 L 232.8,43.663492372681844 L 248,47.7055831933548 L 263.20000000000005,46.539710701261136 L 278.40000000000003,41.80443510389428 L 293.59999999999997,40.15488740226652 L 308.8,43.909402785327764 L 324,47.79124683587055 L 339.2,46.34473273046522 L 354.4,41.602844752357626 L 369.6,40.23000718637289 L 384.8,44.15565658944968 L 400,47.862540479800145 L 415.2,46.140867497119395 L 430.40000000000003,41.41034036093137 L 445.6,40.319416409744775 L 460.79999999999995,44.40132040693468 L 476,47.91919390017357 L 491.2,45.92888771353758 L 506.40000000000003,41.22765158082328 L 521.6,40.422776183760796 L 536.8000000000001,44.645463095901874 L 552,47.96099236299804 L 567.1999999999999,45.70959684868979 L 582.4,41.05547085903706 L 597.6,40.539694742896096 L 612.8000000000001,44.887159280017954 L 628,47.9877774391663 L 643.1999999999999,45.48382608280629 L 658.4,40.894450813784054 L 673.6,40.66972892963493 L 688.8,45.12549285596016 L 704,47.99944760495188 L 719.2,45.25243115694708 L 734.4,40.745201760858116 L 749.6,40.81238587417469 L 764.8,45.35956046573106 L 780,47.9959586268155"
      stroke="url(#thread-2)"
      stroke-width="8"
      stroke-linecap="round"
      fill="none"
      opacity="0.95"
      class="thread"
      style="animation-delay: 0.2s"
    >
      <title>2026-01-13: 5049 stars, TypeScript, Shell, C, Rust, Python</title>
    </path>

    <path
      d="M 20,59.98997994641622 L 35.2,58.63897489987652 L 50.400000000000006,55.202824537020035 L 65.6,52.39655007142696 L 80.80000000000001,52.437485991009474 L 96,55.29328741026275 L 111.2,58.70748688269254 L 126.4,59.98240735224146 L 141.60000000000002,58.11069007295072 L 156.79999999999998,54.57124358561959 L 172,52.16070694344928 L 187.2,52.78372849662552 L 202.4,55.94803737374647 L 217.6,59.153403718583824 L 232.8,59.86715675002108 L 248,57.52533551845698 L 263.20000000000005,53.978293952182206 L 278.40000000000003,52.028672238886664 L 293.59999999999997,53.216933906381044 L 308.8,56.60419232461418 L 324,59.514057495991224 L 339.2,59.64734433410074 L 354.4,56.89873829948888 L 369.6,53.44000805874629 L 384.8,52.00401596771618 L 400,53.72538902986851 L 415.2,57.24401086882217 L 430.40000000000003,59.779696706113555 L 445.6,59.3289134852038 L 460.79999999999995,56.247840615680396 L 476,52.97094030611455 L 491.2,52.087404796587066 L 506.40000000000003,54.295346043212795 L 521.6,57.85019332297361 L 536.8000000000001,59.94313888405587 L 552,58.92047407079907 L 567.1999999999999,55.59024171287323 L 582.4,52.5837735458324 L 597.6,52.27658402320701 L 612.8000000000001,54.911394208525884 L 628,58.40634947044774 L 643.1999999999999,59.99996481134181 L 658.4,58.4330696478762 L 673.6,54.9437220272921 L 688.8,52.288976155903704 L 704,52.56643853993273 L 719.2,55.55687655593164 L 734.4,58.89744172698323 L 749.6,59.94863800460483 L 764.8,57.87987886259834 L 780,54.32576243061791"
      stroke="url(#thread-3)"
      stroke-width="7.33"
      stroke-linecap="round"
      fill="none"
      opacity="0.925"
      class="thread"
      style="animation-delay: 0.30000000000000004s"
    >
      <title>2026-01-12: 3665 stars, TypeScript, Unknown, Python, Shell, C</title>
    </path>

    <path
      d="M 20,71.63718970730272 L 35.2,69.03778728218657 L 50.400000000000006,65.68663501996129 L 65.6,64.01123247713313 L 80.80000000000001,65.2252036884943 L 96,68.44917512918032 L 111.2,71.34777417805658 L 126.4,71.82132067885226 L 141.60000000000002,69.52678816463406 L 156.79999999999998,66.12628453883553 L 172,64.08305837913919 L 187.2,64.87717690075749 L 202.4,67.93339845299873 L 217.6,71.03786467249387 L 232.8,71.94176984069615 L 248,69.9903453218535 L 263.20000000000005,66.59715928099472 L 278.40000000000003,64.22015960135278 L 293.59999999999997,64.5811915518486 L 308.8,67.41873168289378 L 324,70.67732954918179 L 339.2,71.99652992329372 L 354.4,70.42073363440196 L 369.6,67.09141218039922 L 384.8,64.42025136982345 L 400,64.34218019892495 L 415.2,66.9137516733276 L 430.40000000000003,70.27217707883214 L 445.6,71.98468835702509 L 460.79999999999995,70.81078073729817 L 476,67.60080657707427 L 491.2,64.67999918137957 L 506.40000000000003,64.1641259349467 L 521.6,66.42687385016391 L 536.8000000000001,69.82915907441398 L 552,71.90644248004453 L 567.1999999999999,71.1539865465475 L 582.4,68.11685347997187 L 597.6,64.99507437268795 L 612.8000000000001,64.04999601095312 L 628,65.96621196869576 L 643.1999999999999,69.35565837307301 L 658.4,71.763096249666 L 673.6,71.44463158219236 L 688.8,68.63095303489732 L 704,65.36022625686253 L 719.2,64.00169238721202 L 734.4,65.53944289897404 L 749.6,68.85956580211545 L 764.8,71.55703851208489 L 780,71.67787228269798"
      stroke="url(#thread-4)"
      stroke-width="6.996"
      stroke-linecap="round"
      fill="none"
      opacity="0.9"
      class="thread"
      style="animation-delay: 0.4s"
    >
      <title>2026-01-11: 3498 stars, TypeScript, Unknown, Shell, Python</title>
    </path>

    <path
      d="M 20,82.39388857641583 L 35.2,78.70748470738076 L 50.400000000000006,76.14613098070122 L 65.6,76.9393185221526 L 80.80000000000001,80.39662938347523 L 96,83.50870027209554 L 111.2,83.56667674253337 L 126.4,80.52009406397137 L 141.60000000000002,77.02080347235753 L 156.79999999999998,76.1147088736027 L 172,78.5905064348918 L 187.2,82.29317608437157 L 202.4,83.99978572984139 L 217.6,82.22484314111631 L 232.8,78.51331991235931 L 248,76.0958545982656 L 263.20000000000005,77.07669285944095 L 278.40000000000003,80.60207905240135 L 293.59999999999997,83.60339475468248 L 308.8,83.46819067660317 L 324,80.3141531373573 L 339.2,76.88666581076768 L 354.4,76.16913255032927 L 369.6,78.78611919399445 L 384.8,82.45970979538276 L 400,83.99228367437642 L 415.2,82.04983536846511 L 430.40000000000003,78.32313925808593 L 445.6,76.05604090037839 L 460.79999999999995,77.22190134154268 L 476,80.80591521502832 L 491.2,83.68843253170597 L 506.40000000000003,83.36041023731616 L 521.6,80.10737031454366 L 536.8000000000001,76.76087154578931 L 552,76.23382253467202 L 567.1999999999999,78.98498502147592 L 582.4,82.61965175198387 L 597.6,83.9740827333899 L 612.8000000000001,81.8693342602361 L 628,78.13745240800498 L 643.1999999999999,76.02679658341452 L 658.4,77.37455482553771 L 673.6,81.00759161263633 L 688.8,83.76358571118344 L 704,83.24362426451329 L 719.2,79.90029975097883 L 734.4,76.6437577923547 L 749.6,76.30860546451713 L 764.8,79.18657097857329 L 780,82.77257332714744"
      stroke="url(#thread-5)"
      stroke-width="7.724"
      stroke-linecap="round"
      fill="none"
      opacity="0.875"
      class="thread"
      style="animation-delay: 0.5s"
    >
      <title>2026-01-10: 3862 stars, TypeScript, Unknown, Shell, Python</title>
    </path>

    <path
      d="M 20,92.56448003223947 L 35.2,89.01782898624342 L 50.400000000000006,88.12783171951509 L 65.6,90.68733833732509 L 80.80000000000001,94.41622375700744 L 96,95.99262699307273 L 111.2,94.01221623643825 L 126.4,90.2392315983671 L 141.60000000000002,88.03481965684321 L 156.79999999999998,89.36277098205767 L 172,93.04008604429184 L 187.2,95.7908450815411 L 202.4,95.16454664420627 L 217.6,91.71912590864704 L 232.8,88.52392060769876 L 248,88.42536516753728 L 263.20000000000005,91.51125726353555 L 278.40000000000003,95.03254365178884 L 293.59999999999997,95.85230202030233 L 308.8,93.2402542737718 L 324,89.52333152561677 L 339.2,88.01273786862114 L 354.4,90.05417894115475 L 369.6,93.82904604657311 L 384.8,95.97451561923152 L 400,94.57930563599513 L 415.2,90.88633270283276 L 430.40000000000003,88.18546532640012 L 445.6,88.88275919223692 L 460.79999999999995,92.35703316237678 L 476,95.51324572833268 L 491.2,95.5396989684094 L 506.40000000000003,92.41282713138088 L 521.6,88.91819008112077 L 536.8000000000001,88.16896968544143 L 552,90.8326056003868 L 567.1999999999999,94.53620962223214 L 582.4,95.9804425862686 L 597.6,93.87871598219566 L 612.8000000000001,90.10334360420595 L 628,88.01759913776627 L 643.1999999999999,89.47955876086674 L 658.4,93.18684224784951 L 673.6,95.83683259885873 L 688.8,95.06879770009009 L 704,91.56693802395473 L 719.2,88.45086968239097 L 734.4,88.49652829340475 L 749.6,91.66323908651971 L 764.8,95.12995184108492 L 780,95.80836092386647"
      stroke="url(#thread-6)"
      stroke-width="7.822"
      stroke-linecap="round"
      fill="none"
      opacity="0.85"
      class="thread"
      style="animation-delay: 0.6000000000000001s"
    >
      <title>2026-01-09: 3911 stars, TypeScript, Unknown, Python, Shell</title>
    </path>

    <path
      d="M 20,102.59686708924153 L 35.2,100.13950916262519 L 50.400000000000006,100.8963088073338 L 65.6,104.23717171399441 L 80.80000000000001,107.38057080261949 L 96,107.70938291296585 L 111.2,104.94984650057357 L 126.4,101.3994893221123 L 141.60000000000002,100.01425866168934 L 156.79999999999998,101.9474663137856 L 172,105.58956720403592 L 187.2,107.90823030380668 L 202.4,106.97298902959274 L 217.6,103.56250416551718 L 232.8,100.51626846251004 L 248,100.37050903813619 L 263.20000000000005,103.24658190052486 L 278.40000000000003,106.74993367401902 L 293.59999999999997,107.96375271415742 L 308.8,105.87744067414224 L 324,102.22801388739936 L 339.2,100.05390275869622 L 354.4,101.16522316178916 L 369.6,104.63671480252395 L 384.8,107.57809206415075 L 400,107.54043060159596 L 415.2,104.55508649886985 L 430.40000000000003,101.10758990097138 L 445.6,100.0682486933578 L 460.79999999999995,102.30239491601208 L 476,105.94992883045789 L 491.2,107.9739959946956 L 506.40000000000003,106.6894037545111 L 521.6,103.16567462628527 L 536.8000000000001,100.33658598027782 L 552,100.55757319363828 L 567.1999999999999,103.64464729840644 L 582.4,107.02758004510169 L 597.6,107.88981795409771 L 612.8000000000001,105.51348119605974 L 628,101.87705414114096 L 643.1999999999999,100.00814391069022 L 658.4,101.46276299648035 L 673.6,105.02982836660208 L 688.8,107.73948187353953 L 704,107.33572714225339 L 719.2,104.1547212525527 L 734.4,100.8448979387767 L 749.6,100.16194141618823 L 764.8,102.67446587672158 L 780,106.29060014177455"
      stroke="url(#thread-7)"
      stroke-width="7.54"
      stroke-linecap="round"
      fill="none"
      opacity="0.825"
      class="thread"
      style="animation-delay: 0.7000000000000001s"
    >
      <title>2026-01-08: 3770 stars, TypeScript, Unknown, Python, Rust, JavaScript</title>
    </path>

    <path
      d="M 20,112.9727900187683 L 35.2,112.06704040821504 L 50.400000000000006,114.1114163998311 L 65.6,117.57242500631894 L 80.80000000000001,119.85395257305183 L 96,119.24461795572998 L 111.2,116.20148500484503 L 126.4,113.00721750569568 L 141.60000000000002,112.05784575289807 L 156.79999999999998,114.06549654270883 L 172,117.5242245794764 L 187.2,119.83962687123466 L 202.4,119.27491273381146 L 217.6,116.25367605263574 L 232.8,113.04215615087948 L 248,112.04932440567995 L 263.20000000000005,114.01990709296369 L 278.40000000000003,117.47576381965615 L 293.59999999999997,119.82464537268635 L 308.8,119.30464816663947 L 324,116.30582377331899 L 339.2,113.0775999869041 L 354.4,112.04147782198116 L 369.6,113.9746558371367 L 384.8,117.42705100381028 L 400,119.8090106362018 L 415.2,119.33381917549139 L 430.40000000000003,116.35791926022078 L 445.6,113.11354296006884 L 460.79999999999995,112.03430734197462 L 476,113.92975050400635 L 491.2,117.37809445194142 L 506.40000000000003,119.79272533214707 L 521.6,119.36242077804658 L 536.8000000000001,116.40995361558852 L 552,113.14997893142194 L 567.1999999999999,112.02781419035678 L 582.4,113.88519876326863 L 597.6,117.32890252568146 L 612.8000000000001,119.77579224200312 L 628,119.39044808923732 L 643.1999999999999,116.46191795211071 L 658.4,113.18690167780895 L 673.6,112.0219994761384 L 688.8,113.84100822422693 L 704,117.27948362686362 L 719.2,119.75821425789087 L 734.4,119.41789632208307 L 749.6,116.51380339443473 L 764.8,113.22430489293573 L 780,112.01686419245523"
      stroke="url(#thread-8)"
      stroke-width="7.128"
      stroke-linecap="round"
      fill="none"
      opacity="0.8"
      class="thread"
      style="animation-delay: 0.8s"
    >
      <title>2026-01-07: 3564 stars, TypeScript, Python, Unknown, Shell, Rust</title>
    </path>

    <path
      d="M 20,124.08987952933961 L 35.2,125.35771824616032 L 50.400000000000006,129.3340564899928 L 65.6,131.94290568126615 L 80.80000000000001,130.51003670329334 L 96,126.50422741955146 L 111.2,124.03167601823445 L 126.4,125.62689809036425 L 141.60000000000002,129.65469397505547 L 156.79999999999998,131.98632788070174 L 172,130.23173322131908 L 187.2,126.1894762543209 L 202.4,124.00311626034213 L 217.6,125.91380522893262 L 232.8,129.96297074056375 L 248,131.99997183610685 L 263.20000000000005,129.9367584823724 L 278.40000000000003,125.88824987168103 L 293.59999999999997,124.00441359973907 L 308.8,126.21629643856764 L 324,130.25658393009775 L 339.2,131.98373562585192 L 354.4,129.62731597548438 L 369.6,125.60279846102902 L 384.8,124.03555834517799 L 400,126.53211208149567 L 415.2,130.53334022552852 L 430.40000000000003,131.93774053595394 L 445.6,129.30571726527268 L 460.79999999999995,125.33525437123825 L 476,124.09631784248252 L 491.2,126.85889298517364 L 506.40000000000003,130.79117223131087 L 521.6,131.8623301540585 L 536.8000000000001,128.97436472433662 L 552,125.0876161818117 L 567.1999999999999,124.18623821249567 L 582.4,127.1941980655298 L 597.6,131.0281539181223 L 612.8000000000001,131.7580678028079 L 628,128.63573358730807 L 643.1999999999999,124.8617337733053 L 658.4,124.30464774159987 L 673.6,127.53552256209129 L 688.8,131.2425150104834 L 704,131.62573233176778 L 719.2,128.29235346061586 L 734.4,124.65929450854618 L 749.6,124.45066189948082 L 764.8,127.8803167487803 L 780,131.43265421088165"
      stroke="url(#thread-9)"
      stroke-width="8"
      stroke-linecap="round"
      fill="none"
      opacity="0.775"
      class="thread"
      style="animation-delay: 0.9s"
    >
      <title>2026-01-06: 4224 stars, TypeScript, Python, Rust, JavaScript, Go</title>
    </path>

    <path
      d="M 20,136.16430290134744 L 35.2,138.67665749548522 L 50.400000000000006,142.28755833518147 L 65.6,143.99948849114605 L 80.80000000000001,142.3913234706062 L 96,138.79804921977416 L 111.2,136.2025503086281 L 126.4,136.75942811546815 L 141.60000000000002,140.00640169499715 L 156.79999999999998,143.24806103578572 L 172,143.7934076351382 L 187.2,141.18973294843906 L 202.4,137.59842531012987 L 217.6,136.00073674623593 L 232.8,137.72295638255005 L 248,141.3354181205034 L 263.20000000000005,143.83930928241554 L 278.40000000000003,143.15607482617045 L 293.59999999999997,139.85288813597035 L 308.8,136.67182340992957 L 324,136.25357774630382 L 339.2,138.94534939643742 L 354.4,142.51261809814082 L 369.6,143.99408726660323 L 384.8,142.15994497681456 L 400,138.53276767394547 L 415.2,136.12358386682692 L 430.40000000000003,136.93232918598622 L 445.6,140.28763992101253 L 460.79999999999995,143.404172143127 L 476,143.69479911825624 L 491.2,140.91826269040737 L 506.40000000000003,137.37944890235738 L 521.6,136.01603306290198 L 536.8000000000001,137.95982749308337 L 552,141.5972302220374 L 567.1999999999999,143.90872430850058 L 582.4,142.97546928475447 L 597.6,139.57218809590753 L 612.8000000000001,136.52404638111406 L 628,136.36139786610462 L 643.1999999999999,139.21926195432138 L 658.4,142.7252400764476 L 673.6,143.9689147933607 L 688.8,141.9178744759475 L 704,138.2747491179521 L 719.2,136.0638061863914 L 734.4,137.12041562390968 L 749.6,140.5674542922058 L 764.8,143.54343215794927 L 780,143.5779008677289"
      stroke="url(#thread-10)"
      stroke-width="7.528"
      stroke-linecap="round"
      fill="none"
      opacity="0.75"
      class="thread"
      style="animation-delay: 1s"
    >
      <title>2026-01-05: 3764 stars, Go, TypeScript, Python, Rust, JavaScript</title>
    </path>

    <path
      d="M 20,149.17783869771844 L 35.2,152.7897798709426 L 50.400000000000006,155.69947009880076 L 65.6,155.31969136217978 L 80.80000000000001,151.98813266359076 L 96,148.66712608024167 L 111.2,148.30962103326695 L 126.4,151.23350136150316 L 141.60000000000002,154.83893159156673 L 156.79999999999998,155.9200604721572 L 172,153.5155773819352 L 187.2,149.76348378858776 L 202.4,148.00004004765566 L 217.6,149.79325273886005 L 232.8,153.54864553535094 L 248,155.92702451919678 L 263.20000000000005,154.81359928955968 L 278.40000000000003,151.19839750968438 L 293.59999999999997,148.2959590292333 L 308.8,148.6870538092473 L 324,152.0239309268461 L 339.2,155.33952931018052 L 354.4,155.6857083636038 L 369.6,152.7546550160607 L 384.8,149.15258279610535 L 400,148.08235710308145 L 415.2,150.49559373821728 L 430.40000000000003,154.24650781794352 L 445.6,155.99988777839667 L 460.79999999999995,154.19667548183966 L 476,150.44023863431622 L 491.2,148.07069949575754 L 506.40000000000003,149.19498831515637 L 521.6,152.8134178184563 L 536.8000000000001,155.70857815144078 L 552,155.30617088536172 L 567.1999999999999,151.9640057003884 L 582.4,148.65384567515645 L 597.6,148.31899576406727 L 612.8000000000001,151.257195470582 L 628,154.85587691662673 L 643.1999999999999,155.91518968750324 L 658.4,153.49322145782088 L 673.6,149.74352100935715 L 688.8,148.00022077781233 L 704,149.81341627802652 L 719.2,153.57086300870716 L 734.4,155.931540749076 L 749.6,154.79639856624476 L 764.8,151.17477425210558 L 780,148.2869184004464"
      stroke="url(#thread-11)"
      stroke-width="7.814"
      stroke-linecap="round"
      fill="none"
      opacity="0.7250000000000001"
      class="thread"
      style="animation-delay: 1.1s"
    >
      <title>2026-01-04: 3907 stars, Python, Jupyter Notebook, TypeScript, Go, Rust</title>
    </path>

    <path
      d="M 20,162.88233800720428 L 35.2,166.55993871695426 L 50.400000000000006,167.97947570110009 L 65.6,165.8888076682022 L 80.80000000000001,162.13206534533663 L 96,160.02298570187796 L 111.2,161.42193992787185 L 126.4,165.09494231476356 L 141.60000000000002,167.80212098633672 L 156.79999999999998,167.15553520146227 L 172,163.72552357670423 L 187.2,160.53762136295396 L 202.4,160.4038046055627 L 217.6,163.44211002304328 L 232.8,166.97251750199155 L 248,167.8809348916784 L 263.20000000000005,165.36606787135526 L 278.40000000000003,161.646223448022 L 293.59999999999997,160.00259179298607 L 308.8,161.88498301064993 L 324,165.63298261614662 L 339.2,167.94056539227094 L 354.4,166.77226504989437 L 369.6,163.15861275222778 L 384.8,160.287129011487 L 400,160.69068433378445 L 415.2,164.01331174673948 L 430.40000000000003,167.3241971706235 L 445.6,167.70288386723817 L 460.79999999999995,164.81534091336985 L 476,161.20860428182166 L 491.2,160.06409433299837 L 506.40000000000003,162.39135726498463 L 521.6,166.13756737072066 L 536.8000000000001,167.99827791004438 L 552,166.3321984314034 L 567.1999999999999,162.60893975390704 L 582.4,160.112703684815 L 597.6,161.04536329274035 L 612.8000000000001,164.5842407475286 L 628,167.60777272538147 L 643.1999999999999,167.44897042802148 L 658.4,164.24790975056143 L 673.6,160.8281735199489 L 688.8,160.20623329557654 L 704,162.93068840556424 L 719.2,166.59835895534815 L 734.4,167.97407616097112 L 749.6,165.844351161105 L 764.8,162.0877659451779 L 780,160.01791890210677"
      stroke="url(#thread-12)"
      stroke-width="7.78"
      stroke-linecap="round"
      fill="none"
      opacity="0.7"
      class="thread"
      style="animation-delay: 1.2000000000000002s"
    >
      <title>2026-01-03: 3890 stars, Go, Python, Jupyter Notebook, TypeScript, Rust, JavaScript</title>
    </path>

    <path
      d="M 20,176.86047995235126 L 35.2,179.07735591758507 L 50.400000000000006,179.99795224573995 L 65.6,179.23448464857756 L 80.80000000000001,177.10854982348215 L 96,174.51565875369113 L 111.2,172.5480191606862 L 126.4,172.03446306969641 L 141.60000000000002,173.19131654799392 L 156.79999999999998,175.53127632382137 L 172,178.06867733593066 L 187.2,179.73468603006654 L 202.4,179.8275268549956 L 217.6,178.30809231906971 L 232.8,175.8164163025236 L 248,173.40207154538055 L 263.20000000000005,172.08205641552152 L 278.40000000000003,172.412403032499 L 293.59999999999997,174.25395895368564 L 308.8,176.83100258394992 L 324,179.05800164453066 L 339.2,179.99687369994209 L 354.4,179.25213614763643 L 369.6,177.13749599774707 L 384.8,174.54370655910876 L 400,172.56335397457352 L 415.2,172.03062538346458 L 430.40000000000003,173.16992291645462 L 445.6,175.50133842117492 L 460.79999999999995,178.0428059535891 L 476,179.72377901248163 L 491.2,179.8361785829199 L 506.40000000000003,178.3326584110816 L 521.6,175.8465487437394 L 536.8000000000001,173.42507759859024 L 552,172.08824520352275 L 567.1999999999999,172.39916764205879 L 582.4,174.2268745498404 L 597.6,176.80147797417186 L 612.8000000000001,179.03847352820486 L 628,179.99556793726202 L 643.1999999999999,179.26960276713908 L 658.4,177.16637750689785 L 673.6,174.57183715284546 L 688.8,172.5788841571549 L 704,172.02701335082912 L 719.2,173.14869017098272 L 734.4,175.47142886676698 L 749.6,178.0168184404827 L 764.8,179.71266030307936 L 780,179.8446122292628"
      stroke="url(#thread-13)"
      stroke-width="5.26"
      stroke-linecap="round"
      fill="none"
      opacity="0.675"
      class="thread"
      style="animation-delay: 1.3s"
    >
      <title>2026-01-02: 2630 stars, TypeScript, Rust, Python, JavaScript, Jupyter Notebook, Shell</title>
    </path>

    <path
      d="M 20,190.62794639487515 L 35.2,191.9886268876864 L 50.400000000000006,190.1449069132278 L 65.6,186.57800226681704 L 80.80000000000001,184.15350836199138 L 96,184.81922568756082 L 111.2,188.04032735467544 L 126.4,191.2290306556845 L 141.60000000000002,191.82358122361958 L 156.79999999999998,189.3463264298058 L 172,185.78745403618942 L 187.2,184.0061064700214 L 202.4,185.4333905091808 L 217.6,188.9226484765285 L 232.8,191.67066508624484 L 248,191.46972676767083 L 263.20000000000005,188.4812642236679 L 278.40000000000003,185.10616152839822 L 293.59999999999997,184.05592340725846 L 308.8,186.174294743109 L 324,189.75940913189825 L 339.2,191.9310417378267 L 354.4,190.94453688536385 L 369.6,187.59243714597835 L 384.8,184.5677670300306 L 400,184.3004992087679 L 415.2,187.00535247024843 L 430.40000000000003,190.50929000279586 L 445.6,191.99730318746865 L 460.79999999999995,190.27394550130683 L 476,186.72373555944046 L 491.2,184.19885651084826 L 506.40000000000003,184.7277566990156 L 521.6,187.88552598372988 L 536.8000000000001,191.1352619029666 L 552,191.86617743870363 L 567.1999999999999,189.4910664796145 L 582.4,185.91805602815683 L 597.6,184.01764680615975 L 612.8000000000001,185.31659786390478 L 628,188.7713522346451 L 643.1999999999999,191.6064142825068 L 658.4,191.5441394930449 L 673.6,188.63455845825752 L 688.8,185.21518308135512 L 704,184.03308606782022 L 719.2,186.03794567264916 L 734.4,189.61908904139233 L 749.6,191.8994815936563 L 764.8,191.04709161381675 L 780,187.74671588197018"
      stroke="url(#thread-14)"
      stroke-width="7.396"
      stroke-linecap="round"
      fill="none"
      opacity="0.65"
      class="thread"
      style="animation-delay: 1.4000000000000001s"
    >
      <title>2026-01-01: 3698 stars, Rust, Python, JavaScript, TypeScript, Jupyter Notebook, Go, Shell</title>
    </path>

    <path
      d="M 20,203.75199990709896 L 35.2,203.35310167411131 L 50.400000000000006,200.25361834305883 L 65.6,196.9498710246812 L 80.80000000000001,196.1026948629491 L 96,198.39440478301793 L 111.2,201.97925965898946 L 126.4,203.97002057069594 L 141.60000000000002,202.76333045519073 L 156.79999999999998,199.3310564553869 L 172,196.43754898985694 L 187.2,196.41323639093602 L 202.4,199.27770000411337 L 217.6,202.7239033898375 L 232.8,203.9762774145378 L 248,202.026161155576 L 263.20000000000005,198.44417650882468 L 278.40000000000003,196.11525071439726 L 293.59999999999997,196.9150985302116 L 308.8,200.1995232387075 L 324,203.32325210868134 L 339.2,203.77043669396807 L 354.4,201.1809149283727 L 369.6,197.64028533259474 L 384.8,196.00016782557375 L 400,197.5815115848231 L 415.2,201.11070375687083 L 430.40000000000003,203.7453361136499 L 445.6,203.3634781045507 L 460.79999999999995,200.27267782956437 L 476,196.9622630738184 L 491.2,196.098438929394 L 506.40000000000003,198.37692859186038 L 521.6,201.96263851900267 L 536.8000000000001,203.96764113320268 L 552,202.77710911702613 L 567.1999999999999,199.34989589459641 L 582.4,196.44627593890203 L 597.6,196.40482217283844 L 612.8000000000001,199.25892142262512 L 628,202.70988469774267 L 643.1999999999999,203.97830925394786 L 658.4,202.04260708484205 L 673.6,198.46179099118214 L 688.8,196.1198470614639 L 704,196.90297484815892 L 719.2,200.18044393024897 L 734.4,203.31258363183468 L 749.6,203.77677143047154 L 764.8,201.1991508870957 L 780,197.6557352886444"
      stroke="url(#thread-15)"
      stroke-width="7.406"
      stroke-linecap="round"
      fill="none"
      opacity="0.625"
      class="thread"
      style="animation-delay: 1.5s"
    >
      <title>2025-12-31: 3703 stars, Go, Python, TypeScript, Rust, Shell</title>
    </path>

    <path
      d="M 20,215.95743298649353 L 35.2,213.33508028057472 L 50.400000000000006,209.29053179875982 L 65.6,208.13224737671348 L 80.80000000000001,211.09409080247056 L 96,215.02095502346936 L 111.2,215.72974349571942 L 126.4,212.46541849908908 L 141.60000000000002,208.70530592094832 L 156.79999999999998,208.45486992950694 L 172,211.98088774733534 L 187.2,215.52726491388833 L 202.4,215.31621914941056 L 217.6,211.57256719273653 L 232.8,208.28423851647813 L 248,208.95412895482406 L 263.20000000000005,212.86863696216642 L 278.40000000000003,215.8578284650597 L 293.59999999999997,214.73746384090293 L 308.8,210.7010127702259 L 324,208.04830931233843 L 339.2,209.6051488200776 L 354.4,213.7131062504927 L 369.6,215.9961753138479 L 384.8,214.02231411331806 L 400,209.89418052082547 L 415.2,208.00927350553354 L 430.40000000000003,210.3754923931301 L 445.6,214.47221984265886 L 460.79999999999995,215.93541231419937 L 476,213.2064023758186 L 491.2,209.19227094483242 L 506.40000000000003,208.169076059176 L 521.6,211.22677722575827 L 536.8000000000001,215.10815482540104 L 552,215.67856698885788 L 567.1999999999999,212.33038151513566 L 582.4,208.63025675948666 L 597.6,208.51975479449817 L 612.8000000000001,212.11658796310672 L 628,215.5892256724135 L 643.1999999999999,215.23843668273045 L 658.4,211.4378993612815 L 673.6,208.2361403797162 L 688.8,209.04383710723317 L 704,213.00058969313184 L 719.2,215.89146297897474 L 734.4,214.63695093385354 L 749.6,210.57342392990356 L 764.8,208.02955869491643 L 780,209.71521054193008"
      stroke="url(#thread-16)"
      stroke-width="8"
      stroke-linecap="round"
      fill="none"
      opacity="0.6000000000000001"
      class="thread"
      style="animation-delay: 1.6s"
    >
      <title>2025-12-30: 4315 stars, Go, Shell, Rust, Python, Swift, TypeScript</title>
    </path>

    <path
      d="M 20,227.19394845049396 L 35.2,224.40302178913177 L 50.400000000000006,221.35367781773286 L 65.6,220.00115391481017 L 80.80000000000001,221.21268753049418 L 96,224.2114440954714 L 111.2,227.07462284344626 L 126.4,227.96635541653188 L 141.60000000000002,226.31486346670064 L 156.79999999999998,223.17908256203208 L 172,220.56967338664128 L 187.2,220.15978741291465 L 202.4,222.21224326160325 L 217.6,225.41100757250123 L 232.8,227.70503474223187 L 248,227.62339603607333 L 263.20000000000005,225.21843813951327 L 278.40000000000003,222.03221849743449 L 293.59999999999997,220.10773907969562 L 308.8,220.67897484190513 L 324,223.37964978349004 L 339.2,226.47809288191965 L 354.4,227.98758443024474 L 369.6,226.94023942581646 L 384.8,224.00761480680393 L 400,221.07010757860303 L 415.2,220.0112454724574 L 430.40000000000003,221.5099701846943 L 445.6,224.60530040098783 L 460.79999999999995,227.31251239239728 L 476,227.89574358428047 L 491.2,225.98102651433052 L 506.40000000000003,222.79607652707958 L 521.6,220.38308149053339 L 536.8000000000001,220.2892522585259 L 552,222.57475207381972 L 567.1999999999999,225.77411993583226 L 582.4,227.83592324460324 L 597.6,227.43813505457908 L 612.8000000000001,224.83581689544005 L 628,221.69757348454684 L 643.1999999999999,220.0356444634101 L 658.4,220.91565764346734 L 673.6,223.77334914390664 L 688.8,226.77636902640526 L 704,227.99918288823548 L 719.2,226.65772327356436 L 734.4,223.61213321806505 L 749.6,220.81524309180818 L 764.8,220.06041703138948 L 780,221.8316490176288"
      stroke="url(#thread-17)"
      stroke-width="6.556"
      stroke-linecap="round"
      fill="none"
      opacity="0.575"
      class="thread"
      style="animation-delay: 1.7000000000000002s"
    >
      <title>2025-12-29: 3278 stars, Shell, Go, JavaScript, TypeScript, Rust, Python</title>
    </path>

    <path
      d="M 20,237.64847394096702 L 35.2,233.98128583039156 L 50.400000000000006,232.01547773637185 L 65.6,233.40784023277965 L 80.80000000000001,236.98488488680263 L 96,239.7318647945427 L 111.2,239.33361479231763 L 126.4,236.12578150389413 L 141.60000000000002,232.81193908332128 L 156.79999999999998,232.18500658633192 L 172,234.7733651171782 L 187.2,238.3955362147872 L 202.4,239.99874023615823 L 217.6,238.23179070552013 L 232.8,234.58387943959917 L 248,232.12947999361407 L 263.20000000000005,232.93716959999915 L 278.40000000000003,236.32622437194982 L 293.59999999999997,239.44033599657195 L 308.8,239.65491929622064 L 324,236.78912264593322 L 339.2,233.2582504140627 L 354.4,232.0381352106716 L 369.6,234.15709479178386 L 384.8,237.82926192494574 L 400,239.95972011733537 L 415.2,238.7529110629731 L 430.40000000000003,235.22593804463264 L 445.6,232.35134740031273 L 460.79999999999995,232.55185511014275 L 476,235.65847251004837 L 491.2,239.05293058361448 L 506.40000000000003,239.87436709469708 L 521.6,237.4304722126794 L 536.8000000000001,233.78096988334138 L 552,232.00167461622985 L 567.1999999999999,233.59218326194937 L 582.4,237.21200905584266 L 597.6,239.81034898584306 L 612.8000000000001,239.1973122295272 L 628,235.8895685078057 L 643.1999999999999,232.6748968697137 L 658.4,232.26263485653325 L 673.6,235.00023846841037 L 688.8,238.58044491964722 L 704,239.9858425315712 L 719.2,238.0319568261999 L 734.4,234.36553014269145 L 749.6,232.07664090096304 L 764.8,233.09437370081287 L 780,236.5609794493153"
      stroke="url(#thread-18)"
      stroke-width="7.59"
      stroke-linecap="round"
      fill="none"
      opacity="0.55"
      class="thread"
      style="animation-delay: 1.8s"
    >
      <title>2025-12-28: 3795 stars, Shell, Rust, Python, JavaScript, TypeScript</title>
    </path>

    <path
      d="M 20,247.69939551815276 L 35.2,244.04050264755134 L 50.400000000000006,246.59061466941841 L 65.6,251.35082550787965 L 80.80000000000001,250.8565077735748 L 96,245.88281572411054 L 111.2,244.22914294909418 L 126.4,248.48866263104316 L 141.60000000000002,251.98189599004834 L 156.79999999999998,249.23100049057075 L 172,244.54973671748942 L 187.2,245.27893283224316 L 202.4,250.2751148427923 L 217.6,251.70362198645736 L 232.8,247.3243699660592 L 248,244.0045933822699 L 263.20000000000005,246.9501320717805 L 278.40000000000003,251.54199970724417 L 293.59999999999997,250.57955285432953 L 308.8,245.57203288550335 L 324,244.37187995111634 L 339.2,248.86108935966678 L 354.4,251.9999990783545 L 369.6,248.86639195042446 L 384.8,244.37416998325125 L 400,245.5677192919016 L 415.2,250.57539990868383 L 430.40000000000003,251.54451976643642 L 445.6,246.95537335646569 L 460.79999999999995,244.0043368789328 L 476,247.31901790516832 L 491.2,251.70156709297197 L 506.40000000000003,250.2795794559562 L 521.6,245.28291586012216 L 536.8000000000001,244.54699225627652 L 552,249.22583221105577 L 567.1999999999999,251.9824084241801 L 582.4,248.49405221570544 L 597.6,244.23095811719207 L 612.8000000000001,245.87821005686982 L 628,250.85270355399894 L 643.1999999999999,251.35378824518764 L 658.4,246.5956984076207 L 673.6,244.0397354264317 L 688.8,247.69398043983796 L 704,251.82810377544138 L 719.2,249.95926437237964 L 734.4,245.0180445657242 L 749.6,244.75291726083321 L 764.8,249.57963642510788 L 780,251.92928099663135"
      stroke="url(#thread-19)"
      stroke-width="8"
      stroke-linecap="round"
      fill="none"
      opacity="0.525"
      class="thread"
      style="animation-delay: 1.9000000000000001s"
    >
      <title>2025-12-27: 5384 stars, Shell, Python, Rust, C, Go</title>
    </path>

    <path
      d="M 20,257.8239155564425 L 35.2,256.00316386523644 L 50.400000000000006,257.5640790000482 L 65.6,261.18599262431246 L 80.80000000000001,263.80445457372434 L 96,263.2040210294843 L 111.2,259.8927103664576 L 126.4,256.6721759530174 L 141.60000000000002,256.26726664980487 L 156.79999999999998,259.02057052199234 L 172,262.60255589688 L 187.2,263.9825553402487 L 202.4,261.992970736936 L 217.6,258.31716163027136 L 232.8,256.06517839401556 L 248,257.1423923633998 L 263.20000000000005,260.63738795320506 L 278.40000000000003,263.59309856259557 L 293.59999999999997,263.5087390259879 L 308.8,260.45568476053336 L 324,257.01708202977784 L 339.2,256.10228422985153 L 354.4,258.48528890987035 L 369.6,262.1498693342487 L 384.8,263.9954755593428 L 400,262.460566122142 L 415.2,258.8438063043118 L 430.40000000000003,256.2052857070372 L 445.6,256.7774194888887 L 460.79999999999995,260.07613330583615 L 476,263.3104318037612 L 491.2,263.74382052377365 L 506.40000000000003,261.0096153667959 L 521.6,257.4211888512702 L 536.8000000000001,256.01465816989537 L 552,257.9800691450686 L 567.1999999999999,261.654515200154 L 582.4,263.92909922015644 L 597.6,262.87932766466537 L 612.8000000000001,259.39339747856525 L 628,256.42070515214937 L 643.1999999999999,256.4764038428771 L 658.4,259.5133676720945 L 673.6,262.9620642679951 L 688.8,263.90459995715037 L 704,261.54350855258514 L 719.2,257.8764762758003 L 734.4,256.006127548268 L 749.6,257.51493811623374 L 764.8,261.126324584132 L 780,263.78474366656286"
      stroke="url(#thread-20)"
      stroke-width="7.606"
      stroke-linecap="round"
      fill="none"
      opacity="0.5"
      class="thread"
      style="animation-delay: 2s"
    >
      <title>2025-12-26: 3803 stars, Python, Shell, Go, TypeScript</title>
    </path>

    <path
      d="M 20,268.48121696011333 L 35.2,268.2955710101258 L 50.400000000000006,270.81199932267106 L 65.6,274.1949757760651 L 80.80000000000001,275.97689912043745 L 96,274.858003799532 L 111.2,271.65443131784275 L 126.4,268.7029225805381 L 141.60000000000002,268.15635885933654 L 156.79999999999998,270.41341313944844 L 172,273.82775118256063 L 187.2,275.9088960554945 L 202.4,275.1388248691279 L 217.6,272.0792408005732 L 232.8,268.96185712825854 L 248,268.06054715638993 L 263.20000000000005,270.0327418909893 L 278.40000000000003,273.43988854898816 L 293.59999999999997,275.79675571728114 L 308.8,275.38420391902577 L 324,272.503155536342 L 339.2,269.2550968455873 L 354.4,268.0092177584793 L 369.6,269.674283924111 L 384.8,273.0357674236412 L 400,275.64174433766493 L 415.2,275.59137025334957 L 430.40000000000003,272.9213888947884 L 445.6,269.579330618247 L 460.79999999999995,268.0029502511526 L 476,269.3420867645127 L 491.2,272.6199509374627 L 506.40000000000003,275.44561222658626 L 521.6,275.757984654842 L 536.8000000000001,273.3292183967852 L 552,269.9308973627952 L 567.1999999999999,268.04181540392625 L 582.4,269.03990141416654 L 597.6,272.19713427948307 L 612.8000000000001,275.21057400844575 L 628,275.88216579811984 L 643.1999999999999,273.72203903827983 L 658.4,270.3058273657228 L 673.6,268.12537437119164 L 688.8,268.77113999690414 L 704,271.7720916811252 L 719.2,274.93928361568766 L 734.4,275.9625114926469 L 749.6,274.09541528766573 L 764.8,270.69988710744747 L 780,268.25268364743727"
      stroke="url(#thread-21)"
      stroke-width="7.022"
      stroke-linecap="round"
      fill="none"
      opacity="0.47500000000000003"
      class="thread"
      style="animation-delay: 2.1s"
    >
      <title>2025-12-25: 3511 stars, Python, TypeScript</title>
    </path>

    <path
      d="M 20,280.0000391737972 L 35.2,281.0199941122939 L 50.400000000000006,283.5421915083442 L 65.6,286.29517346640876 L 80.80000000000001,287.89114192899194 L 96,287.52555768518147 L 111.2,285.38271438860085 L 126.4,282.5428347976304 L 141.60000000000002,280.4375226931539 L 156.79999999999998,280.1280810889652 L 172,281.77050172919604 L 187.2,284.53682852520376 L 202.4,287.0325361904527 L 217.6,287.9995204937244 L 232.8,286.9503176745762 L 248,284.41383844020214 L 263.20000000000005,281.66874026383067 L 278.40000000000003,280.0988469317539 L 293.59999999999997,280.49555299356155 L 308.8,282.65887606275066 L 324,285.49826937988433 L 339.2,287.5823742982264 L 354.4,287.8605784994437 L 369.6,286.1926372395031 L 384.8,283.4193717354784 L 400,280.9388051266534 L 415.2,280.00140892851726 L 430.40000000000003,281.0797313243468 L 445.6,283.6301822183542 L 460.79999999999995,286.367060922937 L 476,287.91068714680426 L 491.2,287.48290777903327 L 506.40000000000003,285.29936948374046 L 521.6,282.4608096616187 L 536.8000000000001,280.39816678855794 L 552,280.1512340110971 L 567.1999999999999,281.8444919230475 L 582.4,284.62435700049264 L 597.6,287.08947921159637 L 612.8000000000001,287.9971726731341 L 628,286.88986256554216 L 643.1999999999999,284.3257518991453 L 658.4,281.5974273513116 L 673.6,280.08025700122846 L 688.8,280.53905736306433 L 704,282.7425438658945 L 719.2,285.57992307375514 L 734.4,287.6208516669189 L 749.6,287.83648282393017 L 764.8,286.1181153235698 L 780,283.3319906143433"
      stroke="url(#thread-22)"
      stroke-width="5.776"
      stroke-linecap="round"
      fill="none"
      opacity="0.45000000000000007"
      class="thread"
      style="animation-delay: 2.2s"
    >
      <title>2025-12-24: 2888 stars, Python, TypeScript</title>
    </path>

    <path
      d="M 20,292.49819130124627 L 35.2,294.66402660710264 L 50.400000000000006,297.50333573435375 L 65.6,299.5848024769906 L 80.80000000000001,299.8591444400774 L 96,298.1880638616742 L 111.2,295.41396451193026 L 126.4,292.93528987776943 L 141.60000000000002,292.0015577166092 L 156.79999999999998,293.08346914426454 L 172,295.63562480812294 L 187.2,298.37146463380634 L 202.4,299.91183203636876 L 217.6,299.48021670020745 L 232.8,297.2941990287664 L 248,294.45576629413426 L 263.20000000000005,292.395792906481 L 278.40000000000003,292.1527263055013 L 293.59999999999997,293.8490981175624 L 308.8,296.6297550792469 L 324,299.09294796416305 L 339.2,299.99696347633034 L 354.4,298.88608087698526 L 369.6,296.3203040953075 L 384.8,293.593059709393 L 400,292.07917128101644 L 415.2,292.5418008839471 L 430.40000000000003,294.7477335992109 L 445.6,297.5849428375158 L 460.79999999999995,299.6231709620135 L 476,299.83493247697635 L 491.2,298.113476875647 L 506.40000000000003,295.3266023404984 L 521.6,292.87919242154203 L 536.8000000000001,292.00500410780313 L 552,293.1447220322262 L 567.1999999999999,295.72380617032104 L 582.4,298.44212160965924 L 597.6,299.929345934824 L 612.8000000000001,299.4357586387567 L 628,297.2101806367851 L 643.1999999999999,294.3745418488976 L 658.4,292.35830823656244 L 673.6,292.17787770331796 L 688.8,293.92420658210204 L 704,296.71695789190926 L 719.2,299.14828555824397 L 734.4,299.9925397716005 L 749.6,298.82412589489945 L 764.8,296.23204978910786 L 780,293.52299571125843"
      stroke="url(#thread-23)"
      stroke-width="5.776"
      stroke-linecap="round"
      fill="none"
      opacity="0.425"
      class="thread"
      style="animation-delay: 2.3000000000000003s"
    >
      <title>2025-12-23: 2888 stars, Python, TypeScript</title>
    </path>
  </g>

  <!-- Date markers -->
  <g id="dates">
    <text x="785" y="24" class="date-label">01-15</text>
<text x="785" y="108" class="date-label">01-08</text>
<text x="785" y="192" class="date-label">01-01</text>
<text x="785" y="276" class="date-label">12-25</text>
  </g>

</svg>