<?xml version="1.0" encoding="UTF-8"?>
<svg xmlns="http://www.w3.org/2000/svg" viewBox="0 0 800 436" width="800" height="436">
  <title>The Data Tapestry - GitHub Trends Woven in Time</title>
  <desc>A living data art piece that weaves daily GitHub trending repositories into an evolving tapestry. Each thread represents one day of open source activity.</desc>

  <style>
    .thread {
      animation: breathe 8s ease-in-out infinite alternate;
    }

    @keyframes breathe {
      0% {
        opacity: 0.85;
      }
      100% {
        opacity: 1;
      }
    }

    .date-label {
      font-family: ui-monospace, monospace;
      font-size: 8px;
      fill: #666;
    }

    .title {
      font-family: system-ui, sans-serif;
      font-size: 14px;
      fill: #333;
      font-weight: 600;
    }

    .subtitle {
      font-family: system-ui, sans-serif;
      font-size: 10px;
      fill: #888;
    }

    .empty-state {
      font-family: system-ui, sans-serif;
      font-size: 12px;
      fill: #999;
      text-anchor: middle;
    }
  </style>

  <defs>
    
    <linearGradient id="thread-0" x1="0%" y1="0%" x2="100%" y2="0%">
      <stop offset="0%" stop-color="#3178c6" />
      <stop offset="50%" stop-color="#3572A5" />
      <stop offset="100%" stop-color="#89e051" />
    </linearGradient>

    <linearGradient id="thread-1" x1="0%" y1="0%" x2="100%" y2="0%">
      <stop offset="0%" stop-color="#3572A5" />
      <stop offset="50%" stop-color="#3178c6" />
      <stop offset="100%" stop-color="#8b8b8b" />
    </linearGradient>

    <linearGradient id="thread-2" x1="0%" y1="0%" x2="100%" y2="0%">
      <stop offset="0%" stop-color="#3178c6" />
      <stop offset="50%" stop-color="#3572A5" />
      <stop offset="100%" stop-color="#dea584" />
    </linearGradient>

    <linearGradient id="thread-3" x1="0%" y1="0%" x2="100%" y2="0%">
      <stop offset="0%" stop-color="#3572A5" />
      <stop offset="50%" stop-color="#3178c6" />
      <stop offset="100%" stop-color="#8b8b8b" />
    </linearGradient>

    <linearGradient id="thread-4" x1="0%" y1="0%" x2="100%" y2="0%">
      <stop offset="0%" stop-color="#3572A5" />
      <stop offset="50%" stop-color="#3178c6" />
      <stop offset="100%" stop-color="#41b883" />
    </linearGradient>

    <linearGradient id="thread-5" x1="0%" y1="0%" x2="100%" y2="0%">
      <stop offset="0%" stop-color="#3178c6" />
      <stop offset="50%" stop-color="#f1e05a" />
      <stop offset="100%" stop-color="#89e051" />
    </linearGradient>

    <linearGradient id="thread-6" x1="0%" y1="0%" x2="100%" y2="0%">
      <stop offset="0%" stop-color="#3178c6" />
      <stop offset="50%" stop-color="#3572A5" />
      <stop offset="100%" stop-color="#f1e05a" />
    </linearGradient>

    <linearGradient id="thread-7" x1="0%" y1="0%" x2="100%" y2="0%">
      <stop offset="0%" stop-color="#3178c6" />
      <stop offset="50%" stop-color="#3572A5" />
      <stop offset="100%" stop-color="#f1e05a" />
    </linearGradient>

    <linearGradient id="thread-8" x1="0%" y1="0%" x2="100%" y2="0%">
      <stop offset="0%" stop-color="#3178c6" />
      <stop offset="50%" stop-color="#f1e05a" />
      <stop offset="100%" stop-color="#3572A5" />
    </linearGradient>

    <linearGradient id="thread-9" x1="0%" y1="0%" x2="100%" y2="0%">
      <stop offset="0%" stop-color="#3572A5" />
      <stop offset="50%" stop-color="#3178c6" />
      <stop offset="100%" stop-color="#89e051" />
    </linearGradient>

    <linearGradient id="thread-10" x1="0%" y1="0%" x2="100%" y2="0%">
      <stop offset="0%" stop-color="#3178c6" />
      <stop offset="50%" stop-color="#89e051" />
      <stop offset="100%" stop-color="#3572A5" />
    </linearGradient>

    <linearGradient id="thread-11" x1="0%" y1="0%" x2="100%" y2="0%">
      <stop offset="0%" stop-color="#3572A5" />
      <stop offset="50%" stop-color="#3178c6" />
      <stop offset="100%" stop-color="#89e051" />
    </linearGradient>

    <linearGradient id="thread-12" x1="0%" y1="0%" x2="100%" y2="0%">
      <stop offset="0%" stop-color="#3178c6" />
      <stop offset="50%" stop-color="#3572A5" />
      <stop offset="100%" stop-color="#8b8b8b" />
    </linearGradient>

    <linearGradient id="thread-13" x1="0%" y1="0%" x2="100%" y2="0%">
      <stop offset="0%" stop-color="#3178c6" />
      <stop offset="50%" stop-color="#89e051" />
      <stop offset="100%" stop-color="#3572A5" />
    </linearGradient>

    <linearGradient id="thread-14" x1="0%" y1="0%" x2="100%" y2="0%">
      <stop offset="0%" stop-color="#3572A5" />
      <stop offset="50%" stop-color="#3178c6" />
      <stop offset="100%" stop-color="#89e051" />
    </linearGradient>

    <linearGradient id="thread-15" x1="0%" y1="0%" x2="100%" y2="0%">
      <stop offset="0%" stop-color="#3572A5" />
      <stop offset="50%" stop-color="#3178c6" />
      <stop offset="100%" stop-color="#8b8b8b" />
    </linearGradient>

    <linearGradient id="thread-16" x1="0%" y1="0%" x2="100%" y2="0%">
      <stop offset="0%" stop-color="#3572A5" />
      <stop offset="50%" stop-color="#3178c6" />
      <stop offset="100%" stop-color="#8b8b8b" />
    </linearGradient>

    <linearGradient id="thread-17" x1="0%" y1="0%" x2="100%" y2="0%">
      <stop offset="0%" stop-color="#3178c6" />
      <stop offset="50%" stop-color="#3572A5" />
      <stop offset="100%" stop-color="#dea584" />
    </linearGradient>

    <linearGradient id="thread-18" x1="0%" y1="0%" x2="100%" y2="0%">
      <stop offset="0%" stop-color="#3572A5" />
      <stop offset="50%" stop-color="#3178c6" />
      <stop offset="100%" stop-color="#00ADD8" />
    </linearGradient>

    <linearGradient id="thread-19" x1="0%" y1="0%" x2="100%" y2="0%">
      <stop offset="0%" stop-color="#3572A5" />
      <stop offset="50%" stop-color="#00ADD8" />
      <stop offset="100%" stop-color="#3178c6" />
    </linearGradient>

    <linearGradient id="thread-20" x1="0%" y1="0%" x2="100%" y2="0%">
      <stop offset="0%" stop-color="#3572A5" />
      <stop offset="50%" stop-color="#3178c6" />
      <stop offset="100%" stop-color="#00ADD8" />
    </linearGradient>

    <linearGradient id="thread-21" x1="0%" y1="0%" x2="100%" y2="0%">
      <stop offset="0%" stop-color="#3572A5" />
      <stop offset="50%" stop-color="#00ADD8" />
      <stop offset="100%" stop-color="#DA5B0B" />
    </linearGradient>

    <linearGradient id="thread-22" x1="0%" y1="0%" x2="100%" y2="0%">
      <stop offset="0%" stop-color="#3572A5" />
      <stop offset="50%" stop-color="#3178c6" />
      <stop offset="100%" stop-color="#dea584" />
    </linearGradient>

    <linearGradient id="thread-23" x1="0%" y1="0%" x2="100%" y2="0%">
      <stop offset="0%" stop-color="#dea584" />
      <stop offset="50%" stop-color="#3572A5" />
      <stop offset="100%" stop-color="#3178c6" />
    </linearGradient>

    <linearGradient id="thread-24" x1="0%" y1="0%" x2="100%" y2="0%">
      <stop offset="0%" stop-color="#3572A5" />
      <stop offset="50%" stop-color="#3178c6" />
      <stop offset="100%" stop-color="#dea584" />
    </linearGradient>

    <linearGradient id="thread-25" x1="0%" y1="0%" x2="100%" y2="0%">
      <stop offset="0%" stop-color="#3572A5" />
      <stop offset="50%" stop-color="#dea584" />
      <stop offset="100%" stop-color="#3178c6" />
    </linearGradient>

    <linearGradient id="thread-26" x1="0%" y1="0%" x2="100%" y2="0%">
      <stop offset="0%" stop-color="#3572A5" />
      <stop offset="50%" stop-color="#3178c6" />
      <stop offset="100%" stop-color="#89e051" />
    </linearGradient>

    <linearGradient id="thread-27" x1="0%" y1="0%" x2="100%" y2="0%">
      <stop offset="0%" stop-color="#3572A5" />
      <stop offset="50%" stop-color="#f1e05a" />
      <stop offset="100%" stop-color="#89e051" />
    </linearGradient>

    <linearGradient id="thread-28" x1="0%" y1="0%" x2="100%" y2="0%">
      <stop offset="0%" stop-color="#3572A5" />
      <stop offset="50%" stop-color="#89e051" />
      <stop offset="100%" stop-color="#dea584" />
    </linearGradient>

    <linearGradient id="thread-29" x1="0%" y1="0%" x2="100%" y2="0%">
      <stop offset="0%" stop-color="#3572A5" />
      <stop offset="50%" stop-color="#89e051" />
      <stop offset="100%" stop-color="#00ADD8" />
    </linearGradient>

    <linearGradient id="thread-30" x1="0%" y1="0%" x2="100%" y2="0%">
      <stop offset="0%" stop-color="#3572A5" />
      <stop offset="50%" stop-color="#3178c6" />
      <stop offset="100%" stop-color="#3572A5" />
    </linearGradient>

    <linearGradient id="thread-31" x1="0%" y1="0%" x2="100%" y2="0%">
      <stop offset="0%" stop-color="#3572A5" />
      <stop offset="50%" stop-color="#3178c6" />
      <stop offset="100%" stop-color="#3572A5" />
    </linearGradient>

    <linearGradient id="thread-32" x1="0%" y1="0%" x2="100%" y2="0%">
      <stop offset="0%" stop-color="#3572A5" />
      <stop offset="50%" stop-color="#3178c6" />
      <stop offset="100%" stop-color="#3572A5" />
    </linearGradient>

    <!-- Background pattern -->
    <pattern id="loom" patternUnits="userSpaceOnUse" width="20" height="20">
      <rect width="20" height="20" fill="#fafafa"/>
      <circle cx="10" cy="10" r="0.5" fill="#eee"/>
    </pattern>
  </defs>

  <!-- Background -->
  <rect width="100%" height="100%" fill="url(#loom)"/>

  <!-- Threads -->
  <g id="tapestry">
    
    <path
      d="M 20,20 L 35.2,23.98040491034733 L 50.400000000000006,20.787015614058024 L 65.6,16.175205785228133 L 80.80000000000001,18.45673650780297 L 96,23.51965629731844 L 111.2,22.239178738132544 L 126.4,16.923079723078857 L 141.60000000000002,17.152444889188992 L 156.79999999999998,22.513894558539278 L 172,23.344608630296612 L 187.2,18.14740982487004 L 202.4,16.289092606859544 L 217.6,21.118860284200338 L 232.8,23.93213124685593 L 248,19.65861054037741 L 263.20000000000005,16.00036837535603 L 278.40000000000003,19.550572291526912 L 293.59999999999997,23.91076965408435 L 308.8,21.2226748655017 L 324,16.330980678291297 L 339.2,18.051877457816232 L 354.4,23.283831660319947 L 369.6,22.597409951083147 L 384.8,17.229734731455455 L 400,16.854846271453518 L 415.2,22.14839760715558 L 430.40000000000003,23.569940276679034 L 445.6,18.55745991294174 L 460.79999999999995,16.14483708944566 L 476,20.680287634435558 L 491.2,23.989671083067037 L 506.40000000000003,20.108560110467735 L 521.6,16.0317936934887 L 536.8000000000001,19.106836213934013 L 552,23.791607728884724 L 567.1999999999999,21.642849949214433 L 582.4,16.5332206719207 L 597.6,17.671689771455856 L 612.8000000000001,23.00642000647567 L 628,22.922747111425558 L 643.1999999999999,17.571472862326544 L 658.4,16.597078429050427 L 673.6,21.75569297379478 L 688.8,23.750061576800842 L 704,18.985778580254664 L 719.2,16.04940402747055 L 734.4,20.23309970342621 L 749.6,23.996685028884464 L 764.8,20.55713485638632 L 780,16.113473068341307"
      stroke="url(#thread-0)"
      stroke-width="8"
      stroke-linecap="round"
      fill="none"
      opacity="1"
      class="thread"
      style="animation-delay: 0s"
    >
      <title>2026-01-24: 5856 stars, Shell, TypeScript, Python, Rust</title>
    </path>

    <path
      d="M 20,33.917702154416816 L 35.2,35.951780151051906 L 50.400000000000006,32.75205628115932 L 65.6,28.55629684815025 L 80.80000000000001,28.921433845353995 L 96,33.363873898530194 L 111.2,35.99997719131358 L 126.4,33.3384456740247 L 141.60000000000002,28.904254950202862 L 156.79999999999998,28.570119290327128 L 172,32.77857339356734 L 187.2,35.95587223899371 L 202.4,33.893949590107155 L 217.6,29.32364931875251 L 232.8,28.29795139256304 L 248,32.175306817259546 L 263.20000000000005,35.82048304364115 L 278.40000000000003,34.40574942672747 L 293.59999999999997,29.804802164641114 L 308.8,28.111210597693972 L 324,31.56799492574814 L 339.2,35.596933796196815 L 354.4,34.86203508036168 L 369.6,30.33661058295506 L 384.8,28.014206067157197 L 400,30.97065182337017 L 415.2,35.29038303632041 L 430.40000000000003,35.25227747221696 L 445.6,30.90680275954783 L 460.79999999999995,28.009176241581176 L 476,30.397061578375833 L 491.2,34.90790461583923 L 506.40000000000003,35.567471513355244 L 521.6,31.502221150879453 L 536.8000000000001,28.096237187358483 L 552,29.86046014687343 L 567.1999999999999,34.45832446516272 L 582.4,35.800343902791205 L 597.6,32.10912610261911 L 612.8000000000001,28.27337991834073 L 628,29.373229944807044 L 643.1999999999999,33.952016929380285 L 658.4,35.945520963492676 L 673.6,32.71351290082119 L 688.8,28.536516754458997 L 704,28.946614115911174 L 719.2,33.4006653737155 L 734.4,35.9996526433621 L 749.6,33.301434939518785 L 764.8,28.8795756475156 L 780,28.590457089088922"
      stroke="url(#thread-1)"
      stroke-width="8"
      stroke-linecap="round"
      fill="none"
      opacity="0.9818181818181818"
      class="thread"
      style="animation-delay: 0.1s"
    >
      <title>2026-01-23: 4879 stars, Unknown, Rust, Python, Shell, TypeScript, JavaScript</title>
    </path>

    <path
      d="M 20,47.36588393923159 L 35.2,46.11618405679957 L 50.400000000000006,40.57774109125225 L 65.6,41.97498463953247 L 80.80000000000001,47.476205151679366 L 96,45.93240954065323 L 111.2,40.472315616825135 L 126.4,42.16156768166122 L 141.60000000000002,47.57666006918426 L 156.79999999999998,45.74315038777038 L 172,40.376902547613234 L 187.2,42.353368630873625 L 202.4,47.66696357685764 L 217.6,45.54894376052823 L 232.8,40.29177268854353 L 248,42.549843110571494 L 263.20000000000005,47.74685937192044 L 278.40000000000003,45.350340863410025 L 293.59999999999997,40.21716765835295 L 308.8,42.75043347956824 L 324,47.816120691151156 L 339.2,45.147905378555954 L 354.4,40.153299203817056 L 369.6,42.954570414807066 L 384.8,47.87455095449369 L 400,44.94221186589932 L 415.2,40.10034859876247 L 430.40000000000003,43.161674527234624 L 445.6,47.92198432299824 L 460.79999999999995,44.73384413242948 L 476,40.05846612956878 L 491.2,43.37115800624487 L 506.40000000000003,47.9582861695115 L 521.6,44.523393575208786 L 536.8000000000001,40.027770668620064 L 552,43.58242628802484 L 567.1999999999999,47.98335346078055 L 582.4,44.31145750284765 L 597.6,40.00834933691694 L 612.8000000000001,43.794879743067895 L 628,47.997115049885586 L 643.1999999999999,44.09863744020084 L 658.4,40.00025725680645 L 673.6,44.007915378064475 L 688.8,47.99953187817184 L 704,43.885537421097126 L 719.2,40.00351739553177 L 734.4,44.22092854734017 L 749.6,47.99059708610722 L 764.8,43.67276227394835 L 780,40.018120500045754"
      stroke="url(#thread-2)"
      stroke-width="8"
      stroke-linecap="round"
      fill="none"
      opacity="0.9636363636363636"
      class="thread"
      style="animation-delay: 0.2s"
    >
      <title>2026-01-22: 6303 stars, Rust, Unknown, Shell, TypeScript, Python</title>
    </path>

    <path
      d="M 20,59.98997994641622 L 35.2,58.19961037381428 L 50.400000000000006,54.16318931660348 L 65.6,52.002360142165145 L 80.80000000000001,53.923574335276264 L 96,57.96505446387005 L 111.2,59.999991275313036 L 126.4,57.95048365546334 L 141.60000000000002,53.909311165229354 L 156.79999999999998,52.00296892361297 L 172,54.17804841469153 L 187.2,58.21354696533808 L 202.4,59.98876319192572 L 217.6,57.69100013289447 L 232.8,53.666534288598896 L 248,52.02480139908928 L 263.20000000000005,54.44219681042866 L 278.40000000000003,58.45028583201766 L 293.59999999999997,59.95635531585737 L 308.8,57.422537628492144 L 324,53.43614779906784 L 339.2,52.06774164110426 L 354.4,54.714616930258046 L 369.6,58.67401401256864 L 384.8,59.90293972854359 L 400,57.146521641819064 L 415.2,53.21937501771341 L 430.40000000000003,52.13156164278467 L 445.6,54.99386226021474 L 460.79999999999995,58.883543540633305 L 476,59.828800059523374 L 491.2,56.864417780406434 L 506.40000000000003,53.01736697866501 L 521.6,52.21592252855943 L 536.8000000000001,55.2784500453917 L 552,59.07776184277686 L 567.1999999999999,59.73432998040461 L 582.4,56.57772397757644 L 597.6,52.83119631726875 L 612.8000000000001,52.32037635354308 L 628,55.56686916316783 L 643.1999999999999,59.255637646101825 L 658.4,59.620031114521154 L 673.6,56.287962538618885 L 688.8,52.66185157453896 L 704,52.444368482062536 L 719.2,55.85758814706448 L 734.4,59.41622645416759 L 749.6,59.48651037338081 L 764.8,55.99667205755615 L 780,52.51023194813918"
      stroke="url(#thread-3)"
      stroke-width="8"
      stroke-linecap="round"
      fill="none"
      opacity="0.9454545454545454"
      class="thread"
      style="animation-delay: 0.30000000000000004s"
    >
      <title>2026-01-21: 4215 stars, Unknown, TypeScript, Python, Shell, JavaScript</title>
    </path>

    <path
      d="M 20,71.63718970730272 L 35.2,66.10146175439759 L 50.400000000000006,64.61075419822103 L 65.6,70.34116448335115 L 80.80000000000001,71.08349611945353 L 96,65.25613935169375 L 111.2,65.2748445813092 L 126.4,71.09975849720898 L 141.60000000000002,70.32033543165146 L 156.79999999999998,64.59721203768468 L 172,66.12405937524798 L 187.2,71.64778068032302 L 202.4,69.39955043852933 L 217.6,64.16944185785327 L 232.8,67.10070998461447 L 248,71.94800296009005 L 263.20000000000005,68.38369162003505 L 278.40000000000003,64.0018879630933 L 293.59999999999997,68.13845088378248 L 308.8,71.98003072991816 L 324,67.34176798167032 L 339.2,64.10593257250332 L 354.4,69.16678658054767 L 369.6,71.74168828930243 L 384.8,66.34455915617845 L 400,64.47450776001678 L 415.2,70.11586049399185 L 430.40000000000003,71.24916664283555 L 445.6,65.45980722353333 L 460.79999999999995,65.0825755905586 L 476,70.92120043002473 L 491.2,70.53592361791627 L 506.40000000000003,64.74761487701869 L 521.6,65.8888289892684 L 536.8000000000001,71.52809828643315 L 552,69.65041101801822 L 567.1999999999999,64.25636254574934 L 582.4,66.83849780087021 L 597.6,71.89532646667573 L 612.8000000000001,68.6527832098364 L 628,64.01942183039856 L 643.1999999999999,67.86706941883702 L 658.4,71.99793854015675 L 673.6,67.61081073554669 L 688.8,64.05288851399399 L 704,68.90467123572513 L 719.2,71.82896389539503 L 734.4,66.59527654539929 L 749.6,64.35448914818798 L 764.8,69.8808172074241 L 780,71.3998812654367"
      stroke="url(#thread-4)"
      stroke-width="8"
      stroke-linecap="round"
      fill="none"
      opacity="0.9272727272727272"
      class="thread"
      style="animation-delay: 0.4s"
    >
      <title>2026-01-20: 6510 stars, Python, Vue, TypeScript, Unknown, Shell, JavaScript</title>
    </path>

    <path
      d="M 20,82.39388857641583 L 35.2,78.07458537682204 L 50.400000000000006,76.0113026855111 L 65.6,78.62160189936257 L 80.80000000000001,82.84697889759458 L 96,83.73653269063003 L 111.2,80.24796746532276 L 126.4,76.46885719043458 L 141.60000000000002,76.8272093094418 L 156.79999999999998,80.90314037493788 L 172,83.9208561432243 L 187.2,82.34447993638022 L 202.4,78.02106173969116 L 217.6,76.01637803589458 L 232.8,78.67932941707217 L 248,82.88971888452198 L 263.20000000000005,83.71420643340552 L 278.40000000000003,80.18673478093608 L 293.59999999999997,76.440464802989 L 308.8,76.86492475912593 L 324,80.96277223049206 L 339.2,83.93253338182689 L 354.4,82.29452026360464 L 369.6,77.96800322054014 L 384.8,76.022389673295 L 400,78.73736733740822 L 415.2,82.93177968896202 L 430.40000000000003,83.69100721100179 L 445.6,80.12545820750758 L 460.79999999999995,76.41290902770727 L 476,76.90337705840867 L 491.2,81.0221778017382 L 506.40000000000003,83.94328634097165 L 521.6,82.24402130031595 L 536.8000000000001,77.91542228993046 L 552,76.02933618477259 L 567.1999999999999,78.79570201948016 L 582.4,82.97315142519126 L 597.6,83.66694047602726 L 612.8000000000001,80.06415214712177 L 628,76.38619634113634 L 643.1999999999999,76.94255716968829 L 658.4,81.08134312634108 L 673.6,83.95311249334648 L 688.8,82.19299491549278 L 704,77.86333130617403 L 719.2,76.03721593766022 L 734.4,78.85431975264827 L 749.6,83.01382436944074 L 764.8,83.64201188498542 L 780,80.00283100879355"
      stroke="url(#thread-5)"
      stroke-width="8"
      stroke-linecap="round"
      fill="none"
      opacity="0.9090909090909091"
      class="thread"
      style="animation-delay: 0.5s"
    >
      <title>2026-01-19: 4551 stars, JavaScript, TypeScript, Shell, Python</title>
    </path>

    <path
      d="M 20,92.56448003223947 L 35.2,89.15907475622069 L 50.400000000000006,88.0451849571241 L 65.6,90.12128401780437 L 80.80000000000001,93.71277203825016 L 96,95.92272295465426 L 111.2,94.96857077402998 L 126.4,91.6199431006331 L 141.60000000000002,88.5778726901974 L 156.79999999999998,88.2961204935485 L 172,91.00195032929324 L 187.2,94.51281587379853 L 202.4,95.99682186679907 L 217.6,94.25695592359648 L 232.8,90.69660933206384 L 248,88.18758920348255 L 263.20000000000005,88.75369340762856 L 278.40000000000003,91.93829727681945 L 293.59999999999997,95.17267110931583 L 308.8,95.84794030993196 L 324,93.41942675745047 L 339.2,89.84599100394402 L 354.4,88.00999799473362 L 369.6,89.39237596097885 L 384.8,92.87808658495433 L 400,95.65552478820824 L 415.2,95.4843843033062 L 430.40000000000003,92.50270856195755 L 445.6,89.11554363970579 L 460.79999999999995,88.05500677871474 L 476,90.17653640916797 L 491.2,93.7688879308854 L 506.40000000000003,95.93443877228206 L 521.6,94.92643643433026 L 536.8000000000001,91.5579445353875 L 552,88.5460184915427 L 567.1999999999999,88.3201045404004 L 582.4,91.06242687692271 L 597.6,94.56100400296555 L 612.8000000000001,95.9938526054911 L 628,94.20522430429709 L 643.1999999999999,90.63784253732753 L 658.4,88.16918905071445 L 673.6,88.79050162310718 L 688.8,92.00062402775815 L 704,95.2102430860895 L 719.2,95.83045162312517 L 734.4,93.36098393682025 L 749.6,89.79373454651059 L 764.8,88.00607842214133 L 780,89.43995483521454"
      stroke="url(#thread-6)"
      stroke-width="7.412"
      stroke-linecap="round"
      fill="none"
      opacity="0.8909090909090909"
      class="thread"
      style="animation-delay: 0.6000000000000001s"
    >
      <title>2026-01-18: 3706 stars, JavaScript, Shell, Vue, TypeScript, Python, HTML</title>
    </path>

    <path
      d="M 20,102.59686708924153 L 35.2,100.24960885733225 L 50.400000000000006,105.37862597573557 L 65.6,107.75939977561376 L 80.80000000000001,102.64593982620917 L 96,100.23175211669991 L 111.2,105.32943655387672 L 126.4,107.77693508791518 L 141.60000000000002,102.69524383258542 L 156.79999999999998,100.21453898148206 L 172,105.28002006824957 L 187.2,107.79382531105364 L 202.4,102.74477068739417 L 217.6,100.19797239163051 L 232.8,105.23038495904136 L 248,107.8100675602298 L 263.20000000000005,102.79451193159737 L 278.40000000000003,100.182055176669 L 293.59999999999997,105.18053970377956 L 308.8,107.8256590613163 L 324,102.84445906954008 L 339.2,100.16679005521 L 354.4,105.13049281588398 L 369.6,107.84059715133162 L 384.8,102.8946035704012 L 400,100.1521796344904 L 415.2,105.08025284321272 L 430.40000000000003,107.85487927889487 L 445.6,102.94493686965062 L 460.79999999999995,100.13822640992612 L 476,105.02982836660208 L 491.2,107.86850300466158 L 506.40000000000003,102.99545037051216 L 521.6,100.12493276468604 L 536.8000000000001,104.9792279984012 L 552,107.88146600174034 L 567.1999999999999,103.04613544543167 L 582.4,100.11230096928477 L 597.6,104.9284603810008 L 612.8000000000001,107.89376605609019 L 628,103.09698343755065 L 643.1999999999999,100.10033318119503 L 658.4,104.8775341853575 L 673.6,107.9054010668988 L 688.8,103.1479856621848 L 704,100.08903144447905 L 719.2,104.82645810951242 L 734.4,107.91636904694131 L 749.6,103.19913340830752 L 764.8,100.0783976894395 L 780,104.77524087710582"
      stroke="url(#thread-7)"
      stroke-width="8"
      stroke-linecap="round"
      fill="none"
      opacity="0.8727272727272727"
      class="thread"
      style="animation-delay: 0.7000000000000001s"
    >
      <title>2026-01-17: 6237 stars, JavaScript, TypeScript, Shell, Python</title>
    </path>

    <path
      d="M 20,112.9727900187683 L 35.2,113.01388934792767 L 50.400000000000006,118.25040701794246 L 65.6,119.57152862341624 L 80.80000000000001,114.67868581932957 L 96,112.08474641439302 L 111.2,116.30280517625101 L 126.4,119.99402493255886 L 141.60000000000002,116.73619530449464 L 156.79999999999998,112.19748796187932 L 172,114.2746241314478 L 187.2,119.35367499099083 L 202.4,118.5977965436209 L 217.6,113.322112442307 L 232.8,112.70558125025701 L 248,117.82088172459031 L 263.20000000000005,119.76810056675114 L 278.40000000000003,115.15934708380726 L 293.59999999999997,112.0132130707917 L 308.8,115.80353532027823 L 324,119.93567886150035 L 339.2,117.2202870889974 L 354.4,112.38176504371427 L 369.6,113.83846994870014 L 384.8,119.05593732410547 L 400,118.95649763474957 L 415.2,113.713162147154 L 430.40000000000003,112.44860732362832 L 445.6,117.36298315479766 L 460.79999999999995,119.90595735160413 L 476,115.65310753933048 L 491.2,112.00380249229055 L 506.40000000000003,115.30732680903387 L 521.6,119.81600639960028 L 536.8000000000001,117.68536416076763 L 552,112.62242205361102 L 567.1999999999999,113.4359970802585 L 582.4,118.71058154270406 L 597.6,119.2691300968434 L 612.8000000000001,114.13984573293747 L 628,112.24697177773834 L 643.1999999999999,116.88384635886834 L 658.4,119.9829508710372 L 673.6,116.15227332983443 L 688.8,112.05666131606083 L 704,114.82191164458663 L 719.2,119.63687230270628 L 734.4,118.1241796129112 L 749.6,112.91570903473445 L 764.8,113.0734769240956 L 780,118.32298903697998"
      stroke="url(#thread-8)"
      stroke-width="8"
      stroke-linecap="round"
      fill="none"
      opacity="0.8545454545454545"
      class="thread"
      style="animation-delay: 0.8s"
    >
      <title>2026-01-16: 5731 stars, JavaScript, TypeScript, Shell, Python, C</title>
    </path>

    <path
      d="M 20,124.08987952933961 L 35.2,125.0175287326677 L 50.400000000000006,128.40037769279866 L 65.6,131.45363178817578 L 80.80000000000001,131.66382213997483 L 96,128.85791797795105 L 111.2,125.34576727672545 L 126.4,124.01860712614172 L 141.60000000000002,125.96896884901327 L 156.79999999999998,129.59129544295698 L 172,131.90365193682186 L 187.2,131.0024836631872 L 202.4,127.62964123114381 L 217.6,124.56168178965436 L 232.8,124.32417980346919 L 248,127.11264924957409 L 263.20000000000005,130.6315945834126 L 278.40000000000003,131.98418530657364 L 293.59999999999997,130.05695539813252 L 308.8,126.43641952273515 L 324,124.10303851436727 L 339.2,124.97767462810687 L 354.4,128.34031879051693 L 369.6,131.42280916875995 L 384.8,131.6876092876635 L 400,128.91673307820673 L 415.2,125.3911931590541 L 430.40000000000003,124.0132487562751 L 445.6,125.9172372898634 L 460.79999999999995,129.53577662413025 L 476,131.8900494974361 L 491.2,131.04199526547563 L 506.40000000000003,127.68974053448682 L 521.6,124.59289445491312 L 536.8000000000001,124.30081125682106 L 552,127.05393670905222 L 567.1999999999999,130.58587079132687 L 582.4,131.98909053944192 L 597.6,130.10845161988817 L 612.8000000000001,126.49211453583527 L 628,124.11708363483079 L 643.1999999999999,124.93850777427218 L 658.4,128.28018250267704 L 673.6,131.3912082320562 L 688.8,131.71055790480074 L 704,128.975339721266 L 719.2,125.43721226156099 L 734.4,124.00879693926103 L 749.6,125.86597933299278 L 764.8,129.47990858294315 L 780,131.87556249434098"
      stroke="url(#thread-9)"
      stroke-width="7.494"
      stroke-linecap="round"
      fill="none"
      opacity="0.8363636363636364"
      class="thread"
      style="animation-delay: 0.9s"
    >
      <title>2026-01-15: 3747 stars, TypeScript, Shell, Python, JavaScript, C</title>
    </path>

    <path
      d="M 20,136.16430290134744 L 35.2,138.90564688606273 L 50.400000000000006,142.66432333709957 L 65.6,143.94619171120982 L 80.80000000000001,141.5596016188393 L 96,137.7231747770996 L 111.2,136.00333004208304 L 126.4,137.99886935777062 L 141.60000000000002,141.8546996031074 L 156.79999999999998,143.986364131287 L 172,142.4122251106036 L 187.2,138.59563354892637 L 202.4,136.08456903066366 L 217.6,137.21336718014228 L 232.8,140.93267473947577 L 248,143.78494927180668 L 263.20000000000005,143.11865952305695 L 278.40000000000003,139.55320172351787 L 293.59999999999997,136.4030965069549 L 308.8,136.59674446758618 L 324,139.95412660160193 L 339.2,143.35415356107345 L 354.4,143.63609251837232 L 369.6,140.53784739945434 L 384.8,136.93960861814077 L 400,136.18637066221393 L 415.2,138.97835854832599 L 430.40000000000003,142.7200846903 L 445.6,143.93316589003 L 460.79999999999995,141.4898976862663 L 476,137.66159089812572 L 491.2,136.00711581803372 L 506.40000000000003,138.06450545586762 L 521.6,141.92116939836345 L 536.8000000000001,143.9918759772193 L 552,142.35165508537665 L 567.1999999999999,138.52528875521523 L 582.4,136.06984339074774 L 597.6,137.26794994238483 L 612.8000000000001,141.0058246802044 L 628,143.808664748165 L 643.1999999999999,143.07089415554793 L 658.4,139.4783591497918 L 673.6,136.3707518752385 L 688.8,136.6369659921855 L 704,140.02952355159223 L 719.2,143.3946354290035 L 734.4,143.60402655296824 L 749.6,140.4630427612641 L 764.8,136.89160518976092 L 780,136.2097933874251"
      stroke="url(#thread-10)"
      stroke-width="8"
      stroke-linecap="round"
      fill="none"
      opacity="0.8181818181818182"
      class="thread"
      style="animation-delay: 1s"
    >
      <title>2026-01-14: 4003 stars, TypeScript, Shell, Python, C, HTML, Jupyter Notebook</title>
    </path>

    <path
      d="M 20,149.17783869771844 L 35.2,153.86754635529792 L 50.400000000000006,155.93253547445022 L 65.6,152.4705941730907 L 80.80000000000001,148.34726246142998 L 96,149.3576228299127 L 111.2,154.0816775461529 L 126.4,155.88006584939336 L 141.60000000000002,152.22526647869446 L 156.79999999999998,148.25386928913113 L 172,149.54742238917942 L 187.2,154.2879185350004 L 202.4,155.81288957420693 L 217.6,151.97908495464262 L 232.8,148.17467511134495 L 248,149.74651797646163 L 263.20000000000005,154.48548760467816 L 278.40000000000003,155.7312612677594 L 293.59999999999997,151.73298270508417 L 308.8,148.10998009850934 L 324,149.95415495787992 L 339.2,154.67363590728073 L 354.4,155.6354903265894 L 369.6,151.48789253369327 L 384.8,148.06002946474075 L 400,150.16954632502814 L 415.2,154.85165030252497 L 430.40000000000003,155.52593975219722 L 445.6,151.2447434080547 L 460.79999999999995,148.0250125383967 L 476,150.39187567797893 L 491.2,155.018856060772 L 506.40000000000003,155.40302477515667 L 521.6,151.00445693858921 L 536.8000000000001,148.00506204446293 L 552,150.62030031969206 L 567.1999999999999,155.17461942046174 L 582.4,155.26721128126272 L 597.6,150.76794388536499 L 612.8000000000001,148.00025360148447 L 628,150.8539544500968 L 643.1999999999999,155.318349990265 L 658.4,155.11901404568042 L 673.6,150.53610070603497 L 688.8,148.01060543494802 L 704,151.0919524477423 L 719.2,155.44950298684958 L 734.4,154.95899478178734 L 749.6,150.30980615798515 L 764.8,148.03607830820172 L 780,151.33339222657668"
      stroke="url(#thread-11)"
      stroke-width="8"
      stroke-linecap="round"
      fill="none"
      opacity="0.8"
      class="thread"
      style="animation-delay: 1.1s"
    >
      <title>2026-01-13: 5049 stars, TypeScript, Shell, C, Rust, Python</title>
    </path>

    <path
      d="M 20,162.88233800720428 L 35.2,166.3821342032584 L 50.400000000000006,167.99972379818317 L 65.6,166.45699332157838 L 80.80000000000001,162.97290746605336 L 96,160.30036293541283 L 111.2,160.55102957197855 L 126.4,163.5268469988911 L 141.60000000000002,166.87651897220712 L 156.79999999999998,167.95335384408853 L 172,165.90650714850605 L 187.2,162.3532632335268 L 202.4,160.1011629770109 L 217.6,160.92966866257825 L 232.8,164.18414930079302 L 248,167.29312720911463 L 263.20000000000005,167.8000914429439 L 278.40000000000003,165.30447203181288 L 293.59999999999997,161.77814416357296 L 308.8,160.00738141687842 L 324,161.391324665616 L 339.2,164.83647249630562 L 354.4,167.6206944849264 L 369.6,167.54408056813116 L 384.8,164.66716605066188 L 400,161.26310056794154 L 415.2,160.0215539603548 L 430.40000000000003,161.92351513155498 L 445.6,165.4661787960011 L 460.79999999999995,167.85036389761294 L 476,167.1922433495581 L 491.2,164.0118209527112 L 506.40000000000003,160.82205841239366 L 521.6,160.14329740423767 L 536.8000000000001,162.51185047032953 L 552,166.05624193561064 L 567.1999999999999,167.97592554881885 L 582.4,166.75409291019315 L 597.6,163.35615623486015 L 612.8000000000001,160.4669427805718 L 628,160.3693199979926 L 643.1999999999999,163.14042302314465 L 658.4,166.5907075393323 L 673.6,167.99398444971132 L 688.8,166.24147614623806 L 704,162.71790003602558 L 719.2,160.20735543856313 L 734.4,160.69351044749118 L 749.6,163.79223718045753 L 764.8,167.0551245009664 L 780,167.90405231611857"
      stroke="url(#thread-12)"
      stroke-width="7.33"
      stroke-linecap="round"
      fill="none"
      opacity="0.7818181818181817"
      class="thread"
      style="animation-delay: 1.2000000000000002s"
    >
      <title>2026-01-12: 3665 stars, TypeScript, Unknown, Python, Shell, C</title>
    </path>

    <path
      d="M 20,176.86047995235126 L 35.2,179.5574665627476 L 50.400000000000006,179.67750416348562 L 65.6,177.13364020817102 L 80.80000000000001,173.76859270545606 L 96,172.0199266124874 L 111.2,173.1543364370044 L 126.4,176.3500811387826 L 141.60000000000002,179.2922349134295 L 156.79999999999998,179.84956753794526 L 172,177.61835975609415 L 187.2,174.21484845510142 L 202.4,172.10446090511968 L 217.6,172.8159145265371 L 232.8,175.83384826878816 L 248,178.9721385995404 L 263.20000000000005,179.95747837248405 L 278.40000000000003,178.076109550185 L 293.59999999999997,174.6908535219415 L 308.8,172.2539138476611 L 324,172.53055498435776 L 339.2,175.32038429568001 L 354.4,178.602511984318 L 369.6,179.9994383471472 L 384.8,178.49926124994826 L 400,175.1886753437464 L 415.2,172.46579482635622 L 430.40000000000003,172.30301328994324 L 445.6,174.8182460294656 L 460.79999999999995,178.18951484699858 L 476,179.97474820444074 L 491.2,178.88076308760895 L 506.40000000000003,175.70001778491599 L 521.6,172.73657287238572 L 536.8000000000001,172.13708139589355 L 552,174.33580153872697 L 567.1999999999999,177.74002973090109 L 582.4,179.8838194023661 L 597.6,179.21425738490083 L 612.8000000000001,176.21635939049534 L 628,173.06173550500048 L 643.1999999999999,172.0355245355374 L 658.4,173.8810906978518 L 673.6,177.2615472467421 L 688.8,179.72816725752637 L 704,179.4941865029438 L 719.2,176.72909539510803 L 734.4,173.4358639314234 L 749.6,172.0000351406803 L 764.8,173.46169120357723 L 780,176.7620412425875"
      stroke="url(#thread-13)"
      stroke-width="6.996"
      stroke-linecap="round"
      fill="none"
      opacity="0.7636363636363637"
      class="thread"
      style="animation-delay: 1.3s"
    >
      <title>2026-01-11: 3498 stars, TypeScript, Unknown, Shell, Python</title>
    </path>

    <path
      d="M 20,190.62794639487515 L 35.2,191.97281880616478 L 50.400000000000006,189.85961192899134 L 65.6,186.12773432708087 L 80.80000000000001,184.0255417075248 L 96,185.38285544218292 L 111.2,189.01822257717666 L 126.4,191.76729346334167 L 141.60000000000002,191.23718144820532 L 156.79999999999998,187.88931441699202 L 172,184.637791956424 L 187.2,184.31285199716515 L 202.4,187.1973335504897 L 217.6,190.78048382243 L 232.8,191.94340453259628 L 248,189.67384915826509 L 263.20000000000005,185.94731741812888 L 278.40000000000003,184.00751179576642 L 293.59999999999997,185.54290638819083 L 308.8,189.21704048608356 L 324,191.83182033111788 L 339.2,191.11125085098575 L 354.4,187.68254071457403 L 369.6,184.53015815146077 L 384.8,184.39804628683905 L 400,187.40119987005409 L 415.2,190.9255698561118 L 430.40000000000003,191.9034223642837 L 445.6,189.4836006540626 L 460.79999999999995,185.7724014749766 L 476,184.00018131764733 L 491.2,185.70954207752177 L 506.40000000000003,189.41259685901315 L 521.6,191.8860783376594 L 536.8000000000001,190.97698244027427 L 552,187.47661776847238 L 567.1999999999999,184.4318231448153 L 582.4,184.49289342024207 L 597.6,187.60667090876248 L 612.8000000000001,191.06281568114892 L 628,191.85297944908436 L 643.1999999999999,189.2893762616588 L 658.4,185.60345525330482 L 673.6,184.00356991805066 L 688.8,185.88231594467354 L 704,189.60436762618036 L 719.2,191.92992207741688 L 734.4,190.83473604079103 L 749.6,187.27209742975933 L 764.8,184.3430504635976 L 780,184.59713921738472"
      stroke="url(#thread-14)"
      stroke-width="7.724"
      stroke-linecap="round"
      fill="none"
      opacity="0.7454545454545454"
      class="thread"
      style="animation-delay: 1.4000000000000001s"
    >
      <title>2026-01-10: 3862 stars, TypeScript, Unknown, Shell, Python</title>
    </path>

    <path
      d="M 20,203.75199990709896 L 35.2,203.23455942009574 L 50.400000000000006,199.8356260649693 L 65.6,196.58312449852903 L 80.80000000000001,196.3745312701406 L 96,199.3956707292365 L 111.2,202.95517423039772 L 126.4,203.88207391663178 L 141.60000000000002,201.35064532643844 L 156.79999999999998,197.6160003565067 L 172,196.00513086204015 L 187.2,197.95307276507026 L 202.4,201.72451068810628 L 217.6,203.95967593737166 L 232.8,202.66738149530204 L 248,198.99886211591186 L 263.20000000000005,196.22220196627808 L 278.40000000000003,196.81097638672787 L 293.59999999999997,200.24067830439094 L 308.8,203.45597302541825 L 324,203.5925295531388 L 339.2,200.52869711240288 L 354.4,196.99387720137304 L 369.6,196.13704841059595 L 384.8,198.72151285611486 L 400,202.44491188549227 L 415.2,203.9902720396317 L 430.40000000000003,201.9809161008666 L 445.6,198.20686986717763 L 460.79999999999995,196.03022563428155 L 476,197.39003723268306 L 491.2,201.0749225500482 L 506.40000000000003,203.8022178962707 L 521.6,203.14232434650737 L 536.8000000000001,199.6831051335528 L 552,196.50619030243752 L 567.1999999999999,196.44172029566494 L 582.4,199.5471279319272 L 597.6,203.05597463510423 L 612.8000000000001,203.84241993130465 L 628,201.20586252747697 L 643.1999999999999,197.4950678561951 L 658.4,196.0157808402256 L 673.6,198.08581773607037 L 688.8,201.86109538511727 L 704,203.9784244907568 L 719.2,202.5515918396946 L 734.4,198.85168495083602 L 749.6,196.17474941441793 L 764.8,196.90552134278116 L 780,200.39299581490897"
      stroke="url(#thread-15)"
      stroke-width="7.822"
      stroke-linecap="round"
      fill="none"
      opacity="0.7272727272727273"
      class="thread"
      style="animation-delay: 1.5s"
    >
      <title>2026-01-09: 3911 stars, TypeScript, Unknown, Python, Shell</title>
    </path>

    <path
      d="M 20,215.95743298649353 L 35.2,213.83743669571285 L 50.400000000000006,210.18763206808043 L 65.6,208.04676409016352 L 80.80000000000001,209.19727113840133 L 96,212.68126700201583 L 111.2,215.59805533040608 L 126.4,215.51918396953909 L 141.60000000000002,212.51031943498768 L 156.79999999999998,209.07657445262373 L 172,208.07680762307257 L 187.2,210.3434022520142 L 202.4,213.98924278999394 L 217.6,215.97888466205214 L 232.8,214.65579693554454 L 248,211.12155260023465 L 263.20000000000005,208.31868375055768 L 278.40000000000003,208.58079575280595 L 293.59999999999997,211.68966006764313 L 308.8,215.05690640831295 L 324,215.8790414429313 L 339.2,213.47157409057465 L 354.4,209.83890735186156 L 369.6,208.00551759370785 L 384.8,209.49784376405995 L 400,213.07340876314439 L 415.2,215.75527784413845 L 430.40000000000003,215.3105873181748 L 445.6,212.10957648412315 L 460.79999999999995,208.81733474164042 L 476,208.17490828640376 L 491.2,210.71716689070428 L 506.40000000000003,214.32748339869693 L 521.6,215.99998974130085 L 536.8000000000001,214.34219487252648 L 552,210.73434139717125 L 567.1999999999999,208.18024671891257 L 582.4,208.80639244172926 L 597.6,212.09146376381935 L 612.8000000000001,215.30038441974656 L 628,215.7614794706207 L 643.1999999999999,213.0908515802483 L 658.4,209.5120052758073 L 673.6,208.0046072449279 L 688.8,209.82368307840937 L 704,213.45471127903846 L 719.2,215.87457968973973 L 734.4,215.0685604685078 L 749.6,211.7077270336435 L 764.8,208.5902334763444 L 780,208.31163459594876"
      stroke="url(#thread-16)"
      stroke-width="7.54"
      stroke-linecap="round"
      fill="none"
      opacity="0.7090909090909091"
      class="thread"
      style="animation-delay: 1.6s"
    >
      <title>2026-01-08: 3770 stars, TypeScript, Unknown, Python, Rust, JavaScript</title>
    </path>

    <path
      d="M 20,227.19394845049396 L 35.2,224.1161719155782 L 50.400000000000006,220.95125445424253 L 65.6,220.07321080361814 L 80.80000000000001,222.1406643217837 L 96,225.60281149477103 L 111.2,227.86268462557086 L 126.4,227.22514563171916 L 141.60000000000002,224.16841455698946 L 156.79999999999998,220.98535518298348 L 172,220.0635905537046 L 187.2,222.09453927352646 L 202.4,225.55478019478343 L 217.6,227.8487755060023 L 232.8,227.25579196776232 L 248,224.22062843370048 L 263.20000000000005,221.01997080399988 L 278.40000000000003,220.05464263069524 L 293.59999999999997,222.0487396722352 L 308.8,225.50648334301084 L 324,227.8342090271433 L 339.2,227.2858822243214 L 354.4,224.27280462773805 L 369.6,221.05509540504767 L 384.8,220.04636856286834 L 400,222.00327334034418 L 415.2,225.45792918841042 L 430.40000000000003,227.81898767690464 L 445.6,227.31541126207094 L 460.79999999999995,224.324934227565 L 476,221.09072298695054 L 491.2,220.03876976340985 L 506.40000000000003,221.9581480433663 L 521.6,225.40912602388585 L 536.8000000000001,227.8031140550472 L 552,227.34437403754006 L 567.1999999999999,224.37700832960232 L 582.4,221.12684746462455 L 597.6,220.03184753017186 L 612.8000000000001,221.91337148856658 L 628,225.36008218487092 L 643.1999999999999,227.78659087273786 L 658.4,227.37276560397376 L 673.6,224.42901803974993 L 688.8,221.16346266811755 L 704,220.02560304545105 L 719.2,221.86895132364614 L 734.4,225.310806047906 L 749.6,227.76942095208656 L 764.8,227.4005811121778 L 780,224.48095447490556"
      stroke="url(#thread-17)"
      stroke-width="7.128"
      stroke-linecap="round"
      fill="none"
      opacity="0.6909090909090909"
      class="thread"
      style="animation-delay: 1.7000000000000002s"
    >
      <title>2026-01-07: 3564 stars, TypeScript, Python, Unknown, Shell, Rust</title>
    </path>

    <path
      d="M 20,237.64847394096702 L 35.2,233.62140391757217 L 50.400000000000006,232.03253956805972 L 65.6,234.51056350089365 L 80.80000000000001,238.5153504473545 L 96,239.94175017714988 L 111.2,237.3276161997073 L 126.4,233.35259485900943 L 141.60000000000002,232.09132482880736 L 156.79999999999998,234.83668461279288 L 172,238.77451343284443 L 187.2,239.86829721128495 L 202.4,236.99684104062425 L 217.6,233.10356216573706 L 232.8,232.17930826054516 L 248,235.17149579999986 L 263.20000000000005,239.0129505421542 L 278.40000000000003,239.76594770158636 L 293.59999999999997,236.658619385253 L 308.8,232.87616613538583 L 324,232.29583261876658 L 339.2,235.51249599146993 L 354.4,239.22888062766128 L 369.6,239.6354662085136 L 384.8,236.31547778115592 L 400,232.67210543768033 L 415.2,232.44002745556105 L 430.40000000000003,235.85713788371487 L 445.6,239.4206906713271 L 460.79999999999995,239.47782744108673 L 476,235.96997952837498 L 491.2,232.49290442521652 L 506.40000000000003,232.61081562194173 L 521.6,236.20284696939916 L 536.8000000000001,239.586947834093 L 552,239.2942089757183 L 567.1999999999999,235.62470553133937 L 582.4,232.33990174640454 L 597.6,232.8069213142496 L 612.8000000000001,236.54704076915203 L 628,239.72641015932297 L 643.1999999999999,239.08598245960698 L 658.4,235.28223501926678 L 673.6,232.21424034563913 L 688.8,233.02687960452695 L 704,236.88714812293108 L 719.2,239.8380358503365 L 734.4,238.85470336440375 L 749.6,234.94512627907858 L 764.8,232.11685892539762 L 780,233.2690473836667"
      stroke="url(#thread-18)"
      stroke-width="8"
      stroke-linecap="round"
      fill="none"
      opacity="0.6727272727272728"
      class="thread"
      style="animation-delay: 1.8s"
    >
      <title>2026-01-06: 4224 stars, TypeScript, Python, Rust, JavaScript, Go</title>
    </path>

    <path
      d="M 20,247.69939551815276 L 35.2,244.58901972657642 L 50.400000000000006,244.31020081484004 L 65.6,247.09439471187642 L 80.80000000000001,250.63035868040373 L 96,251.98278313216085 L 111.2,250.0289800262131 L 126.4,246.39085983492637 L 141.60000000000002,244.0885350865338 L 156.79999999999998,245.03323450661037 L 172,248.44073481390745 L 187.2,251.48236795268758 L 202.4,251.63318316109317 L 217.6,248.76798421788754 L 232.8,245.26525857518408 L 248,244.0327236915285 L 263.20000000000005,246.09354368682202 L 278.40000000000003,249.73697016382212 L 293.59999999999997,251.93848568760794 L 308.8,250.87054628906895 L 324,247.41968044646873 L 339.2,244.45055524514694 L 354.4,244.42793043654905 L 369.6,247.37058755187877 L 384.8,250.83573879056084 L 400,251.9468583321371 L 415.2,249.78157256841402 L 430.40000000000003,246.13735005963503 L 445.6,244.0393690505409 L 460.79999999999995,245.22922640885892 L 476,248.7191859066126 L 491.2,251.61212764451014 L 506.40000000000003,251.50653404570014 L 521.6,248.4900615189596 L 536.8000000000001,245.06677424856122 L 552,244.07844552111385 L 567.1999999999999,246.34551661256143 L 582.4,249.98602391376477 L 597.6,251.97787328505783 L 612.8000000000001,250.66757090977043 L 628,247.1428380316528 L 643.1999999999999,244.3296609744589 L 658.4,244.56334226472913 L 673.6,247.64989606492873 L 688.8,251.0270816268345 L 704,251.8913960727495 L 719.2,249.52534609591257 L 734.4,245.89306064252654 L 749.6,244.0098086501495 L 764.8,245.43893399884897 L 780,248.99407693603627"
      stroke="url(#thread-19)"
      stroke-width="7.528"
      stroke-linecap="round"
      fill="none"
      opacity="0.6545454545454545"
      class="thread"
      style="animation-delay: 1.9000000000000001s"
    >
      <title>2026-01-05: 3764 stars, Go, TypeScript, Python, Rust, JavaScript</title>
    </path>

    <path
      d="M 20,257.8239155564425 L 35.2,256.0003719891096 L 50.400000000000006,257.7331897005313 L 65.6,261.4815939498415 L 80.80000000000001,263.9126048466434 L 96,262.86463311361496 L 111.2,259.2695069313831 L 126.4,256.32391547001873 L 141.60000000000002,256.64699915650743 L 156.79999999999998,259.9514806967365 L 172,263.2991042919088 L 187.2,263.7132533923604 L 202.4,260.82567779570576 L 217.6,257.20393178785787 L 232.8,256.068374169366 L 248,258.4287121262993 L 263.20000000000005,262.18619685202964 L 278.40000000000003,263.99977434160616 L 293.59999999999997,262.256860439105 L 308.8,258.50720714600754 L 324,256.0849049687351 L 339.2,257.1437996262491 L 354.4,260.74235056827615 L 369.6,263.6808234207683 L 384.8,263.34640743162055 L 400,260.0364562726152 L 415.2,256.6940891799422 L 430.40000000000003,256.2912487631142 L 445.6,259.18612984825603 L 460.79999999999995,262.80468230626434 L 476,263.9293869549145 L 491.2,261.5601867760028 L 506.40000000000003,257.80371062475234 L 521.6,256.00011570890763 L 536.8000000000001,257.75310994925616 L 552,261.5039781799675 L 567.1999999999999,263.91754960488475 L 582.4,262.8477416544008 L 597.6,259.24579868435217 L 612.8000000000001,256.31447116855384 L 628,256.6602164185728 L 643.1999999999999,259.9756070896328 L 658.4,263.3126872782354 L 673.6,263.7042153472756 L 688.8,260.8020551049654 L 704,257.1867291105003 L 719.2,256.0728876618035 L 734.4,258.450928512874 L 749.6,262.2063619214116 L 764.8,263.999957858349 L 780,262.236899225074"
      stroke="url(#thread-20)"
      stroke-width="7.814"
      stroke-linecap="round"
      fill="none"
      opacity="0.6363636363636364"
      class="thread"
      style="animation-delay: 2s"
    >
      <title>2026-01-04: 3907 stars, Python, Jupyter Notebook, TypeScript, Go, Rust</title>
    </path>

    <path
      d="M 20,268.48121696011333 L 35.2,268.4558873165135 L 50.400000000000006,271.5567388728902 L 65.6,275.04858098910654 L 80.80000000000001,275.8513391438685 L 96,273.25691862471444 L 111.2,269.5537987708042 L 126.4,268.00841739109745 L 141.60000000000002,269.98392025647877 L 156.79999999999998,273.73776121512 L 172,275.95876252504775 L 187.2,274.68782943948065 L 202.4,271.0460231303845 L 217.6,268.2456981231951 L 232.8,268.75695742340935 L 248,272.1288308290666 L 263.20000000000005,275.38706549019923 L 278.40000000000003,275.6576467090791 L 293.59999999999997,272.70190094593124 L 308.8,269.1270243205961 L 324,268.0863342065394 L 339.2,270.49779968660783 L 354.4,274.2343219009632 L 369.6,275.99999957811394 L 384.8,274.237368593049 L 400,270.50120565297664 L 415.2,268.08709512171373 L 430.40000000000003,269.12446899860504 L 445.6,272.69828337819143 L 460.79999999999995,275.6561578698252 L 476,275.38901865067885 L 491.2,272.13250315083826 L 506.40000000000003,268.759109634952 L 521.6,268.2444318076514 L 536.8000000000001,271.0424552758977 L 552,274.68510716935555 L 567.1999999999999,275.9592870918534 L 582.4,273.7410699104066 L 597.6,269.9870945553784 L 612.8000000000001,268.0086573167388 L 628,269.55089269023523 L 643.1999999999999,273.25342992551674 L 658.4,275.8503451282663 L 673.6,275.0509584556573 L 688.8,271.5603907124164 L 704,268.457592324417 L 719.2,268.4794711876968 L 734.4,271.60672845451285 L 749.6,275.08088160805283 L 764.8,275.8374591587276 L 780,273.2091012547287"
      stroke="url(#thread-21)"
      stroke-width="7.78"
      stroke-linecap="round"
      fill="none"
      opacity="0.6181818181818182"
      class="thread"
      style="animation-delay: 2.1s"
    >
      <title>2026-01-03: 3890 stars, Go, Python, Jupyter Notebook, TypeScript, Rust, JavaScript</title>
    </path>

    <path
      d="M 20,280.0000391737972 L 35.2,280.8533619105244 L 50.400000000000006,283.03214812625185 L 65.6,285.6186241605275 L 80.80000000000001,287.5232845077108 L 96,287.94382599269727 L 111.2,286.7031032419473 L 126.4,284.32374791722845 L 141.60000000000002,281.80801973090723 L 156.79999999999998,280.2156229575912 L 172,280.21732547941076 L 187.2,281.81241014033134 L 202.4,284.3289768349564 L 217.6,286.70696808246214 L 232.8,287.94469876294454 L 248,287.52079756926 L 263.20000000000005,285.61382509050617 L 278.40000000000003,283.0270584447286 L 293.59999999999997,280.8501255523233 L 308.8,280.00001939534565 L 324,280.83483157260906 L 339.2,283.0029127932438 L 354.4,285.5909986792876 L 369.6,287.5089056046221 L 384.8,287.9487505164885 L 400,286.72525682745436 L 415.2,284.3537987736055 L 430.40000000000003,281.83330948705856 L 445.6,280.225498768411 L 460.79999999999995,280.2076273410488 L 476,281.7872232153795 L 491.2,284.2989106527672 L 506.40000000000003,286.68468746984803 L 521.6,287.93958901858616 L 536.8000000000001,287.5350110790822 L 552,285.6413746746547 L 567.1999999999999,283.0563393470757 L 582.4,280.8688037307614 L 597.6,280.0002270103997 L 612.8000000000001,280.8164811702522 L 628,282.97373414329945 L 643.1999999999999,285.5632827519175 L 658.4,287.4943272249797 L 673.6,287.9534505591356 L 688.8,286.7472554857843 L 704,284.3838295169992 L 719.2,281.8587224166449 L 734.4,280.2355891545379 L 749.6,280.1981447939606 L 764.8,281.76216208380515 L 780,284.2688274779103"
      stroke="url(#thread-22)"
      stroke-width="5.26"
      stroke-linecap="round"
      fill="none"
      opacity="0.6000000000000001"
      class="thread"
      style="animation-delay: 2.2s"
    >
      <title>2026-01-02: 2630 stars, TypeScript, Rust, Python, JavaScript, Jupyter Notebook, Shell</title>
    </path>

    <path
      d="M 20,292.49819130124627 L 35.2,295.45386382276934 L 50.400000000000006,298.8482936085814 L 65.6,299.95444885098186 L 80.80000000000001,297.88366172632345 L 96,294.29957022750983 L 111.2,292.08157741652997 L 126.4,293.0115840326701 L 141.60000000000002,296.34243730400163 L 156.79999999999998,299.39818180034575 L 172,299.723880179187 L 187.2,297.0578714562478 L 202.4,293.5419853483928 L 217.6,292.00082977311337 L 232.8,293.67254501894007 L 248,297.2141011997217 L 263.20000000000005,299.7802674628072 L 278.40000000000003,299.30942596223827 L 293.59999999999997,296.17984339653486 L 308.8,292.9057774584532 L 324,292.1175615226816 L 339.2,294.44843594586854 L 354.4,298.02581266672763 L 369.6,299.97568317087246 L 384.8,298.7315519874214 L 400,295.29293465338884 L 415.2,292.4223625617092 L 430.40000000000003,292.42600844072336 L 445.6,295.3009432482459 L 460.79999999999995,298.73748931825185 L 476,299.9747792789353 L 491.2,298.0187937246701 L 506.40000000000003,294.4409408619772 L 521.6,292.1156117301463 L 536.8000000000001,292.9109393901059 L 552,296.1879700372083 L 567.1999999999999,299.31398849590005 L 582.4,299.77760042126255 L 597.6,297.20634724244036 L 612.8000000000001,293.66593355394514 L 628,292.0006723479915 L 643.1999999999999,293.54840843602506 L 658.4,297.06571484847495 L 673.6,299.726842617349 L 688.8,299.39388330795 L 704,296.33433122261886 L 719.2,293.00618266132 L 734.4,292.0832201324884 L 749.6,294.3069372984646 L 764.8,297.8908345626761 L 780,299.95566490817566"
      stroke="url(#thread-23)"
      stroke-width="7.396"
      stroke-linecap="round"
      fill="none"
      opacity="0.5818181818181818"
      class="thread"
      style="animation-delay: 2.3000000000000003s"
    >
      <title>2026-01-01: 3698 stars, Rust, Python, JavaScript, TypeScript, Jupyter Notebook, Go, Shell</title>
    </path>

    <path
      d="M 20,305.8537083279983 L 35.2,309.42516182190303 L 50.400000000000006,311.84879125539294 L 65.6,311.172607644105 L 80.80000000000001,307.9412086655565 L 96,304.75716017533915 L 111.2,304.18489198796976 L 126.4,306.68530839121223 L 141.60000000000002,310.2445762437428 L 156.79999999999998,311.99606439125483 L 172,310.52912584170264 L 187.2,307.0252315946937 L 202.4,304.3064149520292 L 217.6,304.56240841309614 L 232.8,307.58703507264374 L 248,310.94426331640585 L 263.20000000000005,311.9301845108009 L 278.40000000000003,309.7507386050983 L 293.59999999999997,306.1612493881417 L 308.8,304.0526882741953 L 324,305.12328850403674 L 339.2,308.51078960730285 L 354.4,311.4869012163646 L 369.6,311.65466569535187 L 384.8,308.87896568249903 L 400,305.39534749281484 L 415.2,304.009514109613 L 430.40000000000003,305.83761450385134 L 445.6,309.40729824829276 L 460.79999999999995,311.8435452385745 L 476,311.1842043213457 L 491.2,307.96030808334837 L 506.40000000000003,304.76837967962535 L 521.6,304.17919540000366 L 536.8000000000001,306.66728373786157 L 552,310.228740564742 L 567.1999999999999,311.995171728349 L 582.4,310.5438951448001 L 597.6,307.0437676802509 L 612.8000000000001,304.31378887326866 L 628,304.5526812204276 L 643.1999999999999,307.56804103836777 L 658.4,310.9313002187897 L 673.6,311.9336928171042 L 688.8,309.767892728553 L 704,306.17823341301533 L 719.2,304.0558232820008 L 734.4,305.11004956228334 L 749.6,308.49183934787237 L 764.8,311.47750216130265 L 780,311.6623878352234"
      stroke="url(#thread-24)"
      stroke-width="7.406"
      stroke-linecap="round"
      fill="none"
      opacity="0.5636363636363636"
      class="thread"
      style="animation-delay: 2.4000000000000004s"
    >
      <title>2025-12-31: 3703 stars, Go, Python, TypeScript, Rust, Shell</title>
    </path>

    <path
      d="M 20,319.7347124105952 L 35.2,323.40446341248304 L 50.400000000000006,323.44760592132815 L 65.6,319.81818233088484 L 80.80000000000001,316.38244021769884 L 96,316.80030774604353 L 111.2,320.62665105966863 L 126.4,323.7854536246296 L 141.60000000000002,322.91179744300405 L 156.79999999999998,318.9363457484355 L 172,316.0939529459792 L 187.2,317.412481176892 L 202.4,321.4873667548639 L 217.6,323.97783321830497 L 232.8,322.2309083558423 L 248,318.1075058491106 L 263.20000000000005,316.00008487282616 L 278.40000000000003,318.15357800079363 L 293.59999999999997,322.27397424762256 L 308.8,323.97201686035163 L 324,321.4388640290521 L 339.2,317.3729596666418 L 354.4,316.1055129846957 L 369.6,318.9866729918272 L 384.8,322.9472807382395 L 400,323.7682943514063 L 415.2,320.5751281531568 L 430.40000000000003,316.769306040563 L 445.6,316.4049843150069 L 460.79999999999995,319.8702571058767 L 476,323.47373866116277 L 491.2,323.3768161865534 L 506.40000000000003,319.68273645753055 L 521.6,316.3266220752445 L 536.8000000000001,316.8835776737451 L 552,320.7603056730485 L 567.1999999999999,323.827117195918 L 582.4,322.81708780585694 L 597.6,318.80615245073034 L 612.8000000000001,316.0669645450562 L 628,317.51744709729843 L 643.1999999999999,321.61247193140315 L 658.4,323.9898092204523 L 673.6,322.11699773379195 L 688.8,317.989052021582 L 704,316.0032709133025 L 719.2,318.27500997606126 L 734.4,322.38429660895747 L 749.6,323.95370858781195 L 764.8,321.31142803062676 L 780,317.27214728350083"
      stroke="url(#thread-25)"
      stroke-width="8"
      stroke-linecap="round"
      fill="none"
      opacity="0.5454545454545454"
      class="thread"
      style="animation-delay: 2.5s"
    >
      <title>2025-12-30: 4315 stars, Go, Shell, Rust, Python, Swift, TypeScript</title>
    </path>

    <path
      d="M 20,333.68066814730656 L 35.2,335.80526743576013 L 50.400000000000006,335.48993171018407 L 65.6,332.936854033483 L 80.80000000000001,329.7830661575858 L 96,328.050774824891 L 111.2,328.85072411541296 L 126.4,331.66998706242913 L 141.60000000000002,334.70085409117024 L 156.79999999999998,335.99993522678267 L 172,334.7342604869048 L 187.2,331.7153796946003 L 202.4,328.8789972576866 L 217.6,328.043799756762 L 232.8,329.7453152882187 L 248,332.89253319585373 L 263.20000000000005,335.467459396661 L 278.40000000000003,335.8190528792124 L 293.59999999999997,333.7218721303254 L 308.8,330.5206280872317 L 324,328.2679563559851 L 339.2,328.40826859094943 L 354.4,330.85159667798666 L 369.6,334.0312802309436 L 384.8,335.9085082160712 L 400,335.2796032657328 L 415.2,332.54781882656056 L 430.40000000000003,329.46477331077944 L 445.6,328.007313505322 L 460.79999999999995,329.1099616930264 L 476,332.0657005704429 L 491.2,334.97931228466484 L 506.40000000000003,335.98259089252775 L 521.6,334.4322348007857 L 536.8000000000001,331.32233133084657 L 552,328.6469485724453 L 567.1999999999999,328.1215402166443 L 582.4,330.08299776072323 L 597.6,333.2736358984258 L 612.8000000000001,335.64761952336266 L 628,335.68275187354465 L 643.1999999999999,333.3565061088006 L 658.4,330.1604695060976 L 673.6,328.1439386640853 L 688.8,328.5999118519677 L 704,331.2360193571413 L 719.2,334.3619907554631 L 734.4,335.97345521193125 L 749.6,335.037142761273 L 764.8,332.1534163401283 L 780,329.1713194611057"
      stroke="url(#thread-26)"
      stroke-width="6.556"
      stroke-linecap="round"
      fill="none"
      opacity="0.5272727272727273"
      class="thread"
      style="animation-delay: 2.6s"
    >
      <title>2025-12-29: 3278 stars, Shell, Go, JavaScript, TypeScript, Rust, Python</title>
    </path>

    <path
      d="M 20,347.21513770620646 L 35.2,347.80117218235847 L 50.400000000000006,345.1835642172397 L 65.6,341.568443806903 L 80.80000000000001,340.0026482481723 L 96,341.8058360215509 L 111.2,345.4582735808483 L 126.4,347.8816725934912 L 141.60000000000002,347.0335831107326 L 156.79999999999998,343.62877818957065 L 172,340.5368404288431 L 187.2,340.3636667889683 L 202.4,343.25520867540666 L 217.6,346.774463536393 L 232.8,347.9553899264412 L 248,345.80269857117077 L 263.20000000000005,342.1306859712 L 278.40000000000003,340.0341383781869 L 293.59999999999997,341.2800341153689 L 308.8,344.8183274943242 L 324,347.6669313338677 L 339.2,347.42503143224275 L 354.4,344.2965019509466 L 369.6,340.9180794923261 L 384.8,340.13711141496987 L 400,342.61180059890205 L 415.2,346.25646954301044 L 430.40000000000003,347.9993773332902 L 445.6,346.37159462366344 L 460.79999999999995,342.7450229022893 L 476,340.17615067469455 L 491.2,340.8300332711058 L 506.40000000000003,344.15557594048977 L 521.6,347.34999861270376 L 536.8000000000001,347.72102965228794 L 552,344.9559626812052 L 567.1999999999999,341.38520670924186 L 582.4,340.01820851502407 L 597.6,342.0070794005502 L 612.8000000000001,345.6755913831336 L 628,347.93190854482793 L 643.1999999999999,346.87439815936006 L 658.4,343.39433402082255 L 673.6,340.4247274840564 L 688.8,340.4683742864429 L 704,343.4884887361368 L 719.2,346.9397068337279 L 734.4,347.9133287779185 L 749.6,345.5887822734998 L 764.8,341.92520399752783 L 780,340.0102717211629"
      stroke="url(#thread-27)"
      stroke-width="7.59"
      stroke-linecap="round"
      fill="none"
      opacity="0.509090909090909"
      class="thread"
      style="animation-delay: 2.7s"
    >
      <title>2025-12-28: 3795 stars, Shell, Rust, Python, JavaScript, TypeScript</title>
    </path>

    <path
      d="M 20,359.9624294227795 L 35.2,357.38967313072965 L 50.400000000000006,352.6377293056218 L 65.6,353.1582615886965 L 80.80000000000001,358.13500791317915 L 96,359.763785190482 L 111.2,355.49045960428606 L 126.4,352.01615938123166 L 141.60000000000002,354.78903744646436 L 156.79999999999998,359.46086170365476 L 172,358.70560637538716 L 187.2,353.7076096770606 L 202.4,352.30437803692405 L 217.6,356.69636048760185 L 232.8,359.9963594642239 L 248,357.02954898078053 L 263.20000000000005,352.4482722937548 L 278.40000000000003,353.4365648580267 L 293.59999999999997,358.4446558768157 L 308.8,359.6192097194368 L 324,355.11837377023096 L 339.2,352.0000419842314 L 354.4,355.15416265339434 L 369.6,359.6346658796915 L 384.8,358.4155420521819 L 400,353.40853529789484 L 415.2,352.46528098028506 L 430.40000000000003,357.0649240896274 L 445.6,359.99462824105757 L 460.79999999999995,356.6602377146669 L 476,352.29050890271736 L 491.2,353.7377427810832 L 506.40000000000003,358.73248910609584 L 521.6,359.44233845602304 L 536.8000000000001,354.7541550728909 L 552,352.0196179632924 L 567.1999999999999,355.5268356371709 L 582.4,359.77603634127695 L 597.6,358.10392279001974 L 612.8000000000001,353.1325856924884 L 628,352.6577257685214 L 643.1999999999999,357.42398490790924 L 658.4,359.9572512017426 L 673.6,356.28503485845494 L 688.8,352.16584692429694 L 704,354.05910781544026 L 719.2,358.9959391391368 L 734.4,359.23474969993663 L 749.6,354.40105359511216 L 764.8,352.07471263338533 L 780,355.9037308736498"
      stroke="url(#thread-28)"
      stroke-width="8"
      stroke-linecap="round"
      fill="none"
      opacity="0.4909090909090909"
      class="thread"
      style="animation-delay: 2.8000000000000003s"
    >
      <title>2025-12-27: 5384 stars, Shell, Python, Rust, C, Go</title>
    </path>

    <path
      d="M 20,371.7395802220987 L 35.2,368.9980047537869 L 50.400000000000006,365.41203150325555 L 65.6,364.01570199020443 L 80.80000000000001,365.9904309720224 L 96,369.66542803773734 L 111.2,371.93132987001223 L 126.4,370.87098880533136 L 141.60000000000002,367.38154450161267 L 156.79999999999998,364.41536669462977 L 172,364.48209669859625 L 187.2,367.52527519591564 L 202.4,370.9701116715286 L 217.6,371.90197844547765 L 232.8,369.53243614985297 L 248,365.8663211861935 L 263.20000000000005,364.0054818502408 L 278.40000000000003,365.5243481258032 L 293.59999999999997,369.13782862458174 L 308.8,371.78860833110747 L 324,371.2338998269341 L 339.2,367.9430341737875 L 354.4,364.70036650480245 L 369.6,364.24947231676515 L 384.8,366.9718468389816 L 400,370.56412728664753 L 415.2,371.9869357092973 L 430.40000000000003,370.0364539166368 L 445.6,366.36295711400214 L 460.79999999999995,364.0745392672439 L 476,365.10739852297615 L 491.2,368.5876471952175 L 506.40000000000003,371.570695842623 L 521.6,371.53262897023694 L 536.8000000000001,368.5056544232593 L 552,365.0508527823229 L 567.1999999999999,364.0912831135753 L 582.4,366.4388238144901 L 597.6,370.10725372329335 L 612.8000000000001,371.99276590172406 L 628,370.50005502105154 L 643.1999999999999,366.8920827579132 L 658.4,364.2215036870929 L 673.6,364.7478571906285 L 688.8,368.02580297393484 L 704,371.28191722399185 L 719.2,371.7612474809352 L 734.4,369.05823915759703 L 749.6,365.45986957035484 L 764.8,364.01066860500754 L 780,365.9367848109346"
      stroke="url(#thread-29)"
      stroke-width="7.606"
      stroke-linecap="round"
      fill="none"
      opacity="0.4727272727272728"
      class="thread"
      style="animation-delay: 2.9000000000000004s"
    >
      <title>2025-12-26: 3803 stars, Python, Shell, Go, TypeScript</title>
    </path>

    <path
      d="M 20,382.6011513606285 L 35.2,379.3057446815327 L 50.400000000000006,376.51673978062854 L 65.6,376.2684848344934 L 80.80000000000001,378.74206127358025 L 96,382.13319987023397 L 111.2,383.9683457668108 L 126.4,382.9089119614578 L 141.60000000000002,379.7276677058266 L 156.79999999999998,376.7450673127053 L 172,376.13667084268695 L 187.2,378.3462531521788 L 202.4,381.76210687528305 L 217.6,383.8926495157483 L 232.8,383.18382660262495 L 248,380.1526657683711 L 263.20000000000005,377.0101478951207 L 278.40000000000003,376.0484796058296 L 293.59999999999997,377.9691183020811 L 308.8,381.371117062514 L 324,383.7729994391087 L 339.2,383.4227910873258 L 354.4,380.5759400064286 L 369.6,377.3089883722781 L 384.8,376.00490693467333 L 400,377.6149151388863 L 415.2,380.9646452907431 L 430.40000000000003,383.61074656491985 L 445.6,383.6231071497037 L 460.79999999999995,380.992711021814 L 476,377.6382143889589 L 491.2,376.00644482973877 L 506.40000000000003,377.2876431452069 L 521.6,380.5472812332213 L 536.8000000000001,383.40772297040905 L 552,383.78251292230055 L 567.1999999999999,381.3982728474367 L 582.4,377.9941084918309 L 597.6,376.05307592589423 L 612.8000000000001,376.9909977105373 L 628,380.1237375533706 L 643.1999999999999,383.16622109511525 L 658.4,383.8992084759173 L 673.6,381.7880460846965 L 688.8,378.3726521050481 L 704,376.14427368843405 L 719.2,376.7283284047889 L 734.4,379.698796691776 L 749.6,382.88896785582364 L 764.8,383.9718761435027 L 780,382.1576296117312"
      stroke="url(#thread-30)"
      stroke-width="7.022"
      stroke-linecap="round"
      fill="none"
      opacity="0.4545454545454546"
      class="thread"
      style="animation-delay: 3s"
    >
      <title>2025-12-25: 3511 stars, Python, TypeScript</title>
    </path>

    <path
      d="M 20,392.82586992775117 L 35.2,390.01987673277534 L 50.400000000000006,388.21207795596706 L 65.6,388.3137979972004 L 80.80000000000001,390.27375905016123 L 96,393.1039306142871 L 111.2,395.37760279503357 L 126.4,395.9486010500728 L 141.60000000000002,394.5290810414296 L 156.79999999999998,391.83463304197153 L 172,389.22354771855777 L 187.2,388.01209201190454 L 202.4,388.81096947984304 L 217.6,391.2174602298821 L 232.8,394.0184349211258 L 248,395.80190201319556 L 263.20000000000005,395.6688028839558 L 278.40000000000003,393.68623376426706 L 293.59999999999997,390.85362204416174 L 308.8,388.59890771841003 L 324,388.05870853792715 L 339.2,389.5053428051047 L 354.4,392.2095517538203 L 369.6,394.80812415230537 L 384.8,395.99110091553416 L 400,395.16213492642436 L 415.2,392.73911391796537 L 430.40000000000003,389.94350025352645 L 445.6,388.18458294121416 L 460.79999999999995,388.3490448821538 L 476,390.35397962594186 L 491.2,393.18868511015353 L 506.40000000000003,395.42416585843387 L 521.6,395.93349990496904 L 536.8000000000001,394.4599282839667 L 552,391.74628907586424 L 567.1999999999999,389.16054737419097 L 582.4,388.0061942171846 L 597.6,388.8651473556188 L 612.8000000000001,391.3044023182848 L 628,394.0943130884308 L 643.1999999999999,395.8284655280881 L 658.4,395.63266088702244 L 673.6,393.60560569679086 L 688.8,390.7691530963864 L 704,388.55317929603564 L 719.2,388.07477266843165 L 734.4,389.5751014444583 L 749.6,392.29783906887803 L 764.8,394.870433870885 L 780,395.9960222591688"
      stroke="url(#thread-31)"
      stroke-width="5.776"
      stroke-linecap="round"
      fill="none"
      opacity="0.43636363636363634"
      class="thread"
      style="animation-delay: 3.1s"
    >
      <title>2025-12-24: 2888 stars, Python, TypeScript</title>
    </path>

    <path
      d="M 20,402.84838673333974 L 35.2,400.5960340910292 L 50.400000000000006,400.0596452102726 L 65.6,401.50961759389253 L 80.80000000000001,404.215009707196 L 96,406.8120138766136 L 111.2,407.9914615727014 L 126.4,407.15878470657174 L 141.60000000000002,404.73374169107996 L 156.79999999999998,401.9388141979216 L 172,400.18294533131257 L 187.2,400.3512812489161 L 202.4,402.3589626007562 L 217.6,405.1939027394825 L 232.8,407.4269878977071 L 248,407.93250374383854 L 263.20000000000005,406.4556160944419 L 278.40000000000003,403.74083466378084 L 293.59999999999997,401.1567003480134 L 308.8,400.0058938905508 L 324,400.8685451253506 L 339.2,403.3097853441583 L 354.4,406.0989677482848 L 369.6,407.8300453743243 L 384.8,407.6303695077605 L 400,405.60059819284044 L 415.2,402.76395378659925 L 430.40000000000003,400.55040918996895 L 445.6,400.0758281965295 L 460.79999999999995,401.57945050739505 L 476,404.3032892726649 L 491.2,406.87423772849036 L 506.40000000000003,407.99626221854317 L 521.6,407.1037421061912 L 536.8000000000001,404.6466032162546 L 552,401.8635069821881 L 567.1999999999999,400.1574322851812 L 582.4,400.38842368292256 L 597.6,402.4400367460745 L 612.8000000000001,405.27803853481197 L 628,407.47177188189806 L 643.1999999999999,407.9153599875119 L 658.4,406.3851868887898 L 673.6,403.652623879255 L 688.8,401.095175677203 L 704,400.00207036368107 L 719.2,400.924350209889 L 734.4,403.3970872945647 L 749.6,406.1737570218033 L 764.8,407.85462015885025 L 780,407.5923414771995"
      stroke="url(#thread-32)"
      stroke-width="5.776"
      stroke-linecap="round"
      fill="none"
      opacity="0.4181818181818182"
      class="thread"
      style="animation-delay: 3.2s"
    >
      <title>2025-12-23: 2888 stars, Python, TypeScript</title>
    </path>
  </g>

  <!-- Date markers -->
  <g id="dates">
    <text x="785" y="24" class="date-label">01-24</text>
<text x="785" y="108" class="date-label">01-17</text>
<text x="785" y="192" class="date-label">01-10</text>
<text x="785" y="276" class="date-label">01-03</text>
<text x="785" y="360" class="date-label">12-27</text>
  </g>

</svg>