<?xml version="1.0" encoding="UTF-8"?>
<svg xmlns="http://www.w3.org/2000/svg" viewBox="0 0 800 232" width="800" height="232">
  <title>The Data Tapestry - GitHub Trends Woven in Time</title>
  <desc>A living data art piece that weaves daily GitHub trending repositories into an evolving tapestry. Each thread represents one day of open source activity.</desc>

  <style>
    .thread {
      animation: breathe 8s ease-in-out infinite alternate;
    }

    @keyframes breathe {
      0% {
        opacity: 0.85;
      }
      100% {
        opacity: 1;
      }
    }

    .date-label {
      font-family: ui-monospace, monospace;
      font-size: 8px;
      fill: #666;
    }

    .title {
      font-family: system-ui, sans-serif;
      font-size: 14px;
      fill: #333;
      font-weight: 600;
    }

    .subtitle {
      font-family: system-ui, sans-serif;
      font-size: 10px;
      fill: #888;
    }

    .empty-state {
      font-family: system-ui, sans-serif;
      font-size: 12px;
      fill: #999;
      text-anchor: middle;
    }
  </style>

  <defs>
    
    <linearGradient id="thread-0" x1="0%" y1="0%" x2="100%" y2="0%">
      <stop offset="0%" stop-color="#3178c6" />
      <stop offset="50%" stop-color="#3572A5" />
      <stop offset="100%" stop-color="#dea584" />
    </linearGradient>

    <linearGradient id="thread-1" x1="0%" y1="0%" x2="100%" y2="0%">
      <stop offset="0%" stop-color="#3572A5" />
      <stop offset="50%" stop-color="#3178c6" />
      <stop offset="100%" stop-color="#00ADD8" />
    </linearGradient>

    <linearGradient id="thread-2" x1="0%" y1="0%" x2="100%" y2="0%">
      <stop offset="0%" stop-color="#3572A5" />
      <stop offset="50%" stop-color="#00ADD8" />
      <stop offset="100%" stop-color="#3178c6" />
    </linearGradient>

    <linearGradient id="thread-3" x1="0%" y1="0%" x2="100%" y2="0%">
      <stop offset="0%" stop-color="#3572A5" />
      <stop offset="50%" stop-color="#3178c6" />
      <stop offset="100%" stop-color="#00ADD8" />
    </linearGradient>

    <linearGradient id="thread-4" x1="0%" y1="0%" x2="100%" y2="0%">
      <stop offset="0%" stop-color="#3572A5" />
      <stop offset="50%" stop-color="#00ADD8" />
      <stop offset="100%" stop-color="#DA5B0B" />
    </linearGradient>

    <linearGradient id="thread-5" x1="0%" y1="0%" x2="100%" y2="0%">
      <stop offset="0%" stop-color="#3572A5" />
      <stop offset="50%" stop-color="#3178c6" />
      <stop offset="100%" stop-color="#dea584" />
    </linearGradient>

    <linearGradient id="thread-6" x1="0%" y1="0%" x2="100%" y2="0%">
      <stop offset="0%" stop-color="#dea584" />
      <stop offset="50%" stop-color="#3572A5" />
      <stop offset="100%" stop-color="#3178c6" />
    </linearGradient>

    <linearGradient id="thread-7" x1="0%" y1="0%" x2="100%" y2="0%">
      <stop offset="0%" stop-color="#3572A5" />
      <stop offset="50%" stop-color="#3178c6" />
      <stop offset="100%" stop-color="#dea584" />
    </linearGradient>

    <linearGradient id="thread-8" x1="0%" y1="0%" x2="100%" y2="0%">
      <stop offset="0%" stop-color="#3572A5" />
      <stop offset="50%" stop-color="#dea584" />
      <stop offset="100%" stop-color="#3178c6" />
    </linearGradient>

    <linearGradient id="thread-9" x1="0%" y1="0%" x2="100%" y2="0%">
      <stop offset="0%" stop-color="#3572A5" />
      <stop offset="50%" stop-color="#3178c6" />
      <stop offset="100%" stop-color="#89e051" />
    </linearGradient>

    <linearGradient id="thread-10" x1="0%" y1="0%" x2="100%" y2="0%">
      <stop offset="0%" stop-color="#3572A5" />
      <stop offset="50%" stop-color="#f1e05a" />
      <stop offset="100%" stop-color="#89e051" />
    </linearGradient>

    <linearGradient id="thread-11" x1="0%" y1="0%" x2="100%" y2="0%">
      <stop offset="0%" stop-color="#3572A5" />
      <stop offset="50%" stop-color="#89e051" />
      <stop offset="100%" stop-color="#dea584" />
    </linearGradient>

    <linearGradient id="thread-12" x1="0%" y1="0%" x2="100%" y2="0%">
      <stop offset="0%" stop-color="#3572A5" />
      <stop offset="50%" stop-color="#89e051" />
      <stop offset="100%" stop-color="#00ADD8" />
    </linearGradient>

    <linearGradient id="thread-13" x1="0%" y1="0%" x2="100%" y2="0%">
      <stop offset="0%" stop-color="#3572A5" />
      <stop offset="50%" stop-color="#3178c6" />
      <stop offset="100%" stop-color="#3572A5" />
    </linearGradient>

    <linearGradient id="thread-14" x1="0%" y1="0%" x2="100%" y2="0%">
      <stop offset="0%" stop-color="#3572A5" />
      <stop offset="50%" stop-color="#3178c6" />
      <stop offset="100%" stop-color="#3572A5" />
    </linearGradient>

    <linearGradient id="thread-15" x1="0%" y1="0%" x2="100%" y2="0%">
      <stop offset="0%" stop-color="#3572A5" />
      <stop offset="50%" stop-color="#3178c6" />
      <stop offset="100%" stop-color="#3572A5" />
    </linearGradient>

    <!-- Background pattern -->
    <pattern id="loom" patternUnits="userSpaceOnUse" width="20" height="20">
      <rect width="20" height="20" fill="#fafafa"/>
      <circle cx="10" cy="10" r="0.5" fill="#eee"/>
    </pattern>
  </defs>

  <!-- Background -->
  <rect width="100%" height="100%" fill="url(#loom)"/>

  <!-- Threads -->
  <g id="tapestry">
    
    <path
      d="M 20,20 L 35.2,23.122664251211063 L 50.400000000000006,23.903008033704655 L 65.6,21.75569297379482 L 80.80000000000001,18.291426984015352 L 96,16.108767092645948 L 111.2,16.84493348364344 L 126.4,19.94772538635292 L 141.60000000000002,23.089728644395382 L 156.79999999999998,23.91411653801203 L 172,21.802513064521094 L 187.2,18.338838760962222 L 202.4,16.121206829883587 L 217.6,16.813070094377657 L 232.8,19.895459701052765 L 248,23.05626532121218 L 263.20000000000005,23.924556522977024 L 278.40000000000003,21.849025291432675 L 293.59999999999997,18.38653425925676 L 308.8,16.134309053338523 L 324,16.781751023162705 L 339.2,19.843211870921493 L 354.4,23.022279997096494 L 369.6,23.934326205481575 L 384.8,21.895221710381005 L 400,18.434505332651195 L 415.2,16.148071525190357 L 430.40000000000003,16.750981619201845 L 445.6,19.790990819731544 L 460.79999999999995,22.987778476639555 L 476,23.943423916893277 L 491.2,21.94109443115651 L 506.40000000000003,18.482743787830334 L 521.6,16.16249189485026 L 536.8000000000001,16.720767137816804 L 552,19.738805466681452 L 567.1999999999999,22.95276665259739 L 582.4,23.95184810335035 L 597.6,21.98663561883638 L 612.8000000000001,18.53124138581103 L 628,16.177567699362434 L 643.1999999999999,16.691112739550167 L 658.4,19.686664724872735 L 673.6,22.9172505048843 L 688.8,23.959597326027072 L 704,22.031837495122566 L 719.2,18.57998984334924 L 734.4,16.19329636382477 L 749.6,16.662023489284113 L 764.8,19.634577499787433 L 780,22.88123609955162"
      stroke="url(#thread-0)"
      stroke-width="7.128"
      stroke-linecap="round"
      fill="none"
      opacity="1"
      class="thread"
      style="animation-delay: 0s"
    >
      <title>2026-01-07: 3564 stars, TypeScript, Python, Unknown, Shell, Rust</title>
    </path>

    <path
      d="M 20,33.917702154416816 L 35.2,35.99983111334866 L 50.400000000000006,33.98188987239023 L 65.6,29.932390954375645 L 80.80000000000001,28.00231708025767 L 96,30.170111376909414 L 111.2,34.2136528238879 L 126.4,35.98806547044381 L 141.60000000000002,33.67446841678797 L 156.79999999999998,29.644439378437145 L 172,28.029003265340915 L 187.2,30.484080359990237 L 202.4,34.49306729865517 L 217.6,35.946508603549745 L 232.8,33.35453852469261 L 248,29.374084061792082 L 263.20000000000005,28.085353169352395 L 278.40000000000003,30.80937340529619 L 293.59999999999997,34.7538583263239 L 308.8,35.87547094636901 L 324,33.024490102475276 L 339.2,29.123344584072377 L 354.4,28.170945853211585 L 369.6,31.143560543197452 L 384.8,34.99407777339995 L 400,35.77548315687912 L 415.2,32.68678864287833 L 430.40000000000003,28.894093992749028 L 445.6,28.28514193152335 L 460.79999999999995,31.484145364356387 L 476,35.21193117803024 L 491.2,35.64729215326758 L 506.40000000000003,32.34395680755288 L 521.6,28.68804481129149 L 536.8000000000001,28.427088348846915 L 552,31.828583668139984 L 567.1999999999999,35.40579115480139 L 582.4,35.491855534382836 L 597.6,31.998555582539076 L 612.8000000000001,28.506736246456292 L 628,28.595724752100235 L 643.1999999999999,32.1743024680377 L 658.4,35.5742095514618 L 673.6,35.31033442638084 L 688.8,31.653165147459468 L 704,28.35152269026788 L 719.2,28.789791411497248 L 734.4,32.51871921211272 L 749.6,35.71592826675513 L 764.8,35.10408480900346 L 780,31.310365601334887"
      stroke="url(#thread-1)"
      stroke-width="8"
      stroke-linecap="round"
      fill="none"
      opacity="0.9625"
      class="thread"
      style="animation-delay: 0.1s"
    >
      <title>2026-01-06: 4224 stars, TypeScript, Python, Rust, JavaScript, Go</title>
    </path>

    <path
      d="M 20,47.36588393923159 L 35.2,47.72173731741886 L 50.400000000000006,44.98806508673554 L 65.6,41.43417043615895 L 80.80000000000001,40.01024775012228 L 96,41.898337895124165 L 111.2,45.531080695706244 L 126.4,47.89282755670588 L 141.60000000000002,47.02302167725014 L 156.79999999999998,43.64371496754435 L 172,40.56017113360015 L 187.2,40.33213226050715 L 202.4,43.14890024631749 L 217.6,46.6721916271022 L 232.8,47.97721670921447 L 248,45.98063508801754 L 263.20000000000005,42.339868962552124 L 278.40000000000003,40.07722733025574 L 293.59999999999997,41.07099677356901 L 308.8,44.49621951536466 L 324,47.50951557626182 L 339.2,47.609457651415866 L 354.4,44.71308083109312 L 369.6,41.22475425694282 L 384.8,40.04024228946947 L 400,42.14284378762119 L 415.2,45.78712627732573 L 430.40000000000003,47.94786172187968 L 445.6,46.83135891725859 L 460.79999999999995,43.36446027953202 L 476,40.42514219743745 L 491.2,40.45342064006152 L 506.40000000000003,43.42582082527569 L 521.6,46.874864339423475 L 536.8000000000001,47.93739686659014 L 552,45.731378334367825 L 567.1999999999999,42.08809079402997 L 582.4,40.03193634501317 L 597.6,41.2697903748679 L 612.8000000000001,44.77407318113091 L 628,47.63577465715041 L 643.1999999999999,47.47931070306933 L 658.4,44.43456673308288 L 673.6,41.02907590319875 L 688.8,40.08983814177245 L 704,42.39654284363673 L 719.2,46.03432535266523 L 734.4,47.98335346078054 L 749.6,46.62568056432314 L 764.8,43.088351595358155 L 780,40.30780926989017"
      stroke="url(#thread-2)"
      stroke-width="7.528"
      stroke-linecap="round"
      fill="none"
      opacity="0.925"
      class="thread"
      style="animation-delay: 0.2s"
    >
      <title>2026-01-05: 3764 stars, Go, TypeScript, Python, Rust, JavaScript</title>
    </path>

    <path
      d="M 20,59.98997994641622 L 35.2,58.45138166782215 L 50.400000000000006,54.73308097211485 L 65.6,52.14129048231171 L 80.80000000000001,52.98056035044758 L 96,56.504634461369534 L 111.2,59.580001229145275 L 126.4,59.47212752691746 L 141.60000000000002,56.27693173923442 L 156.79999999999998,52.83549572331271 L 172,52.20785150138301 L 187.2,54.95208337569221 L 202.4,58.6280944294411 L 217.6,59.96727484785941 L 232.8,57.77886154688996 L 248,54.00873256926271 L 263.20000000000005,52.00918484745149 L 278.40000000000003,53.55816224861316 L 293.59999999999997,57.278355873980665 L 308.8,59.861869958572264 L 324,59.011513506490004 L 339.2,55.483400524108994 L 354.4,52.414633852855225 L 369.6,52.533877991892965 L 384.8,55.735104271146476 L 400,59.17186868305561 L 415.2,59.78829306959269 L 430.40000000000003,57.03626950332262 L 445.6,53.362823063241244 L 460.79999999999995,52.03428317886369 L 476,54.23195165856228 L 491.2,58.00172100447508 L 506.40000000000003,59.99161405894243 L 521.6,58.4322716244336 L 536.8000000000001,54.710218907619414 L 552,52.13500472741978 L 567.1999999999999,52.99644002875878 L 582.4,56.52855979151639 L 597.6,59.59069845329729 L 612.8000000000001,59.46008496207294 L 628,56.25285730902859 L 643.1999999999999,52.82079576132435 L 658.4,52.215596817065446 L 673.6,54.97538704338392 L 688.8,58.646235456788276 L 704,59.964122722964774 L 719.2,57.75721905413509 L 734.4,53.98784362908212 L 749.6,52.00762334166872 L 764.8,53.57731662602576 L 780,57.301194579163166"
      stroke="url(#thread-3)"
      stroke-width="7.814"
      stroke-linecap="round"
      fill="none"
      opacity="0.8875"
      class="thread"
      style="animation-delay: 0.30000000000000004s"
    >
      <title>2026-01-04: 3907 stars, Python, Jupyter Notebook, TypeScript, Go, Rust</title>
    </path>

    <path
      d="M 20,71.63718970730272 L 35.2,68.65278320983641 L 50.400000000000006,65.09257148818536 L 65.6,64.09693633777619 L 80.80000000000001,66.54410488263562 L 96,70.2754854014114 L 111.2,71.99971199535332 L 126.4,70.19588359729266 L 141.60000000000002,66.45511621555386 L 156.79999999999998,64.07705568723628 L 172,65.15933512391449 L 187.2,68.74730044705727 L 202.4,71.67608904051822 L 217.6,71.36228309079368 L 232.8,68.08268368974524 L 248,64.73015088631638 L 263.20000000000005,64.2618776250818 L 278.40000000000003,67.09091710058132 L 293.59999999999997,70.72183792782926 L 308.8,71.95188741737687 L 324,69.69606688755651 L 339.2,65.94418432717852 L 354.4,64.00569001964503 L 369.6,65.59048570953352 L 384.8,69.30065915928516 L 400,71.86355074345725 L 415.2,71.01849207942514 L 430.40000000000003,67.51089019690427 L 445.6,64.43472094864657 L 460.79999999999995,64.50340327210773 L 476,67.65635405169567 L 491.2,71.11242710728875 L 506.40000000000003,71.82309899252975 L 521.6,69.16150219912977 L 536.8000000000001,65.47537073007753 L 552,64.01615732638939 L 567.1999999999999,66.07100094688535 L 582.4,69.82737076397142 L 597.6,71.97185838714982 L 612.8000000000001,70.61286005269159 L 628,66.9491172858812 L 643.1999999999999,64.21233426263818 L 658.4,64.81656504945475 L 673.6,68.22883141034136 L 688.8,71.43925078811522 L 704,71.615985259112 L 719.2,68.60314136565682 L 734.4,65.05828018984212 L 749.6,64.10824315970531 L 764.8,66.59103633434653 L 780,70.31664431663738"
      stroke="url(#thread-4)"
      stroke-width="7.78"
      stroke-linecap="round"
      fill="none"
      opacity="0.85"
      class="thread"
      style="animation-delay: 0.4s"
    >
      <title>2026-01-03: 3890 stars, Go, Python, Jupyter Notebook, TypeScript, Rust, JavaScript</title>
    </path>

    <path
      d="M 20,82.39388857641583 L 35.2,79.92241110342218 L 50.400000000000006,77.48361652749692 L 65.6,76.1048022534431 L 80.80000000000001,76.36676845993239 L 96,78.15916669583686 L 111.2,80.72698213772897 L 126.4,82.98856971164095 L 141.60000000000002,83.99127720637406 L 156.79999999999998,83.31273251347592 L 172,81.23876011727918 L 187.2,78.6429827826031 L 202.4,76.61882401698013 L 217.6,76.01892350862381 L 232.8,77.09597832413341 L 248,79.39629891223383 L 263.20000000000005,81.95091749117822 L 278.40000000000003,83.68374792303692 L 293.59999999999997,83.86486722734045 L 308.8,82.41798222502916 L 324,79.95256663832458 L 339.2,77.50713148368726 L 354.4,76.11177138768896 L 369.6,76.35425615248327 L 384.8,78.13244352630511 L 400,80.6973047502695 L 415.2,82.96843916043001 L 430.40000000000003,83.98917311623141 L 445.6,83.32954119371368 L 460.79999999999995,81.26740122018916 L 476,78.67139176983484 L 491.2,76.63503412464776 L 506.40000000000003,76.01610652671617 L 521.6,77.07532085451999 L 536.8000000000001,79.36650253442983 L 552,81.92453338185622 L 567.1999999999999,83.67188990346835 L 582.4,83.87253027038983 L 597.6,82.44193841461237 L 612.8000000000001,79.98272486974967 L 628,77.53078815609243 L 643.1999999999999,76.11896156249024 L 658.4,76.34195110065755 L 673.6,78.10582652484149 L 688.8,80.6675877219749 L 704,82.94813985745415 L 719.2,83.98684224697436 L 734.4,83.34616059402268 L 749.6,81.29597027304817 L 764.8,78.69987628665355 L 780,76.65143552608956"
      stroke="url(#thread-5)"
      stroke-width="5.26"
      stroke-linecap="round"
      fill="none"
      opacity="0.8125"
      class="thread"
      style="animation-delay: 0.5s"
    >
      <title>2026-01-02: 2630 stars, TypeScript, Rust, Python, JavaScript, Jupyter Notebook, Shell</title>
    </path>

    <path
      d="M 20,92.56448003223947 L 35.2,89.16474214442101 L 50.400000000000006,88.04280607990565 L 65.6,90.10001772804658 L 80.80000000000001,93.6836454214806 L 96,95.9146587122076 L 111.2,95.00069641112731 L 126.4,91.67602153835078 L 141.60000000000002,88.61162589527585 L 156.79999999999998,88.2693970204145 L 172,90.92427624004232 L 187.2,94.44337510621146 L 202.4,95.99950462164223 L 217.6,94.34249466844945 L 232.8,90.80356113064418 L 248,88.22582787052332 L 263.20000000000005,88.68020547857817 L 278.40000000000003,91.80165409007164 L 293.59999999999997,95.08245070386073 L 308.8,95.88685462564827 L 324,93.56862032396894 L 339.2,89.99018098415665 L 354.4,88.02639881204746 L 369.6,89.25494569501438 L 384.8,92.6888262793442 L 400,95.56931460274016 L 415.2,95.5822713913708 L 430.40000000000003,92.717287363869 L 445.6,89.27604588520164 L 460.79999999999995,88.0231865450663 L 476,89.96523694506617 L 491.2,93.54198416369861 L 506.40000000000003,95.87992541882201 L 521.6,95.10079526688354 L 536.8000000000001,91.83053468788393 L 552,88.69641989053346 L 567.1999999999999,88.21634969161828 L 582.4,90.77600498159102 L 597.6,94.31899872847333 L 612.8000000000001,95.99894516148962 L 628,94.4662015874201 L 643.1999999999999,90.95215022457057 L 658.4,88.27992498498678 L 673.6,88.5963498377915 L 688.8,91.64721400450516 L 704,94.9815009231187 L 719.2,95.92049662492235 L 734.4,93.70982664713718 L 749.6,90.12550867937547 L 764.8,88.04712772523767 L 780,89.1444225414785"
      stroke="url(#thread-6)"
      stroke-width="7.396"
      stroke-linecap="round"
      fill="none"
      opacity="0.775"
      class="thread"
      style="animation-delay: 0.6000000000000001s"
    >
      <title>2026-01-01: 3698 stars, Rust, Python, JavaScript, TypeScript, Jupyter Notebook, Go, Shell</title>
    </path>

    <path
      d="M 20,102.59686708924153 L 35.2,100.15768923202145 L 50.400000000000006,100.81310504079487 L 65.6,104.03524320766928 L 80.80000000000001,107.22899652651643 L 96,107.82211892249582 L 111.2,105.33691014682663 L 126.4,101.77495513114711 L 141.60000000000002,100.00504926856772 L 156.79999999999998,101.45267316242457 L 172,104.95191181958266 L 187.2,107.68448154615486 L 202.4,107.44957312123975 L 217.6,104.43638158077486 L 232.8,101.07172870431486 L 248,100.065502917995 L 263.20000000000005,102.22811757277465 L 278.40000000000003,105.81780475429359 L 293.59999999999997,107.94343360780556 L 308.8,106.89302455030779 L 324,103.51257609996408 L 339.2,100.52469842402927 L 354.4,100.33582553814018 L 369.6,103.09807549615684 L 384.8,106.58673464524102 L 400,107.9920400178736 L 415.2,106.18215992017434 L 430.40000000000003,102.61477016879627 L 445.6,100.1630432881348 L 460.79999999999995,100.80159792144782 L 476,104.01614273652201 L 491.2,107.21768620599732 L 506.40000000000003,107.82770807466453 L 521.6,105.35489727351083 L 536.8000000000001,101.79085341655608 L 552,100.00605424781104 L 567.1999999999999,101.43797542611587 L 582.4,104.93334891143769 L 597.6,107.67700401583932 L 612.8000000000001,107.45920336500141 L 628,104.45536340887625 L 643.1999999999999,101.08477416933094 L 658.4,100.06210521403564 L 673.6,102.21101320757869 L 688.8,105.80076956833635 L 704,107.9401877246652 L 719.2,106.90618220137088 L 734.4,103.5315401247983 L 749.6,100.53419521394507 L 764.8,100.32820638700852 L 780,103.07947686150446"
      stroke="url(#thread-7)"
      stroke-width="7.406"
      stroke-linecap="round"
      fill="none"
      opacity="0.7375"
      class="thread"
      style="animation-delay: 0.7000000000000001s"
    >
      <title>2025-12-31: 3703 stars, Go, Python, TypeScript, Rust, Shell</title>
    </path>

    <path
      d="M 20,112.9727900187683 L 35.2,112.27372012556619 L 50.400000000000006,115.54407407476032 L 65.6,119.30010363045675 L 80.80000000000001,119.54069406871335 L 96,116.00955615360327 L 111.2,112.46823853508049 L 126.4,112.68913380365007 L 141.60000000000002,116.43693302512577 L 156.79999999999998,119.71928884838435 L 172,119.03966802763723 L 187.2,115.12203740932867 L 202.4,112.13965743176061 L 217.6,113.26951173249267 L 232.8,117.30802174231144 L 248,119.95316011466225 L 263.20000000000005,118.3871902126153 L 278.40000000000003,114.27826324196386 L 293.59999999999997,112.00341829627494 L 308.8,113.98593652174645 L 324,118.11393814086505 L 339.2,119.990064769253 L 354.4,117.61577039828309 L 369.6,113.52027478669045 L 384.8,112.06630925764365 L 400,114.8027122321691 L 415.2,118.81452735285265 L 430.40000000000003,119.82816403392361 L 445.6,116.76384465669688 L 460.79999999999995,112.88583889671014 L 476,112.32519676721019 L 491.2,115.67914292948933 L 506.40000000000003,119.37488244830749 L 521.6,119.47552462956136 L 536.8000000000001,115.87386027606726 L 552,112.4065664058767 L 567.1999999999999,112.76718172802717 L 582.4,116.57156036354202 L 597.6,119.76708367662698 L 612.8000000000001,118.9497168509709 L 628,114.99016082023238 L 643.1999999999999,112.10633711562907 L 658.4,113.37024219369633 L 673.6,117.43549974335043 L 688.8,119.97158957103498 L 704,118.27693912511788 L 719.2,114.15677670600229 L 734.4,112.00010998141404 L 749.6,114.10433061412614 L 764.8,118.22791519993683 L 780,119.97821060418545"
      stroke="url(#thread-8)"
      stroke-width="8"
      stroke-linecap="round"
      fill="none"
      opacity="0.7"
      class="thread"
      style="animation-delay: 0.8s"
    >
      <title>2025-12-30: 4315 stars, Go, Shell, Rust, Python, Swift, TypeScript</title>
    </path>

    <path
      d="M 20,124.08987952933961 L 35.2,124.72476219651135 L 50.400000000000006,127.45972522095477 L 65.6,130.5411120836287 L 80.80000000000001,131.99313952489814 L 96,130.88476849032213 L 111.2,127.92668576905615 L 126.4,125.01561208516438 L 141.60000000000002,124.01812599840814 L 156.79999999999998,125.57381494125333 L 172,128.68517217162034 L 187.2,131.35719744952993 L 202.4,131.8765898982353 L 217.6,129.91031541618827 L 232.8,126.7191479271489 L 248,124.3492619572408 L 263.20000000000005,124.32022685470379 L 278.40000000000003,126.65065990847016 L 293.59999999999997,129.84628895456495 L 308.8,131.8580787193717 L 324,131.3960709093183 L 339.2,128.75650463283407 L 354.4,125.63186807598495 L 369.6,124.02567617428566 L 384.8,124.96781813430759 L 400,127.85419314178436 L 415.2,130.83405941226744 L 430.40000000000003,131.99672862405015 L 445.6,130.59669803193685 L 460.79999999999995,127.5316663443831 L 476,124.7669298933348 L 491.2,124.0752358996793 L 506.40000000000003,125.90009810393687 L 521.6,129.0714160432322 L 536.8000000000001,131.5557427098752 L 552,131.76012945503618 L 567.1999999999999,129.5535236301587 L 582.4,126.35079946029312 L 597.6,124.20554160782017 L 612.8000000000001,124.4932880176373 L 628,127.02953587822694 L 643.1999999999999,130.18804470484525 L 658.4,131.94358068455048 L 673.6,131.1704952847275 L 688.8,128.3644903627902 L 704,125.32477445641841 L 719.2,124.00041143506853 L 734.4,125.24058200985456 L 749.6,128.2500896118433 L 764.8,131.09923991677397 L 780,131.96115959534933"
      stroke="url(#thread-9)"
      stroke-width="6.556"
      stroke-linecap="round"
      fill="none"
      opacity="0.6625000000000001"
      class="thread"
      style="animation-delay: 0.9s"
    >
      <title>2025-12-29: 3278 stars, Shell, Go, JavaScript, TypeScript, Rust, Python</title>
    </path>

    <path
      d="M 20,136.16430290134744 L 35.2,138.7061070330781 L 50.400000000000006,142.33840910187428 L 65.6,143.99989104350374 L 80.80000000000001,142.29024952829556 L 96,138.65037695857205 L 111.2,136.14797184567735 L 126.4,136.8920707815682 L 141.60000000000002,140.25554433954105 L 156.79999999999998,143.40364415159945 L 172,143.68313966584319 L 187.2,140.85847099479028 L 202.4,137.31027968872647 L 217.6,136.02899493962835 L 232.8,138.0944884303979 L 248,141.76595435384007 L 263.20000000000005,143.9490671993644 L 278.40000000000003,142.80389111811235 L 293.59999999999997,139.29558488759315 L 308.8,136.38096240569564 L 324,136.5164786382392 L 339.2,139.58791998656793 L 354.4,143.00666394495926 L 369.6,143.8913800407312 L 384.8,141.49642616747124 L 400,137.84027860175283 L 415.2,136.00435248373856 L 430.40000000000003,137.53597336158575 L 445.6,141.14428530643633 L 460.79999999999995,143.78818922219642 L 476,143.239392785124 L 491.2,139.96042372958038 L 506.40000000000003,136.71480970598503 L 521.6,136.23796661636698 L 536.8000000000001,138.93177963888706 L 552,142.52589286390088 L 567.1999999999999,143.99117393065268 L 582.4,142.0926783565897 L 597.6,138.43046546653292 L 612.8000000000001,136.09106227917567 L 628,137.04612674072854 L 643.1999999999999,140.49072687326628 L 658.4,143.52174052172836 L 673.6,143.58461780033207 L 688.8,140.626365498388 L 704,137.1402099607798 L 719.2,136.06429639676324 L 734.4,138.3054088696384 L 749.6,141.97472922297297 L 764.8,143.97974024086233 L 780,142.63061097538542"
      stroke="url(#thread-10)"
      stroke-width="7.59"
      stroke-linecap="round"
      fill="none"
      opacity="0.625"
      class="thread"
      style="animation-delay: 1s"
    >
      <title>2025-12-28: 3795 stars, Shell, Rust, Python, JavaScript, TypeScript</title>
    </path>

    <path
      d="M 20,149.17783869771844 L 35.2,154.15839847516736 L 50.400000000000006,155.75430977345445 L 65.6,151.46297688989983 L 80.80000000000001,148.01376582666126 L 96,150.8154864554161 L 111.2,155.47467780301568 L 126.4,154.68512413116625 L 141.60000000000002,149.68494790214143 L 156.79999999999998,148.31507333073333 L 172,152.72364124362565 L 187.2,155.9974459221683 L 202.4,153.0027374338132 L 217.6,148.43560672157224 L 232.8,149.45790651892696 L 248,154.46653828120486 L 263.20000000000005,155.60731842186448 L 278.40000000000003,151.09135586608133 L 293.59999999999997,148.00026504800115 L 308.8,151.1812768921894 L 324,155.6461526538088 L 339.2,154.39338861143 L 354.4,149.3874811078598 L 369.6,148.47834173899574 L 384.8,153.09161883510419 L 400,155.99309615347545 L 415.2,152.6328813058718 L 430.40000000000003,148.28022656635113 L 445.6,149.76065855288095 L 460.79999999999995,154.75266808661408 L 476,155.4281373891588 L 491.2,150.72784307156175 L 506.40000000000003,148.02245565490657 L 521.6,151.55437315358935 L 536.8000000000001,155.78509128863774 L 552,154.0802958375847 L 567.1999999999999,149.11332696309012 L 582.4,148.6730354452671 L 597.6,153.44985543394148 L 612.8000000000001,155.95311424012198 L 628,152.257377701041 L 643.1999999999999,148.1580395775348 L 658.4,150.083393210674 L 673.6,155.0142346299091 L 688.8,155.21836558611545 L 704,150.37568229010742 L 719.2,148.08013963087973 L 734.4,151.93144593838002 L 749.6,155.89025389725379 L 764.8,153.74863967348472 L 780,148.86493186525684"
      stroke="url(#thread-11)"
      stroke-width="8"
      stroke-linecap="round"
      fill="none"
      opacity="0.5875"
      class="thread"
      style="animation-delay: 1.1s"
    >
      <title>2025-12-27: 5384 stars, Shell, Python, Rust, C, Go</title>
    </path>

    <path
      d="M 20,162.88233800720428 L 35.2,166.49212746784755 L 50.400000000000006,167.99336293726586 L 65.6,166.11587020420814 L 80.80000000000001,162.44816945749275 L 96,160.09345070159608 L 111.2,161.04400834963113 L 126.4,164.49558894806776 L 141.60000000000002,167.52785870950385 L 156.79999999999998,167.57525684684646 L 172,164.59768046288838 L 187.2,161.1144150474664 L 202.4,160.072602465891 L 217.6,162.35370568718383 L 232.8,166.0277153664347 L 248,167.98610360010323 L 263.20000000000005,166.57190565434445 L 278.40000000000003,162.9816545160875 L 293.59999999999997,160.25301116565538 L 308.8,160.6946423552156 L 324,163.9328901481615 L 339.2,167.22791864264465 L 354.4,167.7918505840384 L 369.6,165.1475510901403 L 384.8,161.5323247626562 L 400,160.00496373816253 L 415.2,161.85774669252456 L 430.40000000000003,165.52306003306046 L 445.6,167.89973370607623 L 460.79999999999995,166.97689755194682 L 476,163.5353502581955 L 491.2,160.4869365742791 L 506.40000000000003,160.41087643298786 L 521.6,163.3715232498521 L 536.8000000000001,166.86391540358747 L 552,167.93318902399173 L 567.1999999999999,165.67464674341286 L 582.4,161.9992094122109 L 597.6,160.01661285015777 L 612.8000000000001,161.40430411718123 L 628,164.98817715433336 L 643.1999999999999,167.7359674029086 L 658.4,167.32280818957975 L 673.6,164.09826771240859 L 688.8,160.7905843062015 L 704,160.1983423683651 L 719.2,162.82262947082614 L 734.4,166.44307321473872 L 749.6,167.99646708088508 L 764.8,166.16850637230837 L 780,162.50580292873153"
      stroke="url(#thread-12)"
      stroke-width="7.606"
      stroke-linecap="round"
      fill="none"
      opacity="0.55"
      class="thread"
      style="animation-delay: 1.2000000000000002s"
    >
      <title>2025-12-26: 3803 stars, Python, Shell, Go, TypeScript</title>
    </path>

    <path
      d="M 20,176.86047995235126 L 35.2,179.56342265316644 L 50.400000000000006,179.66714354031845 L 65.6,177.09598681356752 L 80.80000000000001,173.72539844185565 L 96,172.01394359506187 L 111.2,173.20998689446765 L 126.4,176.4411137722589 L 141.60000000000002,179.35048467250877 L 156.79999999999998,179.8159543870853 L 172,177.49800129492792 L 187.2,174.08738027599165 L 202.4,172.0718570020471 L 217.6,172.9215888384933 L 232.8,176.01676675900205 L 248,179.09971471692023 L 263.20000000000005,179.9216774107995 L 278.40000000000003,177.8831011048376 L 293.59999999999997,174.4709584427552 L 308.8,172.17412500902284 L 324,172.66795064124767 L 339.2,175.59223042399978 L 354.4,178.8139443536517 L 369.6,179.98311884065666 L 384.8,178.2469378914077 L 400,174.87180177188068 L 415.2,172.31959285748272 L 430.40000000000003,172.4519362567128 L 445.6,175.17229841639633 L 460.79999999999995,178.49640035681966 L 476,179.99958491116865 L 491.2,178.58540339403297 L 506.40000000000003,175.28538414363882 L 521.6,172.5066179982035 L 536.8000000000001,172.27598480984503 L 552,174.76171239560423 L 567.1999999999999,178.15066827230845 L 582.4,179.97088969581213 L 597.6,178.89467583178862 L 612.8000000000001,175.7070355954871 L 628,172.73308863807856 L 643.1999999999999,172.14208305521194 L 658.4,174.36510849088964 L 673.6,177.7806519316028 L 688.8,179.89735720641647 L 704,179.17126305704357 L 719.2,176.13199505291973 L 734.4,172.99644758541547 L 749.6,172.0517429435669 L 764.8,173.98696495254973 L 780,177.39052937170155"
      stroke="url(#thread-13)"
      stroke-width="7.022"
      stroke-linecap="round"
      fill="none"
      opacity="0.5125"
      class="thread"
      style="animation-delay: 1.3s"
    >
      <title>2025-12-25: 3511 stars, Python, TypeScript</title>
    </path>

    <path
      d="M 20,190.62794639487515 L 35.2,191.9672010677189 L 50.400000000000006,191.30656107385545 L 65.6,188.9790597982301 L 80.80000000000001,186.1580074180741 L 96,184.26551678153197 L 111.2,184.25560606570357 L 126.4,186.13327133390663 L 141.60000000000002,188.95196798413042 L 156.79999999999998,191.29077070867697 L 172,191.97067218841636 L 187.2,190.64892918447384 L 202.4,187.99184187655322 L 217.6,185.33886713749237 L 232.8,184.0273886645102 L 248,184.71853221323332 L 263.20000000000005,187.06388733674297 L 278.40000000000003,189.8811436043409 L 293.59999999999997,191.75010181559784 L 308.8,191.72860665869834 L 324,189.82749399724233 L 339.2,187.00512843326433 L 354.4,184.6842848003432 L 369.6,184.0349171100131 L 384.8,185.3843762977208 L 400,188.0523902556582 L 415.2,190.69399390791915 L 430.40000000000003,191.97753580414036 L 445.6,191.25597321849796 L 460.79999999999995,188.89305105378094 L 476,186.07993541284048 L 491.2,184.2347381763487 L 506.40000000000003,184.28763657739572 L 521.6,186.21196415055022 L 536.8000000000001,189.03765348938202 L 552,191.34025422143984 L 567.1999999999999,191.95900871306884 L 582.4,190.58199836304686 L 597.6,187.90338401878287 L 612.8000000000001,185.2734744873722 L 628,184.01802612852842 L 643.1999999999999,184.76991951329387 L 658.4,187.15011976431882 L 673.6,189.95875077084762 L 688.8,191.7799613887549 L 704,191.69566621235248 L 719.2,189.7483590479382 L 734.4,186.9196914796079 L 749.6,184.63561522677972 L 764.8,184.04754959954428 L 780,185.45194272127796"
      stroke="url(#thread-14)"
      stroke-width="5.776"
      stroke-linecap="round"
      fill="none"
      opacity="0.47500000000000003"
      class="thread"
      style="animation-delay: 1.4000000000000001s"
    >
      <title>2025-12-24: 2888 stars, Python, TypeScript</title>
    </path>

    <path
      d="M 20,203.75199990709896 L 35.2,203.72662423904643 L 50.400000000000006,201.82263041847963 L 65.6,198.9998354605176 L 80.80000000000001,196.68123065934302 L 96,196.03564141526184 L 111.2,197.38851392171938 L 126.4,200.05785539231152 L 141.60000000000002,202.69803154242985 L 156.79999999999998,203.97811053583519 L 172,203.25279532098503 L 187.2,200.8877225281131 L 202.4,198.07514240723222 L 217.6,196.2328968794907 L 232.8,196.28967520031213 L 248,198.21685500872786 L 263.20000000000005,201.04293106594434 L 278.40000000000003,203.34325805198387 L 293.59999999999997,203.95822454495595 L 308.8,202.5778215010776 L 324,199.8979200491963 L 339.2,197.26947783663897 L 354.4,196.01751153710399 L 369.6,196.77314639042615 L 384.8,199.15546141797557 L 400,201.96351443490056 L 415.2,203.78174566580293 L 430.40000000000003,203.69357163546883 L 445.6,201.74344150843444 L 460.79999999999995,198.91442994460945 L 476,196.63266207402154 L 491.2,196.04839353462768 L 506.40000000000003,197.45615831044157 L 521.6,200.1462920262347 L 536.8000000000001,202.76267887665492 L 552,203.9863793829913 L 567.1999999999999,203.2005172955921 L 582.4,200.80125135976152 L 597.6,197.99806883545307 L 612.8000000000001,196.20407424761447 L 628,196.32363320491476 L 643.1999999999999,198.2964751748096 L 658.4,201.12807629362263 L 673.6,203.39100601798276 L 688.8,203.944505155293 L 704,202.50955079901578 L 719.2,199.80951378796195 L 734.4,197.2055022500398 L 749.6,196.01021717968842 L 764.8,196.8262104003688 L 780,199.24213384520667"
      stroke="url(#thread-15)"
      stroke-width="5.776"
      stroke-linecap="round"
      fill="none"
      opacity="0.4375"
      class="thread"
      style="animation-delay: 1.5s"
    >
      <title>2025-12-23: 2888 stars, Python, TypeScript</title>
    </path>
  </g>

  <!-- Date markers -->
  <g id="dates">
    <text x="785" y="24" class="date-label">01-07</text>
<text x="785" y="108" class="date-label">12-31</text>
<text x="785" y="192" class="date-label">12-24</text>
  </g>

</svg>