<?xml version="1.0" encoding="UTF-8"?>
<svg xmlns="http://www.w3.org/2000/svg" viewBox="0 0 800 376" width="800" height="376">
  <title>The Data Tapestry - GitHub Trends Woven in Time</title>
  <desc>A living data art piece that weaves daily GitHub trending repositories into an evolving tapestry. Each thread represents one day of open source activity.</desc>

  <style>
    .thread {
      animation: breathe 8s ease-in-out infinite alternate;
    }

    @keyframes breathe {
      0% {
        opacity: 0.85;
      }
      100% {
        opacity: 1;
      }
    }

    .date-label {
      font-family: ui-monospace, monospace;
      font-size: 8px;
      fill: #666;
    }

    .title {
      font-family: system-ui, sans-serif;
      font-size: 14px;
      fill: #333;
      font-weight: 600;
    }

    .subtitle {
      font-family: system-ui, sans-serif;
      font-size: 10px;
      fill: #888;
    }

    .empty-state {
      font-family: system-ui, sans-serif;
      font-size: 12px;
      fill: #999;
      text-anchor: middle;
    }
  </style>

  <defs>
    
    <linearGradient id="thread-0" x1="0%" y1="0%" x2="100%" y2="0%">
      <stop offset="0%" stop-color="#3178c6" />
      <stop offset="50%" stop-color="#f1e05a" />
      <stop offset="100%" stop-color="#89e051" />
    </linearGradient>

    <linearGradient id="thread-1" x1="0%" y1="0%" x2="100%" y2="0%">
      <stop offset="0%" stop-color="#3178c6" />
      <stop offset="50%" stop-color="#3572A5" />
      <stop offset="100%" stop-color="#f1e05a" />
    </linearGradient>

    <linearGradient id="thread-2" x1="0%" y1="0%" x2="100%" y2="0%">
      <stop offset="0%" stop-color="#3178c6" />
      <stop offset="50%" stop-color="#3572A5" />
      <stop offset="100%" stop-color="#f1e05a" />
    </linearGradient>

    <linearGradient id="thread-3" x1="0%" y1="0%" x2="100%" y2="0%">
      <stop offset="0%" stop-color="#3178c6" />
      <stop offset="50%" stop-color="#f1e05a" />
      <stop offset="100%" stop-color="#3572A5" />
    </linearGradient>

    <linearGradient id="thread-4" x1="0%" y1="0%" x2="100%" y2="0%">
      <stop offset="0%" stop-color="#3572A5" />
      <stop offset="50%" stop-color="#3178c6" />
      <stop offset="100%" stop-color="#89e051" />
    </linearGradient>

    <linearGradient id="thread-5" x1="0%" y1="0%" x2="100%" y2="0%">
      <stop offset="0%" stop-color="#3178c6" />
      <stop offset="50%" stop-color="#89e051" />
      <stop offset="100%" stop-color="#3572A5" />
    </linearGradient>

    <linearGradient id="thread-6" x1="0%" y1="0%" x2="100%" y2="0%">
      <stop offset="0%" stop-color="#3572A5" />
      <stop offset="50%" stop-color="#3178c6" />
      <stop offset="100%" stop-color="#89e051" />
    </linearGradient>

    <linearGradient id="thread-7" x1="0%" y1="0%" x2="100%" y2="0%">
      <stop offset="0%" stop-color="#3178c6" />
      <stop offset="50%" stop-color="#3572A5" />
      <stop offset="100%" stop-color="#8b8b8b" />
    </linearGradient>

    <linearGradient id="thread-8" x1="0%" y1="0%" x2="100%" y2="0%">
      <stop offset="0%" stop-color="#3178c6" />
      <stop offset="50%" stop-color="#89e051" />
      <stop offset="100%" stop-color="#3572A5" />
    </linearGradient>

    <linearGradient id="thread-9" x1="0%" y1="0%" x2="100%" y2="0%">
      <stop offset="0%" stop-color="#3572A5" />
      <stop offset="50%" stop-color="#3178c6" />
      <stop offset="100%" stop-color="#89e051" />
    </linearGradient>

    <linearGradient id="thread-10" x1="0%" y1="0%" x2="100%" y2="0%">
      <stop offset="0%" stop-color="#3572A5" />
      <stop offset="50%" stop-color="#3178c6" />
      <stop offset="100%" stop-color="#8b8b8b" />
    </linearGradient>

    <linearGradient id="thread-11" x1="0%" y1="0%" x2="100%" y2="0%">
      <stop offset="0%" stop-color="#3572A5" />
      <stop offset="50%" stop-color="#3178c6" />
      <stop offset="100%" stop-color="#8b8b8b" />
    </linearGradient>

    <linearGradient id="thread-12" x1="0%" y1="0%" x2="100%" y2="0%">
      <stop offset="0%" stop-color="#3178c6" />
      <stop offset="50%" stop-color="#3572A5" />
      <stop offset="100%" stop-color="#dea584" />
    </linearGradient>

    <linearGradient id="thread-13" x1="0%" y1="0%" x2="100%" y2="0%">
      <stop offset="0%" stop-color="#3572A5" />
      <stop offset="50%" stop-color="#3178c6" />
      <stop offset="100%" stop-color="#00ADD8" />
    </linearGradient>

    <linearGradient id="thread-14" x1="0%" y1="0%" x2="100%" y2="0%">
      <stop offset="0%" stop-color="#3572A5" />
      <stop offset="50%" stop-color="#00ADD8" />
      <stop offset="100%" stop-color="#3178c6" />
    </linearGradient>

    <linearGradient id="thread-15" x1="0%" y1="0%" x2="100%" y2="0%">
      <stop offset="0%" stop-color="#3572A5" />
      <stop offset="50%" stop-color="#3178c6" />
      <stop offset="100%" stop-color="#00ADD8" />
    </linearGradient>

    <linearGradient id="thread-16" x1="0%" y1="0%" x2="100%" y2="0%">
      <stop offset="0%" stop-color="#3572A5" />
      <stop offset="50%" stop-color="#00ADD8" />
      <stop offset="100%" stop-color="#DA5B0B" />
    </linearGradient>

    <linearGradient id="thread-17" x1="0%" y1="0%" x2="100%" y2="0%">
      <stop offset="0%" stop-color="#3572A5" />
      <stop offset="50%" stop-color="#3178c6" />
      <stop offset="100%" stop-color="#dea584" />
    </linearGradient>

    <linearGradient id="thread-18" x1="0%" y1="0%" x2="100%" y2="0%">
      <stop offset="0%" stop-color="#dea584" />
      <stop offset="50%" stop-color="#3572A5" />
      <stop offset="100%" stop-color="#3178c6" />
    </linearGradient>

    <linearGradient id="thread-19" x1="0%" y1="0%" x2="100%" y2="0%">
      <stop offset="0%" stop-color="#3572A5" />
      <stop offset="50%" stop-color="#3178c6" />
      <stop offset="100%" stop-color="#dea584" />
    </linearGradient>

    <linearGradient id="thread-20" x1="0%" y1="0%" x2="100%" y2="0%">
      <stop offset="0%" stop-color="#3572A5" />
      <stop offset="50%" stop-color="#dea584" />
      <stop offset="100%" stop-color="#3178c6" />
    </linearGradient>

    <linearGradient id="thread-21" x1="0%" y1="0%" x2="100%" y2="0%">
      <stop offset="0%" stop-color="#3572A5" />
      <stop offset="50%" stop-color="#3178c6" />
      <stop offset="100%" stop-color="#89e051" />
    </linearGradient>

    <linearGradient id="thread-22" x1="0%" y1="0%" x2="100%" y2="0%">
      <stop offset="0%" stop-color="#3572A5" />
      <stop offset="50%" stop-color="#f1e05a" />
      <stop offset="100%" stop-color="#89e051" />
    </linearGradient>

    <linearGradient id="thread-23" x1="0%" y1="0%" x2="100%" y2="0%">
      <stop offset="0%" stop-color="#3572A5" />
      <stop offset="50%" stop-color="#89e051" />
      <stop offset="100%" stop-color="#dea584" />
    </linearGradient>

    <linearGradient id="thread-24" x1="0%" y1="0%" x2="100%" y2="0%">
      <stop offset="0%" stop-color="#3572A5" />
      <stop offset="50%" stop-color="#89e051" />
      <stop offset="100%" stop-color="#00ADD8" />
    </linearGradient>

    <linearGradient id="thread-25" x1="0%" y1="0%" x2="100%" y2="0%">
      <stop offset="0%" stop-color="#3572A5" />
      <stop offset="50%" stop-color="#3178c6" />
      <stop offset="100%" stop-color="#3572A5" />
    </linearGradient>

    <linearGradient id="thread-26" x1="0%" y1="0%" x2="100%" y2="0%">
      <stop offset="0%" stop-color="#3572A5" />
      <stop offset="50%" stop-color="#3178c6" />
      <stop offset="100%" stop-color="#3572A5" />
    </linearGradient>

    <linearGradient id="thread-27" x1="0%" y1="0%" x2="100%" y2="0%">
      <stop offset="0%" stop-color="#3572A5" />
      <stop offset="50%" stop-color="#3178c6" />
      <stop offset="100%" stop-color="#3572A5" />
    </linearGradient>

    <!-- Background pattern -->
    <pattern id="loom" patternUnits="userSpaceOnUse" width="20" height="20">
      <rect width="20" height="20" fill="#fafafa"/>
      <circle cx="10" cy="10" r="0.5" fill="#eee"/>
    </pattern>
  </defs>

  <!-- Background -->
  <rect width="100%" height="100%" fill="url(#loom)"/>

  <!-- Threads -->
  <g id="tapestry">
    
    <path
      d="M 20,20 L 35.2,23.640840343531003 L 50.400000000000006,23.01568499786738 L 65.6,18.85703244084448 L 80.80000000000001,16.037602211686128 L 96,17.860938566307084 L 111.2,22.190626750189114 L 126.4,23.953543696890797 L 141.60000000000002,21.084068454809557 L 156.79999999999998,16.94438333845398 L 172,16.384983616690736 L 187.2,20.06132148637839 L 202.4,23.665808582106663 L 217.6,22.975044545368867 L 232.8,18.79840197285409 L 248,16.02967941887489 L 263.20000000000005,17.91300663518966 L 278.40000000000003,22.241677194691018 L 293.59999999999997,23.943760387869332 L 308.8,21.02491455740621 L 324,16.90516984889799 L 339.2,16.41165722904721 L 354.4,20.122628560116205 L 369.6,23.689915230648683 L 384.8,22.933704855942818 L 400,18.74005392137878 L 415.2,16.02268978680198 L 430.40000000000003,17.965565218686702 L 445.6,22.29220076860316 L 460.79999999999995,23.93305016066075 L 476,20.9655197701287 L 491.2,16.866683749971997 L 506.40000000000003,16.43917422432988 L 521.6,20.183906811960348 L 536.8000000000001,23.713154623272533 L 552,22.891675645826034 L 567.1999999999999,18.682002000200484 L 582.4,16.01663495826932 L 597.6,18.018601963738668 L 612.8000000000001,22.34218559716262 L 628,23.92141553253368 L 643.1999999999999,20.90589805277765 L 658.4,16.828934087221782 L 673.6,16.46752813510636 L 688.8,20.24514183943178 L 704,23.735521297928383 L 719.2,22.848966793316293 L 734.4,18.624259853500494 L 749.6,16.0115163563681 L 764.8,18.07210440490175 L 780,22.39161993223008"
      stroke="url(#thread-0)"
      stroke-width="8"
      stroke-linecap="round"
      fill="none"
      opacity="1"
      class="thread"
      style="animation-delay: 0s"
    >
      <title>2026-01-19: 4551 stars, JavaScript, TypeScript, Shell, Python</title>
    </path>

    <path
      d="M 20,33.917702154416816 L 35.2,35.96121099269465 L 50.400000000000006,34.80957194139316 L 65.6,31.39170726471618 L 80.80000000000001,28.46449689879744 L 96,28.389054664705483 L 111.2,31.22623293700168 L 126.4,34.68753857916648 L 141.60000000000002,35.981051787344974 L 156.79999999999998,34.063413345156974 L 172,30.481407413515136 L 187.2,28.124311719370453 L 202.4,28.893380537380907 L 217.6,32.16827614371933 L 232.8,35.307438721329184 L 248,35.77879191694519 L 263.20000000000005,33.20213806601568 L 278.40000000000003,29.655828998109175 L 293.59999999999997,28.000349033554578 L 308.8,29.571022982048333 L 324,33.10093131797005 L 339.2,35.74281869674731 L 354.4,35.36571534717282 L 369.6,32.27379617277184 L 384.8,28.961030579126813 L 400,28.099524650646398 L 415.2,30.384176703608322 L 430.40000000000003,33.97216614630292 L 445.6,35.96938889874024 L 460.79999999999995,34.764867390112116 L 476,31.330179343327945 L 491.2,28.435774573932775 L 506.40000000000003,28.416305618127467 L 521.6,31.287476308191703 L 536.8000000000001,34.73337492220522 L 552,35.97450910175171 L 567.1999999999999,34.00976901911022 L 582.4,30.42393143578154 L 597.6,28.109364722922027 L 612.8000000000001,28.933018902008005 L 628,32.23052721325239 L 643.1999999999999,35.342090231435506 L 658.4,35.75789365250344 L 673.6,33.14254675231771 L 688.8,29.60561151686123 L 704,28.00001125014107 L 719.2,29.620837355563953 L 734.4,33.160717133299435 L 749.6,35.76435218544474 L 764.8,35.331627406432666 L 780,32.21158243767055"
      stroke="url(#thread-1)"
      stroke-width="7.412"
      stroke-linecap="round"
      fill="none"
      opacity="0.9785714285714285"
      class="thread"
      style="animation-delay: 0.1s"
    >
      <title>2026-01-18: 3706 stars, JavaScript, Shell, Vue, TypeScript, Python, HTML</title>
    </path>

    <path
      d="M 20,47.36588393923159 L 35.2,46.17219487420815 L 50.400000000000006,40.648310270549274 L 65.6,41.80590350558959 L 80.80000000000001,47.3373524035087 L 96,46.21590442734061 L 111.2,40.677127426394904 L 126.4,41.762382258193526 L 141.60000000000002,47.30825085802437 L 156.79999999999998,46.25923551065589 L 172,40.706512118890544 L 187.2,41.71924318918349 L 202.4,47.27858427323511 L 217.6,46.30218072333518 L 232.8,40.736459329219 L 248,41.676493666582836 L 263.20000000000005,47.24835771610447 L 278.40000000000003,46.344732730465196 L 293.59999999999997,40.76696394248678 L 308.8,41.63414099188156 L 324,47.21757634923754 L 339.2,46.38688426429103 L 354.4,40.79802074859759 L 369.6,41.592192398789244 L 384.8,47.18624542999929 L 400,46.42862812545732 L 415.2,40.82962444314226 L 430.40000000000003,41.55065505199951 L 445.6,47.15437030961662 L 460.79999999999995,46.469957184238076 L 476,40.86176962830476 L 491.2,41.50953604596635 L 506.40000000000003,47.12195643226424 L 521.6,46.51086438175419 L 536.8000000000001,40.89445081378402 L 552,41.46884240369246 L 567.1999999999999,47.089009334135014 L 582.4,46.551342731179346 L 597.6,40.92766241773185 L 612.8000000000001,41.42858107552963 L 628,47.055534642494294 L 643.1999999999999,46.59138531893307 L 658.4,40.961398767706015 L 673.6,41.388758937991724 L 688.8,47.02153807471883 L 704,46.63098530586165 L 719.2,40.99565410163936 L 734.4,41.34938279258019 L 749.6,46.987025437320206 L 764.8,46.67013592840636 L 780,41.03042256882379"
      stroke="url(#thread-2)"
      stroke-width="8"
      stroke-linecap="round"
      fill="none"
      opacity="0.9571428571428572"
      class="thread"
      style="animation-delay: 0.2s"
    >
      <title>2026-01-17: 6237 stars, JavaScript, TypeScript, Shell, Python</title>
    </path>

    <path
      d="M 20,59.98997994641622 L 35.2,56.79951923941702 L 50.400000000000006,52.21800595455999 L 65.6,54.21663772060679 L 80.80000000000001,59.318072488384004 L 96,58.64652136547613 L 111.2,53.37039015705865 L 126.4,52.66941533068285 L 141.60000000000002,57.763195854291666 L 156.79999999999998,59.78926015862715 L 172,55.222537382972234 L 187.2,52.0084917216206 L 202.4,55.73911681544572 L 217.6,59.92364246413254 L 232.8,57.28157446098453 L 248,52.40974465877187 L 263.20000000000005,53.78446115758989 L 278.40000000000003,59.01390793197449 L 293.59999999999997,58.999572954144725 L 308.8,53.76639709716599 L 324,52.419380475284015 L 339.2,57.302145170254526 L 354.4,59.91935788532715 L 369.6,55.717431521386246 L 384.8,52.007135116073535 L 400,55.243869771419114 L 415.2,59.79616614411702 L 430.40000000000003,57.74365997997906 L 445.6,52.65742730811377 L 460.79999999999995,53.38680748268343 L 476,58.66278016990179 L 491.2,59.30588470711604 L 506.40000000000003,54.19720840252372 L 521.6,52.22513941814849 L 536.8000000000001,56.82080424749277 L 552,59.98838353730204 L 567.1999999999999,56.21672868798646 L 582.4,52.06799598330977 L 597.6,54.76040487211435 L 612.8000000000001,59.609537343209055 L 628,58.17857550437038 L 643.1999999999999,52.95719447108922 L 658.4,53.029873000399355 L 673.6,58.27016053230491 L 688.8,59.56068362462489 L 704,54.656111101006665 L 719.2,52.089718855154274 L 734.4,56.32667341888303 L 749.6,59.99526154556868 L 764.8,56.71264875277177 L 780,52.190125979355514"
      stroke="url(#thread-3)"
      stroke-width="8"
      stroke-linecap="round"
      fill="none"
      opacity="0.9357142857142857"
      class="thread"
      style="animation-delay: 0.30000000000000004s"
    >
      <title>2026-01-16: 5731 stars, JavaScript, TypeScript, Shell, Python, C</title>
    </path>

    <path
      d="M 20,71.63718970730272 L 35.2,68.79416313323573 L 50.400000000000006,65.29737363680998 L 65.6,64.02541281260422 L 80.80000000000001,66.02537135364834 L 96,69.65086366777555 L 111.2,71.91734873176331 L 126.4,70.95903369159444 L 141.60000000000002,67.56481293808322 L 156.79999999999998,64.52884246523188 L 172,64.35036310337121 L 187.2,67.17630082313315 L 202.4,70.68031582761982 L 217.6,71.97786841276749 L 232.8,70.00080049558379 L 248,66.37665388095391 L 263.20000000000005,64.0888617990045 L 278.40000000000003,65.0207572510429 L 293.59999999999997,68.40519471172193 L 308.8,71.45607189016988 L 324,71.66187660901686 L 339.2,68.8531883943101 L 354.4,65.34214708029221 L 369.6,64.01907649831804 L 384.8,65.97314139799522 L 400,69.59573628527798 L 415.2,71.90470532729304 L 430.40000000000003,70.99928244038541 L 445.6,67.62482067324608 L 460.79999999999995,64.55921022745665 L 476,64.3260918513442 L 491.2,67.11737089085682 L 506.40000000000003,70.63523891643996 L 521.6,71.9837522804615 L 536.8000000000001,70.05280148424634 L 552,66.43196426394695 L 567.1999999999999,64.10194952364387 L 582.4,64.98084837335009 L 597.6,68.3451426133469 L 612.8000000000001,71.42531205065632 L 628,71.68573083156878 L 643.1999999999999,68.91201964770119 L 658.4,65.38752489660806 L 673.6,64.01364541170612 L 688.8,65.92137233250932 L 704,69.54024604611017 L 719.2,71.89117402650409 L 734.4,71.03884917821418 L 749.6,67.68491372095245 L 764.8,64.59036039560358 L 780,64.30265601434776"
      stroke="url(#thread-4)"
      stroke-width="7.494"
      stroke-linecap="round"
      fill="none"
      opacity="0.9142857142857144"
      class="thread"
      style="animation-delay: 0.4s"
    >
      <title>2026-01-15: 3747 stars, TypeScript, Shell, Python, JavaScript, C</title>
    </path>

    <path
      d="M 20,82.39388857641583 L 35.2,78.57417971063951 L 50.400000000000006,76.07994180394668 L 65.6,77.22986812717676 L 80.80000000000001,80.95496425101726 L 96,83.79230657367289 L 111.2,83.10424512079429 L 126.4,79.5304155327639 L 141.60000000000002,76.39312102478718 L 156.79999999999998,76.60885310104969 L 172,79.97706292369121 L 187.2,83.36659550962938 L 202.4,83.62647381003622 L 217.6,80.5151097772064 L 232.8,76.92488942880733 L 248,76.19335315756827 L 263.20000000000005,79.00055166151826 L 278.40000000000003,82.73685726097462 L 293.59999999999997,83.92892580219296 L 308.8,81.46858661008031 L 324,77.64302003476539 L 339.2,76.00854901221561 L 354.4,78.08461038171518 L 369.6,81.94125611609654 L 384.8,83.9932714736839 L 400,82.33306207924554 L 415.2,78.50399167556604 L 430.40000000000003,76.06564042729548 L 445.6,77.28474825372425 L 460.79999999999995,81.02800822130638 L 476,83.81561125707995 L 491.2,83.0561460191373 L 506.40000000000003,79.45562652960872 L 521.6,76.36116746809017 L 536.8000000000001,76.64943965398429 L 552,80.05245951771681 L 567.1999999999999,83.40671196820661 L 582.4,83.59401707370856 L 597.6,80.44025227496088 L 612.8000000000001,76.87722018671991 L 628,76.21718645318141 L 643.1999999999999,79.0737315882074 L 658.4,82.79135430033683 L 673.6,83.91407842025397 L 688.8,81.39819722901447 L 704,77.58252402614572 L 719.2,76.01418467140384 L 734.4,78.15113868760533 L 749.6,82.00683102955422 L 764.8,83.99693324818203 L 780,82.27140665622763"
      stroke="url(#thread-5)"
      stroke-width="8"
      stroke-linecap="round"
      fill="none"
      opacity="0.8928571428571428"
      class="thread"
      style="animation-delay: 0.5s"
    >
      <title>2026-01-14: 4003 stars, TypeScript, Shell, Python, C, HTML, Jupyter Notebook</title>
    </path>

    <path
      d="M 20,92.56448003223947 L 35.2,88.38687031370065 L 50.400000000000006,89.287286338656 L 65.6,94.00025021077761 L 80.80000000000001,95.90198865075546 L 96,92.31972830306381 L 111.2,88.28811000399881 L 126.4,89.47331883078716 L 141.60000000000002,94.20961857787019 L 156.79999999999998,95.8404388664453 L 172,92.07376470469002 L 187.2,88.20341890590562 L 202.4,89.66892822634908 L 217.6,94.4106118068579 L 232.8,95.7643326305322 L 248,91.82752151526135 L 263.20000000000005,88.13311802488778 L 278.40000000000003,89.87337310520759 L 293.59999999999997,94.60246807121209 L 308.8,95.6739584091989 L 324,91.58193207265771 L 339.2,88.07747382303668 L 354.4,90.08587855801301 L 369.6,94.78446017632714 L 384.8,95.5696587487076 L 400,91.33792723685622 L 415.2,88.03669720909463 L 430.40000000000003,90.30563912334628 L 445.6,94.95589831581314 L 460.79999999999995,95.45182897704373 L 476,91.096431861684 L 491.2,88.01094273904545 L 506.40000000000003,90.53182184066702 L 521.6,95.11613268607546 L 536.8000000000001,95.32091570550045 L 552,90.85836128933579 L 567.1999999999999,88.00030803029952 L 582.4,90.7635694074917 L 597.6,95.26455594927145 L 612.8000000000001,95.17741513588383 L 628,90.62461788094403 L 643.1999999999999,88.00483339169357 L 658.4,91.00000342883521 L 673.6,95.40060553530891 L 688.8,95.02187117975427 L 704,90.39608759635082 L 719.2,88.02450167070765 L 734.4,91.24022774659997 L 749.6,95.52376577416058 L 764.8,94.85487339683354 L 780,90.17363663604603"
      stroke="url(#thread-6)"
      stroke-width="8"
      stroke-linecap="round"
      fill="none"
      opacity="0.8714285714285714"
      class="thread"
      style="animation-delay: 0.6000000000000001s"
    >
      <title>2026-01-13: 5049 stars, TypeScript, Shell, C, Rust, Python</title>
    </path>

    <path
      d="M 20,102.59686708924153 L 35.2,100.1684848371852 L 50.400000000000006,100.7675151976982 L 65.6,103.92064357024617 L 80.80000000000001,107.1364742018526 L 96,107.87406811660074 L 111.2,105.55062685863838 L 126.4,102.00198170358851 L 141.60000000000002,100.03203989007956 L 156.79999999999998,101.19732055970964 L 172,104.57709516345491 L 187.2,107.50088692431548 L 202.4,107.65850687598883 L 217.6,104.92541404462744 L 232.8,101.4611195785332 L 248,100.00288232039406 L 263.20000000000005,101.70290594938474 L 278.40000000000003,105.21794301446519 L 293.59999999999997,107.7706411909599 L 308.8,107.34402538488924 L 324,104.27517949573877 L 339.2,100.98890477211438 L 354.4,100.08180050278392 L 369.6,102.2706011359204 L 384.8,105.82585960904917 L 400,107.93844327225875 L 415.2,106.93912672637049 L 430.40000000000003,103.61750452769269 L 445.6,100.59810522724379 L 460.79999999999995,100.26666061418015 L 476,102.88505653765496 L 491.2,106.38440784216637 L 506.40000000000003,107.99975606483156 L 521.6,106.45475872097262 L 536.8000000000001,102.97017163339791 L 552,100.29928754668578 L 567.1999999999999,100.55246432899683 L 582.4,103.52965825052496 L 597.6,106.87848545133589 L 612.8000000000001,107.95292176755756 L 628,105.90401791492235 L 643.1999999999999,102.3506836724152 L 658.4,100.1005312887992 L 673.6,100.93148396596445 L 688.8,104.18697726180385 L 704,107.29473335797293 L 719.2,107.79920670590087 L 734.4,105.30179547019782 L 749.6,101.77579062126544 L 764.8,100.00721050903417 L 780,101.39347143243224"
      stroke="url(#thread-7)"
      stroke-width="7.33"
      stroke-linecap="round"
      fill="none"
      opacity="0.85"
      class="thread"
      style="animation-delay: 0.7000000000000001s"
    >
      <title>2026-01-12: 3665 stars, TypeScript, Unknown, Python, Shell, C</title>
    </path>

    <path
      d="M 20,112.9727900187683 L 35.2,112.0554852461949 L 50.400000000000006,113.9954985141739 L 65.6,117.3875277119298 L 80.80000000000001,119.77446294743372 L 96,119.42726185788135 L 111.2,116.59742912732045 L 126.4,113.3348321329683 L 141.60000000000002,112.00282298094179 L 156.79999999999998,113.56627923358108 L 172,116.89266823855641 L 187.2,119.5724283876516 L 202.4,119.66440151661418 L 217.6,117.10196435311961 L 232.8,113.7412889213623 L 248,112.01677314832125 L 263.20000000000005,113.17761759149828 L 278.40000000000003,116.38293256565007 L 293.59999999999997,119.31085977566903 L 308.8,119.84047440297232 L 324,117.58813548698949 L 339.2,114.18538683469141 L 354.4,112.09710327061703 L 369.6,112.83599058339671 L 384.8,115.8668153715825 L 400,118.99411611822035 L 415.2,119.95254628531556 L 430.40000000000003,118.04784055052168 L 445.6,114.65972503926903 L 460.79999999999995,112.2424746568394 L 476,112.54709137871926 L 491.2,115.35291768194168 L 506.40000000000003,118.6274759069618 L 521.6,119.99874950037128 L 536.8000000000001,118.47341861891123 L 552,115.15639875090709 L 567.1999999999999,112.45046471183551 L 582.4,112.31573444495571 L 597.6,114.84980353456423 L 612.8000000000001,118.21704915309788 L 628,119.97831407759887 L 643.1999999999999,118.85777748926706 L 658.4,115.66713096711126 L 673.6,112.71760730852104 L 688.8,112.14577531517124 L 704,114.36585726096442 L 719.2,117.7696755648432 L 734.4,119.8915805706481 L 749.6,119.19451187124645 L 764.8,116.1834104022459 L 780,113.03945055043499"
      stroke="url(#thread-8)"
      stroke-width="6.996"
      stroke-linecap="round"
      fill="none"
      opacity="0.8285714285714285"
      class="thread"
      style="animation-delay: 0.8s"
    >
      <title>2026-01-11: 3498 stars, TypeScript, Unknown, Shell, Python</title>
    </path>

    <path
      d="M 20,124.08987952933961 L 35.2,125.09580352776206 L 50.400000000000006,128.629640869398 L 65.6,131.61541695884281 L 80.80000000000001,131.45420872442875 L 96,128.28633740499305 L 111.2,124.86922807646862 L 126.4,124.17725122286745 L 141.60000000000002,126.81272749919168 L 156.79999999999998,130.48164694147053 L 172,131.990454808497 L 187.2,130.02583239891527 L 202.4,126.29785520211908 L 217.6,124.05148387730058 L 232.8,125.24203794230388 L 248,128.83321784387604 L 263.20000000000005,131.69913603348326 L 278.40000000000003,131.34519791281878 L 293.59999999999997,128.07948349866263 L 308.8,124.74458389033823 L 324,124.24331137990251 L 339.2,127.01199094737312 L 354.4,130.6406678639303 L 369.6,131.97081587859108 L 384.8,129.84462802242172 L 400,126.11281195351916 L 415.2,124.02366981851053 L 430.40000000000003,125.39566339484169 L 445.6,129.03456188526286 L 460.79999999999995,131.77294182635848 L 476,131.22722233506607 L 491.2,127.87241658521089 L 506.40000000000003,124.62866386489458 L 521.6,124.31943905336796 L 536.8000000000001,127.21390215222985 L 552,130.79261208406106 L 567.1999999999999,131.94053559451868 L 582.4,129.65848024369234 L 597.6,125.93282616338507 L 612.8000000000001,124.00651189161829 L 628,125.55626818589118 L 643.1999999999999,129.23313341345215 L 658.4,131.83663654598033 L 673.6,131.10059815287252 L 688.8,127.66569158141805 L 704,124.52177865318315 L 719.2,124.40543022938854 L 734.4,127.41792001371915 L 749.6,130.93707240789826 L 764.8,131.8996951041438 L 780,129.46788791850435"
      stroke="url(#thread-9)"
      stroke-width="7.724"
      stroke-linecap="round"
      fill="none"
      opacity="0.8071428571428572"
      class="thread"
      style="animation-delay: 0.9s"
    >
      <title>2026-01-10: 3862 stars, TypeScript, Unknown, Shell, Python</title>
    </path>

    <path
      d="M 20,136.16430290134744 L 35.2,138.81698757304534 L 50.400000000000006,142.5235536018123 L 65.6,143.98202313225195 L 80.80000000000001,141.8931250722251 L 96,138.117744964538 L 111.2,136.01916338062392 L 126.4,137.46689238745995 L 141.60000000000002,141.17122904057217 L 156.79999999999998,143.8321815139473 L 172,143.07925213584417 L 187.2,139.58318469279695 L 202.4,136.4584353116682 L 217.6,136.48867307593656 L 232.8,139.646960807838 L 248,143.11975193332765 L 263.20000000000005,143.81332592947757 L 278.40000000000003,141.10981548768143 L 293.59999999999997,137.41763085649845 L 308.8,136.0259382872733 L 324,138.1745209133527 L 339.2,141.9493234618123 L 354.4,143.98757987728692 L 369.6,142.47351850070385 L 384.8,138.7559341729987 L 400,136.14662035215414 L 415.2,136.97007264605614 L 430.40000000000003,140.49272224240323 L 445.6,143.57643242133543 L 460.79999999999995,143.4740936900585 L 476,140.2768740520029 L 491.2,136.83300239659428 L 506.40000000000003,136.21043646550802 L 521.6,138.96378634851905 L 536.8000000000001,142.64024255260856 L 552,143.9646504257288 L 567.1999999999999,141.75716710669374 L 582.4,137.984319288685 L 597.6,136.0071316641427 L 612.8000000000001,137.58697303144598 L 628,141.31644873759586 L 643.1999999999999,143.87317194302955 L 658.4,142.97949715561256 L 673.6,139.43155058355887 L 688.8,136.39000464498477 L 704,136.56440700675955 L 719.2,139.79939210085078 L 734.4,143.21308784935025 L 749.6,143.76441858299336 L 764.8,140.96223377070632 L 780,137.30284728497605"
      stroke="url(#thread-10)"
      stroke-width="7.822"
      stroke-linecap="round"
      fill="none"
      opacity="0.7857142857142857"
      class="thread"
      style="animation-delay: 1s"
    >
      <title>2026-01-09: 3911 stars, TypeScript, Unknown, Python, Shell</title>
    </path>

    <path
      d="M 20,149.17783869771844 L 35.2,152.65432231479312 L 50.400000000000006,155.58603193530283 L 65.6,155.532092274048 L 80.80000000000001,152.5374122760101 L 96,149.0952949419894 L 111.2,148.0715695037048 L 126.4,150.3185666639168 L 141.60000000000002,153.96548728347966 L 156.79999999999998,155.9759875358762 L 172,154.67617027159648 L 187.2,151.14823401857805 L 202.4,148.32945890426242 L 217.6,148.56669349200502 L 232.8,151.6624216165061 L 248,155.03920988670626 L 263.20000000000005,155.88562057547816 L 278.40000000000003,153.496951239954 L 293.59999999999997,149.86195407605604 L 308.8,148.00704571013017 L 324,149.47658099745405 L 339.2,153.04705801325866 L 354.4,155.7457781508057 L 369.6,155.3258479117331 L 384.8,152.1368917386833 L 400,148.8339625925387 L 415.2,148.16700476013764 L 430.40000000000003,150.6913122849246 L 445.6,154.30520367484772 L 460.79999999999995,155.99983449478685 L 476,154.36429335809257 L 491.2,150.76029491431814 L 506.40000000000003,148.18844695482355 L 521.6,148.79001206499743 L 536.8000000000001,152.06414070653983 L 552,155.2848672429511 L 567.1999999999999,155.7706874256128 L 582.4,153.11711833145011 L 597.6,149.53346171879517 L 612.8000000000001,148.00338922936746 L 628,149.80080469657554 L 643.1999999999999,153.4292205554671 L 658.4,155.86769962575812 L 673.6,155.08601925015995 L 688.8,151.73498887322847 L 704,148.6046007813017 L 719.2,148.30114547232415 L 734.4,151.07727299003278 L 749.6,154.62164219779783 L 764.8,155.98329126081393 L 780,154.02854189055623"
      stroke="url(#thread-11)"
      stroke-width="7.54"
      stroke-linecap="round"
      fill="none"
      opacity="0.7642857142857143"
      class="thread"
      style="animation-delay: 1.1s"
    >
      <title>2026-01-08: 3770 stars, TypeScript, Unknown, Python, Rust, JavaScript</title>
    </path>

    <path
      d="M 20,162.88233800720428 L 35.2,166.299808358882 L 50.400000000000006,167.9921850854453 L 65.6,166.690010977118 L 80.80000000000001,163.37005100842018 L 96,160.5226177984519 L 111.2,160.28358012927254 L 126.4,162.83224092308907 L 141.60000000000002,166.2568415453128 L 156.79999999999998,167.98857808706805 L 172,166.72846941498256 L 187.2,163.42172708495428 L 202.4,160.54874912293042 L 217.6,160.26456551140518 L 232.8,162.78234328871497 L 248,166.2134892699897 L 263.20000000000005,167.98428985153961 L 278.40000000000003,166.76646183847032 L 293.59999999999997,163.47350192876448 L 308.8,160.57546991068736 L 324,160.2461888945231 L 339.2,162.73265362644796 L 354.4,166.16975893735102 L 369.6,167.97932111127773 L 384.8,166.80398175858963 L 400,163.5253666968631 L 415.2,160.60277559789253 L 430.40000000000003,160.22845341729726 L 445.6,162.68318042313308 L 460.79999999999995,166.12565801640622 L 476,167.97367271492828 L 491.2,166.8410227670508 L 506.40000000000003,163.57731253090353 L 521.6,160.63066152081655 L 536.8000000000001,160.21136210889387 L 552,162.63393212864472 L 567.1999999999999,166.08119403946 L 582.4,167.96734562722042 L 597.6,166.8775785373609 L 612.8000000000001,163.6293305586935 L 628,160.65912291662767 L 643.1999999999999,160.19491788845704 L 658.4,162.58491715444362 L 673.6,166.03637460082604 L 688.8,167.9603409288017 L 704,166.91364282590422 L 719.2,163.68141189571014 L 734.4,160.68815492420492 L 749.6,160.17912356461022 L 764.8,162.5361438721401 L 780,165.99120735552978"
      stroke="url(#thread-12)"
      stroke-width="7.128"
      stroke-linecap="round"
      fill="none"
      opacity="0.7428571428571429"
      class="thread"
      style="animation-delay: 1.2000000000000002s"
    >
      <title>2026-01-07: 3564 stars, TypeScript, Python, Unknown, Shell, Rust</title>
    </path>

    <path
      d="M 20,176.86047995235126 L 35.2,179.83024855817203 L 50.400000000000006,178.8737793988222 L 65.6,174.9715115444107 L 80.80000000000001,172.12350691966904 L 96,173.24914350835337 L 111.2,177.19457533487525 L 126.4,179.91549477743663 L 141.60000000000002,178.62279389457538 L 156.79999999999998,174.64156972588975 L 172,172.05281922113474 L 187.2,173.51016912071805 L 202.4,177.51974712734363 L 217.6,179.9714918826113 L 232.8,178.35221587336267 L 248,174.3217755092248 L 263.20000000000005,172.01161733409987 L 278.40000000000003,173.78979400382434 L 293.59999999999997,177.83356626589668 L 308.8,179.99782157005598 L 324,178.06406657844002 L 339.2,174.01451778727878 L 354.4,172.00020904053412 L 369.6,174.08592933350735 L 384.8,178.13368849206668 L 400,179.99428715453013 L 415.2,177.76049851212989 L 430.40000000000003,173.7220918041204 L 445.6,172.01867956146287 L 460.79999999999995,174.39636295101417 L 476,178.4178718646092 L 491.2,179.96091503845008 L 506.40000000000003,177.44377935642663 L 521.6,173.44668200933538 L 536.8000000000001,172.06689092035842 L 552,174.71877588803767 L 567.1999999999999,178.68399350701472 L 582.4,179.89795451466026 L 597.6,177.11627503319866 L 612.8000000000001,173.1903457399825 L 628,172.14448297383728 L 643.1999999999999,175.0507596896276 L 658.4,178.93006546559593 L 673.6,179.80587590419242 L 688.8,176.78043203052974 L 704,172.95499785209242 L 719.2,172.2508761019655 L 734.4,175.38983440557575 L 749.6,179.1542495596886 L 764.8,179.68536704292325 L 780,176.43875912722297"
      stroke="url(#thread-13)"
      stroke-width="8"
      stroke-linecap="round"
      fill="none"
      opacity="0.7214285714285714"
      class="thread"
      style="animation-delay: 1.3s"
    >
      <title>2026-01-06: 4224 stars, TypeScript, Python, Rust, JavaScript, Go</title>
    </path>

    <path
      d="M 20,190.62794639487515 L 35.2,191.9830785172514 L 50.400000000000006,190.0317378739127 L 65.6,186.39379077326524 L 80.80000000000001,184.08920605581866 L 96,185.03108851514313 L 111.2,188.437553313475 L 126.4,191.4807920020811 L 141.60000000000002,191.634521004109 L 156.79999999999998,188.7711252709714 L 172,185.2675953561002 L 187.2,184.03231636845456 L 202.4,186.09073039084055 L 217.6,189.73408629618226 L 232.8,191.93792523320602 L 248,190.87277449788894 L 263.20000000000005,187.42284761563693 L 278.40000000000003,184.45203221268378 L 293.59999999999997,184.42649112746878 L 308.8,187.3674267797545 L 324,190.83348040699437 L 339.2,191.94737708896292 L 354.4,189.78443783005483 L 369.6,186.14018328659157 L 384.8,184.03981829626474 L 400,185.2269187410203 L 415.2,188.71603698939634 L 430.40000000000003,191.61075148840385 L 445.6,191.50807303910193 L 460.79999999999995,188.49323809735563 L 476,185.0689514390901 L 491.2,184.0778159727133 L 506.40000000000003,186.34260293221297 L 521.6,189.98324483478703 L 536.8000000000001,191.97753580414036 L 552,190.66995517993 L 567.1999999999999,187.14596479882383 L 582.4,184.33093461556973 L 597.6,184.56170549214957 L 612.8000000000001,187.6467076125965 L 628,191.024988324521 L 643.1999999999999,191.89213563339712 L 658.4,189.52830458807878 L 673.6,185.89578213326072 L 688.8,184.0100339484878 L 704,185.43647607789333 L 719.2,188.9909761895838 L 734.4,191.7228372877225 L 749.6,191.36425965869878 L 764.8,188.2129093313459 L 780,184.88481659165723"
      stroke="url(#thread-14)"
      stroke-width="7.528"
      stroke-linecap="round"
      fill="none"
      opacity="0.7"
      class="thread"
      style="animation-delay: 1.4000000000000001s"
    >
      <title>2026-01-05: 3764 stars, Go, TypeScript, Python, Rust, JavaScript</title>
    </path>

    <path
      d="M 20,203.75199990709896 L 35.2,203.23692349590956 L 50.400000000000006,199.84366207556454 L 65.6,196.58941211812285 L 80.80000000000001,196.36776485469954 L 96,199.37580304975026 L 111.2,202.93886032611067 L 126.4,203.88876231928228 L 141.60000000000002,201.38088181445187 L 156.79999999999998,197.64515846971702 L 172,196.00329665737934 L 187.2,197.91519558770656 L 202.4,201.68084633331986 L 217.6,203.95193388478634 L 232.8,202.70906848718255 L 248,199.0573725075653 L 263.20000000000005,196.2438354530422 L 278.40000000000003,196.77017853613663 L 293.59999999999997,200.16839169317254 L 308.8,203.41687550147097 L 324,203.6271658341088 L 339.2,200.61227820296534 L 354.4,197.05296931891473 L 369.6,196.11408057718137 L 384.8,198.6304465066433 L 400,202.36458243863922 L 415.2,203.99619548543117 L 430.40000000000003,202.07449936246425 L 445.6,198.30821439638976 L 460.79999999999995,196.04621952835728 L 476,197.29981954458907 L 491.2,200.95434714486774 L 506.40000000000003,203.76029502141807 L 521.6,203.2226900539408 L 536.8000000000001,199.819556069751 L 552,196.5768679582215 L 567.1999999999999,196.37793646913227 L 582.4,199.39964611349174 L 597.6,202.95517423039772 L 612.8000000000001,203.88304118072935 L 628,201.35821271504872 L 643.1999999999999,197.62569816082208 L 658.4,196.0043487204352 L 673.6,197.93582455663875 L 688.8,201.70270948572238 L 704,203.95559109562154 L 719.2,202.69126786328255 L 734.4,199.03394188326953 L 749.6,196.2356087070903 L 764.8,196.78447066899207 L 780,200.19249452603984"
      stroke="url(#thread-15)"
      stroke-width="7.814"
      stroke-linecap="round"
      fill="none"
      opacity="0.6785714285714286"
      class="thread"
      style="animation-delay: 1.5s"
    >
      <title>2026-01-04: 3907 stars, Python, Jupyter Notebook, TypeScript, Go, Rust</title>
    </path>

    <path
      d="M 20,215.95743298649353 L 35.2,213.72946132319927 L 50.400000000000006,209.97597115710352 L 65.6,208.00783080405282 L 80.80000000000001,209.56109211118246 L 96,213.26565860282878 L 111.2,215.85381642378363 L 126.4,215.04261041854622 L 141.60000000000002,211.54758695636644 L 156.79999999999998,208.45162675146437 L 172,208.4856058940774 L 187.2,211.61955215524029 L 202.4,215.0890828083445 L 217.6,215.83380376631305 L 232.8,213.19681360812805 L 248,209.5041413834447 L 263.20000000000005,208.01300928507555 L 278.40000000000003,210.03871102654256 L 293.59999999999997,213.79442116901564 L 308.8,215.96731320597124 L 324,214.640728486244 L 339.2,210.98481722269554 L 354.4,208.2243756003175 L 369.6,208.79432639786916 L 384.8,212.19192897831613 L 400,215.42023537172642 L 415.2,215.63162992471874 L 430.40000000000003,212.6396463095092 L 445.6,209.0834452311419 L 460.79999999999995,208.09987078781054 L 476,210.55651162810602 L 491.2,214.28642073428531 L 506.40000000000003,215.99953010718758 L 521.6,214.18474492750187 L 536.8000000000001,210.4428459314514 L 552,208.0744771273853 L 567.1999999999999,209.1687227773195 L 582.4,212.76037367813817 L 597.6,215.6813162494423 L 612.8000000000001,215.35505347544313 L 628,212.06937432940913 L 643.1999999999999,208.72250166507357 L 658.4,208.26663574703645 L 673.6,211.1038855345637 L 688.8,214.73157751314398 L 704,215.94980708730975 L 719.2,213.6840016539501 L 734.4,209.9327766582166 L 749.6,208.00500236069237 L 764.8,209.60112462891396 L 780,213.31324030815725"
      stroke="url(#thread-16)"
      stroke-width="7.78"
      stroke-linecap="round"
      fill="none"
      opacity="0.6571428571428573"
      class="thread"
      style="animation-delay: 1.6s"
    >
      <title>2026-01-03: 3890 stars, Go, Python, Jupyter Notebook, TypeScript, Rust, JavaScript</title>
    </path>

    <path
      d="M 20,227.19394845049396 L 35.2,225.0429531584959 L 50.400000000000006,222.4526330116574 L 65.6,220.5141127774045 L 80.80000000000001,220.04395848612972 L 96,221.24021399443805 L 111.2,223.59897864940135 L 126.4,226.12666617995544 L 141.60000000000002,227.75853465747522 L 156.79999999999998,227.8071894696859 L 172,226.25213567092513 L 187.2,223.74841110143 L 202.4,221.35066373277402 L 217.6,220.06890058789764 L 232.8,220.44304084051973 L 248,222.31548478366 L 263.20000000000005,224.89749981047416 L 278.40000000000003,227.10145953274858 L 293.59999999999997,227.9989864129352 L 308.8,227.21201374387533 L 324,225.0720393026088 L 339.2,222.48048800272187 L 354.4,220.52900321224095 L 369.6,220.03961204265954 L 384.8,221.2184615321117 L 400,223.56898299329495 L 415.2,226.101062449065 L 430.40000000000003,227.74810795299646 L 445.6,227.8163318493007 L 460.79999999999995,226.27699607520242 L 476,223.77851754185198 L 491.2,221.37333442448735 L 506.40000000000003,220.07458591856837 L 521.6,220.42934596906485 L 536.8000000000001,222.2881784230509 L 552,224.86808426339152 L 567.1999999999999,227.082325557921 L 582.4,227.998193845692 L 597.6,227.22989643860507 L 612.8000000000001,225.10106450273247 L 628,222.50842937599506 L 643.1999999999999,220.54409096856602 L 658.4,220.03549074190624 L 673.6,221.1968671964978 L 688.8,223.53901183992443 L 704,226.0753392756065 L 719.2,227.73746817363292 L 734.4,227.82525727559414 L 749.6,226.30172703532216 L 764.8,223.80863657325315 L 780,221.396154438598"
      stroke="url(#thread-17)"
      stroke-width="5.26"
      stroke-linecap="round"
      fill="none"
      opacity="0.6357142857142858"
      class="thread"
      style="animation-delay: 1.7000000000000002s"
    >
      <title>2026-01-02: 2630 stars, TypeScript, Rust, Python, JavaScript, Jupyter Notebook, Shell</title>
    </path>

    <path
      d="M 20,237.64847394096702 L 35.2,234.06606279367878 L 50.400000000000006,232.03734655496615 L 65.6,233.19216412587 L 80.80000000000001,236.60275312900677 L 96,239.52909969417564 L 111.2,239.62022275323767 L 126.4,236.80291546552826 L 141.60000000000002,233.3405584488357 L 156.79999999999998,232.0147551859015 L 172,233.89063528520558 L 187.2,237.46114601005067 L 202.4,239.8577948798774 L 217.6,239.15515167155218 L 232.8,235.91770895068254 L 248,232.74637757196405 L 263.20000000000005,232.18895557165962 L 278.40000000000003,234.69326706782763 L 293.59999999999997,238.24738736696415 L 308.8,239.9959918002099 L 324,238.53427891063723 L 339.2,235.03656597540763 L 354.4,232.31286086931797 L 369.6,232.55134568119774 L 384.8,235.56042544261717 L 400,238.9226525293545 L 415.2,239.93686627855868 L 430.40000000000003,237.7882632244319 L 445.6,234.20299746072413 L 460.79999999999995,232.06141543547724 L 476,233.08403065763426 L 491.2,236.44929004940957 L 506.40000000000003,239.45359684150392 L 521.6,239.68333793861146 L 536.8000000000001,236.95394293601586 L 552,233.4581650964207 L 567.1999999999999,232.00445766905122 L 582.4,233.76070646792462 L 597.6,237.3159686723108 L 612.8000000000001,239.81400222453016 L 628,239.24792603307233 L 643.1999999999999,236.0725168578338 L 658.4,232.83884877303294 L 673.6,232.1448001497755 L 688.8,234.54795879842808 L 704,238.11766464134854 L 719.2,239.98607182752897 L 734.4,238.65213124181392 L 749.6,235.18750989055374 L 764.8,232.37563038747177 L 780,232.47551275306657"
      stroke="url(#thread-18)"
      stroke-width="7.396"
      stroke-linecap="round"
      fill="none"
      opacity="0.6142857142857143"
      class="thread"
      style="animation-delay: 1.8s"
    >
      <title>2026-01-01: 3698 stars, Rust, Python, JavaScript, TypeScript, Jupyter Notebook, Go, Shell</title>
    </path>

    <path
      d="M 20,247.69939551815276 L 35.2,244.6214504636858 L 50.400000000000006,244.26458619280774 L 65.6,246.9162208710356 L 80.80000000000001,250.4407302932274 L 96,251.99947771387406 L 111.2,250.337049350463 L 126.4,246.79236352434756 L 141.60000000000002,244.2203070387638 L 156.79999999999998,244.6924118934652 L 172,247.8284452594939 L 187.2,251.10264866053532 L 202.4,251.87798159729434 L 217.6,249.52999161393984 L 232.8,245.94974774915025 L 248,244.02077521879946 L 263.20000000000005,245.2966667785925 L 278.40000000000003,248.74982050410014 L 293.59999999999997,251.59906946428833 L 308.8,251.54963108755487 L 324,248.64132299843217 L 339.2,245.216493938298 L 354.4,244.03349817795421 L 369.6,246.04511944779728 L 384.8,249.6311997710404 L 400,251.90351325337613 L 415.2,251.03194064255896 L 430.40000000000003,247.7184457420808 L 445.6,244.63171438984335 L 460.79999999999995,244.25779726422076 L 476,246.89784688473372 L 491.2,250.42556964139243 L 506.40000000000003,251.99974077197373 L 521.6,250.35252425173843 L 536.8000000000001,246.81058679711188 L 552,244.226601675384 L 567.1999999999999,244.68170819922082 L 582.4,247.80936398018395 L 597.6,251.0905578414995 L 612.8000000000001,251.88261917340165 L 628,249.5476224855292 L 643.1999999999999,245.96617202796665 L 658.4,244.02276480533118 L 673.6,245.28261926162122 L 688.8,248.73104974126707 L 704,251.59069341123967 L 719.2,251.5583958099463 L 734.4,248.66016939666594 L 749.6,245.23024314004365 L 764.8,244.03107658838724 L 780,246.02847741299533"
      stroke="url(#thread-19)"
      stroke-width="7.406"
      stroke-linecap="round"
      fill="none"
      opacity="0.5928571428571429"
      class="thread"
      style="animation-delay: 1.9000000000000001s"
    >
      <title>2025-12-31: 3703 stars, Go, Python, TypeScript, Rust, Shell</title>
    </path>

    <path
      d="M 20,257.8239155564425 L 35.2,256.0157972543473 L 50.400000000000006,258.4518554243528 L 65.6,262.53707635108333 L 80.80000000000001,263.91967383101763 L 96,261.12683433800527 L 111.2,257.1336332944831 L 126.4,256.1938326195144 L 141.60000000000002,259.30855604293913 L 156.79999999999998,263.1598409221121 L 172,263.6451016922353 L 187.2,260.2474137701817 L 202.4,256.58616805016595 L 217.6,256.56151066818114 L 232.8,260.19970792821937 L 248,263.62516609229533 L 263.20000000000005,263.18891198453343 L 278.40000000000003,259.3556657856626 L 293.59999999999997,256.2087973359272 L 308.8,257.1005118035346 L 324,261.08090934531526 L 339.2,263.9098669868884 L 354.4,262.57383440729336 L 369.6,258.4960218200325 L 384.8,256.0203236866447 L 400,257.78398023824343 L 415.2,261.9082543424554 L 430.40000000000003,263.9997583543646 L 445.6,261.83051526443387 L 460.79999999999995,257.7113137228133 L 476,256.0301378213925 L 491.2,258.57786208684007 L 506.40000000000003,262.64052036956423 L 521.6,263.8903613480396 L 536.8000000000001,260.9959905091481 L 552,257.0406396561309 L 567.1999999999999,256.23775074989135 L 582.4,259.4426021040872 L 597.6,263.24122219608455 L 612.8000000000001,263.5871266850713 L 628,260.1118404237038 L 643.1999999999999,256.51741602474243 L 658.4,256.63281813650036 L 673.6,260.3351145291637 L 688.8,263.68042979136436 L 704,263.10516306391327 L 719.2,259.222117877578 L 734.4,256.16771250021174 L 749.6,257.1956557078099 L 764.8,261.21092983815544 L 780,263.9362595915307"
      stroke="url(#thread-20)"
      stroke-width="8"
      stroke-linecap="round"
      fill="none"
      opacity="0.5714285714285714"
      class="thread"
      style="animation-delay: 2s"
    >
      <title>2025-12-30: 4315 stars, Go, Shell, Rust, Python, Swift, TypeScript</title>
    </path>

    <path
      d="M 20,268.48121696011333 L 35.2,268.2136029007235 L 50.400000000000006,270.3738242078378 L 65.6,273.57674837913896 L 80.80000000000001,275.7686625114552 L 96,275.54411268348656 L 111.2,273.04708009942004 L 126.4,269.8786604341041 L 141.60000000000002,268.0704423238313 L 156.79999999999998,268.78185404919907 L 172,271.55673887289015 L 187.2,274.6158424440548 L 202.4,275.9976695351344 L 217.6,274.8161935107404 L 232.8,271.82897603212825 L 248,268.95141901089346 L 263.20000000000005,268.02861014442016 L 278.40000000000003,269.65225387991904 L 293.59999999999997,272.781270906295 L 308.8,275.40933753381125 L 324,275.8513391438685 L 339.2,273.82386459051105 L 354.4,270.6269292435661 L 369.6,268.31040597590885 L 384.8,268.3596480056744 L 400,270.74308137528556 L 415.2,273.9324501525914 L 430.40000000000003,275.8827331442663 L 445.6,275.34341015981454 L 460.79999999999995,272.66029474739 L 476,269.5537987708042 L 491.2,268.01580543726186 L 506.40000000000003,269.0324750756243 L 521.6,271.9519197725664 L 536.8000000000001,274.90219348018337 L 552,275.99158260890255 L 567.1999999999999,274.5215715553038 L 582.4,271.43473045440044 L 597.6,268.7103398198458 L 612.8000000000001,268.0952771611352 L 628,269.98392025647877 L 643.1999999999999,273.1652723769662 L 658.4,275.59945260442913 L 673.6,275.72566615434573 L 688.8,273.4629849802946 L 704,270.26223878488 L 719.2,268.17574395454636 L 734.4,268.54135962247335 L 749.6,271.12465325930197 L 764.8,274.26921865904916 L 780,275.95876252504775"
      stroke="url(#thread-21)"
      stroke-width="6.556"
      stroke-linecap="round"
      fill="none"
      opacity="0.55"
      class="thread"
      style="animation-delay: 2.1s"
    >
      <title>2025-12-29: 3278 stars, Shell, Go, JavaScript, TypeScript, Rust, Python</title>
    </path>

    <path
      d="M 20,280.0000391737972 L 35.2,281.70006893261615 L 50.400000000000006,285.33848938409153 L 65.6,287.84882586768794 L 80.80000000000001,287.1153572019119 L 96,283.7562535811912 L 111.2,280.60258037370664 L 126.4,280.31226541032214 L 141.60000000000002,283.1299872516014 L 156.79999999999998,286.68095916193886 L 172,287.9724084454502 L 187.2,285.9158967107867 L 202.4,282.2446599067739 L 217.6,280.0528304412717 L 232.8,281.187690563766 L 248,284.69277582621055 L 263.20000000000005,287.61398697491853 L 278.40000000000003,287.48931609050453 L 293.59999999999997,284.42383627077584 L 308.8,281.00114562236934 L 324,280.10590090339383 L 339.2,282.49261778413234 L 354.4,286.1497621567858 L 369.6,287.9950787684975 L 384.8,286.4733277271366 L 400,282.86704662565353 L 415.2,280.2156229575912 L 430.40000000000003,280.75368672266836 L 445.6,284.0277557234956 L 460.79999999999995,287.2784320944937 L 476,287.76603336789714 L 491.2,285.07960732713894 L 506.40000000000003,281.4832841054056 L 521.6,280.00805865713346 L 536.8000000000001,281.89725662762265 L 552,285.55865474787436 L 567.1999999999999,287.90641269030067 L 582.4,286.96183108919143 L 597.6,283.52100692763037 L 612.8000000000001,280.4838799579092 L 628,280.41015239632947 L 643.1999999999999,283.3619621135366 L 658.4,286.85151259968325 L 673.6,287.9377973699118 L 688.8,285.7052914686937 L 704,282.03555940097914 L 719.2,280.02146537712554 L 734.4,281.3604955371908 L 749.6,284.9241101452388 L 764.8,287.7088811914413 L 780,287.3677929962032"
      stroke="url(#thread-22)"
      stroke-width="7.59"
      stroke-linecap="round"
      fill="none"
      opacity="0.5285714285714286"
      class="thread"
      style="animation-delay: 2.2s"
    >
      <title>2025-12-28: 3795 stars, Shell, Rust, Python, JavaScript, TypeScript</title>
    </path>

    <path
      d="M 20,292.49819130124627 L 35.2,297.13144612959286 L 50.400000000000006,299.99044682190316 L 65.6,296.59190984342564 L 80.80000000000001,292.2651815349407 L 96,293.79513251118715 L 111.2,298.7826014011197 L 126.4,299.4065907441705 L 141.60000000000002,294.688604398284 L 156.79999999999998,292.02705627731024 L 172,295.59559869962914 L 187.2,299.79829476040686 L 202.4,298.0447724805361 L 217.6,293.08478200394285 L 232.8,292.69623107861923 L 248,297.4884179011698 L 263.20000000000005,299.9465725959591 L 278.40000000000003,296.2159900911546 L 293.59999999999997,292.14670713694227 L 308.8,294.11988667460236 L 324,299.0413275183522 L 339.2,299.1935727394885 L 354.4,294.3378821044042 L 369.6,292.0886076951652 L 384.8,295.97290323062236 L 400,299.8996900114725 L 415.2,297.71125755991955 L 430.40000000000003,292.8393515216894 L 445.6,292.92375183205866 L 460.79999999999995,297.83210786836946 L 476,299.8674813754203 L 491.2,295.8381429647665 L 506.40000000000003,292.0626173576555 L 521.6,294.461417912101 L 536.8000000000001,299.2729145390219 L 552,298.95205708750126 L 567.1999999999999,294.00199161597624 L 582.4,292.18506217847954 L 597.6,296.35044955794825 L 612.8000000000001,299.9662866217643 L 628,297.3624723391191 L 643.1999999999999,292.62212488914855 L 658.4,293.1787232943012 L 673.6,298.1594491351896 L 688.8,299.7538789258641 L 704,295.4617401595448 L 719.2,292.013662566985 L 734.4,294.8166785909707 L 749.6,299.475295910783 L 764.8,298.6841989380771 L 780,293.6839302308396"
      stroke="url(#thread-23)"
      stroke-width="8"
      stroke-linecap="round"
      fill="none"
      opacity="0.5071428571428572"
      class="thread"
      style="animation-delay: 2.3000000000000003s"
    >
      <title>2025-12-27: 5384 stars, Shell, Python, Rust, C, Go</title>
    </path>

    <path
      d="M 20,305.8537083279983 L 35.2,309.51863549756575 L 50.400000000000006,311.8986665368507 L 65.6,310.98009066585917 L 80.80000000000001,307.54010200648537 L 96,304.4892265695661 L 111.2,304.40876714247537 L 126.4,307.3667993145692 L 141.60000000000002,310.8605736787206 L 156.79999999999998,311.9340568959392 L 172,309.6789899179292 L 187.2,306.00335319043774 L 202.4,304.01705123963217 L 217.6,305.40066620273615 L 232.8,308.98354092420254 L 248,311.7342555061831 L 263.20000000000005,311.32546903799596 L 278.40000000000003,308.10304999955446 L 293.59999999999997,304.7934418062003 L 308.8,304.19685739066716 L 324,306.818058434171 L 339.2,310.43928360893483 L 354.4,311.9966652380908 L 369.6,310.1725246344996 L 384.8,306.51024150079735 L 400,304.108422075305 L 415.2,304.999211985067 L 430.40000000000003,308.4289264190918 L 445.6,311.49573224407214 L 460.79999999999995,311.6048481954048 L 476,308.6639528017135 L 491.2,305.1612962829995 L 506.40000000000003,304.06042704427415 L 521.6,306.2927750613628 L 536.8000000000001,309.96958208174294 L 552,311.9799534108977 L 567.1999999999999,310.6229421491909 L 582.4,307.0466964346793 L 597.6,304.27702745568354 L 612.8000000000001,304.65731317154916 L 628,307.86579918795263 L 643.1999999999999,311.1878306234885 L 658.4,311.8126834149836 L 673.6,309.21167840600094 L 688.8,305.58548934362756 L 704,304.00218378020554 L 719.2,305.8013742789581 L 734.4,309.4607910699544 L 749.6,311.884253087113 L 764.8,311.02130321104937 L 780,307.6020711918973"
      stroke="url(#thread-24)"
      stroke-width="7.606"
      stroke-linecap="round"
      fill="none"
      opacity="0.48571428571428577"
      class="thread"
      style="animation-delay: 2.4000000000000004s"
    >
      <title>2025-12-26: 3803 stars, Python, Shell, Go, TypeScript</title>
    </path>

    <path
      d="M 20,319.7347124105952 L 35.2,322.91375384085 L 50.400000000000006,323.9674530706638 L 65.6,322.1272237464817 L 80.80000000000001,318.7353608097433 L 96,316.2659474642168 L 111.2,316.520216305463 L 126.4,319.3126992644291 L 141.60000000000002,322.60651120912615 L 156.79999999999998,323.9990890169469 L 172,322.47466246706324 L 187.2,319.14517452202665 L 202.4,316.43921099311535 L 217.6,316.3305482509413 L 232.8,318.89844676985217 L 248,322.2698371737818 L 263.20000000000005,323.98556927674775 L 278.40000000000003,322.7941585532002 L 293.59999999999997,319.5646404903905 L 308.8,316.6526811469085 L 324,316.18231378592964 L 339.2,318.49663245609423 L 354.4,321.90753328740124 L 369.6,323.92704650812095 L 384.8,323.08210441700516 L 400,319.9890223177012 L 415.2,316.90394752880405 L 430.40000000000003,316.0771866988833 L 445.6,318.11179340675096 L 460.79999999999995,321.5236905018575 L 476,323.8241815205111 L 491.2,323.33524871971196 L 506.40000000000003,320.41352809943703 L 521.6,317.1901729661569 L 536.8000000000001,316.01635403159173 L 552,317.74827502933493 L 567.1999999999999,321.1226429753575 L 582.4,323.67813581322747 L 597.6,323.5507330841455 L 612.8000000000001,320.8333645314458 L 628,317.5081255463845 L 643.1999999999999,316.00050267570475 L 658.4,317.4101819891367 L 673.6,320.70891913332355 L 688.8,323.49055846038215 L 704,323.7261243700678 L 719.2,321.24379103350594 L 734.4,317.8542151100861 L 749.6,316.02981161669976 L 764.8,317.10133186142406 L 780,320.28719053570904"
      stroke="url(#thread-25)"
      stroke-width="7.022"
      stroke-linecap="round"
      fill="none"
      opacity="0.4642857142857143"
      class="thread"
      style="animation-delay: 2.5s"
    >
      <title>2025-12-25: 3511 stars, Python, TypeScript</title>
    </path>

    <path
      d="M 20,333.68066814730656 L 35.2,335.66635404881794 L 50.400000000000006,335.80380443533255 L 65.6,334.0237295758195 L 80.80000000000001,331.22347804352034 L 96,328.81467682917486 L 111.2,328.0116199953971 L 126.4,329.2191342831364 L 141.60000000000002,331.8285030322584 L 156.79999999999998,334.5243246395261 L 172,335.9476159924782 L 187.2,335.3808856563847 L 202.4,333.10982648050333 L 217.6,330.27929577256646 L 232.8,328.3161844741034 L 248,328.2101111471516 L 263.20000000000005,330.01454812074843 L 278.40000000000003,332.81986570426153 L 293.59999999999997,335.2118830740016 L 308.8,335.98476702445265 L 324,334.7489011827345 L 339.2,332.1272944317923 L 354.4,329.44151763983183 L 369.6,328.04549025548255 L 384.8,328.6429597502943 L 400,330.93273744343196 L 415.2,333.76052988763036 L 430.40000000000003,335.70082651985695 L 445.6,335.7755098158464 L 460.79999999999995,333.94693138753075 L 476,331.1368908069561 L 491.2,328.76194979468914 L 506.40000000000003,328.0193332413019 L 521.6,329.2833995065489 L 536.8000000000001,331.91692367062404 L 552,334.59232721142155 L 567.1999999999999,335.9609199110275 L 582.4,335.3327843203094 L 597.6,333.0245681201896 L 612.8000000000001,330.1998597422676 L 628,328.28261504952604 L 643.1999999999999,328.23933091730254 L 658.4,330.0918271887836 L 673.6,332.9062471347059 L 688.8,335.26382136485023 L 704,335.97607970874884 L 719.2,334.683967598971 L 734.4,332.0388480677963 L 749.6,329.3741449455025 L 764.8,328.0331542918724 L 780,328.69187916561697"
      stroke="url(#thread-26)"
      stroke-width="5.776"
      stroke-linecap="round"
      fill="none"
      opacity="0.44285714285714284"
      class="thread"
      style="animation-delay: 2.6s"
    >
      <title>2025-12-24: 2888 stars, Python, TypeScript</title>
    </path>

    <path
      d="M 20,347.21513770620646 L 35.2,347.98428675757384 L 50.400000000000006,346.74492812276895 L 65.6,344.1218314269193 L 80.80000000000001,341.437318630203 L 96,340.04467199213184 L 111.2,340.64593472567753 L 126.4,342.93800595100515 L 141.60000000000002,345.7654360347333 L 156.79999999999998,347.70289708235566 L 172,347.77370100825397 L 187.2,345.9421550427982 L 202.4,343.1315547149066 L 217.6,340.7587439178047 L 232.8,340.01987368523834 L 248,341.2874138296206 L 263.20000000000005,343.92238822362225 L 278.40000000000003,346.5964872737737 L 293.59999999999997,347.96167836530253 L 308.8,347.3297588242379 L 324,345.01928384815886 L 339.2,342.1949805339145 L 354.4,340.2806005489665 L 369.6,340.2411966487958 L 384.8,342.0966326236296 L 400,344.9115698185456 L 415.2,347.2669780943769 L 430.40000000000003,347.9754791538441 L 445.6,346.67991250369306 L 460.79999999999995,344.03338263491713 L 476,341.37002433914904 L 491.2,340.0324557394222 L 506.40000000000003,340.69495481239755 L 521.6,343.02355099794323 L 536.8000000000001,345.84438216684157 L 552,347.7354469851381 L 567.1999999999999,347.7434460409926 L 582.4,345.8643469526656 L 597.6,343.04541712123194 L 612.8000000000001,340.707699402719 L 628,340.02965415689096 L 643.1999999999999,341.353088881722 L 658.4,344.0108505888091 L 673.6,346.66314243583116 L 688.8,347.9729249763707 L 704,347.27992738657514 L 719.2,344.93349474883775 L 734.4,342.1164806765493 L 749.6,340.248962277737 L 764.8,340.27236904438007 L 780,342.17490145662185"
      stroke="url(#thread-27)"
      stroke-width="5.776"
      stroke-linecap="round"
      fill="none"
      opacity="0.42142857142857143"
      class="thread"
      style="animation-delay: 2.7s"
    >
      <title>2025-12-23: 2888 stars, Python, TypeScript</title>
    </path>
  </g>

  <!-- Date markers -->
  <g id="dates">
    <text x="785" y="24" class="date-label">01-19</text>
<text x="785" y="108" class="date-label">01-12</text>
<text x="785" y="192" class="date-label">01-05</text>
<text x="785" y="276" class="date-label">12-29</text>
  </g>

</svg>