<?xml version="1.0" encoding="UTF-8"?>
<svg xmlns="http://www.w3.org/2000/svg" viewBox="0 0 800 592" width="800" height="592">
  <title>The Data Tapestry - GitHub Trends Woven in Time</title>
  <desc>A living data art piece that weaves daily GitHub trending repositories into an evolving tapestry. Each thread represents one day of open source activity.</desc>

  <style>
    .thread {
      animation: breathe 8s ease-in-out infinite alternate;
    }

    @keyframes breathe {
      0% {
        opacity: 0.85;
      }
      100% {
        opacity: 1;
      }
    }

    .date-label {
      font-family: ui-monospace, monospace;
      font-size: 8px;
      fill: #666;
    }

    .title {
      font-family: system-ui, sans-serif;
      font-size: 14px;
      fill: #333;
      font-weight: 600;
    }

    .subtitle {
      font-family: system-ui, sans-serif;
      font-size: 10px;
      fill: #888;
    }

    .empty-state {
      font-family: system-ui, sans-serif;
      font-size: 12px;
      fill: #999;
      text-anchor: middle;
    }
  </style>

  <defs>
    
    <linearGradient id="thread-0" x1="0%" y1="0%" x2="100%" y2="0%">
      <stop offset="0%" stop-color="#3572A5" />
      <stop offset="50%" stop-color="#3178c6" />
      <stop offset="100%" stop-color="#f1e05a" />
    </linearGradient>

    <linearGradient id="thread-1" x1="0%" y1="0%" x2="100%" y2="0%">
      <stop offset="0%" stop-color="#3572A5" />
      <stop offset="50%" stop-color="#3178c6" />
      <stop offset="100%" stop-color="#89e051" />
    </linearGradient>

    <linearGradient id="thread-2" x1="0%" y1="0%" x2="100%" y2="0%">
      <stop offset="0%" stop-color="#3178c6" />
      <stop offset="50%" stop-color="#3572A5" />
      <stop offset="100%" stop-color="#8b8b8b" />
    </linearGradient>

    <linearGradient id="thread-3" x1="0%" y1="0%" x2="100%" y2="0%">
      <stop offset="0%" stop-color="#3178c6" />
      <stop offset="50%" stop-color="#f1e05a" />
      <stop offset="100%" stop-color="#3572A5" />
    </linearGradient>

    <linearGradient id="thread-4" x1="0%" y1="0%" x2="100%" y2="0%">
      <stop offset="0%" stop-color="#3572A5" />
      <stop offset="50%" stop-color="#3178c6" />
      <stop offset="100%" stop-color="#f1e05a" />
    </linearGradient>

    <linearGradient id="thread-5" x1="0%" y1="0%" x2="100%" y2="0%">
      <stop offset="0%" stop-color="#3572A5" />
      <stop offset="50%" stop-color="#8b8b8b" />
      <stop offset="100%" stop-color="#3178c6" />
    </linearGradient>

    <linearGradient id="thread-6" x1="0%" y1="0%" x2="100%" y2="0%">
      <stop offset="0%" stop-color="#3572A5" />
      <stop offset="50%" stop-color="#f1e05a" />
      <stop offset="100%" stop-color="#8b8b8b" />
    </linearGradient>

    <linearGradient id="thread-7" x1="0%" y1="0%" x2="100%" y2="0%">
      <stop offset="0%" stop-color="#3572A5" />
      <stop offset="50%" stop-color="#3178c6" />
      <stop offset="100%" stop-color="#dea584" />
    </linearGradient>

    <linearGradient id="thread-8" x1="0%" y1="0%" x2="100%" y2="0%">
      <stop offset="0%" stop-color="#3572A5" />
      <stop offset="50%" stop-color="#3178c6" />
      <stop offset="100%" stop-color="#f1e05a" />
    </linearGradient>

    <linearGradient id="thread-9" x1="0%" y1="0%" x2="100%" y2="0%">
      <stop offset="0%" stop-color="#3572A5" />
      <stop offset="50%" stop-color="#3178c6" />
      <stop offset="100%" stop-color="#f1e05a" />
    </linearGradient>

    <linearGradient id="thread-10" x1="0%" y1="0%" x2="100%" y2="0%">
      <stop offset="0%" stop-color="#3572A5" />
      <stop offset="50%" stop-color="#3178c6" />
      <stop offset="100%" stop-color="#f1e05a" />
    </linearGradient>

    <linearGradient id="thread-11" x1="0%" y1="0%" x2="100%" y2="0%">
      <stop offset="0%" stop-color="#3178c6" />
      <stop offset="50%" stop-color="#3572A5" />
      <stop offset="100%" stop-color="#f1e05a" />
    </linearGradient>

    <linearGradient id="thread-12" x1="0%" y1="0%" x2="100%" y2="0%">
      <stop offset="0%" stop-color="#3572A5" />
      <stop offset="50%" stop-color="#3178c6" />
      <stop offset="100%" stop-color="#89e051" />
    </linearGradient>

    <linearGradient id="thread-13" x1="0%" y1="0%" x2="100%" y2="0%">
      <stop offset="0%" stop-color="#3178c6" />
      <stop offset="50%" stop-color="#3572A5" />
      <stop offset="100%" stop-color="#89e051" />
    </linearGradient>

    <linearGradient id="thread-14" x1="0%" y1="0%" x2="100%" y2="0%">
      <stop offset="0%" stop-color="#3572A5" />
      <stop offset="50%" stop-color="#3178c6" />
      <stop offset="100%" stop-color="#8b8b8b" />
    </linearGradient>

    <linearGradient id="thread-15" x1="0%" y1="0%" x2="100%" y2="0%">
      <stop offset="0%" stop-color="#3178c6" />
      <stop offset="50%" stop-color="#3572A5" />
      <stop offset="100%" stop-color="#dea584" />
    </linearGradient>

    <linearGradient id="thread-16" x1="0%" y1="0%" x2="100%" y2="0%">
      <stop offset="0%" stop-color="#3572A5" />
      <stop offset="50%" stop-color="#3178c6" />
      <stop offset="100%" stop-color="#8b8b8b" />
    </linearGradient>

    <linearGradient id="thread-17" x1="0%" y1="0%" x2="100%" y2="0%">
      <stop offset="0%" stop-color="#3572A5" />
      <stop offset="50%" stop-color="#3178c6" />
      <stop offset="100%" stop-color="#41b883" />
    </linearGradient>

    <linearGradient id="thread-18" x1="0%" y1="0%" x2="100%" y2="0%">
      <stop offset="0%" stop-color="#3178c6" />
      <stop offset="50%" stop-color="#f1e05a" />
      <stop offset="100%" stop-color="#89e051" />
    </linearGradient>

    <linearGradient id="thread-19" x1="0%" y1="0%" x2="100%" y2="0%">
      <stop offset="0%" stop-color="#3178c6" />
      <stop offset="50%" stop-color="#3572A5" />
      <stop offset="100%" stop-color="#f1e05a" />
    </linearGradient>

    <linearGradient id="thread-20" x1="0%" y1="0%" x2="100%" y2="0%">
      <stop offset="0%" stop-color="#3178c6" />
      <stop offset="50%" stop-color="#3572A5" />
      <stop offset="100%" stop-color="#f1e05a" />
    </linearGradient>

    <linearGradient id="thread-21" x1="0%" y1="0%" x2="100%" y2="0%">
      <stop offset="0%" stop-color="#3178c6" />
      <stop offset="50%" stop-color="#f1e05a" />
      <stop offset="100%" stop-color="#3572A5" />
    </linearGradient>

    <linearGradient id="thread-22" x1="0%" y1="0%" x2="100%" y2="0%">
      <stop offset="0%" stop-color="#3572A5" />
      <stop offset="50%" stop-color="#3178c6" />
      <stop offset="100%" stop-color="#89e051" />
    </linearGradient>

    <linearGradient id="thread-23" x1="0%" y1="0%" x2="100%" y2="0%">
      <stop offset="0%" stop-color="#3178c6" />
      <stop offset="50%" stop-color="#89e051" />
      <stop offset="100%" stop-color="#3572A5" />
    </linearGradient>

    <linearGradient id="thread-24" x1="0%" y1="0%" x2="100%" y2="0%">
      <stop offset="0%" stop-color="#3572A5" />
      <stop offset="50%" stop-color="#3178c6" />
      <stop offset="100%" stop-color="#89e051" />
    </linearGradient>

    <linearGradient id="thread-25" x1="0%" y1="0%" x2="100%" y2="0%">
      <stop offset="0%" stop-color="#3178c6" />
      <stop offset="50%" stop-color="#3572A5" />
      <stop offset="100%" stop-color="#8b8b8b" />
    </linearGradient>

    <linearGradient id="thread-26" x1="0%" y1="0%" x2="100%" y2="0%">
      <stop offset="0%" stop-color="#3178c6" />
      <stop offset="50%" stop-color="#89e051" />
      <stop offset="100%" stop-color="#3572A5" />
    </linearGradient>

    <linearGradient id="thread-27" x1="0%" y1="0%" x2="100%" y2="0%">
      <stop offset="0%" stop-color="#3572A5" />
      <stop offset="50%" stop-color="#3178c6" />
      <stop offset="100%" stop-color="#89e051" />
    </linearGradient>

    <linearGradient id="thread-28" x1="0%" y1="0%" x2="100%" y2="0%">
      <stop offset="0%" stop-color="#3572A5" />
      <stop offset="50%" stop-color="#3178c6" />
      <stop offset="100%" stop-color="#8b8b8b" />
    </linearGradient>

    <linearGradient id="thread-29" x1="0%" y1="0%" x2="100%" y2="0%">
      <stop offset="0%" stop-color="#3572A5" />
      <stop offset="50%" stop-color="#3178c6" />
      <stop offset="100%" stop-color="#8b8b8b" />
    </linearGradient>

    <linearGradient id="thread-30" x1="0%" y1="0%" x2="100%" y2="0%">
      <stop offset="0%" stop-color="#3178c6" />
      <stop offset="50%" stop-color="#3572A5" />
      <stop offset="100%" stop-color="#dea584" />
    </linearGradient>

    <linearGradient id="thread-31" x1="0%" y1="0%" x2="100%" y2="0%">
      <stop offset="0%" stop-color="#3572A5" />
      <stop offset="50%" stop-color="#3178c6" />
      <stop offset="100%" stop-color="#00ADD8" />
    </linearGradient>

    <linearGradient id="thread-32" x1="0%" y1="0%" x2="100%" y2="0%">
      <stop offset="0%" stop-color="#3572A5" />
      <stop offset="50%" stop-color="#00ADD8" />
      <stop offset="100%" stop-color="#3178c6" />
    </linearGradient>

    <linearGradient id="thread-33" x1="0%" y1="0%" x2="100%" y2="0%">
      <stop offset="0%" stop-color="#3572A5" />
      <stop offset="50%" stop-color="#3178c6" />
      <stop offset="100%" stop-color="#00ADD8" />
    </linearGradient>

    <linearGradient id="thread-34" x1="0%" y1="0%" x2="100%" y2="0%">
      <stop offset="0%" stop-color="#3572A5" />
      <stop offset="50%" stop-color="#00ADD8" />
      <stop offset="100%" stop-color="#DA5B0B" />
    </linearGradient>

    <linearGradient id="thread-35" x1="0%" y1="0%" x2="100%" y2="0%">
      <stop offset="0%" stop-color="#3572A5" />
      <stop offset="50%" stop-color="#3178c6" />
      <stop offset="100%" stop-color="#dea584" />
    </linearGradient>

    <linearGradient id="thread-36" x1="0%" y1="0%" x2="100%" y2="0%">
      <stop offset="0%" stop-color="#dea584" />
      <stop offset="50%" stop-color="#3572A5" />
      <stop offset="100%" stop-color="#3178c6" />
    </linearGradient>

    <linearGradient id="thread-37" x1="0%" y1="0%" x2="100%" y2="0%">
      <stop offset="0%" stop-color="#3572A5" />
      <stop offset="50%" stop-color="#3178c6" />
      <stop offset="100%" stop-color="#dea584" />
    </linearGradient>

    <linearGradient id="thread-38" x1="0%" y1="0%" x2="100%" y2="0%">
      <stop offset="0%" stop-color="#3572A5" />
      <stop offset="50%" stop-color="#dea584" />
      <stop offset="100%" stop-color="#3178c6" />
    </linearGradient>

    <linearGradient id="thread-39" x1="0%" y1="0%" x2="100%" y2="0%">
      <stop offset="0%" stop-color="#3572A5" />
      <stop offset="50%" stop-color="#3178c6" />
      <stop offset="100%" stop-color="#89e051" />
    </linearGradient>

    <linearGradient id="thread-40" x1="0%" y1="0%" x2="100%" y2="0%">
      <stop offset="0%" stop-color="#3572A5" />
      <stop offset="50%" stop-color="#f1e05a" />
      <stop offset="100%" stop-color="#89e051" />
    </linearGradient>

    <linearGradient id="thread-41" x1="0%" y1="0%" x2="100%" y2="0%">
      <stop offset="0%" stop-color="#3572A5" />
      <stop offset="50%" stop-color="#89e051" />
      <stop offset="100%" stop-color="#dea584" />
    </linearGradient>

    <linearGradient id="thread-42" x1="0%" y1="0%" x2="100%" y2="0%">
      <stop offset="0%" stop-color="#3572A5" />
      <stop offset="50%" stop-color="#89e051" />
      <stop offset="100%" stop-color="#00ADD8" />
    </linearGradient>

    <linearGradient id="thread-43" x1="0%" y1="0%" x2="100%" y2="0%">
      <stop offset="0%" stop-color="#3572A5" />
      <stop offset="50%" stop-color="#3178c6" />
      <stop offset="100%" stop-color="#3572A5" />
    </linearGradient>

    <linearGradient id="thread-44" x1="0%" y1="0%" x2="100%" y2="0%">
      <stop offset="0%" stop-color="#3572A5" />
      <stop offset="50%" stop-color="#3178c6" />
      <stop offset="100%" stop-color="#3572A5" />
    </linearGradient>

    <linearGradient id="thread-45" x1="0%" y1="0%" x2="100%" y2="0%">
      <stop offset="0%" stop-color="#3572A5" />
      <stop offset="50%" stop-color="#3178c6" />
      <stop offset="100%" stop-color="#3572A5" />
    </linearGradient>

    <!-- Background pattern -->
    <pattern id="loom" patternUnits="userSpaceOnUse" width="20" height="20">
      <rect width="20" height="20" fill="#fafafa"/>
      <circle cx="10" cy="10" r="0.5" fill="#eee"/>
    </pattern>
  </defs>

  <!-- Background -->
  <rect width="100%" height="100%" fill="url(#loom)"/>

  <!-- Threads -->
  <g id="tapestry">
    
    <path
      d="M 20,20 L 35.2,23.66821802683367 L 50.400000000000006,22.92549098528403 L 65.6,18.66493050533404 L 80.80000000000001,16.009759388929872 L 96,18.152757851408445 L 111.2,22.517021131254744 L 126.4,23.854626272269506 L 141.60000000000002,20.557134856386263 L 156.79999999999998,16.589702005936033 L 172,16.72307150927022 L 187.2,20.796869705744538 L 202.4,23.912451004263108 L 217.6,22.32340287882072 L 232.8,17.94051796526133 L 248,16.034111292117746 L 263.20000000000005,18.896591612556215 L 278.40000000000003,23.085894316343875 L 293.59999999999997,23.564482385216987 L 308.8,19.756865031348756 L 324,16.241611703576716 L 339.2,17.24573105210321 L 354.4,21.561793405068116 L 369.6,23.99983627622342 L 384.8,21.62817100901665 L 400,17.298668767515895 L 415.2,16.217453184777554 L 430.40000000000003,19.68466032350331 L 445.6,23.53105593486991 L 460.79999999999995,23.131440636262244 L 476,18.96634233462305 L 491.2,16.044192829412584 L 506.40000000000003,17.878807508592608 L 521.6,22.264105786899233 L 536.8000000000001,23.92687062200108 L 552,20.86766678523362 L 567.1999999999999,16.76511424363744 L 582.4,16.552435005490324 L 597.6,20.485370804187056 L 612.8000000000001,23.83465973691107 L 628,22.572861397361848 L 643.1999999999999,18.217258325021728 L 658.4,16.00535978221699 L 673.6,18.596921240890133 L 688.8,22.875651588592262 L 704,23.69647918888366 L 719.2,20.072378344542205 L 734.4,16.3612442596516 L 749.6,17.025627543284347 L 764.8,21.266623073929534 L 780,23.98453443657269"
      stroke="url(#thread-0)"
      stroke-width="8"
      stroke-linecap="round"
      fill="none"
      opacity="1"
      class="thread"
      style="animation-delay: 0s"
    >
      <title>2026-02-06: 4618 stars, TypeScript, Python, JavaScript, Unknown, Shell</title>
    </path>

    <path
      d="M 20,33.917702154416816 L 35.2,35.99999476582644 L 50.400000000000006,33.90633452327275 L 65.6,29.822480903197256 L 80.80000000000001,28.011934529556196 L 96,30.364886949807058 L 111.2,34.42488035592159 L 126.4,35.95332393868574 L 141.60000000000002,33.354538524692614 L 156.79999999999998,29.34162900575838 L 172,28.104031103513975 L 187.2,30.933784131633026 L 202.4,34.87665541592763 L 217.6,35.81632842190396 L 232.8,32.77179432309462 L 248,28.921514993382775 L 263.20000000000005,28.285141931523345 L 278.40000000000003,31.527041982833513 L 293.59999999999997,35.26270527565211 L 308.8,35.592138259395405 L 324,32.17141633186001 L 339.2,28.57173754009012 L 354.4,28.55112903258798 L 369.6,32.131105876436884 L 384.8,35.574209551461806 L 400,35.28587569946635 L 415.2,31.567121857378677 L 430.40000000000003,28.30028828542275 L 445.6,28.89591519099656 L 460.79999999999995,32.732174291353715 L 476,35.804051061089154 L 491.2,34.90453816279453 L 506.40000000000003,30.972717689002064 L 521.6,28.113369243195248 L 536.8000000000001,29.31162280723184 L 552,33.31651414654325 L 567.1999999999999,35.946978435472154 L 582.4,34.45683836687604 L 597.6,30.4017846445085 L 612.8000000000001,28.015251099225168 L 628,29.788753883659357 L 643.1999999999999,33.870774571476375 L 658.4,35.99972610089798 L 673.6,33.953005259741964 L 688.8,29.86736727851819 L 704,28.008175635627943 L 719.2,30.316407032721532 L 734.4,34.38229194393577 L 749.6,35.9610888901244 L 764.8,33.40455031116771 L 780,29.38167584333291"
      stroke="url(#thread-1)"
      stroke-width="8"
      stroke-linecap="round"
      fill="none"
      opacity="0.9869565217391304"
      class="thread"
      style="animation-delay: 0.1s"
    >
      <title>2026-02-05: 4267 stars, TypeScript, Python, Shell, JavaScript, Unknown</title>
    </path>

    <path
      d="M 20,47.36588393923159 L 35.2,46.77904628108908 L 50.400000000000006,41.723583371020794 L 65.6,40.32853191267319 L 80.80000000000001,44.83709390556999 L 96,47.999633347450725 L 111.2,44.73087918458495 L 126.4,40.28689263981609 L 141.60000000000002,41.813474280880705 L 156.79999999999998,46.85592541606997 L 172,47.306131895705825 L 187.2,42.44017484978911 L 202.4,40.082371087339745 L 217.6,44.02400019361093 L 232.8,47.92703768953338 L 248,45.51551327832699 L 263.20000000000005,40.667087779418374 L 278.40000000000003,41.17788778628524 L 293.59999999999997,46.22656180690615 L 308.8,47.694989473581806 L 324,43.221981986908055 L 339.2,40.00000474158506 L 354.4,43.209903043268625 L 369.6,47.69025417488344 L 384.8,46.23678437515115 L 400,41.18663063030789 L 415.2,40.660292661383934 L 430.40000000000003,45.50410654956872 L 445.6,47.929361036736346 L 460.79999999999995,44.0363177423312 L 476,40.0848765789958 L 491.2,42.42883952697635 L 506.40000000000003,47.299182626434515 L 521.6,46.864536422359905 L 536.8000000000001,41.82379931612074 L 552,40.28232934890526 L 567.1999999999999,44.71876520602707 L 582.4,47.99944760495188 L 597.6,44.84913506764335 L 612.8000000000001,40.333438142393014 L 628,41.71346559429469 L 643.1999999999999,46.77017358738103 L 658.4,47.37252336087793 L 673.6,42.551954071932016 L 688.8,40.05980034200195 L 704,43.9033725800681 L 719.2,47.90231888717168 L 734.4,45.626450399377894 L 749.6,40.735297173390904 L 764.8,41.093690739874646 L 780,46.12534471158357"
      stroke="url(#thread-2)"
      stroke-width="8"
      stroke-linecap="round"
      fill="none"
      opacity="0.9739130434782609"
      class="thread"
      style="animation-delay: 0.2s"
    >
      <title>2026-02-04: 5465 stars, TypeScript, Unknown, JavaScript, Python, Shell</title>
    </path>

    <path
      d="M 20,59.98997994641622 L 35.2,54.76363528342688 L 50.400000000000006,52.93875317620483 L 65.6,59.53591377654412 L 80.80000000000001,56.40513718317817 L 96,52.1597550530664 L 111.2,58.479580112120324 L 126.4,57.977632604920565 L 141.60000000000002,52.03486074829512 L 156.79999999999998,57.00090286240513 L 172,59.213280493216224 L 187.2,52.58534334284601 L 202.4,55.351743158273415 L 217.6,59.90161458535007 L 232.8,53.717439867945956 L 248,53.813000180500424 L 263.20000000000005,59.92539185016168 L 278.40000000000003,55.23832182695978 L 293.59999999999997,52.64676597559756 L 308.8,59.28056233773417 L 324,56.88893941696519 L 339.2,52.051683665834 L 354.4,58.07695900198146 L 369.6,58.388145137423464 L 384.8,52.12911283020482 L 400,56.51958999956916 L 415.2,59.48058127031913 L 430.40000000000003,52.86586506204119 L 445.6,54.87371992303271 L 460.79999999999995,59.98017462091497 L 476,54.13645033279187 L 491.2,53.419687635250654 L 506.40000000000003,59.80183011773216 L 521.6,55.72445154181771 L 536.8000000000001,52.405156523483505 L 552,58.97592494298919 L 567.1999999999999,57.35938655353927 L 582.4,52.00293032375047 L 597.6,57.64313442752394 L 612.8000000000001,58.76277906013568 L 628,52.28151969011877 L 643.1999999999999,56.0304710086409 L 658.4,59.695591080978836 L 673.6,53.19347286604265 L 688.8,54.41261750335012 L 704,59.998937984207 L 719.2,54.58345807899539 L 734.4,53.065140749182184 L 749.6,59.6211510949223 L 764.8,56.214720994857714 L 780,52.217554670962656"
      stroke="url(#thread-3)"
      stroke-width="8"
      stroke-linecap="round"
      fill="none"
      opacity="0.9608695652173913"
      class="thread"
      style="animation-delay: 0.30000000000000004s"
    >
      <title>2026-02-03: 7782 stars, TypeScript, Unknown, JavaScript, Shell, Python</title>
    </path>

    <path
      d="M 20,71.63718970730272 L 35.2,65.27521674190547 L 50.400000000000006,66.07805032282717 L 65.6,71.93464279917502 L 80.80000000000001,67.4451079638518 L 96,64.41465949119035 L 111.2,70.81184937177758 L 126.4,69.81529271258923 L 141.60000000000002,64.04543121456398 L 156.79999999999998,68.674092328416 L 172,71.53023039365101 L 187.2,65.10364193034269 L 202.4,66.29301528576501 L 217.6,71.97089803681902 L 232.8,67.20732047559045 L 248,64.528090514763 L 263.20000000000005,70.97823248990693 L 278.40000000000003,69.59712418972907 L 293.59999999999997,64.0163842983554 L 308.8,68.91054576743772 L 324,71.41043082723857 L 339.2,64.94260183338857 L 354.4,66.5141889412655 L 369.6,71.99271021302107 L 384.8,66.97241614347384 L 400,64.65414966465652 L 415.2,71.13378309749551 L 430.40000000000003,69.37314656207982 L 445.6,64.00182670063514 L 460.79999999999995,69.14368734391782 L 476,71.27822674640026 L 491.2,64.7926821905895 L 506.40000000000003,66.74076683032061 L 521.6,71.99999999192356 L 536.8000000000001,66.74124936811108 L 552,64.79237843500384 L 567.1999999999999,71.27793542152122 L 582.4,69.14417448733545 L 597.6,64.00181137070491 L 612.8000000000001,69.3726690687912 L 628,71.13409900751788 L 643.1999999999999,64.65442829386501 L 658.4,66.97192483749272 L 673.6,71.99274085893875 L 688.8,66.51466095576549 L 704,64.942274056254 L 719.2,71.41016514711782 L 734.4,68.91104078913278 L 749.6,64.01633836432318 L 764.8,69.59665808332143 L 780,70.97857183603583"
      stroke="url(#thread-4)"
      stroke-width="8"
      stroke-linecap="round"
      fill="none"
      opacity="0.9478260869565218"
      class="thread"
      style="animation-delay: 0.4s"
    >
      <title>2026-02-02: 7524 stars, TypeScript, JavaScript, Lua, Unknown, Python, Shell</title>
    </path>

    <path
      d="M 20,82.39388857641583 L 35.2,76.34915808693404 L 50.400000000000006,79.20429670130433 L 65.6,83.99916740282698 L 80.80000000000001,79.04503574898274 L 96,76.41887584392732 L 111.2,82.522630022422 L 126.4,82.47682266645161 L 141.60000000000002,76.39312102478718 L 156.79999999999998,79.10211748323636 L 172,83.99993423577568 L 187.2,79.14687927978783 L 202.4,76.37352618996378 L 217.6,82.44063866572911 L 232.8,82.55806469326699 L 248,76.43954803378159 L 263.20000000000005,79.00055166151824 L 278.40000000000003,83.99796847841984 L 293.59999999999997,79.24930562752718 L 308.8,76.3306539935255 L 324,82.35697996523461 L 339.2,82.63755915565578 L 354.4,76.48840739689714 L 369.6,78.8996686217357 L 384.8,83.9932714736839 L 400,79.35224481873922 L 415.2,76.29028854313111 L 430.40000000000003,82.27171107311662 L 445.6,82.71525174627574 L 460.79999999999995,76.53966573542957 L 476,78.79953728302591 L 491.2,83.98584643036803 L 506.40000000000003,79.45562652960872 L 521.6,76.25245741479357 L 536.8000000000001,82.18489024156983 L 552,82.7910893887494 L 567.1999999999999,76.5932880317934 L 582.4,78.70022605099491 L 597.6,83.97569842095596 L 612.8000000000001,79.55938013400942 L 628,76.21718645318141 L 643.1999999999999,82.09657678300994 L 658.4,82.86502027392324 L 673.6,76.64923765344463 L 688.8,78.60180277098551 L 704,83.96283437814972 L 719.2,79.66343475175248 L 734.4,76.18449975396274 L 749.6,82.00683102955419 L 764.8,82.93699389526185 L 780,76.70747637790635"
      stroke="url(#thread-5)"
      stroke-width="8"
      stroke-linecap="round"
      fill="none"
      opacity="0.9347826086956521"
      class="thread"
      style="animation-delay: 0.5s"
    >
      <title>2026-02-01: 7128 stars, TypeScript, Python, JavaScript, Roff, Go, Unknown, Shell</title>
    </path>

    <path
      d="M 20,92.56448003223947 L 35.2,88.06506213856007 L 50.400000000000006,93.92756151264989 L 65.6,94.71419091726952 L 80.80000000000001,88.35351006591836 L 96,91.59517322741026 L 111.2,95.90287139963493 L 126.4,89.93309328791112 L 141.60000000000002,89.40612446696085 L 156.79999999999998,95.70963801261318 L 172,92.2445189816882 L 187.2,88.13550529527681 L 202.4,94.20291009935222 L 217.6,94.46936632390724 L 232.8,88.23321171872504 L 248,91.91618415192785 L 263.20000000000005,95.81986982483951 L 278.40000000000003,89.6646482182977 L 293.59999999999997,89.65913540138374 L 308.8,95.81784833847834 L 324,91.9229771994762 L 339.2,88.23093108970272 L 354.4,94.46401762503027 L 369.6,94.20857812108109 L 384.8,88.13726437060112 L 400,92.23773691726205 L 415.2,95.71217409693438 L 430.40000000000003,89.41130039992764 L 445.6,89.92727922552754 L 460.79999999999995,95.90137757945232 L 476,91.60193334334969 L 491.2,88.35072262668531 L 506.40000000000003,94.70919611875496 L 521.6,93.93351221540699 L 536.8000000000001,88.06628828836547 L 552,92.5577527946645 L 567.1999999999999,95.58048043199913 L 582.4,89.17468763987384 L 597.6,90.20882248119788 L 612.8000000000001,95.95968574753543 L 628,91.28346285213298 L 643.1999999999999,88.49410549487254 L 658.4,94.93686058534558 L 673.6,93.64594681397104 L 688.8,88.02074230813619 L 704,92.87416299084214 L 719.2,95.42564018457588 L 734.4,88.95633955877591 L 749.6,90.5019450874546 L 764.8,95.99239590034584 L 780,90.96962452872557"
      stroke="url(#thread-6)"
      stroke-width="8"
      stroke-linecap="round"
      fill="none"
      opacity="0.9217391304347826"
      class="thread"
      style="animation-delay: 0.6000000000000001s"
    >
      <title>2026-01-31: 7532 stars, TypeScript, Python, Roff, JavaScript, Unknown, Shell</title>
    </path>

    <path
      d="M 20,102.59686708924153 L 35.2,101.2669879086658 L 50.400000000000006,107.83064798102133 L 65.6,103.33055524444129 L 80.80000000000001,100.76396601208175 L 96,107.54375376372685 L 111.2,104.08840222513741 L 126.4,100.37772564192734 L 141.60000000000002,107.12897307324826 L 156.79999999999998,104.84305895912111 L 172,100.12220538480696 L 187.2,106.60127445514117 L 202.4,105.56729150334539 L 217.6,100.00662641879589 L 232.8,105.97970142079866 L 248,106.23496385852214 L 263.20000000000005,100.0351597408998 L 278.40000000000003,105.28668520796703 L 293.59999999999997,106.82198116128356 L 308.8,100.20677564471826 L 324,104.54723528548277 L 339.2,107.30715921612587 L 354.4,100.51528088034034 L 369.6,103.78803681517941 L 384.8,107.67298898759199 L 400,100.9495421554514 L 415.2,103.03648764162712 L 430.40000000000003,107.90626846381038 L 445.6,101.49388791197569 L 460.79999999999995,102.3197095626816 L 476,107.99857908878963 L 491.2,102.12867387899713 L 506.40000000000003,101.66356956196636 L 521.6,107.94658957004917 L 536.8000000000001,102.83099199236631 L 552,101.09174632490958 L 567.1999999999999,107.75217609782045 L 582.4,103.5754970976057 L 597.6,100.62487572577002 L 612.8000000000001,107.42235463736534 L 628,104.33532160217791 L 643.1999999999999,100.27980612319162 L 658.4,106.96902773783661 L 673.6,105.08304506927851 L 688.8,100.0689903390743 L 704,106.40855499480593 L 719.2,105.79168376259275 L 734.4,100.00003626293858 L 749.6,105.76116266754548 L 764.8,106.43566443146855 L 780,100.07543229950909"
      stroke="url(#thread-7)"
      stroke-width="8"
      stroke-linecap="round"
      fill="none"
      opacity="0.908695652173913"
      class="thread"
      style="animation-delay: 0.7000000000000001s"
    >
      <title>2026-01-30: 8081 stars, TypeScript, Rust, Roff, Python, JavaScript, Shell, Unknown</title>
    </path>

    <path
      d="M 20,112.9727900187683 L 35.2,116.00250755293196 L 50.400000000000006,119.02392951060035 L 65.6,112.04147946549152 L 80.80000000000001,118.15474894981249 L 96,117.13960071921021 L 111.2,112.35438453917732 L 126.4,119.62972410740831 L 141.60000000000002,114.89708027238248 L 156.79999999999998,113.81315501553313 L 172,119.96382872596547 L 187.2,113.00122215771253 L 202.4,115.95927994153716 L 217.6,119.05204928242019 L 232.8,112.04791978340995 L 248,118.11820372323204 L 263.20000000000005,117.18097017670485 L 278.40000000000003,112.33680875853325 L 293.59999999999997,119.61134791617386 L 308.8,114.93869644511263 L 324,113.77708743782823 L 339.2,119.96939745126762 L 354.4,113.03000452936055 L 369.6,115.9160570859119 L 384.8,119.07981259986812 L 400,112.0548216719457 L 415.2,118.08141110779653 L 430.40000000000003,117.2222017065504 L 445.6,112.31966080863903 L 460.79999999999995,119.59254994906553 L 476,114.9804365694101 L 491.2,113.74127947811371 L 506.40000000000003,119.97450258344125 L 521.6,113.05913377216692 L 536.8000000000001,115.87284403413189 L 552,119.10721622041594 L 567.1999999999999,112.06218432501464 L 582.4,118.04437540058214 L 597.6,117.26329049324163 L 612.8000000000001,112.30294269223482 L 628,119.57333240153204 L 643.1999999999999,115.02229577037006 L 658.4,113.70573531846604 L 673.6,119.97914352624869 L 688.8,113.0886064840746 L 704,115.82964583312766 L 719.2,119.1342569435451 L 734.4,112.0700068827192 L 749.6,118.00710092705636 L 764.8,117.30423173794463 L 780,112.2866563618598"
      stroke="url(#thread-8)"
      stroke-width="8"
      stroke-linecap="round"
      fill="none"
      opacity="0.8956521739130434"
      class="thread"
      style="animation-delay: 0.8s"
    >
      <title>2026-01-29: 9087 stars, TypeScript, JavaScript, Python, Shell, Unknown</title>
    </path>

    <path
      d="M 20,124.08987952933961 L 35.2,131.55666318872056 L 50.400000000000006,125.04118396270052 L 65.6,130.1576590342546 L 80.80000000000001,126.79175772288754 L 96,128.1758032722237 L 111.2,128.86871574600156 L 126.4,126.14645751376426 L 141.60000000000002,130.7110063072805 L 156.79999999999998,124.61781191257765 L 172,131.8209687484851 L 187.2,124.00280175264702 L 202.4,131.89876728327368 L 217.6,124.46756063279106 L 232.8,130.92338607904816 L 248,125.88654255333068 L 263.20000000000005,129.1583062947155 L 278.40000000000003,127.87643584158643 L 293.59999999999997,127.08033152780703 L 308.8,129.89970769764435 L 324,125.2507881575811 L 339.2,131.40980871998983 L 354.4,124.16389342481423 L 369.6,131.99881309899024 L 384.8,124.11325180184885 L 400,131.50761221566876 L 415.2,125.11254318476044 L 430.40000000000003,130.06889488690328 L 445.6,126.89182752291579 L 460.79999999999995,128.07130394021644 L 476,128.97046412177303 L 491.2,126.05445155531302 L 506.40000000000003,130.78694782043627 L 521.6,124.56315303252529 L 536.8000000000001,131.85058920641126 L 552,124.00025503463296 L 567.1999999999999,131.87406526811645 L 582.4,124.51781402549716 L 597.6,130.85103438248402 L 612.8000000000001,125.97602103389224 L 628,129.05784938692395 L 643.1999999999999,127.98096845647939 L 658.4,126.97890598100251 L 673.6,129.99105689790187 L 688.8,125.17579220385898 L 704,131.46329821182565 L 719.2,124.13558583142827 L 734.4,131.99999368732338 L 749.6,124.13927934062407 L 764.8,131.45616498643676 L 780,125.18587499837636"
      stroke="url(#thread-9)"
      stroke-width="8"
      stroke-linecap="round"
      fill="none"
      opacity="0.8826086956521739"
      class="thread"
      style="animation-delay: 0.9s"
    >
      <title>2026-01-28: 11454 stars, TypeScript, JavaScript, Python, Shell</title>
    </path>

    <path
      d="M 20,136.16430290134744 L 35.2,143.81875040732976 L 50.400000000000006,136.19900771068578 L 65.6,143.78242651793738 L 80.80000000000001,136.23694296185516 L 96,143.74288796565799 L 111.2,136.27807641390038 L 126.4,143.7001683540833 L 141.60000000000002,136.3223731077333 L 156.79999999999998,143.65430399036939 L 172,136.3697953958447 L 187.2,143.6053338543794 L 202.4,136.42030297430023 L 217.6,143.55329956555468 L 232.8,136.47385291699493 L 248,143.49824534754276 L 263.20000000000005,136.5303997121356 L 278.40000000000003,143.44021799061187 L 293.59999999999997,136.58989530092114 L 308.8,143.3792668118843 L 324,136.65228911838742 L 339.2,143.3154436134217 L 354.4,136.7175281363821 L 369.6,143.24880263819924 L 384.8,136.7855569086332 L 400,143.1794005240045 L 415.2,136.85631761787218 L 430.40000000000003,143.10729625530155 L 445.6,136.9297501249728 L 460.79999999999995,143.0325511131002 L 476,137.00579202006293 L 491.2,142.95522862287362 L 506.40000000000003,137.08437867556643 L 521.6,142.8753945005686 L 536.8000000000001,137.16544330112964 L 552,142.79311659675395 L 567.1999999999999,137.24891700038603 L 582.4,142.70846483895411 L 597.6,137.33472882951116 L 612.8000000000001,142.62151117221907 L 628,137.4228058575174 L 643.1999999999999,142.53232949797797 L 658.4,137.51307322823686 L 673.6,142.4409956112308 L 688.8,137.60545422394242 L 704,142.34758713613087 L 719.2,137.69987033054863 L 734.4,142.25218346001273 L 749.6,137.79624130434095 L 764.8,142.15486566592037 L 780,137.89448524017428"
      stroke="url(#thread-10)"
      stroke-width="8"
      stroke-linecap="round"
      fill="none"
      opacity="0.8695652173913044"
      class="thread"
      style="animation-delay: 1s"
    >
      <title>2026-01-27: 12558 stars, TypeScript, JavaScript, Python, Shell</title>
    </path>

    <path
      d="M 20,149.17783869771844 L 35.2,154.2614568859558 L 50.400000000000006,155.6618533401547 L 65.6,151.09821046507017 L 80.80000000000001,148.00330698325433 L 96,151.41779427292596 L 111.2,155.78051665872434 L 126.4,153.9859334554653 L 141.60000000000002,148.95687193384893 L 156.79999999999998,148.88413547079006 L 172,153.8861895224551 L 187.2,155.8162176218385 L 202.4,151.53079418028506 L 217.6,148.0095635401261 L 232.8,150.98753365350936 L 248,155.61450184221997 L 263.20000000000005,154.3545518121205 L 278.40000000000003,149.25975688085168 L 293.59999999999997,148.6279800489665 L 308.8,153.48819258393087 L 324,155.92459447558403 L 339.2,151.9690320722164 L 354.4,148.06390695349435 L 369.6,150.56947378566485 L 384.8,155.40493037893248 L 400,154.69479658201607 L 415.2,149.595663197562 L 430.40000000000003,148.41245923970206 L 445.6,153.07226214265768 L 460.79999999999995,155.98567790334673 L 476,152.40764314395255 L 491.2,148.16568235666807 L 506.40000000000003,150.1686525105094 L 521.6,155.15432771513383 L 536.8000000000001,155.00256763686073 L 552,149.96054303632954 L 567.1999999999999,148.24017018201428 L 582.4,152.64341037904316 L 597.6,155.99873181771991 L 612.8000000000001,152.8413419015692 L 628,148.31366330255148 L 643.1999999999999,149.78989993505826 L 658.4,154.86571374462577 L 673.6,155.27415617369604 L 688.8,150.34999940333623 L 704,148.113189049594 L 719.2,152.20680518221988 L 734.4,155.96359891217497 L 749.6,153.26490204710865 L 764.8,148.50606654297593 L 780,149.43778022689736"
      stroke="url(#thread-11)"
      stroke-width="8"
      stroke-linecap="round"
      fill="none"
      opacity="0.8565217391304348"
      class="thread"
      style="animation-delay: 1.1s"
    >
      <title>2026-01-26: 5507 stars, TypeScript, JavaScript, Python, Rust, Shell</title>
    </path>

    <path
      d="M 20,162.88233800720428 L 35.2,166.7346992244838 L 50.400000000000006,167.9053610840158 L 65.6,165.24634975060135 L 80.80000000000001,161.36514356087787 L 96,160.06772894767937 L 111.2,162.62637596681182 L 126.4,166.53202548428396 L 141.60000000000002,167.95472146368053 L 156.79999999999998,165.4993404998169 L 172,161.57367702027267 L 187.2,160.0273131427353 L 202.4,162.3766434235453 L 217.6,166.31786880181173 L 232.8,167.98614685866488 L 248,165.74553161746752 L 263.20000000000005,161.79321405245275 L 278.40000000000003,160.00491379699812 L 293.59999999999997,162.1342729348752 L 308.8,166.0932003951047 L 324,167.99949475223724 L 339.2,165.98380660673698 L 354.4,162.0227590390553 L 369.6,160.00063249332928 L 384.8,161.9003636707536 L 400,165.85903915372808 L 415.2,167.99470461061057 L 430.40000000000003,166.21308487109735 L 445.6,162.26127097482723 L 460.79999999999995,160.01448864779042 L 476,161.6759764287883 L 491.2,165.61644701802715 L 506.40000000000003,167.97179815746819 L 521.6,166.43232661490273 L 536.8000000000001,162.50766818866893 L 552,160.04641942158992 L 567.1999999999999,161.46212882343949 L 582.4,165.36652416314126 L 597.6,167.93087927544508 L 612.8000000000001,166.6405375589473 L 628,162.76083324910118 L 643.1999999999999,160.09628000606193 L 658.4,161.25979067105473 L 673.6,165.1104040096197 L 688.8,167.87213353501159 L 704,166.83677344960245 L 719.2,163.01961803190773 L 734.4,160.16384427938556 L 749.6,161.06987959167301 L 764.8,164.84924808326704 L 780,167.7958273528963"
      stroke="url(#thread-12)"
      stroke-width="8"
      stroke-linecap="round"
      fill="none"
      opacity="0.8434782608695652"
      class="thread"
      style="animation-delay: 1.2000000000000002s"
    >
      <title>2026-01-25: 4122 stars, Shell, Python, TypeScript</title>
    </path>

    <path
      d="M 20,176.86047995235126 L 35.2,179.9722823049726 L 50.400000000000006,175.92492963985703 L 65.6,172.01287459566538 L 80.80000000000001,175.2867259532055 L 96,179.84609507586973 L 111.2,177.47373358446427 L 126.4,172.44529521432915 L 141.60000000000002,173.82342129482524 L 156.79999999999998,179.12434620035566 L 172,178.79433225004922 L 187.2,173.42815616088345 L 202.4,172.69715635377548 L 217.6,177.91879733281422 L 232.8,179.68223305387295 L 248,174.80926299603954 L 263.20000000000005,172.08233144761346 L 278.40000000000003,176.4161257795051 L 293.59999999999997,179.9999459822609 L 308.8,176.37475354416483 L 324,172.07415122576802 L 339.2,174.84901781745734 L 354.4,179.69827369843784 L 369.6,177.88221410775816 L 384.8,172.67388238245613 L 400,173.4601375981209 L 415.2,178.8239296711263 L 430.40000000000003,179.09821683923815 L 445.6,173.7886575111172 L 460.79999999999995,172.464550993186 L 476,177.5123046689275 L 491.2,179.83446566830105 L 506.40000000000003,175.24585547319205 L 521.6,172.01642298970677 L 536.8000000000001,175.96650171721504 L 552,179.9769536460402 L 567.1999999999999,176.81983150423244 L 582.4,172.18514548941468 L 597.6,174.4258859208 L 612.8000000000001,179.50361673791087 L 628,178.26685794333375 L 643.1999999999999,172.94459208416586 L 658.4,173.1290191618253 L 673.6,178.48775040404908 L 688.8,179.36286507004664 L 704,174.17716368828783 L 719.2,172.27671917540033 L 734.4,177.0866599149678 L 749.6,179.93813794077585 L 764.8,175.6919985681548 L 780,172.00096324579332"
      stroke="url(#thread-13)"
      stroke-width="8"
      stroke-linecap="round"
      fill="none"
      opacity="0.8304347826086957"
      class="thread"
      style="animation-delay: 1.3s"
    >
      <title>2026-01-24: 5856 stars, Shell, TypeScript, Python, Rust</title>
    </path>

    <path
      d="M 20,190.62794639487515 L 35.2,191.72605295625218 L 50.400000000000006,187.88931441699205 L 65.6,184.19916966301386 L 80.80000000000001,185.54290638819083 L 96,190.14085783184018 L 111.2,191.9034223642837 L 126.4,188.49623086903023 L 141.60000000000002,184.4318231448153 L 156.79999999999998,185.0931668467761 L 172,189.6043676261804 L 187.2,191.99071784317056 L 202.4,189.0916964812758 L 217.6,184.74681455452597 L 232.8,184.7105043108822 L 248,189.0308556272335 L 263.20000000000005,191.98592499476513 L 278.40000000000003,189.6619705097456 L 293.59999999999997,185.1368752670083 L 308.8,184.40374895949748 L 324,188.43355598553106 L 339.2,191.88915441706254 L 354.4,190.19389352211604 L 369.6,185.59300438569016 L 384.8,184.17997936552732 L 400,187.82625176644072 L 415.2,191.70263915208233 L 430.40000000000003,190.67519105991056 L 445.6,186.10467644392136 L 460.79999999999995,184.04435915326613 L 476,187.22295689725368 L 491.2,191.43068315701748 L 506.40000000000003,191.0947568793587 L 521.6,186.66008428674473 L 536.8000000000001,184.00001784451555 L 552,186.6375927869872 L 567.1999999999999,191.07956198771208 L 582.4,191.44290923496496 L 597.6,187.24641152843202 L 612.8000000000001,184.04797864289787 L 628,186.08366708110503 L 643.1999999999999,190.65737798625815 L 658.4,191.71161429188297 L 673.6,187.85012829865542 L 688.8,184.18713482278824 L 704,185.57396196409215 L 719.2,190.1738733143498 L 734.4,191.8946715117135 L 749.6,188.45730345276556 L 764.8,184.4142752677053 L 780,185.12023920249845"
      stroke="url(#thread-14)"
      stroke-width="8"
      stroke-linecap="round"
      fill="none"
      opacity="0.817391304347826"
      class="thread"
      style="animation-delay: 1.4000000000000001s"
    >
      <title>2026-01-23: 4879 stars, Unknown, Rust, Python, Shell, TypeScript, JavaScript</title>
    </path>

    <path
      d="M 20,203.75199990709896 L 35.2,201.33644178017528 L 50.400000000000006,196.2123973936106 L 65.6,198.76445964226406 L 80.80000000000001,203.82051730007097 L 96,201.1337620905595 L 111.2,196.14927937092816 L 126.4,198.96882079082158 L 141.60000000000002,203.87819115853563 L 156.79999999999998,200.92786451514797 L 172,196.0970906069665 L 187.2,199.17610867061987 L 202.4,203.92485779039959 L 217.6,200.71933344010858 L 232.8,196.0559792258194 L 248,199.38573494947744 L 263.20000000000005,203.96038474469006 L 278.40000000000003,200.50876072610575 L 293.59999999999997,196.02606191134012 L 308.8,199.5971046582815 L 324,203.98467118748206 L 339.2,200.2967440284599 L 354.4,196.00742357596502 L 369.6,199.80961787965146 L 384.8,203.99764818808904 L 400,200.0838851008593 L 415.2,196.00011711971175 L 430.40000000000003,200.0226714506467 L 445.6,203.99927891470455 L 460.79999999999995,199.87078808744093 L 476,196.0041632800366 L 491.2,200.23566067468624 L 506.40000000000003,203.98955873893954 L 521.6,199.6580578080856 L 536.8000000000001,196.01955057297667 L 552,200.44798103782102 L 567.1999999999999,203.96851524895888 L 582.4,199.446298041796 L 597.6,196.04623532574396 L 612.8000000000001,200.65902992448792 L 628,203.93620817117974 L 643.1999999999999,199.23610981302858 L 658.4,196.0841418006792 L 673.6,200.8682083278756 L 688.8,203.8927292007536 L 704,199.02808968584299 L 719.2,196.13316241021334 L 734.4,201.07492255004817 L 749.6,203.83820174131378 L 764.8,198.8228280707127 L 780,196.19315802222644"
      stroke="url(#thread-15)"
      stroke-width="8"
      stroke-linecap="round"
      fill="none"
      opacity="0.8043478260869565"
      class="thread"
      style="animation-delay: 1.5s"
    >
      <title>2026-01-22: 6303 stars, Rust, Unknown, Shell, TypeScript, Python</title>
    </path>

    <path
      d="M 20,215.95743298649353 L 35.2,213.4294146399426 L 50.400000000000006,209.44180194323528 L 65.6,208.06639939598102 L 80.80000000000001,210.7076488802384 L 96,214.6685353264469 L 111.2,215.90454476577722 L 126.4,213.15357147748554 L 141.60000000000002,209.22467097060382 L 156.79999999999998,208.12969594478082 L 172,210.98674000042752 L 187.2,214.8784373535071 L 202.4,215.83092394082402 L 217.6,212.87160300661577 L 232.8,209.02227661948535 L 248,208.21354328427884 L 263.20000000000005,211.27121139407242 L 278.40000000000003,215.07305526780877 L 293.59999999999997,215.73696142825 L 308.8,212.58500644174993 L 324,208.83569357649077 L 339.2,208.3174961964509 L 354.4,211.55955255657528 L 369.6,215.2513556745679 L 384.8,215.6231561562794 L 400,212.2953035718574 L 415.2,208.66591257232486 L 430.40000000000003,208.44100270540306 L 445.6,211.85023243538942 L 460.79999999999995,215.4123918227571 L 476,215.49011241550315 L 491.2,212.0040326799668 L 506.40000000000003,208.5138351211404 L 521.6,208.58340700828907 L 536.8000000000001,212.14170755970096 L 552,215.55530863222526 L 567.1999999999999,215.33853665017764 L 582.4,211.7127403750914 L 597.6,208.38026873361989 L 612.8000000000001,208.74395295753462 L 628,212.4324302360502 L 643.1999999999999,215.6793472340575 L 658.4,215.16923370710143 L 673.6,211.42297337994452 L 688.8,208.2659226292032 L 704,208.9217880758787 L 719.2,212.72085676637428 L 734.4,215.78384900006643 L 749.6,214.98310256198755 L 764.8,211.13627031805112 L 780,208.17140397022837"
      stroke="url(#thread-16)"
      stroke-width="8"
      stroke-linecap="round"
      fill="none"
      opacity="0.791304347826087"
      class="thread"
      style="animation-delay: 1.6s"
    >
      <title>2026-01-21: 4215 stars, Unknown, TypeScript, Python, Shell, JavaScript</title>
    </path>

    <path
      d="M 20,227.19394845049396 L 35.2,221.38853125575588 L 50.400000000000006,221.14710222947045 L 65.6,226.9840493951336 L 80.80000000000001,226.46318907594886 L 96,220.6942648442825 L 111.2,221.9685308996873 L 126.4,227.5710394675211 L 141.60000000000002,225.56510110672204 L 156.79999999999998,220.22456260589558 L 172,222.92796069739117 L 187.2,227.91544279677643 L 202.4,224.56069317558908 L 217.6,220.01133220705714 L 232.8,223.96021593578115 L 248,227.99386348298646 L 263.20000000000005,223.51819640993054 L 278.40000000000003,220.06905874894323 L 293.59999999999997,224.99517377285562 L 308.8,227.80097427647084 L 324,222.5084293759951 L 339.2,220.39382077005348 L 354.4,225.96252777451937 L 369.6,227.34987846685138 L 384.8,221.5999872540691 L 400,220.9635566377146 L 415.2,226.79656394941108 L 430.40000000000003,226.67121975445446 L 445.6,220.85458205201093 L 460.79999999999995,221.7395632320539 L 476,227.44062481133895 L 491.2,225.81110057198515 L 506.40000000000003,220.32285040431475 L 521.6,222.66912511430863 L 536.8000000000001,227.85095821802201 L 552,224.82795026839867 L 567.1999999999999,220.04091373999532 L 582.4,223.68909557562625 L 597.6,227.99968952802018 L 612.8000000000001,223.7885559045286 L 628,220.02792449289961 L 643.1999999999999,224.73018629966285 L 658.4,227.87671517221236 L 673.6,222.7635252952296 L 688.8,220.284765044524 L 704,225.72167423495256 L 719.2,227.4903890063135 L 734.4,221.82249050124537 L 749.6,220.79398778234844 L 764.8,226.59620593125615 L 780,226.86695481934493"
      stroke="url(#thread-17)"
      stroke-width="8"
      stroke-linecap="round"
      fill="none"
      opacity="0.7782608695652173"
      class="thread"
      style="animation-delay: 1.7000000000000002s"
    >
      <title>2026-01-20: 6510 stars, Python, Vue, TypeScript, Unknown, Shell, JavaScript</title>
    </path>

    <path
      d="M 20,237.64847394096702 L 35.2,233.36543044679692 L 50.400000000000006,232.16932878373927 L 65.6,235.46164884571712 L 80.80000000000001,239.38475836472904 L 96,239.34192507096282 L 111.2,235.3833370060021 L 126.4,232.14729687664507 L 141.60000000000002,233.42549339740137 L 156.79999999999998,237.7202556096478 L 172,239.99938342910647 L 187.2,237.5924083552265 L 202.4,233.3195983262643 L 217.6,232.18743191431304 L 232.8,235.5224756746507 L 248,239.41703771132399 L 263.20000000000005,239.30783502037775 L 278.40000000000003,235.32282108641144 L 293.59999999999997,232.13126197430108 L 308.8,233.47272770893497 L 324,237.77541439308413 L 339.2,239.99783678855385 L 354.4,237.5359684992158 L 369.6,233.27439619153608 L 384.8,232.20643112840878 L 400,235.58341473808596 L 415.2,239.44851393752387 L 430.40000000000003,239.2729675157542 L 445.6,235.26246432695962 L 460.79999999999995,232.11613635733056 L 476,233.52055601564578 L 491.2,237.8301558935903 L 506.40000000000003,239.99535052001576 L 521.6,237.47916763822596 L 536.8000000000001,233.2298346666554 L 552,232.2263219605633 L 567.1999999999999,235.6444517132648 L 582.4,239.47917964534207 L 597.6,239.23733075214486 L 612.8000000000001,235.20228091354355 L 628,232.10192358076938 L 643.1999999999999,233.56896707625057 L 658.4,237.88446724504675 L 673.6,239.9919252078501 L 688.8,237.42201912239634 L 704,233.1859242251004 L 719.2,232.24709973575264 L 734.4,235.70557225441644 L 749.6,239.5090276272915 L 764.8,239.20093310540446 L 780,235.14228499131775"
      stroke="url(#thread-18)"
      stroke-width="8"
      stroke-linecap="round"
      fill="none"
      opacity="0.7652173913043478"
      class="thread"
      style="animation-delay: 1.8s"
    >
      <title>2026-01-19: 4551 stars, JavaScript, TypeScript, Shell, Python</title>
    </path>

    <path
      d="M 20,247.69939551815276 L 35.2,244.61983688022445 L 50.400000000000006,244.26674776853508 L 65.6,246.92493298952604 L 80.80000000000001,250.4502767880346 L 96,251.99920561581519 L 111.2,250.32233975431228 L 126.4,246.77225406721524 L 141.60000000000002,244.21247912935914 L 156.79999999999998,244.7077520894524 L 172,247.8585813889474 L 187.2,251.12348019331992 L 202.4,251.8689521945672 L 217.6,249.4936930703701 L 232.8,245.91360787902485 L 248,244.01642506133828 L 263.20000000000005,245.33242909022957 L 278.40000000000003,248.80011945402578 L 293.59999999999997,251.62242637582494 L 308.8,251.52285208220312 L 324,248.58171408078837 L 339.2,245.1713603468622 L 354.4,244.04261242357614 L 369.6,246.10592838842362 L 384.8,249.69701929977137 L 400,251.9192794055297 L 415.2,250.98021401149907 L 430.40000000000003,247.63728158617494 L 445.6,244.58692104772632 L 460.79999999999995,244.2895802376983 L 476,246.98509688839016 L 491.2,250.4992433826243 L 506.40000000000003,251.9974780170095 L 521.6,250.27131145861725 L 536.8000000000001,246.7130849501335 L 552,244.19289552506484 L 567.1999999999999,244.74355030671248 L 582.4,247.92088626848852 L 597.6,251.16203606718005 L 612.8000000000001,251.8526595532221 L 628,249.43569370270842 L 643.1999999999999,245.8606845889727 L 658.4,244.01126624363948 L 673.6,245.3791958929556 L 688.8,248.86108935966675 L 704,251.64842051819676 L 719.2,251.49290335571763 L 734.4,248.519979393624 L 749.6,245.127635444757 L 764.8,244.05216620004302 L 780,246.1610546827022"
      stroke="url(#thread-19)"
      stroke-width="7.412"
      stroke-linecap="round"
      fill="none"
      opacity="0.7521739130434782"
      class="thread"
      style="animation-delay: 1.9000000000000001s"
    >
      <title>2026-01-18: 3706 stars, JavaScript, Shell, Vue, TypeScript, Python, HTML</title>
    </path>

    <path
      d="M 20,257.8239155564425 L 35.2,256.6366219847072 L 50.400000000000006,262.15410644623864 L 65.6,263.37745402622136 L 80.80000000000001,257.86796353078904 L 96,256.6086141791392 L 111.2,262.10987545485597 L 126.4,263.4051728043278 L 141.60000000000002,257.9123756505576 L 156.79999999999998,256.5811856120779 L 172,262.065284103086 L 187.2,263.43230998915215 L 202.4,257.95714433029144 L 217.6,256.55434096824024 L 232.8,262.0203400069976 L 248,263.4588609457448 L 263.20000000000005,258.0022619236347 L 278.40000000000003,256.52808483261066 L 293.59999999999997,261.97505084290736 L 308.8,263.48482113928213 L 324,258.047720724638 L 339.2,256.50242168965815 L 354.4,261.9294243460684 L 369.6,263.5101861358411 L 384.8,258.09351296907477 L 400,256.47735592257055 L 415.2,261.8834683093492 L 430.40000000000003,263.5349516031565 L 445.6,258.1396308357672 L 460.79999999999995,256.4528918125054 L 476,261.83719058190275 L 491.2,263.55911331136105 L 506.40000000000003,258.18606644792226 L 521.6,256.42903353785937 L 536.8000000000001,261.79059906782595 L 552,263.58266713370745 L 567.1999999999999,258.2328118744771 L 582.4,256.40578517355385 L 597.6,261.74370172480917 L 612.8000000000001,263.6056090472737 L 628,258.27985913145307 L 643.1999999999999,256.3831506903398 L 658.4,261.69650656277787 L 673.6,263.6279351336499 L 688.8,258.3272001833202 L 704,256.36113395411877 L 719.2,261.6490216425238 L 734.4,263.64964157960753 L 749.6,258.3748269443692 L 764.8,256.33973872528327 L 780,261.60125507432866"
      stroke="url(#thread-20)"
      stroke-width="8"
      stroke-linecap="round"
      fill="none"
      opacity="0.7391304347826088"
      class="thread"
      style="animation-delay: 2s"
    >
      <title>2026-01-17: 6237 stars, JavaScript, TypeScript, Shell, Python</title>
    </path>

    <path
      d="M 20,268.48121696011333 L 35.2,269.65632539162584 L 50.400000000000006,274.9091025581847 L 65.6,275.10044478570904 L 80.80000000000001,269.897443138768 L 96,268.3525987915088 L 111.2,273.15372662779964 L 126.4,275.94753016140805 L 141.60000000000002,271.87317876330746 L 156.79999999999998,268.0194787260883 L 172,271.09133358024394 L 187.2,275.74414196659495 L 202.4,273.88266266889315 L 217.6,268.7456114653669 L 232.8,269.27074490639444 L 248,274.544403644149 L 263.20000000000005,275.3911529670843 L 278.40000000000003,270.33776650315286 L 293.59999999999997,268.1764357607033 L 308.8,272.6675764404011 L 324,275.99722671116984 L 339.2,272.37225694689175 L 354.4,268.0996117295791 L 369.6,270.613101092557 L 384.8,275.539602182224 L 400,274.30768644159167 L 415.2,269.06071638431234 L 430.40000000000003,268.9276921198059 L 445.6,274.140057416948 L 460.79999999999995,275.62901964904324 L 476,270.8039910613813 L 491.2,268.0598521323843 L 506.40000000000003,272.17102396787175 L 521.6,275.98463782144376 L 536.8000000000001,272.86553456192814 L 552,268.2405212201572 L 567.1999999999999,270.15647949017057 L 582.4,275.2799077385198 L 597.6,274.69675146723864 L 612.8000000000001,269.421621700636 L 628,268.63251253641215 L 643.1999999999999,273.7023644655366 L 658.4,275.81033835409636 L 673.6,271.2888520262376 L 688.8,268.0046645316901 L 704,271.6718065719413 L 719.2,275.90995965436576 L 734.4,273.3453252760513 L 749.6,268.4400115231254 L 764.8,269.7285839254739 L 780,274.9691052367207"
      stroke="url(#thread-21)"
      stroke-width="8"
      stroke-linecap="round"
      fill="none"
      opacity="0.7260869565217392"
      class="thread"
      style="animation-delay: 2.1s"
    >
      <title>2026-01-16: 5731 stars, JavaScript, TypeScript, Shell, Python, C</title>
    </path>

    <path
      d="M 20,280.0000391737972 L 35.2,281.66075678120734 L 50.400000000000006,285.2471624731232 L 65.6,287.80689171915174 L 80.80000000000001,287.2327501629994 L 96,283.9973767951824 L 111.2,280.7641628754381 L 126.4,280.1947219845566 L 141.60000000000002,282.75782347905096 L 156.79999999999998,286.3434969344374 L 172,287.99998060465435 L 187.2,286.3636407981349 L 202.4,282.7815285792157 L 217.6,280.20247404898186 L 232.8,280.7495803282475 L 248,283.97246413301866 L 263.20000000000005,287.21801573501443 L 278.40000000000003,287.8144650517559 L 293.59999999999997,285.2708091242376 L 308.8,281.6810105944599 L 324,280.0002270103997 L 339.2,281.61209599231614 L 354.4,285.1897110999876 L 369.6,287.7879442986531 L 384.8,287.2679043985288 L 400,284.0576933734033 L 415.2,280.7999885943898 L 430.40000000000003,280.176564759128 L 445.6,282.70063051625954 L 460.79999999999995,286.29435004522105 L 476,287.9993379928434 L 491.2,286.41203146810875 L 506.40000000000003,282.8391168542815 L 521.6,280.22185269323927 L 536.8000000000001,280.71479665065505 L 552,283.9121523999652 L 567.1999999999999,287.1818251598711 L 582.4,287.8321880728485 L 597.6,285.3278559758397 L 612.8000000000001,281.73041974580536 L 628,280.00132436088745 L 643.1999999999999,281.56397819220393 L 658.4,285.13198919680747 L 673.6,287.76813553228675 L 688.8,287.30231554077915 L 704,284.1179968326487 L 719.2,280.83654196833936 L 734.4,280.1592769499012 L 749.6,282.6437330188834 L 764.8,286.2446814405901 L 780,287.99778596606166"
      stroke="url(#thread-22)"
      stroke-width="7.494"
      stroke-linecap="round"
      fill="none"
      opacity="0.7130434782608696"
      class="thread"
      style="animation-delay: 2.2s"
    >
      <title>2026-01-15: 3747 stars, TypeScript, Shell, Python, JavaScript, C</title>
    </path>

    <path
      d="M 20,292.49819130124627 L 35.2,295.7589182631234 L 50.400000000000006,299.2437596126129 L 65.6,299.71313737468586 L 80.80000000000001,296.7307086265281 L 96,293.0689985753604 L 111.2,292.13200586647054 L 126.4,294.79077759729 L 141.60000000000002,298.5736665747396 L 156.79999999999998,299.96402380843676 L 172,297.66934550265864 L 187.2,293.8228103458021 L 202.4,292.0002340851615 L 217.6,293.89591993848495 L 232.8,297.7476005535155 L 248,299.97467686248586 L 263.20000000000005,298.5068143406103 L 278.40000000000003,294.7085672442641 L 293.59999999999997,292.11086177725946 L 308.8,293.12857671671867 L 324,296.8156239707942 L 339.2,299.74445092537815 L 354.4,299.19236166889596 L 369.6,295.6725893778914 L 384.8,292.45718452683616 L 400,292.5352515516626 L 415.2,295.8342177901344 L 430.40000000000003,299.2872984751106 L 445.6,299.6844409783172 L 460.79999999999995,296.6564537133067 L 476,293.0182139925952 L 491.2,292.15190197449004 L 506.40000000000003,294.86285857752904 L 521.6,298.63092451131837 L 536.8000000000001,299.953230582301 L 552,297.60053471194436 L 567.1999999999999,293.75994987302863 L 582.4,292.0017602786942 L 597.6,293.96041401839716 L 612.8000000000001,297.8151075376862 L 628,299.982440912945 L 643.1999999999999,298.4476178413054 L 658.4,294.6374404407973 L 673.6,292.09392556376537 L 688.8,293.18157533481786 L 704,296.8892888487836 L 719.2,299.7703017244606 L 734.4,299.14636697101076 L 749.6,295.5975067709153 L 764.8,292.4228122986892 L 780,292.5735428107048"
      stroke="url(#thread-23)"
      stroke-width="8"
      stroke-linecap="round"
      fill="none"
      opacity="0.7"
      class="thread"
      style="animation-delay: 2.3000000000000003s"
    >
      <title>2026-01-14: 4003 stars, TypeScript, Shell, Python, C, HTML, Jupyter Notebook</title>
    </path>

    <path
      d="M 20,305.8537083279983 L 35.2,310.5847598846169 L 50.400000000000006,311.68309455188444 L 65.6,307.60507227267647 L 80.80000000000001,304.0820959896787 L 96,306.0654865277755 L 111.2,310.7677136607341 L 126.4,311.58009391852477 L 141.60000000000002,307.36087811948636 L 156.79999999999998,304.03990778746936 L 172,306.2845971321848 L 187.2,310.940176945698 L 202.4,311.4635236214701 L 217.6,307.11910643597895 L 232.8,304.01272956006744 L 248,306.51020964423884 L 263.20000000000005,311.1014960502954 L 278.40000000000003,311.33382549821505 L 293.59999999999997,306.88067361164303 L 308.8,304.00066432136424 L 324,306.7414689227085 L 339.2,311.25105952520494 L 354.4,311.1914911447778 L 369.6,306.6464833806582 L 384.8,304.0037578023476 L 400,306.97749842337265 L 415.2,311.3883004785792 L 430.40000000000003,311.03706005239854 L 445.6,306.4174233964625 L 460.79999999999995,304.02199827776747 L 476,307.2174035213921 L 491.2,311.51269872474006 L 506.40000000000003,310.87111756270104 L 521.6,306.1943618672711 L 536.8000000000001,304.055316610578 L 552,307.46027490221456 L 567.1999999999999,311.6237827558436 L 582.4,310.6942926490669 L 597.6,305.9781442652988 L 612.8000000000001,304.10358651398866 L 628,307.70519200815806 L 643.1999999999999,311.7211315290406 L 658.4,310.50725553263135 L 673.6,305.76959012215866 L 688.8,304.16662503013 L 704,307.9512265276093 L 719.2,311.8043760623592 L 734.4,310.3107151419384 L 749.6,305.5694899225834 L 764.8,304.2441932235204 L 780,308.19744591361246"
      stroke="url(#thread-24)"
      stroke-width="8"
      stroke-linecap="round"
      fill="none"
      opacity="0.6869565217391305"
      class="thread"
      style="animation-delay: 2.4000000000000004s"
    >
      <title>2026-01-13: 5049 stars, TypeScript, Shell, C, Rust, Python</title>
    </path>

    <path
      d="M 20,319.7347124105952 L 35.2,323.01761252125834 L 50.400000000000006,323.9161926387851 L 65.6,321.72045354208245 L 80.80000000000001,318.16532461360015 L 96,316.05983614554526 L 111.2,317.0676073780739 L 126.4,320.39236341462515 L 141.60000000000002,323.40709955051807 L 156.79999999999998,323.7297685241503 L 172,321.10541842251894 L 187.2,317.6076390031652 L 202.4,316.00014672815774 L 217.6,317.5530768262946 L 232.8,321.03940553132145 L 248,323.704463986491 L 263.20000000000005,323.44249735655745 L 278.40000000000003,320.46049453386036 L 293.59999999999997,317.1146390574251 L 308.8,316.04860702894115 L 324,318.10470721433916 L 339.2,321.65834376329053 L 354.4,323.90166556425766 L 369.6,323.06214649488265 L 384.8,319.803119599958 L 400,316.69965471664676 L 415.2,316.20390675786336 L 430.40000000000003,318.7075833273366 L 445.6,322.2324429978161 L 460.79999999999995,323.99337226446414 L 476,322.59900002599124 L 491.2,319.15106800127086 L 506.40000000000003,316.37390650229685 L 521.6,316.46184685541556 L 536.8000000000001,319.3454043469114 L 552,322.74618049788853 L 567.1999999999999,323.97710448270806 L 582.4,322.06558069926376 L 597.6,318.52197018367747 L 612.8000000000001,316.1462021318546 L 628,316.81545302855255 L 643.1999999999999,320.0009245995795 L 658.4,323.1856656125087 L 673.6,323.85330207412727 L 688.8,321.4763113312217 L 704,317.9328359590511 L 719.2,316.0226983720351 L 734.4,317.2551643245671 L 749.6,320.6564198525346 L 764.8,323.5390153579631 L 780,323.6253124604112"
      stroke="url(#thread-25)"
      stroke-width="7.33"
      stroke-linecap="round"
      fill="none"
      opacity="0.673913043478261"
      class="thread"
      style="animation-delay: 2.5s"
    >
      <title>2026-01-12: 3665 stars, TypeScript, Unknown, Python, Shell, C</title>
    </path>

    <path
      d="M 20,333.68066814730656 L 35.2,335.86758468341753 L 50.400000000000006,335.2529095969765 L 65.6,332.28189973785885 L 80.80000000000001,329.10668802962044 L 96,328.02732663654103 L 111.2,329.82568074945215 L 126.4,333.19906297311314 L 141.60000000000002,335.70387086541194 L 156.79999999999998,335.52567775399825 L 172,332.79356273318984 L 187.2,329.4866086623649 L 202.4,328.00029891922696 L 217.6,329.41128295446447 L 232.8,332.697475571178 L 248,335.47843252349224 L 263.20000000000005,335.7396909520195 L 278.40000000000003,333.2920011092827 L 293.59999999999997,329.9084146332766 L 308.8,328.0399256977041 L 324,329.0400257907219 L 339.2,332.1842648300021 L 354.4,335.195026558164 L 369.6,335.89138268906464 L 384.8,333.7689084557407 L 400,330.365076600976 L 415.2,328.1455465968879 L 430.40000000000003,328.71809621033873 L 445.6,331.6679833395158 L 460.79999999999995,334.8583758928011 L 476,335.9782250421603 L 491.2,334.21633717396196 L 506.40000000000003,330.8489843534524 L 521.6,328.31540145829706 L 536.8000000000001,328.45085912769906 L 552,331.1572348632852 L 567.1999999999999,334.4740907667452 L 582.4,335.9987707948416 L 597.6,334.6268309228317 L 612.8000000000001,331.3520736312526 L 628,328.5466596728644 L 643.1999999999999,328.24276801386 L 658.4,330.6605309579172 L 673.6,334.0485752413997 L 688.8,335.9526775548252 L 704,334.99354887767225 L 719.2,331.8659605173106 L 734.4,328.83546735266737 L 749.6,328.0972906800382 L 764.8,330.1861491290807 L 780,333.5889204773841"
      stroke="url(#thread-26)"
      stroke-width="6.996"
      stroke-linecap="round"
      fill="none"
      opacity="0.6608695652173913"
      class="thread"
      style="animation-delay: 2.6s"
    >
      <title>2026-01-11: 3498 stars, TypeScript, Unknown, Shell, Python</title>
    </path>

    <path
      d="M 20,347.21513770620646 L 35.2,347.77966259805766 L 50.400000000000006,345.05423806471987 L 65.6,341.4111681529772 L 80.80000000000001,340.02150727605164 L 96,342.09486446243113 L 111.2,345.8265177014669 L 126.4,347.9683065792958 L 141.60000000000002,346.6559437674377 L 156.79999999999998,343.0317553774165 L 172,340.2503606910312 L 187.2,340.73278211763625 L 202.4,344.05910331444124 L 217.6,347.3339789363231 L 232.8,347.70684365099197 L 248,344.8531430777663 L 263.20000000000005,341.25683717787905 L 278.40000000000003,340.0482753465958 L 293.59999999999997,342.2794317215496 L 308.8,346.0082304049981 L 324,347.9889956872733 L 339.2,346.49760076266386 L 354.4,342.8322075034676 L 369.6,340.1833013388287 L 384.8,340.8565820733306 L 400,344.26600280252126 L 415.2,347.44388546593234 L 430.40000000000003,347.62409076658537 L 445.6,344.64976176026425 L 460.79999999999995,341.109857580437 L 476,340.0856336089018 L 491.2,342.468609916299 L 506.40000000000003,346.18456126972313 L 521.6,347.9989947211766 L 536.8000000000001,346.33256445981357 L 552,342.6357891862467 L 567.1999999999999,340.1264703234321 L 582.4,340.98880604677703 L 597.6,344.47218943205587 L 612.8000000000001,347.5445627575027 L 628,347.5316257135571 L 643.1999999999999,344.4446391519983 L 658.4,340.9706232499674 L 673.6,340.1334819468947 L 688.8,342.6618920697174 L 704,346.3550377481255 L 719.2,347.9982768846837 L 734.4,346.1612771382075 L 749.6,342.44302680545576 L 764.8,340.08001994577427 L 780,341.1290996921246"
      stroke="url(#thread-27)"
      stroke-width="7.724"
      stroke-linecap="round"
      fill="none"
      opacity="0.6478260869565218"
      class="thread"
      style="animation-delay: 2.7s"
    >
      <title>2026-01-10: 3862 stars, TypeScript, Unknown, Shell, Python</title>
    </path>

    <path
      d="M 20,359.9624294227795 L 35.2,358.6526069149056 L 50.400000000000006,354.97972133892193 L 65.6,352.2157464687146 L 80.80000000000001,352.82295701987334 L 96,356.2604221745122 L 111.2,359.4658913936626 L 126.4,359.5837866852848 L 141.60000000000002,356.5090815533793 L 156.79999999999998,352.9808633846621 L 172,352.1422296369132 L 187.2,354.7402734530481 L 202.4,358.46053905873345 L 217.6,359.98884439142773 L 232.8,357.96370544526803 L 248,354.1892082401505 L 263.20000000000005,352.0278468176825 L 278.40000000000003,353.40506038469545 L 293.59999999999997,357.0939643625432 L 308.8,359.8083150553083 L 324,359.1300452250866 L 339.2,355.66338853235885 L 354.4,352.49660066792046 L 369.6,352.45080051106794 L 384.8,355.56678892775835 L 400,359.0687015007035 L 415.2,359.8368749950775 L 430.40000000000003,357.1869854711907 L 445.6,353.47967522145416 L 460.79999999999995,352.01758508720366 L 476,354.10321155937453 L 491.2,357.878583574646 L 506.40000000000003,359.9804277706772 L 521.6,358.53632559700264 L 536.8000000000001,354.8327490499109 L 552,352.16901281834885 L 567.1999999999999,352.9180944726528 L 582.4,356.4126779539159 L 597.6,359.53962911602827 L 612.8000000000001,359.51331742871844 L 628,356.3571825415597 L 643.1999999999999,352.8828531764366 L 658.4,352.1854201902104 L 673.6,354.8861886556274 L 688.8,358.57919100158614 L 704,359.97453251917216 L 719.2,357.82917942562636 L 734.4,354.05430997918455 L 749.6,352.0127498309816 L 764.8,353.5232137556923 L 780,357.24011168637566"
      stroke="url(#thread-28)"
      stroke-width="7.822"
      stroke-linecap="round"
      fill="none"
      opacity="0.6347826086956522"
      class="thread"
      style="animation-delay: 2.8000000000000003s"
    >
      <title>2026-01-09: 3911 stars, TypeScript, Unknown, Python, Shell</title>
    </path>

    <path
      d="M 20,371.7395802220987 L 35.2,369.0300960959911 L 50.400000000000006,365.4629772012504 L 65.6,364.00812624878256 L 80.80000000000001,365.87681931746147 L 96,369.5132247195059 L 111.2,371.8897533612616 L 126.4,371.02776111452135 L 141.60000000000002,367.6449232757683 L 156.79999999999998,364.55771430641744 L 172,364.33647474115804 L 187.2,367.165403650448 L 202.4,370.68919865032467 L 217.6,371.9740275272781 L 232.8,369.9501707464926 L 248,366.30264580166653 L 263.20000000000005,364.06829966689656 L 278.40000000000003,365.10739852297615 L 293.59999999999997,368.5548121063416 L 308.8,371.5403016475629 L 324,371.5782159128314 L 339.2,368.636988340301 L 354.4,365.165418647281 L 369.6,364.0538574350928 L 384.8,366.2277654901103 L 400,369.8771960131461 L 415.2,371.96371548867955 L 430.40000000000003,370.7501348771524 L 445.6,367.24685401508015 L 460.79999999999995,364.3706255076741 L 476,364.51613231712105 L 491.2,367.5622287567805 L 506.40000000000003,370.9728036566088 L 521.6,371.90828930393957 L 536.8000000000001,369.5898214551061 L 552,365.9477041320885 L 567.1999999999999,364.0142820450715 L 582.4,365.39927880209734 L 597.6,368.9495773513762 L 612.8000000000001,371.7092792221353 L 628,371.3807189008018 L 643.1999999999999,368.2374482979844 L 658.4,364.8964835995416 L 673.6,364.13943663500226 L 688.8,366.5966076266503 L 704,370.2222114452 L 719.2,371.9976521517109 L 734.4,370.4447378711957 L 749.6,366.8563899969689 L 764.8,364.22018600929124 L 780,364.7309698706245"
      stroke="url(#thread-29)"
      stroke-width="7.54"
      stroke-linecap="round"
      fill="none"
      opacity="0.6217391304347826"
      class="thread"
      style="animation-delay: 2.9000000000000004s"
    >
      <title>2026-01-08: 3770 stars, TypeScript, Unknown, Python, Rust, JavaScript</title>
    </path>

    <path
      d="M 20,382.6011513606285 L 35.2,379.2533350845255 L 50.400000000000006,376.46559455595474 L 65.6,376.32902288523445 L 80.80000000000001,378.9460629205353 L 96,382.3536645389501 L 111.2,383.9957748388732 L 126.4,382.6406416183477 L 141.60000000000002,379.30475465178483 L 156.79999999999998,376.49037345045866 L 172,376.30857437875363 L 187.2,378.8957255033561 L 202.4,382.3111964691226 L 217.6,383.9930315517634 L 232.8,382.6796808624139 L 248,379.3562929648604 L 263.20000000000005,376.51575177863054 L 278.40000000000003,376.2887563566758 L 293.59999999999997,378.8455766929424 L 308.8,382.2683336538836 L 324,383.989606266864 L 339.2,382.7182624250415 L 354.4,379.4079412211632 L 369.6,376.54172520592806 L 384.8,376.2695722038596 L 400,378.79562505456045 L 415.2,382.225083414073 L 430.40000000000003,383.98549956920334 L 445.6,382.7563797166155 L 460.79999999999995,379.45969059932617 L 476,376.56828929616796 L 491.2,376.2510251969007 L 506.40000000000003,378.7458791197999 L 521.6,382.181453136702 L 536.8000000000001,383.98071216019315 L 552,382.79402622681715 L 567.1999999999999,379.5115322607111 L 582.4,376.5954395122834 L 597.6,376.2331185035721 L 612.8000000000001,378.6963473851169 L 628,382.1374502736906 L 643.1999999999999,383.97524485750836 L 658.4,382.8311955257356 L 673.6,379.56345735091804 L 688.8,376.6231712170992 L 704,376.21585518228324 L 719.2,378.6470383103829 L 734.4,382.09308234059574 L 749.6,383.969098594948 L 764.8,382.8678812649663 L 780,379.61545700129756"
      stroke="url(#thread-30)"
      stroke-width="7.128"
      stroke-linecap="round"
      fill="none"
      opacity="0.6086956521739131"
      class="thread"
      style="animation-delay: 3s"
    >
      <title>2026-01-07: 3564 stars, TypeScript, Python, Unknown, Shell, Rust</title>
    </path>

    <path
      d="M 20,392.82586992775117 L 35.2,388.98527917051047 L 50.400000000000006,388.2349606481967 L 65.6,391.3440364878662 L 80.80000000000001,395.1255148295662 L 96,395.7031503466898 L 111.2,392.4848314967639 L 126.4,388.76953087047855 L 141.60000000000002,388.36565761056704 L 156.79999999999998,391.68720637594623 L 172,395.329387633137 L 187.2,395.5587440405606 L 202.4,392.140171328916 L 217.6,388.57791447854623 L 232.8,388.52350345225733 L 248,392.0327128618042 L 263.20000000000005,395.50838959808675 L 278.40000000000003,395.3877535818847 L 293.59999999999997,391.79446406806323 L 308.8,388.4118613871754 L 324,388.7073190499907 L 339.2,392.37797497950913 L 354.4,395.66118356290895 L 369.6,395.19145628546346 L 384.8,391.4502921799449 L 400,388.27261202856954 L 415.2,388.91573128397135 L 430.40000000000003,392.720413588583 L 445.6,395.786628142322 L 460.79999999999995,394.9713185105554 L 476,391.11022666092134 L 491.2,388.16120660852846 L 506.40000000000003,389.1471832952182 L 521.6,393.0574706404228 L 536.8000000000001,395.8837862535243 L 552,394.7289847070347 L 567.1999999999999,390.77680783238986 L 582.4,388.0784773360134 L 597.6,389.3999461154481 L 612.8000000000001,393.38662828716406 L 628,395.95193211629135 L 643.1999999999999,394.46626513119594 L 658.4,390.45252636434486 L 673.6,388.02504220646745 L 688.8,389.6721315826311 L 704,393.7054276902408 L 719.2,395.99055667462164 L 734.4,394.18512232296916 L 749.6,390.1398046698389 L 764.8,388.00130038533194 L 780,389.96170644573886"
      stroke="url(#thread-31)"
      stroke-width="8"
      stroke-linecap="round"
      fill="none"
      opacity="0.5956521739130435"
      class="thread"
      style="animation-delay: 3.1s"
    >
      <title>2026-01-06: 4224 stars, TypeScript, Python, Rust, JavaScript, Go</title>
    </path>

    <path
      d="M 20,402.84838673333974 L 35.2,400.2194266701513 L 50.400000000000006,400.72883375182124 L 65.6,403.95373390370884 L 80.80000000000001,407.21704092774326 L 96,407.80978593104356 L 111.2,405.2399135343504 L 126.4,401.64075177883234 L 141.60000000000002,400.0000726284313 L 156.79999999999998,401.6798529823175 L 172,405.2856568612724 L 187.2,407.8241984757653 L 202.4,407.1881584052523 L 217.6,403.9055325609227 L 232.8,400.70132696696055 L 248,400.235448649125 L 263.20000000000005,402.89463715156216 L 278.40000000000003,406.47142045881253 L 293.59999999999997,407.99660362704947 L 308.8,406.2040864308669 L 324,402.5818910786101 L 339.2,400.13691041270323 L 354.4,400.8987961082278 L 369.6,404.2350840317431 L 384.8,407.3762216600166 L 400,407.714656574419 L 415.2,404.969443816775 L 430.40000000000003,401.41946671311723 L 445.6,400.0116675748556 L 460.79999999999995,401.9147026285993 L 476,405.54880548256085 L 491.2,407.8971985205353 L 506.40000000000003,407.0104103500743 L 521.6,403.6245903897464 L 536.8000000000001,400.55040918996895 L 552,400.3398366328097 L 567.1999999999999,403.1676753043685 L 582.4,406.6864516329225 L 597.6,407.9751240049021 L 612.8000000000001,405.9639268900963 L 628,402.3224152465074 L 643.1999999999999,400.07351694849467 L 658.4,401.08410982511305 L 673.6,404.5152704634066 L 688.8,407.5186896582784 L 704,407.60113918717207 L 719.2,404.69417522688605 L 734.4,401.2109556210255 L 749.6,400.04300528276985 L 764.8,402.1598747666522 L 780,405.80428731633583"
      stroke="url(#thread-32)"
      stroke-width="7.528"
      stroke-linecap="round"
      fill="none"
      opacity="0.5826086956521739"
      class="thread"
      style="animation-delay: 3.2s"
    >
      <title>2026-01-05: 3764 stars, Go, TypeScript, Python, Rust, JavaScript</title>
    </path>

    <path
      d="M 20,413.1528586305235 L 35.2,412.0822778397308 L 50.400000000000006,414.49522985592995 L 65.6,418.24618287102834 L 80.80000000000001,419.9998907008804 L 96,418.1970036751287 L 111.2,414.44060027779574 L 126.4,412.0707730258062 L 141.60000000000002,413.19470835083945 L 156.79999999999998,416.81303329648824 L 172,419.7084309783775 L 187.2,419.3063919235189 L 202.4,415.96439840860245 L 217.6,412.65406086788244 L 232.8,412.31884209774125 L 248,415.2568095811537 L 263.20000000000005,418.8556019265607 L 278.40000000000003,419.9152701105444 L 293.59999999999997,417.4935857839716 L 308.8,413.7438452896372 L 324,412.00021667094893 L 339.2,413.8130874357318 L 354.4,417.57050182867414 L 369.6,419.931468382842 L 384.8,418.7966793599119 L 400,415.1751585315235 L 415.2,412.2870644747283 L 430.40000000000003,412.70041247620316 L 445.6,416.04766464915133 L 460.79999999999995,419.352534702526 L 476,419.67642138212676 L 491.2,416.7313333940383 L 506.40000000000003,413.1359634903976 L 521.6,412.08721755177464 L 536.8000000000001,414.51761216151516 L 552,418.266106028119 L 567.1999999999999,419.9996395759104 L 582.4,418.1768015616435 L 597.6,414.4184103498587 L 612.8000000000001,412.0663259684406 L 628,413.2119583674303 L 643.1999999999999,416.83664213785477 L 658.4,419.7174062999707 L 673.6,419.2927531116189 L 688.8,415.94027272664397 L 704,412.6409002211195 L 719.2,412.3283485780743 L 734.4,415.28053028284705 L 749.6,418.8724450418819 L 764.8,419.91025919593943 L 780,417.47117640946436"
      stroke="url(#thread-33)"
      stroke-width="7.814"
      stroke-linecap="round"
      fill="none"
      opacity="0.5695652173913044"
      class="thread"
      style="animation-delay: 3.3000000000000003s"
    >
      <title>2026-01-04: 3907 stars, Python, Jupyter Notebook, TypeScript, Go, Rust</title>
    </path>

    <path
      d="M 20,424.1544100324818 L 35.2,424.93780893907206 L 50.400000000000006,428.42229694195817 L 65.6,431.53428641597174 L 80.80000000000001,431.5287622171204 L 96,428.41059711558273 L 111.2,424.9302536359478 L 126.4,424.1576636136763 L 141.60000000000002,426.77431113762594 L 156.79999999999998,430.47211093318026 L 172,431.98931789386967 L 187.2,429.9876382630987 L 202.4,426.23270812214906 L 217.6,424.036665955939 L 232.8,425.3365906181825 L 248,428.985848126437 L 263.20000000000005,431.7655114219399 L 278.40000000000003,431.22370272519646 L 293.59999999999997,427.8383391661092 L 308.8,424.59557295220145 L 324,424.3557744156784 L 339.2,427.33046439224984 L 354.4,430.8957365022325 L 369.6,431.9067452967329 L 384.8,429.47170290988976 L 400,425.7385048548351 L 415.2,424.0001202377375 L 430.40000000000003,425.78993859601775 L 445.6,429.5292018588337 L 460.79999999999995,431.919590938182 L 476,430.85259798799257 L 491.2,427.26939322470116 L 506.40000000000003,424.3306400828711 L 521.6,424.6285458775146 L 536.8000000000001,427.90033468197504 L 552,431.2600359969352 L 567.1999999999999,431.74413369682077 L 582.4,428.92561620962795 L 597.6,425.2906337137419 L 612.8000000000001,424.04552160414903 L 628,426.28856495711364 L 643.1999999999999,430.04122624095874 L 658.4,431.99336827802125 L 673.6,430.42305097187466 L 688.8,426.715415507038 L 704,424.1408828101779 L 719.2,424.97038962468565 L 734.4,428.4722468536403 L 749.6,431.5575458725591 L 764.8,431.50481458091014 L 780,428.36056605187287"
      stroke="url(#thread-34)"
      stroke-width="7.78"
      stroke-linecap="round"
      fill="none"
      opacity="0.5565217391304348"
      class="thread"
      style="animation-delay: 3.4000000000000004s"
    >
      <title>2026-01-03: 3890 stars, Go, Python, Jupyter Notebook, TypeScript, Rust, JavaScript</title>
    </path>

    <path
      d="M 20,436.09749597812737 L 35.2,437.4582813769086 L 50.400000000000006,439.8897190442396 L 65.6,442.36761053788723 L 80.80000000000001,443.8481895948229 L 96,443.70778949140765 L 111.2,442.0055511914998 L 126.4,439.458511302083 L 141.60000000000002,437.139563577374 L 156.79999999999998,436.0255221381617 L 172,436.58565647136544 L 187.2,438.584020281007 L 202.4,441.17883953012455 L 217.6,443.2770942871234 L 232.8,443.99493328885944 L 248,443.0299800453939 L 263.20000000000005,440.7887033805278 L 278.40000000000003,438.215199908216 L 293.59999999999997,436.39351068072887 L 308.8,436.09098881350684 L 324,437.43506608459353 L 339.2,439.85957463956095 L 354.4,442.34323479744387 L 369.6,443.83985035139784 L 384.8,443.7189994980688 L 400,442.03158843891333 L 415.2,439.4884080781832 L 430.40000000000003,437.1607264145507 L 445.6,436.0290365800994 L 460.79999999999995,436.570042123972 L 476,438.5558544012245 L 491.2,441.1499864772928 L 506.40000000000003,443.25970787960307 L 521.6,443.9963372313613 L 536.8000000000001,443.0495829529351 L 552,440.8182478884895 L 567.1999999999999,438.2422409354688 L 582.4,436.4066576913933 L 597.6,436.08470387090307 L 612.8000000000001,437.4119966053141 L 628,439.8294382178747 L 643.1999999999999,442.31872584726085 L 658.4,443.8312928176563 L 673.6,443.72999808462157 L 688.8,442.0575101932626 L 704,439.5183339375946 L 719.2,437.1820506606036 L 734.4,436.0327767659547 L 749.6,436.55462276506023 L 764.8,438.52777061917266 L 780,441.12106804928004"
      stroke="url(#thread-35)"
      stroke-width="5.26"
      stroke-linecap="round"
      fill="none"
      opacity="0.5434782608695652"
      class="thread"
      style="animation-delay: 3.5s"
    >
      <title>2026-01-02: 2630 stars, TypeScript, Rust, Python, JavaScript, Jupyter Notebook, Shell</title>
    </path>

    <path
      d="M 20,448.9960510129133 L 35.2,452.3190720513421 L 50.400000000000006,455.38575559338346 L 65.6,455.7323760382739 L 80.80000000000001,453.08046394105213 L 96,449.56052400992485 L 111.2,448.00042094060655 L 126.4,449.65351714203706 L 141.60000000000002,453.19174097716774 L 156.79999999999998,455.77253874773214 L 172,455.32253788347145 L 187.2,452.20326204160233 L 202.4,448.9206886541293 L 217.6,448.1119858475421 L 232.8,450.42685281012785 L 248,454.0055616241219 L 263.20000000000005,455.9730335923446 L 278.40000000000003,454.7486325029265 L 293.59999999999997,451.3160230438758 L 308.8,448.4329099753179 L 324,448.4155412503015 L 339.2,451.277870630892 L 354.4,454.7203474539376 L 369.6,455.97733967338564 L 384.8,454.0389993970232 L 400,450.4625588910416 L 415.2,448.1212745294353 L 430.40000000000003,448.8960975552257 L 445.6,452.1645472662045 L 460.79999999999995,455.30080227671095 L 476,455.78524435617805 L 491.2,453.2286803136854 L 506.40000000000003,449.6850137213269 L 521.6,448.0011709034118 L 536.8000000000001,449.5299248478557 L 552,453.0430985424041 L 567.1999999999999,455.7182631799993 L 582.4,455.4062333251227 L 597.6,452.3576888836474 L 612.8000000000001,449.02178278660205 L 628,448.0785298253277 L 643.1999999999999,450.28572467828684 L 658.4,453.8701415168083 L 673.6,455.9521159060694 L 688.8,454.8590221797317 L 704,451.46903474369395 L 719.2,448.5056164913178 L 734.4,448.3495313045161 L 749.6,451.12617558149924 L 764.8,454.60483673140675 L 780,455.9908127858369"
      stroke="url(#thread-36)"
      stroke-width="7.396"
      stroke-linecap="round"
      fill="none"
      opacity="0.5304347826086957"
      class="thread"
      style="animation-delay: 3.6s"
    >
      <title>2026-01-01: 3698 stars, Rust, Python, JavaScript, TypeScript, Jupyter Notebook, Go, Shell</title>
    </path>

    <path
      d="M 20,462.63007752612157 L 35.2,466.19580657215147 L 50.400000000000006,467.99303496317015 L 65.6,466.57427655580244 L 80.80000000000001,463.08219810610694 L 96,460.32931648326587 L 111.2,460.5328000913216 L 126.4,463.5287634138108 L 141.60000000000002,466.90426026257245 L 156.79999999999998,467.94066848585015 L 172,465.80326582487504 L 187.2,462.21351447668104 L 202.4,460.0625969757972 L 217.6,461.0828603592675 L 232.8,464.4525854079062 L 248,467.45779857262863 L 263.20000000000005,467.67810385058806 L 278.40000000000003,464.9360675673821 L 293.59999999999997,461.44012330018285 L 308.8,460.0059014441424 L 324,461.78852300309035 L 339.2,465.35226616317505 L 354.4,467.8268953613767 L 369.6,467.2193464483147 L 384.8,464.0189387767628 L 400,460.80327783129553 L 415.2,460.16225406969625 L 430.40000000000003,462.61214745789806 L 445.6,466.17981604583497 L 460.79999999999995,467.9918627343958 L 476,466.5888667365797 L 491.2,463.1007997778492 L 506.40000000000003,460.33694787614075 L 521.6,460.5233148883132 L 536.8000000000001,463.5098009889633 L 552,466.8910929359475 L 567.1999999999999,467.9439012105689 L 582.4,465.820294967332 L 597.6,462.23062478072774 L 612.8000000000001,460.0660078178132 L 628,461.0698246501349 L 643.1999999999999,464.4336020961352 L 658.4,467.4481568005905 L 673.6,467.68556909288384 L 688.8,464.9546273245242 L 704,461.45482956032043 L 719.2,460.00490979847564 L 734.4,461.77263212215485 L 749.6,465.33427454830496 L 764.8,467.82129344314365 L 780,467.2306460066679"
      stroke="url(#thread-37)"
      stroke-width="7.406"
      stroke-linecap="round"
      fill="none"
      opacity="0.5173913043478261"
      class="thread"
      style="animation-delay: 3.7s"
    >
      <title>2025-12-31: 3703 stars, Go, Python, TypeScript, Rust, Shell</title>
    </path>

    <path
      d="M 20,476.5995088386518 L 35.2,479.7764898066921 L 50.400000000000006,478.93056074532194 L 65.6,474.962848542035 L 80.80000000000001,472.0999631000626 L 96,473.3915963680378 L 111.2,477.4618345492784 L 126.4,479.97485182680845 L 141.60000000000002,478.25365370909174 L 156.79999999999998,474.1317484338826 L 172,472.0000002483277 L 187.2,474.12925631336725 L 202.4,478.25132420225316 L 217.6,479.97516644343585 L 232.8,477.4644581436543 L 248,473.39373415329186 L 263.20000000000005,472.09933779803976 L 278.40000000000003,474.96012625642095 L 293.59999999999997,478.9286413939399 L 308.8,479.7774179807683 L 324,476.6022957997039 L 339.2,472.7855773381446 L 354.4,472.39302624550743 L 369.6,475.84280801632855 L 384.8,479.46003872519105 L 400,479.39145927641624 L 415.2,475.71012400522267 L 430.40000000000003,472.3375794646723 L 445.6,472.86643253345215 L 460.79999999999995,476.7333218830849 L 476,479.81903926900134 L 491.2,478.8365207627534 L 506.40000000000003,474.8323953121703 L 521.6,472.07206207326834 L 536.8000000000001,473.49596914460074 L 552,477.58729791115076 L 567.1999999999999,479.987755786135 L 582.4,478.14025230863416 L 597.6,474.0128426434837 L 612.8000000000001,472.00225459542855 L 628,474.25026935217403 L 643.1999999999999,478.3621866565796 L 658.4,479.95778195867126 L 673.6,477.33734556181753 L 688.8,473.29230029566673 L 704,472.1316351959582 L 719.2,475.09175007029364 L 734.4,479.01937920746445 L 749.6,479.7306112356645 L 764.8,476.46780543402815 L 780,472.70666936574327"
      stroke="url(#thread-38)"
      stroke-width="8"
      stroke-linecap="round"
      fill="none"
      opacity="0.5043478260869565"
      class="thread"
      style="animation-delay: 3.8000000000000003s"
    >
      <title>2025-12-30: 4315 stars, Go, Shell, Rust, Python, Swift, TypeScript</title>
    </path>

    <path
      d="M 20,490.4221594788784 L 35.2,491.9813895666353 L 50.400000000000006,490.98775524417096 L 65.6,488.0783741951833 L 80.80000000000001,485.1187396630299 L 96,484.0065673919104 L 111.2,485.4549815213888 L 126.4,488.53525985020315 L 141.60000000000002,491.2723299099109 L 156.79999999999998,491.9111841518247 L 172,490.04218965000143 L 187.2,486.8637444679181 L 202.4,484.4138655967221 L 217.6,484.2634137811244 L 232.8,486.5088586277948 L 248,489.7104223560767 L 263.20000000000005,491.81526437798084 L 278.40000000000003,491.47376135298134 L 293.59999999999997,488.904884799417 L 308.8,485.7557966988238 L 324,484.0456903007209 L 339.2,484.8710847194378 L 354.4,487.7027375885417 L 369.6,490.72499492324926 L 384.8,491.99998727894206 L 400,490.7101903833337 L 415.2,487.6826211701113 L 430.40000000000003,484.8585550569548 L 445.6,484.0487814056503 L 460.79999999999995,485.7725265566879 L 476,488.92452623619414 L 491.2,491.4837202921375 L 506.40000000000003,491.80915515418235 L 521.6,489.6921621996645 L 536.8000000000001,486.4901559392279 L 552,484.2562607121928 L 567.1999999999999,484.42284869058955 L 582.4,486.88310377061777 L 597.6,490.05951198918694 L 612.8000000000001,491.9153624548351 L 628,491.26068505156337 L 643.1999999999999,488.5152585061244 L 658.4,485.43944854044145 L 673.6,484.00546251141265 L 688.8,485.132771331641 L 704,488.0985453160822 L 719.2,491.00113210770803 L 734.4,491.9793949365786 L 749.6,490.40607231072784 L 764.8,487.28997767835205 L 780,484.6291488985287"
      stroke="url(#thread-39)"
      stroke-width="6.556"
      stroke-linecap="round"
      fill="none"
      opacity="0.491304347826087"
      class="thread"
      style="animation-delay: 3.9000000000000004s"
    >
      <title>2025-12-29: 3278 stars, Shell, Go, JavaScript, TypeScript, Rust, Python</title>
    </path>

    <path
      d="M 20,503.6517810029105 L 35.2,503.444261334571 L 50.400000000000006,500.33390505139204 L 65.6,496.94213231489925 L 80.80000000000001,496.1275421488895 L 96,498.57667425818914 L 111.2,502.22539074185124 L 126.4,503.99853940406774 L 141.60000000000002,502.4017037763284 L 156.79999999999998,498.7807030279152 L 172,496.1873304270541 L 187.2,496.80729031218755 L 202.4,500.11807812298105 L 217.6,503.3293492404968 L 232.8,503.7346320951893 L 248,500.9923527483566 L 263.20000000000005,497.4137147129853 L 278.40000000000003,496.0148078008628 L 293.59999999999997,497.974636103375 L 308.8,501.6414488377841 L 324,503.92484221899855 L 339.2,502.9003635794635 L 354.4,499.4314474315701 L 369.6,496.4417095610431 L 384.8,496.4509124702883 L 400,499.45129991222535 L 415.2,502.9141338849673 L 430.40000000000003,503.9209246832499 L 445.6,501.6231451748825 L 460.79999999999995,497.95737271036046 L 476,496.0131343313391 L 491.2,497.4290415734621 L 506.40000000000003,501.0117624022533 L 521.6,503.74176601202873 L 536.8000000000001,503.31819492790487 L 552,500.0980364782358 L 567.1999999999999,496.7952525100684 L 582.4,496.19344197318884 L 597.6,498.7998130878665 L 612.8000000000001,502.41770631854126 L 628,503.99794742481225 L 643.1999999999999,502.2087031635062 L 658.4,498.55795543555445 L 673.6,496.1225683772147 L 688.8,496.95509550795884 L 704,500.3538797805373 L 719.2,503.45441282174596 L 734.4,503.64355353593066 L 749.6,500.7618934063853 L 764.8,497.2381066024029 L 780,496.0420541083453"
      stroke="url(#thread-40)"
      stroke-width="7.59"
      stroke-linecap="round"
      fill="none"
      opacity="0.4782608695652174"
      class="thread"
      style="animation-delay: 4s"
    >
      <title>2025-12-28: 3795 stars, Shell, Rust, Python, JavaScript, TypeScript</title>
    </path>

    <path
      d="M 20,515.9873191771152 L 35.2,512.5502567010709 L 50.400000000000006,508.25032041935276 L 65.6,509.83036757720686 L 80.80000000000001,514.812679499716 L 96,515.3843455194359 L 111.2,510.64891924498215 L 126.4,508.0321626579416 L 141.60000000000002,511.63748914771486 L 156.79999999999998,515.8112796254787 L 172,514.0084898116739 L 187.2,509.05612772717564 L 202.4,508.7201388127377 L 217.6,513.52739722128 L 232.8,515.939498877462 L 248,512.1739558412163 L 263.20000000000005,508.13562750596856 L 278.40000000000003,510.1571359595807 L 293.59999999999997,515.0684940139362 L 308.8,515.168055860559 L 324,510.29969562342046 L 339.2,508.09763296224554 L 354.4,512.0149874575541 L 369.6,515.9088396774484 L 384.8,513.67312480314 L 400,508.8137334457592 L 415.2,508.9508208994465 L 430.40000000000003,513.8694162739918 L 445.6,515.8565247051004 L 460.79999999999995,511.7961026972543 L 476,508.05541807969246 L 491.2,510.500349024365 L 506.40000000000003,515.2969270130632 L 521.6,514.9234962526555 L 536.8000000000001,509.96564456199377 L 552,508.19792579560055 L 567.1999999999999,512.3923520277499 L 582.4,515.9715194421701 L 597.6,513.3228297697007 L 612.8000000000001,508.5997716153594 L 628,509.20871214582274 L 643.1999999999999,514.1947537070915 L 658.4,515.739137074886 L 673.6,511.4200690181657 L 688.8,508.01040788434085 L 704,510.8569441311664 L 719.2,515.4959400894661 L 734.4,514.6528490081449 L 749.6,509.64974694452934 L 764.8,508.3321462011588 L 780,512.766215469079"
      stroke="url(#thread-41)"
      stroke-width="8"
      stroke-linecap="round"
      fill="none"
      opacity="0.46521739130434786"
      class="thread"
      style="animation-delay: 4.1000000000000005s"
    >
      <title>2025-12-27: 5384 stars, Shell, Python, Rust, C, Go</title>
    </path>

    <path
      d="M 20,527.3466225541442 L 35.2,524.1413722561396 L 50.400000000000006,520.8165088810442 L 65.6,520.1851525562528 L 80.80000000000001,522.7814849862324 L 96,526.4087858272566 L 111.2,527.9980468667072 L 126.4,526.2046166968752 L 141.60000000000002,522.5458913544281 L 156.79999999999998,520.1174668805572 L 172,520.9739990594593 L 187.2,524.3907880642846 L 202.4,527.4769367855365 L 217.6,527.6212982061926 L 232.8,524.7017301591163 L 248,521.1884380963719 L 263.20000000000005,520.0539690071535 L 278.40000000000003,522.2581812281051 L 293.59999999999997,525.9361218080004 L 308.8,527.9759369635639 L 324,526.6517677878514 L 339.2,523.0839751919834 L 354.4,520.2912182995149 L 369.6,520.6364094285792 L 384.8,523.8274872210338 L 400,527.1645256488571 L 415.2,527.82410344382 L 430.40000000000003,525.2481611125642 L 445.6,521.6161672231341 L 460.79999999999995,520.0011007103823 L 476,521.7694466299458 L 491.2,525.4250323764232 L 506.40000000000003,527.8749182766054 L 521.6,527.0462903354135 L 536.8000000000001,523.6402389967282 L 552,520.5385763817831 L 567.1999999999999,520.3655755948043 L 582.4,523.2676101678746 L 597.6,526.789309474625 L 612.8000000000001,527.951013274981 L 628,525.769820326344 L 643.1999999999999,522.0912072974704 L 658.4,520.0275969212566 L 673.6,521.3249809060868 L 688.8,524.8856609140315 L 704,527.6969956821173 L 719.2,527.3803544130052 L 734.4,524.2036428299725 L 749.6,520.8546319133533 L 764.8,520.1668726857172 L 780,522.7222685541506"
      stroke="url(#thread-42)"
      stroke-width="7.606"
      stroke-linecap="round"
      fill="none"
      opacity="0.4521739130434783"
      class="thread"
      style="animation-delay: 4.2s"
    >
      <title>2025-12-26: 3803 stars, Python, Shell, Go, TypeScript</title>
    </path>

    <path
      d="M 20,537.8865560123768 L 35.2,534.4745787239285 L 50.400000000000006,532.1752699684336 L 65.6,532.6657851257954 L 80.80000000000001,535.5883339979265 L 96,538.8111591371969 L 111.2,539.9834764186393 L 126.4,538.2501774402928 L 141.60000000000002,534.8755603089553 L 156.79999999999998,532.321128841116 L 172,532.4501293140067 L 187.2,535.1684665624601 L 202.4,538.4933386118649 L 217.6,539.9995265646613 L 232.8,538.5883910049197 L 248,535.2892384971188 L 263.20000000000005,532.5085276625107 L 278.40000000000003,532.2745568429664 L 293.59999999999997,534.7579883811579 L 308.8,538.147364570526 L 324,539.9704160836341 L 339.2,538.897377770089 L 354.4,535.7109422439663 L 369.6,532.7353504200981 L 384.8,532.141050188039 L 400,534.361534365617 L 415.2,537.7771435767189 L 430.40000000000003,539.8964736763563 L 445.6,539.1736488138396 L 460.79999999999995,536.1359098845033 L 476,532.9990359462511 L 491.2,532.0511168387125 L 506.40000000000003,533.983581073662 L 521.6,537.3868559782816 L 536.8000000000001,539.778534263018 L 552,539.4140846235567 L 567.1999999999999,536.5593428995024 L 582.4,533.2966068376413 L 597.6,532.0057722767898 L 612.8000000000001,533.6283961623229 L 628,536.9809087049817 L 643.1999999999999,539.6179295557037 L 658.4,539.6159703199277 L 673.6,536.9764600979495 L 688.8,533.6247030745691 L 704,532.0055285100842 L 719.2,533.2999901996145 L 734.4,536.5638855076998 L 749.6,539.4164730213759 L 764.8,539.7770263119825 L 780,537.3825516038304"
      stroke="url(#thread-43)"
      stroke-width="7.022"
      stroke-linecap="round"
      fill="none"
      opacity="0.4391304347826087"
      class="thread"
      style="animation-delay: 4.3s"
    >
      <title>2025-12-25: 3511 stars, Python, TypeScript</title>
    </path>

    <path
      d="M 20,547.9645947628384 L 35.2,545.318586242321 L 50.400000000000006,544.0242977333887 L 65.6,544.7341894068295 L 80.80000000000001,547.0903997508572 L 96,549.9051461398305 L 111.2,551.7594946212344 L 126.4,551.7186547534264 L 141.60000000000002,549.8032142082753 L 156.79999999999998,546.978760377308 L 172,544.6691208045518 L 187.2,544.0386014540163 L 202.4,545.4050516771379 L 217.6,548.0796340626298 L 232.8,550.7140723428889 L 248,551.9803271832495 L 263.20000000000005,551.2400703874083 L 278.40000000000003,548.8664707443239 L 293.59999999999997,546.0560769506907 L 308.8,544.2256287843251 L 324,544.2978683657075 L 339.2,546.2363792009254 L 354.4,549.0639439988636 L 369.6,551.3551669546108 L 384.8,551.9550260535982 L 400,550.5611279982937 L 415.2,547.8761468501207 L 430.40000000000003,545.2536009679376 L 445.6,544.0155346427812 L 460.79999999999995,544.7860660371659 L 476,547.1767647186897 L 491.2,549.9824622420756 L 506.40000000000003,551.7887862532046 L 521.6,551.6851557922166 L 536.8000000000001,549.7238117218004 L 552,546.8934817315911 L 567.1999999999999,544.6209555798642 L 582.4,544.0518300874545 L 597.6,545.4730055191906 L 612.8000000000001,548.1680570914863 L 628,550.7783898720623 L 643.1999999999999,551.9881162824738 L 658.4,551.1874045155954 L 673.6,548.7798991472414 L 688.8,545.979240994717 L 704,544.1972620289497 L 719.2,544.3322706968748 L 734.4,546.3162081554103 L 749.6,549.1489572250438 L 764.8,551.4025086721173 L 780,551.9408309612433"
      stroke="url(#thread-44)"
      stroke-width="5.776"
      stroke-linecap="round"
      fill="none"
      opacity="0.4260869565217391"
      class="thread"
      style="animation-delay: 4.4s"
    >
      <title>2025-12-24: 2888 stars, Python, TypeScript</title>
    </path>

    <path
      d="M 20,558.051301950158 L 35.2,556.2238225850411 L 50.400000000000006,556.2999414857563 L 65.6,558.2412865655407 L 80.80000000000001,561.0692117701543 L 96,563.3581396110823 L 111.2,563.9542050576865 L 126.4,562.5569272199584 L 141.60000000000002,559.8706839320134 L 156.79999999999998,557.2496298064707 L 172,556.0150571290872 L 187.2,556.7893228893414 L 202.4,559.1821141340671 L 217.6,561.9872075417871 L 232.8,563.7905352974462 L 248,563.6830268751733 L 263.20000000000005,561.7188780459059 L 278.40000000000003,558.8882303984417 L 293.59999999999997,556.6180338243693 L 308.8,556.0527107876285 L 324,557.4772447077249 L 339.2,560.1735177628709 L 354.4,562.7823192624741 L 369.6,563.9885335578703 L 384.8,563.1840993244401 L 400,560.7745376602304 L 415.2,557.9745259761155 L 430.40000000000003,556.1955703536358 L 445.6,556.3344551505735 L 460.79999999999995,558.3211675392594 L 476,561.1541914778815 L 491.2,563.4053791693428 L 506.40000000000003,563.9398906645052 L 521.6,562.4882748641626 L 536.8000000000001,559.7823017612288 L 552,557.1860719103356 L 567.1999999999999,556.008363501375 L 582.4,556.8428678360513 L 597.6,559.2689052614365 L 612.8000000000001,562.0634928166371 L 628,563.8178587626127 L 643.1999999999999,563.6476145748295 L 658.4,561.6385815760221 L 673.6,558.8035277885242 L 688.8,556.5716242708887 L 704,556.0679896811654 L 719.2,557.5465098478675 L 734.4,560.261852092985 L 749.6,562.8451928097486 L 764.8,563.9942513137273 L 780,563.12977892692"
      stroke="url(#thread-45)"
      stroke-width="5.776"
      stroke-linecap="round"
      fill="none"
      opacity="0.41304347826086957"
      class="thread"
      style="animation-delay: 4.5s"
    >
      <title>2025-12-23: 2888 stars, Python, TypeScript</title>
    </path>
  </g>

  <!-- Date markers -->
  <g id="dates">
    <text x="785" y="24" class="date-label">02-06</text>
<text x="785" y="108" class="date-label">01-30</text>
<text x="785" y="192" class="date-label">01-23</text>
<text x="785" y="276" class="date-label">01-16</text>
<text x="785" y="360" class="date-label">01-09</text>
<text x="785" y="444" class="date-label">01-02</text>
<text x="785" y="528" class="date-label">12-26</text>
  </g>

</svg>