<?xml version="1.0" encoding="UTF-8"?>
<svg xmlns="http://www.w3.org/2000/svg" viewBox="0 0 800 200" width="800" height="200">
  <title>The Data Tapestry - GitHub Trends Woven in Time</title>
  <desc>A living data art piece that weaves daily GitHub trending repositories into an evolving tapestry. Each thread represents one day of open source activity.</desc>

  <style>
    .thread {
      animation: breathe 8s ease-in-out infinite alternate;
    }

    @keyframes breathe {
      0% {
        opacity: 0.85;
      }
      100% {
        opacity: 1;
      }
    }

    .date-label {
      font-family: ui-monospace, monospace;
      font-size: 8px;
      fill: #666;
    }

    .title {
      font-family: system-ui, sans-serif;
      font-size: 14px;
      fill: #333;
      font-weight: 600;
    }

    .subtitle {
      font-family: system-ui, sans-serif;
      font-size: 10px;
      fill: #888;
    }

    .empty-state {
      font-family: system-ui, sans-serif;
      font-size: 12px;
      fill: #999;
      text-anchor: middle;
    }
  </style>

  <defs>
    
    <linearGradient id="thread-0" x1="0%" y1="0%" x2="100%" y2="0%">
      <stop offset="0%" stop-color="#3572A5" />
      <stop offset="50%" stop-color="#f1e05a" />
      <stop offset="100%" stop-color="#89e051" />
    </linearGradient>

    <linearGradient id="thread-1" x1="0%" y1="0%" x2="100%" y2="0%">
      <stop offset="0%" stop-color="#3572A5" />
      <stop offset="50%" stop-color="#89e051" />
      <stop offset="100%" stop-color="#dea584" />
    </linearGradient>

    <linearGradient id="thread-2" x1="0%" y1="0%" x2="100%" y2="0%">
      <stop offset="0%" stop-color="#3572A5" />
      <stop offset="50%" stop-color="#89e051" />
      <stop offset="100%" stop-color="#00ADD8" />
    </linearGradient>

    <linearGradient id="thread-3" x1="0%" y1="0%" x2="100%" y2="0%">
      <stop offset="0%" stop-color="#3572A5" />
      <stop offset="50%" stop-color="#3178c6" />
      <stop offset="100%" stop-color="#3572A5" />
    </linearGradient>

    <linearGradient id="thread-4" x1="0%" y1="0%" x2="100%" y2="0%">
      <stop offset="0%" stop-color="#3572A5" />
      <stop offset="50%" stop-color="#3178c6" />
      <stop offset="100%" stop-color="#3572A5" />
    </linearGradient>

    <linearGradient id="thread-5" x1="0%" y1="0%" x2="100%" y2="0%">
      <stop offset="0%" stop-color="#3572A5" />
      <stop offset="50%" stop-color="#3178c6" />
      <stop offset="100%" stop-color="#3572A5" />
    </linearGradient>

    <!-- Background pattern -->
    <pattern id="loom" patternUnits="userSpaceOnUse" width="20" height="20">
      <rect width="20" height="20" fill="#fafafa"/>
      <circle cx="10" cy="10" r="0.5" fill="#eee"/>
    </pattern>
  </defs>

  <!-- Background -->
  <rect width="100%" height="100%" fill="url(#loom)"/>

  <!-- Threads -->
  <g id="tapestry">
    
    <path
      d="M 20,20 L 35.2,23.26245122835144 L 50.400000000000006,23.77529609416295 L 65.6,21.106306984718973 L 80.80000000000001,17.50491812086004 L 96,16.0063937995641 L 111.2,17.873696045351046 L 126.4,21.533055389674576 L 141.60000000000002,23.900349793090037 L 156.79999999999998,22.980414485908152 L 172,19.548574460506075 L 187.2,16.497197604888377 L 202.4,16.397995993645402 L 217.6,19.33457712382646 L 232.8,22.831979196925012 L 248,23.942578380595993 L 263.20000000000005,21.730357438745283 L 278.40000000000003,18.05978463505033 L 293.59999999999997,16.02443275536568 L 308.8,17.339704141879405 L 324,20.897083043797522 L 339.2,23.69839692824753 L 354.4,23.38268774834168 L 369.6,20.216036407370595 L 384.8,16.86730875669584 L 400,16.158825257292225 L 415.2,18.68769850988946 L 430.40000000000003,22.32258447324281 L 445.6,23.999987366913018 L 460.79999999999995,22.30618562200815 L 476,18.668721821908058 L 491.2,16.153264357713223 L 506.40000000000003,16.879850392935104 L 521.6,20.236110440478488 L 536.8000000000001,23.393375706503004 L 552,23.69069095948046 L 567.1999999999999,20.877477768026917 L 582.4,17.324722960445257 L 597.6,16.02670186523048 L 612.8000000000001,18.077391621748756 L 628,21.748463066603726 L 643.1999999999999,23.945923157265653 L 658.4,22.817744131846823 L 673.6,19.314759584246886 L 688.8,16.389298277653772 L 704,16.506950180760313 L 719.2,19.56855782002777 L 734.4,22.993786577309347 L 749.6,23.89584056663708 L 764.8,21.5144652386538 L 780,17.85669282008403"
      stroke="url(#thread-0)"
      stroke-width="7.59"
      stroke-linecap="round"
      fill="none"
      opacity="1"
      class="thread"
      style="animation-delay: 0s"
    >
      <title>2025-12-28: 3795 stars, Shell, Rust, Python, JavaScript, TypeScript</title>
    </path>

    <path
      d="M 20,33.917702154416816 L 35.2,35.841612883967066 L 50.400000000000006,31.74137684226857 L 65.6,28.046695422463443 L 80.80000000000001,30.551307821648415 L 96,35.32765726783587 L 111.2,34.88580894362357 L 126.4,29.91863827297577 L 141.60000000000002,28.21531247852118 L 156.79999999999998,32.44686711094552 L 172,35.97767621150882 L 187.2,33.27097361310854 L 202.4,28.571219705529074 L 217.6,29.248237576923955 L 232.8,34.24037548173013 L 248,35.71931433907987 L 263.20000000000005,31.365886390149598 L 278.40000000000003,28.00683074544807 L 293.59999999999997,30.909581898681314 L 308.8,35.522249923493455 L 324,34.61157367988655 L 339.2,29.60561151686122 L 354.4,28.35436074342298 L 369.6,32.819944700601106 L 384.8,35.99974912456715 L 400,32.90742866184128 L 415.2,28.392142479122107 L 430.40000000000003,29.53444436995139 L 445.6,34.54305695806094 L 460.79999999999995,35.5638267244897 L 476,30.996054411307746 L 491.2,28.00259886540622 L 506.40000000000003,31.277586253682344 L 521.6,35.68541200147875 L 536.8000000000001,34.31403420118022 L 552,29.313950937148537 L 567.1999999999999,28.52594064302076 L 582.4,33.18570556482294 L 597.6,35.98613052559196 L 612.8000000000001,32.53578632746446 L 628,28.245259744447306 L 643.1999999999999,29.842652394980725 L 658.4,34.823045624119416 L 673.6,35.37653752423478 L 688.8,30.63518107835692 L 704,28.034037545255693 L 719.2,31.65203702272507 L 734.4,35.815687535157714 L 749.6,33.9958455824991 L 764.8,29.04625914884348 L 780,28.72852109477396"
      stroke="url(#thread-1)"
      stroke-width="8"
      stroke-linecap="round"
      fill="none"
      opacity="0.9"
      class="thread"
      style="animation-delay: 0.1s"
    >
      <title>2025-12-27: 5384 stars, Shell, Python, Rust, C, Go</title>
    </path>

    <path
      d="M 20,47.36588393923159 L 35.2,47.7071909934114 L 50.400000000000006,44.9118959009353 L 65.6,41.34505851525559 L 80.80000000000001,40.02452977002499 L 96,42.06759045934677 L 111.2,45.74563567582227 L 126.4,47.94672310463742 L 141.60000000000002,46.808543637232944 L 156.79999999999998,43.2940949090383 L 172,40.376902547613234 L 187.2,40.52516197081349 L 202.4,43.613432966387165 L 217.6,47.028772890864516 L 232.8,47.881510681245494 L 248,45.450156889428506 L 263.20000000000005,41.791845754314856 L 278.40000000000003,40.00182286209801 L 293.59999999999997,41.59460139978911 L 308.8,45.22255385390198 L 324,47.81612069115115 L 339.2,47.18092149691292 L 354.4,43.85438937343173 L 369.6,40.65105635263547 L 384.8,40.28121743883884 L 400,43.05778813410069 L 415.2,46.631551034036335 L 430.40000000000003,47.97879562480943 L 445.6,45.95963721124249 L 460.79999999999995,42.282457321475924 L 476,40.05846612956878 L 491.2,41.169351295821706 L 506.40000000000003,44.675208509032544 L 521.6,47.60978130160366 L 536.8000000000001,47.490168917395046 L 552,44.417573711975166 L 567.1999999999999,40.99167526329207 L 582.4,40.111078053138684 L 597.6,42.520842992758894 L 612.8000000000001,46.182101867382514 L 628,47.997115049885586 L 643.1999999999999,46.43022542020991 L 658.4,42.807156250975694 L 673.6,40.1933353968308 L 688.8,40.8002799111603 L 704,44.11446257890289 L 719.2,47.33180006889859 L 734.4,47.73014839245835 L 749.6,44.97247063699392 L 764.8,41.391999156313815 L 780,40.018120500045754"
      stroke="url(#thread-2)"
      stroke-width="7.606"
      stroke-linecap="round"
      fill="none"
      opacity="0.8"
      class="thread"
      style="animation-delay: 0.2s"
    >
      <title>2025-12-26: 3803 stars, Python, Shell, Go, TypeScript</title>
    </path>

    <path
      d="M 20,59.98997994641622 L 35.2,58.753313511749546 L 50.400000000000006,55.50833281404318 L 65.6,52.621982623909574 L 80.80000000000001,52.19961644731007 L 96,54.54931544284521 L 111.2,57.95716872225415 L 126.4,59.93742945061337 L 141.60000000000002,59.045661370181165 L 156.79999999999998,55.93233546713938 L 172,52.868365238947554 L 187.2,52.08866330436392 L 202.4,54.16195767400611 L 217.6,57.5759517509688 L 232.8,59.840419496902854 L 248,59.30361916393049 L 263.20000000000005,56.35710215384896 L 278.40000000000003,53.15010868662712 L 293.59999999999997,52.021874993159784 L 308.8,53.79535414761123 L 324,57.17693993118761 L 339.2,59.70004547251831 L 354.4,59.52427416432084 L 369.6,56.77783662401297 L 384.8,53.46403166272178 L 400,52.00000565346014 L 415.2,53.45364436488974 L 430.40000000000003,56.764638702164476 L 445.6,59.517892409803 L 460.79999999999995,59.705134846913495 L 476,57.18978815721822 L 491.2,53.80658950807836 L 506.40000000000003,52.023302222765736 L 521.6,53.14068673953314 L 536.8000000000001,56.34370356042752 L 552,59.296017088827774 L 567.1999999999999,59.84415902453893 L 582.4,57.58830520552451 L 597.6,54.173914233111915 L 612.8000000000001,52.09150164802244 L 628,52.860015030443236 L 643.1999999999999,55.91888749227157 L 658.4,59.036924813273 L 673.6,59.939776906639445 L 688.8,57.96888791638673 L 704,54.56185819318372 L 719.2,52.203833855882976 L 734.4,52.61479844031754 L 749.6,55.49498730544599 L 764.8,58.743541121808924 L 780,59.9909088245485"
      stroke="url(#thread-3)"
      stroke-width="7.022"
      stroke-linecap="round"
      fill="none"
      opacity="0.7"
      class="thread"
      style="animation-delay: 0.30000000000000004s"
    >
      <title>2025-12-25: 3511 stars, Python, TypeScript</title>
    </path>

    <path
      d="M 20,71.63718970730272 L 35.2,69.61553786788878 L 50.400000000000006,66.77948173922815 L 65.6,64.55869766728226 L 80.80000000000001,64.07269891734337 L 96,65.56648096391311 L 111.2,68.2870175052831 L 126.4,70.86286645248553 L 141.60000000000002,71.9955237761505 L 156.79999999999998,71.11400875154584 L 172,68.66269945939807 L 187.2,65.87731859087769 L 202.4,64.16199672787758 L 217.6,64.38143999114715 L 232.8,66.42502544921246 L 248,69.26256693586157 L 263.20000000000005,71.4636393254598 L 278.40000000000003,71.91866615393216 L 293.59999999999997,70.39826511573453 L 308.8,67.66888133821101 L 324,65.10641686587404 L 339.2,64.00262851779507 L 354.4,64.91394395993204 L 369.6,67.38096250618219 L 384.8,70.16004231709867 L 400,71.85022921936526 L 415.2,71.5994878071927 L 430.40000000000003,69.53421863461566 L 445.6,66.69553878469807 L 460.79999999999995,64.51444724020729 L 476,64.09044797711279 L 491.2,65.63728208150427 L 506.40000000000003,68.37517932675391 L 521.6,70.92394596787581 L 536.8000000000001,71.99873036129249 L 552,71.05772594374598 L 567.1999999999999,68.57529982793754 L 582.4,65.80286092023616 L 597.6,64.13801566675815 L 612.8000000000001,64.42002456539349 L 628,66.50672489670407 L 643.1999999999999,69.34619597596296 L 658.4,71.50703995598612 L 673.6,71.8999598040624 L 688.8,70.32688179133413 L 704,67.58080588787308 L 719.2,65.04604875924782 L 734.4,64.00039975276022 L 749.6,64.97097807301479 L 764.8,67.46850818969041 L 780,70.23396716066226"
      stroke="url(#thread-4)"
      stroke-width="5.776"
      stroke-linecap="round"
      fill="none"
      opacity="0.6000000000000001"
      class="thread"
      style="animation-delay: 0.4s"
    >
      <title>2025-12-24: 2888 stars, Python, TypeScript</title>
    </path>

    <path
      d="M 20,82.39388857641583 L 35.2,79.66343475175248 L 50.400000000000006,77.10264589578613 L 65.6,76.00243413729248 L 80.80000000000001,76.91742415762785 L 96,79.38636288932138 L 111.2,82.16464051359728 L 126.4,83.8517072452096 L 141.60000000000002,83.59710057889622 L 156.79999999999998,81.52916957117753 L 172,78.69037315540749 L 187.2,76.51176907604027 L 202.4,76.09160735993885 L 217.6,77.64169455808019 L 232.8,80.38062053581831 L 248,82.92767295670141 L 263.20000000000005,83.99886432793608 L 278.40000000000003,83.05419935465645 L 293.59999999999997,80.56989046210604 L 308.8,77.79829567798663 L 324,76.13659591962966 L 339.2,76.42246601815168 L 354.4,78.5117967954076 L 369.6,81.35134153990069 L 384.8,83.50966526927108 L 400,83.89874142733588 L 415.2,82.32243391708998 L 430.40000000000003,79.57537072159248 L 445.6,77.04236620744719 L 460.79999999999995,76.00032621635802 L 476,76.97455062224167 L 491.2,79.47392587671857 L 506.40000000000003,82.2384988903925 L 521.6,83.87462847104932 L 536.8000000000001,83.557529898544 L 552,81.4470548499529 L 567.1999999999999,78.60710901642939 L 582.4,76.46932957220591 L 597.6,76.11138655117288 L 612.8000000000001,77.7137216114489 L 628,80.46858609431361 L 643.1999999999999,82.98723294794434 L 658.4,83.99999413083924 L 673.6,82.99632942742909 L 688.8,80.48219345237781 L 704,77.72498028076643 L 719.2,76.11462095535168 L 734.4,76.46290922477536 L 749.6,78.59427046082796 L 764.8,81.43427009464128 L 780,83.55124383086881"
      stroke="url(#thread-5)"
      stroke-width="5.776"
      stroke-linecap="round"
      fill="none"
      opacity="0.5"
      class="thread"
      style="animation-delay: 0.5s"
    >
      <title>2025-12-23: 2888 stars, Python, TypeScript</title>
    </path>
  </g>

  <!-- Date markers -->
  <g id="dates">
    <text x="785" y="24" class="date-label">12-28</text>
  </g>

</svg>