<?xml version="1.0" encoding="UTF-8"?>
<svg xmlns="http://www.w3.org/2000/svg" viewBox="0 0 800 544" width="800" height="544">
  <title>The Data Tapestry - GitHub Trends Woven in Time</title>
  <desc>A living data art piece that weaves daily GitHub trending repositories into an evolving tapestry. Each thread represents one day of open source activity.</desc>

  <style>
    .thread {
      animation: breathe 8s ease-in-out infinite alternate;
    }

    @keyframes breathe {
      0% {
        opacity: 0.85;
      }
      100% {
        opacity: 1;
      }
    }

    .date-label {
      font-family: ui-monospace, monospace;
      font-size: 8px;
      fill: #666;
    }

    .title {
      font-family: system-ui, sans-serif;
      font-size: 14px;
      fill: #333;
      font-weight: 600;
    }

    .subtitle {
      font-family: system-ui, sans-serif;
      font-size: 10px;
      fill: #888;
    }

    .empty-state {
      font-family: system-ui, sans-serif;
      font-size: 12px;
      fill: #999;
      text-anchor: middle;
    }
  </style>

  <defs>
    
    <linearGradient id="thread-0" x1="0%" y1="0%" x2="100%" y2="0%">
      <stop offset="0%" stop-color="#3572A5" />
      <stop offset="50%" stop-color="#3178c6" />
      <stop offset="100%" stop-color="#f1e05a" />
    </linearGradient>

    <linearGradient id="thread-1" x1="0%" y1="0%" x2="100%" y2="0%">
      <stop offset="0%" stop-color="#3572A5" />
      <stop offset="50%" stop-color="#8b8b8b" />
      <stop offset="100%" stop-color="#3178c6" />
    </linearGradient>

    <linearGradient id="thread-2" x1="0%" y1="0%" x2="100%" y2="0%">
      <stop offset="0%" stop-color="#3572A5" />
      <stop offset="50%" stop-color="#f1e05a" />
      <stop offset="100%" stop-color="#8b8b8b" />
    </linearGradient>

    <linearGradient id="thread-3" x1="0%" y1="0%" x2="100%" y2="0%">
      <stop offset="0%" stop-color="#3572A5" />
      <stop offset="50%" stop-color="#3178c6" />
      <stop offset="100%" stop-color="#dea584" />
    </linearGradient>

    <linearGradient id="thread-4" x1="0%" y1="0%" x2="100%" y2="0%">
      <stop offset="0%" stop-color="#3572A5" />
      <stop offset="50%" stop-color="#3178c6" />
      <stop offset="100%" stop-color="#f1e05a" />
    </linearGradient>

    <linearGradient id="thread-5" x1="0%" y1="0%" x2="100%" y2="0%">
      <stop offset="0%" stop-color="#3572A5" />
      <stop offset="50%" stop-color="#3178c6" />
      <stop offset="100%" stop-color="#f1e05a" />
    </linearGradient>

    <linearGradient id="thread-6" x1="0%" y1="0%" x2="100%" y2="0%">
      <stop offset="0%" stop-color="#3572A5" />
      <stop offset="50%" stop-color="#3178c6" />
      <stop offset="100%" stop-color="#f1e05a" />
    </linearGradient>

    <linearGradient id="thread-7" x1="0%" y1="0%" x2="100%" y2="0%">
      <stop offset="0%" stop-color="#3178c6" />
      <stop offset="50%" stop-color="#3572A5" />
      <stop offset="100%" stop-color="#f1e05a" />
    </linearGradient>

    <linearGradient id="thread-8" x1="0%" y1="0%" x2="100%" y2="0%">
      <stop offset="0%" stop-color="#3572A5" />
      <stop offset="50%" stop-color="#3178c6" />
      <stop offset="100%" stop-color="#89e051" />
    </linearGradient>

    <linearGradient id="thread-9" x1="0%" y1="0%" x2="100%" y2="0%">
      <stop offset="0%" stop-color="#3178c6" />
      <stop offset="50%" stop-color="#3572A5" />
      <stop offset="100%" stop-color="#89e051" />
    </linearGradient>

    <linearGradient id="thread-10" x1="0%" y1="0%" x2="100%" y2="0%">
      <stop offset="0%" stop-color="#3572A5" />
      <stop offset="50%" stop-color="#3178c6" />
      <stop offset="100%" stop-color="#8b8b8b" />
    </linearGradient>

    <linearGradient id="thread-11" x1="0%" y1="0%" x2="100%" y2="0%">
      <stop offset="0%" stop-color="#3178c6" />
      <stop offset="50%" stop-color="#3572A5" />
      <stop offset="100%" stop-color="#dea584" />
    </linearGradient>

    <linearGradient id="thread-12" x1="0%" y1="0%" x2="100%" y2="0%">
      <stop offset="0%" stop-color="#3572A5" />
      <stop offset="50%" stop-color="#3178c6" />
      <stop offset="100%" stop-color="#8b8b8b" />
    </linearGradient>

    <linearGradient id="thread-13" x1="0%" y1="0%" x2="100%" y2="0%">
      <stop offset="0%" stop-color="#3572A5" />
      <stop offset="50%" stop-color="#3178c6" />
      <stop offset="100%" stop-color="#41b883" />
    </linearGradient>

    <linearGradient id="thread-14" x1="0%" y1="0%" x2="100%" y2="0%">
      <stop offset="0%" stop-color="#3178c6" />
      <stop offset="50%" stop-color="#f1e05a" />
      <stop offset="100%" stop-color="#89e051" />
    </linearGradient>

    <linearGradient id="thread-15" x1="0%" y1="0%" x2="100%" y2="0%">
      <stop offset="0%" stop-color="#3178c6" />
      <stop offset="50%" stop-color="#3572A5" />
      <stop offset="100%" stop-color="#f1e05a" />
    </linearGradient>

    <linearGradient id="thread-16" x1="0%" y1="0%" x2="100%" y2="0%">
      <stop offset="0%" stop-color="#3178c6" />
      <stop offset="50%" stop-color="#3572A5" />
      <stop offset="100%" stop-color="#f1e05a" />
    </linearGradient>

    <linearGradient id="thread-17" x1="0%" y1="0%" x2="100%" y2="0%">
      <stop offset="0%" stop-color="#3178c6" />
      <stop offset="50%" stop-color="#f1e05a" />
      <stop offset="100%" stop-color="#3572A5" />
    </linearGradient>

    <linearGradient id="thread-18" x1="0%" y1="0%" x2="100%" y2="0%">
      <stop offset="0%" stop-color="#3572A5" />
      <stop offset="50%" stop-color="#3178c6" />
      <stop offset="100%" stop-color="#89e051" />
    </linearGradient>

    <linearGradient id="thread-19" x1="0%" y1="0%" x2="100%" y2="0%">
      <stop offset="0%" stop-color="#3178c6" />
      <stop offset="50%" stop-color="#89e051" />
      <stop offset="100%" stop-color="#3572A5" />
    </linearGradient>

    <linearGradient id="thread-20" x1="0%" y1="0%" x2="100%" y2="0%">
      <stop offset="0%" stop-color="#3572A5" />
      <stop offset="50%" stop-color="#3178c6" />
      <stop offset="100%" stop-color="#89e051" />
    </linearGradient>

    <linearGradient id="thread-21" x1="0%" y1="0%" x2="100%" y2="0%">
      <stop offset="0%" stop-color="#3178c6" />
      <stop offset="50%" stop-color="#3572A5" />
      <stop offset="100%" stop-color="#8b8b8b" />
    </linearGradient>

    <linearGradient id="thread-22" x1="0%" y1="0%" x2="100%" y2="0%">
      <stop offset="0%" stop-color="#3178c6" />
      <stop offset="50%" stop-color="#89e051" />
      <stop offset="100%" stop-color="#3572A5" />
    </linearGradient>

    <linearGradient id="thread-23" x1="0%" y1="0%" x2="100%" y2="0%">
      <stop offset="0%" stop-color="#3572A5" />
      <stop offset="50%" stop-color="#3178c6" />
      <stop offset="100%" stop-color="#89e051" />
    </linearGradient>

    <linearGradient id="thread-24" x1="0%" y1="0%" x2="100%" y2="0%">
      <stop offset="0%" stop-color="#3572A5" />
      <stop offset="50%" stop-color="#3178c6" />
      <stop offset="100%" stop-color="#8b8b8b" />
    </linearGradient>

    <linearGradient id="thread-25" x1="0%" y1="0%" x2="100%" y2="0%">
      <stop offset="0%" stop-color="#3572A5" />
      <stop offset="50%" stop-color="#3178c6" />
      <stop offset="100%" stop-color="#8b8b8b" />
    </linearGradient>

    <linearGradient id="thread-26" x1="0%" y1="0%" x2="100%" y2="0%">
      <stop offset="0%" stop-color="#3178c6" />
      <stop offset="50%" stop-color="#3572A5" />
      <stop offset="100%" stop-color="#dea584" />
    </linearGradient>

    <linearGradient id="thread-27" x1="0%" y1="0%" x2="100%" y2="0%">
      <stop offset="0%" stop-color="#3572A5" />
      <stop offset="50%" stop-color="#3178c6" />
      <stop offset="100%" stop-color="#00ADD8" />
    </linearGradient>

    <linearGradient id="thread-28" x1="0%" y1="0%" x2="100%" y2="0%">
      <stop offset="0%" stop-color="#3572A5" />
      <stop offset="50%" stop-color="#00ADD8" />
      <stop offset="100%" stop-color="#3178c6" />
    </linearGradient>

    <linearGradient id="thread-29" x1="0%" y1="0%" x2="100%" y2="0%">
      <stop offset="0%" stop-color="#3572A5" />
      <stop offset="50%" stop-color="#3178c6" />
      <stop offset="100%" stop-color="#00ADD8" />
    </linearGradient>

    <linearGradient id="thread-30" x1="0%" y1="0%" x2="100%" y2="0%">
      <stop offset="0%" stop-color="#3572A5" />
      <stop offset="50%" stop-color="#00ADD8" />
      <stop offset="100%" stop-color="#DA5B0B" />
    </linearGradient>

    <linearGradient id="thread-31" x1="0%" y1="0%" x2="100%" y2="0%">
      <stop offset="0%" stop-color="#3572A5" />
      <stop offset="50%" stop-color="#3178c6" />
      <stop offset="100%" stop-color="#dea584" />
    </linearGradient>

    <linearGradient id="thread-32" x1="0%" y1="0%" x2="100%" y2="0%">
      <stop offset="0%" stop-color="#dea584" />
      <stop offset="50%" stop-color="#3572A5" />
      <stop offset="100%" stop-color="#3178c6" />
    </linearGradient>

    <linearGradient id="thread-33" x1="0%" y1="0%" x2="100%" y2="0%">
      <stop offset="0%" stop-color="#3572A5" />
      <stop offset="50%" stop-color="#3178c6" />
      <stop offset="100%" stop-color="#dea584" />
    </linearGradient>

    <linearGradient id="thread-34" x1="0%" y1="0%" x2="100%" y2="0%">
      <stop offset="0%" stop-color="#3572A5" />
      <stop offset="50%" stop-color="#dea584" />
      <stop offset="100%" stop-color="#3178c6" />
    </linearGradient>

    <linearGradient id="thread-35" x1="0%" y1="0%" x2="100%" y2="0%">
      <stop offset="0%" stop-color="#3572A5" />
      <stop offset="50%" stop-color="#3178c6" />
      <stop offset="100%" stop-color="#89e051" />
    </linearGradient>

    <linearGradient id="thread-36" x1="0%" y1="0%" x2="100%" y2="0%">
      <stop offset="0%" stop-color="#3572A5" />
      <stop offset="50%" stop-color="#f1e05a" />
      <stop offset="100%" stop-color="#89e051" />
    </linearGradient>

    <linearGradient id="thread-37" x1="0%" y1="0%" x2="100%" y2="0%">
      <stop offset="0%" stop-color="#3572A5" />
      <stop offset="50%" stop-color="#89e051" />
      <stop offset="100%" stop-color="#dea584" />
    </linearGradient>

    <linearGradient id="thread-38" x1="0%" y1="0%" x2="100%" y2="0%">
      <stop offset="0%" stop-color="#3572A5" />
      <stop offset="50%" stop-color="#89e051" />
      <stop offset="100%" stop-color="#00ADD8" />
    </linearGradient>

    <linearGradient id="thread-39" x1="0%" y1="0%" x2="100%" y2="0%">
      <stop offset="0%" stop-color="#3572A5" />
      <stop offset="50%" stop-color="#3178c6" />
      <stop offset="100%" stop-color="#3572A5" />
    </linearGradient>

    <linearGradient id="thread-40" x1="0%" y1="0%" x2="100%" y2="0%">
      <stop offset="0%" stop-color="#3572A5" />
      <stop offset="50%" stop-color="#3178c6" />
      <stop offset="100%" stop-color="#3572A5" />
    </linearGradient>

    <linearGradient id="thread-41" x1="0%" y1="0%" x2="100%" y2="0%">
      <stop offset="0%" stop-color="#3572A5" />
      <stop offset="50%" stop-color="#3178c6" />
      <stop offset="100%" stop-color="#3572A5" />
    </linearGradient>

    <!-- Background pattern -->
    <pattern id="loom" patternUnits="userSpaceOnUse" width="20" height="20">
      <rect width="20" height="20" fill="#fafafa"/>
      <circle cx="10" cy="10" r="0.5" fill="#eee"/>
    </pattern>
  </defs>

  <!-- Background -->
  <rect width="100%" height="100%" fill="url(#loom)"/>

  <!-- Threads -->
  <g id="tapestry">
    
    <path
      d="M 20,20 L 35.2,23.796701119045203 L 50.400000000000006,17.609992015886295 L 65.6,17.707799231396855 L 80.80000000000001,23.832939088348425 L 96,19.879381129516577 L 111.2,16.242990002315068 L 126.4,22.485641454383877 L 141.60000000000002,22.192308764864308 L 156.79999999999998,16.13430905333852 L 172,20.24112803643977 L 187.2,23.713901823890172 L 202.4,17.420985800547175 L 217.6,17.909577173947028 L 232.8,23.89492690571731 L 248,19.638582106880268 L 263.20000000000005,16.332584194860182 L 278.40000000000003,22.670041295520523 L 293.59999999999997,21.986635618836356 L 308.8,16.079379624992285 L 324,20.481379035238835 L 339.2,23.617594221109382 L 354.4,17.241360047812993 L 369.6,18.118958460888418 L 384.8,23.94274798596787 L 400,19.399097643516974 L 415.2,16.43551761478301 L 430.40000000000003,22.844729587751544 L 445.6,21.773736626151134 L 460.79999999999995,16.038710386769743 L 476,20.71987914874234 L 491.2,23.508128603410263 L 506.40000000000003,17.071768097497355 L 521.6,18.335181524745884 L 536.8000000000001,23.97622839292904 L 552,19.161798799017475 L 567.1999999999999,16.55141586976864 L 582.4,23.009070949932827 L 597.6,21.554386148981667 L 612.8000000000001,16.012449261962058 L 628,20.955760897664415 L 643.1999999999999,23.385903122200332 L 658.4,16.912826794187048 L 673.6,18.557459912941738 L 688.8,23.99524635072786 L 704,18.92754868337831 L 719.2,16.679857411441255 L 734.4,23.162467635063624 L 749.6,21.329382015020602 L 764.8,16.00069176826714 L 780,21.188166326308135"
      stroke="url(#thread-0)"
      stroke-width="8"
      stroke-linecap="round"
      fill="none"
      opacity="1"
      class="thread"
      style="animation-delay: 0s"
    >
      <title>2026-02-02: 7524 stars, TypeScript, JavaScript, Lua, Unknown, Python, Shell</title>
    </path>

    <path
      d="M 20,33.917702154416816 L 35.2,35.00546705325807 L 50.400000000000006,28.76663057990412 L 65.6,30.409966298192664 L 80.80000000000001,35.92941940358401 L 96,31.869898897196737 L 111.2,28.12753339581581 L 126.4,33.82530436348697 L 141.60000000000002,35.0734250048635 L 156.79999999999998,28.829279233416894 L 172,30.31458339691884 L 187.2,35.90852537878209 L 202.4,31.974428325114538 L 217.6,28.102668826637313 L 232.8,33.73165959980395 L 248,35.13928331910617 L 263.20000000000005,28.894093992749028 L 278.40000000000003,30.22035190284256 L 293.59999999999997,35.884961210441396 L 308.8,32.078975222547264 L 324,28.08046675357754 L 339.2,33.63683183761285 L 354.4,35.202997004298616 L 369.6,28.961030579126806 L 384.8,30.127336191038918 L 400,35.8587429966311 L 415.2,32.18346816736107 L 430.40000000000003,28.06094234417827 L 445.6,33.540885859334765 L 460.79999999999995,35.26452253387563 L 476,29.03004326423166 L 491.2,30.035599806010822 L 506.40000000000003,35.8298886485549 L 521.6,32.28783577428036 L 536.8000000000001,28.04410893671174 L 552,33.4438872113097 L 567.1999999999999,35.32381787612972 L 582.4,29.101084901439876 L 597.6,29.94520541827761 L 612.8000000000001,35.798417878314815 L 628,32.39200674365525 L 643.1999999999999,28.029978031068524 L 658.4,33.34590215901848 L 673.6,35.380842522925626 L 688.8,29.174106958031324 L 704,29.856214781561558 L 719.2,35.76435218544475 L 734.4,32.495909910170425 L 749.6,28.018559280901307 L 764.8,33.24699764181269 L 780,35.435557517373546"
      stroke="url(#thread-1)"
      stroke-width="8"
      stroke-linecap="round"
      fill="none"
      opacity="0.9857142857142857"
      class="thread"
      style="animation-delay: 0.1s"
    >
      <title>2026-02-01: 7128 stars, TypeScript, Python, JavaScript, Roff, Go, Unknown, Shell</title>
    </path>

    <path
      d="M 20,47.36588393923159 L 35.2,44.984167962330446 L 50.400000000000006,40.01083113591344 L 65.6,45.54221870219618 L 80.80000000000001,47.0124639674629 L 96,40.54995311251893 L 111.2,43.172490529448226 L 126.4,47.974118182129104 L 141.60000000000002,42.31065457654798 L 156.79999999999998,41.09576376446167 L 172,47.52863173748955 L 187.2,44.66951304648619 L 202.4,40.04735792602233 L 217.6,45.8337407804562 L 232.8,46.791312881911985 L 248,40.398488568150576 L 263.20000000000005,43.489565858388715 L 278.40000000000003,47.92477526259255 L 293.59999999999997,42.024828687817525 L 308.8,41.326123516894434 L 324,47.66856813735199 L 339.2,44.35052995757923 L 354.4,40.109437196461315 L 369.6,46.113408351187786 L 384.8,46.55211691241379 L 400,40.27030656449768 L 415.2,43.80994096963159 L 430.40000000000003,47.850060012138975 L 445.6,41.75177160667408 L 460.79999999999995,41.57376896708603 L 476,47.784788497812215 L 491.2,44.02928081227794 L 506.40000000000003,40.196667625960465 L 521.6,46.37941345911289 L 536.8000000000001,46.29642237917408 L 552,40.1662357544121 L 567.1999999999999,44.131544747559694 L 582.4,47.750455439331226 L 597.6,41.49324855383959 L 612.8000000000001,41.83709917182522 L 628,47.876541493954115 L 643.1999999999999,43.70784237653103 L 658.4,40.308485299601 L 673.6,46.63003647210667 L 688.8,46.02588225997573 L 704,40.08694892011844 L 719.2,44.45229813364567 L 734.4,47.626605453696136 L 749.6,41.25093079250925 L 764.8,42.11441179132236 L 780,47.94323397401103"
      stroke="url(#thread-2)"
      stroke-width="8"
      stroke-linecap="round"
      fill="none"
      opacity="0.9714285714285714"
      class="thread"
      style="animation-delay: 0.2s"
    >
      <title>2026-01-31: 7532 stars, TypeScript, Python, Roff, JavaScript, Unknown, Shell</title>
    </path>

    <path
      d="M 20,59.98997994641622 L 35.2,54.48152499284092 L 50.400000000000006,53.35875940800671 L 65.6,59.86447682748898 L 80.80000000000001,55.20873629859611 L 96,52.83833914826186 L 111.2,59.59951302784855 L 126.4,55.96450261434294 L 141.60000000000002,52.43201644796704 L 156.79999999999998,59.20465052276655 L 172,56.721549954608314 L 187.2,52.154454621951615 L 202.4,58.694139053205355 L 217.6,57.45255810449155 L 232.8,52.01567028124062 L 248,58.08640188322765 L 263.20000000000005,58.131146547627715 L 278.40000000000003,52.02067185504498 L 293.59999999999997,57.40337094390801 L 308.8,58.732826482445866 L 324,52.16927884729282 L 339.2,56.66969535697697 L 354.4,59.23588457049761 L 369.6,52.45612835034542 L 384.8,55.911851900881835 L 400,59.62216652427397 L 415.2,52.87086858083246 L 430.40000000000003,55.15718952063617 L 445.6,59.877732256506825 L 460.79999999999995,53.39853245331263 L 476,54.43294236304831 L 491.2,59.993358948021644 L 506.40000000000003,54.02007771028799 L 521.6,53.76524695477146 L 536.8000000000001,59.96487387950164 L 552,54.713074116437944 L 567.1999999999999,53.17819899111022 L 582.4,59.79330501597889 L 597.6,55.45251291770646 L 612.8000000000001,52.69298377405459 L 628,59.48484390978096 L 643.1999999999999,56.21170935360107 L 658.4,52.32711168016623 L 673.6,59.050622260686175 L 688.8,56.96326565296886 L 704,52.09378624864209 L 719.2,58.50631019675242 L 734.4,57.68005976079887 L 749.6,52.00142769390203 L 764.8,57.87155077300233 L 780,58.33622411501939"
      stroke="url(#thread-3)"
      stroke-width="8"
      stroke-linecap="round"
      fill="none"
      opacity="0.9571428571428572"
      class="thread"
      style="animation-delay: 0.30000000000000004s"
    >
      <title>2026-01-30: 8081 stars, TypeScript, Rust, Roff, Python, JavaScript, Shell, Unknown</title>
    </path>

    <path
      d="M 20,71.63718970730272 L 35.2,64.36176749716475 L 50.400000000000006,69.12247646902703 L 65.6,70.16976854975074 L 80.80000000000001,64.03895453664272 L 96,71.01221311309072 L 111.2,68.02036029298897 L 126.4,64.96115082178585 L 141.60000000000002,71.9551711325705 L 156.79999999999998,65.86455252547928 L 172,66.8384978008702 L 187.2,71.6549662866424 L 202.4,64.37994428698414 L 217.6,69.08092036168026 L 232.8,70.20595694918308 L 248,64.03316768264237 L 263.20000000000005,70.98359528349727 L 278.40000000000003,68.06358601749847 L 293.59999999999997,64.93321920910614 L 308.8,71.94848654500542 L 324,65.90122915522741 L 339.2,66.79720070668792 L 354.4,71.67231599583961 L 369.6,64.39854386967676 L 384.8,69.03923801168366 L 400,70.24188771090189 L 415.2,64.02784412218391 L 430.40000000000003,70.95462899439863 L 445.6,68.10680431568167 L 460.79999999999995,64.90564577131792 L 476,71.94134080653448 L 491.2,65.93815090422949 L 506.40000000000003,66.75604408961694 L 521.6,71.68923680859034 L 536.8000000000001,64.41756407296361 L 552,68.99743428719466 L 567.1999999999999,70.27755663848832 L 582.4,64.02298447701563 L 597.6,70.92531762882022 L 612.8000000000001,68.15001013999517 L 628,64.87843372877303 L 643.1999999999999,71.93373475172143 L 658.4,65.97531346032757 L 673.6,66.71503275641308 L 688.8,71.7057267486822 L 704,64.43700267544072 L 719.2,68.95551407054596 L 734.4,70.31295956610364 L 749.6,64.01858931470429 L 764.8,70.89566461008965 L 780,68.19319844435225"
      stroke="url(#thread-4)"
      stroke-width="8"
      stroke-linecap="round"
      fill="none"
      opacity="0.9428571428571428"
      class="thread"
      style="animation-delay: 0.4s"
    >
      <title>2026-01-29: 9087 stars, TypeScript, JavaScript, Python, Shell, Unknown</title>
    </path>

    <path
      d="M 20,82.39388857641583 L 35.2,76.85558180545883 L 50.400000000000006,83.67888463451813 L 65.6,76.03943702714966 L 80.80000000000001,83.97009817683214 L 96,76.29316494834491 L 111.2,83.18886326096946 L 126.4,77.54822567260823 L 141.60000000000002,81.54621602348715 L 156.79999999999998,79.4655878010415 L 172,79.48588717800993 L 187.2,81.52731148258405 L 202.4,77.56443638509312 L 217.6,83.17646026756326 L 232.8,76.30090797274636 L 248,83.96754716976912 L 263.20000000000005,76.03662072890064 L 278.40000000000003,83.68687472108728 L 293.59999999999997,76.84296695534648 L 308.8,82.41026138278347 L 324,78.50212716027511 L 339.2,80.4825605930778 L 354.4,80.5659099578847 L 369.6,78.4245050008025 L 384.8,82.47682266645162 L 400,76.79204018928279 L 415.2,83.71866762618707 L 430.40000000000003,76.02614627844582 L 445.6,83.95598343209743 L 460.79999999999995,76.33371531660349 L 476,83.12466361658075 L 491.2,77.6316632272259 L 506.40000000000003,81.4492738237829 L 521.6,79.56937343270195 L 536.8000000000001,79.38238956194097 L 552,81.62340942599961 L 567.1999999999999,77.48234131587198 L 582.4,83.23891144397574 L 597.6,76.26239191213509 L 612.8000000000001,83.97948155106543 L 628,76.05208807698659 L 643.1999999999999,83.64506845529937 L 658.4,76.90823949464784 L 673.6,82.32600765796099 L 688.8,78.59957272377311 L 704,80.37861899179455 L 719.2,80.66920543222662 L 734.4,78.32895342064968 L 749.6,82.55806469326703 L 764.8,76.73069011910705 L 780,83.7559101773132"
      stroke="url(#thread-5)"
      stroke-width="8"
      stroke-linecap="round"
      fill="none"
      opacity="0.9285714285714286"
      class="thread"
      style="animation-delay: 0.5s"
    >
      <title>2026-01-28: 11454 stars, TypeScript, JavaScript, Python, Shell</title>
    </path>

    <path
      d="M 20,92.56448003223947 L 35.2,91.49330233776425 L 50.400000000000006,92.44880762664398 L 65.6,91.60917777377904 L 80.80000000000001,92.3327537819871 L 96,91.72538536739165 L 111.2,92.21641713177448 L 126.4,91.84182635442603 L 141.60000000000002,92.09989654986659 L 156.79999999999998,91.95840177234645 L 172,91.98329106644641 L 187.2,92.07501254436507 L 202.4,91.86669978385433 L 217.6,92.19155956364686 L 232.8,91.75022179236136 L 248,92.30794377753982 L 263.20000000000005,91.63395608595322 L 278.40000000000003,92.42406627175943 L 293.59999999999997,91.51800147819559 L 308.8,92.539828354455 L 324,91.40245651825327 L 339.2,92.65513164008792 L 354.4,91.28741940713374 L 369.6,92.76987813304832 L 384.8,91.17298791422643 L 400,92.88397031094136 L 415.2,91.0592592942095 L 430.40000000000003,92.99731120747089 L 445.6,90.94633020439332 L 460.79999999999995,93.10980449485042 L 476,90.83429662257215 L 491.2,93.22135456567194 L 506.40000000000003,90.72325376545291 L 521.6,93.33186661416165 L 536.8000000000001,90.6132960077313 L 552,93.44124671675492 L 567.1999999999999,90.50451680188331 L 582.4,93.54940191192199 L 597.6,90.39700859874024 L 612.8000000000001,93.65624027917445 L 628,90.2908627689151 L 643.1999999999999,93.7616710171888 L 658.4,90.18616952514824 L 673.6,93.86560452097774 L 688.8,90.08301784563461 L 704,93.9679524580447 L 719.2,89.98149539840284 L 734.4,94.06862784345705 L 749.6,89.88168846680615 L 764.8,94.16754511377488 L 780,89.78368187619076"
      stroke="url(#thread-6)"
      stroke-width="8"
      stroke-linecap="round"
      fill="none"
      opacity="0.9142857142857144"
      class="thread"
      style="animation-delay: 0.6000000000000001s"
    >
      <title>2026-01-27: 12558 stars, TypeScript, JavaScript, Python, Shell</title>
    </path>

    <path
      d="M 20,102.59686708924153 L 35.2,100.05879730467299 L 50.400000000000006,103.93974152644232 L 65.6,107.91882837513766 L 80.80000000000001,105.51534214321764 L 96,100.6438269379994 L 111.2,101.23849136323231 L 126.4,106.33080891324671 L 141.60000000000002,107.62695148399214 L 156.79999999999998,103.01589917646915 L 172,100.00764618129388 L 187.2,103.50171673088741 L 202.4,107.80733835532159 L 217.6,105.91197004877512 L 232.8,100.90258719602483 L 248,100.93794263996273 L 263.20000000000005,105.96045317379085 L 278.40000000000003,107.78998497646826 L 293.59999999999997,103.44679019580985 L 308.8,100.00460501959283 L 324,103.0696965105957 L 339.2,107.64996790739524 L 354.4,106.28555771041803 L 369.6,101.19867290616881 L 384.8,100.67429331713134 L 400,105.56647294328391 L 415.2,107.90734715816927 L 430.40000000000003,103.88434768402782 L 445.6,100.04971046716663 L 460.79999999999995,102.64888693626791 L 476,107.44861342796142 L 491.2,106.63160320048637 L 506.40000000000003,101.52851608001764 L 521.6,100.45072050763797 L 536.8000000000001,105.153615890558 L 552,107.97762375312652 L 567.1999999999999,104.32329884343383 L 582.4,100.14241897966704 L 597.6,102.2443589844292 L 612.8000000000001,107.20570134431816 L 628,106.94593648896226 L 643.1999999999999,101.888141933979 L 658.4,100.26991838133455 L 673.6,104.72685716007341 L 688.8,107.99996789143724 L 704,104.75835408186822 L 719.2,100.28161337079594 L 734.4,101.86098742949692 L 749.6,106.9241588747347 L 764.8,107.22476969452315 L 780,102.27321678751285"
      stroke="url(#thread-7)"
      stroke-width="8"
      stroke-linecap="round"
      fill="none"
      opacity="0.9"
      class="thread"
      style="animation-delay: 0.7000000000000001s"
    >
      <title>2026-01-26: 5507 stars, TypeScript, JavaScript, Python, Rust, Shell</title>
    </path>

    <path
      d="M 20,112.9727900187683 L 35.2,112.20759056617216 L 50.400000000000006,115.1613017169647 L 65.6,118.93745675000328 L 80.80000000000001,119.83308444410508 L 96,116.96991482700031 L 111.2,113.15562782727827 L 126.4,112.1305876158287 L 141.60000000000002,114.899968601632 L 156.79999999999998,118.74806181585681 L 172,119.90135205480209 L 187.2,117.22890043298227 L 202.4,113.35136509579107 L 217.6,112.07113276652586 L 232.8,114.64362421849165 L 248,118.54620419703818 L 263.20000000000005,119.9519267154448 L 278.40000000000003,117.48231287517969 L 293.59999999999997,113.55911413981501 L 308.8,112.02949565085878 L 324,114.39343111024779 L 339.2,118.33279933432732 L 354.4,119.98457906581855 L 369.6,117.72900290748001 L 384.8,113.77793280047592 L 400,112.00586509654606 L 415.2,114.15052392307076 L 430.40000000000003,118.10881503619791 L 445.6,119.99916102484883 L 460.79999999999995,117.96785177044825 L 476,114.0068287172845 L 491.2,112.00034827008058 L 506.40000000000003,113.91600426088407 L 521.6,117.87526708972678 L 536.8000000000001,119.99560646216104 L 552,118.19777626499247 L 567.1999999999999,114.24476382857218 L 582.4,112.01297019072072 L 597.6,113.69093568950063 L 612.8000000000001,117.63321465391682 L 628,119.97393149798714 L 643.1999999999999,118.41773366476012 L 658.4,114.4906590791855 L 673.6,112.04367361702599 L 688.8,113.47633891326515 L 704,117.38375545632437 L 719.2,119.9342344300591 L 734.4,118.62672644498706 L 749.6,114.74339931408929 L 764.8,112.09231930645164 L 780,113.27318714607638"
      stroke="url(#thread-8)"
      stroke-width="8"
      stroke-linecap="round"
      fill="none"
      opacity="0.8857142857142857"
      class="thread"
      style="animation-delay: 0.8s"
    >
      <title>2026-01-25: 4122 stars, Shell, Python, TypeScript</title>
    </path>

    <path
      d="M 20,124.08987952933961 L 35.2,126.77438796543595 L 50.400000000000006,131.66778939387174 L 65.6,129.95081652683808 L 80.80000000000001,124.71793092890067 L 96,125.40024456781154 L 111.2,130.76803892493365 L 126.4,131.14705901142483 L 141.60000000000002,125.85420545375125 L 156.79999999999998,124.42866912415548 L 172,129.43966207340645 L 187.2,131.85598446166253 L 202.4,127.32275281835608 L 217.6,124.01010853175504 L 232.8,127.88835586163205 L 248,131.9678169099795 L 263.20000000000005,128.89617082151005 L 278.40000000000003,124.20937622621581 L 293.59999999999997,126.35433756540493 L 308.8,131.46523928133513 L 324,130.33081821203078 L 339.2,124.99561592503608 L 354.4,125.07514745455826 L 369.6,130.42607491448229 L 384.8,131.40454214526324 L 400,126.24707967340284 L 415.2,124.24886606362391 L 430.40000000000003,129.0112367429305 L 445.6,131.95107819434003 L 460.79999999999995,127.76998031949107 L 476,124.00344173913945 L 491.2,127.43981018558715 L 506.40000000000003,131.88579612969318 L 521.6,129.3284991437388 L 536.8000000000001,124.37687804364712 L 552,125.95512812144877 L 567.1999999999999,131.21880477420277 L 582.4,130.68130200889217 L 597.6,125.31134896506069 L 612.8000000000001,124.78709118403405 L 628,130.05338666820703 L 643.1999999999999,131.61890956362268 L 658.4,126.6621531817794 L 673.6,124.11656801745949 L 688.8,128.57000493398255 L 704,131.9961347836973 L 719.2,128.22012082997537 L 734.4,124.04738805733822 L 749.6,126.99835885104889 L 764.8,131.75456494953846 L 780,129.74400312112138"
      stroke="url(#thread-9)"
      stroke-width="8"
      stroke-linecap="round"
      fill="none"
      opacity="0.8714285714285714"
      class="thread"
      style="animation-delay: 0.9s"
    >
      <title>2026-01-24: 5856 stars, Shell, TypeScript, Python, Rust</title>
    </path>

    <path
      d="M 20,136.16430290134744 L 35.2,139.77228772437797 L 50.400000000000006,143.68185838660673 L 65.6,142.71511595460032 L 80.80000000000001,138.15242981928756 L 96,136.0366956627633 L 111.2,139.17002619227054 L 126.4,143.4025875235994 L 141.60000000000002,143.12870663108694 L 156.79999999999998,138.71111582059194 L 172,136.00054416755899 L 187.2,138.586916828433 L 202.4,143.04479981078518 L 217.6,143.47010043183147 L 232.8,139.29954363598077 L 248,136.05668263425193 L 263.20000000000005,138.03641524863545 L 278.40000000000003,142.61675142494573 L 293.59999999999997,143.731419479897 L 308.8,139.9041349230654 L 324,136.2038156323713 L 339.2,137.5312246234971 L 354.4,142.1283198521377 L 369.6,143.90663367368984 L 384.8,140.51093835716907 L 400,136.4385479753319 L 415.2,137.0830025448251 L 430.40000000000003,141.590775958482 L 445.6,143.99169983535123 L 460.79999999999995,141.10595156692958 L 476,136.75546306650276 L 491.2,136.70209201934207 L 506.40000000000003,141.01652390783042 L 521.6,143.98465500963235 L 536.8000000000001,141.67544424783605 L 552,137.14724789058522 L 567.1999999999999,136.3972827972931 L 582.4,140.41881492787354 L 597.6,143.88566176032305 L 612.8000000000001,142.20627499765197 L 628,137.60486176604627 L 643.1999999999999,136.17560854342335 L 658.4,139.81144152971703 L 673.6,143.69700441898974 L 688.8,142.68619456254703 L 704,138.11774496453802 L 719.2,136.0421845307351 L 734.4,139.20841923700263 L 749.6,143.4230363725863 L 764.8,143.10412849634318 L 780,138.6740623832791"
      stroke="url(#thread-10)"
      stroke-width="8"
      stroke-linecap="round"
      fill="none"
      opacity="0.8571428571428571"
      class="thread"
      style="animation-delay: 1s"
    >
      <title>2026-01-23: 4879 stars, Unknown, Rust, Python, Shell, TypeScript, JavaScript</title>
    </path>

    <path
      d="M 20,149.17783869771844 L 35.2,154.87201869246047 L 50.400000000000006,154.74565096013194 L 65.6,149.05483739140325 L 80.80000000000001,149.33280792993781 L 96,155.01621638634373 L 111.2,154.5868403131874 L 126.4,148.9148704001149 L 141.60000000000002,149.49534728603777 L 156.79999999999998,155.15185334253147 L 172,154.42068759971156 L 187.2,148.78365973857157 L 202.4,149.66499544076362 L 217.6,155.27854459116247 L 232.8,154.24766440052463 L 248,148.6615778137602 L 263.20000000000005,149.84127089240354 L 278.40000000000003,155.39593055241588 L 293.59999999999997,154.06826179651532 L 308.8,148.5489711231471 L 324,150.02367332940477 L 339.2,155.50367805708404 L 354.4,153.8829889748367 L 369.6,148.44615927123593 L 384.8,150.21168505037656 L 400,155.60148129218595 L 415.2,153.69237178371228 L 430.40000000000003,148.35343406245428 L 445.6,150.4047724334494 L 460.79999999999995,155.68906266893666 L 476,153.49695123995403 L 491.2,148.27105867294355 L 506.40000000000003,150.60238745082052 L 521.6,155.76617361061054 L 536.8000000000001,153.2972819934282 L 552,148.1992669036026 L 567.1999999999999,150.80396922418686 L 582.4,155.83259525806062 L 597.6,153.09393075282762 L 612.8000000000001,148.13826251650522 L 628,151.00894561665075 L 643.1999999999999,155.88813909089308 L 658.4,152.8874746772177 L 673.6,148.08821865657515 L 688.8,151.21673485658016 L 704,155.9326474625327 L 719.2,152.67849973792224 L 734.4,148.04927736015972 L 749.6,151.4267471888147 L 764.8,155.96599404766124 L 780,152.46759905539798"
      stroke="url(#thread-11)"
      stroke-width="8"
      stroke-linecap="round"
      fill="none"
      opacity="0.842857142857143"
      class="thread"
      style="animation-delay: 1.1s"
    >
      <title>2026-01-22: 6303 stars, Rust, Unknown, Shell, TypeScript, Python</title>
    </path>

    <path
      d="M 20,162.88233800720428 L 35.2,166.80217657648356 L 50.400000000000006,167.8606752763599 L 65.6,164.97698696925994 L 80.80000000000001,161.0956842396818 L 96,160.1800170621509 L 111.2,163.1649854021087 L 126.4,167.00259828293196 L 141.60000000000002,167.774218017265 L 156.79999999999998,164.69193340479518 L 172,160.90310636572468 L 187.2,160.27655871383405 L 202.4,163.45206661151096 L 217.6,167.18707659889137 L 232.8,167.66772017132845 L 248,164.4032057676022 L 263.20000000000005,160.7269725778096 L 278.40000000000003,160.39287133478922 L 293.59999999999997,163.74205727304485 L 308.8,167.3546319694727 L 324,167.54174722769793 L 339.2,164.11233716235606 L 354.4,160.5682181225111 L 369.6,160.52833732074174 L 384.8,164.03341757554702 L 400,167.5043746983363 L 415.2,167.39696808565407 L 430.40000000000003,163.82087206198227 L 445.6,160.42768596449983 L 460.79999999999995,160.68223736564116 L 476,164.32460043524603 L 491.2,167.6355096718592 L 506.40000000000003,167.23415150284563 L 521.6,163.53035810671494 L 536.8000000000001,160.30612231051424 L 552,160.853754281079 L 567.1999999999999,164.61405971056763 L 582.4,167.74734058108072 L 597.6,167.05416201329055 L 612.8000000000001,163.24233788633626 L 628,160.2041726471037 L 643.1999999999999,161.04197733544862 L 658.4,164.90025841193741 L 673.6,167.8392736190089 L 688.8,166.85795533681733 L 704,162.9583407492336 L 719.2,160.12237831318222 L 734.4,161.24590708980685 L 749.6,165.1816768629873 L 764.8,167.91082063365525 L 780,166.64657330432195"
      stroke="url(#thread-12)"
      stroke-width="8"
      stroke-linecap="round"
      fill="none"
      opacity="0.8285714285714285"
      class="thread"
      style="animation-delay: 1.2000000000000002s"
    >
      <title>2026-01-21: 4215 stars, Unknown, TypeScript, Python, Shell, JavaScript</title>
    </path>

    <path
      d="M 20,176.86047995235126 L 35.2,179.84182527495253 L 50.400000000000006,174.63778816775744 L 65.6,172.33607586694927 L 80.80000000000001,177.84071030926594 L 96,179.42353239794906 L 111.2,173.71218571724248 L 126.4,172.8752498940031 L 141.60000000000002,178.695898105594 L 156.79999999999998,178.7726731822144 L 172,172.94199835546934 L 187.2,173.62669347400086 L 202.4,179.36794898977075 L 217.6,177.9334615936872 L 232.8,172.379546210903 L 248,174.53935977523503 L 263.20000000000005,179.81120941002388 L 278.40000000000003,176.9629066931497 L 293.59999999999997,172.06303760780284 L 308.8,175.55124983421155 L 324,179.99556793726202 L 339.2,175.92693991443062 L 354.4,172.01397351021524 L 369.6,176.59362424996675 L 384.8,179.90850078531645 L 400,174.89593623073532 L 415.2,172.23568692516704 L 430.40000000000003,177.59567276768763 L 445.6,179.5559225728903 L 460.79999999999995,173.93993346384093 L 476,172.71311648586828 L 491.2,178.48932453893212 L 506.40000000000003,178.9617845335193 L 521.6,173.12387449655654 L 536.8000000000001,173.41382959579946 L 552,179.21387228934714 L 567.1999999999999,178.16644746781986 L 582.4,172.50319559299467 L 597.6,174.2902256297771 L 612.8000000000001,179.7200962663605 L 628,177.22393996612686 L 643.1999999999999,172.1200605195083 L 658.4,175.28276952482878 L 673.6,179.9736078201138 L 688.8,176.19828815508845 L 704,172.00049628882073 L 719.2,176.3240360975852 L 734.4,179.95718548253572 L 749.6,175.15916629473193 L 764.8,172.1526251010873 L 780,177.34329035087958"
      stroke="url(#thread-13)"
      stroke-width="8"
      stroke-linecap="round"
      fill="none"
      opacity="0.8142857142857143"
      class="thread"
      style="animation-delay: 1.3s"
    >
      <title>2026-01-20: 6510 stars, Python, Vue, TypeScript, Unknown, Shell, JavaScript</title>
    </path>

    <path
      d="M 20,190.62794639487515 L 35.2,191.83319342029077 L 50.400000000000006,188.54706343823491 L 65.6,184.61993576086053 L 80.80000000000001,184.6532507595815 L 96,188.60797303940126 L 111.2,191.85032945845467 L 126.4,190.5812304655916 L 141.60000000000002,186.287687388385 L 156.79999999999998,184.00047184286544 L 172,186.3995287694316 L 187.2,190.67386797318304 L 202.4,191.81521913824122 L 217.6,188.48625387594262 L 232.8,184.587541867591 L 248,184.68722866524018 L 263.20000000000005,188.66851061673427 L 278.40000000000003,191.86649444469586 L 293.59999999999997,190.53408224398385 L 308.8,186.23246982879184 L 324,184.00188370957375 L 339.2,186.45591576927745 L 354.4,190.719161101329 L 369.6,191.79634814958192 L 384.8,188.42533002740655 L 400,184.5559500183593 L 415.2,184.72198518513957 L 430.40000000000003,188.72889107127378 L 445.6,191.8817506728816 L 460.79999999999995,190.48633842662773 L 476,186.17766769906783 L 491.2,184.00423526996 L 506.40000000000003,186.51266568157618 L 521.6,190.7638151338833 L 536.8000000000001,191.77658488963874 L 552,188.36430621180878 L 567.1999999999999,184.5251676383274 L 582.4,184.75751215031218 L 597.6,188.7891002115538 L 612.8000000000001,191.896094557278 L 628,190.43801023494854 L 643.1999999999999,186.12329387958243 L 658.4,184.0075259713273 L 673.6,186.56976516816297 L 688.8,190.8078195756254 L 704,191.7559340034518 L 719.2,188.30319677182715 L 734.4,184.4952019624044 L 749.6,184.7938012107096 L 764.8,188.84912388637304 L 780,191.909522726583"
      stroke="url(#thread-14)"
      stroke-width="8"
      stroke-linecap="round"
      fill="none"
      opacity="0.8"
      class="thread"
      style="animation-delay: 1.4000000000000001s"
    >
      <title>2026-01-19: 4551 stars, JavaScript, TypeScript, Shell, Python</title>
    </path>

    <path
      d="M 20,203.75199990709896 L 35.2,203.3514562948677 L 50.400000000000006,200.247598335758 L 65.6,196.94402536489574 L 80.80000000000001,196.10542861569115 L 96,198.40822765740492 L 111.2,201.99496437638786 L 126.4,203.97254515069702 L 141.60000000000002,202.7458358031428 L 156.79999999999998,199.3043109641333 L 172,196.42393506640772 L 187.2,196.42804483395935 L 202.4,199.31332529186164 L 217.6,202.7524836544204 L 232.8,203.9714643097724 L 248,201.98702665912884 L 263.20000000000005,198.39983569689394 L 278.40000000000003,196.10335144164299 L 293.59999999999997,196.94993844430482 L 308.8,200.25673212637332 L 324,203.35644340023845 L 339.2,203.74881768383912 L 354.4,201.11736240293885 L 369.6,197.58463270615172 L 384.8,196.00015967272614 L 400,197.6419932924712 L 415.2,201.18581601834293 L 430.40000000000003,203.77314903553082 L 445.6,203.31702660432728 L 460.79999999999995,200.18536111973916 L 476,196.90418171336376 L 491.2,196.1201167710523 L 506.40000000000003,198.4656000233836 L 521.6,202.04874389417174 L 536.8000000000001,203.97935278466628 L 552,202.70018045541096 L 567.1999999999999,199.24301864276262 L 582.4,196.39644470096704 L 597.6,196.4565303968231 L 612.8000000000001,199.3748100755948 L 628,202.79737348760708 L 643.1999999999999,203.96355065516613 L 658.4,201.9326927406631 L 673.6,198.34290773469147 L 688.8,196.08974803449203 L 704,196.99063222096206 L 719.2,200.31889912597293 L 734.4,203.38993917000107 L 749.6,203.72662423904643 L 764.8,201.05738117283119 L 780,197.5352450824667"
      stroke="url(#thread-15)"
      stroke-width="7.412"
      stroke-linecap="round"
      fill="none"
      opacity="0.7857142857142857"
      class="thread"
      style="animation-delay: 1.5s"
    >
      <title>2026-01-18: 3706 stars, JavaScript, Shell, Vue, TypeScript, Python, HTML</title>
    </path>

    <path
      d="M 20,215.95743298649353 L 35.2,211.43093289626697 L 50.400000000000006,208.03884844389484 L 65.6,212.54318295455803 L 80.80000000000001,215.9647009857157 L 96,211.4827243883686 L 111.2,208.03191887623444 L 126.4,212.49134618118896 L 141.60000000000002,215.97129182592383 L 156.79999999999998,211.53460422959026 L 172,208.0256670449055 L 187.2,212.43942548736865 L 202.4,215.97720438142224 L 217.6,211.58656355901093 L 232.8,208.020094017702 L 248,212.38742974099563 L 263.20000000000005,215.98243764236418 L 278.40000000000003,211.6385935021333 L 293.59999999999997,208.0152007464803 L 308.8,212.33536782278708 L 324,215.98699071492445 L 339.2,211.69068517239944 L 354.4,208.01098806699636 L 369.6,212.28324862476225 L 384.8,215.99086282145188 L 400,211.7428296727086 L 415.2,208.0074566987632 L 430.40000000000003,212.2310810487235 L 445.6,215.99405330060236 L 460.79999999999995,211.7950180969369 L 476,208.0046072449279 L 491.2,212.17887400473603 L 506.40000000000003,215.99656160745164 L 521.6,211.84724153145817 L 536.8000000000001,208.00244019216862 L 552,212.1266364096061 L 567.1999999999999,215.9983873135884 L 582.4,211.89949105666688 L 597.6,208.00095591061145 L 612.8000000000001,212.07437718535792 L 628,215.99953010718758 L 643.1999999999999,211.95175774850108 L 658.4,208.00015465376723 L 673.6,212.02210525771002 L 688.8,215.99998979306343 L 704,212.00403267996683 L 719.2,208.0000365584882 L 734.4,211.96982955455056 L 749.6,215.99976629270301 L 764.8,212.05630692266294 L 780,208.0006016449447"
      stroke="url(#thread-16)"
      stroke-width="8"
      stroke-linecap="round"
      fill="none"
      opacity="0.7714285714285715"
      class="thread"
      style="animation-delay: 1.6s"
    >
      <title>2026-01-17: 6237 stars, JavaScript, TypeScript, Shell, Python</title>
    </path>

    <path
      d="M 20,227.19394845049396 L 35.2,222.0278438083576 L 50.400000000000006,220.2930173882723 L 65.6,225.00782652902475 L 80.80000000000001,227.96915730163232 L 96,224.02470491837133 L 111.2,220.03726940388356 L 126.4,222.94443546909423 L 141.60000000000002,227.68813740413893 L 156.79999999999998,226.01499182559255 L 172,220.83603996351408 L 187.2,221.1619397022578 L 202.4,226.42567070090828 L 217.6,227.46907113691583 L 232.8,222.47676897832707 L 248,220.13467751500085 L 263.20000000000005,224.51771102919304 L 278.40000000000003,227.99999916261174 L 293.59999999999997,224.52284358003251 L 308.8,220.1360126901386 L 324,222.47198375822123 L 339.2,227.46649114080813 L 354.4,226.42978476416323 L 369.6,221.16558992546018 L 384.8,220.83287546460244 L 400,226.0105183937357 L 415.2,227.6901381902725 L 430.40000000000003,222.94942938286835 L 445.6,220.03656772802086 L 460.79999999999995,224.0195284715457 L 476,227.96851238331215 L 491.2,225.0128352076326 L 506.40000000000003,220.29496525776813 L 521.6,222.02334184600136 L 536.8000000000001,227.19082944633288 L 552,226.80671639967747 L 567.1999999999999,221.53930612813718 L 582.4,220.55316187874996 L 597.6,225.56403786057024 L 612.8000000000001,227.8537049076313 L 628,223.4384599503574 L 643.1999999999999,220.00021679005755 L 658.4,223.52104161806514 L 673.6,227.87518759587135 L 688.8,225.4870446715992 L 704,220.5116502819012 L 719.2,221.60550054398828 L 734.4,226.8654477262608 L 749.6,227.13991332182582 L 764.8,221.9513652646352 L 780,220.3271574874812"
      stroke="url(#thread-17)"
      stroke-width="8"
      stroke-linecap="round"
      fill="none"
      opacity="0.7571428571428571"
      class="thread"
      style="animation-delay: 1.7000000000000002s"
    >
      <title>2026-01-16: 5731 stars, JavaScript, TypeScript, Shell, Python, C</title>
    </path>

    <path
      d="M 20,237.64847394096702 L 35.2,234.02309049087762 L 50.400000000000006,232.0251184425953 L 65.6,233.2993080878569 L 80.80000000000001,236.79673394616145 L 96,239.63828056355652 L 111.2,239.48475874469656 L 126.4,236.46254916471406 L 141.60000000000002,233.05956455123692 L 156.79999999999998,232.07717539420992 L 172,234.3240941348348 L 187.2,237.9506351094263 L 202.4,239.97139402712696 L 217.6,238.72286222059813 L 232.8,235.23284338448934 L 248,232.37435543904232 L 263.20000000000005,232.50053384790996 L 278.40000000000003,235.50750730069313 L 293.59999999999997,238.91990559991478 L 308.8,239.92860881669884 L 324,237.70324251637396 L 339.2,234.07575018124638 L 354.4,232.03231927154792 L 369.6,233.25512226199373 L 384.8,236.73753567304036 L 400,239.61280244535277 L 415.2,239.51397461954994 L 430.40000000000003,236.52240823635358 L 445.6,233.1007902416309 L 460.79999999999995,232.06583030850803 L 476,234.26951765945836 L 491.2,237.89775513707258 L 506.40000000000003,239.96374187247605 L 521.6,238.76673721281497 L 536.8000000000001,235.29212719733874 L 552,232.4002450532012 L 567.1999999999999,232.47171667771056 L 582.4,235.44770592480376 L 597.6,238.87834910065664 L 612.8000000000001,239.9395069140413 L 628,237.75762378912083 L 643.1999999999999,234.12884742942992 L 658.4,232.0404223168824 L 673.6,233.21156059765735 L 688.8,236.67816969066743 L 704,239.58650280702844 L 719.2,239.5423914468781 L 734.4,236.58214851686523 L 749.6,233.14267518732225 L 764.8,232.05537981906713 L 780,234.21533468084314"
      stroke="url(#thread-18)"
      stroke-width="7.494"
      stroke-linecap="round"
      fill="none"
      opacity="0.7428571428571429"
      class="thread"
      style="animation-delay: 1.8s"
    >
      <title>2026-01-15: 3747 stars, TypeScript, Shell, Python, JavaScript, C</title>
    </path>

    <path
      d="M 20,247.69939551815276 L 35.2,244.4697477966764 L 50.400000000000006,244.52189288503905 L 65.6,247.80735566979257 L 80.80000000000001,251.27190446351048 L 96,251.69482565546105 L 111.2,248.68296327634408 L 126.4,245.03620462336315 L 141.60000000000002,244.14464922405455 L 156.79999999999998,246.8371047472498 L 172,250.61061087512385 L 187.2,251.95724110126963 L 202.4,249.6251411277091 L 217.6,245.78227757106285 L 232.8,244.00105298589082 L 248,245.93732924824334 L 263.20000000000005,249.79110535262058 L 278.40000000000003,251.97983422259327 L 293.59999999999997,250.4688298769726 L 308.8,246.66275207134913 L 324,244.0998065929534 L 339.2,245.16255864069387 L 354.4,248.86305272922792 L 369.6,251.7612357991255 L 384.8,251.16289910478122 L 400,247.62426836273548 L 415.2,244.43492523941646 L 430.40000000000003,244.55974666921546 L 445.6,247.88269616316924 L 460.79999999999995,251.31469364182942 L 476,251.6652858457238 L 491.2,248.60855527444176 L 506.40000000000003,244.9860995908937 L 521.6,244.16542579784743 L 536.8000000000001,246.9094486102083 L 552,250.66726973035261 L 567.1999999999999,251.94554374767765 L 582.4,249.55596165833597 L 597.6,245.71992659945727 L 612.8000000000001,244.00349321797756 L 628,246.0022921956382 L 643.1999999999999,249.85820016464558 L 658.4,251.98668822472 L 673.6,250.40907145221658 L 688.8,246.59193384241163 L 704,244.0837625969363 L 719.2,245.21620369606836 L 734.4,248.9365173233156 L 749.6,251.7862257810361 L 764.8,251.11618328925408 L 780,247.5492747029798"
      stroke="url(#thread-19)"
      stroke-width="8"
      stroke-linecap="round"
      fill="none"
      opacity="0.7285714285714286"
      class="thread"
      style="animation-delay: 1.9000000000000001s"
    >
      <title>2026-01-14: 4003 stars, TypeScript, Shell, Python, C, HTML, Jupyter Notebook</title>
    </path>

    <path
      d="M 20,257.8239155564425 L 35.2,256.14854228023984 L 50.400000000000006,259.88614975728353 L 65.6,263.7837665651878 L 80.80000000000001,262.3635382654963 L 96,257.62150610046484 L 111.2,256.22229700054015 L 126.4,260.1324110492623 L 141.60000000000002,263.85642972492695 L 156.79999999999998,262.1604798078748 L 172,257.42811187231405 L 187.2,256.3103703840959 L 202.4,260.3781704623941 L 217.6,263.9144758227617 L 232.8,261.94923246329114 L 248,257.24446589595453 L 263.20000000000005,256.412428605532 L 278.40000000000003,260.6224964924608 L 293.59999999999997,263.95768484602075 L 308.8,261.73059692454495 L 324,257.07126424645986 L 339.2,256.5280848326106 L 354.4,260.86446306820983 L 369.6,263.9858930191363 L 384.8,261.5054018879777 L 400,256.90916341167326 L 415.2,256.65690069244505 L 430.40000000000003,261.10315306145026 L 445.6,263.9989934244042 L 460.79999999999995,261.2745009124573 L 476,256.75877780391545 L 491.2,256.7983879330686 L 506.40000000000003,261.3376617632529 L 521.6,263.9969364072349 L 536.8000000000001,261.0387691841257 L 552,256.62067743117177 L 567.1999999999999,256.9520102740608 L 582.4,261.5671003130769 L 597.6,263.97972976436006 L 612.8000000000001,260.799100199173 L 628,256.49538573658555 L 643.1999999999999,257.11718543921563 L 658.4,261.7905990678259 L 673.6,263.9474387142801 L 688.8,260.5564023772097 L 704,256.3833776144468 L 719.2,257.2932873635493 L 734.4,262.00731089806516 L 749.6,263.9001856500663 L 764.8,260.31159561807624 L 780,256.2850776101956"
      stroke="url(#thread-20)"
      stroke-width="8"
      stroke-linecap="round"
      fill="none"
      opacity="0.7142857142857143"
      class="thread"
      style="animation-delay: 2s"
    >
      <title>2026-01-13: 5049 stars, TypeScript, Shell, C, Rust, Python</title>
    </path>

    <path
      d="M 20,268.48121696011333 L 35.2,268.35673733266896 L 50.400000000000006,271.11092551189927 L 65.6,274.56760218573663 L 80.80000000000001,275.99552759255585 L 96,274.26644849500406 L 111.2,270.74657007448326 L 126.4,268.2170699780022 L 141.60000000000002,268.6765936944009 L 156.79999999999998,271.76205564638565 L 172,275.0355256595711 L 187.2,275.910521889656 L 202.4,273.69567956047615 L 217.6,270.14102217899455 L 232.8,268.0552074518283 L 248,269.0863097161979 L 263.20000000000005,272.41961942056696 L 278.40000000000003,275.4213733115512 L 293.59999999999997,275.7197818481381 L 308.8,273.07906212748844 L 324,269.5857381091424 L 339.2,268.00000588877805 L 354.4,269.57480732362177 L 369.6,273.0658373480411 L 384.8,275.7147124302791 L 400,275.4284647776163 L 415.2,272.4332685580163 L 430.40000000000003,269.095731869586 L 445.6,268.0529578519732 L 460.79999999999995,270.1288783125262 L 476,273.6832367161901 L 491.2,275.90761158905934 L 506.40000000000003,275.04444743179477 L 521.6,271.77576009070737 L 536.8000000000001,268.684252455503 L 552,268.21263160392067 L 567.1999999999999,270.7335414780457 L 582.4,274.255124020746 L 597.6,275.99485509915536 L 612.8000000000001,274.5781130334822 L 628,271.1243147165532 L 643.1999999999999,268.36242562067525 L 658.4,268.474709818434 L 673.6,271.3724476827259 L 688.8,274.76603633179377 L 704,275.9740840337796 L 719.2,274.04207052863813 L 734.4,270.496546490078 L 749.6,268.1389530546701 L 764.8,268.8321063143181 L 780,272.0283219113905"
      stroke="url(#thread-21)"
      stroke-width="7.33"
      stroke-linecap="round"
      fill="none"
      opacity="0.7"
      class="thread"
      style="animation-delay: 2.1s"
    >
      <title>2026-01-12: 3665 stars, TypeScript, Unknown, Python, Shell, C</title>
    </path>

    <path
      d="M 20,280.0000391737972 L 35.2,281.46241470172816 L 50.400000000000006,284.76296011993475 L 65.6,287.5108343349703 L 80.80000000000001,287.7155388805238 L 96,285.22879037384746 L 111.2,281.8519336732888 L 126.4,280.0310880541171 L 141.60000000000002,281.08523325438534 L 156.79999999999998,284.25077012791655 L 172,287.23465474375587 L 187.2,287.8754279932665 L 202.4,285.7089281024396 L 217.6,282.3045190131752 L 232.8,280.1282783333191 L 248,280.7566260139281 L 263.20000000000005,283.7344010844897 L 278.40000000000003,286.904570053973 L 293.59999999999997,287.97073360498007 L 308.8,286.1605867675439 L 324,282.7853593221251 L 339.2,280.289990348102 L 354.4,280.4820691770731 L 369.6,283.22245821227875 L 384.8,286.5260810838381 L 400,287.9998674601008 L 415.2,286.57623953653365 L 430.40000000000003,283.2864414592306 L 445.6,280.5135291888735 L 460.79999999999995,280.26613819762457 L 476,282.7234729723434 L 491.2,286.105495302574 L 506.40000000000003,287.9623440467406 L 521.6,286.9489596103352 L 536.8000000000001,283.79941495616333 L 552,280.7951696100665 L 567.1999999999999,280.11243153713525 L 582.4,282.24576088849506 L 597.6,285.6498217172591 L 612.8000000000001,287.85878868767924 L 628,287.27253565762925 L 643.1999999999999,284.3157311766372 L 658.4,281.1302181108693 L 673.6,280.0235106970142 L 688.8,281.7972829701788 L 704,285.1666540686409 L 719.2,287.69092711944177 L 734.4,287.5415753258758 L 749.6,284.8267857783152 L 764.8,281.51309115180334 L 780,280.0008575314411"
      stroke="url(#thread-22)"
      stroke-width="6.996"
      stroke-linecap="round"
      fill="none"
      opacity="0.6857142857142857"
      class="thread"
      style="animation-delay: 2.2s"
    >
      <title>2026-01-11: 3498 stars, TypeScript, Unknown, Shell, Python</title>
    </path>

    <path
      d="M 20,292.49819130124627 L 35.2,295.61760826014097 L 50.400000000000006,299.0698722528933 L 65.6,299.850012956387 L 80.80000000000001,297.278968842658 L 96,293.5946658864864 L 111.2,292.0040491731578 L 126.4,293.89164666143773 L 141.60000000000002,297.6144280250886 L 156.79999999999998,299.93195523830855 L 172,298.82697222990464 L 187.2,295.26129453738275 L 202.4,292.3386117019602 L 217.6,292.60292823857674 L 232.8,295.8241738657855 L 248,299.19846465884837 L 263.20000000000005,299.78870087220537 L 278.40000000000003,297.0811204330574 L 293.59999999999997,293.43249526967264 L 308.8,292.0187152789896 L 324,294.0703836026965 L 339.2,297.8016569685058 L 354.4,299.9647056173869 L 369.6,298.67673697872794 L 384.8,295.0588436295741 L 400,292.26016542980597 L 415.2,292.7167689583155 L 430.40000000000003,296.0312106663237 L 445.6,299.3184855278033 L 460.79999999999995,299.7172354822436 L 476,296.88037473842104 L 491.2,293.27720528595677 L 506.40000000000003,292.04405079434565 L 521.6,294.2542917057812 L 536.8000000000001,297.9840576674327 L 552,299.98683101713345 L 567.1999999999999,298.5193283639222 L 582.4,294.8589149183542 L 597.6,292.1917415070637 L 612.8000000000001,292.83940837973006 L 628,296.2381638256748 L 643.1999999999999,299.4296132168986 L 658.4,299.63580830596476 L 673.6,296.6772697353511 L 688.8,293.1292120955853 L 704,292.0799878228036 L 719.2,294.4428781170016 L 734.4,298.16114130785775 L 749.6,299.9982721438861 L 764.8,298.35516822343465 L 780,294.66204419089865"
      stroke="url(#thread-23)"
      stroke-width="7.724"
      stroke-linecap="round"
      fill="none"
      opacity="0.6714285714285715"
      class="thread"
      style="animation-delay: 2.3000000000000003s"
    >
      <title>2026-01-10: 3862 stars, TypeScript, Unknown, Shell, Python</title>
    </path>

    <path
      d="M 20,305.8537083279983 L 35.2,309.6185079362257 L 50.400000000000006,311.94146695056565 L 65.6,310.75318766845095 L 80.80000000000001,307.11224340143656 L 96,304.26215315042725 L 111.2,304.7419071348539 L 126.4,308.12411865222134 L 141.60000000000002,311.3957596204887 L 156.79999999999998,311.64230323932804 L 172,308.64411722282335 L 187.2,305.07212224418623 L 202.4,304.10841413754116 L 217.6,306.6115079819428 L 232.8,310.3515337629231 L 248,311.9967061536963 L 263.20000000000005,310.0814306496773 L 278.40000000000003,306.31192191213785 L 293.59999999999997,304.0462300285382 L 308.8,305.3027365328197 L 324,308.96208819611803 L 339.2,311.7643678704474 L 354.4,311.21317717589255 L 369.6,307.79954189032856 L 384.8,304.5644838198829 L 400,304.3899400531246 L 415.2,307.43140212808635 L 430.40000000000003,310.9793970874249 L 445.6,311.87320940742654 L 460.79999999999995,309.3165903595861 L 476,305.5870926477096 L 491.2,304.0071227150634 L 506.40000000000003,305.9841897465103 L 521.6,309.7570323734936 L 536.8000000000001,311.9646305279751 L 552,310.6403552161266 L 567.1999999999999,306.9639312075151 L 582.4,304.21048447298995 L 597.6,304.8329107853104 L 612.8000000000001,308.2767244334578 L 628,311.4740193512675 L 643.1999999999999,311.5764995866797 L 658.4,308.49287107793464 L 673.6,304.9701705623038 L 688.8,304.1465801208644 L 704,306.7557916340371 L 719.2,310.4734006342701 L 734.4,311.9875916841691 L 749.6,309.94945442390195 L 764.8,306.17465436365495 L 780,304.02595534218017"
      stroke="url(#thread-24)"
      stroke-width="7.822"
      stroke-linecap="round"
      fill="none"
      opacity="0.6571428571428573"
      class="thread"
      style="animation-delay: 2.4000000000000004s"
    >
      <title>2026-01-09: 3911 stars, TypeScript, Unknown, Python, Shell</title>
    </path>

    <path
      d="M 20,319.7347124105952 L 35.2,323.08584296302234 L 50.400000000000006,323.8677702868096 L 65.6,321.4294793339105 L 80.80000000000001,317.8010361393173 L 96,316.00340064240265 L 111.2,317.5332435998882 L 126.4,321.1168522814817 L 141.60000000000002,323.77059495178406 L 156.79999999999998,323.2850253368855 L 172,320.0644177427944 L 187.2,316.79017738943713 L 202.4,316.1883629220499 L 217.6,318.76003148812254 L 232.8,322.3640698611821 L 248,323.99983700564667 L 263.20000000000005,322.30543010299255 L 278.40000000000003,318.69157411138974 L 293.59999999999997,316.1670839941155 L 308.8,316.83379326560697 L 324,320.136614828625 L 339.2,323.32569396761517 L 354.4,323.7458753430275 L 369.6,321.04732542176913 L 384.8,317.47679598396064 L 400,316.00702928171796 L 415.2,317.86171991065044 L 430.40000000000003,321.4966942983885 L 445.6,323.8855547815031 L 460.79999999999995,323.0393900189009 L 476,319.6626977008693 L 491.2,316.56683566692493 L 506.40000000000003,316.3293487981085 L 521.6,319.14796330324987 L 536.8000000000001,322.6759643385684 L 552,323.97601784034117 L 567.1999999999999,321.9657285946239 L 582.4,318.31881807152604 L 597.6,316.0716216914758 L 612.8000000000001,317.0951044595615 L 628,320.53713771475515 L 643.1999999999999,323.53196222747226 L 658.4,323.58615467725116 L 673.6,320.6545956530887 L 688.8,317.1780350570633 L 704,316.05097880373484 L 719.2,318.2117885011334 L 734.4,321.8614227471017 L 749.6,323.961278411002 L 764.8,322.763063043731 L 780,319.26438372610505"
      stroke="url(#thread-25)"
      stroke-width="7.54"
      stroke-linecap="round"
      fill="none"
      opacity="0.6428571428571429"
      class="thread"
      style="animation-delay: 2.5s"
    >
      <title>2026-01-08: 3770 stars, TypeScript, Unknown, Python, Rust, JavaScript</title>
    </path>

    <path
      d="M 20,333.68066814730656 L 35.2,335.88398248815355 L 50.400000000000006,335.17390910932687 L 65.6,332.083076329376 L 80.80000000000001,328.9299277283477 L 96,328.0796501835158 L 111.2,330.1700396079626 L 126.4,333.6330881908665 L 141.60000000000002,335.87115208474916 L 156.79999999999998,335.2054523856969 L 172,332.135332572761 L 187.2,328.9636993630072 L 202.4,328.0696049979915 L 217.6,330.12371252812954 L 232.8,333.585229307871 L 248,335.8576605002019 L 263.20000000000005,335.23644818043215 L 278.40000000000003,332.1875657017493 L 293.59999999999997,328.99798958869115 L 308.8,328.06023111212227 L 324,330.07770591255826 L 339.2,333.53709967247346 L 354.4,335.8435100388339 L 369.6,335.26689119954403 L 384.8,332.2397667950794 L 400,329.032792548732 L 415.2,328.0515301269397 L 430.40000000000003,330.0320276190404 L 445.6,333.48870750507103 L 460.79999999999995,335.8287031175014 L 476,335.29677624345635 L 491.2,332.2919269369614 L 506.40000000000003,329.06810229888873 L 521.6,328.04350352854595 L 536.8000000000001,329.98668544929126 L 552,333.44006107090047 L 567.1999999999999,335.81324226518205 L 582.4,335.32609820789344 L 597.6,332.34403721859985 L 612.8000000000001,329.1039128083622 L 628,328.03615268785984 L 643.1999999999999,329.94168714761713 L 658.4,333.39116867862646 L 673.6,335.79713012254297 L 688.8,335.3548520847519 L 704,332.3960887397152 L 719.2,329.14021796082494 L 734.4,328.0294788603828 L 749.6,329.8970403995928 L 764.8,333.3420386789228 L 780,335.7803694414897"
      stroke="url(#thread-26)"
      stroke-width="7.128"
      stroke-linecap="round"
      fill="none"
      opacity="0.6285714285714286"
      class="thread"
      style="animation-delay: 2.6s"
    >
      <title>2026-01-07: 3564 stars, TypeScript, Python, Unknown, Shell, Rust</title>
    </path>

    <path
      d="M 20,347.21513770620646 L 35.2,347.6450778792763 L 50.400000000000006,344.33859149692887 L 65.6,340.6850282337948 L 80.80000000000001,340.42951267990935 L 96,343.83396382095106 L 111.2,347.40861214545646 L 126.4,347.48922567586027 L 141.60000000000002,343.9931706397981 L 156.79999999999998,340.50411611337114 L 172,340.5985552244652 L 187.2,344.1796821395018 L 202.4,347.57662393153026 L 217.6,347.3073086286174 L 232.8,343.64780079863016 L 248,340.3493185742347 L 263.20000000000005,340.79300688127 L 278.40000000000003,344.5240582155782 L 293.59999999999997,347.71791800059094 L 308.8,347.1006856749929 L 324,343.3050619186073 L 339.2,340.2217919685557 L 354.4,341.01141507816675 L 369.6,344.86451952751656 L 384.8,347.8314388726592 L 400,346.8709003078754 L 415.2,342.96751429138476 L 430.40000000000003,340.1224889320675 L 445.6,341.25214828539174 L 460.79999999999995,345.1985227973094 L 476,347.91633853614843 L 491.2,346.61966904555965 L 506.40000000000003,342.63767942947135 L 521.6,340.0521512677883 L 536.8000000000001,341.5134082032551 L 552,345.52357298913114 L 567.1999999999999,347.9719827825909 L 582.4,346.3488686091939 L 597.6,342.31802123029394 L 612.8000000000001,340.01130440468285 L 628,341.793243195609 L 643.1999999999999,345.83724194749027 L 658.4,347.9979559442343 L 673.6,346.0605219034963 L 688.8,342.01092757065203 L 704,340.0002534726587 L 719.2,342.0895628687528 L 734.4,346.13718653577934 L 749.6,347.9940639991195 L 764.8,345.7567829054663 L 780,341.71869246905345"
      stroke="url(#thread-27)"
      stroke-width="8"
      stroke-linecap="round"
      fill="none"
      opacity="0.6142857142857143"
      class="thread"
      style="animation-delay: 2.7s"
    >
      <title>2026-01-06: 4224 stars, TypeScript, Python, Rust, JavaScript, Go</title>
    </path>

    <path
      d="M 20,359.9624294227795 L 35.2,358.7613831316727 L 50.400000000000006,355.26803000276817 L 65.6,352.38230709021144 L 80.80000000000001,352.499739407743 L 96,355.52284287161933 L 111.2,358.9420487580625 L 126.4,359.91897185951757 L 141.60000000000002,357.642639051762 L 156.79999999999998,354.0027023720197 L 172,352.0207822699926 L 187.2,353.34212997856315 L 202.4,356.86985519202796 L 217.6,359.67548755944443 L 232.8,359.42998762721106 L 248,356.3371522415107 L 263.20000000000005,352.9644366828169 L 278.40000000000003,352.1116331452889 L 293.59999999999997,354.4866793858977 L 308.8,358.11797839045573 L 324,359.99108010212007 L 339.2,358.55106669283185 L 354.4,354.9933364203592 L 369.6,352.27126773374357 L 384.8,352.64453137251917 L 400,355.8032700113288 L 415.2,359.12532010556754 L 430.40000000000003,359.8529483804916 L 445.6,357.3821288134705 L 460.79999999999995,353.76396272524556 L 476,352.00199814549626 L 491.2,353.55889464065154 L 506.40000000000003,357.14222580285343 L 521.6,359.7773611177793 L 536.8000000000001,359.2767958412876 L 552,356.0560642007389 L 567.1999999999999,352.78879198809955 L 582.4,352.1872397180642 L 597.6,354.75077394577625 L 612.8000000000001,358.3513281339592 L 628,359.9999744186142 L 643.1999999999999,358.32812214382045 L 658.4,354.7236259529052 L 673.6,352.1786860843937 L 688.8,352.80593334111086 L 704,356.08467098993384 L 719.2,359.29312071421555 L 734.4,359.7678523085119 L 749.6,357.11477685874127 L 764.8,353.536291752266 L 780,352.00300464741616"
      stroke="url(#thread-28)"
      stroke-width="7.528"
      stroke-linecap="round"
      fill="none"
      opacity="0.6000000000000001"
      class="thread"
      style="animation-delay: 2.8000000000000003s"
    >
      <title>2026-01-05: 3764 stars, Go, TypeScript, Python, Rust, JavaScript</title>
    </path>

    <path
      d="M 20,371.7395802220987 L 35.2,368.89642969702015 L 50.400000000000006,365.2561980796681 L 65.6,364.05568107564295 L 80.80000000000001,366.3623460033994 L 96,370.1251686652376 L 111.2,371.99834870748856 L 126.4,370.31630499304185 L 141.60000000000002,366.5746653950254 L 156.79999999999998,364.1003948584813 L 172,365.09354796482796 L 187.2,368.6710397767489 L 202.4,371.65186113030825 L 217.6,371.3855461292229 L 232.8,368.10889488471145 L 248,364.7354172477485 L 263.20000000000005,364.264718484167 L 278.40000000000003,367.11533123055244 L 293.59999999999997,370.752567569837 L 308.8,371.9422951168365 L 324,369.6266402470798 L 339.2,365.86462077205806 L 354.4,364.0013228734009 L 369.6,365.6935407528505 L 384.8,369.4365999443555 L 400,371.90227323865815 L 415.2,370.8981504901046 L 430.40000000000003,367.31707054579493 L 445.6,364.34323304014276 L 460.79999999999995,364.6208940203636 L 476,367.9031648368156 L 491.2,371.27153886682476 L 506.40000000000003,371.73094883411693 L 521.6,368.8728997950866 L 536.8000000000001,365.23869181751843 L 552,364.0597645490929 L 567.1999999999999,366.38438829806876 L 582.4,370.14557036762005 L 597.6,371.9989691744602 L 612.8000000000001,370.29659252211775 L 628,366.55214778331873 L 643.1999999999999,364.09509415857934 L 658.4,365.11017741601955 L 673.6,368.69481291985744 L 688.8,371.66163952811024 L 704,371.37263509430835 L 719.2,368.08477456086206 L 734.4,364.72153477593235 L 749.6,364.27341778364 L 764.8,367.1388771190142 L 780,370.77002367876247"
      stroke="url(#thread-29)"
      stroke-width="7.814"
      stroke-linecap="round"
      fill="none"
      opacity="0.5857142857142857"
      class="thread"
      style="animation-delay: 2.9000000000000004s"
    >
      <title>2026-01-04: 3907 stars, Python, Jupyter Notebook, TypeScript, Go, Rust</title>
    </path>

    <path
      d="M 20,382.6011513606285 L 35.2,378.93422941582236 L 50.400000000000006,376.2073994661913 L 65.6,376.8259361983414 L 80.80000000000001,380.2442424272418 L 96,383.4471079654898 L 111.2,383.60935795948194 L 126.4,380.5878753793117 L 141.60000000000002,377.04784129616684 L 156.79999999999998,376.11183926941567 L 172,378.60549540084764 L 187.2,382.3292123261882 L 202.4,383.99838402817545 L 217.6,382.1406721078078 L 232.8,378.3947220030494 L 248,376.0647511131127 L 263.20000000000005,377.20597377318285 L 278.40000000000003,380.8117434278266 L 293.59999999999997,383.70149266497634 L 308.8,383.3262393995203 L 324,380.01698600312824 L 339.2,376.6927496396624 L 354.4,376.2857636075072 L 369.6,379.1550210301896 L 384.8,382.7696151861268 L 400,383.94119477134177 L 415.2,381.63633607709045 L 430.40000000000003,377.88810254183056 L 445.6,376.00272572689164 L 460.79999999999995,377.6432536446003 L 476,381.362613926667 L 491.2,383.8800434517855 L 506.40000000000003,382.97497488575095 L 521.6,379.4457486281252 L 536.8000000000001,376.40541490117135 L 552,376.53578294395334 L 567.1999999999999,379.72185807068655 L 582.4,383.15327586792694 L 597.6,383.8032607320148 L 612.8000000000001,381.0984757959119 L 628,377.4247503411258 L 643.1999999999999,376.02259404561903 L 658.4,378.12881709064396 L 673.6,381.88556802667034 L 688.8,383.9791022868502 L 704,382.56276091020425 L 719.2,378.88586641546897 L 734.4,376.1917238186776 L 749.6,376.8567750358528 L 764.8,380.29439351252825 L 780,383.4723341667266"
      stroke="url(#thread-30)"
      stroke-width="7.78"
      stroke-linecap="round"
      fill="none"
      opacity="0.5714285714285714"
      class="thread"
      style="animation-delay: 3s"
    >
      <title>2026-01-03: 3890 stars, Go, Python, Jupyter Notebook, TypeScript, Rust, JavaScript</title>
    </path>

    <path
      d="M 20,392.82586992775117 L 35.2,390.24924026559563 L 50.400000000000006,388.41008597317466 L 65.6,388.0831170036297 L 80.80000000000001,389.40606302766787 L 96,391.82165734041587 L 111.2,394.3123752216534 L 126.4,395.8290475282512 L 141.60000000000002,395.7328039183259 L 156.79999999999998,394.0641852441827 L 172,391.5260664631775 L 187.2,389.1875834765245 L 202.4,388.0337792751667 L 217.6,388.55067267897783 L 232.8,390.52053183897937 L 248,393.1135897781272 L 263.20000000000005,395.2375684842891 L 278.40000000000003,395.9977809533867 L 293.59999999999997,395.07400165092355 L 308.8,392.85535563458154 L 324,390.2764067734392 L 339.2,388.4234898897587 L 354.4,388.07711217537604 L 369.6,389.383178878146 L 384.8,391.79153339713946 L 400,394.28770064223164 L 415.2,395.82021602589583 L 430.40000000000003,395.7435356011345 L 445.6,394.0899595879556 L 460.79999999999995,391.556026499177 L 476,389.2091090900703 L 491.2,388.0378031970632 L 506.40000000000003,388.5354999060616 L 521.6,390.49255362305746 L 536.8000000000001,393.0845914285862 L 552,395.21976502305876 L 567.1999999999999,395.9986717613903 L 582.4,395.09321149165726 L 597.6,392.88479271559703 L 612.8000000000001,390.3036712652344 L 628,388.4370971261214 L 643.1999999999999,388.0713303580073 L 658.4,389.3604434913775 L 673.6,391.7614213049084 L 688.8,394.2628960101121 L 704,395.81116734940895 L 719.2,395.7540544689904 L 734.4,394.1156151203432 L 749.6,391.5860117744716 L 764.8,389.23079336200226 L 780,388.0420523645071"
      stroke="url(#thread-31)"
      stroke-width="5.26"
      stroke-linecap="round"
      fill="none"
      opacity="0.5571428571428572"
      class="thread"
      style="animation-delay: 3.1s"
    >
      <title>2026-01-02: 2630 stars, TypeScript, Rust, Python, JavaScript, Jupyter Notebook, Shell</title>
    </path>

    <path
      d="M 20,402.84838673333974 L 35.2,400.2416195364684 L 50.400000000000006,400.6542764303032 L 65.6,403.7548353194813 L 80.80000000000001,407.0523556790936 L 96,407.8976612189751 L 111.2,405.6116466873049 L 126.4,402.03086041004553 L 141.60000000000002,400.0320500858765 L 156.79999999999998,401.2210286717642 L 172,404.6425893650983 L 187.2,407.5479038113491 L 202.4,407.60288781781543 L 217.6,404.76336809354416 L 232.8,401.3105703804985 L 248,400.01841836635873 L 263.20000000000005,401.9250067725629 L 278.40000000000003,405.49861228886783 L 293.59999999999997,407.8682561276517 L 308.8,407.1302034854152 L 324,403.87739431323604 L 339.2,400.7230846324907 L 354.4,400.2013975134765 L 369.6,402.7314482294465 L 384.8,406.2806336002189 L 400,407.99759360120953 L 415.2,406.5029494175076 L 430.40000000000003,402.99747481299727 L 445.6,400.29741326619836 L 460.79999999999995,400.5719520001449 L 476,403.60053088923144 L 491.2,406.9500370149964 L 506.40000000000003,407.9295295357032 L 521.6,405.7520994775568 L 536.8000000000001,402.1670600985389 L 552,400.05457597277166 L 567.1999999999999,401.1117838117902 L 582.4,404.489339370383 L 597.6,407.4737673311176 L 612.8000000000001,407.6674249409366 L 628,404.91473070453645 L 643.1999999999999,401.4271561247049 L 658.4,400.006564080056 L 673.6,401.79423600398894 L 688.8,405.3539842284967 L 704,407.82596269748655 L 719.2,407.2242225658644 L 734.4,404.0321924453406 L 749.6,400.81429941765685 L 764.8,400.15574841972193 L 780,402.5856090248315"
      stroke="url(#thread-32)"
      stroke-width="7.396"
      stroke-linecap="round"
      fill="none"
      opacity="0.5428571428571429"
      class="thread"
      style="animation-delay: 3.2s"
    >
      <title>2026-01-01: 3698 stars, Rust, Python, JavaScript, TypeScript, Jupyter Notebook, Go, Shell</title>
    </path>

    <path
      d="M 20,413.1528586305235 L 35.2,412.04606207475615 L 50.400000000000006,414.1237635978957 L 65.6,417.71258424608016 L 80.80000000000001,419.92209106973814 L 96,418.97274924351274 L 111.2,415.6291578276319 L 126.4,412.58424236666275 L 141.60000000000002,412.29037505744304 L 156.79999999999998,414.9842363687502 L 172,418.4961928028176 L 187.2,419.99771777957676 L 202.4,418.2794844217918 L 217.6,414.7253563435184 L 232.8,412.19782512946006 L 248,412.732562165391 L 263.20000000000005,415.89889071944583 L 278.40000000000003,419.1466525978907 L 293.59999999999997,419.8601032801494 L 308.8,417.46463022297945 L 324,413.8895452903652 L 339.2,412.01421869880727 L 354.4,413.34903681274784 L 369.6,416.81893831359736 L 384.8,419.62926762699703 L 400,419.5165880301599 L 415.2,416.5716515698919 L 430.40000000000003,413.16630744502646 L 445.6,412.0432167768765 L 460.79999999999995,414.1069157880083 L 476,417.6953031352436 L 491.2,419.918294849209 L 506.40000000000003,418.9854953859199 L 521.6,415.64818060124736 L 536.8000000000001,412.59422084658104 L 552,412.2832725848367 L 567.1999999999999,414.96577326872244 L 582.4,418.4812392396655 L 597.6,419.9983173397277 L 612.8000000000001,418.2951542200348 L 628,414.7434759383228 L 643.1999999999999,412.20380101532925 L 658.4,412.72158136917517 L 673.6,415.8797971646247 L 688.8,419.1348242164897 L 704,419.8650666400005 L 719.2,417.48238783848484 L 734.4,413.90579519383294 L 749.6,412.01587323247594 L 764.8,413.3347634166762 L 780,416.80023276825267"
      stroke="url(#thread-33)"
      stroke-width="7.406"
      stroke-linecap="round"
      fill="none"
      opacity="0.5285714285714286"
      class="thread"
      style="animation-delay: 3.3000000000000003s"
    >
      <title>2025-12-31: 3703 stars, Go, Python, TypeScript, Rust, Shell</title>
    </path>

    <path
      d="M 20,424.1544100324818 L 35.2,425.2296265460909 L 50.400000000000006,429.25598650862287 L 65.6,431.94440542511006 L 80.80000000000001,430.43104201012704 L 96,426.3280083497411 L 111.2,424.00606568210657 L 126.4,425.938666054887 L 141.60000000000002,430.0671047394946 L 156.79999999999998,431.99355776704607 L 172,429.6658688753978 L 187.2,425.56361128383014 L 202.4,424.05671952231285 L 217.6,426.7504117407537 L 232.8,430.7752292628687 L 248,431.8437306800855 L 263.20000000000005,428.8176936516093 L 278.40000000000003,424.9206075377589 L 293.59999999999997,424.30384772027185 L 308.8,427.62441829091335 L 324,431.3450777011091 L 339.2,431.50238931433665 L 354.4,427.928776757035 L 369.6,424.43103483969725 L 384.8,424.7351370879537 L 400,428.51713823858415 L 415.2,431.7482572968268 L 430.40000000000003,430.98654103866136 L 445.6,427.04340856790975 L 460.79999999999995,424.11928619997497 L 476,425.32909858799457 L 491.2,429.38409172001695 L 506.40000000000003,431.9646795849542 L 521.6,430.3218880467622 L 536.8000000000001,426.2057026458526 L 552,424.0008945268181 L 567.1999999999999,426.0561380272067 L 582.4,430.1820826883087 L 597.6,431.9835613025954 L 612.8000000000001,429.54154674272223 L 628,425.4573977750949 L 643.1999999999999,424.0817586975899 L 658.4,426.8800305903154 L 673.6,430.87135116090815 L 688.8,431.8039616662155 L 704,428.68439771274547 L 719.2,424.83577832323783 L 734.4,424.3578496466159 L 749.6,427.7597257451281 L 764.8,431.4175542648598 L 780,431.4348292462777"
      stroke="url(#thread-34)"
      stroke-width="8"
      stroke-linecap="round"
      fill="none"
      opacity="0.5142857142857142"
      class="thread"
      style="animation-delay: 3.4000000000000004s"
    >
      <title>2025-12-30: 4315 stars, Go, Shell, Rust, Python, Swift, TypeScript</title>
    </path>

    <path
      d="M 20,436.09749597812737 L 35.2,437.9927094285303 L 50.400000000000006,441.174996292653 L 65.6,443.60387629531385 L 80.80000000000001,443.72195315269954 L 96,441.4535160603672 L 111.2,438.2530854119929 L 126.4,436.1727752654636 L 141.60000000000002,436.5464791387111 L 156.79999999999998,439.1345783503659 L 172,442.2775853629805 L 187.2,443.96020611670724 L 202.4,443.10354527458 L 217.6,440.256893213462 L 232.8,437.2455213903367 L 248,436.0003194668497 L 263.20000000000005,437.31971010946086 L 278.40000000000003,440.3577008930815 L 293.59999999999997,443.16633409584534 L 308.8,443.9447159281097 L 324,442.19374846341134 L 339.2,439.0361509055033 L 354.4,436.4965727624208 L 369.6,436.20338989388415 L 384.8,438.3445909652191 L 400,441.5472392369651 L 415.2,443.75779871256645 L 430.40000000000003,443.55886008869066 L 445.6,441.0779826820564 L 460.79999999999995,437.90590347821086 L 476,436.0765576071804 L 491.2,436.76292045606976 L 506.40000000000003,439.5248966109282 L 521.6,442.59150875099664 L 536.8000000000001,443.9964471592009 L 552,442.8388662385881 L 567.1999999999999,439.8610061253529 L 582.4,436.97226879447464 L 597.6,436.0249107506361 L 612.8000000000001,437.62637735766685 L 628,440.74980926487507 L 643.1999999999999,443.39246395731516 L 658.4,443.85987295861156 L 673.6,441.85233392000987 L 688.8,438.6570795721939 L 704,436.3229049324866 L 719.2,436.3464812673437 L 734.4,438.71269144613206 L 749.6,441.9043230354959 L 764.8,443.87490392848434 L 780,443.3608989334322"
      stroke="url(#thread-35)"
      stroke-width="6.556"
      stroke-linecap="round"
      fill="none"
      opacity="0.5"
      class="thread"
      style="animation-delay: 3.5s"
    >
      <title>2025-12-29: 3278 stars, Shell, Go, JavaScript, TypeScript, Rust, Python</title>
    </path>

    <path
      d="M 20,448.9960510129133 L 35.2,452.41617191169985 L 50.400000000000006,455.48554153292673 L 65.6,455.6172834303898 L 80.80000000000001,452.7003650294625 L 96,449.1931763052961 L 111.2,448.05158931715494 L 126.4,450.2377379411588 L 141.60000000000002,453.9091277627456 L 156.79999999999998,455.9714974102593 L 172,454.68667386353854 L 187.2,451.137511317645 L 202.4,448.3152575291953 L 217.6,448.5985187761888 L 232.8,451.74856139719157 L 248,455.1105174335006 L 263.20000000000005,455.850917490177 L 278.40000000000003,453.34574957005407 L 293.59999999999997,449.7063787695786 L 308.8,448.00008070705485 L 324,449.66492991010597 L 339.2,453.29778510826696 L 354.4,455.83686205776326 L 369.6,455.1422170026106 L 384.8,451.79929944984116 L 400,448.62553308771214 L 415.2,448.2957803346067 L 430.40000000000003,451.0879580709749 L 445.6,454.6488082304455 L 460.79999999999995,455.97723269101573 L 476,453.95363024081286 L 491.2,450.283500757958 L 506.40000000000003,448.06004339580744 L 521.6,449.1571965160068 L 536.8000000000001,452.65027527613927 L 552,455.59529954854884 L 567.1999999999999,455.5101916221939 L 582.4,452.4666807826417 L 597.6,449.0298495960831 L 612.8000000000001,448.09627252021886 L 628,450.45277188220285 L 643.1999999999999,454.113281014517 L 658.4,455.9927088320042 L 673.6,454.5070663879521 L 688.8,450.9084588115119 L 704,448.2298063199966 L 719.2,448.72868746958454 L 734.4,451.98464332095494 L 749.6,455.2535418401093 L 764.8,455.7803428631809 L 780,453.1210564747828"
      stroke="url(#thread-36)"
      stroke-width="7.59"
      stroke-linecap="round"
      fill="none"
      opacity="0.48571428571428577"
      class="thread"
      style="animation-delay: 3.6s"
    >
      <title>2025-12-28: 3795 stars, Shell, Rust, Python, JavaScript, TypeScript</title>
    </path>

    <path
      d="M 20,462.63007752612157 L 35.2,467.3736228353694 L 50.400000000000006,466.82689040842985 L 65.6,461.8472275324881 L 80.80000000000001,460.2433908267259 L 96,464.53040405966266 L 111.2,467.9856750010194 L 126.4,465.190891105033 L 141.60000000000002,460.52863564905823 L 156.79999999999998,461.3099292903467 L 172,466.3096023648211 L 187.2,467.6875196692196 L 202.4,463.2829283294088 L 217.6,460.00279828219055 L 232.8,462.9907984577931 L 248,467.5613574168166 L 263.20000000000005,466.5472464906163 L 278.40000000000003,461.53872301283826 L 293.59999999999997,460.3898007658974 L 308.8,464.90213870226404 L 324,467.99980626069026 L 339.2,464.8252593355802 L 354.4,460.3565988409778 L 369.6,461.60126345002885 L 384.8,466.6074577808521 L 400,467.5248204552522 L 415.2,462.91480793436415 L 430.40000000000003,460.00651718395136 L 445.6,463.3605249365293 L 460.79999999999995,467.71731244731205 L 476,466.2448723774978 L 491.2,461.25218154498725 L 506.40000000000003,460.56842609293307 L 521.6,465.26582316638047 L 536.8000000000001,467.97824549847695 L 552,464.45226341587966 L 567.1999999999999,460.21707369606935 L 582.4,461.91400258581626 L 597.6,466.8820457098822 L 612.8000000000001,467.3306677256325 L 628,462.5563711830839 L 643.1999999999999,460.04587168073215 L 658.4,463.7359577311398 L 673.6,467.840096271861 L 688.8,465.92246628562765 L 704,460.99016006386506 L 719.2,460.77767285585975 L 734.4,465.61821213636256 L 749.6,467.9211851104974 L 764.8,464.07523175177425 L 780,460.11130525826763"
      stroke="url(#thread-37)"
      stroke-width="8"
      stroke-linecap="round"
      fill="none"
      opacity="0.4714285714285715"
      class="thread"
      style="animation-delay: 3.7s"
    >
      <title>2025-12-27: 5384 stars, Shell, Python, Rust, C, Go</title>
    </path>

    <path
      d="M 20,476.5995088386518 L 35.2,479.5760857149431 L 50.400000000000006,479.52698677629763 L 65.6,476.49375394397816 L 80.80000000000001,473.0427628458034 L 96,472.09384850129715 L 111.2,474.44987398799174 L 126.4,478.1174392862293 L 141.60000000000002,479.99346899258495 L 156.79999999999998,478.4906807645511 L 172,474.88056258059913 L 187.2,472.21758464892446 L 202.4,472.7548551346669 L 217.6,476.0377970381764 L 232.8,479.2887593994147 L 248,479.75714869916993 L 263.20000000000005,477.04666734023345 L 278.40000000000003,473.4506154692716 L 293.59999999999997,472.01156198494425 L 308.8,473.94706979569486 L 324,477.61953297162694 L 339.2,479.9217320839019 L 354.4,478.90580885102713 L 369.6,475.4313216283008 L 384.8,472.4379851756855 L 400,472.45841935539573 L 415.2,475.4753350954473 L 430.40000000000003,478.93616243024 L 445.6,479.91274403882403 L 460.79999999999995,477.5788079607547 L 476,473.90906467780655 L 491.2,472.0084323556281 L 506.40000000000003,473.4850092638643 L 521.6,477.08948445298296 L 536.8000000000001,479.7721621733313 L 552,479.26326654571 L 567.1999999999999,475.993367001491 L 582.4,472.7290795439973 L 597.6,472.23227186892444 L 612.8000000000001,474.923285961047 L 628,478.5252926542836 L 643.1999999999999,479.99068475862055 L 658.4,478.0796146297566 L 673.6,474.4090118187339 L 688.8,472.08452172581303 L 704,473.07286271762086 L 719.2,476.53781338499823 L 734.4,479.5477277133027 L 749.6,479.5559595329173 L 764.8,476.55554401707144 L 780,473.08509052379065"
      stroke="url(#thread-38)"
      stroke-width="7.606"
      stroke-linecap="round"
      fill="none"
      opacity="0.4571428571428572"
      class="thread"
      style="animation-delay: 3.8000000000000003s"
    >
      <title>2025-12-26: 3803 stars, Python, Shell, Go, TypeScript</title>
    </path>

    <path
      d="M 20,490.4221594788784 L 35.2,491.997121199605 L 50.400000000000006,490.6565139224646 L 65.6,487.37819966873695 L 80.80000000000001,484.55343727850374 L 96,484.2426570564848 L 111.2,486.672547445492 L 126.4,490.0707045746834 L 141.60000000000002,491.95845414798566 L 156.79999999999998,490.9588391363749 L 172,487.8009959337994 L 187.2,484.7883097221907 L 202.4,484.11828567595654 L 217.6,486.2796508662748 L 232.8,489.69586832384283 L 248,491.87509023823105 L 263.20000000000005,491.22775463826633 L 278.40000000000003,488.2260392519242 L 293.59999999999997,485.05944694484316 L 308.8,484.0377446463626 L 324,485.90617959762045 L 339.2,489.3018831873379 L 354.4,491.74797077336217 L 369.6,491.46022397057527 L 384.8,488.64853024937065 L 400,485.36378740235244 L 415.2,484.0019433961918 L 430.40000000000003,485.55635068782317 L 445.6,488.8931978456627 L 460.79999999999995,491.5785311219534 L 476,491.6536222074143 L 491.2,489.0636983719096 L 506.40000000000003,485.69789463650903 L 521.6,484.0112861750173 L 536.8000000000001,485.23411422764275 L 552,488.4744269665776 L 567.1999999999999,491.3686845106782 L 582.4,491.8057655939053 L 597.6,489.46685575150434 L 612.8000000000001,486.05799607774696 L 628,484.06566748891544 L 643.1999999999999,484.9431087478813 L 658.4,488.05029909862066 L 673.6,491.12080042112296 L 688.8,491.91493620403264 L 704,489.8534501393405 L 719.2,486.4400256430873 L 734.4,484.16447329164964 L 749.6,484.68662013493787 L 764.8,487.62560327873314 L 780,490.837677834802"
      stroke="url(#thread-39)"
      stroke-width="7.022"
      stroke-linecap="round"
      fill="none"
      opacity="0.44285714285714284"
      class="thread"
      style="animation-delay: 3.9000000000000004s"
    >
      <title>2025-12-25: 3511 stars, Python, TypeScript</title>
    </path>

    <path
      d="M 20,503.6517810029105 L 35.2,503.8148092218783 L 50.400000000000006,502.05476460256256 L 65.6,499.25889832967823 L 80.80000000000001,496.8366267530709 L 96,496.009034442109 L 111.2,497.1933166487217 L 126.4,499.792468172403 L 141.60000000000002,502.4962379869394 L 156.79999999999998,503.9416362312689 L 172,503.4000272273 L 187.2,501.14443997961024 L 202.4,498.31193228535864 L 217.6,496.33039169913235 L 232.8,496.1987271198284 L 248,497.98331161133973 L 263.20000000000005,500.7845232624145 L 278.40000000000003,503.19025107951444 L 293.59999999999997,503.98775032173995 L 308.8,502.77499587012056 L 324,500.16334598919036 L 339.2,497.469352217181 L 354.4,496.05107624161894 L 369.6,496.6234812093247 L 384.8,498.8980136483237 L 400,501.72806535389935 L 415.2,503.68698685306686 L 430.40000000000003,503.7872716918274 L 445.6,501.97836555978296 L 460.79999999999995,499.1721510825676 L 476,496.7832612144536 L 491.2,496.01595256483415 L 506.40000000000003,497.2570309572352 L 521.6,499.8808598243236 L 536.8000000000001,502.5647481131198 L 552,503.955728383058 L 567.1999999999999,503.352597449359 L 582.4,501.059397965027 L 597.6,498.2321483269437 L 612.8000000000001,496.2960854656646 L 628,496.2271926309896 L 643.1999999999999,498.0601991976817 L 658.4,500.87107333720684 L 673.6,503.24283312592024 L 688.8,503.97985735098393 L 704,502.7106067856789 L 719.2,500.0749197928559 L 734.4,497.401465192189 L 749.6,496.0379507268181 L 764.8,496.67173387137746 L 780,498.9833199723273"
      stroke="url(#thread-40)"
      stroke-width="5.776"
      stroke-linecap="round"
      fill="none"
      opacity="0.4285714285714286"
      class="thread"
      style="animation-delay: 4s"
    >
      <title>2025-12-24: 2888 stars, Python, TypeScript</title>
    </path>

    <path
      d="M 20,515.9873191771152 L 35.2,514.7710568229306 L 50.400000000000006,512.1578847415292 L 65.6,509.46512182337693 L 80.80000000000001,508.0502092736951 L 96,508.62641471206337 L 111.2,510.9032688218401 L 126.4,513.7329930273276 L 141.60000000000002,515.689102950697 L 156.79999999999998,515.7855094735844 L 172,513.973613372591 L 187.2,511.16680453825927 L 202.4,508.78001554457 L 217.6,508.01644393496895 L 232.8,509.26101166416004 L 248,511.88632316497177 L 263.20000000000005,514.5689399780731 L 278.40000000000003,515.9565356229649 L 293.59999999999997,515.3496131287611 L 308.8,513.0541265014585 L 324,510.22724710320324 L 339.2,508.2940252239837 L 354.4,508.2290119540565 L 369.6,510.0649809516188 L 384.8,512.876407005372 L 400,515.2460299677291 L 415.2,515.9793058154273 L 430.40000000000003,514.7065849058083 L 445.6,512.0694550273167 L 460.79999999999995,509.3973123686974 L 476,508.03720331364326 L 491.2,508.67476864489055 L 506.40000000000003,510.98860708131593 L 521.6,513.8122959814549 L 536.8000000000001,515.722393408427 L 552,515.7560054751096 L 567.1999999999999,513.8961880963033 L 582.4,511.080488624268 L 597.6,508.7283214675637 L 612.8000000000001,508.02543105194525 L 628,509.3261495046429 L 643.1999999999999,511.97477527384865 L 658.4,514.6361170094091 L 673.6,515.9685731508333 L 688.8,515.3004429485579 L 704,512.9685356556024 L 719.2,510.14838255430715 L 734.4,508.2616431598579 L 749.6,508.25943640674194 L 764.8,510.1428747351185 L 780,512.9625033017123"
      stroke="url(#thread-41)"
      stroke-width="5.776"
      stroke-linecap="round"
      fill="none"
      opacity="0.4142857142857143"
      class="thread"
      style="animation-delay: 4.1000000000000005s"
    >
      <title>2025-12-23: 2888 stars, Python, TypeScript</title>
    </path>
  </g>

  <!-- Date markers -->
  <g id="dates">
    <text x="785" y="24" class="date-label">02-02</text>
<text x="785" y="108" class="date-label">01-26</text>
<text x="785" y="192" class="date-label">01-19</text>
<text x="785" y="276" class="date-label">01-12</text>
<text x="785" y="360" class="date-label">01-05</text>
<text x="785" y="444" class="date-label">12-29</text>
  </g>

</svg>