<?xml version="1.0" encoding="UTF-8"?>
<svg xmlns="http://www.w3.org/2000/svg" viewBox="0 0 800 388" width="800" height="388">
  <title>The Data Tapestry - GitHub Trends Woven in Time</title>
  <desc>A living data art piece that weaves daily GitHub trending repositories into an evolving tapestry. Each thread represents one day of open source activity.</desc>

  <style>
    .thread {
      animation: breathe 8s ease-in-out infinite alternate;
    }

    @keyframes breathe {
      0% {
        opacity: 0.85;
      }
      100% {
        opacity: 1;
      }
    }

    .date-label {
      font-family: ui-monospace, monospace;
      font-size: 8px;
      fill: #666;
    }

    .title {
      font-family: system-ui, sans-serif;
      font-size: 14px;
      fill: #333;
      font-weight: 600;
    }

    .subtitle {
      font-family: system-ui, sans-serif;
      font-size: 10px;
      fill: #888;
    }

    .empty-state {
      font-family: system-ui, sans-serif;
      font-size: 12px;
      fill: #999;
      text-anchor: middle;
    }
  </style>

  <defs>
    
    <linearGradient id="thread-0" x1="0%" y1="0%" x2="100%" y2="0%">
      <stop offset="0%" stop-color="#3572A5" />
      <stop offset="50%" stop-color="#3178c6" />
      <stop offset="100%" stop-color="#41b883" />
    </linearGradient>

    <linearGradient id="thread-1" x1="0%" y1="0%" x2="100%" y2="0%">
      <stop offset="0%" stop-color="#3178c6" />
      <stop offset="50%" stop-color="#f1e05a" />
      <stop offset="100%" stop-color="#89e051" />
    </linearGradient>

    <linearGradient id="thread-2" x1="0%" y1="0%" x2="100%" y2="0%">
      <stop offset="0%" stop-color="#3178c6" />
      <stop offset="50%" stop-color="#3572A5" />
      <stop offset="100%" stop-color="#f1e05a" />
    </linearGradient>

    <linearGradient id="thread-3" x1="0%" y1="0%" x2="100%" y2="0%">
      <stop offset="0%" stop-color="#3178c6" />
      <stop offset="50%" stop-color="#3572A5" />
      <stop offset="100%" stop-color="#f1e05a" />
    </linearGradient>

    <linearGradient id="thread-4" x1="0%" y1="0%" x2="100%" y2="0%">
      <stop offset="0%" stop-color="#3178c6" />
      <stop offset="50%" stop-color="#f1e05a" />
      <stop offset="100%" stop-color="#3572A5" />
    </linearGradient>

    <linearGradient id="thread-5" x1="0%" y1="0%" x2="100%" y2="0%">
      <stop offset="0%" stop-color="#3572A5" />
      <stop offset="50%" stop-color="#3178c6" />
      <stop offset="100%" stop-color="#89e051" />
    </linearGradient>

    <linearGradient id="thread-6" x1="0%" y1="0%" x2="100%" y2="0%">
      <stop offset="0%" stop-color="#3178c6" />
      <stop offset="50%" stop-color="#89e051" />
      <stop offset="100%" stop-color="#3572A5" />
    </linearGradient>

    <linearGradient id="thread-7" x1="0%" y1="0%" x2="100%" y2="0%">
      <stop offset="0%" stop-color="#3572A5" />
      <stop offset="50%" stop-color="#3178c6" />
      <stop offset="100%" stop-color="#89e051" />
    </linearGradient>

    <linearGradient id="thread-8" x1="0%" y1="0%" x2="100%" y2="0%">
      <stop offset="0%" stop-color="#3178c6" />
      <stop offset="50%" stop-color="#3572A5" />
      <stop offset="100%" stop-color="#8b8b8b" />
    </linearGradient>

    <linearGradient id="thread-9" x1="0%" y1="0%" x2="100%" y2="0%">
      <stop offset="0%" stop-color="#3178c6" />
      <stop offset="50%" stop-color="#89e051" />
      <stop offset="100%" stop-color="#3572A5" />
    </linearGradient>

    <linearGradient id="thread-10" x1="0%" y1="0%" x2="100%" y2="0%">
      <stop offset="0%" stop-color="#3572A5" />
      <stop offset="50%" stop-color="#3178c6" />
      <stop offset="100%" stop-color="#89e051" />
    </linearGradient>

    <linearGradient id="thread-11" x1="0%" y1="0%" x2="100%" y2="0%">
      <stop offset="0%" stop-color="#3572A5" />
      <stop offset="50%" stop-color="#3178c6" />
      <stop offset="100%" stop-color="#8b8b8b" />
    </linearGradient>

    <linearGradient id="thread-12" x1="0%" y1="0%" x2="100%" y2="0%">
      <stop offset="0%" stop-color="#3572A5" />
      <stop offset="50%" stop-color="#3178c6" />
      <stop offset="100%" stop-color="#8b8b8b" />
    </linearGradient>

    <linearGradient id="thread-13" x1="0%" y1="0%" x2="100%" y2="0%">
      <stop offset="0%" stop-color="#3178c6" />
      <stop offset="50%" stop-color="#3572A5" />
      <stop offset="100%" stop-color="#dea584" />
    </linearGradient>

    <linearGradient id="thread-14" x1="0%" y1="0%" x2="100%" y2="0%">
      <stop offset="0%" stop-color="#3572A5" />
      <stop offset="50%" stop-color="#3178c6" />
      <stop offset="100%" stop-color="#00ADD8" />
    </linearGradient>

    <linearGradient id="thread-15" x1="0%" y1="0%" x2="100%" y2="0%">
      <stop offset="0%" stop-color="#3572A5" />
      <stop offset="50%" stop-color="#00ADD8" />
      <stop offset="100%" stop-color="#3178c6" />
    </linearGradient>

    <linearGradient id="thread-16" x1="0%" y1="0%" x2="100%" y2="0%">
      <stop offset="0%" stop-color="#3572A5" />
      <stop offset="50%" stop-color="#3178c6" />
      <stop offset="100%" stop-color="#00ADD8" />
    </linearGradient>

    <linearGradient id="thread-17" x1="0%" y1="0%" x2="100%" y2="0%">
      <stop offset="0%" stop-color="#3572A5" />
      <stop offset="50%" stop-color="#00ADD8" />
      <stop offset="100%" stop-color="#DA5B0B" />
    </linearGradient>

    <linearGradient id="thread-18" x1="0%" y1="0%" x2="100%" y2="0%">
      <stop offset="0%" stop-color="#3572A5" />
      <stop offset="50%" stop-color="#3178c6" />
      <stop offset="100%" stop-color="#dea584" />
    </linearGradient>

    <linearGradient id="thread-19" x1="0%" y1="0%" x2="100%" y2="0%">
      <stop offset="0%" stop-color="#dea584" />
      <stop offset="50%" stop-color="#3572A5" />
      <stop offset="100%" stop-color="#3178c6" />
    </linearGradient>

    <linearGradient id="thread-20" x1="0%" y1="0%" x2="100%" y2="0%">
      <stop offset="0%" stop-color="#3572A5" />
      <stop offset="50%" stop-color="#3178c6" />
      <stop offset="100%" stop-color="#dea584" />
    </linearGradient>

    <linearGradient id="thread-21" x1="0%" y1="0%" x2="100%" y2="0%">
      <stop offset="0%" stop-color="#3572A5" />
      <stop offset="50%" stop-color="#dea584" />
      <stop offset="100%" stop-color="#3178c6" />
    </linearGradient>

    <linearGradient id="thread-22" x1="0%" y1="0%" x2="100%" y2="0%">
      <stop offset="0%" stop-color="#3572A5" />
      <stop offset="50%" stop-color="#3178c6" />
      <stop offset="100%" stop-color="#89e051" />
    </linearGradient>

    <linearGradient id="thread-23" x1="0%" y1="0%" x2="100%" y2="0%">
      <stop offset="0%" stop-color="#3572A5" />
      <stop offset="50%" stop-color="#f1e05a" />
      <stop offset="100%" stop-color="#89e051" />
    </linearGradient>

    <linearGradient id="thread-24" x1="0%" y1="0%" x2="100%" y2="0%">
      <stop offset="0%" stop-color="#3572A5" />
      <stop offset="50%" stop-color="#89e051" />
      <stop offset="100%" stop-color="#dea584" />
    </linearGradient>

    <linearGradient id="thread-25" x1="0%" y1="0%" x2="100%" y2="0%">
      <stop offset="0%" stop-color="#3572A5" />
      <stop offset="50%" stop-color="#89e051" />
      <stop offset="100%" stop-color="#00ADD8" />
    </linearGradient>

    <linearGradient id="thread-26" x1="0%" y1="0%" x2="100%" y2="0%">
      <stop offset="0%" stop-color="#3572A5" />
      <stop offset="50%" stop-color="#3178c6" />
      <stop offset="100%" stop-color="#3572A5" />
    </linearGradient>

    <linearGradient id="thread-27" x1="0%" y1="0%" x2="100%" y2="0%">
      <stop offset="0%" stop-color="#3572A5" />
      <stop offset="50%" stop-color="#3178c6" />
      <stop offset="100%" stop-color="#3572A5" />
    </linearGradient>

    <linearGradient id="thread-28" x1="0%" y1="0%" x2="100%" y2="0%">
      <stop offset="0%" stop-color="#3572A5" />
      <stop offset="50%" stop-color="#3178c6" />
      <stop offset="100%" stop-color="#3572A5" />
    </linearGradient>

    <!-- Background pattern -->
    <pattern id="loom" patternUnits="userSpaceOnUse" width="20" height="20">
      <rect width="20" height="20" fill="#fafafa"/>
      <circle cx="10" cy="10" r="0.5" fill="#eee"/>
    </pattern>
  </defs>

  <!-- Background -->
  <rect width="100%" height="100%" fill="url(#loom)"/>

  <!-- Threads -->
  <g id="tapestry">
    
    <path
      d="M 20,20 L 35.2,23.991463067067578 L 50.400000000000006,19.47872583346954 L 65.6,16.07661391426139 L 80.80000000000001,21.03365766537694 L 96,23.78839321997898 L 111.2,18.471588535063294 L 126.4,16.41121313967245 L 141.60000000000002,21.9970972195182 L 156.79999999999998,23.327971422205643 L 172,17.568278809221585 L 187.2,16.989604718587447 L 202.4,22.824870586094864 L 217.6,22.641474904202386 L 232.8,16.830160011467232 L 248,17.772497534047236 L 263.20000000000005,23.46074572206298 L 278.40000000000003,21.775538534048547 L 293.59999999999997,16.30737379854207 L 308.8,18.70670835465623 L 324,23.861526555333093 L 339.2,20.78898683208506 L 354.4,16.03543392096644 L 369.6,19.728774661326803 L 384.8,23.999987366913018 L 400,19.748837921882753 L 415.2,16.03281371397756 L 430.40000000000003,20.76926576339994 L 445.6,23.866722279987847 L 460.79999999999995,18.72575087590318 L 476,16.299691172662158 L 491.2,21.757499342742328 L 506.40000000000003,23.470784217020206 L 521.6,17.789225725350654 L 536.8000000000001,16.81793686044964 L 552,22.626343023011813 L 567.1999999999999,22.839069919435392 L 582.4,17.002882205655354 L 597.6,17.55234547236185 L 612.8000000000001,23.316774785380364 L 628,22.014492806543075 L 643.1999999999999,16.42013796038038 L 658.4,18.45302739084855 L 673.6,23.781892433971592 L 688.8,21.053067794475364 L 704,16.080579790463013 L 719.2,19.458797771779288 L 734.4,23.990099741252518 L 749.6,20.020106108315307 L 764.8,16.007274455958346 L 780,20.501332934257203"
      stroke="url(#thread-0)"
      stroke-width="8"
      stroke-linecap="round"
      fill="none"
      opacity="1"
      class="thread"
      style="animation-delay: 0s"
    >
      <title>2026-01-20: 6510 stars, Python, Vue, TypeScript, Unknown, Shell, JavaScript</title>
    </path>

    <path
      d="M 20,33.917702154416816 L 35.2,35.989348270631716 L 50.400000000000006,33.386649752248935 L 65.6,29.159204937031898 L 80.80000000000001,28.260337688815255 L 96,31.743256455166236 L 111.2,35.52700325904307 L 126.4,35.17813800658873 L 141.60000000000002,31.10542832358618 L 156.79999999999998,28.080893939464183 L 172,29.648400947502704 L 187.2,33.971291458828375 L 202.4,35.98440728298602 L 217.6,33.32896785906339 L 232.8,29.11636837787104 L 248,28.282538331346352 L 263.20000000000005,31.804481665931394 L 278.40000000000003,35.55551507082868 L 293.59999999999997,35.14052894895061 L 308.8,31.045765167549874 L 324,28.069084382824467 L 339.2,29.698282322568275 L 354.4,34.02441744251921 L 369.6,35.97852982374665 L 384.8,33.270973613108545 L 400,29.074209570483283 L 415.2,28.305612704147983 L 430.40000000000003,31.865752830172895 L 445.6,35.583191215317186 L 460.79999999999995,35.102181759906514 L 476,30.986326289241912 L 491.2,28.058198725412716 L 506.40000000000003,29.748704679784673 L 521.6,34.07706761907137 L 536.8000000000001,35.97171727431696 L 552,33.21268064500996 L 567.1999999999999,29.032738423626103 L 582.4,28.32955538395562 L 597.6,31.927055547077597 L 612.8000000000001,35.61002518767077 L 628,35.06310545235361 L 643.1999999999999,30.927125658825812 L 658.4,28.048239525729656 L 673.6,29.799656168178274 L 688.8,34.12922961389777 L 704,35.9639712358784 L 719.2,33.1541026556032 L 734.4,28.991964684433356 L 749.6,28.354360743422973 L 764.8,31.988375408416413 L 780,35.63601068099082"
      stroke="url(#thread-1)"
      stroke-width="8"
      stroke-linecap="round"
      fill="none"
      opacity="0.9793103448275863"
      class="thread"
      style="animation-delay: 0.1s"
    >
      <title>2026-01-19: 4551 stars, JavaScript, TypeScript, Shell, Python</title>
    </path>

    <path
      d="M 20,47.36588393923159 L 35.2,47.74270861176222 L 50.400000000000006,45.100631351465594 L 65.6,41.57077508966522 L 80.80000000000001,40.00035316748575 L 96,41.656081823889124 L 111.2,45.20243565212984 L 126.4,47.77889422779678 L 141.60000000000002,47.30726323207866 L 156.79999999999998,44.167964405551295 L 172,40.893184001064206 L 187.2,40.12438891283978 L 202.4,42.481696071834065 L 217.6,46.06368063396747 L 232.8,47.981082109123875 L 248,46.68730747609821 L 263.20000000000005,43.22592681886908 L 278.40000000000003,40.388920449107005 L 293.59999999999997,40.46464284522419 L 308.8,43.39201565148701 L 324,46.809794021005914 L 339.2,47.96116763376568 L 354.4,45.917428330642466 L 369.6,42.327074344441144 L 384.8,40.086117016897965 L 400,41.00213238699238 L 415.2,44.33625433979715 L 430.40000000000003,47.39915056235272 L 445.6,47.72026181922648 L 460.79999999999995,45.04057692504798 L 476,41.521553461895564 L 491.2,40.00166693950799 L 506.40000000000003,41.706871295547934 L 521.6,45.26173358550664 L 536.8000000000001,47.79887038435219 L 552,47.27180466691337 L 567.1999999999999,44.10567231154908 L 582.4,40.85430373325809 L 597.6,40.14028163978555 L 612.8000000000001,42.53954257914145 L 628,46.116821416226756 L 643.1999999999999,47.98665334044959 L 658.4,46.64081535193276 L 673.6,43.164872298561306 L 688.8,40.36255064978106 L 704,40.49422788069637 L 719.2,43.45369196997319 L 734.4,46.85381295746106 L 749.6,47.952023123964636 L 764.8,45.8624964172262 L 780,42.27066359555868"
      stroke="url(#thread-2)"
      stroke-width="7.412"
      stroke-linecap="round"
      fill="none"
      opacity="0.9586206896551724"
      class="thread"
      style="animation-delay: 0.2s"
    >
      <title>2026-01-18: 3706 stars, JavaScript, Shell, Vue, TypeScript, Python, HTML</title>
    </path>

    <path
      d="M 20,59.98997994641622 L 35.2,56.295983560599474 L 50.400000000000006,52.01195415848419 L 65.6,55.67795654948811 L 80.80000000000001,59.98594144823628 L 96,56.34808958926411 L 111.2,52.01633314356541 L 126.4,55.62587913530628 L 141.60000000000002,59.98122216323514 L 156.79999999999998,56.40013616527295 L 172,52.021392526974395 L 187.2,55.57386561984386 L 202.4,59.97582289745249 L 217.6,56.4521143992272 L 232.8,52.02713144458366 L 248,55.52192488685299 L 263.20000000000005,59.96974457306669 L 278.40000000000003,56.50401541340071 L 293.59999999999997,52.03354891620333 L 308.8,55.470065807654784 L 324,59.96298822823729 L 339.2,56.55583034325625 L 354.4,52.04064384574853 L 369.6,55.418297239624145 L 384.8,59.95555501692769 L 400,56.60755033895946 L 415.2,52.04841502142661 L 430.40000000000003,55.3666280246769 L 445.6,59.94744620870804 L 460.79999999999995,56.659166566890555 L 476,52.05686111594413 L 491.2,55.315066987759664 L 506.40000000000003,59.9386631885384 L 521.6,56.71067021115283 L 536.8000000000001,52.06598068673351 L 552,55.26362293534265 L 567.1999999999999,59.92920745653223 L 582.4,56.76205247507873 L 597.6,52.0757721761995 L 612.8000000000001,55.212304653915375 L 628,59.91908062770015 L 643.1999999999999,56.813304582731966 L 658.4,52.08623391198508 L 673.6,55.161120908486104 L 688.8,59.90828443167409 L 704,56.86441778040647 L 719.2,52.09736410725724 L 734.4,55.11008044108478 L 749.6,59.896820712411866 L 764.8,56.91538333812174 L 780,52.10916086101207"
      stroke="url(#thread-3)"
      stroke-width="8"
      stroke-linecap="round"
      fill="none"
      opacity="0.9379310344827586"
      class="thread"
      style="animation-delay: 0.30000000000000004s"
    >
      <title>2026-01-17: 6237 stars, JavaScript, TypeScript, Shell, Python</title>
    </path>

    <path
      d="M 20,71.63718970730272 L 35.2,66.8226404060009 L 50.400000000000006,64.05653349051622 L 65.6,68.15151131604829 L 80.80000000000001,71.98288046730096 L 96,68.88459005791758 L 111.2,64.24723564638349 L 126.4,66.13917067633636 L 141.60000000000002,71.26869061984705 L 156.79999999999998,70.7111422743277 L 172,65.43658242525427 L 187.2,64.62201359287758 L 202.4,69.68467255932492 L 217.6,71.8162349480288 L 232.8,67.30807786476917 L 248,64.00376932252973 L 263.20000000000005,67.65234785485646 L 278.40000000000003,71.90579289802832 L 293.59999999999997,69.36370005853114 L 308.8,64.44895827161423 L 324,65.7125365385757 L 339.2,70.95598394175717 L 354.4,71.05642930125308 L 369.6,65.83911162399147 L 384.8,64.38143999114713 L 400,69.21956085495162 L 415.2,71.935814992482 L 430.40000000000003,67.80429696726154 L 445.6,64.01327507367131 L 460.79999999999995,67.15860156617288 L 476,71.76784462587825 L 491.2,69.821560662097 L 506.40000000000003,64.70601380905485 L 521.6,65.3215460300866 L 536.8000000000001,70.59721663908054 L 552,71.35409054759408 L 567.1999999999999,66.27531213834553 L 582.4,64.1972513825007 L 597.6,68.73544575414329 L 612.8000000000001,71.99406652487843 L 628,68.30356554637457 L 643.1999999999999,64.08490262377406 L 658.4,66.67796608531236 L 673.6,71.57118518335876 L 688.8,70.25103740990728 L 704,65.01439677733563 L 719.2,64.97229162883346 L 734.4,70.19797908252555 L 749.6,71.59948780719273 L 764.8,66.73838702065632 L 780,64.07231782392206"
      stroke="url(#thread-4)"
      stroke-width="8"
      stroke-linecap="round"
      fill="none"
      opacity="0.9172413793103448"
      class="thread"
      style="animation-delay: 0.4s"
    >
      <title>2026-01-16: 5731 stars, JavaScript, TypeScript, Shell, Python, C</title>
    </path>

    <path
      d="M 20,82.39388857641583 L 35.2,78.81741797483168 L 50.400000000000006,76.2144605575639 L 65.6,76.7277965377343 L 80.80000000000001,79.93484267456627 L 96,83.19552696419824 L 111.2,83.82562194646896 L 126.4,81.3064272187363 L 141.60000000000002,77.71176872213019 L 156.79999999999998,76.00080477724386 L 172,77.58201777497084 L 187.2,81.15373758356655 L 202.4,83.77568923660158 L 217.6,83.28945627877224 L 232.8,80.09531047560668 L 248,76.82270414908476 L 263.20000000000005,76.16567909769626 L 278.40000000000003,78.66510482253294 L 293.59999999999997,82.26342942058693 L 308.8,83.9984766004024 L 324,82.44193841461237 L 339.2,78.87517244646165 L 354.4,76.23437561207655 L 369.6,76.69347790587659 L 384.8,79.8745417924924 L 400,83.15888411264602 L 415.2,83.84280188216378 L 430.40000000000003,81.36328724920638 L 445.6,77.7615011096075 L 460.79999999999995,76.00246932995626 L 476,77.53424421671166 L 491.2,81.09585357857998 L 506.40000000000003,83.7553454685748 L 521.6,83.3233999381506 L 536.8000000000001,80.15559880727848 L 552,76.85970720392693 L 567.1999999999999,76.14893559608322 L 582.4,78.60839818009677 L 597.6,82.21344110455357 L 612.8000000000001,83.99635748545502 L 628,82.48943297707179 L 643.1999999999999,78.93318269417719 L 658.4,76.25514693710166 L 673.6,76.65991114862882 L 688.8,79.81426943853303 L 704,83.12152295808765 L 719.2,83.8591079978495 L 734.4,81.4198372799125 L 749.6,77.81174251242851 L 764.8,76.00504288666978 L 780,77.48703135005383"
      stroke="url(#thread-5)"
      stroke-width="7.494"
      stroke-linecap="round"
      fill="none"
      opacity="0.896551724137931"
      class="thread"
      style="animation-delay: 0.5s"
    >
      <title>2026-01-15: 3747 stars, TypeScript, Shell, Python, JavaScript, C</title>
    </path>

    <path
      d="M 20,92.56448003223947 L 35.2,88.9569919515125 L 50.400000000000006,88.17834480300186 L 65.6,90.95238449521744 L 80.80000000000001,94.7003084407548 L 96,95.9379718397868 L 111.2,93.51481812864353 L 126.4,89.68345929319898 L 141.60000000000002,88.00560286988286 L 156.79999999999998,90.04101763124832 L 172,93.8975414471788 L 187.2,95.99007291382043 L 202.4,94.37335307343606 L 217.6,90.55031691256929 L 232.8,88.07493504348265 L 248,89.24837178863629 L 263.20000000000005,92.97977696191019 L 278.40000000000003,95.80036194340978 L 293.59999999999997,95.08805471711577 L 308.8,91.50503027762124 L 324,88.38213955731577 L 339.2,88.6224840122831 L 354.4,92.0026346468685 L 369.6,95.38033606121368 L 384.8,95.61560969941114 L 400,92.48974049814214 L 415.2,88.90859876875837 L 430.40000000000003,88.20128523880605 L 445.6,91.02533266322945 L 460.79999999999995,94.75545027005714 L 476,95.92404638682552 L 491.2,93.44477077204034 L 506.40000000000003,89.62240745176946 L 521.6,88.01030155224716 L 536.8000000000001,90.10709884863093 L 552,93.96357478283284 L 567.1999999999999,95.99467246280828 L 582.4,94.31224300334479 L 597.6,90.48030636254354 L 612.8000000000001,88.06110721621006 L 628,89.30358130795256 L 643.1999999999999,93.05269995827527 L 658.4,95.8232077459709 L 673.6,95.03958541247128 L 688.8,91.43030389741274 L 704,88.35062323396022 L 719.2,88.6634759481252 L 734.4,92.07802792133714 L 749.6,95.42004358369579 L 764.8,95.58271856559477 L 780,92.41482696157777"
      stroke="url(#thread-6)"
      stroke-width="8"
      stroke-linecap="round"
      fill="none"
      opacity="0.8758620689655172"
      class="thread"
      style="animation-delay: 0.6000000000000001s"
    >
      <title>2026-01-14: 4003 stars, TypeScript, Shell, Python, C, HTML, Jupyter Notebook</title>
    </path>

    <path
      d="M 20,102.59686708924153 L 35.2,100.00639706821963 L 50.400000000000006,103.02868392491871 L 65.6,107.41609422377809 L 80.80000000000001,107.0023996864825 L 96,102.3690218762534 L 111.2,100.02788088521906 L 126.4,103.26930262299229 L 141.60000000000002,107.537673408628 L 156.79999999999998,106.83406748686596 L 172,102.14735857500749 L 187.2,100.06442026270679 L 202.4,103.51269089021528 L 217.6,107.64584371664105 L 232.8,106.65499329456404 L 248,101.93271735800204 L 263.20000000000005,100.11587670513622 L 278.40000000000003,103.75792620974636 L 293.59999999999997,107.74019514888009 L 308.8,106.46585585617427 L 324,101.72591178186323 L 339.2,100.182055176669 L 354.4,104.00407906384434 L 369.6,107.82037008422294 L 384.8,106.26737206111056 L 400,101.52772570371391 L 415.2,100.26270484042125 L 430.40000000000003,104.25021645702826 L 445.6,107.88606463485712 L 460.79999999999995,106.06029422437061 L 476,101.33891031011254 L 491.2,100.35752000921293 L 506.40000000000003,104.49540545241867 L 521.6,107.93702979810868 L 536.8000000000001,105.84540723502911 L 552,101.16018126982362 L 567.1999999999999,100.46614130421686 L 582.4,104.73871670785728 L 597.6,107.97307240023939 L 612.8000000000001,105.62352558126555 L 628,100.99221602121176 L 643.1999999999999,100.58815701711559 L 658.4,104.97922799840116 L 673.6,107.99405582863496 L 688.8,105.39549026320171 L 704,100.83565120454058 L 719.2,100.7231046706035 L 734.4,105.21602771184084 L 749.6,107.99990054960911 L 764.8,105.1621656052512 L 780,100.69108024890916"
      stroke="url(#thread-7)"
      stroke-width="8"
      stroke-linecap="round"
      fill="none"
      opacity="0.8551724137931034"
      class="thread"
      style="animation-delay: 0.7000000000000001s"
    >
      <title>2026-01-13: 5049 stars, TypeScript, Shell, C, Rust, Python</title>
    </path>

    <path
      d="M 20,112.9727900187683 L 35.2,112.08681719268188 L 50.400000000000006,114.29278540891177 L 65.6,117.84768290397712 L 80.80000000000001,119.94266224921589 L 96,118.92240782578328 L 111.2,115.59305793100509 L 126.4,112.58524703578945 L 141.60000000000002,112.27555052962529 L 156.79999999999998,114.90867033041945 L 172,118.40408743809209 L 187.2,119.99995193471554 L 202.4,118.43531610124693 L 217.6,114.94645281017594 L 232.8,112.29003358232175 L 248,112.56498710070942 L 263.20000000000005,115.55406308338375 L 278.40000000000003,118.89548924305242 L 293.59999999999997,119.94908923435591 L 308.8,117.88237727380282 L 324,114.32833394219546 L 339.2,112.09513176411329 L 354.4,112.94730099796622 L 369.6,116.2115132666027 L 384.8,119.30860158979497 L 400,119.79144939526122 L 415.2,117.27854193645761 L 430.40000000000003,113.75541428547108 L 445.6,112.00581141865 L 460.79999999999995,113.41215505714717 L 476,116.86324446499448 L 491.2,119.63225457261657 L 506.40000000000003,119.53129474982514 L 521.6,116.64013684349888 L 536.8000000000001,113.24318468309087 L 552,112.0244876270692 L 567.1999999999999,113.94698035832589 L 582.4,117.49163489579885 L 597.6,119.85769712579092 L 612.8000000000001,119.17565946897162 L 628,115.98442346083297 L 643.1999999999999,112.80549501488076 L 658.4,112.1506554141781 L 673.6,114.53731606965125 L 688.8,118.07969387376467 L 704,119.97883363857122 L 719.2,118.73415936927738 L 734.4,115.32913124319654 L 749.6,112.45417971851778 L 764.8,112.38090340218591 L 780,115.16720044541239"
      stroke="url(#thread-8)"
      stroke-width="7.33"
      stroke-linecap="round"
      fill="none"
      opacity="0.8344827586206897"
      class="thread"
      style="animation-delay: 0.8s"
    >
      <title>2026-01-12: 3665 stars, TypeScript, Unknown, Python, Shell, C</title>
    </path>

    <path
      d="M 20,124.08987952933961 L 35.2,124.85666774747592 L 50.400000000000006,127.9004153669995 L 65.6,131.01629986170133 L 80.80000000000001,131.9472443705048 L 96,130.01889356562427 L 111.2,126.62810153107192 L 126.4,124.23108198559265 L 141.60000000000002,124.56418214001835 L 156.79999999999998,127.38611171152442 L 172,130.65272819410188 L 187.2,131.99776785449166 L 202.4,130.4469141222758 L 217.6,127.12357066657331 L 232.8,124.43509296799687 L 248,124.32895398817121 L 263.20000000000005,126.8820384241479 L 278.40000000000003,130.24494915783208 L 293.59999999999997,131.98166905965064 L 308.8,130.83415717486625 L 324,127.63364538237596 L 339.2,124.69851266019263 L 354.4,124.15490333834313 L 369.6,126.39659582032684 L 384.8,129.79975833723884 L 400,131.8992162702939 L 415.2,131.17416936853277 L 430.40000000000003,128.1498253500025 L 445.6,125.01695120743572 L 460.79999999999995,124.04493072186686 L 476,125.93787373761153 L 491.2,129.3245747791655 L 506.40000000000003,131.75178355138027 L 521.6,131.46128444450412 L 536.8000000000001,128.66350849775188 L 552,125.38510187295303 L 567.1999999999999,124.00086881802369 L 582.4,125.51351671956019 L 597.6,128.82731735550564 L 612.8000000000001,131.54182784990252 L 628,131.69071766756218 L 643.1999999999999,129.1661343631 L 658.4,125.79682947401723 L 673.6,124.02345191268272 L 688.8,125.1305966204195 L 704,128.31627279623822 L 719.2,131.27284805018672 L 734.4,131.85864556302926 L 749.6,129.64932675168887 L 764.8,126.24527262396509 L 780,124.11230366152283"
      stroke="url(#thread-9)"
      stroke-width="6.996"
      stroke-linecap="round"
      fill="none"
      opacity="0.8137931034482759"
      class="thread"
      style="animation-delay: 0.9s"
    >
      <title>2026-01-11: 3498 stars, TypeScript, Unknown, Shell, Python</title>
    </path>

    <path
      d="M 20,136.16430290134744 L 35.2,138.77002197924875 L 50.400000000000006,142.44635658892932 L 65.6,143.99329757027616 L 80.80000000000001,142.06433383655934 L 96,138.33850232885746 L 111.2,136.05889602415047 L 126.4,137.20976331955242 L 141.60000000000002,140.78934940263053 L 156.79999999999998,143.68185838660673 L 172,143.36955012343796 L 187.2,140.12426855798375 L 202.4,136.77081932933183 L 217.6,136.22816096247678 L 232.8,138.96864212235667 L 248,142.60685295219716 L 263.20000000000005,143.97596855220405 L 278.40000000000003,141.8842632155445 L 293.59999999999997,138.15242981928753 L 308.8,136.0287855923905 L 324,137.36182412980446 L 339.2,140.9912224513318 L 354.4,143.75782637008118 L 369.6,143.25348787387486 L 384.8,139.9172006830908 L 400,136.65298488968793 L 415.2,136.30212714150545 L 430.40000000000003,139.17002619227054 L 445.6,142.76036323341728 L 460.79999999999995,143.94798437136123 L 476,141.69914297429227 L 491.2,137.97130859661723 L 506.40000000000003,136.00931758281143 L 521.6,137.52095496411374 L 536.8000000000001,141.19043913179925 L 552,143.82372378807915 L 567.1999999999999,143.12870663108694 L 582.4,139.710354701351 L 597.6,136.54412008607818 L 612.8000000000001,136.38600321712795 L 628,139.37363450161203 L 643.1999999999999,142.9064760417519 L 658.4,143.9094200223051 L 673.6,141.5094692148912 L 688.8,137.79562404600074 L 704,136.00054416755899 L 719.2,137.68672936917218 L 734.4,141.3864655650221 L 749.6,143.87937404269613 L 764.8,142.9955407952173 L 780,139.50428493747168"
      stroke="url(#thread-10)"
      stroke-width="7.724"
      stroke-linecap="round"
      fill="none"
      opacity="0.7931034482758621"
      class="thread"
      style="animation-delay: 1s"
    >
      <title>2026-01-10: 3862 stars, TypeScript, Unknown, Shell, Python</title>
    </path>

    <path
      d="M 20,149.17783869771844 L 35.2,152.79372154756717 L 50.400000000000006,155.7025210882081 L 65.6,155.3129461907527 L 80.80000000000001,151.97204791929437 L 96,148.65605063456766 L 111.2,148.31899576406727 L 126.4,151.26114713954692 L 141.60000000000002,154.86150229844168 L 156.79999999999998,155.91270086622524 L 172,153.47828727580213 L 187.2,149.72694804295722 L 202.4,148.0005470327338 L 217.6,149.83704090395014 L 232.8,153.6003972623999 L 248,155.9380468401615 L 263.20000000000005,154.76750491160516 L 278.40000000000003,151.13154354578577 L 293.59999999999997,148.26924274824864 L 308.8,148.7304704494714 L 324,152.10434400392367 L 339.2,155.38526316673006 L 354.4,155.65043569923827 L 369.6,152.66363383067454 L 384.8,149.08563671670782 L 400,148.1038871670162 L 415.2,150.5929723999219 L 430.40000000000003,154.3355019101807 L 445.6,155.9974599349187 L 460.79999999999995,154.09829856221629 L 476,150.3298772511571 L 491.2,148.04927736015972 L 506.40000000000003,149.2881611552267 L 521.6,152.9428745195902 L 536.8000000000001,155.75763231323367 L 552,155.2249200791688 L 567.1999999999999,151.81930214095794 L 582.4,148.57465808651 L 597.6,148.38146463559212 L 612.8000000000001,151.41182731439417 L 628,154.96616101325804 L 643.1999999999999,155.87810337056624 L 658.4,153.3352545947437 L 673.6,149.60290020403627 L 688.8,148.00599150133684 L 704,149.96712749944578 L 719.2,153.73923891997484 L 734.4,155.9619570869023 L 749.6,154.65518341058473 L 764.8,150.98305140644504 L 780,148.21686353224496"
      stroke="url(#thread-11)"
      stroke-width="7.822"
      stroke-linecap="round"
      fill="none"
      opacity="0.7724137931034483"
      class="thread"
      style="animation-delay: 1.1s"
    >
      <title>2026-01-09: 3911 stars, TypeScript, Unknown, Python, Shell</title>
    </path>

    <path
      d="M 20,162.88233800720428 L 35.2,166.46609251439594 L 50.400000000000006,167.99663403374805 L 65.6,166.1996682281193 L 80.80000000000001,162.57130828437613 L 96,160.1324448291117 L 111.2,160.913620549871 L 126.4,164.26444616633103 L 141.60000000000002,167.39509987110256 L 156.79999999999998,167.69907002297924 L 172,164.9232779316421 L 187.2,161.37878546529186 L 202.4,160.016657081051 L 217.6,161.97097013948164 L 232.8,165.61460768108196 L 248,167.91395929597408 L 263.20000000000005,166.95463670725962 L 278.40000000000003,163.5353502581955 L 293.59999999999997,160.50292070079303 L 308.8,160.38208046727902 L 324,163.2734384096962 L 339.2,166.76971513961578 L 354.4,167.9599895342305 L 369.6,165.85326598739437 L 384.8,162.20355499259085 L 400,160.04952357980633 L 415.2,161.18456970435918 L 430.40000000000003,164.66367957170417 L 445.6,167.5902248014972 L 460.79999999999995,167.5276298637312 L 476,164.52800989133155 L 491.2,161.0887807962972 L 506.40000000000003,160.07336712773096 L 521.6,162.32717939645497 L 536.8000000000001,165.97374435773784 L 552,167.97701429812204 L 567.1999999999999,166.66911186274976 L 582.4,163.1389671105937 L 597.6,160.32569891564947 L 612.8000000000001,160.57157090445023 L 628,163.67187560645112 L 643.1999999999999,167.0453692754225 L 658.4,167.8833571948878 L 673.6,165.4881495296705 L 688.8,161.85394214147843 L 704,160.0064941072236 L 719.2,161.4839489783534 L 734.4,165.05621116330246 L 749.6,167.74909576377968 L 764.8,167.32056781792664 L 780,164.12741002507087"
      stroke="url(#thread-12)"
      stroke-width="7.54"
      stroke-linecap="round"
      fill="none"
      opacity="0.7517241379310345"
      class="thread"
      style="animation-delay: 1.2000000000000002s"
    >
      <title>2026-01-08: 3770 stars, TypeScript, Unknown, Python, Rust, JavaScript</title>
    </path>

    <path
      d="M 20,176.86047995235126 L 35.2,179.58731083354724 L 50.400000000000006,179.6232883545682 L 65.6,176.9414256615222 L 80.80000000000001,173.5533965607671 L 96,172.00057254564592 L 111.2,173.44773188955895 L 126.4,176.8093557278288 L 141.60000000000002,179.5638792391801 L 156.79999999999998,179.64512550443257 L 172,176.99215143947657 L 187.2,173.59496139809846 L 202.4,172.00179852458024 L 217.6,173.4076993993661 L 232.8,176.7580932677802 L 248,179.5398389449487 L 263.20000000000005,179.66634007781474 L 278.40000000000003,177.04270776094654 L 293.59999999999997,173.63693700879563 L 308.8,172.00370738431158 L 324,173.3681096663257 L 339.2,176.7067013276796 L 354.4,179.51519405686312 L 369.6,179.68692845132932 L 384.8,177.09308599106444 L 400,173.67931622355044 L 415.2,172.0062987988124 L 430.40000000000003,173.3289694522452 L 445.6,176.655188685116 L 460.79999999999995,179.48994878419612 L 476,179.706887108544 L 491.2,177.1432775253799 L 506.40000000000003,173.7220918041204 L 521.6,172.0095723254769 L 536.8000000000001,173.29028544215555 L 552,176.60356413829382 L 567.1999999999999,179.46410743876442 L 582.4,179.72621264058014 L 597.6,177.19327379132966 L 612.8000000000001,173.7652564445649 L 628,172.0135274051966 L 643.1999999999999,173.2520642431694 L 658.4,176.55183650453063 L 673.6,179.43767443419213 L 688.8,179.7449017466949 L 704,177.24306624970177 L 719.2,173.80880277249298 L 734.4,172.01816336245577 L 749.6,173.2143123833527 L 764.8,176.50001461875078 L 780,179.41065428515708"
      stroke="url(#thread-13)"
      stroke-width="7.128"
      stroke-linecap="round"
      fill="none"
      opacity="0.7310344827586207"
      class="thread"
      style="animation-delay: 1.3s"
    >
      <title>2026-01-07: 3564 stars, TypeScript, Python, Unknown, Shell, Rust</title>
    </path>

    <path
      d="M 20,190.62794639487515 L 35.2,191.91409269952905 L 50.400000000000006,189.18805589390365 L 65.6,185.24418952788955 L 80.80000000000001,184.12519653103783 L 96,186.97811279318046 L 111.2,190.87852560345164 L 126.4,191.8282745702056 L 141.60000000000002,188.85380922953172 L 156.79999999999998,185.00413749158986 L 172,184.22540706232178 L 187.2,187.3158640017009 L 202.4,191.10760195515513 L 217.6,191.7138588699399 L 232.8,188.5131845299471 L 248,184.78646482987426 L 263.20000000000005,184.35381415770624 L 278.40000000000003,187.65872577044547 L 293.59999999999997,191.31346422810256 L 308.8,191.57170029476944 L 324,188.16872629367842 L 339.2,184.59279757798953 L 354.4,184.50945860411693 L 369.6,188.0041368897686 L 384.8,191.4945746117615 L 400,191.40286078261528 L 415.2,187.82300765613365 L 430.40000000000003,184.42458244851426 L 445.6,184.6911777229068 L 460.79999999999995,188.3495171061362 L 476,191.6495801945395 L 491.2,191.20860158050607 L 506.40000000000003,187.47861116803696 L 521.6,184.28307602427984 L 536.8000000000001,184.89761405517464 L 552,188.6922863968623 L 567.1999999999999,191.77732307016092 L 582.4,190.99037382294426 L 597.6,187.13810950353175 L 612.8000000000001,184.16933537157854 L 628,185.12722550211106 L 643.1999999999999,189.02988424312073 L 658.4,191.87684898733548 L 673.6,190.74980769179484 L 688.8,186.80404624206292 L 704,184.08421014377902 L 719.2,185.37829684462127 L 734.4,189.3597887572619 L 749.6,191.94741447810532 L 764.8,190.48870023867346 L 780,186.47891686759962"
      stroke="url(#thread-14)"
      stroke-width="8"
      stroke-linecap="round"
      fill="none"
      opacity="0.7103448275862069"
      class="thread"
      style="animation-delay: 1.4000000000000001s"
    >
      <title>2026-01-06: 4224 stars, TypeScript, Python, Rust, JavaScript, Go</title>
    </path>

    <path
      d="M 20,203.75199990709896 L 35.2,203.3192722692234 L 50.400000000000006,200.13111731234196 L 65.6,196.83411794767522 L 80.80000000000001,196.16521208910922 L 96,198.67967852278792 L 111.2,202.2901833567849 L 126.4,203.99953839800088 L 141.60000000000002,202.38875683353757 L 156.79999999999998,198.7949966810805 L 172,196.20154587209902 L 187.2,196.7613055939481 L 202.4,200.00960253737165 L 217.6,203.24992812693822 L 232.8,203.79239104678578 L 248,201.18667658101873 L 263.20000000000005,197.59586634577187 L 278.40000000000003,196.00079945789182 L 293.59999999999997,197.72558871139614 L 308.8,201.33843489152935 L 324,203.84020618364397 L 339.2,203.1541073130305 L 354.4,199.84968950004418 L 369.6,196.6700489346949 L 384.8,196.25470047679642 L 400,198.94843732045095 L 415.2,202.51510783747187 L 430.40000000000003,203.99391201406837 L 445.6,202.15725021479156 L 460.79999999999995,198.52979040509462 L 476,196.12279561118703 L 491.2,196.9343842981713 L 506.40000000000003,200.29083239084954 L 521.6,203.40585180579353 L 536.8000000000001,203.69357163546883 L 552,200.91514703238957 L 567.1999999999999,197.37703147014005 L 582.4,196.016320639368 L 597.6,197.96258135239566 L 612.8000000000001,201.60016430310606 L 628,203.90940294275813 L 643.1999999999999,202.97332911757945 L 658.4,199.5690057441674 L 673.6,196.52246361029606 L 688.8,196.3627285816669 L 704,199.2224014894223 L 719.2,202.7275822089745 L 734.4,203.96851524895888 L 749.6,201.91506492839082 L 764.8,198.27186185681 L 780,196.06323801360807"
      stroke="url(#thread-15)"
      stroke-width="7.528"
      stroke-linecap="round"
      fill="none"
      opacity="0.6896551724137931"
      class="thread"
      style="animation-delay: 1.5s"
    >
      <title>2026-01-05: 3764 stars, Go, TypeScript, Python, Rust, JavaScript</title>
    </path>

    <path
      d="M 20,215.95743298649353 L 35.2,213.71403531882078 L 50.400000000000006,209.94656370685266 L 65.6,208.0049522252402 L 80.80000000000001,209.61562940003398 L 96,213.34642455900806 L 111.2,215.88001533962932 L 126.4,214.96360120047814 L 141.60000000000002,211.41203286039794 L 156.79999999999998,208.38326903182917 L 172,208.57040476588296 L 187.2,211.8070440185652 L 202.4,215.21525452212637 L 217.6,215.76454748318207 L 232.8,212.96650642598206 L 248,209.30907394046147 L 263.20000000000005,208.0443402799509 L 278.40000000000003,210.29687248066728 L 293.59999999999997,214.06377970477186 L 308.8,215.99562971606923 L 324,214.37467362445443 L 339.2,210.64222183756632 L 354.4,208.11706974676738 L 369.6,209.0445144382445 L 384.8,212.5998971237366 L 400,215.6218674778109 L 415.2,215.42337102352323 L 430.40000000000003,212.1809054506779 L 445.6,208.7775836336632 L 460.79999999999995,208.23954747773027 L 476,211.04520421133134 L 491.2,214.6998395906198 L 506.40000000000003,215.95385047363382 L 521.6,213.69220422850242 L 536.8000000000001,209.9258956553734 L 552,208.00382468615211 L 567.1999999999999,209.63504495066226 L 582.4,213.36911941575286 L 597.6,215.88580984839922 L 612.8000000000001,214.94734304046665 L 628,211.3881783486854 L 643.1999999999999,208.3730289564056 L 658.4,208.58288432543904 L 673.6,211.8311467255625 L 688.8,215.22954890002632 L 704,215.75632335695616 L 719.2,212.94307646670416 L 734.4,209.29127143555525 L 749.6,208.04799473629572 L 764.8,210.31873445431378 L 780,214.08441011880046"
      stroke="url(#thread-16)"
      stroke-width="7.814"
      stroke-linecap="round"
      fill="none"
      opacity="0.6689655172413793"
      class="thread"
      style="animation-delay: 1.6s"
    >
      <title>2026-01-04: 3907 stars, Python, Jupyter Notebook, TypeScript, Go, Rust</title>
    </path>

    <path
      d="M 20,227.19394845049396 L 35.2,223.7885559045286 L 50.400000000000006,220.56967338664128 L 65.6,220.37660396392667 L 80.80000000000001,223.37964978349007 L 96,226.92989242139697 L 111.2,227.89574358428044 L 126.4,225.42524792618025 L 141.60000000000002,221.6975734845468 L 156.79999999999998,220.00081711176452 L 172,221.8316490176288 L 187.2,225.57513401367953 L 202.4,227.9292291170352 L 217.6,226.81744057247252 L 232.8,223.22045177150883 L 248,220.31108473486972 L 263.20000000000005,220.65562596245994 L 278.40000000000003,223.9501634727762 L 293.59999999999997,227.28866065040356 L 308.8,227.7263050570969 L 324,224.87706051436382 L 339.2,221.25418083750498 L 354.4,220.05332580007797 L 369.6,222.33374232145798 L 384.8,226.08392684802743 L 400,227.99592689339104 L 415.2,226.38321069911444 L 430.40000000000003,222.66831854472548 L 445.6,220.1280723177175 L 460.79999999999995,221.00316544614802 L 476,224.52169818228194 L 491.2,227.58005281597826 L 506.40000000000003,227.48052427615644 L 521.6,224.31090442437375 L 536.8000000000001,220.86704285025658 L 552,220.1866915300586 L 567.1999999999999,222.8699728911767 L 582.4,226.55002546657573 L 597.6,227.98075856908818 L 612.8000000000001,225.9001550658789 L 628,222.14346799126713 L 643.1999999999999,220.02438558139926 L 658.4,221.4121022390934 L 673.6,225.08254465923395 L 688.8,227.79809905405838 L 704,227.1634366474335 L 719.2,223.73837871512384 L 734.4,220.54409096856602 L 749.6,220.39818198638474 L 764.8,223.42935476358593 L 780,226.9638807265495"
      stroke="url(#thread-17)"
      stroke-width="7.78"
      stroke-linecap="round"
      fill="none"
      opacity="0.6482758620689656"
      class="thread"
      style="animation-delay: 1.7000000000000002s"
    >
      <title>2026-01-03: 3890 stars, Go, Python, Jupyter Notebook, TypeScript, Rust, JavaScript</title>
    </path>

    <path
      d="M 20,237.64847394096702 L 35.2,235.06390958536915 L 50.400000000000006,232.87365611724996 L 65.6,232.00031756643267 L 80.80000000000001,232.81177175076456 L 96,234.96620850471967 L 111.2,237.55611093122164 L 126.4,239.49053021986109 L 141.60000000000002,239.9546277882345 L 156.79999999999998,238.7529110629731 L 172,236.39158113430244 L 187.2,233.86530484770162 L 202.4,232.23822967121058 L 217.6,232.19573112711768 L 232.8,233.75571094625565 L 248,236.26105629281392 L 263.20000000000005,238.65643647266134 L 278.40000000000003,239.93284159764838 L 293.59999999999997,239.5526094614865 L 308.8,237.6759058651652 L 324,235.09325771616452 L 339.2,232.89255809378625 L 354.4,232.0008112783981 L 369.6,232.7936492310651 L 384.8,234.93710353179634 L 400,237.5282834401449 L 415.2,239.47570202994586 L 430.40000000000003,239.95904500203008 L 445.6,238.7747130103298 L 460.79999999999995,236.42158414548427 L 476,233.89087070552225 L 491.2,232.24858922780905 L 506.40000000000003,232.1865206096229 L 521.6,233.73081011592865 L 536.8000000000001,236.23095416690322 L 552,238.63381301861162 L 567.1999999999999,239.92722652979575 L 582.4,239.56636802399285 L 597.6,237.703242516374 L 612.8000000000001,235.12265739403648 L 628,232.9116367242062 L 643.1999999999999,232.00153233885158 L 658.4,232.7757089880848 L 673.6,234.90805898310447 L 688.8,237.50036906821464 L 704,239.4606762510554 L 719.2,239.963237149454 L 734.4,238.7963572189921 L 749.6,236.45156319017573 L 764.8,233.91655646450025 L 780,232.2591620470531"
      stroke="url(#thread-18)"
      stroke-width="5.26"
      stroke-linecap="round"
      fill="none"
      opacity="0.6275862068965518"
      class="thread"
      style="animation-delay: 1.8s"
    >
      <title>2026-01-02: 2630 stars, TypeScript, Rust, Python, JavaScript, Jupyter Notebook, Shell</title>
    </path>

    <path
      d="M 20,247.69939551815276 L 35.2,244.6241440371543 L 50.400000000000006,244.26100244494344 L 65.6,246.9017130178805 L 80.80000000000001,250.4247701771992 L 96,251.99980489480336 L 111.2,250.36145890902202 L 126.4,246.8259537643157 L 141.60000000000002,244.23365900557891 L 156.79999999999998,244.66718370357776 L 172,247.77824089541554 L 187.2,251.06745588399923 L 202.4,251.89232478436855 L 217.6,249.59016082129767 L 232.8,246.01048652139102 L 248,244.02915623811217 L 263.20000000000005,245.23793973692977 L 278.40000000000003,248.66571925789563 L 293.59999999999997,251.55867033761095 L 308.8,251.59264131871035 L 324,248.74034044621803 L 339.2,245.29326163670592 L 354.4,244.02073410018784 L 369.6,245.9450865596689 L 384.8,249.52032434229824 L 400,251.87415732321446 L 415.2,251.11555289487825 L 430.40000000000003,247.8539619919303 L 445.6,244.70969574091768 L 460.79999999999995,244.20880847774995 L 476,246.75370519676216 L 491.2,250.29985567109063 L 506.40000000000003,251.99833806449442 L 521.6,250.48461818304457 L 536.8000000000001,246.9747949078894 L 552,244.28860537154006 L 567.1999999999999,244.58409224076652 L 582.4,247.62386598566704 L 597.6,250.96581991568476 L 612.8000000000001,251.92508050504486 L 628,249.73099279720861 L 643.1999999999999,246.1462525454255 L 658.4,244.05078400967506 L 673.6,245.12805384256333 L 688.8,248.51260030673413 L 704,251.48533170053759 L 719.2,251.65800210987751 L 734.4,248.89189082811652 L 749.6,245.40924840246907 L 764.8,244.00797529600695 L 780,245.81383240930026"
      stroke="url(#thread-19)"
      stroke-width="7.396"
      stroke-linecap="round"
      fill="none"
      opacity="0.6068965517241379"
      class="thread"
      style="animation-delay: 1.9000000000000001s"
    >
      <title>2026-01-01: 3698 stars, Rust, Python, JavaScript, TypeScript, Jupyter Notebook, Go, Shell</title>
    </path>

    <path
      d="M 20,257.8239155564425 L 35.2,256.00842336732944 L 50.400000000000006,257.4077434385189 L 65.6,260.8948646325753 L 80.80000000000001,263.6612626495874 L 96,263.47888299370123 L 111.2,260.49461407712306 L 126.4,257.11198342392214 L 141.60000000000002,256.0553587455884 L 156.79999999999998,258.175744615764 L 172,261.76538414554955 L 187.2,263.9331848588624 L 202.4,262.93320199442456 L 217.6,259.570820859479 L 232.8,256.55410022157116 L 248,256.3127041921891 L 263.20000000000005,259.0410529181223 L 278.40000000000003,262.5417367686199 L 293.59999999999997,263.99530809236785 L 308.8,262.2310618415008 L 324,258.66992037312883 L 339.2,256.18002385008646 L 354.4,256.76673271156585 L 369.6,259.9575121637529 L 384.8,263.1825112813631 L 400,263.84431865109696 L 415.2,261.4099152075644 L 430.40000000000003,257.8399673132085 L 445.6,256.00970781849776 L 460.79999999999995,257.39322608826404 L 476,260.8762377418461 L 491.2,263.6535282995659 L 506.40000000000003,263.4882704229973 L 521.6,260.51356265855327 L 536.8000000000001,257.12523198690076 L 552,256.05223690930745 L 567.1999999999999,258.15876670438007 L 582.4,261.7482241537505 L 597.6,263.92966342874007 L 612.8000000000001,262.9461552826591 L 628,259.5898162992779 L 643.1999999999999,256.5638389026604 L 658.4,256.30534258950416 L 673.6,259.0225200599007 L 688.8,262.5269590023459 L 704,263.99618741781984 L 719.2,262.24689005074384 L 734.4,258.6879494405541 L 749.6,256.18573318086777 L 764.8,256.7555240157834 L 780,259.9384129149941"
      stroke="url(#thread-20)"
      stroke-width="7.406"
      stroke-linecap="round"
      fill="none"
      opacity="0.5862068965517241"
      class="thread"
      style="animation-delay: 2s"
    >
      <title>2025-12-31: 3703 stars, Go, Python, TypeScript, Rust, Shell</title>
    </path>

    <path
      d="M 20,268.48121696011333 L 35.2,268.6737990748655 L 50.400000000000006,272.4096204796711 L 65.6,275.7090932061351 L 80.80000000000001,275.05745020800805 L 96,271.14885492460735 L 111.2,268.1469428935255 L 126.4,269.24950429437496 L 141.60000000000002,273.2820343503501 L 156.79999999999998,275.9488758674782 L 172,274.40917290935727 L 187.2,270.30309579011384 L 202.4,268.00464779588566 L 217.6,269.96225324696974 L 232.8,274.09057072689006 L 248,275.9919053801933 L 263.20000000000005,273.64085832125687 L 278.40000000000003,269.5418850834311 L 293.59999999999997,268.0614215351549 L 308.8,270.77653314234925 L 324,274.7949442006827 L 339.2,275.83603779435776 L 354.4,272.7907877975449 L 369.6,268.9031502067707 L 384.8,268.31443535390065 L 400,271.65177240048496 L 415.2,275.36005929052556 L 430.40000000000003,275.4890392285612 L 445.6,271.90131619000925 L 460.79999999999995,268.41871619144246 L 476,268.7510828124283 L 491.2,272.5443621347924 L 506.40000000000003,275.757759078603 L 521.6,274.968198922243 L 536.8000000000001,271.01676151351575 L 552,268.1127200123772 L 567.1999999999999,269.3496079059434 L 582.4,273.4098289694168 L 597.6,275.9682281318302 L 612.8000000000001,274.29946779754914 L 628,270.1811967963323 L 643.1999999999999,268.0004079608538 L 658.4,270.0801890597411 L 673.6,274.2050509297862 L 688.8,275.98097980785593 L 704,273.516165451951 L 719.2,269.43625413693576 L 734.4,268.08737599645855 L 749.6,270.90642499225123 L 764.8,274.89040599945554 L 780,275.79537875310314"
      stroke="url(#thread-21)"
      stroke-width="8"
      stroke-linecap="round"
      fill="none"
      opacity="0.5655172413793104"
      class="thread"
      style="animation-delay: 2.1s"
    >
      <title>2025-12-30: 4315 stars, Go, Shell, Rust, Python, Swift, TypeScript</title>
    </path>

    <path
      d="M 20,280.0000391737972 L 35.2,281.295415057599 L 50.400000000000006,284.3249690539211 L 65.6,287.14615310344607 L 80.80000000000001,287.95002582172094 L 96,286.22114454269024 L 111.2,283.0680668221687 L 126.4,280.51254405138803 L 141.60000000000002,280.1931757750167 L 156.79999999999998,282.314740724916 L 172,285.5168928299661 L 187.2,287.7464142353751 L 202.4,287.57373726070495 L 217.6,285.1095822702211 L 232.8,281.933963847071 L 248,280.08308646640575 L 263.20000000000005,280.7437315053557 L 278.40000000000003,283.49229379303824 L 293.59999999999997,286.5663969716355 L 308.8,287.99492807502276 L 324,286.86191388538356 L 339.2,283.89384236693144 L 354.4,280.9938390540136 L 369.6,280.0213841916965 L 384.8,281.6000152075556 L 400,284.717514917161 L 415.2,287.37494452682614 L 430.40000000000003,287.8683618928247 L 445.6,285.88138811980843 L 460.79999999999995,282.688069503494 L 476,280.33595987141973 L 491.2,280.33323039552545 L 506.40000000000003,282.68163121398584 L 521.6,285.8753692437472 L 536.8000000000001,287.86662172964054 L 552,287.3785988680252 L 567.1999999999999,284.7242206015344 L 582.4,281.6054725546283 L 597.6,280.02209395406186 L 612.8000000000001,280.9893461325029 L 628,283.88702761990584 L 643.1999999999999,286.8571469242201 L 658.4,287.9952654721304 L 673.6,286.5716223882076 L 688.8,283.4990566953547 L 704,280.7476955248335 L 719.2,280.08170987632445 L 734.4,281.92812931609865 L 749.6,285.10303089583647 L 764.8,287.57066977991826 L 780,287.74879751487896"
      stroke="url(#thread-22)"
      stroke-width="6.556"
      stroke-linecap="round"
      fill="none"
      opacity="0.5448275862068965"
      class="thread"
      style="animation-delay: 2.2s"
    >
      <title>2025-12-29: 3278 stars, Shell, Go, JavaScript, TypeScript, Rust, Python</title>
    </path>

    <path
      d="M 20,292.49819130124627 L 35.2,295.5506183817516 L 50.400000000000006,298.9817860074048 L 65.6,299.8998929912793 L 80.80000000000001,297.5311552588681 L 96,293.8719540230539 L 111.2,292.0062780688253 L 126.4,293.50652621998853 L 141.60000000000002,297.108283601624 L 156.79999999999998,299.77597532856345 L 172,299.261260618899 L 187.2,295.99794299689097 L 202.4,292.736359024964 L 217.6,292.22538413862924 L 232.8,294.89566992475324 L 248,298.4966893184344 L 263.20000000000005,299.99348941357243 L 278.40000000000003,298.12456137004244 L 293.59999999999997,294.46504488494145 L 308.8,292.09919443656185 L 324,293.0209578237707 L 339.2,296.4534693413582 L 354.4,299.5037951651399 L 369.6,299.6011090341732 L 384.8,296.663394447757 L 400,293.1665684856444 L 415.2,292.05776943163977 L 430.40000000000003,294.2714973656754 L 445.6,297.94201392530147 L 460.79999999999995,299.97579372737965 L 476,298.6587593827362 L 491.2,295.1009124700139 L 506.40000000000003,292.30081996337947 L 521.6,292.6184105278303 L 536.8000000000001,295.7860176219916 L 552,299.1339698820608 L 567.1999999999999,299.8406003492285 L 582.4,297.3103581654147 L 597.6,293.67574111232483 L 612.8000000000001,292.00001833180033 L 628,293.69549538695355 L 643.1999999999999,297.33321773652517 L 658.4,299.8472990829321 L 673.6,299.1188620599933 L 688.8,295.7618361743252 L 704,292.6055356710663 L 719.2,292.3101026759992 L 734.4,295.124529246348 L 749.6,298.67680591344003 L 764.8,299.97306032741216 L 780,297.9208043146008"
      stroke="url(#thread-23)"
      stroke-width="7.59"
      stroke-linecap="round"
      fill="none"
      opacity="0.5241379310344827"
      class="thread"
      style="animation-delay: 2.3000000000000003s"
    >
      <title>2025-12-28: 3795 stars, Shell, Rust, Python, JavaScript, TypeScript</title>
    </path>

    <path
      d="M 20,305.8537083279983 L 35.2,310.8323220389019 L 50.400000000000006,311.3694878004307 L 65.6,306.6228600963447 L 80.80000000000001,304.0357662012967 L 96,307.6651045601599 L 111.2,311.8196023620889 L 126.4,309.9844687430428 L 141.60000000000002,305.03743100139803 L 156.79999999999998,304.73608531842314 L 172,309.5529807712777 L 187.2,311.934601150439 L 202.4,308.1462571077577 L 217.6,304.12856296914464 L 232.8,306.1817837285044 L 248,311.08620319325047 L 263.20000000000005,311.1510561624681 L 278.40000000000003,306.27464477723225 L 293.59999999999997,304.1038139406956 L 308.8,308.042707685545 L 324,311.9146302456982 L 339.2,309.6479053503319 L 354.4,304.79705134165573 L 369.6,304.9688358448317 L 384.8,309.8938785002517 L 400,311.8490742718162 L 415.2,307.76842284919036 L 430.40000000000003,304.0509144051731 L 445.6,306.52608386859106 L 460.79999999999995,311.31254480574796 L 476,310.9045062712255 L 491.2,305.9418255579195 L 506.40000000000003,304.20662905356954 L 521.6,308.41992971155986 L 536.8000000000001,311.97472617028467 L 552,309.296636976931 L 567.1999999999999,304.5852529946463 L 582.4,305.2286347756652 L 597.6,310.2178763224623 L 612.8000000000001,311.7292004188178 L 628,307.3926550548955 L 643.1999999999999,304.008505260385 L 658.4,306.88353640741633 L 673.6,311.50932713112167 L 688.8,310.6320381992915 L 704,305.6273723299674 L 719.2,304.34329407566673 L 734.4,308.7934045209652 L 749.6,311.99935387361063 L 764.8,308.93379814427783 L 780,304.4039259297191"
      stroke="url(#thread-24)"
      stroke-width="8"
      stroke-linecap="round"
      fill="none"
      opacity="0.503448275862069"
      class="thread"
      style="animation-delay: 2.4000000000000004s"
    >
      <title>2025-12-27: 5384 stars, Shell, Python, Rust, C, Go</title>
    </path>

    <path
      d="M 20,319.7347124105952 L 35.2,323.106845214359 L 50.400000000000006,323.8503199894414 L 65.6,321.3360931878698 L 80.80000000000001,317.69141673623886 L 96,316.00000010686057 L 111.2,317.692927114954 L 126.4,321.3378360351172 L 141.60000000000002,323.8508207066835 L 156.79999999999998,323.1056801517813 L 172,319.73286731125455 L 187.2,316.586071680645 L 202.4,316.32775277379994 L 217.6,319.1764705837632 L 232.8,322.72196504736894 L 248,323.96444317707835 L 263.20000000000005,321.85266170656234 L 278.40000000000003,318.1733692294221 L 293.59999999999997,316.03956335017364 L 308.8,317.2566272048066 L 324,320.79482018760535 L 339.2,323.66052699122446 L 354.4,323.4291134039675 L 369.6,320.2963752064796 L 384.8,316.91287811620424 L 400,316.14135142208903 L 415.2,318.6345730061652 L 430.40000000000003,322.28306316085883 L 445.6,323.99988569334795 L 460.79999999999995,322.3324612112023 L 476,318.69157411138974 L 491.2,316.15772774895737 L 506.40000000000003,316.8747738849356 L 521.6,320.23602987109905 L 536.8000000000001,323.39758430380056 L 552,323.6844904543701 L 567.1999999999999,320.8540010650147 L 582.4,317.3009533886619 L 597.6,316.0315310798969 L 612.8000000000001,318.1197744958963 L 628,321.79885025985135 L 643.1999999999999,323.9559441252233 L 658.4,322.76596931857955 L 673.6,319.2357467832215 L 688.8,316.3521481430435 L 704,316.55494564095164 L 719.2,319.6725551669268 L 734.4,323.0672111596619 L 749.6,323.86674293982185 L 764.8,321.3946779160493 L 780,317.7425955278765"
      stroke="url(#thread-25)"
      stroke-width="7.606"
      stroke-linecap="round"
      fill="none"
      opacity="0.48275862068965525"
      class="thread"
      style="animation-delay: 2.5s"
    >
      <title>2025-12-26: 3803 stars, Python, Shell, Go, TypeScript</title>
    </path>

    <path
      d="M 20,333.68066814730656 L 35.2,335.87089885924735 L 50.400000000000006,335.23762932080416 L 65.6,332.24277723258626 L 80.80000000000001,329.0708392524554 L 96,328.03548153567846 L 111.2,329.8919118205236 L 126.4,333.28601790600703 L 141.60000000000002,335.742080397059 L 156.79999999999998,335.4686050411553 L 172,332.66506946970526 L 187.2,329.3764207804714 L 202.4,328.0014559286606 L 217.6,329.54309794184906 L 232.8,332.8768466022535 L 248,335.5710082594748 L 263.20000000000005,335.66041503123495 L 278.40000000000003,333.0798520794227 L 293.59999999999997,329.7116264354314 L 308.8,328.01257985487547 L 324,329.2220261560825 L 339.2,332.4577743910441 L 354.4,335.3596141063748 L 369.6,335.81089346984254 L 384.8,333.48244154671727 L 400,330.07267124495837 L 415.2,328.0687277085856 L 430.40000000000003,328.93232184311296 L 445.6,332.03353322340644 L 460.79999999999995,335.11028489340333 L 476,335.9183412307102 L 491.2,333.8682920353523 L 506.40000000000003,330.45547847403697 L 521.6,328.16926549668216 L 536.8000000000001,328.67725619722336 L 552,331.6089134156043 L 567.1999999999999,334.82583591967597 L 582.4,335.9815450681756 L 597.6,334.23304671715533 L 612.8000000000001,330.85572565743917 L 628,328.3130579974134 L 643.1999999999999,328.4597092904224 L 658.4,331.18870955931453 L 673.6,334.5094790388481 L 688.8,335.99979131653714 L 704,334.5725869671133 L 719.2,331.26889340681106 L 734.4,328.4984815787337 L 749.6,328.2821375521312 L 764.8,330.7776663835274 L 780,334.16478639249164"
      stroke="url(#thread-26)"
      stroke-width="7.022"
      stroke-linecap="round"
      fill="none"
      opacity="0.4620689655172414"
      class="thread"
      style="animation-delay: 2.6s"
    >
      <title>2025-12-25: 3511 stars, Python, TypeScript</title>
    </path>

    <path
      d="M 20,347.21513770620646 L 35.2,347.98428675757384 L 50.400000000000006,346.74492812276895 L 65.6,344.1218314269193 L 80.80000000000001,341.437318630203 L 96,340.04467199213184 L 111.2,340.64593472567753 L 126.4,342.93800595100515 L 141.60000000000002,345.7654360347333 L 156.79999999999998,347.70289708235566 L 172,347.77370100825397 L 187.2,345.9421550427982 L 202.4,343.1315547149066 L 217.6,340.7587439178047 L 232.8,340.01987368523834 L 248,341.2874138296206 L 263.20000000000005,343.92238822362225 L 278.40000000000003,346.5964872737737 L 293.59999999999997,347.96167836530253 L 308.8,347.3297588242379 L 324,345.01928384815886 L 339.2,342.1949805339145 L 354.4,340.2806005489665 L 369.6,340.2411966487958 L 384.8,342.0966326236296 L 400,344.9115698185456 L 415.2,347.2669780943769 L 430.40000000000003,347.9754791538441 L 445.6,346.67991250369306 L 460.79999999999995,344.03338263491713 L 476,341.37002433914904 L 491.2,340.0324557394222 L 506.40000000000003,340.69495481239755 L 521.6,343.02355099794323 L 536.8000000000001,345.84438216684157 L 552,347.7354469851381 L 567.1999999999999,347.7434460409926 L 582.4,345.8643469526656 L 597.6,343.04541712123194 L 612.8000000000001,340.707699402719 L 628,340.02965415689096 L 643.1999999999999,341.353088881722 L 658.4,344.0108505888091 L 673.6,346.66314243583116 L 688.8,347.9729249763707 L 704,347.27992738657514 L 719.2,344.93349474883775 L 734.4,342.1164806765493 L 749.6,340.248962277737 L 764.8,340.27236904438007 L 780,342.17490145662185"
      stroke="url(#thread-27)"
      stroke-width="5.776"
      stroke-linecap="round"
      fill="none"
      opacity="0.44137931034482764"
      class="thread"
      style="animation-delay: 2.7s"
    >
      <title>2025-12-24: 2888 stars, Python, TypeScript</title>
    </path>

    <path
      d="M 20,359.9624294227795 L 35.2,359.32672711121705 L 50.400000000000006,357.01399767303644 L 65.6,354.1901046956897 L 80.80000000000001,352.27859299284927 L 96,352.24306939830177 L 111.2,354.10144161222803 L 126.4,356.91689080040516 L 141.60000000000002,359.2701287241713 L 156.79999999999998,359.97487117637394 L 172,358.6758524047854 L 187.2,356.0279171397097 L 202.4,353.3659086431889 L 217.6,352.0317645947222 L 232.8,352.6980366299849 L 248,355.0288522113485 L 263.20000000000005,357.8492303961587 L 278.40000000000003,359.7373982030066 L 293.59999999999997,359.74151662441415 L 308.8,357.8595095344509 L 324,355.0401102787869 L 339.2,352.70459835358906 L 354.4,352.03032216230497 L 369.6,353.3571891953336 L 384.8,356.01631621295826 L 400,358.6672181099704 L 415.2,359.97355612377567 L 430.40000000000003,359.27679584128765 L 445.6,356.92817914541956 L 460.79999999999995,354.1116606490157 L 476,352.247067636726 L 491.2,352.2743548920881 L 506.40000000000003,354.1797667128988 L 521.6,357.00277125989055 L 536.8000000000001,359.3202715835394 L 552,359.9639990586248 L 567.1999999999999,358.6094460228778 L 582.4,355.93945242963616 L 597.6,353.2999813032385 L 612.8000000000001,352.02160907238226 L 628,352.7487723973011 L 643.1999999999999,355.1149030021484 L 658.4,357.9272173862666 L 673.6,359.76800758832553 L 688.8,359.70931799307306 L 704,357.78073444870114 L 719.2,354.9544698274215 L 734.4,352.65526450571593 L 749.6,352.0421644663955 L 764.8,353.424237860498 L 780,356.10477152358266"
      stroke="url(#thread-28)"
      stroke-width="5.776"
      stroke-linecap="round"
      fill="none"
      opacity="0.4206896551724138"
      class="thread"
      style="animation-delay: 2.8000000000000003s"
    >
      <title>2025-12-23: 2888 stars, Python, TypeScript</title>
    </path>
  </g>

  <!-- Date markers -->
  <g id="dates">
    <text x="785" y="24" class="date-label">01-20</text>
<text x="785" y="108" class="date-label">01-13</text>
<text x="785" y="192" class="date-label">01-06</text>
<text x="785" y="276" class="date-label">12-30</text>
<text x="785" y="360" class="date-label">12-23</text>
  </g>

</svg>