<?xml version="1.0" encoding="UTF-8"?>
<svg xmlns="http://www.w3.org/2000/svg" viewBox="0 0 800 508" width="800" height="508">
  <title>The Data Tapestry - GitHub Trends Woven in Time</title>
  <desc>A living data art piece that weaves daily GitHub trending repositories into an evolving tapestry. Each thread represents one day of open source activity.</desc>

  <style>
    .thread {
      animation: breathe 8s ease-in-out infinite alternate;
    }

    @keyframes breathe {
      0% {
        opacity: 0.85;
      }
      100% {
        opacity: 1;
      }
    }

    .date-label {
      font-family: ui-monospace, monospace;
      font-size: 8px;
      fill: #666;
    }

    .title {
      font-family: system-ui, sans-serif;
      font-size: 14px;
      fill: #333;
      font-weight: 600;
    }

    .subtitle {
      font-family: system-ui, sans-serif;
      font-size: 10px;
      fill: #888;
    }

    .empty-state {
      font-family: system-ui, sans-serif;
      font-size: 12px;
      fill: #999;
      text-anchor: middle;
    }
  </style>

  <defs>
    
    <linearGradient id="thread-0" x1="0%" y1="0%" x2="100%" y2="0%">
      <stop offset="0%" stop-color="#3572A5" />
      <stop offset="50%" stop-color="#3178c6" />
      <stop offset="100%" stop-color="#dea584" />
    </linearGradient>

    <linearGradient id="thread-1" x1="0%" y1="0%" x2="100%" y2="0%">
      <stop offset="0%" stop-color="#3572A5" />
      <stop offset="50%" stop-color="#3178c6" />
      <stop offset="100%" stop-color="#f1e05a" />
    </linearGradient>

    <linearGradient id="thread-2" x1="0%" y1="0%" x2="100%" y2="0%">
      <stop offset="0%" stop-color="#3572A5" />
      <stop offset="50%" stop-color="#3178c6" />
      <stop offset="100%" stop-color="#f1e05a" />
    </linearGradient>

    <linearGradient id="thread-3" x1="0%" y1="0%" x2="100%" y2="0%">
      <stop offset="0%" stop-color="#3572A5" />
      <stop offset="50%" stop-color="#3178c6" />
      <stop offset="100%" stop-color="#f1e05a" />
    </linearGradient>

    <linearGradient id="thread-4" x1="0%" y1="0%" x2="100%" y2="0%">
      <stop offset="0%" stop-color="#3178c6" />
      <stop offset="50%" stop-color="#3572A5" />
      <stop offset="100%" stop-color="#f1e05a" />
    </linearGradient>

    <linearGradient id="thread-5" x1="0%" y1="0%" x2="100%" y2="0%">
      <stop offset="0%" stop-color="#3572A5" />
      <stop offset="50%" stop-color="#3178c6" />
      <stop offset="100%" stop-color="#89e051" />
    </linearGradient>

    <linearGradient id="thread-6" x1="0%" y1="0%" x2="100%" y2="0%">
      <stop offset="0%" stop-color="#3178c6" />
      <stop offset="50%" stop-color="#3572A5" />
      <stop offset="100%" stop-color="#89e051" />
    </linearGradient>

    <linearGradient id="thread-7" x1="0%" y1="0%" x2="100%" y2="0%">
      <stop offset="0%" stop-color="#3572A5" />
      <stop offset="50%" stop-color="#3178c6" />
      <stop offset="100%" stop-color="#8b8b8b" />
    </linearGradient>

    <linearGradient id="thread-8" x1="0%" y1="0%" x2="100%" y2="0%">
      <stop offset="0%" stop-color="#3178c6" />
      <stop offset="50%" stop-color="#3572A5" />
      <stop offset="100%" stop-color="#dea584" />
    </linearGradient>

    <linearGradient id="thread-9" x1="0%" y1="0%" x2="100%" y2="0%">
      <stop offset="0%" stop-color="#3572A5" />
      <stop offset="50%" stop-color="#3178c6" />
      <stop offset="100%" stop-color="#8b8b8b" />
    </linearGradient>

    <linearGradient id="thread-10" x1="0%" y1="0%" x2="100%" y2="0%">
      <stop offset="0%" stop-color="#3572A5" />
      <stop offset="50%" stop-color="#3178c6" />
      <stop offset="100%" stop-color="#41b883" />
    </linearGradient>

    <linearGradient id="thread-11" x1="0%" y1="0%" x2="100%" y2="0%">
      <stop offset="0%" stop-color="#3178c6" />
      <stop offset="50%" stop-color="#f1e05a" />
      <stop offset="100%" stop-color="#89e051" />
    </linearGradient>

    <linearGradient id="thread-12" x1="0%" y1="0%" x2="100%" y2="0%">
      <stop offset="0%" stop-color="#3178c6" />
      <stop offset="50%" stop-color="#3572A5" />
      <stop offset="100%" stop-color="#f1e05a" />
    </linearGradient>

    <linearGradient id="thread-13" x1="0%" y1="0%" x2="100%" y2="0%">
      <stop offset="0%" stop-color="#3178c6" />
      <stop offset="50%" stop-color="#3572A5" />
      <stop offset="100%" stop-color="#f1e05a" />
    </linearGradient>

    <linearGradient id="thread-14" x1="0%" y1="0%" x2="100%" y2="0%">
      <stop offset="0%" stop-color="#3178c6" />
      <stop offset="50%" stop-color="#f1e05a" />
      <stop offset="100%" stop-color="#3572A5" />
    </linearGradient>

    <linearGradient id="thread-15" x1="0%" y1="0%" x2="100%" y2="0%">
      <stop offset="0%" stop-color="#3572A5" />
      <stop offset="50%" stop-color="#3178c6" />
      <stop offset="100%" stop-color="#89e051" />
    </linearGradient>

    <linearGradient id="thread-16" x1="0%" y1="0%" x2="100%" y2="0%">
      <stop offset="0%" stop-color="#3178c6" />
      <stop offset="50%" stop-color="#89e051" />
      <stop offset="100%" stop-color="#3572A5" />
    </linearGradient>

    <linearGradient id="thread-17" x1="0%" y1="0%" x2="100%" y2="0%">
      <stop offset="0%" stop-color="#3572A5" />
      <stop offset="50%" stop-color="#3178c6" />
      <stop offset="100%" stop-color="#89e051" />
    </linearGradient>

    <linearGradient id="thread-18" x1="0%" y1="0%" x2="100%" y2="0%">
      <stop offset="0%" stop-color="#3178c6" />
      <stop offset="50%" stop-color="#3572A5" />
      <stop offset="100%" stop-color="#8b8b8b" />
    </linearGradient>

    <linearGradient id="thread-19" x1="0%" y1="0%" x2="100%" y2="0%">
      <stop offset="0%" stop-color="#3178c6" />
      <stop offset="50%" stop-color="#89e051" />
      <stop offset="100%" stop-color="#3572A5" />
    </linearGradient>

    <linearGradient id="thread-20" x1="0%" y1="0%" x2="100%" y2="0%">
      <stop offset="0%" stop-color="#3572A5" />
      <stop offset="50%" stop-color="#3178c6" />
      <stop offset="100%" stop-color="#89e051" />
    </linearGradient>

    <linearGradient id="thread-21" x1="0%" y1="0%" x2="100%" y2="0%">
      <stop offset="0%" stop-color="#3572A5" />
      <stop offset="50%" stop-color="#3178c6" />
      <stop offset="100%" stop-color="#8b8b8b" />
    </linearGradient>

    <linearGradient id="thread-22" x1="0%" y1="0%" x2="100%" y2="0%">
      <stop offset="0%" stop-color="#3572A5" />
      <stop offset="50%" stop-color="#3178c6" />
      <stop offset="100%" stop-color="#8b8b8b" />
    </linearGradient>

    <linearGradient id="thread-23" x1="0%" y1="0%" x2="100%" y2="0%">
      <stop offset="0%" stop-color="#3178c6" />
      <stop offset="50%" stop-color="#3572A5" />
      <stop offset="100%" stop-color="#dea584" />
    </linearGradient>

    <linearGradient id="thread-24" x1="0%" y1="0%" x2="100%" y2="0%">
      <stop offset="0%" stop-color="#3572A5" />
      <stop offset="50%" stop-color="#3178c6" />
      <stop offset="100%" stop-color="#00ADD8" />
    </linearGradient>

    <linearGradient id="thread-25" x1="0%" y1="0%" x2="100%" y2="0%">
      <stop offset="0%" stop-color="#3572A5" />
      <stop offset="50%" stop-color="#00ADD8" />
      <stop offset="100%" stop-color="#3178c6" />
    </linearGradient>

    <linearGradient id="thread-26" x1="0%" y1="0%" x2="100%" y2="0%">
      <stop offset="0%" stop-color="#3572A5" />
      <stop offset="50%" stop-color="#3178c6" />
      <stop offset="100%" stop-color="#00ADD8" />
    </linearGradient>

    <linearGradient id="thread-27" x1="0%" y1="0%" x2="100%" y2="0%">
      <stop offset="0%" stop-color="#3572A5" />
      <stop offset="50%" stop-color="#00ADD8" />
      <stop offset="100%" stop-color="#DA5B0B" />
    </linearGradient>

    <linearGradient id="thread-28" x1="0%" y1="0%" x2="100%" y2="0%">
      <stop offset="0%" stop-color="#3572A5" />
      <stop offset="50%" stop-color="#3178c6" />
      <stop offset="100%" stop-color="#dea584" />
    </linearGradient>

    <linearGradient id="thread-29" x1="0%" y1="0%" x2="100%" y2="0%">
      <stop offset="0%" stop-color="#dea584" />
      <stop offset="50%" stop-color="#3572A5" />
      <stop offset="100%" stop-color="#3178c6" />
    </linearGradient>

    <linearGradient id="thread-30" x1="0%" y1="0%" x2="100%" y2="0%">
      <stop offset="0%" stop-color="#3572A5" />
      <stop offset="50%" stop-color="#3178c6" />
      <stop offset="100%" stop-color="#dea584" />
    </linearGradient>

    <linearGradient id="thread-31" x1="0%" y1="0%" x2="100%" y2="0%">
      <stop offset="0%" stop-color="#3572A5" />
      <stop offset="50%" stop-color="#dea584" />
      <stop offset="100%" stop-color="#3178c6" />
    </linearGradient>

    <linearGradient id="thread-32" x1="0%" y1="0%" x2="100%" y2="0%">
      <stop offset="0%" stop-color="#3572A5" />
      <stop offset="50%" stop-color="#3178c6" />
      <stop offset="100%" stop-color="#89e051" />
    </linearGradient>

    <linearGradient id="thread-33" x1="0%" y1="0%" x2="100%" y2="0%">
      <stop offset="0%" stop-color="#3572A5" />
      <stop offset="50%" stop-color="#f1e05a" />
      <stop offset="100%" stop-color="#89e051" />
    </linearGradient>

    <linearGradient id="thread-34" x1="0%" y1="0%" x2="100%" y2="0%">
      <stop offset="0%" stop-color="#3572A5" />
      <stop offset="50%" stop-color="#89e051" />
      <stop offset="100%" stop-color="#dea584" />
    </linearGradient>

    <linearGradient id="thread-35" x1="0%" y1="0%" x2="100%" y2="0%">
      <stop offset="0%" stop-color="#3572A5" />
      <stop offset="50%" stop-color="#89e051" />
      <stop offset="100%" stop-color="#00ADD8" />
    </linearGradient>

    <linearGradient id="thread-36" x1="0%" y1="0%" x2="100%" y2="0%">
      <stop offset="0%" stop-color="#3572A5" />
      <stop offset="50%" stop-color="#3178c6" />
      <stop offset="100%" stop-color="#3572A5" />
    </linearGradient>

    <linearGradient id="thread-37" x1="0%" y1="0%" x2="100%" y2="0%">
      <stop offset="0%" stop-color="#3572A5" />
      <stop offset="50%" stop-color="#3178c6" />
      <stop offset="100%" stop-color="#3572A5" />
    </linearGradient>

    <linearGradient id="thread-38" x1="0%" y1="0%" x2="100%" y2="0%">
      <stop offset="0%" stop-color="#3572A5" />
      <stop offset="50%" stop-color="#3178c6" />
      <stop offset="100%" stop-color="#3572A5" />
    </linearGradient>

    <!-- Background pattern -->
    <pattern id="loom" patternUnits="userSpaceOnUse" width="20" height="20">
      <rect width="20" height="20" fill="#fafafa"/>
      <circle cx="10" cy="10" r="0.5" fill="#eee"/>
    </pattern>
  </defs>

  <!-- Background -->
  <rect width="100%" height="100%" fill="url(#loom)"/>

  <!-- Threads -->
  <g id="tapestry">
    
    <path
      d="M 20,20 L 35.2,23.583889415576394 L 50.400000000000006,16.816718962183568 L 65.6,19.243563385193667 L 80.80000000000001,23.85516291055434 L 96,17.33220512554116 L 111.2,18.514424945515948 L 126.4,23.987311844106078 L 141.60000000000002,17.943966284403622 L 156.79999999999998,17.8388977235004 L 172,23.97556724463432 L 187.2,18.629925290567634 L 202.4,17.241360047812975 L 217.6,23.820352949545825 L 232.8,19.365327354649892 L 248,16.743375771653795 L 263.20000000000005,23.52727030986837 L 278.40000000000003,20.123633393345468 L 293.59999999999997,16.36291607954222 L 308.8,23.106896049505135 L 324,20.87747776802692 L 339.2,16.113710945809665 L 354.4,22.574400573952556 L 369.6,21.59965585195215 L 384.8,16.00475364927214 L 400,21.949000502901324 L 415.2,22.264105786899208 L 430.40000000000003,16.039976225085258 L 445.6,21.25326518364482 L 460.79999999999995,22.846848999735364 L 476,16.21810756602841 L 491.2,20.51230221173891 L 506.40000000000003,23.32685553769571 L 521.6,16.532719294038174 L 536.8000000000001,19.752851351725727 L 552,23.686802994276377 L 567.1999999999999,16.972457746586098 L 582.4,19.00231955637873 L 597.6,23.91370163773441 L 612.8000000000001,17.521453706009396 L 628,18.28779190855617 L 643.1999999999999,23.999363182648008 L 658.4,18.159895085542388 L 673.6,17.635054178648726 L 688.8,23.940696287576156 L 704,18.86474190503779 L 719.2,17.067662271428 L 734.4,23.73981811494142 L 749.6,19.610557754437213 L 764.8,16.606092143962396 L 780,23.40397792717876"
      stroke="url(#thread-0)"
      stroke-width="8"
      stroke-linecap="round"
      fill="none"
      opacity="1"
      class="thread"
      style="animation-delay: 0s"
    >
      <title>2026-01-30: 8081 stars, TypeScript, Rust, Roff, Python, JavaScript, Shell, Unknown</title>
    </path>

    <path
      d="M 20,33.917702154416816 L 35.2,33.40078442033879 L 50.400000000000006,28.24974145436288 L 65.6,35.50543824087109 L 80.80000000000001,31.164318582953392 L 96,29.58783014475417 L 111.2,35.99136848834528 L 126.4,29.190518524155582 L 141.60000000000002,31.68409588705701 L 156.79999999999998,35.2227585602986 L 172,28.09977584132301 L 187.2,33.87965449155897 L 202.4,33.44119277470482 L 217.6,28.234925459560795 L 232.8,35.48441270199948 L 248,31.206640941389036 L 263.20000000000005,29.553488057232606 L 278.40000000000003,35.99397367983221 L 293.59999999999997,29.221452406788245 L 308.8,31.64102188145375 L 324,35.24817563582739 L 339.2,28.109598317618758 L 354.4,33.8413873004435 L 369.6,33.48143280955243 L 384.8,28.220549194643855 L 400,35.4629802122479 L 415.2,31.249055957668183 L 430.40000000000003,29.51943170227863 L 445.6,35.996112407888276 L 460.79999999999995,29.252710801034414 L 476,31.597989801556103 L 491.2,35.27321335103167 L 506.40000000000003,28.119875160983895 L 521.6,33.802905050365105 L 536.8000000000001,33.52149982517497 L 552,28.20661433864215 L 567.1999999999999,35.44114327475575 L 582.4,31.29155867806425 L 597.6,29.485665057395696 L 612.8000000000001,35.99778442272758 L 628,29.2842900561695 L 643.1999999999999,31.555004673158724 L 658.4,35.297868781711365 L 673.6,28.130605171167275 L 688.8,33.76421223573546 L 704,33.56138914207313 L 719.2,28.19312251903276 L 734.4,35.41890443989852 L 749.6,31.334144138607396 L 764.8,29.45219206625156 L 780,35.99898952907244"
      stroke="url(#thread-1)"
      stroke-width="8"
      stroke-linecap="round"
      fill="none"
      opacity="0.9846153846153846"
      class="thread"
      style="animation-delay: 0.1s"
    >
      <title>2026-01-29: 9087 stars, TypeScript, JavaScript, Python, Shell, Unknown</title>
    </path>

    <path
      d="M 20,47.36588393923159 L 35.2,41.31139177987633 L 50.400000000000006,45.82658950536578 L 65.6,43.160940101800435 L 80.80000000000001,43.79387576258145 L 96,45.23714490778661 L 111.2,41.81684266313796 L 126.4,46.979157940723084 L 141.60000000000002,40.42954906523573 L 156.79999999999998,47.91640665855071 L 172,40.00674662836538 L 187.2,47.795710686983526 L 202.4,40.662647596491304 L 217.6,46.64967380629345 L 232.8,42.22007247665078 L 248,44.787876644204516 L 263.20000000000005,44.25831179591448 L 278.40000000000003,42.71324920571553 L 293.59999999999997,46.22677296992375 L 308.8,40.986213651336804 L 324,47.59371268729997 L 339.2,40.07329663482179 L 354.4,47.989877512227544 L 369.6,40.22110577220322 L 384.8,47.308250858024365 L 400,41.389713163860335 L 415.2,45.73296153506047 L 430.40000000000003,43.26344117675371 L 445.6,43.68954476446812 L 460.79999999999995,45.33613690761355 L 476,41.72999172314614 L 491.2,47.04790001095165 L 506.40000000000003,40.383639355491866 L 521.6,47.93632940267107 L 536.8000000000001,40.014179806268636 L 552,47.761432344831896 L 567.1999999999999,40.72141572676488 L 582.4,46.57045403683844 L 597.6,42.31430043785075 L 612.8000000000001,44.68511520025444 L 628,44.36254565032809 L 643.1999999999999,42.61470518722597 L 658.4,46.312855873191936 L 673.6,40.91850689892249 L 688.8,47.638390938185765 L 704,40.054716873068976 L 719.2,47.981082109123875 L 734.4,40.256671979474035 L 749.6,47.248357716104444 L 764.8,41.46981778828789 L 780,45.63814967681862"
      stroke="url(#thread-2)"
      stroke-width="8"
      stroke-linecap="round"
      fill="none"
      opacity="0.9692307692307692"
      class="thread"
      style="animation-delay: 0.2s"
    >
      <title>2026-01-28: 11454 stars, TypeScript, JavaScript, Python, Shell</title>
    </path>

    <path
      d="M 20,59.98997994641622 L 35.2,52.006319562941044 L 50.400000000000006,59.99653233102393 L 65.6,52.00146497767319 L 80.80000000000001,59.999688085426 L 96,52.000008724686964 L 111.2,59.99944452756464 L 126.4,52.00195204164355 L 141.60000000000002,59.99580186443829 L 156.79999999999998,52.00729327692886 L 172,59.98876319192572 L 187.2,52.016027891057256 L 202.4,59.97833449215486 L 217.6,52.02814846052964 L 232.8,59.9645246284186 L 248,52.04364468414263 L 263.20000000000005,59.947345337641984 L 278.40000000000003,52.06250339174349 L 293.59999999999997,59.926811220406975 L 308.8,52.084708555423354 L 324,59.902939728543586 L 339.2,52.11024130313935 L 354.4,59.875751150297646 L 369.6,52.139079934753696 L 384.8,59.845268593087866 L 400,52.171199940476626 L 415.2,59.81151796386709 L 430.40000000000003,52.20657402169711 L 445.6,59.77452794710404 L 460.79999999999995,52.24517211418371 L 476,59.73432998040461 L 491.2,52.28696141363616 L 506.40000000000003,59.69095822779311 L 521.6,52.33190640356541 L 536.8000000000001,59.64444955067658 L 552,52.37996888547884 L 567.1999999999999,59.5948434765165 L 582.4,52.43110801134526 L 597.6,59.54218216523449 L 612.8000000000001,52.48528031831096 L 628,59.4865103733808 L 643.1999999999999,52.54243976563891 L 658.4,59.42787541609635 L 673.6,52.60253777383846 L 688.8,59.36632712689932 L 704,52.66552326595265 L 719.2,59.301917815332345 L 734.4,52.731342710968065 L 749.6,59.23470222250474 L 764.8,52.79994016931115 L 780,59.164737474568355"
      stroke="url(#thread-3)"
      stroke-width="8"
      stroke-linecap="round"
      fill="none"
      opacity="0.9538461538461539"
      class="thread"
      style="animation-delay: 0.30000000000000004s"
    >
      <title>2026-01-27: 12558 stars, TypeScript, JavaScript, Python, Shell</title>
    </path>

    <path
      d="M 20,71.63718970730272 L 35.2,67.03960565822241 L 50.400000000000006,64.00621031194275 L 65.6,67.47747710252892 L 80.80000000000001,71.79977391029131 L 96,69.93340095488809 L 111.2,64.91810906060144 L 126.4,64.92227509205432 L 141.60000000000002,69.93911385794495 L 156.79999999999998,71.79772911282691 L 172,67.4710049543321 L 187.2,64.00585196330138 L 202.4,67.04594474949351 L 217.6,71.63990179724277 L 232.8,70.30557186652769 L 248,65.21617038838694 L 263.20000000000005,64.66077607749737 L 278.40000000000003,69.54395643171124 L 293.59999999999997,71.91250388666298 L 308.8,67.90877891875292 L 324,64.05362519760786 L 339.2,66.62590926362591 L 354.4,71.4361669546043 L 369.6,70.64995942549325 L 384.8,65.54777832602088 L 400,64.43951646611993 L 415.2,69.13019351905639 L 430.40000000000003,71.98013093246684 L 445.6,68.34765214514354 L 460.79999999999995,64.14895432228177 L 476,66.22243229327854 L 491.2,71.19102449430154 L 506.40000000000003,70.96241358070796 L 521.6,65.90893682357972 L 536.8000000000001,64.26116255252101 L 552,68.70281118052907 L 567.1999999999999,71.99979530879548 L 582.4,68.78233598047827 L 597.6,64.29069057127101 L 612.8000000000001,65.84037594798943 L 628,70.90742851181462 L 643.1999999999999,71.23916909539274 L 658.4,66.29529373136288 L 673.6,64.12786359509255 L 688.8,68.26695959791726 L 704,71.97126004957964 L 719.2,69.20759225609528 L 734.4,64.47712594828648 L 749.6,65.48434420750728 L 764.8,70.58879648777501 L 780,71.476890920148"
      stroke="url(#thread-4)"
      stroke-width="8"
      stroke-linecap="round"
      fill="none"
      opacity="0.9384615384615385"
      class="thread"
      style="animation-delay: 0.4s"
    >
      <title>2026-01-26: 5507 stars, TypeScript, JavaScript, Python, Rust, Shell</title>
    </path>

    <path
      d="M 20,82.39388857641583 L 35.2,78.46306048698213 L 50.400000000000006,76.03938523836395 L 65.6,77.49956601583925 L 80.80000000000001,81.4117210906633 L 96,83.93951495009082 L 111.2,82.6041436698532 L 126.4,78.71509835321558 L 141.60000000000002,76.08605263364548 L 156.79999999999998,77.2950999828265 L 172,81.15662500629162 L 187.2,83.88394100641803 L 202.4,82.80258875915926 L 217.6,78.97296335330978 L 232.8,76.15047009974742 L 248,77.10290089220538 L 263.20000000000005,80.89628353309564 L 278.40000000000003,83.81075307321669 L 293.59999999999997,82.988323879654 L 308.8,79.23548604843859 L 324,76.23234549820229 L 339.2,76.92384038254197 L 354.4,80.63187734090921 L 369.6,83.72028306373856 L 384.8,83.16050670740353 L 400,79.50147587674859 L 415.2,76.33130751739422 L 430.40000000000003,76.75873050786518 L 445.6,80.36460553339867 L 460.79999999999995,83.61294126686212 L 476,83.31835637922791 L 491.2,79.76972655265439 L 506.40000000000003,76.44690735648744 L 521.6,76.60832005493532 L 536.8000000000001,80.09568021002968 L 552,83.48921448639902 L 567.1999999999999,83.4611570339794 L 582.4,80.03902153744222 L 597.6,76.57862076077471 L 612.8000000000001,76.47329114743516 L 628,79.82632096909735 L 643.1999999999999,83.34966383339906 L 658.4,83.58826105903124 L 673.6,80.30813955637228 L 688.8,76.7258503992152 L 704,76.35425615248326 L 719.2,79.55774937674842 L 734.4,83.19492218146578 L 749.6,83.69909202725367 L 764.8,80.57586013725927 L 780,76.88792857337951"
      stroke="url(#thread-5)"
      stroke-width="8"
      stroke-linecap="round"
      fill="none"
      opacity="0.9230769230769231"
      class="thread"
      style="animation-delay: 0.5s"
    >
      <title>2026-01-25: 4122 stars, Shell, Python, TypeScript</title>
    </path>

    <path
      d="M 20,92.56448003223947 L 35.2,88.11523420720762 L 50.400000000000006,90.66741435922351 L 65.6,95.62128362703726 L 80.80000000000001,94.04859489651885 L 96,88.78376967953683 L 111.2,89.31548400057243 L 126.4,94.68544110295271 L 141.60000000000002,95.21548813072074 L 156.79999999999998,89.9503332523439 L 172,88.37924663361756 L 187.2,93.33376233637664 L 202.4,95.8844681913346 L 217.6,91.43428442965585 L 232.8,88.0036771112151 L 248,91.77555261377783 L 263.20000000000005,95.95194459022734 L 278.40000000000003,93.00583575460543 L 293.59999999999997,88.24693177081686 L 308.8,90.25209820851629 L 324,95.40746871538452 L 339.2,94.42163502813274 L 354.4,89.07134301900356 L 369.6,88.99930358887269 L 384.8,94.33535178170227 L 400,95.46244800623262 L 415.2,90.34925209783906 L 430.40000000000003,88.2111619899522 L 445.6,92.90160937474819 L 460.79999999999995,95.96710647059142 L 476,91.88277683854126 L 491.2,88.0097158727442 L 506.40000000000003,91.32825420392518 L 521.6,95.85746486838735 L 536.8000000000001,93.43445339755753 L 552,88.4261588450147 L 567.1999999999999,89.8589177909301 L 582.4,95.15050102565841 L 597.6,94.76400715141772 L 612.8000000000001,89.39600538123474 L 628,88.72112451984422 L 643.1999999999999,93.95568715820352 L 658.4,95.66555883634346 L 673.6,90.76907630265727 L 688.8,88.09105985161858 L 704,92.45803827475743 L 719.2,95.99950462164223 L 734.4,92.33275378198717 L 749.6,88.06628828836548 L 764.8,90.88946289998626 L 780,95.7141335387131"
      stroke="url(#thread-6)"
      stroke-width="8"
      stroke-linecap="round"
      fill="none"
      opacity="0.9076923076923077"
      class="thread"
      style="animation-delay: 0.6000000000000001s"
    >
      <title>2026-01-24: 5856 stars, Shell, TypeScript, Python, Rust</title>
    </path>

    <path
      d="M 20,102.59686708924153 L 35.2,100.00038294471857 L 50.400000000000006,102.70105664025304 L 65.6,107.12207203519803 L 80.80000000000001,107.40816447879821 L 96,103.18042848844078 L 111.2,100.03814632977227 L 126.4,102.1430075701686 L 141.60000000000002,106.70729976924117 L 156.79999999999998,107.68600014794572 L 172,103.78290201637525 L 187.2,100.16733198315107 L 202.4,101.62780976980001 L 217.6,106.23005485625043 L 232.8,107.87877904250709 L 248,104.39038521699422 L 263.20000000000005,100.38495886455159 L 278.40000000000003,101.16735175282456 L 293.59999999999997,105.70135002312689 L 308.8,107.98205266809234 L 324,104.98886003289509 L 339.2,100.68600509664012 L 354.4,100.77225887794657 L 369.6,105.13338546683437 L 384.8,107.9934379207569 L 400,105.56451628082547 L 415.2,101.06352384803435 L 430.40000000000003,100.45164816205438 L 445.6,104.5392673271717 L 460.79999999999995,107.91267207862599 L 476,106.1040703303583 L 491.2,101.50880363581228 L 506.40000000000003,100.21291789931426 L 521.6,103.93270525434352 L 536.8000000000001,107.74161886436715 L 552,106.59507163202909 L 567.1999999999999,102.01156934846644 L 582.4,100.06157694087375 L 597.6,103.32769605014865 L 612.8000000000001,107.48422543861616 L 628,107.0261900216052 L 643.1999999999999,102.5602193505724 L 658.4,100.00111757465227 L 673.6,102.73820068296429 L 688.8,107.14643131675973 L 704,107.38747717076048 L 719.2,103.142093197832 L 734.4,100.03293493859827 L 749.6,102.17782212960911 L 764.8,106.7360313108776 L 780,107.67059615101601"
      stroke="url(#thread-7)"
      stroke-width="8"
      stroke-linecap="round"
      fill="none"
      opacity="0.8923076923076922"
      class="thread"
      style="animation-delay: 0.7000000000000001s"
    >
      <title>2026-01-23: 4879 stars, Unknown, Rust, Python, Shell, TypeScript, JavaScript</title>
    </path>

    <path
      d="M 20,112.9727900187683 L 35.2,113.42597978011439 L 50.400000000000006,119.09578166854018 L 65.6,118.49154885042608 L 80.80000000000001,112.83784367466212 L 96,113.5926907344406 L 111.2,119.22628684651151 L 126.4,118.32136124887434 L 141.60000000000002,112.71187228042227 L 156.79999999999998,113.76623420359155 L 172,119.3476350569826 L 187.2,118.14458507336018 L 202.4,112.59523337275203 L 217.6,113.946117630029 L 232.8,119.45948188494253 L 248,117.96172205660946 L 263.20000000000005,112.48825800054371 L 278.40000000000003,114.13183046191173 L 293.59999999999997,119.56150988255813 L 308.8,117.77329120724764 L 324,112.3912497852833 L 339.2,114.32284560216286 L 354.4,119.65342947016622 L 369.6,117.57982733672996 L 384.8,112.30448405930076 L 400,114.51862090449649 L 415.2,119.73497975816944 L 430.40000000000003,117.38187954141993 L 445.6,112.22820708431135 L 460.79999999999995,114.71860071215724 L 476,119.80592928750283 L 491.2,117.18000964412332 L 506.40000000000003,112.1626353524667 L 521.6,114.92221743500622 L 536.8000000000001,119.86607668656949 L 552,116.97479059950184 L 567.1999999999999,112.10795497189851 L 582.4,115.1288931604763 L 597.6,119.915251242781 L 612.8000000000001,116.76680486789192 L 628,112.06432113849965 L 643.1999999999999,115.33804129382517 L 658.4,119.95331338708031 L 673.6,116.55664276214411 L 688.8,112.03185769544133 L 704,115.54906822303057 L 719.2,119.98015509007175 L 734.4,116.34490077217501 L 749.6,112.01065678167684 L 764.8,115.76137500360164 L 780,119.99570016863403"
      stroke="url(#thread-8)"
      stroke-width="8"
      stroke-linecap="round"
      fill="none"
      opacity="0.8769230769230769"
      class="thread"
      style="animation-delay: 0.8s"
    >
      <title>2026-01-22: 6303 stars, Rust, Unknown, Shell, TypeScript, Python</title>
    </path>

    <path
      d="M 20,124.08987952933961 L 35.2,125.35093225812227 L 50.400000000000006,129.3169833835784 L 65.6,131.93824521402766 L 80.80000000000001,130.53811233974935 L 96,126.54627910950634 L 111.2,124.0388596659824 L 126.4,125.57621343951526 L 141.60000000000002,129.58852799126612 L 156.79999999999998,131.97877542804017 L 172,130.30624221808617 L 187.2,126.27877432539667 L 202.4,124.00887292166942 L 217.6,125.81436459949158 L 232.8,129.8516377303231 L 248,131.99817888304602 L 263.20000000000005,130.06212626238846 L 278.40000000000003,126.02040901665599 L 293.59999999999997,124.00007852195434 L 308.8,126.06412118762489 L 324,130.1049155236461 L 339.2,131.99635254932542 L 354.4,129.8070606953406 L 369.6,125.7725550681047 L 384.8,124.01252316390934 L 400,126.32415703023605 L 415.2,130.34701650043306 L 430.40000000000003,131.97330612446316 L 445.6,129.54239988058112 L 460.79999999999995,125.53652855066323 L 476,124.04614076816999 L 491.2,126.59309137219596 L 506.40000000000003,130.5766551372649 L 521.6,131.92916198185603 L 536.8000000000001,129.26954913121534 L 552,125.3135827331937 L 567.1999999999999,124.10075282980772 L 582.4,126.86949620854828 L 597.6,130.79261208406106 L 612.8000000000001,131.8641545209265 L 628,128.98995724779277 L 643.1999999999999,125.10490142781175 L 658.4,124.17606936616683 L 673.6,127.15190386702263 L 688.8,130.99374063866318 L 704,131.77862892249345 L 719.2,128.70510882537243 L 734.4,124.91159270400449 L 749.6,124.27169045663314 L 764.8,127.43881480117565 L 780,131.17897283566856"
      stroke="url(#thread-9)"
      stroke-width="8"
      stroke-linecap="round"
      fill="none"
      opacity="0.8615384615384615"
      class="thread"
      style="animation-delay: 0.9s"
    >
      <title>2026-01-21: 4215 stars, Unknown, TypeScript, Python, Shell, JavaScript</title>
    </path>

    <path
      d="M 20,136.16430290134744 L 35.2,141.3826929152086 L 50.400000000000006,143.65512118329718 L 65.6,138.1399582489444 L 80.80000000000001,136.58779518526282 L 96,142.3056663731419 L 111.2,143.11109108857664 L 126.4,137.28803363436197 L 141.60000000000002,137.24308430604756 L 156.79999999999998,143.07201201967825 L 172,142.35571932103804 L 187.2,136.62033747597772 L 202.4,138.08565536683003 L 217.6,143.6296707005581 L 232.8,141.44031956080383 L 248,136.18222750168502 L 263.20000000000005,139.05827109220306 L 278.40000000000003,143.94075971960729 L 293.59999999999997,140.4270764598553 L 308.8,136.0034652620811 L 324,140.09486005302574 L 339.2,143.98414627427857 L 354.4,139.38482133358275 L 369.6,136.09619437806262 L 384.8,141.12500501021137 L 400,143.7568830426258 L 415.2,138.38435633326313 L 430.40000000000003,136.45411560414541 L 445.6,142.07872647672525 L 460.79999999999995,143.27440839986204 L 476,137.49364473632664 L 491.2,137.05291474685077 L 506.40000000000003,142.89123654234652 L 521.6,142.56949766345332 L 536.8000000000001,136.77319408611908 L 552,137.85191436893945 L 567.1999999999999,143.50734002584747 L 582.4,141.6900366104402 L 597.6,136.27194581227496 L 612.8000000000001,138.79683707643437 L 628,143.8851839768885 L 643.1999999999999,140.69576851571568 L 658.4,136.02395055673145 L 673.6,139.82349267367738 L 688.8,143.99910081763161 L 704,139.65423569044506 L 719.2,136.0460550561046 L 734.4,140.86213871174888 L 749.6,143.84135198465987 L 764.8,138.63619121877835 L 780,136.3367577144136"
      stroke="url(#thread-10)"
      stroke-width="8"
      stroke-linecap="round"
      fill="none"
      opacity="0.8461538461538463"
      class="thread"
      style="animation-delay: 1s"
    >
      <title>2026-01-20: 6510 stars, Python, Vue, TypeScript, Unknown, Shell, JavaScript</title>
    </path>

    <path
      d="M 20,149.17783869771844 L 35.2,153.4113643379941 L 50.400000000000006,155.99118544479202 L 65.6,153.89450928839318 L 80.80000000000001,149.57802460021284 L 96,148.0993838271565 L 111.2,151.19111972774886 L 126.4,155.2306257662516 L 141.60000000000002,155.4847871337863 L 156.79999999999998,151.65580134632228 L 172,148.2301153012995 L 187.2,149.2216270337052 L 202.4,153.46857596709884 L 217.6,155.99478513885202 L 232.8,153.84027926308025 L 248,149.5295065196433 L 263.20000000000005,148.11342663361518 L 278.40000000000003,151.25126937597025 L 293.59999999999997,155.2664045324665 L 308.8,155.45427281102167 L 324,151.59474775981897 L 339.2,148.21005932503658 L 354.4,149.26606838209125 L 369.6,153.52544243076775 L 384.8,155.9974459221683 L 400,153.78561670938058 L 415.2,149.4815690892941 L 430.40000000000003,148.12838291736068 L 445.6,151.31159500142263 L 460.79999999999995,155.3014155822205 L 476,155.42294661634367 L 491.2,151.53378942141262 L 506.40000000000003,148.19089411408245 L 521.6,149.31115229764413 L 536.8000000000001,153.58195036344256 L 552,155.99916716936602 L 567.1999999999999,153.73053447485842 L 582.4,149.4342235760962 L 597.6,148.14424916315622 L 612.8000000000001,151.37208242552666 L 628,155.33565068672291 L 643.1999999999999,155.39081591247643 L 658.4,151.47294065839168 L 673.6,148.17262417291533 L 688.8,149.35686818410608 L 704,153.63808648383187 L 719.2,155.9999484758934 L 734.4,153.67504550571743 L 749.6,149.38748110785983 L 764.8,148.16102164189297 L 780,151.43271743167486"
      stroke="url(#thread-11)"
      stroke-width="8"
      stroke-linecap="round"
      fill="none"
      opacity="0.8307692307692307"
      class="thread"
      style="animation-delay: 1.1s"
    >
      <title>2026-01-19: 4551 stars, JavaScript, TypeScript, Shell, Python</title>
    </path>

    <path
      d="M 20,162.88233800720428 L 35.2,166.41511857893627 L 50.400000000000006,167.99984310295878 L 65.6,166.3582587349186 L 80.80000000000001,162.81448197322572 L 96,160.22695455757673 L 111.2,160.68279903120063 L 126.4,163.81432720213746 L 141.60000000000002,167.09562069719786 L 156.79999999999998,167.8799591055863 L 172,165.5346881165629 L 187.2,161.95152409284844 L 202.4,160.02067888872227 L 217.6,161.2995893563101 L 232.8,164.7566749791966 L 248,167.60341985847305 L 263.20000000000005,167.5436143476537 L 278.40000000000003,164.62549810174104 L 293.59999999999997,161.2028495440178 L 308.8,160.03640733146267 L 324,162.06703408932717 L 339.2,165.65680828001086 L 354.4,167.91018622998 L 369.6,167.00957331613913 L 384.8,163.68141189571014 L 400,160.61022646341814 L 415.2,160.27326240472524 L 430.40000000000003,162.94231791543123 L 445.6,166.46450916836054 L 460.79999999999995,167.99880548646857 L 476,166.30762986316992 L 491.2,162.75509954282649 L 506.40000000000003,160.20671696311337 L 521.6,160.7180300957058 L 536.8000000000001,163.87660923677586 L 552,167.1347164609085 L 567.1999999999999,167.8643336089071 L 582.4,165.47694502358303 L 597.6,161.89823949406465 L 612.8000000000001,160.0148326137031 L 628,161.3458970622937 L 643.1999999999999,164.81778446017378 L 658.4,167.63003966555672 L 673.6,167.5142727085547 L 688.8,164.56386224257201 L 704,161.15863549497996 L 719.2,160.04527853631947 L 734.4,162.12183495562755 L 749.6,165.71333594337077 L 764.8,167.92284497620489 L 780,166.96815248834656"
      stroke="url(#thread-12)"
      stroke-width="7.412"
      stroke-linecap="round"
      fill="none"
      opacity="0.8153846153846154"
      class="thread"
      style="animation-delay: 1.2000000000000002s"
    >
      <title>2026-01-18: 3706 stars, JavaScript, Shell, Vue, TypeScript, Python, HTML</title>
    </path>

    <path
      d="M 20,176.86047995235126 L 35.2,179.9091410564497 L 50.400000000000006,175.16506433415685 L 65.6,172.08540305552881 L 80.80000000000001,176.8093557278288 L 96,179.91988568035973 L 111.2,175.21625876943602 L 126.4,172.0749929617121 L 141.60000000000002,176.7580932677802 L 156.79999999999998,179.92996079957518 L 172,175.26758706536214 L 187.2,172.0652532473025 L 202.4,176.7067013276796 L 217.6,179.93936469329603 L 232.8,175.3190404552165 L 248,172.05618557581394 L 263.20000000000005,176.655188685116 L 278.40000000000003,179.94809575536542 L 293.59999999999997,175.37061015091479 L 308.8,172.0477914959775 L 324,176.60356413829382 L 339.2,179.9561524945442 L 354.4,175.4222873445079 L 369.6,172.04007244147675 L 384.8,176.55183650453063 L 400,179.96353353476556 L 415.2,175.4740632096865 L 430.40000000000003,172.03302973070302 L 445.6,176.5000146187508 L 460.79999999999995,179.97023761537 L 476,175.52592890328842 L 491.2,172.02666456653014 L 506.40000000000003,176.44810733197667 L 521.6,179.97626359132067 L 536.8000000000001,175.57787556680896 L 552,172.02097803610903 L 567.1999999999999,176.39612350981682 L 582.4,179.98161043339903 L 597.6,175.62989432791423 L 612.8000000000001,172.015971110682 L 628,176.34407203095188 L 643.1999999999999,179.98627722838052 L 658.4,175.68197630195604 L 673.6,172.01164464541685 L 688.8,176.29196178561807 L 704,179.99026317919055 L 719.2,175.7341125934898 L 734.4,172.00799937926087 L 749.6,176.23980167408857 L 764.8,179.99356760504068 L 780,175.78629429779357"
      stroke="url(#thread-13)"
      stroke-width="8"
      stroke-linecap="round"
      fill="none"
      opacity="0.8"
      class="thread"
      style="animation-delay: 1.3s"
    >
      <title>2026-01-17: 6237 stars, JavaScript, TypeScript, Shell, Python</title>
    </path>

    <path
      d="M 20,190.62794639487515 L 35.2,191.33180640032498 L 50.400000000000006,186.23878541329893 L 65.6,184.21003351475377 L 80.80000000000001,188.77529760654394 L 96,191.99165140197107 L 111.2,188.26308542702415 L 126.4,184.07678730078388 L 141.60000000000002,186.71633509503516 L 156.79999999999998,191.5892817709181 L 172,190.21737602306902 L 187.2,184.98754356013626 L 202.4,184.99896745447694 L 217.6,190.23177171450973 L 232.8,191.5816027531318 L 248,186.69994179383832 L 263.20000000000005,184.08020178639723 L 278.40000000000003,188.28036696809275 L 293.59999999999997,191.99273251410224 L 308.8,188.75829730458702 L 324,184.20452996605692 L 339.2,186.25435402921522 L 354.4,191.34135994863243 L 369.6,190.6148630266606 L 384.8,185.3388671374924 L 400,184.69287331195508 L 415.2,189.8008212027694 L 430.40000000000003,191.77558998684952 L 445.6,187.18135589368697 L 460.79999999999995,184.01144899403286 L 476,187.78106760575184 L 491.2,191.93159821605832 L 506.40000000000003,189.2416932696957 L 521.6,184.39141426531995 L 536.8000000000001,185.8195739040316 L 552,191.0413725098767 L 567.1999999999999,190.97160480748036 L 582.4,185.73165692175982 L 597.6,184.4383113576454 L 612.8000000000001,189.34181000091613 L 628,191.91074536071812 L 643.1999999999999,187.67552623971093 L 658.4,184.00484645490087 L 673.6,187.28517968373674 L 688.8,191.80920111245658 L 704,189.70574096746802 L 719.2,184.63452813689773 L 734.4,185.41876953440837 L 749.6,190.69399390791912 L 764.8,191.2820425568323 L 780,186.15979239836506"
      stroke="url(#thread-14)"
      stroke-width="8"
      stroke-linecap="round"
      fill="none"
      opacity="0.7846153846153846"
      class="thread"
      style="animation-delay: 1.4000000000000001s"
    >
      <title>2026-01-16: 5731 stars, JavaScript, TypeScript, Shell, Python, C</title>
    </path>

    <path
      d="M 20,203.75199990709896 L 35.2,203.32877889275468 L 50.400000000000006,200.16527426949168 L 65.6,196.86571423784758 L 80.80000000000001,196.14632915215375 L 96,198.59932390866152 L 111.2,202.20536903533758 L 126.4,203.9959326254339 L 141.60000000000002,202.49700507520438 L 156.79999999999998,198.94251832461384 L 172,196.25856091681018 L 187.2,196.65459305584864 L 202.4,199.80459717968137 L 217.6,203.11545883202737 L 232.8,203.86164405295054 L 248,201.42888581060814 L 263.20000000000005,197.81985467902442 L 278.40000000000003,196.0055406736318 L 293.59999999999997,197.47950497424625 L 308.8,201.0283656341435 L 324,203.73066556351213 L 339.2,203.36184481367277 L 354.4,200.22552026275866 L 369.6,196.90354520773275 L 384.8,196.13060227120422 L 400,198.54298570035448 L 415.2,202.15479766829085 L 430.40000000000003,203.99275894767416 L 445.6,202.54384168955843 L 460.79999999999995,199.0008088682992 L 476,196.28032003947405 L 491.2,196.62190843315184 L 506.40000000000003,199.74437511532426 L 521.6,203.0772747232261 L 536.8000000000001,203.87693143459592 L 552,201.48505995938396 L 567.1999999999999,197.87067248173673 L 582.4,196.00916841398393 L 597.6,197.4329562606079 L 612.8000000000001,200.96995982658908 L 628,203.70848289874806 L 643.1999999999999,203.39414628007154 L 658.4,200.2857149746627 L 673.6,196.94208028473503 L 688.8,196.11575525793 L 704,198.48697880453446 L 719.2,202.10373631883655 L 734.4,203.9886773509618 L 749.6,202.59009985624945 L 764.8,199.0593266194313 L 780,196.30292498528377"
      stroke="url(#thread-15)"
      stroke-width="7.494"
      stroke-linecap="round"
      fill="none"
      opacity="0.7692307692307693"
      class="thread"
      style="animation-delay: 1.5s"
    >
      <title>2026-01-15: 3747 stars, TypeScript, Shell, Python, JavaScript, C</title>
    </path>

    <path
      d="M 20,215.95743298649353 L 35.2,213.6263447390355 L 50.400000000000006,209.78337400741347 L 65.6,208.00102297818103 L 80.80000000000001,209.93620069223823 L 96,213.7899273764758 L 111.2,215.9797018964113 L 126.4,214.4698662138096 L 141.60000000000002,210.66399367182612 L 156.79999999999998,208.1000992405206 L 172,209.16163028434 L 187.2,212.86176638752266 L 202.4,215.7607872809562 L 217.6,215.1637053615775 L 232.8,211.62557988210995 L 248,208.43552280681868 L 263.20000000000005,208.55907477407814 L 278.40000000000003,211.88137941260365 L 293.59999999999997,215.31395611340554 L 308.8,215.66581316056417 L 324,212.60985723016083 L 339.2,208.9869658635057 L 354.4,208.1650510830665 L 369.6,210.90818125036324 L 384.8,214.66628788841524 L 400,215.94576016348205 L 415.2,213.55717514743702 L 430.40000000000003,209.72100907820047 L 445.6,208.00343839254836 L 460.79999999999995,210.0011510328483 L 476,213.857033512169 L 491.2,215.98658062595163 L 506.40000000000003,214.41012293311604 L 521.6,210.59316692537763 L 536.8000000000001,208.08403098346704 L 552,209.2152578886956 L 567.1999999999999,212.93523656342404 L 582.4,215.78580068854777 L 597.6,215.1170090386187 L 612.8000000000001,211.55058366113 L 628,208.40194466959392 L 643.1999999999999,208.59812962622019 L 658.4,211.95676108515707 L 673.6,215.3555883011289 L 688.8,215.63499375197662 L 704,212.53523656174852 L 719.2,208.93791279589288 L 734.4,208.18716632558514 L 749.6,210.98090603278803 L 764.8,214.72201580352288 L 780,215.93268543067268"
      stroke="url(#thread-16)"
      stroke-width="8"
      stroke-linecap="round"
      fill="none"
      opacity="0.7538461538461538"
      class="thread"
      style="animation-delay: 1.6s"
    >
      <title>2026-01-14: 4003 stars, TypeScript, Shell, Python, C, HTML, Jupyter Notebook</title>
    </path>

    <path
      d="M 20,227.19394845049396 L 35.2,222.65032252371216 L 50.400000000000006,220.0035831094717 L 65.6,222.9735554143788 L 80.80000000000001,227.38613080375842 L 96,227.03971305277966 L 111.2,222.42117044744506 L 126.4,220.02157313567807 L 141.60000000000002,223.21340369660598 L 156.79999999999998,227.5107457185585 L 172,226.8739562020548 L 187.2,222.19800262369967 L 202.4,220.05464263069524 L 217.6,223.4562334222097 L 232.8,227.62205382079895 L 248,226.6973061680718 L 263.20000000000005,221.98166492758 L 278.40000000000003,220.10266625090478 L 293.59999999999997,223.70112419139414 L 308.8,227.71963321833167 L 324,226.51043250911795 L 339.2,221.7729773458931 L 354.4,220.1654619719268 L 369.6,223.94714779237063 L 384.8,227.8031140550472 L 400,226.31404353418273 L 415.2,221.57273086914506 L 430.40000000000003,220.24279177854845 L 445.6,224.1933717195674 L 460.79999999999995,227.87217991274392 L 476,226.10888361824735 L 491.2,221.38168449344258 L 506.40000000000003,220.33436256687548 L 521.6,224.43886270811444 L 536.8000000000001,227.92656901045103 L 552,225.89573038087323 L 567.1999999999999,221.20056234366268 L 582.4,220.43982725528656 L 597.6,224.68269027120587 L 612.8000000000001,227.96607519665923 L 628,225.67539173878342 L 643.1999999999999,221.03005092879542 L 658.4,220.5587860999799 L 673.6,224.92393022693315 L 688.8,227.99054873069895 L 704,225.44870284360806 L 719.2,220.87079653986223 L 734.4,220.69078821012624 L 749.6,225.16166820122015 L 764.8,227.99989685030357 L 780,225.2165229164013"
      stroke="url(#thread-17)"
      stroke-width="8"
      stroke-linecap="round"
      fill="none"
      opacity="0.7384615384615385"
      class="thread"
      style="animation-delay: 1.7000000000000002s"
    >
      <title>2026-01-13: 5049 stars, TypeScript, Shell, C, Rust, Python</title>
    </path>

    <path
      d="M 20,237.64847394096702 L 35.2,234.09516900344929 L 50.400000000000006,232.04693689971205 L 65.6,233.1221566367088 L 80.80000000000001,236.47125992232924 L 96,239.44800444854707 L 111.2,239.70036143820144 L 126.4,237.0289349080103 L 141.60000000000002,233.5445113294831 L 156.79999999999998,232.0002542530461 L 172,233.6163345906213 L 187.2,237.11583138822607 L 202.4,239.73367122385378 L 217.6,239.40140832623845 L 232.8,236.3815750994514 L 248,233.0602461928527 L 263.20000000000005,232.06171841724785 L 278.40000000000003,234.17496309427094 L 293.59999999999997,237.73023253487335 L 308.8,239.91838542336347 L 324,239.01048650270883 L 339.2,235.72389810257033 L 354.4,232.65546735837566 L 369.6,232.22966749834663 L 384.8,234.78293771478832 L 400,238.29785092517955 L 415.2,239.99715266671728 L 430.40000000000003,238.53816587659875 L 445.6,235.07368646513223 L 460.79999999999995,232.34111940673912 L 476,232.49956041831945 L 491.2,235.42381977820335 L 506.40000000000003,238.8033390539318 L 521.6,239.96784321199948 L 536.8000000000001,237.99721725201744 L 552,234.448520883368 L 567.1999999999999,232.12570181031535 L 582.4,232.86409969867208 L 597.6,236.08028084523872 L 612.8000000000001,239.23302932010878 L 628,239.83124954059676 L 643.1999999999999,237.40226702581433 L 658.4,233.86530484770165 L 673.6,232.01503912084632 L 688.8,233.31342877273744 L 704,236.73457124495283 L 719.2,239.57530357723624 L 734.4,239.5910649297526 L 749.6,236.76940171289792 L 764.8,233.33980759905356 L 780,232.01212348275956"
      stroke="url(#thread-18)"
      stroke-width="7.33"
      stroke-linecap="round"
      fill="none"
      opacity="0.7230769230769231"
      class="thread"
      style="animation-delay: 1.8s"
    >
      <title>2026-01-12: 3665 stars, TypeScript, Unknown, Python, Shell, C</title>
    </path>

    <path
      d="M 20,247.69939551815276 L 35.2,244.736212065539 L 50.400000000000006,244.13724340935278 L 65.6,246.3363690135751 L 80.80000000000001,249.74059160108249 L 96,251.88396866172008 L 111.2,251.21388591329816 L 126.4,248.21573627363557 L 141.60000000000002,245.0613121147648 L 156.79999999999998,244.03560756631893 L 172,245.8816200040142 L 187.2,249.26213941076986 L 202.4,251.72839332907577 L 217.6,251.49388272085363 L 232.8,248.72848181231276 L 248,245.43538501354163 L 263.20000000000005,244.00003780508695 L 278.40000000000003,245.46217352023584 L 293.59999999999997,248.76265383212547 L 308.8,251.51068480886522 L 324,251.71565442948068 L 339.2,249.22908729679287 L 354.4,245.85219688589893 L 369.6,244.03112689107914 L 384.8,245.08501958307485 L 400,248.2504587270397 L 415.2,251.23447118512541 L 430.40000000000003,251.87550524263838 L 445.6,249.709210202101 L 460.79999999999995,246.3048016164569 L 476,244.12835672874053 L 491.2,244.75644341360388 L 506.40000000000003,247.73408976000024 L 521.6,250.9043555217977 L 536.8000000000001,251.9707712674163 L 552,250.1608493427674 L 567.1999999999999,246.78565660653152 L 582.4,244.29010699553334 L 597.6,244.48192069074562 L 612.8000000000001,247.2221521523586 L 628,250.5258391532687 L 643.1999999999999,251.99986490796184 L 658.4,250.57647821153742 L 673.6,247.28674847055612 L 688.8,244.51368214440063 L 704,244.2660262997992 L 719.2,246.7231772774412 L 734.4,250.10523000535176 L 749.6,251.96230132255747 L 764.8,250.9491704076314 L 780,247.79972657810424"
      stroke="url(#thread-19)"
      stroke-width="6.996"
      stroke-linecap="round"
      fill="none"
      opacity="0.7076923076923076"
      class="thread"
      style="animation-delay: 1.9000000000000001s"
    >
      <title>2026-01-11: 3498 stars, TypeScript, Unknown, Shell, Python</title>
    </path>

    <path
      d="M 20,257.8239155564425 L 35.2,256.00124472301536 L 50.400000000000006,257.6592291818747 L 65.6,261.35470175185486 L 80.80000000000001,263.87099492838655 L 96,263.017839851495 L 111.2,259.5378522922966 L 126.4,256.4601341277506 L 141.60000000000002,256.46363800075835 L 156.79999999999998,259.54531401872 L 172,263.0227644858407 L 187.2,263.8690958981062 L 202.4,261.3476320387735 L 217.6,257.6531425094755 L 232.8,256.00143914207445 L 248,257.8302218378673 L 263.20000000000005,261.5476547060233 L 278.40000000000003,263.91795523673494 L 293.59999999999997,262.87793163279076 L 308.8,259.33285651289947 L 324,256.36848622444813 L 339.2,256.56511148744687 L 354.4,259.75158285291775 L 369.6,263.1542851197051 L 384.8,263.8113882100505 L 400,261.15092680210665 L 415.2,257.4886587850303 L 430.40000000000003,256.01234926882347 L 445.6,258.00702926306406 L 460.79999999999995,261.736460114106 L 476,263.9544158516809 L 491.2,262.7303108706929 L 506.40000000000003,259.1296486054014 L 521.6,256.28657038262304 L 536.8000000000001,256.67579010131885 L 552,259.9585174180192 L 567.1999999999999,263.2773526129236 L 582.4,263.7434664166196 L 597.6,260.9511372069364 L 612.8000000000001,257.33090518157746 L 628,256.0339458653108 L 643.1999999999999,258.18917763281814 L 658.4,261.9206119981687 L 673.6,263.98027906274666 L 688.8,262.5753731727693 L 704,258.92877314486714 L 719.2,256.21460612781163 L 734.4,256.7953772357411 L 749.6,260.1655631519232 L 764.8,263.39163715801527 L 780,263.66551254082384"
      stroke="url(#thread-20)"
      stroke-width="7.724"
      stroke-linecap="round"
      fill="none"
      opacity="0.6923076923076923"
      class="thread"
      style="animation-delay: 2s"
    >
      <title>2026-01-10: 3862 stars, TypeScript, Unknown, Shell, Python</title>
    </path>

    <path
      d="M 20,268.48121696011333 L 35.2,268.46572458895105 L 50.400000000000006,271.59872574295 L 65.6,275.0892002834842 L 80.80000000000001,275.8276744960107 L 96,273.156281913935 L 111.2,269.4548207333839 L 126.4,268.0207211784332 L 141.60000000000002,270.1315444569852 L 156.79999999999998,273.90687304286064 L 172,275.9834722626029 L 187.2,274.51141294055304 L 202.4,270.8020725742422 L 217.6,268.1599005253241 L 232.8,268.9386640079705 L 248,272.44460503855663 L 263.20000000000005,275.5544716486906 L 278.40000000000003,275.4978530052177 L 293.59999999999997,272.325187574767 L 308.8,268.86283024016643 L 324,268.1952066281526 L 339.2,270.9170662630832 L 354.4,274.6036525993348 L 369.6,275.9707866016943 L 384.8,273.80056302684073 L 400,270.0263158906286 L 415.2,268.0103164618936 L 430.40000000000003,269.5485088620976 L 445.6,273.2706012352766 L 460.79999999999995,275.86078415119493 L 476,275.01160468350236 L 491.2,271.479550582806 L 506.40000000000003,268.4111365298225 L 521.6,268.53984553160063 L 536.8000000000001,271.75101774656116 L 552,275.1839946942206 L 567.1999999999999,275.7805241348291 L 582.4,273.0091904703117 L 597.6,269.3388239654284 L 612.8000000000001,268.0391542907834 L 628,270.2679863935169 L 643.1999999999999,274.03977511147485 L 658.4,275.99443924678536 L 673.6,274.39067495123925 L 688.8,270.6571885120224 L 704,268.1199397124056 L 719.2,269.0392253567473 L 734.4,272.5961039188905 L 749.6,275.6219459570881 L 764.8,275.42119355425103 L 780,272.17268609525496"
      stroke="url(#thread-21)"
      stroke-width="7.822"
      stroke-linecap="round"
      fill="none"
      opacity="0.676923076923077"
      class="thread"
      style="animation-delay: 2.1s"
    >
      <title>2026-01-09: 3911 stars, TypeScript, Unknown, Python, Shell</title>
    </path>

    <path
      d="M 20,280.0000391737972 L 35.2,281.6795517242915 L 50.400000000000006,285.29101715549984 L 65.6,287.82761083079384 L 80.80000000000001,287.17742208640794 L 96,283.88178340144714 L 111.2,280.6845691892545 L 126.4,280.247707867786 L 141.60000000000002,282.93492031689016 L 156.79999999999998,286.5088940799675 L 172,287.99401923739356 L 187.2,286.15381409028885 L 202.4,282.52039192567247 L 217.6,280.1188580610235 L 232.8,280.94867540896564 L 248,284.3189567678293 L 263.20000000000005,287.42368191805787 L 278.40000000000003,287.67792674796084 L 293.59999999999997,284.8700127483986 L 308.8,281.3377457636299 L 324,280.02201159064214 L 339.2,282.018260816448 L 354.4,285.66446137474725 L 369.6,287.92486894578485 L 384.8,286.91751918492554 L 400,283.48110877537135 L 415.2,280.4767154922892 L 430.40000000000003,280.4057293984574 L 445.6,283.3272519140217 L 460.79999999999995,286.80888930751996 L 476,287.95190883735864 L 491.2,285.8046582316464 L 506.40000000000003,282.15488989872085 L 521.6,280.0413186069952 L 536.8000000000001,281.22365612785 L 552,284.717514917161 L 567.1999999999999,287.61398697491853 L 582.4,287.50153501564535 L 597.6,284.47378400350635 L 612.8000000000001,281.0515711194987 L 628,280.08415359934196 L 643.1999999999999,282.37698144357495 L 658.4,286.0210979195618 L 673.6,287.98249386746005 L 688.8,286.62815527380025 L 704,283.085673895259 L 719.2,280.30443980262294 L 734.4,280.6000457515925 L 749.6,283.7263768984772 L 764.8,287.08052046624226 L 780,287.8698921961011"
      stroke="url(#thread-22)"
      stroke-width="7.54"
      stroke-linecap="round"
      fill="none"
      opacity="0.6615384615384616"
      class="thread"
      style="animation-delay: 2.2s"
    >
      <title>2026-01-08: 3770 stars, TypeScript, Unknown, Python, Rust, JavaScript</title>
    </path>

    <path
      d="M 20,292.49819130124627 L 35.2,295.32074876118185 L 50.400000000000006,298.65281475360484 L 65.6,299.99499589219687 L 80.80000000000001,298.3405178007401 L 96,294.93040980128256 L 111.2,292.3226048398874 L 126.4,292.4732257809099 L 141.60000000000002,295.2692913734719 L 156.79999999999998,298.6134638500581 L 172,299.99726871175585 L 187.2,298.382709494165 L 202.4,294.9808722440333 L 217.6,292.3434859918317 L 232.8,292.44886262301185 L 248,295.2179587885995 L 263.20000000000005,298.5736665747396 L 278.40000000000003,299.99885880983106 L 293.59999999999997,298.4244942279686 L 308.8,295.03150875074226 L 324,292.3649916653805 L 339.2,292.42510598870626 L 354.4,295.16675977401593 L 369.6,298.5334297249042 L 384.8,299.9997659148385 L 400,298.46586486544385 L 415.2,295.0823106728462 L 430.40000000000003,292.3871181874292 L 445.6,292.4019599355549 L 460.79999999999995,295.1157030743589 L 476,298.49276017288497 L 491.2,299.9999898718474 L 506.40000000000003,298.5068143406103 L 521.6,295.13326933352937 L 536.8000000000001,292.40986177883445 L 552,292.379428416834 L 567.1999999999999,295.0647974099595 L 582.4,298.4516648649193 L 597.6,299.99953064260654 L 612.8000000000001,298.5473356594206 L 628,295.1843760292058 L 643.1999999999999,292.43321855505917 L 658.4,292.3575152808594 L 673.6,295.014051475352 L 688.8,298.41015081996204 L 704,299.998388305551 L 719.2,298.58742190095523 L 734.4,295.23562203100545 L 749.6,292.45718452683616 L 764.8,292.3362242703288 L 780,294.9634739377897"
      stroke="url(#thread-23)"
      stroke-width="7.128"
      stroke-linecap="round"
      fill="none"
      opacity="0.6461538461538462"
      class="thread"
      style="animation-delay: 2.3000000000000003s"
    >
      <title>2026-01-07: 3564 stars, TypeScript, Python, Unknown, Shell, Rust</title>
    </path>

    <path
      d="M 20,305.8537083279983 L 35.2,309.90095856290753 L 50.400000000000006,311.99961063601137 L 65.6,309.99841851190723 L 80.80000000000001,305.948725849809 L 96,304.0017139701407 L 111.2,306.15318848579903 L 126.4,310.19775714458734 L 141.60000000000002,311.9894910411663 L 156.79999999999998,309.69175394082583 L 172,305.6598661421775 L 187.2,304.0267578975438 L 202.4,306.4664644992328 L 217.6,310.4781382737821 L 232.8,311.9495695731847 L 248,309.37245180876175 L 263.20000000000005,305.38848745446404 L 278.40000000000003,304.0814823169837 L 293.59999999999997,306.7911961670277 L 308.8,310.7400074770976 L 324,311.8801444491855 L 339.2,309.0428973326596 L 354.4,305.1366170109785 L 369.6,304.1654784319024 L 384.8,307.12495771309665 L 400,310.9814085669663 L 415.2,311.7817342813717 L 430.40000000000003,308.70555231543796 L 445.6,304.9061363076126 L 460.79999999999995,304.2781187834248 L 476,307.46525590731306 L 491.2,311.2005382545524 L 506.40000000000003,311.65507420294864 L 521.6,308.3629367560897 L 536.8000000000001,304.6987670568884 L 552,304.4185619375356 L 567.1999999999999,307.809548690174 L 582.4,311.3957596204887 L 597.6,311.50111037660963 L 612.8000000000001,308.01761002505316 L 628,304.51605832660385 L 643.1999999999999,304.5857587706702 L 658.4,308.155264162224 L 673.6,311.5656143428187 L 688.8,311.3209929266119 L 704,307.67215174547397 L 719.2,304.35937496815103 L 734.4,304.7784603067667 L 749.6,308.49981979638557 L 764.8,311.7088335907983 L 780,311.11606734724006"
      stroke="url(#thread-24)"
      stroke-width="8"
      stroke-linecap="round"
      fill="none"
      opacity="0.6307692307692307"
      class="thread"
      style="animation-delay: 2.4000000000000004s"
    >
      <title>2026-01-06: 4224 stars, TypeScript, Python, Rust, JavaScript, Go</title>
    </path>

    <path
      d="M 20,319.7347124105952 L 35.2,323.0820015239464 L 50.400000000000006,323.87082886992755 L 65.6,321.44636524418297 L 80.80000000000001,317.8212305122941 L 96,316.0047575837487 L 111.2,317.5048550377726 L 126.4,321.0762470516157 L 141.60000000000002,323.75421415557184 L 156.79999999999998,323.3156956546632 L 172,320.12471888961056 L 187.2,316.8302092391072 L 202.4,316.1670378307482 L 217.6,318.6857231118205 L 232.8,322.2954289988268 L 248,323.9996305284923 L 263.20000000000005,322.38361897219835 L 278.40000000000003,318.78889392048126 L 293.59999999999997,316.1995442965838 L 308.8,316.76506677129686 L 324,320.01600420162436 L 339.2,323.25365606487634 L 354.4,323.7903505854795 L 369.6,321.1805615685078 L 384.8,317.5907530370791 L 400,316.0009325637007 L 415.2,317.73085773658835 L 430.40000000000003,321.3444658604917 L 445.6,323.84199260842036 L 460.79999999999995,323.15016622891267 L 476,319.84329251898924 L 491.2,316.66650638225866 L 506.40000000000003,316.2569531318515 L 521.6,318.95461518657174 L 536.8000000000001,322.52008248297165 L 552,323.99355383673293 L 567.1999999999999,322.1518565483541 L 582.4,318.5238386935988 L 597.6,316.1212265485924 L 612.8000000000001,316.9385004103292 L 628,320.29721676978494 L 643.1999999999999,323.40920458734746 L 658.4,323.6911095752615 L 673.6,320.90891396033487 L 688.8,317.3722016460238 L 704,316.0169034448367 L 719.2,317.9680929831754 L 734.4,321.60602938941963 L 749.6,323.9107527008042 L 764.8,322.96904307278027 L 780,319.5626418706728"
      stroke="url(#thread-25)"
      stroke-width="7.528"
      stroke-linecap="round"
      fill="none"
      opacity="0.6153846153846154"
      class="thread"
      style="animation-delay: 2.5s"
    >
      <title>2026-01-05: 3764 stars, Go, TypeScript, Python, Rust, JavaScript</title>
    </path>

    <path
      d="M 20,333.68066814730656 L 35.2,335.9519035304028 L 50.400000000000006,334.7092129547273 L 65.6,331.05756334039677 L 80.80000000000001,328.2439029677571 L 96,328.7700627004727 L 111.2,332.1681955050758 L 126.4,335.416773406102 L 141.60000000000002,335.6272486119142 L 156.79999999999998,332.61247225015467 L 172,329.0531020939645 L 187.2,328.1140340201009 L 202.4,330.630262014732 L 217.6,334.3644240571252 L 232.8,335.9962040428821 L 248,334.0746672498257 L 263.20000000000005,330.30839233275117 L 278.40000000000003,328.04624929750855 L 293.59999999999997,329.2996746766043 L 308.8,332.9541564524491 L 324,335.76022806311744 L 339.2,335.22280636727197 L 354.4,331.81975223203915 L 369.6,328.57696954725435 L 384.8,328.3778531546837 L 400,331.39945197652077 L 415.2,334.95504189225926 L 430.40000000000003,335.8830883129244 L 445.6,333.35839740890145 L 460.79999999999995,329.6258561915435 L 476,328.004339571373 L 491.2,329.93565636289213 L 506.40000000000003,333.70253180063133 L 521.6,335.95556191197335 L 536.8000000000001,334.69141313038955 L 552,331.0341324335409 L 567.1999999999999,328.23567510836756 L 582.4,328.7843538790517 L 597.6,332.19229839134465 L 612.8000000000001,335.4292563641187 L 628,335.6170121323209 L 643.1999999999999,332.5886183343268 L 658.4,329.03684100004756 L 673.6,328.1198246739247 L 688.8,330.6529555232041 L 704,334.38384196500186 L 719.2,335.9950804705618 L 734.4,334.0540012474908 L 749.6,330.2865595519099 L 764.8,328.04266285762594 L 780,329.31752354322737"
      stroke="url(#thread-26)"
      stroke-width="7.814"
      stroke-linecap="round"
      fill="none"
      opacity="0.6000000000000001"
      class="thread"
      style="animation-delay: 2.6s"
    >
      <title>2026-01-04: 3907 stars, Python, Jupyter Notebook, TypeScript, Go, Rust</title>
    </path>

    <path
      d="M 20,347.21513770620646 L 35.2,347.77035563463784 L 50.400000000000006,344.9998286009662 L 65.6,341.34737549589653 L 80.80000000000001,340.0347421414696 L 96,342.21977256848953 L 111.2,345.97510112795925 L 126.4,347.98823789904475 L 141.60000000000002,346.4834407175443 L 156.79999999999998,342.7880569560467 L 172,340.16170059232417 L 187.2,340.92102084776405 L 202.4,344.39623859305766 L 217.6,347.5219432864402 L 232.8,347.5410219008174 L 248,344.43664562432167 L 263.20000000000005,340.9471141725499 L 278.40000000000003,340.1504638822373 L 293.59999999999997,342.7494018575161 L 308.8,346.4514640139123 L 324,347.9911455133897 L 339.2,346.0103283197908 L 354.4,342.25624623300905 L 369.6,340.04028968866714 L 384.8,341.3171035605481 L 400,344.96043936881614 L 415.2,347.7565934515989 L 430.40000000000003,347.23914188096586 L 445.6,343.86451691979306 L 460.79999999999995,340.6093985025942 L 476,340.3450525591913 L 491.2,343.3046526346599 L 506.40000000000003,346.8776028079141 L 521.6,347.9122849850584 L 536.8000000000001,345.49602954776765 L 552,341.7601604682154 L 567.1999999999999,340.0000029025366 L 582.4,341.76815181094804 L 597.6,345.5049632515429 L 612.8000000000001,347.9142808329412 L 628,346.8709003078754 L 643.1999999999999,343.2951639095596 L 658.4,340.34114739765334 L 673.6,340.6145215588024 L 688.8,343.87414926237165 L 704,347.24478703957936 L 719.2,347.7532719602132 L 734.4,344.9510810394472 L 749.6,341.30996316271063 L 764.8,340.0416656049108 L 780,342.26492479890567"
      stroke="url(#thread-27)"
      stroke-width="7.78"
      stroke-linecap="round"
      fill="none"
      opacity="0.5846153846153846"
      class="thread"
      style="animation-delay: 2.7s"
    >
      <title>2026-01-03: 3890 stars, Go, Python, Jupyter Notebook, TypeScript, Rust, JavaScript</title>
    </path>

    <path
      d="M 20,359.9624294227795 L 35.2,359.46365077203615 L 50.400000000000006,357.5058728745412 L 65.6,354.9137736974885 L 80.80000000000001,352.7792273920939 L 96,352.00137236944397 L 111.2,352.9078657655556 L 126.4,355.1168638931869 L 141.60000000000002,357.69786687910886 L 156.79999999999998,359.5636746387384 L 172,359.9283499356022 L 187.2,358.63828000142445 L 202.4,356.2368830922886 L 217.6,353.7357035330059 L 232.8,352.1883172563596 L 248,352.24653229977883 L 263.20000000000005,353.885826645864 L 278.40000000000003,356.4156776716497 L 293.59999999999997,358.77043211589637 L 308.8,359.95819293512096 L 324,359.4786377080907 L 339.2,357.5337702628652 L 354.4,354.9428302758358 L 369.6,352.79720361072003 L 384.8,352.00069607654694 L 400,352.88882183709205 L 415.2,355.0874742341099 L 430.40000000000003,357.67051134330023 L 445.6,359.54987624302805 L 460.79999999999995,359.93392100065205 L 476,358.6608738184447 L 491.2,356.26698243099736 L 506.40000000000003,353.760629600016 L 521.6,352.19757040393347 L 536.8000000000001,352.236214809518 L 552,353.8602845709677 L 567.1999999999999,356.38567014185895 L 582.4,358.74859925177856 L 597.6,359.95373142952957 L 612.8000000000001,359.4934268882806 L 628,357.5615804584171 L 643.1999999999999,354.9719469528569 L 658.4,352.8153619040037 L 673.6,352.00024713868703 L 688.8,352.86995477491337 L 704,355.0581364508926 L 719.2,357.64306084117345 L 734.4,359.5358760416384 L 749.6,359.9392684275958 L 764.8,358.6833163683752 L 780,356.29706659211485"
      stroke="url(#thread-28)"
      stroke-width="5.26"
      stroke-linecap="round"
      fill="none"
      opacity="0.5692307692307692"
      class="thread"
      style="animation-delay: 2.8000000000000003s"
    >
      <title>2026-01-02: 2630 stars, TypeScript, Rust, Python, JavaScript, Jupyter Notebook, Shell</title>
    </path>

    <path
      d="M 20,371.7395802220987 L 35.2,369.09986460843214 L 50.400000000000006,365.5765349680753 L 65.6,364.0001792361294 L 80.80000000000001,365.6372169565294 L 96,369.1724776247636 L 111.2,371.7657881045119 L 126.4,371.3337233106315 L 141.60000000000002,368.2233973418804 L 156.79999999999998,364.9335974421586 L 172,364.107297404888 L 187.2,366.4083337583006 L 202.4,369.9880898797579 L 217.6,371.9706456816421 L 232.8,370.76324683600166 L 248,367.3358986940755 L 263.20000000000005,364.4420791560879 L 278.40000000000003,364.4066375851992 L 293.59999999999997,367.2580471852247 L 308.8,370.70553007395466 L 324,371.9794324104506 L 339.2,370.05632097890435 L 354.4,366.48119342973126 L 369.6,364.12625132795773 L 384.8,364.8834183314754 L 400,368.1443983102643 L 415.2,371.2893709446931 L 430.40000000000003,371.79171440146206 L 445.6,369.247853803069 L 460.79999999999995,365.701486973275 L 476,364.00170956491866 L 491.2,365.5140961666903 L 506.40000000000003,369.02361903348526 L 521.6,371.7107823761711 L 536.8000000000001,371.41676118719556 L 552,368.3777674918672 L 567.1999999999999,365.035281301115 L 582.4,364.0746037506643 L 597.6,366.2675281614357 L 612.8000000000001,369.85229335484973 L 628,371.9489550332108 L 643.1999999999999,370.8730879917977 L 658.4,367.4890269872326 L 673.6,364.5154737105096 L 688.8,364.34133436360986 L 704,367.1065097746351 L 719.2,370.5895012602847 L 734.4,371.9921279281397 L 749.6,370.1875414475742 L 764.8,366.625518376883 L 780,364.16773234800866"
      stroke="url(#thread-29)"
      stroke-width="7.396"
      stroke-linecap="round"
      fill="none"
      opacity="0.5538461538461539"
      class="thread"
      style="animation-delay: 2.9000000000000004s"
    >
      <title>2026-01-01: 3698 stars, Rust, Python, JavaScript, TypeScript, Jupyter Notebook, Go, Shell</title>
    </path>

    <path
      d="M 20,382.6011513606285 L 35.2,379.1165366621829 L 50.400000000000006,376.343462548151 L 65.6,376.5153604369727 L 80.80000000000001,379.49378392228795 L 96,382.87991338515377 L 111.2,383.9465631758963 L 126.4,381.8346545042797 L 141.60000000000002,378.24511673104377 L 156.79999999999998,376.06896037763687 L 172,377.05885983041725 L 187.2,380.4175509528986 L 202.4,383.43994691028337 L 217.6,383.6918126938381 L 232.8,380.9702958260993 L 248,377.4673035653208 L 263.20000000000005,376.0041427543982 L 278.40000000000003,377.75924180561555 L 293.59999999999997,381.31904550830313 L 308.8,383.81649113491574 L 324,383.24013820497794 L 339.2,380.0541808542755 L 354.4,376.8245862918576 L 369.6,376.1524670981736 L 384.8,378.57914747242717 L 400,382.150181205285 L 415.2,383.9894609129176 L 430.40000000000003,382.6156323590499 L 445.6,379.13517583579966 L 460.79999999999995,376.35124792315435 L 476,376.50602167927786 L 491.2,379.47484245901416 L 506.40000000000003,382.8666246539299 L 521.6,383.94962990899927 L 536.8000000000001,381.85160675760324 L 552,378.262301174879 L 567.1999999999999,376.0725366762438 L 582.4,377.04594763608713 L 597.6,380.3985497354299 L 612.8000000000001,383.43016023328033 L 628,383.69912273823127 L 643.1999999999999,380.98881508865344 L 658.4,377.4821166484901 L 673.6,376.00331921420826 L 688.8,377.74344492060095 L 704,381.3009980755671 L 719.2,383.81072854068935 L 734.4,383.2513016375121 L 749.6,380.0732792949626 L 764.8,376.8362378736001 L 780,376.1472876474269"
      stroke="url(#thread-30)"
      stroke-width="7.406"
      stroke-linecap="round"
      fill="none"
      opacity="0.5384615384615384"
      class="thread"
      style="animation-delay: 3s"
    >
      <title>2025-12-31: 3703 stars, Go, Python, TypeScript, Rust, Shell</title>
    </path>

    <path
      d="M 20,392.82586992775117 L 35.2,388.9259463134886 L 50.400000000000006,388.3006618587171 L 65.6,391.61610153469144 L 80.80000000000001,395.3404894841732 L 96,395.5064172399569 L 111.2,391.93713007289773 L 126.4,388.4348151666507 L 141.60000000000002,388.7303174284435 L 156.79999999999998,392.5088527403439 L 172,395.74533209620944 L 187.2,394.9920922089264 L 202.4,391.0515227186664 L 217.6,388.1213197229705 L 232.8,389.3228852705627 L 248,393.3762503055654 L 263.20000000000005,395.96356314907877 L 278.40000000000003,394.32868587403937 L 293.59999999999997,390.21317334310214 L 308.8,388.0010799253621 L 324,390.0488406310369 L 339.2,394.1750760569322 L 354.4,395.9843092579949 L 369.6,393.54925252456417 L 384.8,389.463852790574 L 400,388.0800867341808 L 415.2,390.87201270892695 L 430.40000000000003,394.8655284187398 L 445.6,395.8065367459348 L 460.79999999999995,392.69262750777466 L 476,388.84089603513246 L 491.2,388.3544036270034 L 506.40000000000003,391.75138687029056 L 521.6,395.4132055306306 L 536.8000000000001,395.4391031467033 L 552,391.80149225375453 L 567.1999999999999,388.3753419615656 L 582.4,388.8103627362657 L 597.6,392.64314820656216 L 612.8000000000001,395.7908193238445 L 628,394.900315877395 L 643.1999999999999,390.92024766872765 L 658.4,388.09038684975263 L 673.6,389.42524585217745 L 688.8,393.50286461690496 L 704,395.97955515206877 L 719.2,394.21702006944327 L 734.4,390.0928018553122 L 749.6,388.0002286176197 L 764.8,390.1684163598756 L 780,394.28770064223164"
      stroke="url(#thread-31)"
      stroke-width="8"
      stroke-linecap="round"
      fill="none"
      opacity="0.5230769230769231"
      class="thread"
      style="animation-delay: 3.1s"
    >
      <title>2025-12-30: 4315 stars, Go, Shell, Rust, Python, Swift, TypeScript</title>
    </path>

    <path
      d="M 20,402.84838673333974 L 35.2,400.4067947731126 L 50.400000000000006,400.26916367600035 L 65.6,402.5237424122876 L 80.80000000000001,405.72489655721415 L 96,407.82004814737275 L 111.2,407.4657873407935 L 126.4,404.8892659370971 L 141.60000000000002,401.7425477907706 L 156.79999999999998,400.0433065381928 L 172,400.8810945694233 L 187.2,403.71872274171636 L 202.4,406.7367057097557 L 217.6,407.9999147500609 L 232.8,406.6983810445366 L 248,403.6666471617825 L 263.20000000000005,400.84865890288387 L 278.40000000000003,400.05130851341477 L 293.59999999999997,401.7858565464269 L 308.8,404.9401119271246 L 324,407.4915681493343 L 339.2,407.8042331366962 L 354.4,405.6776263019181 L 369.6,402.4753265694372 L 384.8,400.25064645265815 L 400,400.4300494008867 L 415.2,402.89850235997017 L 430.40000000000003,406.07323489208 L 445.6,407.9186105548261 L 460.79999999999995,407.25137566904283 L 476,404.4993608111321 L 491.2,401.4271561247049 L 506.40000000000003,400.00465726393674 L 521.6,401.14396957658545 L 536.8000000000001,404.11456674604506 L 552,407.01170379217876 L 567.1999999999999,407.977738318325 L 582.4,406.3932496123006 L 597.6,403.27421080567376 L 612.8000000000001,400.62054756014385 L 628,400.1337870291943 L 643.1999999999999,402.1260397498534 L 658.4,405.3198745685968 L 673.6,407.667406669223 L 688.8,407.6633999899906 L 704,405.31042361102715 L 719.2,402.1172044618161 L 734.4,400.1312325916536 L 749.6,400.6259118767956 L 764.8,403.28405428015697 L 780,406.40126061515514"
      stroke="url(#thread-32)"
      stroke-width="6.556"
      stroke-linecap="round"
      fill="none"
      opacity="0.5076923076923078"
      class="thread"
      style="animation-delay: 3.2s"
    >
      <title>2025-12-29: 3278 stars, Shell, Go, JavaScript, TypeScript, Rust, Python</title>
    </path>

    <path
      d="M 20,413.1528586305235 L 35.2,412.06111330068103 L 50.400000000000006,414.2890767332724 L 65.6,417.95901283326486 L 80.80000000000001,419.97788543111744 L 96,418.6441809863448 L 111.2,415.08195070168256 L 126.4,412.29345587391924 L 141.60000000000002,412.6288505999797 L 156.79999999999998,415.80546292304695 L 172,419.1460318379834 L 187.2,419.8351130974727 L 202.4,417.2919463827295 L 217.6,413.65992231951697 L 232.8,412.00012466789894 L 248,413.7114372314884 L 263.20000000000005,417.3515592420014 L 278.40000000000003,419.8525819584432 L 293.59999999999997,419.1066338778703 L 308.8,415.7424028931908 L 324,412.5952757345238 L 339.2,412.31766319777444 L 354.4,415.1435381897967 L 369.6,418.6912424683819 L 384.8,419.97075731017367 L 400,417.9037027169114 L 415.2,414.2322001989366 L 430.40000000000003,412.0506061088518 L 445.6,413.19757628262715 L 460.79999999999995,416.70643987471885 L 476,419.61991324077474 L 491.2,419.48250989419813 L 506.40000000000003,416.4100339005634 L 521.6,412.9919797686109 L 536.8000000000001,412.1090965826639 L 552,414.5054816657299 L 567.1999999999999,418.1614525121418 L 582.4,419.9957429214438 L 597.6,418.4624059270321 L 612.8000000000001,414.8537438073633 L 628,412.21115078720635 L 643.1999999999999,412.76181436247936 L 658.4,416.0416331676104 L 673.6,419.28636337998046 L 688.8,419.7613339770386 L 704,417.06623792450915 L 719.2,413.47251247463134 L 734.4,412.0089631697946 L 749.6,413.90907495699173 L 764.8,417.571426360796 L 780,419.9093736225985"
      stroke="url(#thread-33)"
      stroke-width="7.59"
      stroke-linecap="round"
      fill="none"
      opacity="0.49230769230769234"
      class="thread"
      style="animation-delay: 3.3000000000000003s"
    >
      <title>2025-12-28: 3795 stars, Shell, Rust, Python, JavaScript, TypeScript</title>
    </path>

    <path
      d="M 20,424.1544100324818 L 35.2,426.0949153085046 L 50.400000000000006,431.0228402282725 L 65.6,431.21055999172495 L 80.80000000000001,426.3637056863613 L 96,424.08277288429605 L 111.2,427.94455976640353 L 126.4,431.89328411834595 L 141.60000000000002,429.7368345083383 L 156.79999999999998,424.8568033424517 L 172,424.905711808925 L 187.2,429.80686509511276 L 202.4,431.8746197912882 L 217.6,427.86646860873236 L 232.8,424.06771194974306 L 248,426.43529247179555 L 263.20000000000005,431.2565371418732 L 278.40000000000003,430.97110961430644 L 293.59999999999997,426.02659723601226 L 308.8,424.17663609130665 L 324,428.3222049600467 L 339.2,431.9625147023801 L 354.4,429.3890879565855 L 369.6,424.63739130661367 L 384.8,425.1587007910647 L 400,430.1355355907015 L 415.2,431.76357387643077 L 430.40000000000003,427.4898406664741 L 445.6,424.0161033943457 L 460.79999999999995,426.78963220519597 L 476,431.4611745492481 L 491.2,430.70514672541555 L 506.40000000000003,425.7070983222377 L 521.6,424.30461684786997 L 536.8000000000001,428.69697497781 L 552,431.9963860334265 L 567.1999999999999,429.0289459650254 L 582.4,424.4479852998805 L 597.6,425.43704392961473 L 612.8000000000001,430.4451497675414 L 628,431.6189439446473 L 643.1999999999999,427.1177650992335 L 658.4,424.00004489201734 L 673.6,427.1547725801785 L 688.8,431.6349263812464 L 704,430.4150446283154 L 719.2,425.40805997368227 L 734.4,424.4655731256809 L 749.6,429.0655255827968 L 764.8,431.9945958627736 L 780,428.6596222382742"
      stroke="url(#thread-34)"
      stroke-width="8"
      stroke-linecap="round"
      fill="none"
      opacity="0.47692307692307695"
      class="thread"
      style="animation-delay: 3.4000000000000004s"
    >
      <title>2025-12-27: 5384 stars, Shell, Python, Rust, C, Go</title>
    </path>

    <path
      d="M 20,436.09749597812737 L 35.2,438.4653547176549 L 50.400000000000006,442.13165524114066 L 65.6,443.9943922532845 L 80.80000000000001,442.47753017314943 L 96,438.8644646674783 L 111.2,436.2121596319101 L 126.4,436.76469304433556 L 141.60000000000002,440.0545741575575 L 156.79999999999998,443.2982808438208 L 172,443.7513585084371 L 187.2,441.0304645132841 L 202.4,437.4377089900458 L 217.6,436.0128718439462 L 232.8,437.9614877396502 L 248,441.63486018098706 L 263.20000000000005,443.92500042245086 L 278.40000000000003,442.8942530234977 L 293.59999999999997,439.41471885779794 L 308.8,436.43038283276337 L 324,436.4662496754508 L 339.2,439.49197295483816 L 354.4,442.9475307701979 L 369.6,443.9092242668408 L 384.8,441.5633781063891 L 400,437.8947797237697 L 415.2,436.00737860056944 L 430.40000000000003,437.4980782751147 L 445.6,441.1056187239787 L 460.79999999999995,443.7777107243603 L 476,443.2535348258037 L 491.2,439.9765888819561 L 506.40000000000003,436.7194507557371 L 521.6,436.2379391942279 L 536.8000000000001,438.93945435570294 L 552,442.53828226703104 L 567.1999999999999,443.9895052608521 L 582.4,442.0652639779409 L 597.6,438.3936318974869 L 612.8000000000001,436.08112527013657 L 628,437.08432342088133 L 643.1999999999999,440.5544345073964 L 658.4,443.55544635700403 L 673.6,443.54824506207206 L 688.8,440.5389235369345 L 704,437.0736263887884 L 719.2,436.0842927847804 L 734.4,438.407983969288 L 749.6,442.07865752085377 L 764.8,443.9906081866389 L 780,442.5261614056995"
      stroke="url(#thread-35)"
      stroke-width="7.606"
      stroke-linecap="round"
      fill="none"
      opacity="0.46153846153846156"
      class="thread"
      style="animation-delay: 3.5s"
    >
      <title>2025-12-26: 3803 stars, Python, Shell, Go, TypeScript</title>
    </path>

    <path
      d="M 20,448.9960510129133 L 35.2,452.13139485052045 L 50.400000000000006,455.1708970227073 L 65.6,455.89749233188803 L 80.80000000000001,453.7811896540375 L 96,450.3656565862888 L 111.2,448.14224173335816 L 126.4,448.7327421564009 L 141.60000000000002,451.70643668368456 L 156.79999999999998,454.89426134643793 L 172,455.97096196966186 L 187.2,454.1511745875687 L 202.4,450.76228343720993 L 217.6,448.2762040502207 L 232.8,448.5063255196458 L 248,451.28479328504164 L 263.20000000000005,454.58494513782637 L 278.40000000000003,455.99959351731684 L 293.59999999999997,454.49686954785005 L 308.8,451.172885956296 L 324,448.45221358376676 L 339.2,448.3193576845647 L 354.4,450.8712256381647 L 369.6,454.2464410387421 L 384.8,455.9830636819271 L 400,454.8143711225849 L 415.2,451.59282782799073 L 430.40000000000003,448.66828292354336 L 445.6,448.1739497971979 L 460.79999999999995,450.4704035393303 L 476,453.8825712659214 L 491.2,455.9215591100166 L 506.40000000000003,455.1000942448977 L 521.6,452.0173672815011 L 536.8000000000001,448.92197232406744 L 552,448.0717437297183 L 567.1999999999999,450.08685286854615 L 582.4,453.4974444524337 L 597.6,455.8157742800415 L 612.8000000000001,455.35081267409305 L 628,452.44171063247035 L 643.1999999999999,449.2104172531955 L 658.4,448.013893541243 L 673.6,449.72490448560706 L 688.8,453.09540925507844 L 704,455.6669036606913 L 719.2,455.56369542472976 L 734.4,452.86106641083217 L 749.6,449.53036073696865 L 764.8,448.00105244678235 L 780,449.38864532822157"
      stroke="url(#thread-36)"
      stroke-width="7.022"
      stroke-linecap="round"
      fill="none"
      opacity="0.4461538461538461"
      class="thread"
      style="animation-delay: 3.6s"
    >
      <title>2025-12-25: 3511 stars, Python, TypeScript</title>
    </path>

    <path
      d="M 20,462.63007752612157 L 35.2,465.46984435344893 L 50.400000000000006,467.5686520427908 L 65.6,467.86847650292754 L 80.80000000000001,466.2181740613957 L 96,463.44967407971143 L 111.2,460.9585973629812 L 126.4,460.00071364788033 L 141.60000000000002,461.05889902272804 L 156.79999999999998,463.59971460922657 L 172,466.3423169477711 L 187.2,467.9041404219163 L 202.4,467.49785855564926 L 217.6,465.3282809675546 L 232.8,462.48910736515234 L 248,460.41158563539807 L 263.20000000000005,460.14300946378495 L 278.40000000000003,461.8187700351925 L 293.59999999999997,464.5941043612493 L 308.8,467.0699463945666 L 324,467.9982063122386 L 339.2,466.9109415958545 L 354.4,464.3562502294789 L 369.6,461.62197055341426 L 384.8,460.0864726699332 L 400,460.52381213495426 L 415.2,462.7135229703971 L 430.40000000000003,465.5517561535674 L 445.6,467.6077378696262 L 460.79999999999995,467.84503290931457 L 476,466.1440191319322 L 491.2,463.36218984908953 L 506.40000000000003,460.9018852627279 L 521.6,460.0033626566983 L 536.8000000000001,461.1195737561695 L 552,463.6878284966231 L 567.1999999999999,466.4134511430751 L 582.4,467.92243566430864 L 597.6,467.4540920815085 L 612.8000000000001,465.2445157721059 L 628,462.40757008747306 L 643.1999999999999,460.3733798051518 L 658.4,460.1673949155105 L 673.6,461.89345388682545 L 688.8,464.68143794461787 L 704,467.12590422051045 L 719.2,467.9945796371737 L 734.4,466.84955865283393 L 749.6,464.268054602727 L 764.8,461.5514222943771 L 780,460.06913566473247"
      stroke="url(#thread-37)"
      stroke-width="5.776"
      stroke-linecap="round"
      fill="none"
      opacity="0.4307692307692308"
      class="thread"
      style="animation-delay: 3.7s"
    >
      <title>2025-12-24: 2888 stars, Python, TypeScript</title>
    </path>

    <path
      d="M 20,476.5995088386518 L 35.2,479.07344736831163 L 50.400000000000006,479.9980389162149 L 65.6,478.90719021560477 L 80.80000000000001,476.35080596283916 L 96,473.61757789445755 L 111.2,472.08534598971613 L 126.4,472.5265194010991 L 141.60000000000002,474.7186994305174 L 156.79999999999998,477.55679231678783 L 172,479.6100949697503 L 187.2,479.8435227151721 L 202.4,478.13940294328086 L 217.6,475.3567947199168 L 232.8,472.89843091655547 L 248,472.00359045434175 L 263.20000000000005,473.12336886319406 L 278.40000000000003,475.6932777722103 L 293.59999999999997,478.4178075681053 L 308.8,479.92350313350886 L 324,479.45133247595714 L 339.2,477.23932022886163 L 354.4,474.4025577173516 L 369.6,472.3710773800769 L 384.8,472.16896310456576 L 400,473.89810215459954 L 415.2,476.686823065806 L 430.40000000000003,479.1293115166883 L 445.6,479.9942914657671 L 460.79999999999995,478.8457202831271 L 476,476.2626009845685 L 491.2,473.5471026360081 L 506.40000000000003,472.06812753708687 L 521.6,472.5712377004269 L 536.8000000000001,474.8028116646364 L 552,477.6378969019245 L 567.1999999999999,479.64730649967197 L 582.4,479.81808258930374 L 597.6,478.06413571252773 L 612.8000000000001,475.26964313807224 L 628,472.8433287244989 L 643.1999999999999,472.00831506444456 L 658.4,473.18553856543303 L 673.6,475.7815523713656 L 688.8,478.48768720217276 L 704,479.9397609750357 L 719.2,479.40577282979035 L 734.4,477.15491004117575 L 749.6,474.3218487724619 L 764.8,472.33475563911446 L 780,472.19533861907485"
      stroke="url(#thread-38)"
      stroke-width="5.776"
      stroke-linecap="round"
      fill="none"
      opacity="0.4153846153846154"
      class="thread"
      style="animation-delay: 3.8000000000000003s"
    >
      <title>2025-12-23: 2888 stars, Python, TypeScript</title>
    </path>
  </g>

  <!-- Date markers -->
  <g id="dates">
    <text x="785" y="24" class="date-label">01-30</text>
<text x="785" y="108" class="date-label">01-23</text>
<text x="785" y="192" class="date-label">01-16</text>
<text x="785" y="276" class="date-label">01-09</text>
<text x="785" y="360" class="date-label">01-02</text>
<text x="785" y="444" class="date-label">12-26</text>
  </g>

</svg>