<?xml version="1.0" encoding="UTF-8"?>
<svg xmlns="http://www.w3.org/2000/svg" viewBox="0 0 800 304" width="800" height="304">
  <title>The Data Tapestry - GitHub Trends Woven in Time</title>
  <desc>A living data art piece that weaves daily GitHub trending repositories into an evolving tapestry. Each thread represents one day of open source activity.</desc>

  <style>
    .thread {
      animation: breathe 8s ease-in-out infinite alternate;
    }

    @keyframes breathe {
      0% {
        opacity: 0.85;
      }
      100% {
        opacity: 1;
      }
    }

    .date-label {
      font-family: ui-monospace, monospace;
      font-size: 8px;
      fill: #666;
    }

    .title {
      font-family: system-ui, sans-serif;
      font-size: 14px;
      fill: #333;
      font-weight: 600;
    }

    .subtitle {
      font-family: system-ui, sans-serif;
      font-size: 10px;
      fill: #888;
    }

    .empty-state {
      font-family: system-ui, sans-serif;
      font-size: 12px;
      fill: #999;
      text-anchor: middle;
    }
  </style>

  <defs>
    
    <linearGradient id="thread-0" x1="0%" y1="0%" x2="100%" y2="0%">
      <stop offset="0%" stop-color="#3572A5" />
      <stop offset="50%" stop-color="#3178c6" />
      <stop offset="100%" stop-color="#89e051" />
    </linearGradient>

    <linearGradient id="thread-1" x1="0%" y1="0%" x2="100%" y2="0%">
      <stop offset="0%" stop-color="#3178c6" />
      <stop offset="50%" stop-color="#3572A5" />
      <stop offset="100%" stop-color="#8b8b8b" />
    </linearGradient>

    <linearGradient id="thread-2" x1="0%" y1="0%" x2="100%" y2="0%">
      <stop offset="0%" stop-color="#3178c6" />
      <stop offset="50%" stop-color="#89e051" />
      <stop offset="100%" stop-color="#3572A5" />
    </linearGradient>

    <linearGradient id="thread-3" x1="0%" y1="0%" x2="100%" y2="0%">
      <stop offset="0%" stop-color="#3572A5" />
      <stop offset="50%" stop-color="#3178c6" />
      <stop offset="100%" stop-color="#89e051" />
    </linearGradient>

    <linearGradient id="thread-4" x1="0%" y1="0%" x2="100%" y2="0%">
      <stop offset="0%" stop-color="#3572A5" />
      <stop offset="50%" stop-color="#3178c6" />
      <stop offset="100%" stop-color="#8b8b8b" />
    </linearGradient>

    <linearGradient id="thread-5" x1="0%" y1="0%" x2="100%" y2="0%">
      <stop offset="0%" stop-color="#3572A5" />
      <stop offset="50%" stop-color="#3178c6" />
      <stop offset="100%" stop-color="#8b8b8b" />
    </linearGradient>

    <linearGradient id="thread-6" x1="0%" y1="0%" x2="100%" y2="0%">
      <stop offset="0%" stop-color="#3178c6" />
      <stop offset="50%" stop-color="#3572A5" />
      <stop offset="100%" stop-color="#dea584" />
    </linearGradient>

    <linearGradient id="thread-7" x1="0%" y1="0%" x2="100%" y2="0%">
      <stop offset="0%" stop-color="#3572A5" />
      <stop offset="50%" stop-color="#3178c6" />
      <stop offset="100%" stop-color="#00ADD8" />
    </linearGradient>

    <linearGradient id="thread-8" x1="0%" y1="0%" x2="100%" y2="0%">
      <stop offset="0%" stop-color="#3572A5" />
      <stop offset="50%" stop-color="#00ADD8" />
      <stop offset="100%" stop-color="#3178c6" />
    </linearGradient>

    <linearGradient id="thread-9" x1="0%" y1="0%" x2="100%" y2="0%">
      <stop offset="0%" stop-color="#3572A5" />
      <stop offset="50%" stop-color="#3178c6" />
      <stop offset="100%" stop-color="#00ADD8" />
    </linearGradient>

    <linearGradient id="thread-10" x1="0%" y1="0%" x2="100%" y2="0%">
      <stop offset="0%" stop-color="#3572A5" />
      <stop offset="50%" stop-color="#00ADD8" />
      <stop offset="100%" stop-color="#DA5B0B" />
    </linearGradient>

    <linearGradient id="thread-11" x1="0%" y1="0%" x2="100%" y2="0%">
      <stop offset="0%" stop-color="#3572A5" />
      <stop offset="50%" stop-color="#3178c6" />
      <stop offset="100%" stop-color="#dea584" />
    </linearGradient>

    <linearGradient id="thread-12" x1="0%" y1="0%" x2="100%" y2="0%">
      <stop offset="0%" stop-color="#dea584" />
      <stop offset="50%" stop-color="#3572A5" />
      <stop offset="100%" stop-color="#3178c6" />
    </linearGradient>

    <linearGradient id="thread-13" x1="0%" y1="0%" x2="100%" y2="0%">
      <stop offset="0%" stop-color="#3572A5" />
      <stop offset="50%" stop-color="#3178c6" />
      <stop offset="100%" stop-color="#dea584" />
    </linearGradient>

    <linearGradient id="thread-14" x1="0%" y1="0%" x2="100%" y2="0%">
      <stop offset="0%" stop-color="#3572A5" />
      <stop offset="50%" stop-color="#dea584" />
      <stop offset="100%" stop-color="#3178c6" />
    </linearGradient>

    <linearGradient id="thread-15" x1="0%" y1="0%" x2="100%" y2="0%">
      <stop offset="0%" stop-color="#3572A5" />
      <stop offset="50%" stop-color="#3178c6" />
      <stop offset="100%" stop-color="#89e051" />
    </linearGradient>

    <linearGradient id="thread-16" x1="0%" y1="0%" x2="100%" y2="0%">
      <stop offset="0%" stop-color="#3572A5" />
      <stop offset="50%" stop-color="#f1e05a" />
      <stop offset="100%" stop-color="#89e051" />
    </linearGradient>

    <linearGradient id="thread-17" x1="0%" y1="0%" x2="100%" y2="0%">
      <stop offset="0%" stop-color="#3572A5" />
      <stop offset="50%" stop-color="#89e051" />
      <stop offset="100%" stop-color="#dea584" />
    </linearGradient>

    <linearGradient id="thread-18" x1="0%" y1="0%" x2="100%" y2="0%">
      <stop offset="0%" stop-color="#3572A5" />
      <stop offset="50%" stop-color="#89e051" />
      <stop offset="100%" stop-color="#00ADD8" />
    </linearGradient>

    <linearGradient id="thread-19" x1="0%" y1="0%" x2="100%" y2="0%">
      <stop offset="0%" stop-color="#3572A5" />
      <stop offset="50%" stop-color="#3178c6" />
      <stop offset="100%" stop-color="#3572A5" />
    </linearGradient>

    <linearGradient id="thread-20" x1="0%" y1="0%" x2="100%" y2="0%">
      <stop offset="0%" stop-color="#3572A5" />
      <stop offset="50%" stop-color="#3178c6" />
      <stop offset="100%" stop-color="#3572A5" />
    </linearGradient>

    <linearGradient id="thread-21" x1="0%" y1="0%" x2="100%" y2="0%">
      <stop offset="0%" stop-color="#3572A5" />
      <stop offset="50%" stop-color="#3178c6" />
      <stop offset="100%" stop-color="#3572A5" />
    </linearGradient>

    <!-- Background pattern -->
    <pattern id="loom" patternUnits="userSpaceOnUse" width="20" height="20">
      <rect width="20" height="20" fill="#fafafa"/>
      <circle cx="10" cy="10" r="0.5" fill="#eee"/>
    </pattern>
  </defs>

  <!-- Background -->
  <rect width="100%" height="100%" fill="url(#loom)"/>

  <!-- Threads -->
  <g id="tapestry">
    
    <path
      d="M 20,20 L 35.2,23.819159439592628 L 50.400000000000006,22.270731320316404 L 65.6,17.53093363995052 L 80.80000000000001,16.26125290176624 L 96,20.246145251626988 L 111.2,23.885095984960568 L 126.4,22.063789506275253 L 141.60000000000002,17.34195712569443 L 156.79999999999998,16.355836251461298 L 172,20.491357536588655 L 187.2,23.93630681442872 L 202.4,21.84902529143268 L 217.6,17.16305541637702 L 232.8,16.464232109331455 L 248,20.734707424452015 L 263.20000000000005,23.97259782310786 L 278.40000000000003,21.62725269861473 L 293.59999999999997,16.994906604831915 L 308.8,16.586029621535793 L 324,20.975272543845353 L 339.2,23.993831456846028 L 354.4,21.399312314568544 L 369.6,16.838148027083076 L 384.8,16.720767137816793 L 400,21.2121410785311 L 415.2,23.999927233601294 L 430.40000000000003,21.166068103878363 L 445.6,16.693373846643993 L 460.79999999999995,16.86793396129758 L 476,21.444415223471502 L 491.2,23.990862048493618 L 506.40000000000003,20.928404134272583 L 521.6,16.561132802454225 L 536.8000000000001,17.02697228418121 L 552,21.671214587787578 L 567.1999999999999,23.966670261379488 L 582.4,20.6872212257334 L 597.6,16.441926128988957 L 612.8000000000001,17.197279302014636 L 628,21.89167953171285 L 643.1999999999999,23.92744356661743 L 658.4,20.44343353611045 L 673.6,16.33620565642522 L 688.8,17.378209498504354 L 704,22.104974424894127 L 719.2,23.873330645518003 L 734.4,20.19796509617948 L 749.6,16.244372098065824 L 764.8,17.569077092222678 L 780,22.310290813689075"
      stroke="url(#thread-0)"
      stroke-width="8"
      stroke-linecap="round"
      fill="none"
      opacity="1"
      class="thread"
      style="animation-delay: 0s"
    >
      <title>2026-01-13: 5049 stars, TypeScript, Shell, C, Rust, Python</title>
    </path>

    <path
      d="M 20,33.917702154416816 L 35.2,35.955274578369604 L 50.400000000000006,34.86764779628973 L 65.6,31.51419333560652 L 80.80000000000001,28.544591518214062 L 96,28.30522742005659 L 111.2,30.985230891588834 L 126.4,34.46703852338252 L 141.60000000000002,35.99955371497723 L 156.79999999999998,34.37188322366438 L 172,30.87010578464788 L 187.2,28.261096833571578 L 202.4,28.60632455447158 L 217.6,31.633012588114227 L 232.8,34.94967006522397 L 248,35.93569123295867 L 263.20000000000005,33.81198667300388 L 278.40000000000003,30.256568789584257 L 293.59999999999997,28.078696188194034 L 308.8,28.999181315566194 L 324,32.29071704491863 L 339.2,35.35254718494775 L 354.4,35.76541387301229 L 369.6,33.20309686316699 L 384.8,29.690171422212543 L 400,28.002321407588795 L 415.2,29.473175476697016 L 430.40000000000003,32.940560971763915 L 445.6,35.66477672123161 L 460.79999999999995,35.493325666145616 L 476,32.56167721339828 L 491.2,29.186228173212964 L 506.40000000000003,28.034037545255693 L 521.6,30.015490984009805 L 536.8000000000001,33.564973614733134 L 552,35.8779164803102 L 567.1999999999999,35.12678344794493 L 582.4,31.905070698461373 L 597.6,28.758364872497147 L 612.8000000000001,28.17298704690034 L 628,30.61146448230388 L 643.1999999999999,34.14707184167864 L 658.4,35.98620349956746 L 673.6,34.67569794135483 L 688.8,31.251030921979552 L 704,28.418150268277365 L 719.2,28.41541293734853 L 734.4,31.244981789008673 L 749.6,34.67111663546331 L 764.8,35.98670986894813 L 780,34.1522657863751"
      stroke="url(#thread-1)"
      stroke-width="7.33"
      stroke-linecap="round"
      fill="none"
      opacity="0.9727272727272728"
      class="thread"
      style="animation-delay: 0.1s"
    >
      <title>2026-01-12: 3665 stars, TypeScript, Unknown, Python, Shell, C</title>
    </path>

    <path
      d="M 20,47.36588393923159 L 35.2,47.811346168875325 L 50.400000000000006,45.49595469487595 L 65.6,42.096927183416 L 80.80000000000001,40.07644294804973 L 96,40.89809546394279 L 111.2,43.9666980723403 L 126.4,47.05942385041172 L 141.60000000000002,47.93597159212393 L 156.79999999999998,45.961389768043894 L 172,42.566021175862545 L 187.2,40.20939469005196 L 202.4,40.5985976947459 L 217.6,43.45170026036902 L 232.8,46.70197886296006 L 248,47.99500456318091 L 263.20000000000005,46.39413853706092 L 278.40000000000003,43.05901223800701 L 293.59999999999997,40.405516374151226 L 308.8,40.355783850437675 L 324,42.945839791901534 L 339.2,46.29950575087808 L 354.4,47.98746130529861 L 369.6,46.78698930024718 L 384.8,43.567684738227655 L 400,40.66153965811313 L 415.2,40.17370039200023 L 430.40000000000003,42.4575467655341 L 445.6,45.858711675979585 L 460.79999999999995,47.9134675258838 L 476,47.13339525097575 L 491.2,44.08356171578654 L 506.40000000000003,40.973197947370025 L 521.6,40.055381716471985 L 536.8000000000001,41.9949585207362 L 552,45.3869424139154 L 567.1999999999999,47.774256321600234 L 582.4,47.42758357934942 L 597.6,44.59804614827252 L 612.8000000000001,41.33529749726204 L 628,40.00279958911757 L 643.1999999999999,41.56578403015185 L 658.4,44.892059937782456 L 673.6,47.57214762897377 L 688.8,47.66465167532327 L 704,45.102564219856035 L 719.2,41.741803966112855 L 734.4,40.01683028421742 L 749.6,41.17717543057799 L 764.8,44.382311399369506 L 780,47.31050956295352"
      stroke="url(#thread-2)"
      stroke-width="6.996"
      stroke-linecap="round"
      fill="none"
      opacity="0.9454545454545454"
      class="thread"
      style="animation-delay: 0.2s"
    >
      <title>2026-01-11: 3498 stars, TypeScript, Unknown, Shell, Python</title>
    </path>

    <path
      d="M 20,59.98997994641622 L 35.2,58.48697206254305 L 50.400000000000006,54.819217433331 L 65.6,52.179256906291485 L 80.80000000000001,52.865003692756765 L 96,56.279560004253355 L 111.2,59.45077759134322 L 126.4,59.618318670659974 L 141.60000000000002,56.63634967550458 L 156.79999999999998,53.100479850623984 L 172,52.088452935336825 L 187.2,54.481172259463 L 202.4,58.19593193039382 L 217.6,59.999276281908095 L 232.8,58.3215118403791 L 248,54.62302296996869 L 263.20000000000005,52.12310266776272 L 278.40000000000003,52.997768276020075 L 293.59999999999997,56.485680511018 L 308.8,59.550839583109195 L 324,59.52522471908464 L 339.2,56.43113198505805 L 354.4,52.96176701716825 L 369.6,52.13698542044869 L 384.8,54.67470570472305 L 400,58.36600811222536 L 415.2,59.997854992451664 L 430.40000000000003,58.149830219275856 L 445.6,54.43051865510576 L 460.79999999999995,52.07733809192319 L 476,53.13857851338611 L 491.2,56.69049944689961 L 506.40000000000003,59.64138571144872 L 521.6,59.42268354912916 L 536.8000000000001,56.22475890783813 L 552,52.83119631726875 L 567.1999999999999,52.19587036398429 L 582.4,54.871790794381184 L 597.6,58.5297436499543 L 612.8000000000001,59.98571988694792 L 628,57.972387287283205 L 643.1999999999999,54.24222037934399 L 658.4,52.042085822852734 L 673.6,53.28705704875176 L 688.8,56.89346791945303 L 704,59.72217332259751 L 719.2,59.31096995996322 L 734.4,56.017783501219604 L 749.6,52.70911766618316 L 764.8,52.264949960707 L 780,55.07189936185795"
      stroke="url(#thread-3)"
      stroke-width="7.724"
      stroke-linecap="round"
      fill="none"
      opacity="0.9181818181818182"
      class="thread"
      style="animation-delay: 0.30000000000000004s"
    >
      <title>2026-01-10: 3862 stars, TypeScript, Unknown, Shell, Python</title>
    </path>

    <path
      d="M 20,71.63718970730272 L 35.2,68.63194573909472 L 50.400000000000006,65.0637357208803 L 65.6,64.11128367163155 L 80.80000000000001,66.62307726175224 L 96,70.36149634700766 L 111.2,71.99618691834996 L 126.4,70.07089215339819 L 141.60000000000002,66.30075232744808 L 156.79999999999998,64.04437973026276 L 172,65.31185385094486 L 187.2,68.97405100835695 L 202.4,71.76851915874228 L 217.6,71.20581878353588 L 232.8,67.78722900841217 L 248,64.55818532447935 L 263.20000000000005,64.39526693084066 L 278.40000000000003,67.4436089536092 L 293.59999999999997,70.98760946454836 L 308.8,71.87011137652881 L 324,69.30494178770861 L 339.2,65.57727061328237 L 354.4,64.00787713375551 L 369.6,65.99484854778648 L 384.8,69.76810021166028 L 400,71.96624766864478 L 415.2,70.63108103672872 L 430.40000000000003,66.95202756950334 L 445.6,64.20655567932519 L 460.79999999999995,64.84045678434879 L 476,68.28902290552986 L 491.2,71.48011425724637 L 506.40000000000003,71.57096130669171 L 521.6,68.48063336406608 L 536.8000000000001,64.96213532750612 L 552,64.14990551830665 L 567.1999999999999,66.76751524820321 L 582.4,70.48307853564117 L 597.6,71.98660235736784 L 612.8000000000001,69.93867920630755 L 628,66.16369230992001 L 643.1999999999999,64.02457194910188 L 658.4,65.42694397986914 L 673.6,69.1215115180756 L 688.8,71.8169855102568 L 704,71.11211494323706 L 719.2,67.63483062552113 L 734.4,64.48285582034055 L 749.6,64.46411325905851 L 764.8,67.59529966900335 L 780,71.08701156821543"
      stroke="url(#thread-4)"
      stroke-width="7.822"
      stroke-linecap="round"
      fill="none"
      opacity="0.8909090909090909"
      class="thread"
      style="animation-delay: 0.4s"
    >
      <title>2026-01-09: 3911 stars, TypeScript, Unknown, Python, Shell</title>
    </path>

    <path
      d="M 20,82.39388857641583 L 35.2,78.79534934513114 L 50.400000000000006,76.19977506992475 L 65.6,76.76818233133696 L 80.80000000000001,80.02732806784387 L 96,83.26372107163616 L 111.2,83.78281354681859 L 126.4,81.15242081024864 L 141.60000000000002,77.56254850782848 L 156.79999999999998,76.00204332433869 L 172,77.77014666764548 L 187.2,81.39477558582065 L 202.4,83.85814581998011 L 217.6,83.1093108913895 L 232.8,79.77173386648073 L 248,76.62420607423041 L 263.20000000000005,76.28728814036884 L 278.40000000000003,79.0414903351322 L 293.59999999999997,82.59372605109877 L 308.8,83.98648397621767 L 324,82.06018528525126 L 339.2,78.41862280740708 L 354.4,76.0936793012969 L 369.6,77.02105027504648 L 384.8,80.42862757913062 L 400,83.47933923146823 L 415.2,83.63323154006761 L 430.40000000000003,80.76217724088642 L 445.6,77.25655136708326 L 460.79999999999995,76.03505892772873 L 476,78.11468696868182 L 491.2,81.76398410333222 L 506.40000000000003,83.94462787231953 L 521.6,82.84106347297534 L 536.8000000000001,79.37209372572258 L 552,76.42590457569659 L 567.1999999999999,76.45542663768694 L 582.4,79.43608050895327 L 597.6,82.88624102538962 L 612.8000000000001,83.93338238306715 L 628,81.7056783130455 L 643.1999999999999,78.05786496286612 L 658.4,76.02702942641575 L 673.6,77.30399955190569 L 688.8,80.82559882368064 L 704,83.65982314190835 L 719.2,83.44696128461902 L 734.4,80.36423723163128 L 749.6,76.9782574774586 L 764.8,76.10811237140685 L 780,78.47826509667829"
      stroke="url(#thread-5)"
      stroke-width="7.54"
      stroke-linecap="round"
      fill="none"
      opacity="0.8636363636363636"
      class="thread"
      style="animation-delay: 0.5s"
    >
      <title>2026-01-08: 3770 stars, TypeScript, Unknown, Python, Rust, JavaScript</title>
    </path>

    <path
      d="M 20,92.56448003223947 L 35.2,89.26135671294813 L 50.400000000000006,88.01249850566474 L 65.6,89.75467795656078 L 80.80000000000001,93.18108067262872 L 96,95.72155098862132 L 111.2,95.47047397363119 L 126.4,92.61618330176617 L 141.60000000000002,89.2996915592452 L 156.79999999999998,88.00870983759104 L 172,89.71160766618804 L 187.2,93.13103592288505 L 202.4,95.70207050677494 L 217.6,95.49617013158586 L 232.8,92.66778132903661 L 248,89.33848761010927 L 263.20000000000005,88.00560286988286 L 278.40000000000003,89.66892822634908 L 293.59999999999997,93.08079799560463 L 308.8,95.6819577224111 L 324,95.52126915418839 L 339.2,92.71926530126284 L 354.4,89.37773823929143 L 369.6,88.00317813320093 L 384.8,89.62664692656392 L 400,93.03037547127445 L 415.2,95.66121607073292 L 430.40000000000003,95.54576675460115 L 445.6,92.77062642513702 L 460.79999999999995,89.41743674290214 L 476,88.00143604168302 L 491.2,89.58477098835158 L 506.40000000000003,92.97977696191019 L 521.6,95.63984909435219 L 536.8000000000001,95.5696587487076 L 552,92.82185592833366 L 567.1999999999999,89.4575763405563 L 582.4,88.0003768928731 L 597.6,89.5433075639964 L 612.8000000000001,92.92901110958512 L 628,95.61786044268423 L 643.1999999999999,95.59294105582698 L 658.4,92.87294506100748 L 673.6,89.49815017653128 L 688.8,88.00000086767061 L 704,89.5022637353267 L 719.2,92.87808658495435 L 734.4,95.5952538713247 L 749.6,95.61560969941115 L 764.8,92.92388509728815 L 780,89.53915132093779"
      stroke="url(#thread-6)"
      stroke-width="7.128"
      stroke-linecap="round"
      fill="none"
      opacity="0.8363636363636364"
      class="thread"
      style="animation-delay: 0.6000000000000001s"
    >
      <title>2026-01-07: 3564 stars, TypeScript, Python, Unknown, Shell, Rust</title>
    </path>

    <path
      d="M 20,102.59686708924153 L 35.2,100.04538433452346 L 50.400000000000006,101.54762319518258 L 65.6,105.56369745823599 L 80.80000000000001,107.97688670727939 L 96,106.31352516835588 L 111.2,102.27865960072084 L 126.4,100.00827265104502 L 141.60000000000002,101.82964904980604 L 156.79999999999998,105.8757671944114 L 172,107.99910986230438 L 187.2,106.023121656501 L 202.4,101.973310686809 L 217.6,100.00097954613251 L 232.8,102.1278876300659 L 248,106.1738247733004 L 263.20000000000005,107.99145929069468 L 278.40000000000003,105.71760523567485 L 293.59999999999997,101.68310133259928 L 308.8,100.02355949996529 L 324,102.44011106572972 L 339.2,106.45564367676776 L 354.4,107.95399214293943 L 369.6,105.39925814226315 L 384.8,101.41019942925074 L 400,100.07584383816543 L 415.2,102.76398701838045 L 430.40000000000003,106.71911869111037 L 445.6,107.88698830215472 L 460.79999999999995,105.07045845898206 L 476,101.15664357963735 L 491.2,100.15744199181124 L 506.40000000000003,103.0970961042036 L 521.6,106.96228163320127 L 536.8000000000001,107.79094829333037 L 552,104.7336623503767 L 567.1999999999999,100.92432786979298 L 582.4,100.2677444150238 L 597.6,103.43694996701188 L 612.8000000000001,107.1833160530029 L 628,107.6665895443612 L 643.1999999999999,104.39138571504117 L 658.4,100.71498771991057 L 673.6,100.40592713833198 L 688.8,103.78100986649993 L 704,107.3805708026195 L 719.2,107.51484102679315 L 734.4,104.0461853916194 L 749.6,100.53018692059014 L 764.8,100.57095792380188 L 780,104.12670564287286"
      stroke="url(#thread-7)"
      stroke-width="8"
      stroke-linecap="round"
      fill="none"
      opacity="0.8090909090909091"
      class="thread"
      style="animation-delay: 0.7000000000000001s"
    >
      <title>2026-01-06: 4224 stars, TypeScript, Python, Rust, JavaScript, Go</title>
    </path>

    <path
      d="M 20,112.9727900187683 L 35.2,112.10864937808722 L 50.400000000000006,114.4748354300573 L 65.6,118.10710626843246 L 80.80000000000001,119.99020508801273 L 96,118.5609151620566 L 111.2,115.00573286366242 L 126.4,112.27592149228029 L 141.60000000000002,112.6375792219534 L 156.79999999999998,115.79048314005395 L 172,119.11731327838069 L 187.2,119.85636830443572 L 202.4,117.3941365072568 L 217.6,113.77459024264566 L 232.8,112.00242326603463 L 248,113.54876445903746 L 263.20000000000005,117.12994968623177 L 278.40000000000003,119.77312983821312 L 293.59999999999997,119.28412191066666 L 308.8,116.0688660294644 L 324,112.79644239474666 L 339.2,112.1833878709544 L 354.4,114.73861737855377 L 369.6,118.34095837715036 L 384.8,119.99999971790808 L 400,118.33852149751557 L 415.2,114.73576654605073 L 430.40000000000003,112.18248964702299 L 445.6,112.79824242197309 L 460.79999999999995,116.07187005133927 L 476,119.28583619866473 L 491.2,119.77213131052625 L 506.40000000000003,117.12706725059755 L 521.6,113.54639091160142 L 536.8000000000001,112.00252895960841 L 552,113.77708743782823 L 567.1999999999999,117.39695220753906 L 582.4,119.8571651126864 L 597.6,119.11542974020747 L 612.8000000000001,115.78748283690415 L 628,112.63595279532727 L 643.1999999999999,112.27701908762975 L 658.4,115.00864333421616 L 673.6,118.5632224390428 L 688.8,119.98999383170487 L 704,118.10455184901856 L 719.2,114.47205834759473 L 734.4,112.10795497189852 L 749.6,112.97475473622734 L 764.8,116.35290119657238 L 780,119.43809380466446"
      stroke="url(#thread-8)"
      stroke-width="7.528"
      stroke-linecap="round"
      fill="none"
      opacity="0.7818181818181817"
      class="thread"
      style="animation-delay: 0.8s"
    >
      <title>2026-01-05: 3764 stars, Go, TypeScript, Python, Rust, JavaScript</title>
    </path>

    <path
      d="M 20,124.08987952933961 L 35.2,125.1270968298927 L 50.400000000000006,128.71882209067644 L 65.6,131.67139014918175 L 80.80000000000001,131.35945717654133 L 96,128.0603855530677 L 111.2,124.70762072559076 L 126.4,124.28235068877974 L 141.60000000000002,127.16271408148087 L 156.79999999999998,130.78756951488182 L 172,131.9337933711538 L 187.2,129.5821943334716 L 202.4,125.82375079732546 L 217.6,124.00036931601012 L 232.8,125.7333514902973 L 248,129.48177634337975 L 263.20000000000005,131.9126456645423 L 278.40000000000003,130.86449606170058 L 293.59999999999997,127.26931387251862 L 308.8,124.32383806693593 L 324,124.64710623393839 L 339.2,127.95167704431958 L 354.4,131.29921532267252 L 369.6,131.7131803807463 L 384.8,128.82548566167057 L 400,125.20379137180002 L 415.2,124.0684103254544 L 430.40000000000003,126.42889270551595 L 445.6,130.1863612882089 L 460.79999999999995,131.9997764225355 L 476,130.25669831447823 L 491.2,126.5070249726671 L 506.40000000000003,124.08486473029849 L 521.6,125.1439371016482 L 536.8000000000001,128.74254351809645 L 552,131.68090027923725 L 567.1999999999999,131.34629985826197 L 582.4,128.03625991875617 L 597.6,124.69397863813462 L 612.8000000000001,124.29132232414995 L 628,127.18632210364746 L 643.1999999999999,130.8048223077063 L 658.4,131.92935021690337 L 673.6,129.5600059649866 L 688.8,125.80354651300661 L 704,124.00011422016733 L 719.2,125.75327240726905 L 734.4,129.50416013145315 L 749.6,131.91758926349294 L 764.8,130.8476037567675 L 780,127.24560584533104"
      stroke="url(#thread-9)"
      stroke-width="7.814"
      stroke-linecap="round"
      fill="none"
      opacity="0.7545454545454545"
      class="thread"
      style="animation-delay: 0.9s"
    >
      <title>2026-01-04: 3907 stars, Python, Jupyter Notebook, TypeScript, Go, Rust</title>
    </path>

    <path
      d="M 20,136.16430290134744 L 35.2,138.79683707643434 L 50.400000000000006,142.49065390477472 L 65.6,143.98752156470002 L 80.80000000000001,141.96708713427444 L 96,138.21152987704443 L 111.2,136.03354144293752 L 126.4,137.35427589914698 L 141.60000000000002,141.00874341721692 L 156.79999999999998,143.77342130720953 L 172,143.20965007504142 L 187.2,139.81471950365417 L 202.4,136.58322064455348 L 217.6,136.36558515250493 L 232.8,139.35378434570617 L 248,142.91199567170352 L 263.20000000000005,143.90160183858467 L 278.40000000000003,141.44969375158536 L 293.59999999999997,137.71904377439557 L 308.8,136.00037341164605 L 324,137.80968270532722 L 339.2,141.5510210737311 L 354.4,143.92423902540617 L 369.6,142.8359749755071 L 384.8,139.24616189378872 L 400,136.32129226221633 L 415.2,136.64132706713443 L 430.40000000000003,139.92397088516813 L 445.6,143.2736782563856 L 460.79999999999995,143.7357484857115 L 476,140.90259993198694 L 491.2,137.2732885046537 L 506.40000000000003,136.04914727809572 L 521.6,138.30996338955984 L 536.8000000000001,142.06152236127426 L 552,143.99465934003814 L 567.1999999999999,142.40419815914848 L 582.4,138.69304845693495 L 597.6,136.1347309889355 L 612.8000000000001,136.9858794139208 L 628,140.4957150625283 L 643.1999999999999,143.5682917277401 L 658.4,143.49335940790488 L 673.6,140.3370141982825 L 688.8,136.8833964285339 L 704,136.1788637932095 L 719.2,138.84486850786203 L 734.4,142.5297884424082 L 749.6,143.9832395228675 L 764.8,141.92316560469666 L 780,138.16671104212438"
      stroke="url(#thread-10)"
      stroke-width="7.78"
      stroke-linecap="round"
      fill="none"
      opacity="0.7272727272727273"
      class="thread"
      style="animation-delay: 1s"
    >
      <title>2026-01-03: 3890 stars, Go, Python, Jupyter Notebook, TypeScript, Rust, JavaScript</title>
    </path>

    <path
      d="M 20,149.17783869771844 L 35.2,151.51243859663933 L 50.400000000000006,154.0524147782939 L 65.6,155.72784894557205 L 80.80000000000001,155.83299523986236 L 96,154.32356271664847 L 111.2,151.83537209208674 L 126.4,149.41652794886744 L 141.60000000000002,148.0859239385846 L 156.79999999999998,148.4040525521097 L 172,150.23690795627655 L 187.2,152.81243348888538 L 202.4,155.04573634191883 L 217.6,155.99607872314604 L 232.8,155.26314636602467 L 248,153.1556735591248 L 263.20000000000005,150.56139449973932 L 278.40000000000003,148.57310157446378 L 293.59999999999997,148.02832664526272 L 308.8,149.15654614139123 L 324,151.48251832996118 L 339.2,154.02647016384927 L 354.4,155.7168086754905 L 369.6,155.84150982506233 L 384.8,154.3480455445611 L 400,151.86551022130024 L 415.2,149.4396262462073 L 430.40000000000003,148.09225267070352 L 445.6,148.39094585688645 L 460.79999999999995,150.20988678825205 L 476,152.7828800186042 L 491.2,155.02609942572275 L 506.40000000000003,155.99463005117482 L 521.6,155.28049616472833 L 536.8000000000001,153.18451354458387 L 552,150.58957635798384 L 567.1999999999999,148.58875421552042 L 582.4,148.02485668168737 L 597.6,149.13541523158304 L 612.8000000000001,151.4526274814184 L 628,154.00041034730742 L 643.1999999999999,155.7055571098459 L 658.4,155.849806025607 L 673.6,154.3723948892496 L 688.8,151.89565599607636 L 704,149.46287009734374 L 719.2,148.09880355299057 L 734.4,148.3780443315263 L 749.6,150.18296738575063 L 764.8,152.7532820426493 L 780,155.00629047985342"
      stroke="url(#thread-11)"
      stroke-width="5.26"
      stroke-linecap="round"
      fill="none"
      opacity="0.7"
      class="thread"
      style="animation-delay: 1.1s"
    >
      <title>2026-01-02: 2630 stars, TypeScript, Rust, Python, JavaScript, Jupyter Notebook, Shell</title>
    </path>

    <path
      d="M 20,162.88233800720428 L 35.2,166.4087026307155 L 50.400000000000006,167.9999532280923 L 65.6,166.3777039534389 L 80.80000000000001,162.8452445052166 L 96,160.2404975633934 L 111.2,160.65607608789932 L 126.4,163.7581107909789 L 141.60000000000002,167.05447550191346 L 156.79999999999998,167.89692236061364 L 172,165.6086427350154 L 187.2,162.02800469212144 L 202.4,160.03163684144025 L 217.6,161.2233898949335 L 232.8,164.64582808610385 L 248,167.5494180923823 L 263.20000000000005,167.60146110917452 L 278.40000000000003,164.76014659064035 L 293.59999999999997,161.30814218838674 L 308.8,160.0187342566094 L 324,161.9278129638885 L 339.2,165.5016543310407 L 354.4,167.86909009156176 L 369.6,167.1281593774986 L 384.8,163.87411433782717 L 400,160.72120387054065 L 415.2,160.2024269397245 L 430.40000000000003,162.7345608189432 L 445.6,166.2833287472374 L 460.79999999999995,167.99770606678197 L 476,166.50038884855186 L 491.2,162.99429833057013 L 506.40000000000003,160.29617280660779 L 521.6,160.57364412922766 L 536.8000000000001,163.60379617694394 L 552,166.95225218025314 L 567.1999999999999,167.9289149493777 L 582.4,165.7491488886921 L 597.6,162.16414396408746 L 612.8000000000001,160.0540370695491 L 628,161.11405508621817 L 643.1999999999999,164.49259611610432 L 658.4,167.4753931295489 L 673.6,167.66611365104245 L 688.8,164.9115357961118 L 704,161.424644337216 L 719.2,160.0067533442921 L 734.4,161.79697426802238 L 749.6,165.3570716138242 L 764.8,167.8269188470166 L 780,167.22227932401688"
      stroke="url(#thread-12)"
      stroke-width="7.396"
      stroke-linecap="round"
      fill="none"
      opacity="0.6727272727272728"
      class="thread"
      style="animation-delay: 1.2000000000000002s"
    >
      <title>2026-01-01: 3698 stars, Rust, Python, JavaScript, TypeScript, Jupyter Notebook, Go, Shell</title>
    </path>

    <path
      d="M 20,176.86047995235126 L 35.2,179.64692678433858 L 50.400000000000006,179.49614203651444 L 65.6,176.52956761030802 L 80.80000000000001,173.13647990302292 L 96,172.04966872818298 L 111.2,174.14445083679638 L 126.4,177.73369058669277 L 141.60000000000002,179.92661748415568 L 156.79999999999998,178.9570501616 L 172,175.60587727596106 L 187.2,172.57213048078816 L 202.4,172.29918673944684 L 217.6,175.00687469780473 L 232.8,178.51442488889094 L 248,179.99685951680473 L 263.20000000000005,178.26022705424555 L 278.40000000000003,174.70320973784612 L 293.59999999999997,172.19062614212015 L 308.8,172.74610885436698 L 324,175.92227259351728 L 339.2,179.1610379165322 L 354.4,179.85390612055582 L 369.6,177.44284177196087 L 384.8,173.8697139469413 L 400,172.01231660928622 L 415.2,173.36659591833367 L 430.40000000000003,176.8418165263103 L 445.6,179.63903885472064 L 460.79999999999995,179.50538253479945 L 476,176.5484942474178 L 491.2,173.14984918230783 L 506.40000000000003,172.0467130440296 L 521.6,174.12755069458595 L 536.8000000000001,177.7164573458902 L 552,179.92293078153492 L 567.1999999999999,178.96987926416404 L 582.4,175.6248896359457 L 597.6,172.58201356041684 L 612.8000000000001,172.29198071520022 L 628,174.9883832951848 L 643.1999999999999,178.4995410670773 L 658.4,179.99757069261287 L 673.6,178.2759604473138 L 688.8,174.7212936874282 L 704,172.19649585134974 L 719.2,172.73503686466515 L 734.4,175.90317627551596 L 749.6,179.14929742771974 L 764.8,179.85897724015175 L 780,177.46064022476497"
      stroke="url(#thread-13)"
      stroke-width="7.406"
      stroke-linecap="round"
      fill="none"
      opacity="0.6454545454545455"
      class="thread"
      style="animation-delay: 1.3s"
    >
      <title>2025-12-31: 3703 stars, Go, Python, TypeScript, Rust, Shell</title>
    </path>

    <path
      d="M 20,190.62794639487515 L 35.2,191.89421265644117 L 50.400000000000006,189.0121644900182 L 65.6,185.05190695809085 L 80.80000000000001,184.23210886680997 L 96,187.4260610582854 L 111.2,191.23140235527396 L 126.4,191.59448864575987 L 141.60000000000002,188.12854184895798 L 156.79999999999998,184.52566570245793 L 172,184.6238280881787 L 187.2,188.31846141392734 L 202.4,191.67385335901653 L 217.6,191.11566886643584 L 232.8,187.2385145969751 L 248,184.17253351263727 L 263.20000000000005,185.18376542433575 L 278.40000000000003,189.19499439667393 L 293.59999999999997,191.9332542390677 L 308.8,190.48161056351017 L 324,186.38642843397747 L 339.2,184.0101052365199 L 354.4,185.88402193957873 L 369.6,190.0119866599781 L 384.8,191.99668031974258 L 400,189.72390575752266 L 415.2,185.61473864118886 L 430.40000000000003,184.04647387976743 L 445.6,186.68970728059074 L 460.79999999999995,190.72873147979882 L 476,191.86097139000978 L 491.2,188.8803071688199 L 506.40000000000003,184.96189474237022 L 521.6,184.27982737096752 L 536.8000000000001,187.56067809190355 L 552,191.30951697133773 L 567.1999999999999,191.53288916133303 L 582.4,187.99284718435854 L 597.6,184.4604247523201 L 612.8000000000001,184.69853884827953 L 628,188.45353816273732 L 643.1999999999999,191.7254054373937 L 658.4,191.02878036469787 L 673.6,187.10574358967654 L 688.8,184.1353144651723 L 704,185.28174596902863 L 719.2,189.32380064769194 L 734.4,191.95567519211977 L 749.6,190.37376227304924 L 764.8,186.26319641315413 L 780,184.00276253461828"
      stroke="url(#thread-14)"
      stroke-width="8"
      stroke-linecap="round"
      fill="none"
      opacity="0.6181818181818182"
      class="thread"
      style="animation-delay: 1.4000000000000001s"
    >
      <title>2025-12-30: 4315 stars, Go, Shell, Rust, Python, Swift, TypeScript</title>
    </path>

    <path
      d="M 20,203.75199990709896 L 35.2,203.56650930538072 L 50.400000000000006,201.09417524811897 L 65.6,197.92025673077924 L 80.80000000000001,196.0798682500086 L 96,196.75306570712155 L 111.2,199.50819532884339 L 126.4,202.57866978702575 L 141.60000000000002,203.9957028487225 L 156.79999999999998,202.85069383299862 L 172,199.87782177878054 L 187.2,196.98329032083794 L 202.4,196.0230711543728 L 217.6,197.61285618670894 L 232.8,200.73327628527917 L 248,203.38352010488495 L 263.20000000000005,203.86425302572974 L 278.40000000000003,201.86722941047853 L 293.59999999999997,198.6729395071767 L 308.8,196.32955993194966 L 324,196.33966414994367 L 339.2,198.69677334312843 L 354.4,201.88951062421987 L 369.6,203.87069491744774 L 384.8,203.36999213778435 L 400,200.70845258309885 L 415.2,197.59265369120138 L 430.40000000000003,196.0204436925664 L 445.6,196.99992261954043 L 460.79999999999995,199.9030492188414 L 476,202.86834059619804 L 491.2,203.99445384193191 L 506.40000000000003,202.55932587258994 L 521.6,199.4831598121639 L 536.8000000000001,196.7383913452705 L 552,196.08496423429597 L 567.1999999999999,197.9418555193822 L 582.4,201.11842771178104 L 597.6,203.57786478011718 L 612.8000000000001,203.74317726986706 L 628,201.50836691972407 L 643.1999999999999,198.30639267806248 L 658.4,196.1903583537846 L 673.6,196.5170637844458 L 688.8,199.0770256596084 L 704,202.22879808375086 L 719.2,203.95146662083377 L 734.4,203.14045732115363 L 749.6,200.31578882213847 L 764.8,197.2886367349965 L 780,196.00000901643526"
      stroke="url(#thread-15)"
      stroke-width="6.556"
      stroke-linecap="round"
      fill="none"
      opacity="0.5909090909090909"
      class="thread"
      style="animation-delay: 1.5s"
    >
      <title>2025-12-29: 3278 stars, Shell, Go, JavaScript, TypeScript, Rust, Python</title>
    </path>

    <path
      d="M 20,215.95743298649353 L 35.2,213.81507640040033 L 50.400000000000006,210.142966487831 L 65.6,208.0359715158733 L 80.80000000000001,209.26987489866346 L 96,212.80473814988915 L 111.2,215.66136501312386 L 126.4,215.43217945158443 L 141.60000000000002,212.31033993235687 L 156.79999999999998,208.92694473219123 L 172,208.1335322552535 L 187.2,210.5987935690907 L 202.4,214.24499701753476 L 217.6,215.9991084004628 L 232.8,214.3827559410989 L 248,210.75820766900065 L 263.20000000000005,208.18024671891257 L 278.40000000000003,208.8215884311107 L 293.59999999999997,212.14170755970093 L 308.8,215.34239501544724 L 324,215.7260991793883 L 339.2,212.96943271584936 L 354.4,209.39572465475658 L 369.6,208.01690980673584 L 384.8,209.9950585947673 L 400,213.66297966090673 L 415.2,215.9293351138449 L 430.40000000000003,214.8840319170876 L 445.6,211.40805559943303 L 460.79999999999995,208.43097228466058 L 476,208.4618791672274 L 491.2,211.47472780839718 L 506.40000000000003,214.9302778599498 L 521.6,215.9161785332344 L 536.8000000000001,213.60150897323925 L 552,209.93708153051602 L 567.1999999999999,208.011289657208 L 582.4,209.44719810345134 L 597.6,213.0346177435037 L 612.8000000000001,215.750057595594 L 628,215.30493457547033 L 643.1999999999999,212.07440006550704 L 658.4,208.7811608960185 L 673.6,208.20077162398945 L 688.8,210.82238654581303 L 704,214.4364985870131 L 719.2,215.99712030812765 L 734.4,214.18895375876775 L 749.6,210.535928616547 L 764.8,208.11682843117208 L 780,208.97048008334068"
      stroke="url(#thread-16)"
      stroke-width="7.59"
      stroke-linecap="round"
      fill="none"
      opacity="0.5636363636363636"
      class="thread"
      style="animation-delay: 1.6s"
    >
      <title>2025-12-28: 3795 stars, Shell, Rust, Python, JavaScript, TypeScript</title>
    </path>

    <path
      d="M 20,227.19394845049396 L 35.2,222.3384497276205 L 50.400000000000006,220.0884771238406 L 65.6,223.9722792175123 L 80.80000000000001,227.89955108998882 L 96,225.71182157694912 L 111.2,220.8397340254485 L 126.4,220.92335300709084 L 141.60000000000002,225.8315531239012 L 156.79999999999998,227.86764062265772 L 172,223.83876648340717 L 187.2,220.06272738967968 L 202.4,222.46084191303763 L 217.6,227.27255575003616 L 232.8,226.95247813621216 L 248,222.00253224344848 L 263.20000000000005,220.18487461078593 L 278.40000000000003,224.3498279255361 L 293.59999999999997,227.9662057248026 L 308.8,225.36305903452592 L 324,220.62245916250615 L 339.2,221.1782809616721 L 354.4,226.15892383145064 L 369.6,227.75409439534317 L 384.8,223.46235851817968 L 400,220.01371414831368 L 415.2,222.81608250878622 L 430.40000000000003,227.47498689918675 L 445.6,226.68466156729153 L 460.79999999999995,221.68443903831226 L 476,220.31531613136883 L 491.2,224.72425496586897 L 506.40000000000003,227.99746817002008 L 521.6,225.0021333197591 L 536.8000000000001,220.43532357472594 L 552,221.45838835023162 L 567.1999999999999,226.46702951674243 L 582.4,227.6070487406612 L 597.6,223.09074816320737 L 612.8000000000001,220.00027228030473 L 628,223.18188771848145 L 643.1999999999999,227.6464092193168 L 658.4,226.3928885881935 L 673.6,221.38700859710315 L 688.8,220.47863769880996 L 704,225.09221916215222 L 719.2,227.9930594571598 L 734.4,224.63226513077024 L 749.6,220.27999715486254 L 764.8,221.7611756519449 L 780,226.75312081789625"
      stroke="url(#thread-17)"
      stroke-width="8"
      stroke-linecap="round"
      fill="none"
      opacity="0.5363636363636364"
      class="thread"
      style="animation-delay: 1.7000000000000002s"
    >
      <title>2025-12-27: 5384 stars, Shell, Python, Rust, C, Go</title>
    </path>

    <path
      d="M 20,237.64847394096702 L 35.2,233.97434678586657 L 50.400000000000006,232.01409631829677 L 65.6,233.42626288200847 L 80.80000000000001,237.01603221384505 L 96,239.74615098311773 L 111.2,239.3067041065342 L 126.4,236.06950140422052 L 141.60000000000002,232.7734945415436 L 156.79999999999998,232.2073885566951 L 172,234.85015775946005 L 187.2,238.46579230593215 L 202.4,239.9951546711921 L 217.6,238.14427287310718 L 232.8,234.4791519627787 L 248,232.10079918140923 L 263.20000000000005,233.02150535858024 L 278.40000000000003,236.46227395030823 L 293.59999999999997,239.51191905596366 L 308.8,239.5901788541465 L 324,236.6308388305753 L 339.2,233.13775494711314 L 354.4,232.06637633675288 L 369.6,234.32318136953523 L 384.8,237.99871905602112 L 400,239.98316866724468 L 415.2,238.59751530444385 L 430.40000000000003,235.014140784473 L 445.6,232.26488787766382 L 460.79999999999995,232.67586079189851 L 476,235.89934112602197 L 491.2,239.20798751734628 L 506.40000000000003,239.80240080030453 L 521.6,237.17965625840887 L 536.8000000000001,233.55882115171164 L 552,232.00343312597695 L 567.1999999999999,233.8294841085355 L 582.4,237.4919780519822 L 597.6,239.89213035483687 L 612.8000000000001,238.99920591906582 L 628,235.56869554808824 L 643.1999999999999,232.50310580626982 L 658.4,232.3961890473584 L 673.6,235.338406036961 L 688.8,238.840388371368 L 704,239.9391580634258 L 719.2,237.70506153420789 L 734.4,234.0283364277514 L 749.6,232.01980813235463 L 764.8,233.37886418271898 L 780,236.95562637387079"
      stroke="url(#thread-18)"
      stroke-width="7.606"
      stroke-linecap="round"
      fill="none"
      opacity="0.509090909090909"
      class="thread"
      style="animation-delay: 1.8s"
    >
      <title>2025-12-26: 3803 stars, Python, Shell, Go, TypeScript</title>
    </path>

    <path
      d="M 20,247.69939551815276 L 35.2,244.72867394638922 L 50.400000000000006,244.1441139012675 L 65.6,246.37210354062407 L 80.80000000000001,249.78750887534727 L 96,251.8990744713882 L 111.2,251.16658804061612 L 126.4,248.12433779253752 L 141.60000000000002,244.99139341859117 L 156.79999999999998,244.05297846656998 L 172,245.99358895363704 L 187.2,249.3977101904736 L 202.4,251.78231755824106 L 217.6,251.4080374011606 L 232.8,248.54787610758206 L 248,245.2880845515796 L 263.20000000000005,244.00641079871812 L 278.40000000000003,245.63772974335708 L 293.59999999999997,248.9921292704742 L 308.8,251.6228526320658 L 324,251.61100493052942 L 339.2,248.96522808327774 L 354.4,245.6153972594408 L 369.6,244.00493671621732 L 384.8,245.30854409164093 L 400,248.57534572955348 L 415.2,251.42248028999362 L 430.40000000000003,251.77319882224276 L 445.6,249.37168119262466 L 460.79999999999995,245.96963569295633 L 476,244.0485728636601 L 491.2,245.0097489960399 L 506.40000000000003,248.15206567623395 L 521.6,251.18346303496457 L 536.8000000000001,251.8927876650736 L 552,249.76264597309842 L 567.1999999999999,246.34679997125926 L 582.4,244.1368265237839 L 597.6,244.74471829934714 L 612.8000000000001,247.72706857436367 L 628,250.90849972869094 L 643.1999999999999,251.96842112241507 L 658.4,250.1337078485347 L 673.6,246.74263134646205 L 688.8,244.26870118098464 L 704,244.516444593875 L 719.2,247.30515327583288 L 734.4,250.60069511747858 L 749.6,251.99924517959715 L 764.8,250.48067697628647 L 780,247.1526602912791"
      stroke="url(#thread-19)"
      stroke-width="7.022"
      stroke-linecap="round"
      fill="none"
      opacity="0.4818181818181818"
      class="thread"
      style="animation-delay: 1.9000000000000001s"
    >
      <title>2025-12-25: 3511 stars, Python, TypeScript</title>
    </path>

    <path
      d="M 20,257.8239155564425 L 35.2,256.1446399125499 L 50.400000000000006,256.40887909069795 L 65.6,258.48342821568804 L 80.80000000000001,261.32249211352473 L 96,263.4948782001153 L 111.2,263.90547098359485 L 126.4,262.3472876809251 L 141.60000000000002,259.6058197314278 L 156.79999999999998,257.06306089784937 L 172,256.0008342446608 L 187.2,256.9546158877141 L 202.4,259.44359762279026 L 217.6,262.21306580857333 L 232.8,263.86691156128853 L 248,263.5714193107006 L 263.20000000000005,261.47554883119875 L 278.40000000000003,258.63584354534123 L 293.59999999999997,256.48381936554756 L 308.8,256.10432719963126 L 324,257.6886717850429 L 339.2,260.438173591175 L 354.4,262.9667889302174 L 369.6,263.999824575287 L 384.8,263.0165198082281 L 400,260.5125656529695 L 415.2,257.75022345581107 L 430.40000000000003,256.12200983827444 L 445.6,256.4487190264118 L 460.79999999999995,258.56565456250223 L 476,261.4056539770557 L 491.2,263.53705308525616 L 506.40000000000003,263.8853982266126 L 521.6,262.2750861033641 L 536.8000000000001,259.51788666920004 L 552,257.00372404173095 L 567.1999999999999,256.00000573171377 L 582.4,257.0127133772897 L 597.6,259.531333751438 L 612.8000000000001,262.28621216115494 L 628,263.8885945339912 L 643.1999999999999,263.5307083606236 L 658.4,261.3929666418526 L 673.6,258.5530203938961 L 688.8,256.44250699990505 L 704,256.1253514812256 L 719.2,257.76143422191103 L 734.4,260.52599411418373 L 749.6,263.02539658042247 L 764.8,263.9996748135857 L 780,262.95768813057407"
      stroke="url(#thread-20)"
      stroke-width="5.776"
      stroke-linecap="round"
      fill="none"
      opacity="0.4545454545454546"
      class="thread"
      style="animation-delay: 2s"
    >
      <title>2025-12-24: 2888 stars, Python, TypeScript</title>
    </path>

    <path
      d="M 20,268.48121696011333 L 35.2,268.1055709901343 L 50.400000000000006,269.69313476772135 L 65.6,272.44360594427695 L 80.80000000000001,274.97045216537015 L 96,275.9998720292335 L 111.2,275.01292755909174 L 126.4,272.5071445794445 L 141.60000000000002,269.7457063601541 L 156.79999999999998,268.1206738209801 L 172,268.4512375834325 L 187.2,270.5707580710819 L 202.4,273.41076972171663 L 217.6,275.539602182224 L 232.8,275.8840956577236 L 248,274.2705885029884 L 263.20000000000005,271.51246131012033 L 278.40000000000003,269.0001058865829 L 293.59999999999997,268.000018718599 L 308.8,269.0163509594256 L 324,271.5367621974385 L 339.2,274.2906949522452 L 354.4,275.8898718628561 L 369.6,275.52813631657125 L 384.8,273.3878418108374 L 400,270.5479262401892 L 415.2,268.4400115231254 L 430.40000000000003,268.12671266921325 L 445.6,269.7659658899855 L 460.79999999999995,272.5314118157898 L 476,275.0289692131121 L 491.2,275.9996013874569 L 506.40000000000003,274.9540056602679 L 521.6,272.41927437767094 L 536.8000000000001,269.67318385779856 L 552,268.1000581344578 L 567.1999999999999,268.4929212289842 L 582.4,270.6537280223938 L 597.6,273.49320022801555 L 612.8000000000001,275.5799394308578 L 628,275.8620053507741 L 643.1999999999999,274.1972065234875 L 658.4,271.4247800431101 L 673.6,268.94232609105455 L 688.8,268.00126760614273 L 704,269.07599895682466 L 719.2,271.6247403190675 L 734.4,274.36265279255895 L 749.6,275.9095349556466 L 764.8,275.48559235496737 L 780,273.30453751267873"
      stroke="url(#thread-21)"
      stroke-width="5.776"
      stroke-linecap="round"
      fill="none"
      opacity="0.42727272727272725"
      class="thread"
      style="animation-delay: 2.1s"
    >
      <title>2025-12-23: 2888 stars, Python, TypeScript</title>
    </path>
  </g>

  <!-- Date markers -->
  <g id="dates">
    <text x="785" y="24" class="date-label">01-13</text>
<text x="785" y="108" class="date-label">01-06</text>
<text x="785" y="192" class="date-label">12-30</text>
<text x="785" y="276" class="date-label">12-23</text>
  </g>

</svg>