<?xml version="1.0" encoding="UTF-8"?>
<svg xmlns="http://www.w3.org/2000/svg" viewBox="0 0 800 268" width="800" height="268">
  <title>The Data Tapestry - GitHub Trends Woven in Time</title>
  <desc>A living data art piece that weaves daily GitHub trending repositories into an evolving tapestry. Each thread represents one day of open source activity.</desc>

  <style>
    .thread {
      animation: breathe 8s ease-in-out infinite alternate;
    }

    @keyframes breathe {
      0% {
        opacity: 0.85;
      }
      100% {
        opacity: 1;
      }
    }

    .date-label {
      font-family: ui-monospace, monospace;
      font-size: 8px;
      fill: #666;
    }

    .title {
      font-family: system-ui, sans-serif;
      font-size: 14px;
      fill: #333;
      font-weight: 600;
    }

    .subtitle {
      font-family: system-ui, sans-serif;
      font-size: 10px;
      fill: #888;
    }

    .empty-state {
      font-family: system-ui, sans-serif;
      font-size: 12px;
      fill: #999;
      text-anchor: middle;
    }
  </style>

  <defs>
    
    <linearGradient id="thread-0" x1="0%" y1="0%" x2="100%" y2="0%">
      <stop offset="0%" stop-color="#3572A5" />
      <stop offset="50%" stop-color="#3178c6" />
      <stop offset="100%" stop-color="#89e051" />
    </linearGradient>

    <linearGradient id="thread-1" x1="0%" y1="0%" x2="100%" y2="0%">
      <stop offset="0%" stop-color="#3572A5" />
      <stop offset="50%" stop-color="#3178c6" />
      <stop offset="100%" stop-color="#8b8b8b" />
    </linearGradient>

    <linearGradient id="thread-2" x1="0%" y1="0%" x2="100%" y2="0%">
      <stop offset="0%" stop-color="#3572A5" />
      <stop offset="50%" stop-color="#3178c6" />
      <stop offset="100%" stop-color="#8b8b8b" />
    </linearGradient>

    <linearGradient id="thread-3" x1="0%" y1="0%" x2="100%" y2="0%">
      <stop offset="0%" stop-color="#3178c6" />
      <stop offset="50%" stop-color="#3572A5" />
      <stop offset="100%" stop-color="#dea584" />
    </linearGradient>

    <linearGradient id="thread-4" x1="0%" y1="0%" x2="100%" y2="0%">
      <stop offset="0%" stop-color="#3572A5" />
      <stop offset="50%" stop-color="#3178c6" />
      <stop offset="100%" stop-color="#00ADD8" />
    </linearGradient>

    <linearGradient id="thread-5" x1="0%" y1="0%" x2="100%" y2="0%">
      <stop offset="0%" stop-color="#3572A5" />
      <stop offset="50%" stop-color="#00ADD8" />
      <stop offset="100%" stop-color="#3178c6" />
    </linearGradient>

    <linearGradient id="thread-6" x1="0%" y1="0%" x2="100%" y2="0%">
      <stop offset="0%" stop-color="#3572A5" />
      <stop offset="50%" stop-color="#3178c6" />
      <stop offset="100%" stop-color="#00ADD8" />
    </linearGradient>

    <linearGradient id="thread-7" x1="0%" y1="0%" x2="100%" y2="0%">
      <stop offset="0%" stop-color="#3572A5" />
      <stop offset="50%" stop-color="#00ADD8" />
      <stop offset="100%" stop-color="#DA5B0B" />
    </linearGradient>

    <linearGradient id="thread-8" x1="0%" y1="0%" x2="100%" y2="0%">
      <stop offset="0%" stop-color="#3572A5" />
      <stop offset="50%" stop-color="#3178c6" />
      <stop offset="100%" stop-color="#dea584" />
    </linearGradient>

    <linearGradient id="thread-9" x1="0%" y1="0%" x2="100%" y2="0%">
      <stop offset="0%" stop-color="#dea584" />
      <stop offset="50%" stop-color="#3572A5" />
      <stop offset="100%" stop-color="#3178c6" />
    </linearGradient>

    <linearGradient id="thread-10" x1="0%" y1="0%" x2="100%" y2="0%">
      <stop offset="0%" stop-color="#3572A5" />
      <stop offset="50%" stop-color="#3178c6" />
      <stop offset="100%" stop-color="#dea584" />
    </linearGradient>

    <linearGradient id="thread-11" x1="0%" y1="0%" x2="100%" y2="0%">
      <stop offset="0%" stop-color="#3572A5" />
      <stop offset="50%" stop-color="#dea584" />
      <stop offset="100%" stop-color="#3178c6" />
    </linearGradient>

    <linearGradient id="thread-12" x1="0%" y1="0%" x2="100%" y2="0%">
      <stop offset="0%" stop-color="#3572A5" />
      <stop offset="50%" stop-color="#3178c6" />
      <stop offset="100%" stop-color="#89e051" />
    </linearGradient>

    <linearGradient id="thread-13" x1="0%" y1="0%" x2="100%" y2="0%">
      <stop offset="0%" stop-color="#3572A5" />
      <stop offset="50%" stop-color="#f1e05a" />
      <stop offset="100%" stop-color="#89e051" />
    </linearGradient>

    <linearGradient id="thread-14" x1="0%" y1="0%" x2="100%" y2="0%">
      <stop offset="0%" stop-color="#3572A5" />
      <stop offset="50%" stop-color="#89e051" />
      <stop offset="100%" stop-color="#dea584" />
    </linearGradient>

    <linearGradient id="thread-15" x1="0%" y1="0%" x2="100%" y2="0%">
      <stop offset="0%" stop-color="#3572A5" />
      <stop offset="50%" stop-color="#89e051" />
      <stop offset="100%" stop-color="#00ADD8" />
    </linearGradient>

    <linearGradient id="thread-16" x1="0%" y1="0%" x2="100%" y2="0%">
      <stop offset="0%" stop-color="#3572A5" />
      <stop offset="50%" stop-color="#3178c6" />
      <stop offset="100%" stop-color="#3572A5" />
    </linearGradient>

    <linearGradient id="thread-17" x1="0%" y1="0%" x2="100%" y2="0%">
      <stop offset="0%" stop-color="#3572A5" />
      <stop offset="50%" stop-color="#3178c6" />
      <stop offset="100%" stop-color="#3572A5" />
    </linearGradient>

    <linearGradient id="thread-18" x1="0%" y1="0%" x2="100%" y2="0%">
      <stop offset="0%" stop-color="#3572A5" />
      <stop offset="50%" stop-color="#3178c6" />
      <stop offset="100%" stop-color="#3572A5" />
    </linearGradient>

    <!-- Background pattern -->
    <pattern id="loom" patternUnits="userSpaceOnUse" width="20" height="20">
      <rect width="20" height="20" fill="#fafafa"/>
      <circle cx="10" cy="10" r="0.5" fill="#eee"/>
    </pattern>
  </defs>

  <!-- Background -->
  <rect width="100%" height="100%" fill="url(#loom)"/>

  <!-- Threads -->
  <g id="tapestry">
    
    <path
      d="M 20,20 L 35.2,23.300958770108593 L 50.400000000000006,23.72864853100139 L 65.6,20.910793280124217 L 80.80000000000001,17.300151966821662 L 96,16.039552027428282 L 111.2,18.226263373848834 L 126.4,21.956896602778535 L 141.60000000000002,23.984179152530174 L 156.79999999999998,22.54349397430198 L 172,18.888863418243893 L 187.2,16.20140468337785 L 202.4,16.820375068631844 L 217.6,20.207001281325784 L 232.8,23.41344639879151 L 248,23.648709373335695 L 263.20000000000005,20.70800915167924 L 278.40000000000003,17.151033206683707 L 293.59999999999997,16.073896776694095 L 308.8,18.41417677148943 L 324,22.134812309599866 L 339.2,23.99723316620311 L 354.4,22.380323628539387 L 369.6,18.691497841657775 L 384.8,16.14163771957088 L 400,16.950229955954207 L 415.2,20.413447821758297 L 430.40000000000003,23.516786362820973 L 445.6,23.558992071862907 L 460.79999999999995,20.503327635803956 L 476,17.009549367323572 L 491.2,16.11876305507908 L 506.40000000000003,18.60634000269978 L 521.6,22.307006951894426 L 536.8000000000001,23.999575030255357 L 552,22.210774274649335 L 567.1999999999999,18.497638908371226 L 582.4,16.09221074653258 L 597.6,17.088257894900547 L 612.8000000000001,20.618786367049434 L 628,23.610701722346235 L 643.1999999999999,23.459737059181546 L 658.4,20.29729725667282 L 673.6,16.876079610024348 L 688.8,16.174030625842718 L 704,18.80223809094514 L 719.2,22.47301906677131 L 734.4,23.991198468746262 L 749.6,22.03530028643776 L 764.8,18.30780613921591 L 780,16.05325622316853"
      stroke="url(#thread-0)"
      stroke-width="7.724"
      stroke-linecap="round"
      fill="none"
      opacity="1"
      class="thread"
      style="animation-delay: 0s"
    >
      <title>2026-01-10: 3862 stars, TypeScript, Unknown, Shell, Python</title>
    </path>

    <path
      d="M 20,33.917702154416816 L 35.2,35.984572988713275 L 50.400000000000006,34.501804704259555 L 65.6,30.79031483009775 L 80.80000000000001,28.156467607386936 L 96,28.946614115911192 L 111.2,32.45685585408796 L 126.4,35.560109587303046 L 141.60000000000002,35.49185553438284 L 156.79999999999998,32.31289751469399 L 172,28.855196136190113 L 187.2,28.199029287834506 L 202.4,30.92894028705356 L 217.6,34.613000066169796 L 232.8,35.969280362152915 L 248,33.78954490771688 L 263.20000000000005,30.01560133432169 L 278.40000000000003,28.009450483218195 L 293.59999999999997,29.558262914303835 L 308.8,33.28228596435446 L 324,35.86399026823331 L 339.2,35.00347603340239 L 354.4,31.46732853734302 L 369.6,28.405709043818653 L 384.8,28.546047656814352 L 400,31.763324347340358 L 415.2,35.19144249001597 L 430.40000000000003,35.77647828989317 L 445.6,32.99725520760481 L 460.79999999999995,29.329631760630328 L 476,28.04089397864038 L 491.2,30.279108180841778 L 506.40000000000003,34.050371203512604 L 521.6,35.99507016208843 L 536.8000000000001,34.38077864171704 L 552,30.64558106098192 L 567.1999999999999,28.116961565962107 L 582.4,29.047529583409577 L 597.6,32.6082927352838 L 612.8000000000001,35.62716101035916 L 628,35.41478903739628 L 643.1999999999999,32.16036744361938 L 658.4,28.763083226204284 L 673.6,28.249391914967678 L 688.8,31.07691312899859 L 704,34.72676217504382 L 719.2,35.94748726941823 L 734.4,33.651610893073936 L 749.6,29.88440430101624 L 764.8,28.00186672464585 L 780,29.681048388046953"
      stroke="url(#thread-1)"
      stroke-width="7.822"
      stroke-linecap="round"
      fill="none"
      opacity="0.968421052631579"
      class="thread"
      style="animation-delay: 0.1s"
    >
      <title>2026-01-09: 3911 stars, TypeScript, Unknown, Python, Shell</title>
    </path>

    <path
      d="M 20,47.36588393923159 L 35.2,47.71952266008459 L 50.400000000000006,44.9763707335195 L 65.6,41.420314562970816 L 80.80000000000001,40.0120462847779 L 96,41.92405829420533 L 111.2,45.56445253076077 L 126.4,47.90231888717168 L 141.60000000000002,46.99120258171559 L 156.79999999999998,43.58967849383211 L 172,40.529778834365565 L 187.2,40.35910702274459 L 202.4,43.21976055865042 L 217.6,46.73002384976693 L 232.8,47.96733087799719 L 248,45.9015277275909 L 263.20000000000005,42.25255549320441 L 278.40000000000003,40.05846612956878 L 293.59999999999997,41.14600893809887 L 308.8,44.60972031340661 L 324,47.56579231219946 L 339.2,47.553066082780006 L 354.4,44.582137196635415 L 369.6,41.12653401467305 L 384.8,40.0633137813421 L 400,42.27768967468248 L 415.2,45.926022286349074 L 430.40000000000003,47.970792197056355 L 445.6,46.70957011297223 L 460.79999999999995,43.1924210857827 L 476,40.34764404208399 L 491.2,40.5437361649839 L 506.40000000000003,43.61743557715997 L 521.6,47.00964949642577 L 536.8000000000001,47.89609714827327 L 552,45.53874221768659 L 567.1999999999999,41.900265233548296 L 582.4,40.009980042025255 L 597.6,41.44169544522009 L 612.8000000000001,45.00339750060256 L 628,47.72969343550232 L 643.1999999999999,47.350730764842865 L 658.4,44.18202525811062 L 673.6,40.86176962830476 L 688.8,40.15433380164222 L 704,42.648712886330536 L 719.2,46.26814313430256 L 734.4,47.999168582193576 L 749.6,46.40057649725214 L 764.8,42.80331858218157 L 780,40.20239061622195"
      stroke="url(#thread-2)"
      stroke-width="7.54"
      stroke-linecap="round"
      fill="none"
      opacity="0.9368421052631579"
      class="thread"
      style="animation-delay: 0.2s"
    >
      <title>2026-01-08: 3770 stars, TypeScript, Unknown, Python, Rust, JavaScript</title>
    </path>

    <path
      d="M 20,59.98997994641622 L 35.2,58.71442010077798 L 50.400000000000006,55.40276503283572 L 65.6,52.53909782900026 L 80.80000000000001,52.27146444219059 L 96,54.80061753411004 L 111.2,58.229431259921 L 126.4,59.98594144823628 L 141.60000000000002,58.752584173953785 L 156.79999999999998,55.45450468369203 L 172,52.56560297950898 L 187.2,52.25285349395735 L 202.4,54.75085061908693 L 217.6,58.18583870066138 L 232.8,59.98122216323514 L 248,58.790278114024474 L 263.20000000000005,55.506337503509094 L 278.40000000000003,52.59269471470809 L 293.59999999999997,52.234882547086805 L 308.8,54.70129705502426 L 324,58.141872806720336 L 339.2,59.97582289745249 L 354.4,58.82749548297836 L 369.6,55.55825463939706 L 384.8,52.62036840741065 L 400,52.21755467096266 L 415.2,54.65196530552188 L 430.40000000000003,58.09754108734047 L 445.6,59.96974457306669 L 460.79999999999995,58.86422992420065 L 476,55.61024722406513 L 491.2,52.648619331033075 L 506.40000000000003,52.20087282513409 L 521.6,54.60286379629433 L 536.8000000000001,58.052851114246195 L 552,59.96298822823729 L 567.1999999999999,58.90047516355917 L 582.4,55.662306377336066 L 597.6,52.67744266040255 L 612.8000000000001,52.18483985881023 L 628,54.55400091373181 L 643.1999999999999,58.00781052035059 L 658.4,59.95555501692769 L 673.6,58.936225010475994 L 688.8,55.71442320766298 L 704,52.70683347258099 L 719.2,52.16945851037355 L 734.4,54.50538500346786 L 749.6,57.96242699845182 L 764.8,59.94744620870803 L 780,58.97147335898466"
      stroke="url(#thread-3)"
      stroke-width="7.128"
      stroke-linecap="round"
      fill="none"
      opacity="0.9052631578947368"
      class="thread"
      style="animation-delay: 0.30000000000000004s"
    >
      <title>2026-01-07: 3564 stars, TypeScript, Python, Unknown, Shell, Rust</title>
    </path>

    <path
      d="M 20,71.63718970730272 L 35.2,68.31960161560059 L 50.400000000000006,64.67440242662296 L 65.6,64.43814304561019 L 80.80000000000001,67.85300370969834 L 96,71.41854451309258 L 111.2,71.47986924137487 L 126.4,67.97411631768826 L 141.60000000000002,64.49489574286898 L 156.79999999999998,64.60862024620825 L 172,68.19871529395071 L 187.2,71.58511507759299 L 202.4,71.29655382506537 L 217.6,67.62882437331616 L 232.8,64.34157251743673 L 248,64.80443137239664 L 263.20000000000005,68.54294245627574 L 278.40000000000003,71.72490449542087 L 293.59999999999997,71.08861284176785 L 308.8,67.28630514577029 L 324,64.21557808923437 L 339.2,65.0241136966542 L 354.4,68.88311378740937 L 369.6,71.83686852648317 L 384.8,70.85759963017648 L 400,66.94911728588119 L 415.2,64.11785364848554 L 430.40000000000003,65.26602617136604 L 445.6,69.21668817552803 L 460.79999999999995,71.92017078894195 L 476,70.60523988069973 L 491.2,66.61977961866185 L 506.40000000000003,64.04912920594987 L 521.6,65.52836168760341 L 536.8000000000001,69.5411737885925 L 552,71.97418900706523 L 567.1999999999999,70.33341874439101 L 582.4,66.30075232744807 L 597.6,64.009918139674 L 612.8000000000001,65.8091605743974 L 628,69.85414668856772 L 643.1999999999999,71.99851965968531 L 658.4,70.04416675069295 L 673.6,65.9944185760975 L 688.8,64.00051336000932 L 704,66.10632523766529 L 719.2,70.15326893846783 L 734.4,71.99298099453974 L 749.6,69.73964463919152 L 764.8,65.70306670653166 L 780,64.0209851215441"
      stroke="url(#thread-4)"
      stroke-width="8"
      stroke-linecap="round"
      fill="none"
      opacity="0.8736842105263158"
      class="thread"
      style="animation-delay: 0.4s"
    >
      <title>2026-01-06: 4224 stars, TypeScript, Python, Rust, JavaScript, Go</title>
    </path>

    <path
      d="M 20,82.39388857641583 L 35.2,78.8011025281244 L 50.400000000000006,76.20355717681444 L 65.6,76.75755271205456 L 80.80000000000001,80.00320084852339 L 96,83.24619186477128 L 111.2,83.79442179442164 L 126.4,81.1927885540263 L 141.60000000000002,77.60098581231114 L 156.79999999999998,76.0006765954665 L 172,77.72032551178505 L 187.2,81.33240049435636 L 202.4,83.83840992272549 L 217.6,83.15804031835088 L 232.8,79.85608686609805 L 248,76.67360001632734 L 263.20000000000005,76.25245741479357 L 278.40000000000003,78.94226214775846 L 293.59999999999997,82.51012674988101 L 308.8,83.99425996156603 L 324,82.16263835573935 L 339.2,78.53574588232324 L 354.4,76.12437460468942 L 369.6,76.93027603815213 L 384.8,80.28444726698827 L 400,83.4024903006344 L 415.2,83.69602423511759 L 430.40000000000003,80.92137776042523 L 445.6,77.38186801261723 L 460.79999999999995,76.01574803752757 L 476,77.95707494017414 L 491.2,81.59429511819911 L 506.40000000000003,83.90804317133225 L 521.6,82.97760754661878 L 536.8000000000001,79.57537072159248 L 552,76.52563137772266 L 567.1999999999999,76.36006948048325 L 582.4,79.21612291915794 L 597.6,82.72289619884165 L 612.8000000000001,83.96931179630941 L 628,81.92068279541334 L 643.1999999999999,78.2776374838406 L 658.4,76.06437687967535 L 673.6,77.1181948950025 L 688.8,80.56428563468155 L 704,83.54194596931647 L 719.2,83.57933087768123 L 734.4,80.64540602770802 L 749.6,77.17571030497842 L 764.8,76.05054204226046 L 780,78.20393711191022"
      stroke="url(#thread-5)"
      stroke-width="7.528"
      stroke-linecap="round"
      fill="none"
      opacity="0.8421052631578948"
      class="thread"
      style="animation-delay: 0.5s"
    >
      <title>2026-01-05: 3764 stars, Go, TypeScript, Python, Rust, JavaScript</title>
    </path>

    <path
      d="M 20,92.56448003223947 L 35.2,89.02051047859295 L 50.400000000000006,88.12582259202532 L 65.6,90.67594869396653 L 80.80000000000001,94.40338548156164 L 96,95.99379676546647 L 111.2,94.03303175666443 L 126.4,90.26454978063617 L 141.60000000000002,88.03918330048567 L 156.79999999999998,89.3356681285176 L 172,93.00120494730763 L 187.2,95.77649734911506 L 202.4,95.19383023440179 L 217.6,91.77129547559386 L 232.8,88.55211860723459 L 248,88.39870481623701 L 263.20000000000005,91.44746550497285 L 278.40000000000003,94.9875249539785 L 293.59999999999997,95.87115784613616 L 308.8,93.31266166267491 L 324,89.5869821570318 L 339.2,88.0068929908677 L 354.4,89.9773668046944 L 369.6,93.74631146564052 L 384.8,95.96248310366079 L 400,94.65532171190728 L 415.2,90.98711992010887 L 430.40000000000003,88.21954375807866 L 445.6,88.8134472532034 L 460.79999999999995,92.24074744686104 L 476,95.45398150845732 L 491.2,95.59602843445857 L 506.40000000000003,92.54058393206022 L 521.6,89.00446678744085 L 536.8000000000001,88.13189692705934 L 552,90.69873992041852 L 567.1999999999999,94.42262825599755 L 582.4,95.99238093221348 L 597.6,94.01221623643825 L 612.8000000000001,90.2428431722185 L 628,88.03588653422788 L 643.1999999999999,89.35371259999756 L 658.4,93.02454599949921 L 673.6,95.78438074837614 L 688.8,95.17924627487953 L 704,91.74721182047962 L 719.2,88.5399497926467 L 734.4,88.40927102367507 L 749.6,91.47137154796108 L 764.8,95.00351422430731 L 780,95.86501311617386"
      stroke="url(#thread-6)"
      stroke-width="7.814"
      stroke-linecap="round"
      fill="none"
      opacity="0.8105263157894738"
      class="thread"
      style="animation-delay: 0.6000000000000001s"
    >
      <title>2026-01-04: 3907 stars, Python, Jupyter Notebook, TypeScript, Go, Rust</title>
    </path>

    <path
      d="M 20,102.59686708924153 L 35.2,100.10968697691276 L 50.400000000000006,101.05406351103777 L 65.6,104.59698362732078 L 80.80000000000001,107.6133180621948 L 96,107.44242680636172 L 111.2,104.23504915028344 L 126.4,100.82033998408973 L 141.60000000000002,100.21033660797184 L 156.79999999999998,102.94310912766525 L 172,106.60814105065431 L 187.2,107.97259106567154 L 202.4,105.83290884399025 L 217.6,102.07645941396045 L 232.8,100.01672139084705 L 248,101.47054284348731 L 263.20000000000005,105.15554093045994 L 278.40000000000003,107.8212626413063 L 293.59999999999997,107.11633547716468 L 308.8,103.66255965848529 L 324,100.50643229118617 L 339.2,100.43190155116892 L 354.4,103.50470930926849 L 369.6,107.01440172205264 L 384.8,107.86515892756582 L 400,105.30654734224501 L 415.2,101.59546005906137 L 430.40000000000003,100.0053627751461 L 445.6,101.93884414358331 L 460.79999999999995,105.69042421937104 L 476,107.95091953388531 L 491.2,106.72639857704846 L 506.40000000000003,103.0969834375506 L 521.6,100.26409867191765 L 536.8000000000001,100.72656750811463 L 552,104.07645670292655 L 567.1999999999999,107.35890517882035 L 582.4,107.67853978272345 L 597.6,104.75341809947517 L 612.8000000000001,101.16372344447129 L 628,100.07584383816543 L 643.1999999999999,102.44937314136159 L 658.4,106.19067513311836 L 673.6,107.99963240899731 L 688.8,106.2806048941884 L 704,102.54990766639153 L 719.2,100.09830390892341 L 734.4,101.08829754331543 L 749.6,104.64663769852353 L 764.8,107.6345934453184 L 780,107.41655696978508"
      stroke="url(#thread-7)"
      stroke-width="7.78"
      stroke-linecap="round"
      fill="none"
      opacity="0.7789473684210526"
      class="thread"
      style="animation-delay: 0.7000000000000001s"
    >
      <title>2026-01-03: 3890 stars, Go, Python, Jupyter Notebook, TypeScript, Rust, JavaScript</title>
    </path>

    <path
      d="M 20,112.9727900187683 L 35.2,112.00528232235315 L 50.400000000000006,112.72047604887787 L 65.6,114.81710898198234 L 80.80000000000001,117.41201302203864 L 96,119.412132520827 L 111.2,119.97495388959155 L 126.4,118.86339896799554 L 141.60000000000002,116.54568984309951 L 156.79999999999998,113.99811889827927 L 172,112.29380358508259 L 187.2,112.15065541417812 L 202.4,113.6289729223611 L 217.6,116.10604202185107 L 232.8,118.53844286804778 L 248,119.90157129731821 L 263.20000000000005,119.62123450489469 L 278.40000000000003,117.81551921368957 L 293.59999999999997,115.2450498119888 L 308.8,112.99258930556583 L 324,112.00694529613995 L 339.2,112.70330221250164 L 354.4,114.78833249846524 L 369.6,117.38375545632441 L 384.8,119.39629685326946 L 400,119.97821060418545 L 415.2,118.88437623355694 L 430.40000000000003,116.57555137194602 L 445.6,114.02428607005874 L 460.79999999999995,112.30525395947738 L 476,112.14256573136312 L 491.2,113.60475081258264 L 506.40000000000003,116.07589060379733 L 521.6,118.51506287257305 L 536.8000000000001,119.89481111793322 L 552,119.6339417429541 L 567.1999999999999,117.84234117864311 L 582.4,115.27468824392541 L 597.6,113.01255955960747 L 612.8000000000001,112.00883526970415 L 628,112.6863157889508 L 643.1999999999999,114.75962489661231 L 658.4,117.35541922597771 L 673.6,119.3802681108139 L 688.8,119.981241162869 L 704,118.9051895262175 L 719.2,116.60538018147287 L 734.4,114.05056555851195 L 749.6,112.3169143752042 L 764.8,112.13469533848661 L 780,113.58066486949177"
      stroke="url(#thread-8)"
      stroke-width="5.26"
      stroke-linecap="round"
      fill="none"
      opacity="0.7473684210526317"
      class="thread"
      style="animation-delay: 0.8s"
    >
      <title>2026-01-02: 2630 stars, TypeScript, Rust, Python, JavaScript, Jupyter Notebook, Shell</title>
    </path>

    <path
      d="M 20,124.08987952933961 L 35.2,124.98493003110812 L 50.400000000000006,128.30224059610669 L 65.6,131.37673579264296 L 80.80000000000001,131.7384142588913 L 96,129.0967091710093 L 111.2,125.57392508551771 L 126.4,124.00021164727035 L 141.60000000000002,125.63986562276517 L 156.79999999999998,129.1756146490602 L 172,131.76689325060642 L 187.2,131.3319087214339 L 202.4,128.2201208299754 L 217.6,124.93149130597249 L 232.8,124.10805368129682 L 248,126.41134486666425 L 263.20000000000005,129.99093674270483 L 278.40000000000003,131.9710411740001 L 293.59999999999997,130.76087322539504 L 308.8,127.33266290214705 L 324,124.44058076747146 L 339.2,124.40808038187734 L 354.4,127.26127204690876 L 369.6,130.70794619719814 L 384.8,131.9790987196231 L 400,130.0535055559984 L 415.2,126.47815814148179 L 430.40000000000003,124.12543467747841 L 445.6,124.88547640299052 L 460.79999999999995,128.14767768130275 L 476,131.29123701984554 L 491.2,131.7906680051328 L 506.40000000000003,129.24473559370531 L 521.6,125.69880207151706 L 536.8000000000001,124.00161497885217 L 552,125.51666788528195 L 567.1999999999999,129.0267909782351 L 582.4,131.71200625627017 L 597.6,131.41505375651136 L 612.8000000000001,128.37450047351052 L 628,125.03307936654384 L 643.1999999999999,124.07523589967929 L 658.4,126.27048653540363 L 673.6,129.85520124238803 L 688.8,131.94947628294474 L 704,130.87080383984244 L 719.2,127.48577248554922 L 734.4,124.51386347485654 L 749.6,124.3426620321299 L 764.8,127.10970871920128 L 780,130.5920014988578"
      stroke="url(#thread-9)"
      stroke-width="7.396"
      stroke-linecap="round"
      fill="none"
      opacity="0.7157894736842105"
      class="thread"
      style="animation-delay: 0.9s"
    >
      <title>2026-01-01: 3698 stars, Rust, Python, JavaScript, TypeScript, Jupyter Notebook, Go, Shell</title>
    </path>

    <path
      d="M 20,136.16430290134744 L 35.2,138.6189446356825 L 50.400000000000006,142.18588712882678 L 65.6,143.99231807776744 L 80.80000000000001,142.58333960718574 L 96,139.09374172077452 L 111.2,136.33404344425892 L 126.4,136.5269033084718 L 141.60000000000002,139.51699215076664 L 156.79999999999998,142.89609508409222 L 172,143.94268561940015 L 187.2,141.81384067289298 L 202.4,138.22413006600377 L 217.6,136.0647035202511 L 232.8,137.074761249828 L 248,140.44080366009314 L 263.20000000000005,143.4518231956238 L 278.40000000000003,143.68274740770238 L 293.59999999999997,140.9475901418568 L 308.8,137.4492446208117 L 324,136.00527520742529 L 339.2,137.77865357952072 L 354.4,141.34110237769445 L 369.6,143.82342851685547 L 384.8,143.22636873823853 L 400,140.03079445508942 L 415.2,136.81041834527352 L 430.40000000000003,136.15892845573552 L 445.6,138.60103416251687 L 460.79999999999995,142.16986570722256 L 476,143.991089346397 L 491.2,142.597893185199 L 506.40000000000003,139.11235616941838 L 521.6,136.34172670319577 L 536.8000000000001,136.51746728780574 L 552,139.4980366131272 L 567.1999999999999,142.88288680258978 L 582.4,143.94586253217778 L 597.6,141.83084409723273 L 612.8000000000001,138.24126545910588 L 628,136.06817005179232 L 643.1999999999999,137.0617669783964 L 658.4,140.42181416031158 L 673.6,143.4421325936817 L 688.8,143.69016050576187 L 704,140.9661364373517 L 719.2,137.4639869438898 L 734.4,136.0043401042266 L 749.6,137.76279418132754 L 764.8,141.32309182966824 L 780,143.81777249831498"
      stroke="url(#thread-10)"
      stroke-width="7.406"
      stroke-linecap="round"
      fill="none"
      opacity="0.6842105263157895"
      class="thread"
      style="animation-delay: 1s"
    >
      <title>2025-12-31: 3703 stars, Go, Python, TypeScript, Rust, Shell</title>
    </path>

    <path
      d="M 20,149.17783869771844 L 35.2,153.18701883908446 L 50.400000000000006,155.9317258222309 L 65.6,154.4881574351867 L 80.80000000000001,150.3940765317239 L 96,148.01070741557885 L 111.2,149.87693672802789 L 126.4,154.0047615874197 L 141.60000000000002,155.99701190287496 L 156.79999999999998,153.73144077703978 L 172,149.62145040904474 L 187.2,148.04521267767745 L 202.4,150.68181660550485 L 217.6,154.72261688225916 L 232.8,155.86314645194747 L 248,152.88845490305067 L 263.20000000000005,148.96733576580772 L 278.40000000000003,148.27676562725327 L 293.59999999999997,151.55237510698515 L 308.8,155.3048175092718 L 324,155.53679932938994 L 339.2,152.00120167160196 L 354.4,148.46432393178355 L 369.6,148.6938291146383 L 384.8,152.44523656506897 L 400,155.72235526198514 L 415.2,155.03423081434607 L 430.40000000000003,151.11388856674137 L 445.6,148.1374775236416 L 460.79999999999995,149.27562290842633 L 476,153.31591406523626 L 491.2,155.95442627867388 L 506.40000000000003,154.3804814350711 L 521.6,150.27072605571553 L 536.8000000000001,148.00308169748138 L 552,149.99315907265242 L 567.1999999999999,154.1210260109653 L 582.4,155.98946759692257 L 597.6,153.60812432202104 L 612.8000000000001,149.5137247978657 L 628,148.06783273924523 L 643.1999999999999,150.81068629370125 L 658.4,154.82045761626728 L 673.6,155.82573327942433 L 688.8,152.75564224825786 L 704,148.88060245917973 L 719.2,148.32850442157851 L 734.4,151.68747119320687 L 749.6,155.37935962904834 L 764.8,155.47138140548756 L 780,151.8655102213002"
      stroke="url(#thread-11)"
      stroke-width="8"
      stroke-linecap="round"
      fill="none"
      opacity="0.6526315789473685"
      class="thread"
      style="animation-delay: 1.1s"
    >
      <title>2025-12-30: 4315 stars, Go, Shell, Rust, Python, Swift, TypeScript</title>
    </path>

    <path
      d="M 20,162.88233800720428 L 35.2,166.05882827582258 L 50.400000000000006,167.915199188086 L 65.6,167.26114691796326 L 80.80000000000001,164.51604935723694 L 96,161.44006128304574 L 111.2,160.00550425534786 L 126.4,161.1322153107229 L 141.60000000000002,164.09774805056318 L 156.79999999999998,167.00060480372224 L 172,167.97947570110009 L 187.2,166.40670935759772 L 202.4,163.29076253353017 L 217.6,160.62957831338343 L 232.8,160.1295062946917 L 248,162.1111923317978 L 263.20000000000005,165.30398062182442 L 278.40000000000003,167.6606573821052 L 293.59999999999997,167.67012300105384 L 308.8,165.32630812993412 L 324,162.13206534533663 L 339.2,160.1355410509041 L 354.4,160.6169053304965 L 369.6,163.267507719959 L 384.8,166.38778368473527 L 400,167.97701429812204 L 415.2,167.0161859206232 L 430.40000000000003,164.12138108528265 L 445.6,161.14874677671276 L 460.79999999999995,160.00433418732766 L 476,161.42193992787182 L 491.2,164.49259611610438 L 506.40000000000003,167.24739999388873 L 521.6,167.9199730998782 L 536.8000000000001,166.0790619943338 L 552,162.90505768523647 L 567.1999999999999,160.43312967885248 L 582.4,160.24827661108776 L 597.6,162.46902614920984 L 612.8000000000001,165.67143512840104 L 628,167.80212098633672 L 643.1999999999999,167.49488933157417 L 658.4,164.94673690206378 L 673.6,161.79153738442727 L 688.8,160.05240266483167 L 704,160.84446479853773 L 719.2,163.65985405866238 L 734.4,166.69334467596116 L 749.6,167.99986443229724 L 764.8,166.74167370652128 L 780,163.72552357670423"
      stroke="url(#thread-12)"
      stroke-width="6.556"
      stroke-linecap="round"
      fill="none"
      opacity="0.6210526315789474"
      class="thread"
      style="animation-delay: 1.2000000000000002s"
    >
      <title>2025-12-29: 3278 stars, Shell, Go, JavaScript, TypeScript, Rust, Python</title>
    </path>

    <path
      d="M 20,176.86047995235126 L 35.2,179.68394155544027 L 50.400000000000006,179.40256313761583 L 65.6,176.25349150469313 L 80.80000000000001,172.89077626291066 L 96,172.14852666848165 L 111.2,174.65231351605854 L 126.4,178.29193568241413 L 141.60000000000002,179.99990569711974 L 156.79999999999998,178.33673990486412 L 172,174.7041607910607 L 187.2,172.16371991453252 L 202.4,172.85651055417839 L 217.6,176.19864611144186 L 232.8,179.3733619668665 L 248,179.70499546549115 L 263.20000000000005,176.91404462735505 L 278.40000000000003,173.35273348431076 L 293.59999999999997,172.02254867707876 L 308.8,174.04457504442524 L 324,177.7146410368835 L 339.2,179.93960101104602 L 354.4,178.84425019812144 L 369.6,175.35175444906793 L 384.8,172.40560252757618 L 400,172.48882253164362 L 415.2,175.53127632382137 L 430.40000000000003,178.9687722214853 L 445.6,179.9041755458749 L 460.79999999999995,177.54912480060017 L 476,173.88846575348086 L 491.2,172.0074158384447 L 506.40000000000003,173.49133111221715 L 521.6,177.0895621113589 L 536.8000000000001,179.76950599934318 L 552,179.27249582611265 L 567.1999999999999,176.01741366496415 L 582.4,172.74765520043846 L 597.6,172.21898536164738 L 612.8000000000001,174.87696910900797 L 628,178.4814475829 L 643.1999999999999,179.9945525512028 L 658.4,178.14103336437995 L 673.6,174.4830430762116 L 688.8,172.103549880383 L 704,173.0079997354463 L 719.2,176.4341188472467 L 734.4,179.49436093562528 L 749.6,179.60954227394285 L 764.8,176.68258759010592 L 780,173.18034547685522"
      stroke="url(#thread-13)"
      stroke-width="7.59"
      stroke-linecap="round"
      fill="none"
      opacity="0.5894736842105264"
      class="thread"
      style="animation-delay: 1.3s"
    >
      <title>2025-12-28: 3795 stars, Shell, Rust, Python, JavaScript, TypeScript</title>
    </path>

    <path
      d="M 20,190.62794639487515 L 35.2,191.51193001047653 L 50.400000000000006,186.88875231845117 L 65.6,184.00815497875612 L 80.80000000000001,187.38728786758398 L 96,191.7272327709705 L 111.2,190.22239374085777 L 126.4,185.23255336292402 L 141.60000000000002,184.58242789820366 L 156.79999999999998,189.29149831406508 L 172,191.97533203020103 L 187.2,188.42533002740655 L 202.4,184.208355430364 L 217.6,185.93717081315623 L 232.8,190.90076964782244 L 248,191.31558581336645 L 263.20000000000005,186.53113381325295 L 278.40000000000003,184.05005431931218 L 293.59999999999997,187.76300145888044 L 308.8,191.84759301952886 L 324,189.89866018150371 L 339.2,184.97238216384326 L 354.4,184.79380121070963 L 369.6,189.64295539588068 L 384.8,191.91574263770173 L 400,188.0481380492058 L 415.2,184.10504676216522 L 430.40000000000003,186.26974683270603 L 445.6,191.14770806360437 L 460.79999999999995,191.0896551928907 L 476,186.18662264392685 L 491.2,184.12720075397425 L 506.40000000000003,188.14082989188796 L 521.6,191.93361951157408 L 536.8000000000001,189.5579840463517 L 552,184.73922772383082 L 567.1999999999999,185.0337848382893 L 582.4,189.97975166761634 L 597.6,191.82121135981885 L 612.8000000000001,187.67051651412308 L 628,184.03649446643595 L 643.1999999999999,186.61776265855818 L 658.4,191.36655810265782 L 673.6,190.83615422686023 L 688.8,185.85829303442108 L 704,184.23890587134068 L 719.2,188.51740163813227 L 734.4,191.98454459506587 L 749.6,189.2034053376616 L 764.8,184.53517058200106 L 780,185.30023730199875"
      stroke="url(#thread-14)"
      stroke-width="8"
      stroke-linecap="round"
      fill="none"
      opacity="0.5578947368421053"
      class="thread"
      style="animation-delay: 1.4000000000000001s"
    >
      <title>2025-12-27: 5384 stars, Shell, Python, Rust, C, Go</title>
    </path>

    <path
      d="M 20,203.75199990709896 L 35.2,203.29723428914718 L 50.400000000000006,200.05272512473476 L 65.6,196.76360597402282 L 80.80000000000001,196.212754279006 L 96,198.8662379094405 L 111.2,202.47898169489974 L 126.4,203.99429394269006 L 141.60000000000002,202.1300902774123 L 156.79999999999998,198.46364719458728 L 172,196.0970906069665 L 187.2,197.03273075054983 L 202.4,200.4789356624638 L 217.6,203.51991984804786 L 232.8,203.5827493685322 L 248,200.61426505052256 L 263.20000000000005,197.12605971476415 L 278.40000000000003,196.06945482366928 L 293.59999999999997,198.33842891124524 L 308.8,202.0132349219868 L 324,203.98467118748206 L 339.2,202.58473321771757 L 354.4,198.99788883454346 L 369.6,196.25891661073345 L 384.8,196.6852224129132 L 400,199.9161148991407 L 415.2,203.21798138910725 L 430.40000000000003,203.79715909640484 L 445.6,201.16361391077763 L 460.79999999999995,197.54555136499542 L 476,196.0041632800366 L 491.2,197.843596430293 L 506.40000000000003,201.50753230453108 L 521.6,203.8959663039132 L 536.8000000000001,202.98807802212033 L 552,199.55201896217898 L 567.1999999999999,196.49499035612786 L 582.4,196.40350110118052 L 597.6,199.35495896887443 L 612.8000000000001,202.85217697854793 L 628,203.93620817117974 L 643.1999999999999,201.6898690048661 L 658.4,198.01375544666098 L 673.6,196.01817546249055 L 688.8,197.3915612030848 L 704,200.97191031415704 L 719.2,203.72993978128324 L 734.4,203.33211967236576 L 749.6,200.11503998501496 L 764.8,196.80062658472883 L 780,196.19315802222644"
      stroke="url(#thread-15)"
      stroke-width="7.606"
      stroke-linecap="round"
      fill="none"
      opacity="0.5263157894736842"
      class="thread"
      style="animation-delay: 1.5s"
    >
      <title>2025-12-26: 3803 stars, Python, Shell, Go, TypeScript</title>
    </path>

    <path
      d="M 20,215.95743298649353 L 35.2,214.064660409722 L 50.400000000000006,210.6658889950109 L 65.6,208.24024110886424 L 80.80000000000001,208.55702606751927 L 96,211.38517546991363 L 111.2,214.6617884663629 L 126.4,215.9968471431247 L 141.60000000000002,214.41653672353314 L 156.79999999999998,211.0735628265278 L 172,208.40634814886107 L 187.2,208.36040498213657 L 202.4,210.9692450628958 L 217.6,214.3299355352109 L 232.8,215.99113092737664 L 248,214.74112672933805 L 263.20000000000005,211.49169751709871 L 278.40000000000003,208.61303288433527 L 293.59999999999997,208.20488035918635 L 308.8,210.56495341825178 L 324,213.9717741527826 L 339.2,215.94034888386065 L 354.4,215.03476532129005 L 369.6,211.9155717017041 L 384.8,208.85796153599952 L 400,208.09220830389268 L 415.2,210.176865592342 L 430.40000000000003,213.5913484958959 L 445.6,215.8450744176763 L 460.79999999999995,215.29413688122182 L 476,212.34039920786645 L 491.2,209.13836849364657 L 506.40000000000003,208.02366105200292 L 521.6,209.80936367621783 L 536.8000000000001,213.19295413827254 L 552,215.7063833198116 L 567.1999999999999,215.51631271692543 L 582.4,212.76138309868438 L 597.6,209.45108754401804 L 612.8000000000001,208.00001260434635 L 628,209.4665973152699 L 643.1999999999999,212.78108954709663 L 658.4,215.52584161985646 L 673.6,215.69878413146054 L 688.8,213.17376983741306 L 704,209.79258762207988 L 719.2,208.02152998720916 L 734.4,209.15243685353553 L 749.6,212.36040528860312 L 764.8,215.30548790319008 L 780,215.83949075008888"
      stroke="url(#thread-16)"
      stroke-width="7.022"
      stroke-linecap="round"
      fill="none"
      opacity="0.4947368421052632"
      class="thread"
      style="animation-delay: 1.6s"
    >
      <title>2025-12-25: 3511 stars, Python, TypeScript</title>
    </path>

    <path
      d="M 20,227.19394845049396 L 35.2,224.79053862488223 L 50.400000000000006,221.98861257769744 L 65.6,220.20064143470853 L 80.80000000000001,220.32795434259927 L 96,222.30637194641702 L 111.2,225.13855966521754 L 126.4,227.396791246346 L 141.60000000000002,227.94267586508795 L 156.79999999999998,226.50102914862626 L 172,223.79859560280107 L 187.2,221.19769146598088 L 202.4,220.00945126930105 L 217.6,220.83287546460247 L 232.8,223.25286997711768 L 248,226.04949812190765 L 263.20000000000005,227.8129594840051 L 278.40000000000003,227.65428047401974 L 293.59999999999997,225.65345232515892 L 308.8,222.81910693573099 L 324,220.5800582557136 L 339.2,220.0650268710385 L 354.4,221.53364381673933 L 369.6,224.24556869992753 L 384.8,226.83370063062551 L 400,227.99334363890765 L 415.2,227.1399133218258 L 430.40000000000003,224.70363005651842 L 445.6,221.91264180566938 L 460.79999999999995,220.17390587303967 L 476,220.36393158072363 L 491.2,222.3869255991553 L 506.40000000000003,225.22308205533204 L 521.6,227.44267402746812 L 536.8000000000001,227.92678919638186 L 552,226.43138161434945 L 567.1999999999999,223.7102970272281 L 582.4,221.13525379780097 L 597.6,220.00434978729723 L 612.8000000000001,220.88768186264085 L 628,223.33995595472467 L 643.1999999999999,226.12496300977293 L 658.4,227.83876088795978 L 673.6,227.61741172026998 L 688.8,225.57249921833966 L 704,222.73487852076275 L 719.2,220.53501468397383 L 734.4,220.08187493186156 L 749.6,221.6038902811688 L 764.8,224.33380181867983 L 780,226.89544145226674"
      stroke="url(#thread-17)"
      stroke-width="5.776"
      stroke-linecap="round"
      fill="none"
      opacity="0.4631578947368421"
      class="thread"
      style="animation-delay: 1.7000000000000002s"
    >
      <title>2025-12-24: 2888 stars, Python, TypeScript</title>
    </path>

    <path
      d="M 20,237.64847394096702 L 35.2,234.81388599730354 L 50.400000000000006,232.57722667576138 L 65.6,232.0660120694346 L 80.80000000000001,233.53794914786778 L 96,236.25102381531968 L 111.2,238.83755556727397 L 126.4,239.99365509544901 L 141.60000000000002,239.1365242907716 L 156.79999999999998,236.69824897286222 L 172,233.90798131248658 L 187.2,232.1723153585517 L 202.4,232.36621283475347 L 217.6,234.39192862509583 L 232.8,237.22828479172858 L 248,239.44545373738492 L 263.20000000000005,239.92574460800472 L 278.40000000000003,238.42703931221206 L 293.59999999999997,235.70484599715132 L 308.8,233.13144194335527 L 324,232.00409869179688 L 339.2,232.8911181051383 L 354.4,235.34534730059735 L 369.6,238.12959164268813 L 384.8,239.84029348068668 L 400,239.61507568176307 L 415.2,237.56747216245603 L 430.40000000000003,234.72969462262463 L 445.6,232.5322871840151 L 460.79999999999995,232.08297878248004 L 476,233.60826902330757 L 491.2,236.33924809685055 L 506.40000000000003,238.8992097583691 L 521.6,239.99765887377367 L 536.8000000000001,239.08085932280005 L 552,236.61097637036283 L 567.1999999999999,233.8330958237237 L 582.4,232.14756729842847 L 597.6,232.4040778788424 L 612.8000000000001,234.47331873161747 L 628,237.31217062106117 L 643.1999999999999,239.48954783804038 L 658.4,239.90781882586916 L 673.6,238.3561301633273 L 688.8,235.61669929481354 L 704,233.07049307586072 L 719.2,232.00107242276695 L 734.4,232.94753999861416 L 749.6,235.43277467320553 L 764.8,238.2039517254364 L 780,239.86410081963268"
      stroke="url(#thread-18)"
      stroke-width="5.776"
      stroke-linecap="round"
      fill="none"
      opacity="0.4315789473684211"
      class="thread"
      style="animation-delay: 1.8s"
    >
      <title>2025-12-23: 2888 stars, Python, TypeScript</title>
    </path>
  </g>

  <!-- Date markers -->
  <g id="dates">
    <text x="785" y="24" class="date-label">01-10</text>
<text x="785" y="108" class="date-label">01-03</text>
<text x="785" y="192" class="date-label">12-27</text>
  </g>

</svg>